<svg xmlns="http://www.w3.org/2000/svg" xmlns:xlink="http://www.w3.org/1999/xlink" width="500" zoomAndPan="magnify" viewBox="0 0 375 374.999991" height="500" preserveAspectRatio="xMidYMid meet" version="1.0"><defs><g/><clipPath id="f178e5d6eb"><path d="M 45.238281 45.238281 L 329.761719 45.238281 L 329.761719 329.761719 L 45.238281 329.761719 Z M 45.238281 45.238281 " clip-rule="nonzero"/></clipPath><clipPath id="38000655ba"><path d="M 187.5 45.238281 C 108.929688 45.238281 45.238281 108.929688 45.238281 187.5 C 45.238281 266.070312 108.929688 329.761719 187.5 329.761719 C 266.070312 329.761719 329.761719 266.070312 329.761719 187.5 C 329.761719 108.929688 266.070312 45.238281 187.5 45.238281 Z M 187.5 45.238281 " clip-rule="nonzero"/></clipPath><clipPath id="dd994476b9"><path d="M 175 269 L 186 269 L 186 277.871094 L 175 277.871094 Z M 175 269 " clip-rule="nonzero"/></clipPath><clipPath id="c9c64eb2a6"><path d="M 119.457031 147.371094 L 231 147.371094 L 231 200 L 119.457031 200 Z M 119.457031 147.371094 " clip-rule="nonzero"/></clipPath></defs><g clip-path="url(#f178e5d6eb)"><g clip-path="url(#38000655ba)"><path fill="#cfff00" d="M 45.238281 45.238281 L 329.761719 45.238281 L 329.761719 329.761719 L 45.238281 329.761719 Z M 45.238281 45.238281 " fill-opacity="1" fill-rule="nonzero"/></g></g><path fill="#000000" d="M 141.878906 162.726562 C 140.785156 162.726562 139.898438 163.621094 139.898438 164.710938 C 139.898438 165.804688 140.785156 166.695312 141.878906 166.695312 C 142.976562 166.695312 143.863281 165.804688 143.863281 164.710938 C 143.863281 163.621094 142.976562 162.726562 141.878906 162.726562 " fill-opacity="1" fill-rule="nonzero"/><path fill="#000000" d="M 171.902344 274.519531 C 171.605469 274.519531 171.292969 274.429688 171.027344 274.246094 C 170.332031 273.757812 170.160156 272.800781 170.648438 272.105469 C 174.082031 267.183594 178.984375 264.898438 181.191406 264.074219 L 181.164062 258.636719 C 181.207031 248.394531 169.761719 241.929688 162.9375 238.992188 C 157.046875 236.449219 151.90625 233.269531 147.664062 229.523438 C 123.207031 207.957031 133.535156 181.605469 133.640625 181.34375 C 133.960938 180.558594 134.859375 180.179688 135.640625 180.5 C 136.429688 180.820312 136.804688 181.71875 136.484375 182.5 C 136.078125 183.523438 126.925781 207.144531 149.695312 227.21875 C 153.695312 230.75 158.558594 233.761719 164.148438 236.171875 C 171.671875 239.410156 184.285156 246.640625 184.238281 258.636719 L 184.269531 265.171875 C 184.269531 265.867188 183.804688 266.480469 183.132812 266.664062 C 183.074219 266.679688 176.964844 268.417969 173.167969 273.863281 C 172.871094 274.292969 172.390625 274.519531 171.902344 274.519531 " fill-opacity="1" fill-rule="nonzero"/><g clip-path="url(#dd994476b9)"><path fill="#000000" d="M 176.671875 278.003906 C 176.441406 278.003906 176.207031 277.953125 175.988281 277.84375 C 175.226562 277.464844 174.917969 276.539062 175.296875 275.785156 C 177.636719 271.089844 183.253906 269.855469 183.496094 269.804688 C 184.324219 269.628906 185.140625 270.160156 185.3125 270.992188 C 185.492188 271.820312 184.960938 272.632812 184.132812 272.8125 C 184.074219 272.824219 179.710938 273.808594 178.046875 277.152344 C 177.777344 277.695312 177.234375 278.003906 176.671875 278.003906 " fill-opacity="1" fill-rule="nonzero"/></g><path fill="#000000" d="M 136.582031 183.453125 C 134.109375 183.453125 131.425781 182.414062 129.324219 180.476562 C 126.015625 177.425781 125.199219 173.179688 127.128906 169.117188 C 127.492188 168.34375 128.410156 168.019531 129.171875 168.386719 C 129.9375 168.75 130.265625 169.664062 129.902344 170.429688 C 127.996094 174.449219 130.316406 177.21875 131.410156 178.21875 C 133.609375 180.246094 136.839844 180.972656 138.757812 179.859375 C 139.835938 179.238281 140.929688 178.0625 140.953125 176.84375 C 140.96875 176.003906 141.65625 175.339844 142.492188 175.339844 C 142.503906 175.339844 142.511719 175.339844 142.523438 175.339844 C 143.371094 175.355469 144.042969 176.058594 144.027344 176.90625 C 143.972656 179.484375 142.066406 181.496094 140.296875 182.515625 C 139.207031 183.148438 137.925781 183.453125 136.582031 183.453125 " fill-opacity="1" fill-rule="nonzero"/><path fill="#000000" d="M 193.976562 272.84375 C 193.125 272.84375 192.4375 272.15625 192.4375 271.3125 L 192.4375 259.136719 C 192.4375 253.527344 196.46875 248.742188 202.023438 247.75 C 217.90625 244.917969 234.996094 233.996094 234.996094 216.714844 C 234.996094 215.871094 235.683594 215.179688 236.527344 215.179688 C 237.378906 215.179688 238.066406 215.871094 238.066406 216.714844 C 238.066406 235.765625 219.664062 247.722656 202.566406 250.773438 C 198.476562 251.503906 195.515625 255.015625 195.515625 259.136719 L 195.515625 271.3125 C 195.515625 272.15625 194.824219 272.84375 193.976562 272.84375 " fill-opacity="1" fill-rule="nonzero"/><path fill="#000000" d="M 187.398438 229.503906 C 181.980469 229.503906 176.535156 228.511719 171.621094 226.472656 C 164.800781 223.640625 160.4375 219.628906 160.253906 219.460938 C 159.632812 218.882812 159.597656 217.910156 160.167969 217.292969 C 160.746094 216.667969 161.71875 216.628906 162.34375 217.207031 C 162.386719 217.246094 166.511719 221.023438 172.800781 223.640625 C 184.046875 228.308594 198.921875 226.921875 208.15625 220.335938 C 211.839844 217.707031 216.152344 213.148438 215.730469 206.328125 C 215.679688 205.484375 216.324219 204.753906 217.171875 204.707031 C 218.011719 204.660156 218.746094 205.300781 218.796875 206.144531 C 219.191406 212.554688 216.042969 218.488281 209.941406 222.835938 C 203.789062 227.21875 195.625 229.503906 187.398438 229.503906 " fill-opacity="1" fill-rule="nonzero"/><g clip-path="url(#c9c64eb2a6)"><path fill="#000000" d="M 214.296875 199.347656 C 213.640625 199.347656 213.039062 198.921875 212.832031 198.265625 C 212.582031 197.453125 213.039062 196.597656 213.847656 196.34375 C 216.582031 195.503906 219.597656 194.339844 222.796875 192.890625 C 224.988281 191.902344 227.28125 189.828125 227.183594 186.976562 L 226.742188 183.816406 C 217.378906 188.601562 208.421875 191.585938 200.082031 192.699219 C 183.917969 194.859375 167.8125 186.382812 160.011719 171.617188 C 157.800781 167.421875 155.0625 164.332031 151.390625 161.914062 L 150.351562 161.230469 L 150.808594 160.070312 C 151.71875 157.738281 150.71875 155.480469 149.253906 154.457031 C 147.644531 153.328125 145.605469 153.65625 143.664062 155.359375 L 141.921875 156.894531 L 141.191406 154.6875 C 140.355469 152.152344 138.003906 150.453125 135.335938 150.453125 C 131.941406 150.453125 129.171875 153.21875 129.171875 156.617188 C 129.171875 158.152344 129.804688 159.761719 130.863281 160.921875 L 132.699219 162.933594 L 130.027344 163.460938 C 128.835938 163.699219 127.660156 163.957031 126.4375 164.484375 C 124.789062 165.195312 123.886719 166.480469 123.40625 167.515625 C 125.980469 167.777344 130.621094 168.382812 134.347656 169.609375 C 135.152344 169.878906 135.59375 170.742188 135.324219 171.550781 C 135.058594 172.355469 134.1875 172.792969 133.382812 172.527344 C 128.421875 170.886719 121.34375 170.417969 121.277344 170.414062 L 119.621094 170.308594 L 119.855469 168.664062 C 119.878906 168.464844 120.609375 163.652344 125.226562 161.660156 C 125.898438 161.371094 126.554688 161.152344 127.195312 160.96875 C 126.496094 159.617188 126.101562 158.097656 126.101562 156.617188 C 126.101562 151.523438 130.242188 147.382812 135.335938 147.382812 C 138.640625 147.382812 141.617188 149.125 143.257812 151.863281 C 146.28125 150.078125 149.164062 150.648438 151.019531 151.941406 C 153.539062 153.707031 154.699219 156.953125 154.027344 160.003906 C 157.675781 162.613281 160.457031 165.871094 162.730469 170.183594 C 169.929688 183.816406 184.78125 191.644531 199.675781 189.65625 C 208.222656 188.515625 217.496094 185.296875 227.242188 180.089844 L 229.175781 179.054688 L 230.25 186.769531 C 230.421875 190.46875 228.054688 193.886719 224.0625 195.6875 C 220.742188 197.195312 217.613281 198.398438 214.753906 199.277344 C 214.601562 199.324219 214.449219 199.347656 214.296875 199.347656 " fill-opacity="1" fill-rule="nonzero"/></g><path fill="#000000" d="M 206.695312 211.027344 C 206.039062 211.027344 205.429688 210.601562 205.226562 209.941406 C 204.980469 209.128906 205.4375 208.273438 206.25 208.027344 L 215.964844 205.058594 C 220.292969 203.742188 222.945312 199.285156 222 194.914062 C 221.972656 194.785156 221.953125 194.699219 221.949219 194.683594 C 221.734375 193.871094 222.214844 193.03125 223.035156 192.808594 C 223.847656 192.589844 224.6875 193.074219 224.914062 193.890625 C 224.914062 193.890625 224.953125 194.023438 225.003906 194.265625 C 226.285156 200.183594 222.710938 206.214844 216.859375 208 L 207.144531 210.960938 C 206.996094 211.007812 206.84375 211.027344 206.695312 211.027344 " fill-opacity="1" fill-rule="nonzero"/><path fill="#000000" d="M 231.8125 203.207031 C 231.082031 203.207031 230.4375 202.6875 230.300781 201.945312 C 230.148438 201.109375 230.707031 200.308594 231.539062 200.15625 C 240.296875 198.550781 246.195312 195.347656 249.054688 190.636719 C 250.753906 187.839844 251.023438 185.015625 250.929688 183.082031 C 245.335938 187.136719 236.421875 189.992188 235.992188 190.128906 C 235.183594 190.378906 234.316406 189.933594 234.066406 189.125 C 233.808594 188.316406 234.253906 187.457031 235.0625 187.199219 C 235.179688 187.160156 246.472656 183.550781 250.945312 179.070312 L 252.734375 177.28125 L 253.496094 179.695312 C 253.574219 179.953125 255.421875 186.015625 251.714844 192.175781 C 248.386719 197.699219 241.785156 201.398438 232.089844 203.179688 C 231.996094 203.195312 231.902344 203.207031 231.8125 203.207031 " fill-opacity="1" fill-rule="nonzero"/><path fill="#000000" d="M 227.109375 220.207031 C 226.328125 220.207031 225.65625 219.605469 225.582031 218.808594 C 225.507812 217.964844 226.128906 217.21875 226.972656 217.140625 C 231.042969 216.777344 234.570312 215.953125 237.460938 214.699219 C 241.671875 212.871094 244.15625 208.417969 243.375 204.109375 C 242.832031 201.160156 241.207031 199.675781 241.136719 199.613281 C 240.507812 199.054688 240.445312 198.082031 241 197.453125 C 241.558594 196.816406 242.519531 196.75 243.152344 197.300781 C 243.257812 197.382812 245.652344 199.492188 246.394531 203.558594 C 247.433594 209.257812 244.1875 215.128906 238.6875 217.519531 C 235.488281 218.902344 231.640625 219.808594 227.25 220.199219 C 227.203125 220.207031 227.15625 220.207031 227.109375 220.207031 " fill-opacity="1" fill-rule="nonzero"/><g fill="#000000" fill-opacity="1"><g transform="translate(125.987979, 125.546911)"><g><path d="M 9.09375 -33.578125 L -0.765625 -28.46875 C -1.546875 -28.070312 -2.019531 -27.625 -2.1875 -27.125 C -2.351562 -26.632812 -2.253906 -26.03125 -1.890625 -25.3125 L 0.546875 -20.59375 L 11.109375 -26.046875 L 13.40625 -21.609375 L 2.84375 -16.15625 L 8.828125 -4.5625 L 2.71875 -1.40625 L -8.640625 -23.390625 C -9.546875 -25.148438 -9.707031 -26.832031 -9.125 -28.4375 C -8.550781 -30.039062 -7.347656 -31.316406 -5.515625 -32.265625 C 0.347656 -35.285156 4.554688 -37.265625 7.109375 -38.203125 Z M 9.09375 -33.578125 "/></g></g></g><g fill="#000000" fill-opacity="1"><g transform="translate(147.139018, 114.206553)"><g><path d="M 10 -36.96875 C 9.226562 -35.75 8.128906 -34.96875 6.703125 -34.625 C 5.273438 -34.28125 3.9375 -34.472656 2.6875 -35.203125 C 1.445312 -35.941406 0.65625 -37.007812 0.3125 -38.40625 C -0.0195312 -39.8125 0.203125 -41.125 0.984375 -42.34375 C 1.765625 -43.570312 2.851562 -44.351562 4.25 -44.6875 C 5.65625 -45.03125 6.988281 -44.835938 8.25 -44.109375 C 9.507812 -43.378906 10.304688 -42.3125 10.640625 -40.90625 C 10.984375 -39.507812 10.769531 -38.195312 10 -36.96875 Z M 6.625 -41.640625 C 6.101562 -41.960938 5.535156 -42.050781 4.921875 -41.90625 C 4.304688 -41.757812 3.84375 -41.421875 3.53125 -40.890625 C 3.21875 -40.359375 3.140625 -39.773438 3.296875 -39.140625 C 3.460938 -38.460938 3.800781 -37.972656 4.3125 -37.671875 C 4.832031 -37.367188 5.398438 -37.289062 6.015625 -37.4375 C 6.628906 -37.582031 7.097656 -37.910156 7.421875 -38.421875 C 7.742188 -38.929688 7.820312 -39.523438 7.65625 -40.203125 C 7.5 -40.835938 7.15625 -41.316406 6.625 -41.640625 Z M 17.5 -12.609375 L 7.125 -10.09375 L 6.859375 -1.671875 L 0.046875 -0.015625 L 1.859375 -30.546875 C 1.847656 -31.109375 2.019531 -31.597656 2.375 -32.015625 C 2.738281 -32.441406 3.195312 -32.722656 3.75 -32.859375 L 10.046875 -34.375 C 11.296875 -34.6875 12.207031 -34.289062 12.78125 -33.1875 L 28.375 -6.875 L 21.609375 -5.234375 Z M 14.8125 -17.4375 L 10.03125 -26.0625 C 9.320312 -27.425781 8.890625 -28.316406 8.734375 -28.734375 L 7.5625 -28.453125 C 7.570312 -28.140625 7.582031 -27.644531 7.59375 -26.96875 C 7.601562 -26.300781 7.597656 -25.796875 7.578125 -25.453125 L 7.28125 -15.609375 Z M 14.8125 -17.4375 "/></g></g></g><g fill="#000000" fill-opacity="1"><g transform="translate(174.342617, 107.464311)"><g><path d="M 26.9375 -17.453125 L 26.640625 0.453125 L 21.59375 0.375 L 21.015625 -2.75 C 18.578125 -0.332031 15.570312 0.84375 12 0.78125 C 8.519531 0.71875 6.019531 -0.597656 4.5 -3.171875 C 2.988281 -5.742188 2.28125 -9.878906 2.375 -15.578125 C 2.476562 -21.640625 3.578125 -25.804688 5.671875 -28.078125 C 7.765625 -30.359375 11.390625 -31.457031 16.546875 -31.375 C 20.296875 -31.300781 23.472656 -30.882812 26.078125 -30.125 L 25.453125 -25.09375 C 22.066406 -25.289062 19.144531 -25.410156 16.6875 -25.453125 C 15.300781 -25.484375 14.207031 -25.390625 13.40625 -25.171875 C 12.613281 -24.960938 11.910156 -24.488281 11.296875 -23.75 C 10.679688 -23.007812 10.253906 -21.972656 10.015625 -20.640625 C 9.785156 -19.316406 9.65625 -17.515625 9.625 -15.234375 C 9.550781 -11.359375 9.863281 -8.691406 10.5625 -7.234375 C 11.257812 -5.785156 12.582031 -5.046875 14.53125 -5.015625 C 16.332031 -4.984375 18.203125 -5.476562 20.140625 -6.5 L 20.328125 -17.5625 Z M 26.9375 -17.453125 "/></g></g></g><g fill="#000000" fill-opacity="1"><g transform="translate(202.326949, 108.003406)"><g><path d="M 24.390625 0.90625 L 23.40625 5.875 C 20.601562 5.445312 15.921875 4.363281 9.359375 2.625 C 7.359375 2.09375 5.90625 1.128906 5 -0.265625 C 4.101562 -1.671875 3.882812 -3.3125 4.34375 -5.1875 L 9.15625 -23.375 C 9.6875 -25.21875 10.6875 -26.523438 12.15625 -27.296875 C 13.632812 -28.078125 15.375 -28.203125 17.375 -27.671875 C 23.9375 -25.929688 28.539062 -24.550781 31.1875 -23.53125 L 29.578125 -18.703125 L 18.046875 -21.765625 C 17.316406 -21.953125 16.742188 -21.910156 16.328125 -21.640625 C 15.921875 -21.378906 15.617188 -20.859375 15.421875 -20.078125 L 14.203125 -15.5 L 26.171875 -12.328125 L 24.90625 -7.5625 L 12.9375 -10.734375 L 11.40625 -4.9375 C 11.1875 -4.125 11.191406 -3.503906 11.421875 -3.078125 C 11.648438 -2.648438 12.128906 -2.34375 12.859375 -2.15625 Z M 24.390625 0.90625 "/></g></g></g><g fill="#000000" fill-opacity="1"><g transform="translate(226.698557, 114.488797)"><g><path d="M 23.125 -22.953125 L 12.421875 -2.40625 C 12.046875 -1.6875 11.941406 -1.082031 12.109375 -0.59375 C 12.273438 -0.101562 12.742188 0.34375 13.515625 0.75 L 22.96875 5.671875 L 20.84375 10.46875 C 18 9.351562 14.035156 7.472656 8.953125 4.828125 C 6.816406 3.710938 5.507812 2.351562 5.03125 0.75 C 4.5625 -0.851562 4.789062 -2.546875 5.71875 -4.328125 L 17.0625 -26.109375 Z M 23.125 -22.953125 "/></g></g></g></svg>