<svg xmlns="http://www.w3.org/2000/svg" xmlns:xlink="http://www.w3.org/1999/xlink" width="500" zoomAndPan="magnify" viewBox="0 0 375 112.499997" height="150" preserveAspectRatio="xMidYMid meet" version="1.0"><defs><filter x="0%" y="0%" width="100%" height="100%" id="75290749db"><feColorMatrix values="0 0 0 0 1 0 0 0 0 1 0 0 0 0 1 0 0 0 1 0" color-interpolation-filters="sRGB"/></filter><g/><clipPath id="eb41d3abb5"><path d="M 76.40625 24.476562 L 298.589844 24.476562 L 298.589844 87.523438 L 76.40625 87.523438 Z M 76.40625 24.476562 " clip-rule="nonzero"/></clipPath><mask id="6248557190"><g filter="url(#75290749db)"><rect x="-37.5" width="450" fill="#000000" y="-11.25" height="134.999996" fill-opacity="0.93"/></g></mask><clipPath id="28255911c2"><path d="M 52 0.476562 L 88 0.476562 L 88 51 L 52 51 Z M 52 0.476562 " clip-rule="nonzero"/></clipPath><clipPath id="53fe113720"><rect x="0" width="136" y="0" height="65"/></clipPath></defs><g clip-path="url(#eb41d3abb5)"><path fill="#1e1e1e" d="M 76.40625 24.476562 L 298.542969 24.476562 L 298.542969 87.523438 L 76.40625 87.523438 Z M 76.40625 24.476562 " fill-opacity="1" fill-rule="nonzero"/></g><g mask="url(#6248557190)"><g transform="matrix(1, 0, 0, 1, 117, 27)"><g clip-path="url(#53fe113720)"><g fill="#ffffff" fill-opacity="1"><g transform="translate(0.401249, 50.042768)"><g><path d="M 22.296875 -34.265625 L 22.296875 -27.40625 L 10.296875 -27.40625 L 10.296875 -20.59375 L 21.390625 -20.59375 L 21.390625 -13.75 L 10.296875 -13.75 L 10.296875 0 L 2.484375 0 L 2.484375 -34.265625 Z M 22.296875 -34.265625 "/></g></g></g><g fill="#ffffff" fill-opacity="1"><g transform="translate(23.944557, 50.042768)"><g><path d="M 2.484375 -34.265625 L 14.75 -34.265625 C 18.039062 -34.265625 20.722656 -33.382812 22.796875 -31.625 C 24.878906 -29.863281 25.921875 -27.351562 25.921875 -24.09375 C 25.921875 -21.570312 25.289062 -19.457031 24.03125 -17.75 C 22.769531 -16.050781 21.054688 -14.851562 18.890625 -14.15625 L 30.6875 0 L 20.765625 0 L 10.296875 -13.546875 L 10.296875 0 L 2.484375 0 Z M 10.296875 -19.0625 L 11.21875 -19.0625 C 11.9375 -19.0625 12.539062 -19.070312 13.03125 -19.09375 C 13.53125 -19.125 14.097656 -19.222656 14.734375 -19.390625 C 15.378906 -19.554688 15.894531 -19.789062 16.28125 -20.09375 C 16.664062 -20.40625 16.992188 -20.847656 17.265625 -21.421875 C 17.546875 -22.003906 17.6875 -22.710938 17.6875 -23.546875 C 17.6875 -24.378906 17.546875 -25.082031 17.265625 -25.65625 C 16.992188 -26.238281 16.664062 -26.679688 16.28125 -26.984375 C 15.894531 -27.296875 15.378906 -27.535156 14.734375 -27.703125 C 14.097656 -27.867188 13.53125 -27.960938 13.03125 -27.984375 C 12.539062 -28.015625 11.9375 -28.03125 11.21875 -28.03125 L 10.296875 -28.03125 Z M 10.296875 -19.0625 "/></g></g></g><g clip-path="url(#28255911c2)"><g fill="#ffffff" fill-opacity="1"><g transform="translate(53.674732, 50.042768)"><g><path d="M 9.59375 -43.40625 C 9.59375 -45.113281 10.234375 -46.519531 11.515625 -47.625 C 12.804688 -48.738281 14.394531 -49.296875 16.28125 -49.296875 C 18.1875 -49.296875 19.773438 -48.738281 21.046875 -47.625 C 22.328125 -46.519531 22.96875 -45.113281 22.96875 -43.40625 C 22.96875 -41.65625 22.34375 -40.226562 21.09375 -39.125 C 19.851562 -38.019531 18.25 -37.46875 16.28125 -37.46875 C 14.289062 -37.46875 12.675781 -38.019531 11.4375 -39.125 C 10.207031 -40.226562 9.59375 -41.65625 9.59375 -43.40625 Z M 13.75 -43.40625 C 13.75 -42.65625 13.984375 -42.023438 14.453125 -41.515625 C 14.921875 -41.003906 15.53125 -40.75 16.28125 -40.75 C 17 -40.75 17.597656 -41.003906 18.078125 -41.515625 C 18.566406 -42.023438 18.8125 -42.65625 18.8125 -43.40625 C 18.8125 -44.125 18.5625 -44.726562 18.0625 -45.21875 C 17.5625 -45.71875 16.960938 -45.96875 16.265625 -45.96875 C 15.578125 -45.96875 14.984375 -45.710938 14.484375 -45.203125 C 13.992188 -44.691406 13.75 -44.09375 13.75 -43.40625 Z M 19.890625 -34.265625 L 33.71875 0 L 25.328125 0 L 22.796875 -6.859375 L 9.765625 -6.859375 L 7.21875 0 L -1.15625 0 L 12.671875 -34.265625 Z M 20.140625 -13.703125 L 16.328125 -23.671875 L 16.234375 -23.671875 L 12.421875 -13.703125 Z M 20.140625 -13.703125 "/></g></g></g></g><g fill="#ffffff" fill-opacity="1"><g transform="translate(86.228446, 50.042768)"><g><path d="M 10.296875 -21.265625 L 10.296875 0 L 2.484375 0 L 2.484375 -34.265625 L 10.296875 -34.265625 L 23.921875 -13 L 24 -13 L 24 -34.265625 L 31.8125 -34.265625 L 31.8125 0 L 24 0 L 10.390625 -21.265625 Z M 10.296875 -21.265625 "/></g></g></g><g fill="#ffffff" fill-opacity="1"><g transform="translate(120.52611, 50.042768)"><g><path d="M 7.21875 -23.015625 C 8.550781 -23.015625 9.679688 -22.546875 10.609375 -21.609375 C 11.535156 -20.679688 12 -19.554688 12 -18.234375 C 12 -16.929688 11.535156 -15.816406 10.609375 -14.890625 C 9.679688 -13.960938 8.550781 -13.5 7.21875 -13.5 C 5.925781 -13.5 4.8125 -13.960938 3.875 -14.890625 C 2.945312 -15.816406 2.484375 -16.929688 2.484375 -18.234375 C 2.484375 -19.554688 2.945312 -20.679688 3.875 -21.609375 C 4.8125 -22.546875 5.925781 -23.015625 7.21875 -23.015625 Z M 7.21875 -8.890625 C 8.550781 -8.890625 9.679688 -8.425781 10.609375 -7.5 C 11.535156 -6.570312 12 -5.441406 12 -4.109375 C 12 -2.804688 11.535156 -1.691406 10.609375 -0.765625 C 9.679688 0.160156 8.550781 0.625 7.21875 0.625 C 5.925781 0.625 4.8125 0.160156 3.875 -0.765625 C 2.945312 -1.691406 2.484375 -2.804688 2.484375 -4.109375 C 2.484375 -5.441406 2.945312 -6.570312 3.875 -7.5 C 4.8125 -8.425781 5.925781 -8.890625 7.21875 -8.890625 Z M 7.21875 -8.890625 "/></g></g></g></g></g></g></svg>