<svg xmlns="http://www.w3.org/2000/svg" xmlns:xlink="http://www.w3.org/1999/xlink" width="500" zoomAndPan="magnify" viewBox="0 0 375 374.999991" height="500" preserveAspectRatio="xMidYMid meet" version="1.0"><defs><g/><clipPath id="9cb8c8365d"><path d="M 45.238281 45.238281 L 329.761719 45.238281 L 329.761719 329.761719 L 45.238281 329.761719 Z M 45.238281 45.238281 " clip-rule="nonzero"/></clipPath><clipPath id="6817afc0c6"><path d="M 187.5 45.238281 C 108.929688 45.238281 45.238281 108.929688 45.238281 187.5 C 45.238281 266.070312 108.929688 329.761719 187.5 329.761719 C 266.070312 329.761719 329.761719 266.070312 329.761719 187.5 C 329.761719 108.929688 266.070312 45.238281 187.5 45.238281 Z M 187.5 45.238281 " clip-rule="nonzero"/></clipPath><clipPath id="83edd115ec"><path d="M 121 156 L 254.769531 156 L 254.769531 267.722656 L 121 267.722656 Z M 121 156 " clip-rule="nonzero"/></clipPath><clipPath id="cde3dbec79"><path d="M 98.394531 180 L 276.894531 180 L 276.894531 244 L 98.394531 244 Z M 98.394531 180 " clip-rule="nonzero"/></clipPath><clipPath id="84b57b88ec"><path d="M 104 243 L 272 243 L 272 301.296875 L 104 301.296875 Z M 104 243 " clip-rule="nonzero"/></clipPath><clipPath id="1452cf0094"><path d="M 104 122.796875 L 272 122.796875 L 272 181 L 104 181 Z M 104 122.796875 " clip-rule="nonzero"/></clipPath></defs><g clip-path="url(#9cb8c8365d)"><g clip-path="url(#6817afc0c6)"><path fill="#f2f2f0" d="M 45.238281 45.238281 L 329.761719 45.238281 L 329.761719 329.761719 L 45.238281 329.761719 Z M 45.238281 45.238281 " fill-opacity="1" fill-rule="nonzero"/></g></g><g clip-path="url(#83edd115ec)"><path fill="#000000" d="M 174.441406 235.175781 L 172.179688 262.53125 L 167.042969 262.53125 L 168.6875 258.585938 C 168.8125 258.28125 168.859375 257.945312 168.828125 257.613281 L 167.175781 239.035156 C 167.089844 238.074219 166.957031 237.179688 166.78125 236.3125 C 169.5 236.710938 172.203125 236.445312 174.441406 235.175781 Z M 186.976562 233.6875 C 187.730469 234.421875 188.496094 234.164062 189.355469 234.730469 C 191.222656 242.566406 192.109375 252.367188 190.1875 259.328125 L 185.425781 259.328125 L 186.820312 256.058594 C 186.878906 255.914062 186.917969 255.773438 186.945312 255.628906 C 188.253906 248.65625 186.125 240.972656 183.675781 235.203125 C 184.917969 234.671875 185.960938 234.671875 186.976562 233.6875 Z M 229.207031 233.214844 C 230.296875 234.730469 231.445312 236.160156 232.535156 237.503906 C 232.542969 237.511719 232.542969 237.511719 232.554688 237.523438 C 232.535156 237.582031 232.515625 237.648438 232.503906 237.703125 L 227.816406 259.332031 L 223.535156 259.332031 L 224.863281 254.316406 L 226.875 246 C 227.703125 242.53125 226.652344 238.992188 224.914062 235.867188 C 226.566406 235.445312 228.058594 234.519531 229.207031 233.214844 Z M 246.558594 232.3125 C 247.617188 236.816406 248.59375 240.847656 247.808594 244.558594 L 243.839844 263.34375 L 238.761719 263.34375 L 240.089844 258.328125 L 242.089844 250 C 242.796875 247.054688 242.054688 244.242188 240.75 241.800781 C 239.730469 239.882812 238.363281 238.109375 236.945312 236.359375 C 238.296875 236.460938 239.652344 236.375 240.953125 236.042969 C 243.238281 235.453125 245.113281 234.097656 246.558594 232.3125 Z M 147.613281 160.277344 C 148.128906 160.285156 148.65625 160.4375 149.164062 160.695312 C 150.351562 161.324219 151.03125 162.613281 151.03125 163.953125 C 151.03125 165.898438 153.46875 166.777344 154.722656 165.28125 C 155.898438 163.859375 158.019531 163.910156 159.828125 163.5625 C 159.359375 165.59375 159.199219 167.886719 157.753906 169.324219 C 155.992188 171.050781 158.171875 173.84375 160.289062 172.578125 C 161.457031 171.898438 162.871094 171.890625 164.046875 172.546875 C 165.222656 173.214844 165.949219 174.433594 165.960938 175.777344 C 165.96875 177.375 167.710938 178.355469 169.089844 177.554688 C 170.257812 176.867188 171.679688 176.859375 172.859375 177.523438 C 174.035156 178.183594 174.742188 179.414062 174.75 180.746094 C 174.75 182.882812 177.59375 183.636719 178.644531 181.777344 C 179.328125 180.625 180.558594 179.902344 181.898438 179.902344 C 183.246094 179.902344 184.5 180.625 185.167969 181.777344 C 185.972656 183.160156 187.972656 183.160156 188.777344 181.777344 C 189.445312 180.625 190.6875 179.902344 192.027344 179.902344 C 193.378906 179.902344 194.613281 180.625 195.28125 181.777344 C 196.082031 183.160156 198.09375 183.160156 198.886719 181.777344 C 199.566406 180.625 200.808594 179.902344 202.15625 179.902344 C 203.507812 179.902344 204.738281 180.625 205.410156 181.777344 C 206.214844 183.160156 208.210938 183.160156 209.019531 181.777344 C 209.6875 180.625 210.921875 179.902344 212.269531 179.902344 C 213.617188 179.902344 214.851562 180.625 215.523438 181.777344 C 216.324219 183.171875 218.335938 183.171875 219.128906 181.777344 C 219.808594 180.625 221.050781 179.902344 222.398438 179.902344 C 223.75 179.902344 224.984375 180.625 225.652344 181.777344 C 226.457031 183.160156 228.453125 183.160156 229.257812 181.777344 C 229.9375 180.625 231.164062 179.902344 232.511719 179.902344 C 233.859375 179.902344 235.105469 180.625 235.78125 181.777344 C 236.25 182.589844 237.207031 182.976562 238.117188 182.742188 C 239.417969 182.398438 240.796875 182.761719 241.742188 183.714844 C 242.699219 184.667969 243.074219 186.039062 242.71875 187.339844 C 242.386719 188.597656 243.285156 189.84375 244.582031 189.941406 C 245.921875 190.042969 247.109375 190.847656 247.699219 192.046875 C 248.285156 193.257812 248.171875 194.691406 247.414062 195.796875 C 246.6875 196.863281 247.105469 198.324219 248.285156 198.847656 C 249.511719 199.410156 250.332031 200.566406 250.464844 201.910156 C 250.589844 203.242188 249.988281 204.53125 248.886719 205.3125 C 247.824219 206.066406 247.71875 207.601562 248.660156 208.507812 C 249.632812 209.429688 250.039062 210.804688 249.722656 212.109375 C 249.398438 213.417969 248.410156 214.4375 247.121094 214.8125 C 245.378906 215.324219 245.082031 217.652344 246.632812 218.585938 C 247.792969 219.273438 248.46875 220.519531 248.449219 221.867188 C 248.421875 223.117188 247.78125 224.242188 246.746094 224.917969 C 246.066406 225.195312 245.578125 225.796875 245.464844 226.519531 C 244.640625 229.285156 242.527344 231.355469 239.917969 232.03125 C 237.292969 232.710938 233.679688 231.9375 232.015625 229.765625 C 229.949219 227.054688 228.65625 223.347656 228.636719 220.511719 C 228.628906 219.351562 227.699219 218.386719 226.523438 218.40625 C 225.363281 218.414062 224.4375 219.371094 224.457031 220.511719 C 224.457031 223.84375 225.433594 226.757812 226.820312 229.402344 C 225.855469 231.070312 224.46875 231.804688 222.925781 231.976562 C 221.246094 232.175781 219.972656 230.785156 219.179688 229.632812 C 218.25 228.277344 216.339844 228.152344 215.527344 229.574219 C 214.855469 230.738281 213.621094 231.453125 212.273438 231.453125 C 210.925781 231.453125 209.691406 230.738281 209.019531 229.574219 C 208.214844 228.191406 206.21875 228.191406 205.414062 229.574219 C 204.742188 230.738281 203.511719 231.453125 202.160156 231.453125 C 200.8125 231.453125 199.570312 230.738281 198.890625 229.574219 C 198.097656 228.191406 196.085938 228.191406 195.285156 229.574219 C 194.617188 230.738281 193.382812 231.453125 192.03125 231.453125 C 190.691406 231.453125 189.449219 230.738281 188.777344 229.574219 C 187.976562 228.191406 185.976562 228.191406 185.171875 229.574219 C 184.503906 230.738281 183.25 231.453125 181.902344 231.453125 C 180.59375 231.453125 179.394531 230.765625 178.707031 229.652344 C 178.34375 228.925781 177.597656 228.480469 176.78125 228.507812 C 176.058594 228.539062 175.394531 228.925781 175.042969 229.558594 C 173.835938 231.394531 170.128906 232.824219 166.890625 232.140625 C 166.105469 231.980469 164.730469 231.300781 163.726562 230.300781 C 162.710938 229.308594 162.042969 228.089844 162.042969 226.601562 C 162.042969 225.46875 161.132812 224.542969 159.996094 224.523438 C 158.644531 224.492188 157.429688 223.769531 156.78125 222.585938 C 156.132812 221.414062 156.160156 219.996094 156.847656 218.851562 C 157.679688 217.476562 156.703125 215.722656 155.097656 215.695312 C 153.761719 215.675781 152.527344 214.941406 151.875 213.769531 C 151.222656 212.59375 151.265625 211.15625 151.960938 210.011719 C 152.601562 208.941406 152.171875 207.558594 151.035156 207.046875 C 149.808594 206.492188 148.988281 205.328125 148.851562 203.992188 C 148.726562 202.660156 149.3125 201.371094 150.414062 200.589844 C 151.796875 199.605469 151.484375 197.46875 149.867188 196.925781 C 148.597656 196.5 147.65625 195.429688 147.390625 194.113281 C 147.160156 192.941406 147.753906 190.902344 148.480469 190.109375 L 152 189.03125 C 153.300781 188.640625 154.582031 188.023438 155.710938 187.066406 C 157.25 185.761719 158.339844 183.730469 158.550781 181.214844 C 158.6875 179.964844 157.683594 178.898438 156.429688 178.925781 C 155.355469 178.953125 154.488281 179.792969 154.410156 180.859375 C 154.277344 182.492188 153.824219 183.292969 153.011719 183.882812 C 151.75 184.800781 150.488281 185.160156 149.246094 185.53125 L 132.070312 190.664062 C 128.300781 191.761719 126.730469 190.804688 125.910156 189.550781 C 125.085938 188.300781 125.097656 186.195312 126.140625 184.601562 L 137.300781 167.5625 C 137.710938 166.929688 137.71875 166.132812 137.625 165.550781 C 137.414062 164.28125 137.585938 162.9375 138.535156 162.046875 C 139.769531 160.886719 140.859375 161.402344 141.890625 161.984375 C 143.050781 162.632812 144.3125 162.613281 145.171875 161.542969 C 145.902344 160.65625 146.742188 160.265625 147.613281 160.277344 Z M 147.644531 156.175781 C 145.902344 156.117188 144.285156 156.710938 143.042969 157.683594 C 141.902344 157.109375 140.871094 156.976562 139.742188 157.101562 C 138.050781 157.300781 136.585938 158.074219 135.503906 159.199219 C 133.792969 160.992188 133.035156 163.480469 133.429688 165.890625 L 122.660156 182.339844 C 120.757812 185.238281 120.554688 188.976562 122.417969 191.824219 C 124.292969 194.667969 128.339844 196.089844 133.226562 194.632812 L 143.230469 191.65625 C 143.0625 192.742188 143.089844 193.851562 143.300781 194.917969 C 143.703125 196.910156 144.445312 198.207031 146.0625 199.359375 C 144.847656 200.925781 144.503906 202.363281 144.695312 204.394531 C 144.914062 206.617188 145.84375 208.351562 147.601562 209.667969 C 146.90625 211.75 147.152344 213.796875 148.234375 215.753906 C 149.246094 217.574219 150.394531 218.460938 152.347656 219.054688 C 151.8125 221.007812 152.117188 222.78125 153.132812 224.59375 C 154.183594 226.5 156.085938 227.84375 158.144531 228.386719 C 158.5 230.542969 159.429688 231.953125 160.773438 233.242188 C 161.183594 233.628906 161.597656 234.003906 161.941406 234.328125 C 162.46875 235.785156 162.851562 237.425781 163.023438 239.410156 L 164.636719 257.460938 L 162 263.8125 C 161.433594 265.183594 162.441406 266.683594 163.921875 266.683594 L 174.101562 266.683594 C 175.191406 266.683594 176.089844 265.855469 176.175781 264.773438 L 178.710938 234.320312 C 181.332031 239.675781 184.027344 248.335938 182.851562 254.773438 L 180.363281 260.597656 C 179.78125 261.972656 180.785156 263.488281 182.28125 263.496094 L 191.996094 263.496094 C 192.886719 263.488281 193.679688 262.921875 193.96875 262.085938 C 196.773438 254.054688 195.632812 243.699219 193.738281 235.230469 C 195 234.707031 196.054688 234.675781 197.085938 233.6875 C 198.539062 235.097656 200.070312 235.59375 202.15625 235.59375 C 204.242188 235.59375 205.753906 235.097656 207.214844 233.6875 C 208.671875 235.097656 210.183594 235.59375 212.269531 235.59375 C 214.339844 235.59375 215.855469 235.109375 217.308594 233.707031 C 220.695312 235.476562 223.574219 241.359375 222.816406 245.023438 L 220.839844 253.269531 L 218.820312 260.878906 C 218.464844 262.195312 219.460938 263.480469 220.820312 263.492188 L 229.503906 263.492188 C 230.488281 263.484375 231.332031 262.796875 231.53125 261.832031 L 235.875 241.816406 C 236.324219 242.476562 236.746094 243.125 237.078125 243.742188 C 238.09375 245.648438 238.464844 247.25 238.035156 249.027344 L 236.0625 257.285156 L 234.035156 264.871094 C 233.691406 266.1875 234.6875 267.488281 236.046875 267.488281 L 245.535156 267.488281 C 246.519531 267.488281 247.375 266.800781 247.574219 265.835938 L 251.894531 245.402344 C 253.234375 239.0625 250.941406 233.160156 249.742188 227.363281 C 251.378906 225.960938 252.578125 224.109375 252.613281 221.925781 C 252.652344 219.953125 251.925781 218.542969 250.660156 217.09375 C 252.261719 216.007812 253.285156 215.011719 253.75 213.085938 C 254.277344 210.941406 253.953125 208.957031 252.765625 207.148438 C 254.203125 205.527344 254.804688 203.714844 254.59375 201.511719 C 254.382812 199.300781 253.425781 197.585938 251.695312 196.269531 C 252.480469 194.246094 252.402344 192.242188 251.4375 190.25 C 250.46875 188.257812 248.980469 186.960938 246.902344 186.3125 C 246.980469 184.15625 246.261719 182.335938 244.695312 180.78125 C 243.027344 179.113281 240.683594 178.351562 238.382812 178.550781 C 236.890625 176.746094 234.890625 175.746094 232.507812 175.746094 C 230.421875 175.746094 228.914062 176.214844 227.445312 177.621094 C 225.992188 176.210938 224.480469 175.746094 222.394531 175.746094 C 220.308594 175.746094 218.78125 176.214844 217.324219 177.621094 C 215.863281 176.210938 214.351562 175.746094 212.265625 175.746094 C 210.179688 175.746094 208.667969 176.214844 207.214844 177.621094 C 205.753906 176.210938 204.238281 175.746094 202.15625 175.746094 C 200.066406 175.746094 198.539062 176.214844 197.082031 177.621094 C 195.621094 176.210938 194.109375 175.746094 192.023438 175.746094 C 189.9375 175.746094 188.425781 176.214844 186.976562 177.621094 C 185.511719 176.210938 183.980469 175.746094 181.894531 175.746094 C 180.078125 175.746094 179.1875 175.9375 177.808594 177.023438 C 177.148438 175.390625 176.488281 174.800781 174.902344 173.90625 C 173.085938 172.886719 171.515625 172.59375 169.546875 173.101562 C 168.390625 169.84375 165.59375 168.332031 163.539062 168.117188 C 164.636719 165.882812 165.144531 164.148438 165.144531 160.332031 C 165.144531 159.132812 164.113281 158.179688 162.90625 158.273438 C 159.941406 158.492188 157.128906 158.265625 154.214844 160.324219 C 153.542969 158.808594 152.722656 157.949219 151.230469 157.09375 C 150.15625 156.480469 148.933594 156.214844 147.644531 156.175781 Z M 147.644531 156.175781 " fill-opacity="1" fill-rule="nonzero"/></g><path fill="#000000" d="M 138.019531 173.40625 C 139.597656 173.40625 140.878906 174.695312 140.878906 176.265625 C 140.878906 177.847656 139.597656 179.125 138.019531 179.125 C 136.441406 179.125 135.160156 177.851562 135.160156 176.265625 C 135.15625 174.695312 136.441406 173.40625 138.019531 173.40625 Z M 138.019531 173.40625 " fill-opacity="1" fill-rule="evenodd"/><g clip-path="url(#cde3dbec79)"><path fill="#f5f5f5" d="M 276.894531 212.046875 C 276.894531 201.039062 274.808594 190.546875 271.164062 180.808594 L 104.125 180.808594 C 100.484375 190.546875 98.394531 201.039062 98.394531 212.046875 C 98.394531 223.054688 100.484375 233.546875 104.125 243.285156 L 271.160156 243.285156 C 274.808594 233.546875 276.894531 223.054688 276.894531 212.046875 Z M 276.894531 212.046875 " fill-opacity="1" fill-rule="nonzero"/></g><path fill="#000088" d="M 187.644531 189.734375 C 175.320312 189.734375 165.332031 199.722656 165.332031 212.046875 C 165.332031 224.371094 175.320312 234.359375 187.644531 234.359375 C 199.972656 234.359375 209.957031 224.371094 209.957031 212.046875 C 209.957031 199.722656 199.972656 189.734375 187.644531 189.734375 Z M 187.644531 231.574219 C 176.855469 231.574219 168.117188 222.835938 168.117188 212.046875 C 168.117188 201.257812 176.855469 192.519531 187.644531 192.519531 C 198.4375 192.519531 207.171875 201.257812 207.171875 212.046875 C 207.171875 222.835938 198.4375 231.574219 187.644531 231.574219 Z M 187.644531 231.574219 " fill-opacity="1" fill-rule="nonzero"/><path fill="#000088" d="M 191.546875 212.046875 C 191.546875 214.210938 189.804688 215.949219 187.644531 215.949219 C 185.484375 215.949219 183.746094 214.207031 183.746094 212.046875 C 183.746094 209.886719 185.484375 208.148438 187.644531 208.148438 C 189.804688 208.148438 191.546875 209.882812 191.546875 212.046875 Z M 191.546875 212.046875 " fill-opacity="1" fill-rule="nonzero"/><path fill="#000088" d="M 207.152344 213.632812 C 206.617188 213.5625 206.125 213.921875 206.058594 214.457031 C 205.992188 214.992188 206.347656 215.484375 206.882812 215.550781 C 207.417969 215.640625 207.910156 215.261719 207.976562 214.726562 C 208.0625 214.1875 207.6875 213.699219 207.152344 213.632812 Z M 207.152344 213.632812 " fill-opacity="1" fill-rule="nonzero"/><path fill="#000088" d="M 187.644531 231.574219 L 188.316406 219.851562 L 187.644531 214.277344 L 186.976562 219.851562 Z M 187.644531 231.574219 " fill-opacity="1" fill-rule="nonzero"/><path fill="#000088" d="M 206.078125 218.625 C 205.566406 218.425781 205.007812 218.648438 204.785156 219.160156 C 204.585938 219.652344 204.832031 220.230469 205.320312 220.433594 C 205.8125 220.632812 206.390625 220.410156 206.59375 219.898438 C 206.816406 219.402344 206.570312 218.820312 206.078125 218.625 Z M 206.078125 218.625 " fill-opacity="1" fill-rule="nonzero"/><path fill="#000088" d="M 182.585938 230.90625 L 186.261719 219.757812 L 187.066406 214.207031 L 184.96875 219.421875 Z M 182.585938 230.90625 " fill-opacity="1" fill-rule="nonzero"/><path fill="#000088" d="M 203.738281 223.171875 C 203.3125 222.835938 202.710938 222.90625 202.375 223.351562 C 202.042969 223.773438 202.128906 224.378906 202.554688 224.710938 C 202.980469 225.046875 203.601562 224.957031 203.914062 224.535156 C 204.25 224.105469 204.160156 223.480469 203.738281 223.171875 Z M 203.738281 223.171875 " fill-opacity="1" fill-rule="nonzero"/><path fill="#000088" d="M 177.882812 228.964844 L 184.324219 219.132812 L 186.535156 213.984375 L 183.167969 218.488281 Z M 177.882812 228.964844 " fill-opacity="1" fill-rule="nonzero"/><path fill="#000088" d="M 200.328125 226.9375 C 199.992188 226.515625 199.367188 226.449219 198.945312 226.761719 C 198.519531 227.09375 198.429688 227.71875 198.765625 228.144531 C 199.101562 228.566406 199.703125 228.65625 200.128906 228.320312 C 200.574219 227.984375 200.640625 227.382812 200.328125 226.9375 Z M 200.328125 226.9375 " fill-opacity="1" fill-rule="nonzero"/><path fill="#000088" d="M 173.824219 225.867188 L 182.585938 218.042969 L 186.0625 213.632812 L 181.648438 217.109375 Z M 173.824219 225.867188 " fill-opacity="1" fill-rule="nonzero"/><path fill="#000088" d="M 196.027344 229.699219 C 195.824219 229.210938 195.246094 228.988281 194.753906 229.1875 C 194.261719 229.386719 194.019531 229.96875 194.21875 230.460938 C 194.441406 230.949219 195 231.195312 195.492188 230.996094 C 196.003906 230.773438 196.226562 230.214844 196.027344 229.699219 Z M 196.027344 229.699219 " fill-opacity="1" fill-rule="nonzero"/><path fill="#000088" d="M 170.726562 221.8125 L 181.207031 216.527344 L 185.707031 213.164062 L 180.558594 215.371094 Z M 170.726562 221.8125 " fill-opacity="1" fill-rule="nonzero"/><path fill="#000088" d="M 191.167969 231.285156 C 191.097656 230.75 190.609375 230.371094 190.074219 230.4375 C 189.539062 230.527344 189.160156 231.015625 189.226562 231.550781 C 189.3125 232.089844 189.804688 232.445312 190.339844 232.378906 C 190.875 232.308594 191.234375 231.820312 191.167969 231.285156 Z M 191.167969 231.285156 " fill-opacity="1" fill-rule="nonzero"/><path fill="#000088" d="M 168.785156 217.109375 L 180.265625 214.726562 L 185.480469 212.628906 L 179.929688 213.429688 Z M 168.785156 217.109375 " fill-opacity="1" fill-rule="nonzero"/><path fill="#000088" d="M 185.21875 230.460938 C 184.683594 230.371094 184.191406 230.75 184.125 231.285156 C 184.058594 231.820312 184.4375 232.3125 184.972656 232.378906 C 185.507812 232.46875 186 232.089844 186.066406 231.550781 C 186.128906 231.015625 185.75 230.527344 185.21875 230.460938 Z M 185.21875 230.460938 " fill-opacity="1" fill-rule="nonzero"/><path fill="#000088" d="M 168.117188 212.046875 L 179.839844 212.714844 L 185.414062 212.046875 L 179.839844 211.378906 Z M 168.117188 212.046875 " fill-opacity="1" fill-rule="nonzero"/><path fill="#000088" d="M 180.558594 229.1875 C 180.066406 228.988281 179.488281 229.230469 179.289062 229.722656 C 179.0625 230.214844 179.308594 230.792969 179.800781 230.996094 C 180.3125 231.195312 180.871094 230.972656 181.09375 230.480469 C 181.289062 229.96875 181.046875 229.410156 180.558594 229.1875 Z M 180.558594 229.1875 " fill-opacity="1" fill-rule="nonzero"/><path fill="#000088" d="M 168.785156 206.988281 L 179.933594 210.664062 L 185.484375 211.46875 L 180.269531 209.371094 Z M 168.785156 206.988281 " fill-opacity="1" fill-rule="nonzero"/><path fill="#000088" d="M 176.367188 226.761719 C 175.945312 226.449219 175.320312 226.515625 175.007812 226.9375 C 174.671875 227.382812 174.738281 227.988281 175.1875 228.320312 C 175.609375 228.632812 176.210938 228.566406 176.546875 228.144531 C 176.878906 227.691406 176.789062 227.09375 176.367188 226.761719 Z M 176.367188 226.761719 " fill-opacity="1" fill-rule="nonzero"/><path fill="#000088" d="M 170.726562 202.28125 L 180.558594 208.726562 L 185.707031 210.9375 L 181.207031 207.570312 Z M 170.726562 202.28125 " fill-opacity="1" fill-rule="nonzero"/><path fill="#000088" d="M 172.933594 223.347656 C 172.597656 222.921875 171.996094 222.832031 171.570312 223.167969 C 171.148438 223.480469 171.058594 224.105469 171.394531 224.527344 C 171.707031 224.953125 172.332031 225.042969 172.753906 224.707031 C 173.179688 224.371094 173.265625 223.769531 172.933594 223.347656 Z M 172.933594 223.347656 " fill-opacity="1" fill-rule="nonzero"/><path fill="#000088" d="M 173.824219 198.226562 L 181.648438 206.988281 L 186.0625 210.464844 L 182.585938 206.050781 Z M 173.824219 198.226562 " fill-opacity="1" fill-rule="nonzero"/><path fill="#000088" d="M 170.503906 219.132812 C 170.304688 218.644531 169.722656 218.398438 169.234375 218.621094 C 168.742188 218.820312 168.496094 219.402344 168.699219 219.890625 C 168.921875 220.382812 169.480469 220.628906 169.992188 220.425781 C 170.484375 220.203125 170.726562 219.648438 170.503906 219.132812 Z M 170.503906 219.132812 " fill-opacity="1" fill-rule="nonzero"/><path fill="#000088" d="M 177.882812 195.128906 L 183.164062 205.609375 L 186.53125 210.109375 L 184.320312 204.960938 Z M 177.882812 195.128906 " fill-opacity="1" fill-rule="nonzero"/><path fill="#000088" d="M 169.253906 214.453125 C 169.167969 213.917969 168.675781 213.558594 168.164062 213.625 C 167.625 213.695312 167.246094 214.183594 167.3125 214.71875 C 167.382812 215.253906 167.871094 215.636719 168.40625 215.546875 C 168.941406 215.480469 169.324219 214.988281 169.253906 214.453125 Z M 169.253906 214.453125 " fill-opacity="1" fill-rule="nonzero"/><path fill="#000088" d="M 182.585938 193.1875 L 184.96875 204.667969 L 187.066406 209.882812 L 186.261719 204.332031 Z M 182.585938 193.1875 " fill-opacity="1" fill-rule="nonzero"/><path fill="#000088" d="M 168.40625 208.527344 C 167.871094 208.460938 167.382812 208.839844 167.3125 209.375 C 167.246094 209.910156 167.625 210.402344 168.164062 210.46875 C 168.699219 210.535156 169.1875 210.15625 169.253906 209.621094 C 169.324219 209.085938 168.941406 208.59375 168.40625 208.527344 Z M 168.40625 208.527344 " fill-opacity="1" fill-rule="nonzero"/><path fill="#000088" d="M 187.644531 192.519531 L 186.976562 204.242188 L 187.644531 209.816406 L 188.316406 204.242188 Z M 187.644531 192.519531 " fill-opacity="1" fill-rule="nonzero"/><path fill="#000088" d="M 169.96875 203.667969 C 169.480469 203.464844 168.898438 203.710938 168.699219 204.203125 C 168.496094 204.691406 168.71875 205.273438 169.234375 205.472656 C 169.722656 205.675781 170.304688 205.453125 170.503906 204.9375 C 170.707031 204.449219 170.460938 203.867188 169.96875 203.667969 Z M 169.96875 203.667969 " fill-opacity="1" fill-rule="nonzero"/><path fill="#000088" d="M 192.707031 193.1875 L 189.027344 204.335938 L 188.226562 209.886719 L 190.324219 204.671875 Z M 192.707031 193.1875 " fill-opacity="1" fill-rule="nonzero"/><path fill="#000088" d="M 172.753906 199.386719 C 172.308594 199.050781 171.707031 199.121094 171.371094 199.566406 C 171.058594 199.988281 171.125 200.59375 171.550781 200.925781 C 171.996094 201.261719 172.597656 201.171875 172.933594 200.75 C 173.246094 200.324219 173.179688 199.699219 172.753906 199.386719 Z M 172.753906 199.386719 " fill-opacity="1" fill-rule="nonzero"/><path fill="#000088" d="M 197.410156 195.128906 L 190.964844 204.960938 L 188.757812 210.109375 L 192.121094 205.609375 Z M 197.410156 195.128906 " fill-opacity="1" fill-rule="nonzero"/><path fill="#000088" d="M 176.542969 195.957031 C 176.207031 195.53125 175.605469 195.441406 175.183594 195.777344 C 174.734375 196.113281 174.667969 196.714844 174.980469 197.160156 C 175.316406 197.585938 175.941406 197.652344 176.363281 197.339844 C 176.789062 197 176.878906 196.378906 176.542969 195.957031 Z M 176.542969 195.957031 " fill-opacity="1" fill-rule="nonzero"/><path fill="#000088" d="M 201.464844 198.226562 L 192.707031 206.050781 L 189.230469 210.464844 L 193.644531 206.988281 Z M 201.464844 198.226562 " fill-opacity="1" fill-rule="nonzero"/><path fill="#000088" d="M 181.066406 193.636719 C 180.867188 193.144531 180.285156 192.898438 179.796875 193.121094 C 179.304688 193.324219 179.058594 193.878906 179.261719 194.394531 C 179.460938 194.882812 180.042969 195.128906 180.53125 194.90625 C 181.046875 194.707031 181.269531 194.148438 181.066406 193.636719 Z M 181.066406 193.636719 " fill-opacity="1" fill-rule="nonzero"/><path fill="#000088" d="M 204.5625 202.28125 L 194.085938 207.566406 L 189.582031 210.929688 L 194.730469 208.722656 Z M 204.5625 202.28125 " fill-opacity="1" fill-rule="nonzero"/><path fill="#000088" d="M 186.0625 192.542969 C 185.996094 192.007812 185.503906 191.648438 184.96875 191.714844 C 184.433594 191.78125 184.054688 192.273438 184.121094 192.808594 C 184.1875 193.34375 184.679688 193.722656 185.214844 193.636719 C 185.75 193.566406 186.128906 193.078125 186.0625 192.542969 Z M 186.0625 192.542969 " fill-opacity="1" fill-rule="nonzero"/><path fill="#000088" d="M 206.503906 206.988281 L 195.027344 209.371094 L 189.808594 211.46875 L 195.359375 210.664062 Z M 206.503906 206.988281 " fill-opacity="1" fill-rule="nonzero"/><path fill="#000088" d="M 190.320312 191.71875 C 189.78125 191.652344 189.292969 192.03125 189.226562 192.566406 C 189.160156 193.105469 189.539062 193.59375 190.074219 193.660156 C 190.609375 193.730469 191.097656 193.347656 191.167969 192.8125 C 191.234375 192.273438 190.855469 191.789062 190.320312 191.71875 Z M 190.320312 191.71875 " fill-opacity="1" fill-rule="nonzero"/><path fill="#000088" d="M 207.171875 212.046875 L 195.449219 211.378906 L 189.875 212.046875 L 195.449219 212.714844 Z M 207.171875 212.046875 " fill-opacity="1" fill-rule="nonzero"/><path fill="#000088" d="M 195.492188 193.097656 C 195 192.875 194.417969 193.121094 194.21875 193.613281 C 194.019531 194.125 194.242188 194.683594 194.730469 194.882812 C 195.246094 195.109375 195.804688 194.863281 196.027344 194.371094 C 196.226562 193.859375 195.980469 193.300781 195.492188 193.097656 Z M 195.492188 193.097656 " fill-opacity="1" fill-rule="nonzero"/><path fill="#000088" d="M 206.503906 217.109375 L 195.355469 213.429688 L 189.804688 212.628906 L 195.023438 214.726562 Z M 206.503906 217.109375 " fill-opacity="1" fill-rule="nonzero"/><path fill="#000088" d="M 200.128906 195.777344 C 199.703125 195.464844 199.101562 195.53125 198.765625 195.957031 C 198.429688 196.402344 198.519531 197.003906 198.945312 197.339844 C 199.367188 197.652344 199.992188 197.585938 200.328125 197.160156 C 200.640625 196.710938 200.574219 196.113281 200.128906 195.777344 Z M 200.128906 195.777344 " fill-opacity="1" fill-rule="nonzero"/><path fill="#000088" d="M 204.5625 221.8125 L 194.730469 215.367188 L 189.582031 213.160156 L 194.085938 216.523438 Z M 204.5625 221.8125 " fill-opacity="1" fill-rule="nonzero"/><path fill="#000088" d="M 203.914062 199.566406 C 203.582031 199.140625 202.957031 199.050781 202.53125 199.386719 C 202.109375 199.722656 202.019531 200.324219 202.355469 200.75 C 202.6875 201.171875 203.289062 201.261719 203.738281 200.925781 C 204.160156 200.613281 204.226562 199.988281 203.914062 199.566406 Z M 203.914062 199.566406 " fill-opacity="1" fill-rule="nonzero"/><path fill="#000088" d="M 201.464844 225.867188 L 193.644531 217.109375 L 189.230469 213.632812 L 192.707031 218.042969 Z M 201.464844 225.867188 " fill-opacity="1" fill-rule="nonzero"/><path fill="#000088" d="M 206.59375 204.203125 C 206.371094 203.710938 205.8125 203.464844 205.320312 203.667969 C 204.808594 203.890625 204.585938 204.449219 204.785156 204.9375 C 204.988281 205.453125 205.566406 205.675781 206.058594 205.472656 C 206.546875 205.273438 206.792969 204.691406 206.59375 204.203125 Z M 206.59375 204.203125 " fill-opacity="1" fill-rule="nonzero"/><path fill="#000088" d="M 197.410156 228.964844 L 192.125 218.488281 L 188.761719 213.984375 L 190.96875 219.132812 Z M 197.410156 228.964844 " fill-opacity="1" fill-rule="nonzero"/><path fill="#000088" d="M 207.972656 209.375 C 207.90625 208.839844 207.414062 208.460938 206.878906 208.527344 C 206.34375 208.617188 205.964844 209.085938 206.054688 209.621094 C 206.121094 210.15625 206.609375 210.535156 207.148438 210.46875 C 207.6875 210.394531 208.0625 209.90625 207.972656 209.375 Z M 207.972656 209.375 " fill-opacity="1" fill-rule="nonzero"/><path fill="#000088" d="M 192.707031 230.90625 L 190.324219 219.429688 L 188.226562 214.210938 L 189.027344 219.761719 Z M 192.707031 230.90625 " fill-opacity="1" fill-rule="nonzero"/><g clip-path="url(#84b57b88ec)"><path fill="#388e3c" d="M 271.164062 243.285156 L 104.125 243.285156 C 116.804688 277.144531 149.363281 301.296875 187.644531 301.296875 C 225.929688 301.296875 258.488281 277.144531 271.164062 243.285156 Z M 271.164062 243.285156 " fill-opacity="1" fill-rule="nonzero"/></g><g clip-path="url(#1452cf0094)"><path fill="#ff9800" d="M 187.644531 122.796875 C 149.363281 122.796875 116.804688 146.949219 104.125 180.808594 L 271.160156 180.808594 C 258.488281 146.949219 225.929688 122.796875 187.644531 122.796875 Z M 187.644531 122.796875 " fill-opacity="1" fill-rule="nonzero"/></g><g fill="#000000" fill-opacity="1"><g transform="translate(120.490513, 129.999066)"><g><path d="M 8.28125 -5.578125 L 2.609375 -1.765625 L -14.765625 -27.5 L -9.09375 -31.3125 Z M 8.28125 -5.578125 "/></g></g></g><g fill="#000000" fill-opacity="1"><g transform="translate(130.548338, 121.969704)"><g><path d="M 15.390625 -39.859375 L 26.21875 -13.40625 C 26.84375 -11.882812 26.40625 -10.816406 24.90625 -10.203125 L 20.953125 -8.578125 C 20.304688 -8.316406 19.742188 -8.257812 19.265625 -8.40625 C 18.785156 -8.550781 18.242188 -8.882812 17.640625 -9.40625 L 3.828125 -21.640625 C 2.054688 -23.296875 0.863281 -24.546875 0.25 -25.390625 L -0.21875 -25.203125 C 0.550781 -23.898438 1.273438 -22.414062 1.953125 -20.75 L 8.953125 -3.671875 L 2.921875 -1.203125 L -7.90625 -27.65625 C -8.53125 -29.175781 -8.082031 -30.242188 -6.5625 -30.859375 L -2.6875 -32.453125 C -2.050781 -32.710938 -1.488281 -32.769531 -1 -32.625 C -0.519531 -32.476562 0.0195312 -32.144531 0.625 -31.625 L 14 -19.734375 C 15.257812 -18.628906 16.585938 -17.375 17.984375 -15.96875 L 18.390625 -16.140625 C 17.335938 -18.222656 16.59375 -19.796875 16.15625 -20.859375 L 9.390625 -37.390625 Z M 15.390625 -39.859375 "/></g></g></g><g fill="#000000" fill-opacity="1"><g transform="translate(159.163063, 110.164262)"><g><path d="M 3.140625 -0.359375 L -0.421875 -31.203125 C 3.785156 -31.960938 7.765625 -32.554688 11.515625 -32.984375 C 16.429688 -33.554688 19.976562 -32.816406 22.15625 -30.765625 C 24.34375 -28.722656 25.78125 -24.691406 26.46875 -18.671875 C 27.164062 -12.648438 26.679688 -8.394531 25.015625 -5.90625 C 23.359375 -3.425781 20.070312 -1.898438 15.15625 -1.328125 C 11.40625 -0.898438 7.398438 -0.578125 3.140625 -0.359375 Z M 6.9375 -27.03125 L 9.34375 -6.15625 C 9.84375 -6.21875 10.664062 -6.304688 11.8125 -6.421875 C 12.96875 -6.535156 13.875 -6.628906 14.53125 -6.703125 C 16.820312 -6.972656 18.304688 -7.882812 18.984375 -9.4375 C 19.671875 -11 19.78125 -13.804688 19.3125 -17.859375 C 18.84375 -21.910156 18.097656 -24.625 17.078125 -26 C 16.066406 -27.375 14.414062 -27.925781 12.125 -27.65625 Z M 6.9375 -27.03125 "/></g></g></g><g fill="#000000" fill-opacity="1"><g transform="translate(189.285354, 107.524944)"><g><path d="M 9.953125 0.828125 L 3.140625 0.265625 L 5.703125 -30.671875 L 12.515625 -30.109375 Z M 9.953125 0.828125 "/></g></g></g><g fill="#000000" fill-opacity="1"><g transform="translate(202.500497, 108.052959)"><g><path d="M 24.390625 1 L 23.375 5.953125 C 20.582031 5.515625 15.910156 4.414062 9.359375 2.65625 C 7.359375 2.125 5.910156 1.15625 5.015625 -0.25 C 4.117188 -1.664062 3.90625 -3.304688 4.375 -5.171875 L 9.234375 -23.34375 C 9.765625 -25.1875 10.769531 -26.488281 12.25 -27.25 C 13.726562 -28.019531 15.46875 -28.140625 17.46875 -27.609375 C 24.019531 -25.847656 28.613281 -24.457031 31.25 -23.4375 L 29.640625 -18.609375 L 18.109375 -21.703125 C 17.390625 -21.898438 16.820312 -21.863281 16.40625 -21.59375 C 16 -21.320312 15.691406 -20.800781 15.484375 -20.03125 L 14.265625 -15.453125 L 26.21875 -12.25 L 24.9375 -7.484375 L 12.984375 -10.6875 L 11.421875 -4.890625 C 11.210938 -4.085938 11.21875 -3.46875 11.4375 -3.03125 C 11.664062 -2.601562 12.140625 -2.289062 12.859375 -2.09375 Z M 24.390625 1 "/></g></g></g><g fill="#000000" fill-opacity="1"><g transform="translate(226.547955, 113.906793)"><g><path d="M 40.859375 -12.46875 L 26.71875 12.375 C 25.90625 13.800781 24.796875 14.113281 23.390625 13.3125 L 19.671875 11.203125 C 19.066406 10.859375 18.675781 10.453125 18.5 9.984375 C 18.320312 9.523438 18.25 8.890625 18.28125 8.078125 L 19.40625 -10.328125 C 19.59375 -12.753906 19.835938 -14.46875 20.140625 -15.46875 L 19.71875 -15.71875 C 19.15625 -14.3125 18.425781 -12.820312 17.53125 -11.25 L 8.40625 4.78125 L 2.75 1.5625 L 16.890625 -23.28125 C 17.703125 -24.707031 18.820312 -25.015625 20.25 -24.203125 L 23.890625 -22.125 C 24.484375 -21.789062 24.867188 -21.390625 25.046875 -20.921875 C 25.234375 -20.460938 25.3125 -19.828125 25.28125 -19.015625 L 24.171875 -1.140625 C 24.078125 0.535156 23.90625 2.347656 23.65625 4.296875 L 24.03125 4.515625 C 25.03125 2.398438 25.8125 0.84375 26.375 -0.15625 L 35.21875 -15.671875 Z M 40.859375 -12.46875 "/></g></g></g></svg>