<svg xmlns="http://www.w3.org/2000/svg" xmlns:xlink="http://www.w3.org/1999/xlink" width="500" zoomAndPan="magnify" viewBox="0 0 375 374.999991" height="500" preserveAspectRatio="xMidYMid meet" version="1.0"><defs><g/><clipPath id="b0f709b25b"><path d="M 45.238281 45.238281 L 329.761719 45.238281 L 329.761719 329.761719 L 45.238281 329.761719 Z M 45.238281 45.238281 " clip-rule="nonzero"/></clipPath><clipPath id="f9f275785f"><path d="M 187.5 45.238281 C 108.929688 45.238281 45.238281 108.929688 45.238281 187.5 C 45.238281 266.070312 108.929688 329.761719 187.5 329.761719 C 266.070312 329.761719 329.761719 266.070312 329.761719 187.5 C 329.761719 108.929688 266.070312 45.238281 187.5 45.238281 Z M 187.5 45.238281 " clip-rule="nonzero"/></clipPath><clipPath id="35010a3b58"><path d="M 121 156 L 254.769531 156 L 254.769531 267.722656 L 121 267.722656 Z M 121 156 " clip-rule="nonzero"/></clipPath><clipPath id="e0b52b3052"><path d="M 95.898438 113.171875 L 278.898438 113.171875 L 278.898438 296.171875 L 95.898438 296.171875 Z M 95.898438 113.171875 " clip-rule="nonzero"/></clipPath><clipPath id="a9ad6dbc41"><path d="M 102.144531 139.589844 L 272.640625 139.589844 L 272.640625 268.121094 L 102.144531 268.121094 Z M 102.144531 139.589844 " clip-rule="nonzero"/></clipPath><clipPath id="1a03ae0506"><path d="M 272.578125 204.660156 C 272.578125 251.710938 234.4375 289.847656 187.390625 289.847656 C 140.339844 289.847656 102.199219 251.710938 102.199219 204.660156 C 102.199219 157.613281 140.339844 119.472656 187.390625 119.472656 C 234.4375 119.472656 272.578125 157.609375 272.578125 204.660156 Z M 272.578125 204.660156 " clip-rule="nonzero"/></clipPath><clipPath id="cfce9c11d9"><path d="M 150 165 L 228 165 L 228 243 L 150 243 Z M 150 165 " clip-rule="nonzero"/></clipPath><clipPath id="f725d48206"><path d="M 272.578125 204.660156 C 272.578125 251.710938 234.4375 289.847656 187.390625 289.847656 C 140.339844 289.847656 102.199219 251.710938 102.199219 204.660156 C 102.199219 157.613281 140.339844 119.472656 187.390625 119.472656 C 234.4375 119.472656 272.578125 157.609375 272.578125 204.660156 Z M 272.578125 204.660156 " clip-rule="nonzero"/></clipPath></defs><g clip-path="url(#b0f709b25b)"><g clip-path="url(#f9f275785f)"><path fill="#f2f2f0" d="M 45.238281 45.238281 L 329.761719 45.238281 L 329.761719 329.761719 L 45.238281 329.761719 Z M 45.238281 45.238281 " fill-opacity="1" fill-rule="nonzero"/></g></g><g clip-path="url(#35010a3b58)"><path fill="#000000" d="M 174.441406 235.175781 L 172.179688 262.53125 L 167.042969 262.53125 L 168.6875 258.585938 C 168.8125 258.28125 168.859375 257.945312 168.828125 257.613281 L 167.175781 239.035156 C 167.089844 238.074219 166.957031 237.179688 166.78125 236.3125 C 169.5 236.710938 172.203125 236.445312 174.441406 235.175781 Z M 186.976562 233.6875 C 187.730469 234.421875 188.496094 234.164062 189.355469 234.730469 C 191.222656 242.566406 192.109375 252.367188 190.1875 259.328125 L 185.425781 259.328125 L 186.820312 256.058594 C 186.878906 255.914062 186.917969 255.773438 186.945312 255.628906 C 188.253906 248.65625 186.125 240.972656 183.675781 235.203125 C 184.917969 234.671875 185.960938 234.671875 186.976562 233.6875 Z M 229.207031 233.214844 C 230.296875 234.730469 231.445312 236.160156 232.535156 237.503906 C 232.542969 237.511719 232.542969 237.511719 232.554688 237.523438 C 232.535156 237.582031 232.515625 237.648438 232.503906 237.703125 L 227.816406 259.332031 L 223.535156 259.332031 L 224.863281 254.316406 L 226.875 246 C 227.703125 242.53125 226.652344 238.992188 224.914062 235.867188 C 226.566406 235.445312 228.058594 234.519531 229.207031 233.214844 Z M 246.558594 232.3125 C 247.617188 236.816406 248.59375 240.847656 247.808594 244.558594 L 243.839844 263.34375 L 238.761719 263.34375 L 240.089844 258.328125 L 242.089844 250 C 242.796875 247.054688 242.054688 244.242188 240.75 241.800781 C 239.730469 239.882812 238.363281 238.109375 236.945312 236.359375 C 238.296875 236.460938 239.652344 236.375 240.953125 236.042969 C 243.238281 235.453125 245.113281 234.097656 246.558594 232.3125 Z M 147.613281 160.277344 C 148.128906 160.285156 148.65625 160.4375 149.164062 160.695312 C 150.351562 161.324219 151.03125 162.613281 151.03125 163.953125 C 151.03125 165.898438 153.46875 166.777344 154.722656 165.28125 C 155.898438 163.859375 158.019531 163.910156 159.828125 163.5625 C 159.359375 165.59375 159.199219 167.886719 157.753906 169.324219 C 155.992188 171.050781 158.171875 173.84375 160.289062 172.578125 C 161.457031 171.898438 162.871094 171.890625 164.046875 172.546875 C 165.222656 173.214844 165.949219 174.433594 165.960938 175.777344 C 165.96875 177.375 167.710938 178.355469 169.089844 177.554688 C 170.257812 176.867188 171.679688 176.859375 172.859375 177.523438 C 174.035156 178.183594 174.742188 179.414062 174.75 180.746094 C 174.75 182.882812 177.59375 183.636719 178.644531 181.777344 C 179.328125 180.625 180.558594 179.902344 181.898438 179.902344 C 183.246094 179.902344 184.5 180.625 185.167969 181.777344 C 185.972656 183.160156 187.972656 183.160156 188.777344 181.777344 C 189.445312 180.625 190.6875 179.902344 192.027344 179.902344 C 193.378906 179.902344 194.613281 180.625 195.28125 181.777344 C 196.082031 183.160156 198.09375 183.160156 198.886719 181.777344 C 199.566406 180.625 200.808594 179.902344 202.15625 179.902344 C 203.507812 179.902344 204.738281 180.625 205.410156 181.777344 C 206.214844 183.160156 208.210938 183.160156 209.019531 181.777344 C 209.6875 180.625 210.921875 179.902344 212.269531 179.902344 C 213.617188 179.902344 214.851562 180.625 215.523438 181.777344 C 216.324219 183.171875 218.335938 183.171875 219.128906 181.777344 C 219.808594 180.625 221.050781 179.902344 222.398438 179.902344 C 223.75 179.902344 224.984375 180.625 225.652344 181.777344 C 226.457031 183.160156 228.453125 183.160156 229.257812 181.777344 C 229.9375 180.625 231.164062 179.902344 232.511719 179.902344 C 233.859375 179.902344 235.105469 180.625 235.78125 181.777344 C 236.25 182.589844 237.207031 182.976562 238.117188 182.742188 C 239.417969 182.398438 240.796875 182.761719 241.742188 183.714844 C 242.699219 184.667969 243.074219 186.039062 242.71875 187.339844 C 242.386719 188.597656 243.285156 189.84375 244.582031 189.941406 C 245.921875 190.042969 247.109375 190.847656 247.699219 192.046875 C 248.285156 193.257812 248.171875 194.691406 247.414062 195.796875 C 246.6875 196.863281 247.105469 198.324219 248.285156 198.847656 C 249.511719 199.410156 250.332031 200.566406 250.464844 201.910156 C 250.589844 203.242188 249.988281 204.53125 248.886719 205.3125 C 247.824219 206.066406 247.71875 207.601562 248.660156 208.507812 C 249.632812 209.429688 250.039062 210.804688 249.722656 212.109375 C 249.398438 213.417969 248.410156 214.4375 247.121094 214.8125 C 245.378906 215.324219 245.082031 217.652344 246.632812 218.585938 C 247.792969 219.273438 248.46875 220.519531 248.449219 221.867188 C 248.421875 223.117188 247.78125 224.242188 246.746094 224.917969 C 246.066406 225.195312 245.578125 225.796875 245.464844 226.519531 C 244.640625 229.285156 242.527344 231.355469 239.917969 232.03125 C 237.292969 232.710938 233.679688 231.9375 232.015625 229.765625 C 229.949219 227.054688 228.65625 223.347656 228.636719 220.511719 C 228.628906 219.351562 227.699219 218.386719 226.523438 218.40625 C 225.363281 218.414062 224.4375 219.371094 224.457031 220.511719 C 224.457031 223.84375 225.433594 226.757812 226.820312 229.402344 C 225.855469 231.070312 224.46875 231.804688 222.925781 231.976562 C 221.246094 232.175781 219.972656 230.785156 219.179688 229.632812 C 218.25 228.277344 216.339844 228.152344 215.527344 229.574219 C 214.855469 230.738281 213.621094 231.453125 212.273438 231.453125 C 210.925781 231.453125 209.691406 230.738281 209.019531 229.574219 C 208.214844 228.191406 206.21875 228.191406 205.414062 229.574219 C 204.742188 230.738281 203.511719 231.453125 202.160156 231.453125 C 200.8125 231.453125 199.570312 230.738281 198.890625 229.574219 C 198.097656 228.191406 196.085938 228.191406 195.285156 229.574219 C 194.617188 230.738281 193.382812 231.453125 192.03125 231.453125 C 190.691406 231.453125 189.449219 230.738281 188.777344 229.574219 C 187.976562 228.191406 185.976562 228.191406 185.171875 229.574219 C 184.503906 230.738281 183.25 231.453125 181.902344 231.453125 C 180.59375 231.453125 179.394531 230.765625 178.707031 229.652344 C 178.34375 228.925781 177.597656 228.480469 176.78125 228.507812 C 176.058594 228.539062 175.394531 228.925781 175.042969 229.558594 C 173.835938 231.394531 170.128906 232.824219 166.890625 232.140625 C 166.105469 231.980469 164.730469 231.300781 163.726562 230.300781 C 162.710938 229.308594 162.042969 228.089844 162.042969 226.601562 C 162.042969 225.46875 161.132812 224.542969 159.996094 224.523438 C 158.644531 224.492188 157.429688 223.769531 156.78125 222.585938 C 156.132812 221.414062 156.160156 219.996094 156.847656 218.851562 C 157.679688 217.476562 156.703125 215.722656 155.097656 215.695312 C 153.761719 215.675781 152.527344 214.941406 151.875 213.769531 C 151.222656 212.59375 151.265625 211.15625 151.960938 210.011719 C 152.601562 208.941406 152.171875 207.558594 151.035156 207.046875 C 149.808594 206.492188 148.988281 205.328125 148.851562 203.992188 C 148.726562 202.660156 149.3125 201.371094 150.414062 200.589844 C 151.796875 199.605469 151.484375 197.46875 149.867188 196.925781 C 148.597656 196.5 147.65625 195.429688 147.390625 194.113281 C 147.160156 192.941406 147.753906 190.902344 148.480469 190.109375 L 152 189.03125 C 153.300781 188.640625 154.582031 188.023438 155.710938 187.066406 C 157.25 185.761719 158.339844 183.730469 158.550781 181.214844 C 158.6875 179.964844 157.683594 178.898438 156.429688 178.925781 C 155.355469 178.953125 154.488281 179.792969 154.410156 180.859375 C 154.277344 182.492188 153.824219 183.292969 153.011719 183.882812 C 151.75 184.800781 150.488281 185.160156 149.246094 185.53125 L 132.070312 190.664062 C 128.300781 191.761719 126.730469 190.804688 125.910156 189.550781 C 125.085938 188.300781 125.097656 186.195312 126.140625 184.601562 L 137.300781 167.5625 C 137.710938 166.929688 137.71875 166.132812 137.625 165.550781 C 137.414062 164.28125 137.585938 162.9375 138.535156 162.046875 C 139.769531 160.886719 140.859375 161.402344 141.890625 161.984375 C 143.050781 162.632812 144.3125 162.613281 145.171875 161.542969 C 145.902344 160.65625 146.742188 160.265625 147.613281 160.277344 Z M 147.644531 156.175781 C 145.902344 156.117188 144.285156 156.710938 143.042969 157.683594 C 141.902344 157.109375 140.871094 156.976562 139.742188 157.101562 C 138.050781 157.300781 136.585938 158.074219 135.503906 159.199219 C 133.792969 160.992188 133.035156 163.480469 133.429688 165.890625 L 122.660156 182.339844 C 120.757812 185.238281 120.554688 188.976562 122.417969 191.824219 C 124.292969 194.667969 128.339844 196.089844 133.226562 194.632812 L 143.230469 191.65625 C 143.0625 192.742188 143.089844 193.851562 143.300781 194.917969 C 143.703125 196.910156 144.445312 198.207031 146.0625 199.359375 C 144.847656 200.925781 144.503906 202.363281 144.695312 204.394531 C 144.914062 206.617188 145.84375 208.351562 147.601562 209.667969 C 146.90625 211.75 147.152344 213.796875 148.234375 215.753906 C 149.246094 217.574219 150.394531 218.460938 152.347656 219.054688 C 151.8125 221.007812 152.117188 222.78125 153.132812 224.59375 C 154.183594 226.5 156.085938 227.84375 158.144531 228.386719 C 158.5 230.542969 159.429688 231.953125 160.773438 233.242188 C 161.183594 233.628906 161.597656 234.003906 161.941406 234.328125 C 162.46875 235.785156 162.851562 237.425781 163.023438 239.410156 L 164.636719 257.460938 L 162 263.8125 C 161.433594 265.183594 162.441406 266.683594 163.921875 266.683594 L 174.101562 266.683594 C 175.191406 266.683594 176.089844 265.855469 176.175781 264.773438 L 178.710938 234.320312 C 181.332031 239.675781 184.027344 248.335938 182.851562 254.773438 L 180.363281 260.597656 C 179.78125 261.972656 180.785156 263.488281 182.28125 263.496094 L 191.996094 263.496094 C 192.886719 263.488281 193.679688 262.921875 193.96875 262.085938 C 196.773438 254.054688 195.632812 243.699219 193.738281 235.230469 C 195 234.707031 196.054688 234.675781 197.085938 233.6875 C 198.539062 235.097656 200.070312 235.59375 202.15625 235.59375 C 204.242188 235.59375 205.753906 235.097656 207.214844 233.6875 C 208.671875 235.097656 210.183594 235.59375 212.269531 235.59375 C 214.339844 235.59375 215.855469 235.109375 217.308594 233.707031 C 220.695312 235.476562 223.574219 241.359375 222.816406 245.023438 L 220.839844 253.269531 L 218.820312 260.878906 C 218.464844 262.195312 219.460938 263.480469 220.820312 263.492188 L 229.503906 263.492188 C 230.488281 263.484375 231.332031 262.796875 231.53125 261.832031 L 235.875 241.816406 C 236.324219 242.476562 236.746094 243.125 237.078125 243.742188 C 238.09375 245.648438 238.464844 247.25 238.035156 249.027344 L 236.0625 257.285156 L 234.035156 264.871094 C 233.691406 266.1875 234.6875 267.488281 236.046875 267.488281 L 245.535156 267.488281 C 246.519531 267.488281 247.375 266.800781 247.574219 265.835938 L 251.894531 245.402344 C 253.234375 239.0625 250.941406 233.160156 249.742188 227.363281 C 251.378906 225.960938 252.578125 224.109375 252.613281 221.925781 C 252.652344 219.953125 251.925781 218.542969 250.660156 217.09375 C 252.261719 216.007812 253.285156 215.011719 253.75 213.085938 C 254.277344 210.941406 253.953125 208.957031 252.765625 207.148438 C 254.203125 205.527344 254.804688 203.714844 254.59375 201.511719 C 254.382812 199.300781 253.425781 197.585938 251.695312 196.269531 C 252.480469 194.246094 252.402344 192.242188 251.4375 190.25 C 250.46875 188.257812 248.980469 186.960938 246.902344 186.3125 C 246.980469 184.15625 246.261719 182.335938 244.695312 180.78125 C 243.027344 179.113281 240.683594 178.351562 238.382812 178.550781 C 236.890625 176.746094 234.890625 175.746094 232.507812 175.746094 C 230.421875 175.746094 228.914062 176.214844 227.445312 177.621094 C 225.992188 176.210938 224.480469 175.746094 222.394531 175.746094 C 220.308594 175.746094 218.78125 176.214844 217.324219 177.621094 C 215.863281 176.210938 214.351562 175.746094 212.265625 175.746094 C 210.179688 175.746094 208.667969 176.214844 207.214844 177.621094 C 205.753906 176.210938 204.238281 175.746094 202.15625 175.746094 C 200.066406 175.746094 198.539062 176.214844 197.082031 177.621094 C 195.621094 176.210938 194.109375 175.746094 192.023438 175.746094 C 189.9375 175.746094 188.425781 176.214844 186.976562 177.621094 C 185.511719 176.210938 183.980469 175.746094 181.894531 175.746094 C 180.078125 175.746094 179.1875 175.9375 177.808594 177.023438 C 177.148438 175.390625 176.488281 174.800781 174.902344 173.90625 C 173.085938 172.886719 171.515625 172.59375 169.546875 173.101562 C 168.390625 169.84375 165.59375 168.332031 163.539062 168.117188 C 164.636719 165.882812 165.144531 164.148438 165.144531 160.332031 C 165.144531 159.132812 164.113281 158.179688 162.90625 158.273438 C 159.941406 158.492188 157.128906 158.265625 154.214844 160.324219 C 153.542969 158.808594 152.722656 157.949219 151.230469 157.09375 C 150.15625 156.480469 148.933594 156.214844 147.644531 156.175781 Z M 147.644531 156.175781 " fill-opacity="1" fill-rule="nonzero"/></g><path fill="#000000" d="M 138.019531 173.40625 C 139.597656 173.40625 140.878906 174.695312 140.878906 176.265625 C 140.878906 177.847656 139.597656 179.125 138.019531 179.125 C 136.441406 179.125 135.160156 177.851562 135.160156 176.265625 C 135.15625 174.695312 136.441406 173.40625 138.019531 173.40625 Z M 138.019531 173.40625 " fill-opacity="1" fill-rule="evenodd"/><g clip-path="url(#e0b52b3052)"><path fill="#ffffff" d="M 187.390625 296.164062 C 136.941406 296.164062 95.890625 255.117188 95.890625 204.664062 C 95.890625 154.210938 136.941406 113.164062 187.390625 113.164062 C 237.84375 113.164062 278.890625 154.210938 278.890625 204.664062 C 278.890625 255.117188 237.84375 296.164062 187.390625 296.164062 Z M 187.390625 296.164062 " fill-opacity="1" fill-rule="nonzero"/></g><g clip-path="url(#a9ad6dbc41)"><g clip-path="url(#1a03ae0506)"><path fill="#ffffff" d="M 78.832031 110.515625 L 299.171875 110.515625 L 299.171875 297.195312 L 78.832031 297.195312 Z M 78.832031 110.515625 " fill-opacity="1" fill-rule="nonzero"/></g></g><g clip-path="url(#cfce9c11d9)"><g clip-path="url(#f725d48206)"><path fill="#ca0011" d="M 189.015625 165.3125 C 210.3125 165.3125 227.558594 182.570312 227.558594 203.851562 C 227.558594 225.140625 210.3125 242.449219 189.015625 242.449219 C 167.71875 242.449219 150.445312 225.140625 150.445312 203.851562 C 150.445312 182.570312 167.714844 165.3125 189.015625 165.3125 " fill-opacity="1" fill-rule="nonzero"/></g></g><g fill="#000000" fill-opacity="1"><g transform="translate(125.52272, 126.083173)"><g><path d="M -3.5625 -33.703125 L 8.578125 -12.40625 C 9.691406 -10.457031 10.019531 -8.640625 9.5625 -6.953125 C 9.101562 -5.273438 7.90625 -3.882812 5.96875 -2.78125 C 3.800781 -1.550781 2.015625 -0.878906 0.609375 -0.765625 L -1 -5.125 L 0.828125 -6.171875 C 2.546875 -7.148438 3.015625 -8.328125 2.234375 -9.703125 L -9.515625 -30.3125 Z M -3.5625 -33.703125 "/></g></g></g><g fill="#000000" fill-opacity="1"><g transform="translate(139.294129, 117.440339)"><g><path d="M 16.515625 -13.890625 L 6.359375 -10.609375 L 6.71875 -2.171875 L 0.046875 -0.015625 L -0.421875 -30.609375 C -0.460938 -31.148438 -0.320312 -31.644531 0 -32.09375 C 0.320312 -32.550781 0.757812 -32.867188 1.3125 -33.046875 L 7.46875 -35.03125 C 8.695312 -35.425781 9.632812 -35.101562 10.28125 -34.0625 L 27.796875 -8.96875 L 21.15625 -6.828125 Z M 13.484375 -18.46875 L 8.078125 -26.71875 C 7.273438 -28.03125 6.773438 -28.894531 6.578125 -29.3125 L 5.4375 -28.9375 C 5.46875 -28.625 5.507812 -28.128906 5.5625 -27.453125 C 5.625 -26.785156 5.660156 -26.28125 5.671875 -25.9375 L 6.109375 -16.09375 Z M 13.484375 -18.46875 "/></g></g></g><g fill="#000000" fill-opacity="1"><g transform="translate(166.027003, 108.773486)"><g><path d="M 3.15625 -0.203125 L 1.21875 -31.1875 C 3.96875 -31.625 7.875 -32.003906 12.9375 -32.328125 C 17.28125 -32.597656 20.296875 -32.078125 21.984375 -30.765625 C 23.679688 -29.460938 24.648438 -26.847656 24.890625 -22.921875 C 25.140625 -19.003906 24.550781 -16.285156 23.125 -14.765625 C 21.695312 -13.253906 19.023438 -12.375 15.109375 -12.125 C 13.128906 -12.007812 11.175781 -12.007812 9.25 -12.125 L 9.96875 -0.625 Z M 8.9375 -17.015625 L 13.75 -17.3125 C 15.507812 -17.457031 16.691406 -17.878906 17.296875 -18.578125 C 17.898438 -19.285156 18.140625 -20.59375 18.015625 -22.5 C 17.898438 -24.414062 17.5 -25.679688 16.8125 -26.296875 C 16.125 -26.921875 14.898438 -27.175781 13.140625 -27.0625 L 8.328125 -26.71875 Z M 8.9375 -17.015625 "/></g></g></g><g fill="#000000" fill-opacity="1"><g transform="translate(192.467663, 106.87301)"><g><path d="M 21.15625 -4.296875 L 10.671875 -6.265625 L 6.9375 1.3125 L 0.046875 0.015625 L 14.28125 -27.0625 C 14.5 -27.582031 14.859375 -27.957031 15.359375 -28.1875 C 15.859375 -28.425781 16.390625 -28.492188 16.953125 -28.390625 L 23.3125 -27.1875 C 24.582031 -26.945312 25.253906 -26.207031 25.328125 -24.96875 L 28.6875 5.421875 L 21.84375 4.125 Z M 20.671875 -9.78125 L 19.875 -19.59375 C 19.800781 -21.144531 19.769531 -22.144531 19.78125 -22.59375 L 18.59375 -22.8125 C 18.476562 -22.53125 18.285156 -22.078125 18.015625 -21.453125 C 17.753906 -20.835938 17.546875 -20.375 17.390625 -20.0625 L 13.0625 -11.21875 Z M 20.671875 -9.78125 "/></g></g></g><g fill="#000000" fill-opacity="1"><g transform="translate(219.902839, 111.640251)"><g><path d="M 40.015625 -14.984375 L 27.4375 10.6875 C 26.71875 12.164062 25.628906 12.546875 24.171875 11.828125 L 20.328125 9.953125 C 19.703125 9.648438 19.285156 9.269531 19.078125 8.8125 C 18.867188 8.363281 18.757812 7.734375 18.75 6.921875 L 18.71875 -11.515625 C 18.769531 -13.929688 18.914062 -15.65625 19.15625 -16.6875 L 18.703125 -16.90625 C 18.222656 -15.46875 17.585938 -13.941406 16.796875 -12.328125 L 8.6875 4.25 L 2.828125 1.390625 L 15.390625 -24.28125 C 16.117188 -25.757812 17.222656 -26.140625 18.703125 -25.421875 L 22.46875 -23.578125 C 23.082031 -23.273438 23.492188 -22.894531 23.703125 -22.4375 C 23.921875 -21.988281 24.035156 -21.359375 24.046875 -20.546875 L 24.0625 -2.65625 C 24.0625 -0.96875 24 0.859375 23.875 2.828125 L 24.265625 3.015625 C 25.140625 0.835938 25.828125 -0.765625 26.328125 -1.796875 L 34.1875 -17.84375 Z M 40.015625 -14.984375 "/></g></g></g></svg>