<svg xmlns="http://www.w3.org/2000/svg" xmlns:xlink="http://www.w3.org/1999/xlink" width="500" zoomAndPan="magnify" viewBox="0 0 375 374.999991" height="500" preserveAspectRatio="xMidYMid meet" version="1.0"><defs><g/><clipPath id="52a13e1080"><path d="M 9 147 L 366.617188 147 L 366.617188 212.796875 L 9 212.796875 Z M 9 147 " clip-rule="nonzero"/></clipPath></defs><g clip-path="url(#52a13e1080)"><path fill="#1e1e1e" d="M 16.171875 156.644531 C 5.589844 160.15625 9.84375 190.246094 11.984375 195.980469 C 14.667969 203.167969 24.597656 206.832031 31.257812 208.6875 C 50.359375 214 71.140625 211.476562 90.710938 212.675781 C 108.503906 213.761719 126.335938 212.871094 144.152344 213.300781 C 187.265625 214.339844 230.054688 214.566406 273.195312 213.632812 C 292.230469 213.21875 349.5625 216.15625 356.71875 212.863281 C 360.738281 211.015625 363.003906 205.875 364.417969 201.996094 C 367.609375 193.234375 370.410156 165.957031 361.875 158.871094 C 353.753906 152.132812 341.824219 150.925781 331.820312 149.273438 C 311.914062 145.988281 212.699219 148.464844 183.058594 152.363281 C 162.917969 155.011719 34.585938 150.53125 16.171875 156.644531 Z M 16.171875 156.644531 " fill-opacity="1" fill-rule="evenodd"/></g><g fill="#faf0ca" fill-opacity="1"><g transform="translate(94.006937, 201.494795)"><g><path d="M 33.554688 -32.070312 C 33.457031 -32.210938 33.027344 -32.164062 32.789062 -32.261719 C 32.117188 -32.453125 31.589844 -31.828125 31.015625 -31.925781 C 30.34375 -31.972656 30.101562 -32.929688 29.289062 -32.980469 C 28.855469 -32.980469 28.425781 -33.171875 27.992188 -33.316406 C 27.324219 -33.601562 26.796875 -33.316406 26.316406 -32.835938 C 26.027344 -32.5 25.742188 -32.117188 25.5 -31.78125 L 18.597656 -21.90625 C 18.214844 -21.332031 17.832031 -20.757812 17.402344 -20.179688 C 17.257812 -19.941406 17.015625 -19.796875 16.730469 -19.894531 C 16.585938 -19.941406 16.441406 -20.132812 16.441406 -20.277344 C 16.058594 -23.199219 14.8125 -25.933594 14.140625 -28.761719 C 13.949219 -29.527344 13.46875 -30.199219 13.085938 -30.917969 C 12.847656 -31.398438 12.414062 -31.734375 11.839844 -31.828125 C 10.257812 -32.019531 8.722656 -32.402344 7.09375 -32.117188 C 6.328125 -31.972656 5.992188 -31.683594 5.800781 -31.015625 C 5.703125 -30.679688 5.65625 -30.296875 5.558594 -29.960938 C 3.164062 -21.234375 1.292969 -12.320312 -1.34375 -3.59375 C -1.390625 -3.355469 -1.484375 -3.117188 -1.484375 -2.828125 C -1.535156 -2.683594 -1.484375 -2.445312 -1.390625 -2.347656 C -0.71875 -1.582031 -0.191406 -0.527344 1.101562 -0.625 C 1.535156 -0.671875 2.011719 -0.574219 2.445312 -0.429688 C 4.3125 0.046875 4.3125 0.0976562 5.082031 -1.773438 C 5.367188 -2.492188 5.558594 -3.308594 5.800781 -4.027344 C 7.09375 -8.484375 8.101562 -13.039062 9.203125 -17.542969 C 9.300781 -17.976562 9.15625 -18.597656 9.96875 -18.839844 C 10.164062 -17.925781 10.304688 -17.066406 10.546875 -16.25 C 11.3125 -13.757812 10.929688 -11.121094 11.9375 -8.722656 C 12.414062 -7.621094 12.703125 -7.09375 13.757812 -7.09375 C 15.097656 -7.09375 16.441406 -7.285156 17.734375 -7.382812 C 18.40625 -7.429688 18.695312 -7.910156 18.597656 -8.53125 C 18.3125 -9.875 18.886719 -10.929688 19.75 -11.886719 C 20.085938 -12.222656 20.277344 -12.605469 20.515625 -12.992188 C 22.097656 -15.242188 23.632812 -17.542969 25.214844 -19.796875 C 25.453125 -20.132812 25.644531 -20.613281 26.125 -20.421875 C 25.933594 -20.5625 25.980469 -20.707031 26.125 -20.898438 C 26.171875 -20.949219 26.316406 -20.949219 26.363281 -20.949219 C 26.507812 -20.660156 26.316406 -20.515625 26.125 -20.421875 C 26.027344 -19.894531 25.980469 -19.367188 25.835938 -18.839844 L 22.242188 -5.128906 C 21.667969 -2.875 21.953125 -2.300781 24.113281 -1.582031 C 24.6875 -1.4375 25.308594 -1.390625 25.933594 -1.246094 C 27.945312 -0.910156 27.945312 -0.910156 28.519531 -2.730469 C 28.570312 -2.972656 28.617188 -3.257812 28.714844 -3.5 C 30.390625 -9.875 32.117188 -16.25 33.792969 -22.578125 C 34.273438 -24.496094 34.65625 -26.414062 35.089844 -28.328125 C 35.519531 -29.960938 34.175781 -30.871094 33.554688 -32.070312 Z M 33.554688 -32.070312 "/></g></g></g><g fill="#faf0ca" fill-opacity="1"><g transform="translate(127.268379, 201.494795)"><g><path d="M 21.28125 -3.882812 L 21.234375 -3.882812 C 21.042969 -5.992188 20.804688 -8.101562 20.707031 -10.257812 C 20.277344 -16.632812 19.460938 -23.007812 19.414062 -29.433594 C 19.367188 -29.769531 19.222656 -30.152344 19.222656 -30.488281 C 19.222656 -31.828125 18.550781 -32.597656 17.304688 -32.980469 C 16.679688 -33.21875 16.152344 -33.410156 15.53125 -32.980469 C 15.148438 -32.738281 14.714844 -32.402344 14.332031 -32.644531 C 13.324219 -33.21875 12.175781 -32.597656 11.265625 -32.929688 C 10.496094 -33.21875 10.304688 -33.027344 10.019531 -32.546875 C 9.492188 -31.542969 8.914062 -30.535156 8.4375 -29.480469 C 6.085938 -24.207031 3.738281 -18.886719 1.4375 -13.613281 L -2.398438 -4.746094 C -3.019531 -3.257812 -2.875 -2.730469 -1.484375 -1.917969 C -0.527344 -1.390625 0.429688 -0.957031 1.4375 -0.574219 C 2.398438 -0.144531 2.78125 -0.289062 3.308594 -1.34375 C 3.785156 -2.203125 4.171875 -3.117188 4.554688 -3.980469 L 5.558594 -6.183594 C 5.703125 -6.519531 5.945312 -6.808594 6.328125 -6.855469 C 8.628906 -6.949219 10.882812 -7.574219 13.230469 -7.476562 C 13.902344 -7.429688 14.1875 -7.140625 14.238281 -6.472656 L 14.667969 -2.492188 C 14.765625 -1.820312 15.097656 -1.34375 15.722656 -1.054688 C 16.539062 -0.625 17.257812 -0.335938 18.214844 -0.816406 C 18.742188 -1.101562 19.414062 -1.054688 20.035156 -1.152344 C 21.089844 -1.390625 21.234375 -1.535156 21.28125 -2.539062 Z M 13.039062 -22.050781 L 13.613281 -15.433594 C 13.660156 -14.8125 13.519531 -14.378906 12.847656 -14.285156 C 11.601562 -14.140625 10.402344 -13.660156 9.15625 -13.996094 C 9.730469 -16.152344 11.792969 -21.140625 12.511719 -22.003906 C 12.605469 -22.097656 12.847656 -22.050781 13.039062 -22.050781 Z M 13.039062 -22.050781 "/></g></g></g><g fill="#faf0ca" fill-opacity="1"><g transform="translate(151.567392, 201.494795)"><g><path d="M 8.386719 -18.980469 C 7.285156 -13.949219 6.085938 -8.914062 4.984375 -3.882812 C 4.746094 -2.828125 4.984375 -2.109375 5.945312 -1.726562 C 7.046875 -1.246094 8.246094 -0.863281 9.441406 -0.527344 C 10.304688 -0.238281 10.738281 -0.480469 11.074219 -1.390625 C 11.457031 -2.398438 11.792969 -3.453125 12.03125 -4.457031 C 12.847656 -8.195312 13.566406 -11.984375 14.378906 -15.722656 C 15.097656 -18.839844 15.820312 -21.953125 16.585938 -25.070312 C 16.875 -26.316406 17.015625 -26.414062 18.40625 -26.507812 C 19.941406 -26.605469 21.425781 -26.605469 22.960938 -26.699219 C 24.589844 -26.796875 24.972656 -27.132812 25.117188 -28.761719 C 25.214844 -29.910156 25.070312 -31.0625 25.070312 -32.210938 C 25.070312 -32.929688 24.589844 -33.171875 24.015625 -33.171875 C 22.003906 -33.171875 19.941406 -33.125 17.878906 -33.074219 C 14.046875 -33.027344 10.210938 -32.929688 6.375 -33.027344 C 4.457031 -33.074219 3.882812 -31.828125 3.59375 -30.199219 C 3.5 -29.671875 3.644531 -29.144531 3.691406 -28.570312 C 3.785156 -26.652344 3.980469 -26.460938 5.847656 -26.363281 C 6.375 -26.363281 6.902344 -26.460938 7.429688 -26.507812 C 8.195312 -26.507812 9.011719 -26.699219 9.875 -26.269531 C 9.394531 -23.871094 8.964844 -21.425781 8.386719 -18.980469 Z M 8.386719 -18.980469 "/></g></g></g><g fill="#faf0ca" fill-opacity="1"><g transform="translate(172.319774, 201.494795)"><g><path d="M 11.359375 -24.636719 C 11.550781 -25.261719 11.9375 -25.5 12.511719 -25.5 C 14.09375 -25.550781 15.722656 -25.550781 17.304688 -25.644531 C 18.214844 -25.644531 19.078125 -25.691406 19.988281 -25.886719 C 20.851562 -26.027344 21.332031 -26.605469 21.378906 -27.5625 C 21.425781 -28.328125 21.378906 -29.144531 21.378906 -29.960938 C 21.425781 -32.261719 21.332031 -32.402344 19.078125 -32.402344 C 18.597656 -32.402344 18.167969 -32.308594 17.734375 -32.355469 C 15.003906 -32.546875 12.269531 -31.542969 9.539062 -32.453125 C 9.347656 -32.546875 9.011719 -32.355469 8.820312 -32.210938 C 8.386719 -32.019531 8.003906 -31.875 7.527344 -31.925781 C 6.855469 -32.070312 6.566406 -31.636719 6.421875 -31.109375 C 5.894531 -29.480469 5.320312 -27.851562 4.890625 -26.269531 C 2.828125 -19.316406 0.816406 -12.414062 -1.199219 -5.464844 C -1.34375 -4.9375 -1.4375 -4.410156 -1.582031 -3.929688 C -1.871094 -2.636719 -1.152344 -1.964844 -0.191406 -1.675781 C 0.957031 -1.34375 2.203125 -1.101562 3.402344 -0.863281 C 3.882812 -0.765625 4.3125 -0.910156 4.457031 -1.4375 C 4.601562 -1.871094 4.792969 -2.300781 4.890625 -2.683594 C 5.800781 -5.417969 6.664062 -8.148438 7.527344 -10.882812 C 8.003906 -12.464844 8.054688 -12.464844 9.730469 -12.605469 L 11.074219 -12.605469 L 16.921875 -13.183594 C 17.785156 -13.277344 18.261719 -13.710938 18.261719 -14.523438 C 18.3125 -15.867188 18.261719 -17.207031 18.167969 -18.503906 C 18.070312 -19.269531 17.6875 -19.605469 16.875 -19.558594 C 14.667969 -19.507812 12.464844 -19.414062 9.96875 -19.316406 C 10.257812 -21.234375 10.785156 -22.960938 11.359375 -24.636719 Z M 11.359375 -24.636719 "/></g></g></g><g fill="#faf0ca" fill-opacity="1"><g transform="translate(190.771645, 201.494795)"><g><path d="M 10.019531 -33.171875 C 7.09375 -32.546875 6.710938 -32.070312 5.847656 -29.097656 L 5.703125 -28.328125 L 0.671875 -11.410156 C -0.144531 -8.773438 -0.957031 -6.136719 -1.820312 -3.546875 C -2.109375 -2.730469 -1.917969 -2.15625 -1.34375 -1.628906 C -0.816406 -1.152344 -0.191406 -0.765625 0.527344 -0.671875 C 1.246094 -0.527344 1.917969 -0.289062 2.589844 -0.0976562 C 3.644531 0.238281 3.785156 0.191406 4.21875 -0.71875 C 5.464844 -3.785156 6.230469 -7 7.238281 -10.113281 C 7.71875 -11.550781 7.667969 -11.550781 9.011719 -11.648438 C 9.441406 -11.648438 9.875 -11.695312 10.304688 -11.695312 C 10.832031 -11.695312 11.167969 -11.410156 11.359375 -10.976562 C 11.550781 -10.59375 11.695312 -10.164062 11.886719 -9.777344 L 15.625 -0.910156 C 16.152344 0.289062 16.921875 0.625 18.167969 0.289062 C 18.503906 0.191406 18.839844 0 19.175781 -0.144531 C 23.25 -2.0625 22.722656 -0.957031 21.1875 -4.9375 C 20.996094 -5.417969 20.757812 -5.894531 20.515625 -6.375 C 19.75 -8.195312 18.980469 -9.96875 18.261719 -11.792969 C 17.59375 -13.421875 17.640625 -13.421875 19.078125 -14.285156 C 19.460938 -14.523438 19.84375 -14.714844 20.179688 -14.957031 C 23.390625 -17.257812 25.5 -20.230469 25.933594 -24.207031 C 26.363281 -28.28125 23.726562 -32.789062 19.316406 -33.554688 C 18.167969 -33.746094 17.015625 -33.84375 15.867188 -33.984375 C 13.902344 -33.984375 11.9375 -33.601562 10.019531 -33.171875 Z M 17.734375 -21.570312 C 16.347656 -20.230469 14.765625 -19.367188 12.941406 -18.886719 C 12.03125 -18.648438 10.976562 -17.785156 10.210938 -18.695312 C 9.683594 -19.316406 10.402344 -20.371094 10.640625 -21.1875 C 11.023438 -22.722656 11.457031 -24.253906 11.839844 -25.835938 C 12.03125 -26.605469 12.511719 -26.988281 13.324219 -27.035156 C 14.765625 -27.132812 16.152344 -27.324219 17.59375 -27.082031 C 18.742188 -26.84375 19.269531 -26.316406 19.269531 -25.070312 C 19.222656 -23.726562 18.742188 -22.53125 17.734375 -21.570312 Z M 17.734375 -21.570312 "/></g></g></g><g fill="#faf0ca" fill-opacity="1"><g transform="translate(216.412629, 201.494795)"><g><path d="M 13.46875 -36.765625 C 14.714844 -36.71875 15.769531 -37.101562 16.488281 -38.15625 C 17.207031 -39.164062 17.351562 -41.082031 16.730469 -41.941406 C 15.292969 -44.003906 11.886719 -43.765625 10.738281 -41.464844 C 10.066406 -40.167969 10.496094 -38.828125 11.121094 -37.675781 C 11.601562 -36.765625 12.605469 -36.8125 13.46875 -36.765625 Z M 12.414062 -40.695312 C 12.894531 -41.75 14.476562 -41.847656 15.097656 -40.886719 C 15.386719 -40.503906 15.339844 -39.640625 15.003906 -39.210938 C 14.667969 -38.730469 14.1875 -38.539062 13.613281 -38.585938 C 13.230469 -38.585938 12.796875 -38.585938 12.558594 -38.972656 C 12.269531 -39.5 12.078125 -40.121094 12.414062 -40.695312 Z M 21.332031 -4.027344 L 21.28125 -4.027344 C 21.089844 -6.183594 20.851562 -8.292969 20.757812 -10.402344 C 20.324219 -16.824219 19.507812 -23.199219 19.460938 -29.625 C 19.414062 -29.960938 19.269531 -30.296875 19.269531 -30.679688 C 19.269531 -31.972656 18.597656 -32.738281 17.351562 -33.171875 C 16.730469 -33.363281 16.203125 -33.554688 15.578125 -33.171875 C 15.242188 -32.929688 14.765625 -32.546875 14.378906 -32.789062 C 13.375 -33.410156 12.222656 -32.789062 11.3125 -33.125 C 10.59375 -33.410156 10.355469 -33.171875 10.066406 -32.738281 C 9.539062 -31.734375 8.964844 -30.679688 8.484375 -29.625 C 6.136719 -24.351562 3.785156 -19.078125 1.484375 -13.757812 C 0.191406 -10.832031 -1.054688 -7.863281 -2.300781 -4.9375 C -2.972656 -3.453125 -2.828125 -2.925781 -1.4375 -2.109375 C -0.480469 -1.582031 0.480469 -1.152344 1.484375 -0.71875 C 2.445312 -0.289062 2.828125 -0.480469 3.402344 -1.484375 C 3.835938 -2.347656 4.21875 -3.257812 4.648438 -4.171875 C 4.984375 -4.890625 5.320312 -5.609375 5.609375 -6.328125 C 5.800781 -6.664062 5.992188 -7 6.375 -7 C 8.675781 -7.140625 10.976562 -7.71875 13.277344 -7.621094 C 13.949219 -7.621094 14.238281 -7.285156 14.285156 -6.664062 C 14.429688 -5.320312 14.621094 -3.980469 14.714844 -2.683594 C 14.8125 -1.964844 15.148438 -1.535156 15.769531 -1.199219 C 16.585938 -0.816406 17.304688 -0.480469 18.261719 -0.957031 C 18.789062 -1.246094 19.460938 -1.246094 20.085938 -1.34375 C 21.140625 -1.535156 21.332031 -1.726562 21.332031 -2.683594 Z M 12.894531 -14.476562 C 11.648438 -14.332031 10.449219 -13.851562 9.203125 -14.140625 C 9.777344 -16.347656 11.839844 -21.28125 12.558594 -22.195312 C 12.65625 -22.289062 12.894531 -22.242188 13.085938 -22.242188 L 13.660156 -15.578125 C 13.710938 -15.003906 13.566406 -14.523438 12.894531 -14.476562 Z M 12.894531 -14.476562 "/></g></g></g><g fill="#faf0ca" fill-opacity="1"><g transform="translate(240.759573, 201.494795)"><g><path d="M 13.375 -18.167969 C 14.238281 -13.230469 14.957031 -8.292969 14.140625 -3.257812 C 14.09375 -3.019531 14.046875 -2.730469 14.046875 -2.492188 C 14.046875 -1.390625 14.476562 -0.71875 15.484375 -0.527344 C 16.347656 -0.382812 17.257812 -0.429688 18.167969 -0.382812 C 21.28125 -0.289062 21.714844 -0.574219 22.53125 -3.402344 C 24.6875 -11.121094 26.796875 -18.839844 28.953125 -26.605469 C 29.191406 -27.609375 29.382812 -28.664062 29.527344 -29.71875 C 29.671875 -30.582031 29.433594 -31.253906 28.808594 -31.925781 C 27.851562 -32.835938 26.941406 -33.554688 25.550781 -32.980469 C 25.308594 -32.882812 25.023438 -32.691406 24.832031 -32.789062 C 23.96875 -33.171875 23.777344 -32.691406 23.585938 -31.972656 L 20.996094 -22.722656 C 20.757812 -21.90625 20.46875 -21.140625 20.085938 -19.941406 C 19.703125 -20.898438 19.414062 -21.425781 19.222656 -22.003906 C 18.503906 -24.160156 17.496094 -26.125 16.441406 -28.089844 C 15.675781 -29.527344 14.523438 -30.628906 13.375 -31.734375 C 12.558594 -32.546875 11.503906 -32.070312 10.691406 -32.5 C 9.730469 -32.980469 8.820312 -32.738281 7.8125 -32.691406 C 6.710938 -32.644531 6.230469 -32.117188 5.945312 -31.15625 L 3.738281 -23.199219 C 2.398438 -18.121094 1.054688 -13.039062 -0.335938 -7.957031 C -0.625 -6.855469 -0.910156 -5.703125 -1.246094 -4.601562 C -1.390625 -4.074219 -1.199219 -3.691406 -0.863281 -3.402344 C -0.429688 -3.117188 0 -2.683594 0.480469 -2.589844 C 1.535156 -2.398438 2.539062 -2.011719 3.546875 -1.675781 C 4.121094 -1.484375 4.601562 -1.628906 4.839844 -2.253906 C 5.175781 -3.066406 5.558594 -3.882812 5.800781 -4.746094 C 6.949219 -9.203125 8.054688 -13.710938 9.25 -18.214844 C 9.730469 -19.988281 10.304688 -21.761719 10.882812 -23.871094 C 12.222656 -22.050781 12.992188 -20.421875 13.375 -18.167969 Z M 13.375 -18.167969 "/></g></g></g><g fill="#faf0ca" fill-opacity="1"><g transform="translate(268.030091, 201.494795)"><g><path d="M 5.992188 -19.84375 C 7.8125 -19.84375 9.011719 -21.089844 8.964844 -22.863281 C 8.964844 -23.679688 8.675781 -24.445312 8.246094 -25.117188 C 7.285156 -26.554688 5.464844 -26.890625 4.121094 -25.980469 C 3.066406 -25.214844 2.492188 -23.296875 2.925781 -21.859375 C 3.257812 -20.707031 4.601562 -19.84375 5.992188 -19.84375 Z M 4.121094 -8.867188 C 3.066406 -8.148438 2.492188 -6.183594 2.925781 -4.746094 C 3.257812 -3.59375 4.601562 -2.730469 5.992188 -2.730469 C 7.8125 -2.730469 9.011719 -3.980469 8.964844 -5.753906 C 8.964844 -6.566406 8.675781 -7.335938 8.246094 -8.003906 C 7.285156 -9.441406 5.464844 -9.777344 4.121094 -8.867188 Z M 4.121094 -8.867188 "/></g></g></g><path stroke-linecap="butt" transform="matrix(0.766839, 0, 0, 0.766839, 77.663685, 153.950791)" fill="none" stroke-linejoin="miter" d="M 65.065709 20.185334 C 64.943453 19.986669 64.378023 20.063079 64.072385 19.925542 C 63.191129 19.681031 62.503444 20.490972 61.754631 20.368717 C 60.883563 20.307589 60.562643 19.054474 59.513287 18.993346 C 58.947857 18.993346 58.382426 18.748836 57.816996 18.550171 C 56.945928 18.183406 56.258243 18.550171 55.636779 19.176729 C 55.254732 19.619904 54.887966 20.124206 54.567047 20.552099 L 45.560916 33.429643 C 45.056614 34.178456 44.572687 34.927269 44.007257 35.691364 C 43.823874 35.997002 43.502954 36.180384 43.136189 36.058129 C 42.937524 35.997002 42.754141 35.752491 42.754141 35.553827 C 42.249839 31.753729 40.635052 28.182859 39.748702 24.489734 C 39.504192 23.496411 38.877634 22.625343 38.373331 21.677866 C 38.067694 21.056402 37.502263 20.613227 36.758545 20.490972 C 34.695489 20.246461 32.683372 19.742159 30.559189 20.124206 C 29.57096 20.307589 29.127785 20.689636 28.883274 21.55561 C 28.745737 21.998785 28.68461 22.487806 28.562355 22.930981 C 25.43466 34.300711 23.004839 45.930234 19.556224 57.315246 C 19.495097 57.620883 19.372842 57.941803 19.372842 58.308569 C 19.311714 58.507233 19.372842 58.812871 19.495097 58.930032 C 20.381447 59.938638 21.069132 61.314008 22.745047 61.191753 C 23.310477 61.130625 23.937034 61.252881 24.502464 61.436263 C 26.942474 62.062821 26.942474 62.123949 27.935797 59.678845 C 28.317844 58.751744 28.562355 57.682011 28.883274 56.749815 C 30.559189 50.937601 31.873432 44.998038 33.30993 39.124696 C 33.447467 38.559266 33.248803 37.749326 34.313441 37.428406 C 34.557952 38.620394 34.756616 39.751254 35.062254 40.800611 C 36.070859 44.05056 35.566557 47.504269 36.8808 50.631963 C 37.502263 52.063368 37.869029 52.751053 39.259681 52.751053 C 41.001817 52.751053 42.754141 52.491261 44.450432 52.369005 C 45.316406 52.307878 45.683171 51.68132 45.560916 50.876474 C 45.194151 49.119056 45.942964 47.743685 47.073824 46.495664 C 47.501717 46.067771 47.761509 45.563468 48.067147 45.059165 C 50.125109 42.114854 52.127037 39.124696 54.184999 36.180384 C 54.505919 35.752491 54.750429 35.125934 55.376987 35.370444 C 55.132477 35.187061 55.193604 35.003678 55.376987 34.743886 C 55.438115 34.682759 55.636779 34.682759 55.697907 34.682759 C 55.88129 35.064806 55.636779 35.248189 55.376987 35.370444 C 55.254732 36.058129 55.193604 36.74072 55.010222 37.428406 L 50.323774 55.313317 C 49.559679 58.247441 49.941726 58.99116 52.748501 59.938638 C 53.497314 60.12202 54.322536 60.183148 55.132477 60.381813 C 57.755869 60.809706 57.755869 60.809706 58.504682 58.446106 C 58.565809 58.125186 58.626937 57.743139 58.749192 57.437501 C 60.944691 49.119056 63.191129 40.800611 65.386628 32.558575 C 66.013186 30.057438 66.502207 27.556301 67.067637 25.050071 C 67.627973 22.930981 65.875649 21.738993 65.065709 20.185334 Z M 92.445771 56.933198 L 92.384644 56.933198 C 92.124851 54.187551 91.819213 51.43681 91.68677 48.614753 C 91.136622 40.31159 90.066889 31.998239 90.005762 23.618666 C 89.944634 23.175491 89.74597 22.686471 89.74597 22.243296 C 89.74597 20.490972 88.874902 19.497649 87.260115 18.993346 C 86.434892 18.672426 85.747207 18.427916 84.937267 18.993346 C 84.432964 19.298984 83.872628 19.742159 83.383607 19.436521 C 82.069364 18.672426 80.556457 19.497649 79.384845 19.054474 C 78.376239 18.672426 78.131729 18.932218 77.749682 19.558776 C 77.061996 20.873019 76.318278 22.182168 75.69172 23.557539 C 72.625153 30.439486 69.553492 37.367278 66.563334 44.249225 L 61.561061 55.802338 C 60.75112 57.743139 60.934503 58.446106 62.747955 59.495463 C 64.00107 60.183148 65.254185 60.748578 66.563334 61.252881 C 67.81645 61.818311 68.320752 61.619646 69.008438 60.244275 C 69.629901 59.128697 70.118922 57.941803 70.623225 56.810943 L 71.937468 53.943041 C 72.12085 53.499866 72.44177 53.117818 72.946073 53.056691 C 75.93623 52.934436 78.880542 52.124495 81.931827 52.24675 C 82.818177 52.307878 83.184943 52.689925 83.261352 53.560993 L 83.8115 58.751744 C 83.949037 59.617718 84.371836 60.244275 85.181777 60.626323 C 86.25151 61.191753 87.198987 61.558518 88.431727 60.931961 C 89.134694 60.565195 90.005762 60.626323 90.815702 60.504068 C 92.185979 60.183148 92.384644 59.999765 92.445771 58.690616 Z M 81.687317 33.24626 L 82.43613 41.870343 C 82.497257 42.680284 82.313875 43.245714 81.442806 43.367969 C 79.812738 43.566634 78.253984 44.188097 76.623915 43.750016 C 77.367634 40.938148 80.07253 34.438248 80.999632 33.307388 C 81.121887 33.185133 81.442806 33.24626 81.687317 33.24626 Z M 107.315055 37.245023 C 105.883651 43.811144 104.309616 50.372171 102.878212 56.933198 C 102.572574 58.308569 102.878212 59.250952 104.126233 59.755255 C 105.562731 60.381813 107.131673 60.870833 108.690426 61.314008 C 109.821286 61.696056 110.386716 61.375136 110.809515 60.183148 C 111.313818 58.868905 111.756993 57.498628 112.062631 56.184385 C 113.132363 51.319649 114.064559 46.373408 115.129198 41.503578 C 116.061393 37.428406 117.008871 33.368516 118.002194 29.308625 C 118.379148 27.678557 118.56253 27.556301 120.381076 27.434046 C 122.37791 27.311791 124.318711 27.311791 126.315545 27.189536 C 128.439729 27.051999 128.944031 26.624106 129.127414 24.489734 C 129.249669 22.992109 129.066286 21.494483 129.066286 19.986669 C 129.066286 19.054474 128.439729 18.748836 127.690916 18.748836 C 125.067524 18.748836 122.37791 18.809963 119.693391 18.871091 C 114.686023 18.932218 109.683749 19.054474 104.691663 18.932218 C 102.190526 18.871091 101.441714 20.490972 101.059666 22.625343 C 100.937411 23.313028 101.120794 24.000714 101.181921 24.749527 C 101.319458 27.250663 101.563969 27.495174 104.003978 27.617429 C 104.691663 27.617429 105.379349 27.495174 106.067034 27.434046 C 107.055263 27.434046 108.124996 27.189536 109.255856 27.739684 C 108.629298 30.867379 108.063868 34.056201 107.315055 37.245023 Z M 138.255799 29.874055 C 138.50031 29.048833 139.004612 28.748289 139.753425 28.748289 C 141.811387 28.687162 143.930477 28.687162 146.008814 28.564906 C 147.18552 28.564906 148.311287 28.503779 149.503274 28.243987 C 150.634135 28.060604 151.255598 27.311791 151.316726 26.058676 C 151.377854 25.050071 151.316726 24.000714 151.316726 22.930981 C 151.377854 19.925542 151.255598 19.742159 148.311287 19.742159 C 147.684729 19.742159 147.124393 19.864414 146.574244 19.803286 C 143.003375 19.558776 139.447787 20.873019 135.876918 19.681031 C 135.632407 19.558776 135.189232 19.803286 134.944722 19.986669 C 134.379292 20.246461 133.874989 20.429844 133.248432 20.368717 C 132.377364 20.185334 132.00041 20.750764 131.817027 21.433355 C 131.129342 23.557539 130.380529 25.676628 129.815099 27.739684 C 127.13058 36.801848 124.507188 45.807978 121.878702 54.875236 C 121.680037 55.557828 121.557782 56.245513 121.374399 56.872071 C 120.997446 58.568361 121.939829 59.434335 123.192945 59.816382 C 124.69057 60.244275 126.305357 60.565195 127.879392 60.870833 C 128.50595 60.993088 129.066286 60.809706 129.249669 60.12202 C 129.433052 59.55659 129.692844 58.99116 129.815099 58.507233 C 131.007087 54.936364 132.122665 51.375682 133.248432 47.804813 C 133.874989 45.746851 133.936117 45.746851 136.116334 45.563468 L 137.873752 45.563468 L 145.504512 44.814655 C 146.635372 44.677118 147.26193 44.12697 147.26193 43.062331 C 147.323057 41.304913 147.26193 39.567871 147.124393 37.871581 C 147.002137 36.862976 146.497835 36.435083 145.443384 36.49621 C 142.5602 36.557338 139.692298 36.679593 136.437254 36.801848 C 136.819301 34.300711 137.506987 32.059367 138.255799 29.874055 Z M 160.562273 18.748836 C 156.746893 19.558776 156.24259 20.185334 155.132106 24.061841 L 154.933441 25.050071 L 148.36732 47.122221 C 147.317963 50.555554 146.248231 54.004168 145.11737 57.376373 C 144.750605 58.446106 144.995115 59.189825 145.743928 59.87751 C 146.431613 60.504068 147.256836 60.993088 148.183937 61.130625 C 149.116133 61.314008 150.002483 61.619646 150.873551 61.879438 C 152.243828 62.307331 152.442492 62.246204 152.99264 61.069498 C 154.627803 57.055453 155.616032 52.873308 156.930275 48.813418 C 157.556833 46.938839 157.495706 46.938839 159.24803 46.816583 C 159.81346 46.816583 160.37889 46.755456 160.94432 46.755456 C 161.632005 46.755456 162.059898 47.122221 162.319691 47.682558 C 162.564201 48.18686 162.74249 48.75229 163.002282 49.241311 L 167.872113 60.809706 C 168.559798 62.383741 169.568403 62.80654 171.18319 62.383741 C 171.626365 62.246204 172.06954 62.001693 172.497433 61.818311 C 177.820626 59.31208 177.138035 60.748578 175.120825 55.557828 C 174.876315 54.936364 174.570677 54.309806 174.249757 53.683248 C 173.261528 51.319649 172.252923 48.996801 171.320727 46.617919 C 170.434377 44.493735 170.495505 44.493735 172.375178 43.367969 C 172.87948 43.062331 173.383783 42.817821 173.811676 42.496901 C 178.004009 39.491462 180.75475 35.614954 181.32018 30.439486 C 181.880517 25.111198 178.447184 19.237856 172.696097 18.244533 C 171.18319 17.984741 169.690658 17.862486 168.193032 17.679103 C 165.630768 17.679103 163.063409 18.183406 160.562273 18.748836 Z M 170.633042 33.872818 C 168.81959 35.614954 166.756534 36.74072 164.377652 37.367278 C 163.185665 37.688198 161.815388 38.803776 160.806783 37.62707 C 160.119098 36.801848 161.066575 35.431571 161.372213 34.377121 C 161.876516 32.365004 162.441946 30.363076 162.941154 28.305114 C 163.185665 27.311791 163.812222 26.807488 164.881955 26.746361 C 166.756534 26.624106 168.559798 26.364314 170.434377 26.685233 C 171.947285 26.990871 172.63497 27.678557 172.63497 29.308625 C 172.55856 31.050761 171.947285 32.619703 170.633042 33.872818 Z M 198.502125 14.047106 C 200.122006 14.108233 201.507564 13.624307 202.43976 12.248936 C 203.371955 10.934693 203.57062 8.433556 202.76068 7.302696 C 200.881006 4.618176 196.444163 4.923814 194.946537 7.929254 C 194.060187 9.625544 194.625617 11.362586 195.435558 12.875494 C 196.062115 14.047106 197.371264 13.985978 198.502125 14.047106 Z M 197.126754 8.937859 C 197.753312 7.547206 199.816368 7.424951 200.621214 8.678067 C 201.003262 9.182369 200.942134 10.308135 200.498959 10.858284 C 200.060878 11.484841 199.43432 11.744634 198.685507 11.683506 C 198.181205 11.683506 197.631057 11.683506 197.310137 11.179204 C 196.943371 10.491518 196.683579 9.686672 197.126754 8.937859 Z M 208.756277 56.749815 L 208.695149 56.749815 C 208.435357 53.943041 208.129719 51.182112 208.007464 48.43137 C 207.447127 40.056892 206.377395 31.753729 206.316267 23.374156 C 206.25514 22.930981 206.071757 22.487806 206.071757 21.998785 C 206.071757 20.307589 205.185407 19.298984 203.57062 18.748836 C 202.76068 18.489043 202.057712 18.244533 201.247772 18.748836 C 200.819879 19.054474 200.198415 19.558776 199.694113 19.237856 C 198.37987 18.427916 196.866962 19.237856 195.69535 18.809963 C 194.747872 18.427916 194.442235 18.748836 194.060187 19.298984 C 193.372502 20.613227 192.628783 21.998785 192.002225 23.374156 C 188.935658 30.240821 185.879279 37.122768 182.87384 44.05056 C 181.182643 47.86594 179.562762 51.742448 177.9276 55.557828 C 177.061626 57.498628 177.245008 58.186314 179.05846 59.250952 C 180.311575 59.938638 181.559597 60.504068 182.87384 61.069498 C 184.126955 61.619646 184.631258 61.375136 185.374977 60.060893 C 185.940407 58.930032 186.429427 57.743139 186.994858 56.566433 C 187.438033 55.618955 187.881207 54.691854 188.247973 53.744376 C 188.507765 53.316483 188.752276 52.873308 189.251484 52.873308 C 192.246736 52.689925 195.252175 51.941112 198.257614 52.063368 C 199.128682 52.063368 199.51073 52.491261 199.571857 53.316483 C 199.75524 55.058619 199.99975 56.810943 200.122006 58.507233 C 200.254449 59.434335 200.682342 59.999765 201.507564 60.44294 C 202.562015 60.931961 203.509492 61.375136 204.757514 60.748578 C 205.445199 60.381813 206.316267 60.381813 207.126208 60.244275 C 208.496484 59.999765 208.756277 59.755255 208.756277 58.507233 Z M 197.753312 43.123459 C 196.123243 43.306841 194.56449 43.928305 192.929327 43.566634 C 193.693422 40.678355 196.383035 34.239584 197.310137 33.062878 C 197.432392 32.925341 197.753312 32.986468 197.997822 32.986468 L 198.746635 41.686961 C 198.807763 42.435773 198.62438 43.062331 197.753312 43.123459 Z M 230.130554 38.314756 C 231.261414 44.753528 232.188516 51.182112 231.123877 57.743139 C 231.06275 58.064058 231.001622 58.446106 231.001622 58.751744 C 231.001622 60.183148 231.561958 61.069498 232.876201 61.314008 C 234.007062 61.497391 235.193955 61.436263 236.370661 61.497391 C 240.445833 61.619646 240.995982 61.252881 242.065714 57.559756 C 244.872489 47.504269 247.633418 37.428406 250.440193 27.311791 C 250.745831 25.997548 251.005623 24.627271 251.189006 23.236619 C 251.372389 22.121041 251.066751 21.239785 250.25681 20.368717 C 249.008789 19.176729 247.816801 18.244533 246.003349 18.993346 C 245.697712 19.115601 245.315664 19.375393 245.071154 19.237856 C 243.940294 18.748836 243.695783 19.375393 243.435991 20.307589 L 240.063786 32.365004 C 239.758148 33.429643 239.376101 34.438248 238.871798 35.997002 C 238.37259 34.743886 238.005824 34.056201 237.746032 33.307388 C 236.813836 30.500613 235.499593 27.938349 234.129317 25.37099 C 233.120712 23.496411 231.623086 22.059913 230.130554 20.613227 C 229.060821 19.558776 227.685451 20.185334 226.620812 19.619904 C 225.367697 18.993346 224.190991 19.298984 222.881842 19.375393 C 221.430062 19.436521 220.803504 20.124206 220.436739 21.372228 L 217.553554 31.753729 C 215.816512 38.375883 214.059094 44.998038 212.245643 51.620193 C 211.878877 53.056691 211.49683 54.569598 211.068937 56.001003 C 210.870272 56.688688 211.130064 57.19299 211.557957 57.559756 C 212.123387 57.941803 212.683724 58.507233 213.310281 58.629489 C 214.685652 58.868905 215.999895 59.373207 217.309044 59.816382 C 218.057857 60.060893 218.684415 59.87751 219.005334 59.052288 C 219.433227 58.002931 219.93753 56.933198 220.253356 55.802338 C 221.750982 50.005406 223.18748 44.12697 224.756421 38.253628 C 225.367697 35.935874 226.131792 33.613026 226.880604 30.867379 C 228.617646 33.24626 229.626252 35.370444 230.130554 38.314756 Z M 256.063931 36.119257 C 258.442812 36.119257 260.001566 34.499376 259.940438 32.181622 C 259.940438 31.127171 259.558391 30.118566 259.008242 29.247498 C 257.755127 27.372919 255.376245 26.929744 253.618827 28.121731 C 252.248551 29.125243 251.499738 31.616192 252.065168 33.490771 C 252.508343 35.003678 254.245385 36.119257 256.063931 36.119257 Z M 253.618827 50.433299 C 252.248551 51.375682 251.499738 53.943041 252.065168 55.802338 C 252.508343 57.315246 254.245385 58.446106 256.063931 58.446106 C 258.442812 58.446106 260.001566 56.810943 259.940438 54.493189 C 259.940438 53.438738 259.558391 52.430133 259.008242 51.559065 C 257.755127 49.684486 255.376245 49.241311 253.618827 50.433299 Z M 253.618827 50.433299 " stroke="#0d3b66" stroke-width="0.429773" stroke-opacity="1" stroke-miterlimit="4"/></svg>