<svg xmlns="http://www.w3.org/2000/svg" xmlns:xlink="http://www.w3.org/1999/xlink" width="500" zoomAndPan="magnify" viewBox="0 0 375 374.999991" height="500" preserveAspectRatio="xMidYMid meet" version="1.0"><defs><g/><clipPath id="a42ff6edca"><path d="M 9 147 L 366.617188 147 L 366.617188 212.796875 L 9 212.796875 Z M 9 147 " clip-rule="nonzero"/></clipPath></defs><g clip-path="url(#a42ff6edca)"><path fill="#1e1e1e" d="M 16.171875 156.644531 C 5.589844 160.15625 9.84375 190.246094 11.984375 195.980469 C 14.667969 203.167969 24.597656 206.832031 31.257812 208.6875 C 50.359375 214 71.140625 211.476562 90.710938 212.675781 C 108.503906 213.761719 126.335938 212.871094 144.152344 213.300781 C 187.265625 214.339844 230.054688 214.566406 273.195312 213.632812 C 292.230469 213.21875 349.5625 216.15625 356.71875 212.863281 C 360.738281 211.015625 363.003906 205.875 364.417969 201.996094 C 367.609375 193.234375 370.410156 165.957031 361.875 158.871094 C 353.753906 152.132812 341.824219 150.925781 331.820312 149.273438 C 311.914062 145.988281 212.699219 148.464844 183.058594 152.363281 C 162.917969 155.011719 34.585938 150.53125 16.171875 156.644531 Z M 16.171875 156.644531 " fill-opacity="1" fill-rule="evenodd"/></g><g fill="#faf0ca" fill-opacity="1"><g transform="translate(86.506295, 201.49481)"><g><path d="M 33.554688 -32.070312 C 33.457031 -32.210938 33.027344 -32.164062 32.789062 -32.261719 C 32.117188 -32.453125 31.589844 -31.828125 31.015625 -31.925781 C 30.34375 -31.972656 30.101562 -32.929688 29.289062 -32.980469 C 28.855469 -32.980469 28.425781 -33.171875 27.992188 -33.316406 C 27.324219 -33.601562 26.796875 -33.316406 26.316406 -32.835938 C 26.027344 -32.5 25.742188 -32.117188 25.5 -31.78125 L 18.597656 -21.90625 C 18.214844 -21.332031 17.832031 -20.757812 17.402344 -20.179688 C 17.257812 -19.941406 17.015625 -19.796875 16.730469 -19.894531 C 16.585938 -19.941406 16.441406 -20.132812 16.441406 -20.277344 C 16.058594 -23.199219 14.8125 -25.933594 14.140625 -28.761719 C 13.949219 -29.527344 13.46875 -30.199219 13.085938 -30.917969 C 12.847656 -31.398438 12.414062 -31.734375 11.839844 -31.828125 C 10.257812 -32.019531 8.722656 -32.402344 7.09375 -32.117188 C 6.328125 -31.972656 5.992188 -31.683594 5.800781 -31.015625 C 5.703125 -30.679688 5.65625 -30.296875 5.558594 -29.960938 C 3.164062 -21.234375 1.292969 -12.320312 -1.34375 -3.59375 C -1.390625 -3.355469 -1.484375 -3.117188 -1.484375 -2.828125 C -1.535156 -2.683594 -1.484375 -2.445312 -1.390625 -2.347656 C -0.71875 -1.582031 -0.191406 -0.527344 1.101562 -0.625 C 1.535156 -0.671875 2.011719 -0.574219 2.445312 -0.429688 C 4.3125 0.046875 4.3125 0.0976562 5.082031 -1.773438 C 5.367188 -2.492188 5.558594 -3.308594 5.800781 -4.027344 C 7.09375 -8.484375 8.101562 -13.039062 9.203125 -17.542969 C 9.300781 -17.976562 9.15625 -18.597656 9.96875 -18.839844 C 10.164062 -17.925781 10.304688 -17.066406 10.546875 -16.25 C 11.3125 -13.757812 10.929688 -11.121094 11.9375 -8.722656 C 12.414062 -7.621094 12.703125 -7.09375 13.757812 -7.09375 C 15.097656 -7.09375 16.441406 -7.285156 17.734375 -7.382812 C 18.40625 -7.429688 18.695312 -7.910156 18.597656 -8.53125 C 18.3125 -9.875 18.886719 -10.929688 19.75 -11.886719 C 20.085938 -12.222656 20.277344 -12.605469 20.515625 -12.992188 C 22.097656 -15.242188 23.632812 -17.542969 25.214844 -19.796875 C 25.453125 -20.132812 25.644531 -20.613281 26.125 -20.421875 C 25.933594 -20.5625 25.980469 -20.707031 26.125 -20.898438 C 26.171875 -20.949219 26.316406 -20.949219 26.363281 -20.949219 C 26.507812 -20.660156 26.316406 -20.515625 26.125 -20.421875 C 26.027344 -19.894531 25.980469 -19.367188 25.835938 -18.839844 L 22.242188 -5.128906 C 21.667969 -2.875 21.953125 -2.300781 24.113281 -1.582031 C 24.6875 -1.4375 25.308594 -1.390625 25.933594 -1.246094 C 27.945312 -0.910156 27.945312 -0.910156 28.519531 -2.730469 C 28.570312 -2.972656 28.617188 -3.257812 28.714844 -3.5 C 30.390625 -9.875 32.117188 -16.25 33.792969 -22.578125 C 34.273438 -24.496094 34.65625 -26.414062 35.089844 -28.328125 C 35.519531 -29.960938 34.175781 -30.871094 33.554688 -32.070312 Z M 33.554688 -32.070312 "/></g></g></g><g fill="#faf0ca" fill-opacity="1"><g transform="translate(119.767737, 201.49481)"><g><path d="M 21.28125 -3.882812 L 21.234375 -3.882812 C 21.042969 -5.992188 20.804688 -8.101562 20.707031 -10.257812 C 20.277344 -16.632812 19.460938 -23.007812 19.414062 -29.433594 C 19.367188 -29.769531 19.222656 -30.152344 19.222656 -30.488281 C 19.222656 -31.828125 18.550781 -32.597656 17.304688 -32.980469 C 16.679688 -33.21875 16.152344 -33.410156 15.53125 -32.980469 C 15.148438 -32.738281 14.714844 -32.402344 14.332031 -32.644531 C 13.324219 -33.21875 12.175781 -32.597656 11.265625 -32.929688 C 10.496094 -33.21875 10.304688 -33.027344 10.019531 -32.546875 C 9.492188 -31.542969 8.914062 -30.535156 8.4375 -29.480469 C 6.085938 -24.207031 3.738281 -18.886719 1.4375 -13.613281 L -2.398438 -4.746094 C -3.019531 -3.257812 -2.875 -2.730469 -1.484375 -1.917969 C -0.527344 -1.390625 0.429688 -0.957031 1.4375 -0.574219 C 2.398438 -0.144531 2.78125 -0.289062 3.308594 -1.34375 C 3.785156 -2.203125 4.171875 -3.117188 4.554688 -3.980469 L 5.558594 -6.183594 C 5.703125 -6.519531 5.945312 -6.808594 6.328125 -6.855469 C 8.628906 -6.949219 10.882812 -7.574219 13.230469 -7.476562 C 13.902344 -7.429688 14.1875 -7.140625 14.238281 -6.472656 L 14.667969 -2.492188 C 14.765625 -1.820312 15.097656 -1.34375 15.722656 -1.054688 C 16.539062 -0.625 17.257812 -0.335938 18.214844 -0.816406 C 18.742188 -1.101562 19.414062 -1.054688 20.035156 -1.152344 C 21.089844 -1.390625 21.234375 -1.535156 21.28125 -2.539062 Z M 13.039062 -22.050781 L 13.613281 -15.433594 C 13.660156 -14.8125 13.519531 -14.378906 12.847656 -14.285156 C 11.601562 -14.140625 10.402344 -13.660156 9.15625 -13.996094 C 9.730469 -16.152344 11.792969 -21.140625 12.511719 -22.003906 C 12.605469 -22.097656 12.847656 -22.050781 13.039062 -22.050781 Z M 13.039062 -22.050781 "/></g></g></g><g fill="#faf0ca" fill-opacity="1"><g transform="translate(144.06675, 201.49481)"><g><path d="M 8.386719 -18.980469 C 7.285156 -13.949219 6.085938 -8.914062 4.984375 -3.882812 C 4.746094 -2.828125 4.984375 -2.109375 5.945312 -1.726562 C 7.046875 -1.246094 8.246094 -0.863281 9.441406 -0.527344 C 10.304688 -0.238281 10.738281 -0.480469 11.074219 -1.390625 C 11.457031 -2.398438 11.792969 -3.453125 12.03125 -4.457031 C 12.847656 -8.195312 13.566406 -11.984375 14.378906 -15.722656 C 15.097656 -18.839844 15.820312 -21.953125 16.585938 -25.070312 C 16.875 -26.316406 17.015625 -26.414062 18.40625 -26.507812 C 19.941406 -26.605469 21.425781 -26.605469 22.960938 -26.699219 C 24.589844 -26.796875 24.972656 -27.132812 25.117188 -28.761719 C 25.214844 -29.910156 25.070312 -31.0625 25.070312 -32.210938 C 25.070312 -32.929688 24.589844 -33.171875 24.015625 -33.171875 C 22.003906 -33.171875 19.941406 -33.125 17.878906 -33.074219 C 14.046875 -33.027344 10.210938 -32.929688 6.375 -33.027344 C 4.457031 -33.074219 3.882812 -31.828125 3.59375 -30.199219 C 3.5 -29.671875 3.644531 -29.144531 3.691406 -28.570312 C 3.785156 -26.652344 3.980469 -26.460938 5.847656 -26.363281 C 6.375 -26.363281 6.902344 -26.460938 7.429688 -26.507812 C 8.195312 -26.507812 9.011719 -26.699219 9.875 -26.269531 C 9.394531 -23.871094 8.964844 -21.425781 8.386719 -18.980469 Z M 8.386719 -18.980469 "/></g></g></g><g fill="#faf0ca" fill-opacity="1"><g transform="translate(164.819132, 201.49481)"><g/></g></g><g fill="#faf0ca" fill-opacity="1"><g transform="translate(179.820228, 201.49481)"><g><path d="M 11.359375 -24.636719 C 11.550781 -25.261719 11.9375 -25.5 12.511719 -25.5 C 14.09375 -25.550781 15.722656 -25.550781 17.304688 -25.644531 C 18.214844 -25.644531 19.078125 -25.691406 19.988281 -25.886719 C 20.851562 -26.027344 21.332031 -26.605469 21.378906 -27.5625 C 21.425781 -28.328125 21.378906 -29.144531 21.378906 -29.960938 C 21.425781 -32.261719 21.332031 -32.402344 19.078125 -32.402344 C 18.597656 -32.402344 18.167969 -32.308594 17.734375 -32.355469 C 15.003906 -32.546875 12.269531 -31.542969 9.539062 -32.453125 C 9.347656 -32.546875 9.011719 -32.355469 8.820312 -32.210938 C 8.386719 -32.019531 8.003906 -31.875 7.527344 -31.925781 C 6.855469 -32.070312 6.566406 -31.636719 6.421875 -31.109375 C 5.894531 -29.480469 5.320312 -27.851562 4.890625 -26.269531 C 2.828125 -19.316406 0.816406 -12.414062 -1.199219 -5.464844 C -1.34375 -4.9375 -1.4375 -4.410156 -1.582031 -3.929688 C -1.871094 -2.636719 -1.152344 -1.964844 -0.191406 -1.675781 C 0.957031 -1.34375 2.203125 -1.101562 3.402344 -0.863281 C 3.882812 -0.765625 4.3125 -0.910156 4.457031 -1.4375 C 4.601562 -1.871094 4.792969 -2.300781 4.890625 -2.683594 C 5.800781 -5.417969 6.664062 -8.148438 7.527344 -10.882812 C 8.003906 -12.464844 8.054688 -12.464844 9.730469 -12.605469 L 11.074219 -12.605469 L 16.921875 -13.183594 C 17.785156 -13.277344 18.261719 -13.710938 18.261719 -14.523438 C 18.3125 -15.867188 18.261719 -17.207031 18.167969 -18.503906 C 18.070312 -19.269531 17.6875 -19.605469 16.875 -19.558594 C 14.667969 -19.507812 12.464844 -19.414062 9.96875 -19.316406 C 10.257812 -21.234375 10.785156 -22.960938 11.359375 -24.636719 Z M 11.359375 -24.636719 "/></g></g></g><g fill="#faf0ca" fill-opacity="1"><g transform="translate(198.272099, 201.49481)"><g><path d="M 10.019531 -33.171875 C 7.09375 -32.546875 6.710938 -32.070312 5.847656 -29.097656 L 5.703125 -28.328125 L 0.671875 -11.410156 C -0.144531 -8.773438 -0.957031 -6.136719 -1.820312 -3.546875 C -2.109375 -2.730469 -1.917969 -2.15625 -1.34375 -1.628906 C -0.816406 -1.152344 -0.191406 -0.765625 0.527344 -0.671875 C 1.246094 -0.527344 1.917969 -0.289062 2.589844 -0.0976562 C 3.644531 0.238281 3.785156 0.191406 4.21875 -0.71875 C 5.464844 -3.785156 6.230469 -7 7.238281 -10.113281 C 7.71875 -11.550781 7.667969 -11.550781 9.011719 -11.648438 C 9.441406 -11.648438 9.875 -11.695312 10.304688 -11.695312 C 10.832031 -11.695312 11.167969 -11.410156 11.359375 -10.976562 C 11.550781 -10.59375 11.695312 -10.164062 11.886719 -9.777344 L 15.625 -0.910156 C 16.152344 0.289062 16.921875 0.625 18.167969 0.289062 C 18.503906 0.191406 18.839844 0 19.175781 -0.144531 C 23.25 -2.0625 22.722656 -0.957031 21.1875 -4.9375 C 20.996094 -5.417969 20.757812 -5.894531 20.515625 -6.375 C 19.75 -8.195312 18.980469 -9.96875 18.261719 -11.792969 C 17.59375 -13.421875 17.640625 -13.421875 19.078125 -14.285156 C 19.460938 -14.523438 19.84375 -14.714844 20.179688 -14.957031 C 23.390625 -17.257812 25.5 -20.230469 25.933594 -24.207031 C 26.363281 -28.28125 23.726562 -32.789062 19.316406 -33.554688 C 18.167969 -33.746094 17.015625 -33.84375 15.867188 -33.984375 C 13.902344 -33.984375 11.9375 -33.601562 10.019531 -33.171875 Z M 17.734375 -21.570312 C 16.347656 -20.230469 14.765625 -19.367188 12.941406 -18.886719 C 12.03125 -18.648438 10.976562 -17.785156 10.210938 -18.695312 C 9.683594 -19.316406 10.402344 -20.371094 10.640625 -21.1875 C 11.023438 -22.722656 11.457031 -24.253906 11.839844 -25.835938 C 12.03125 -26.605469 12.511719 -26.988281 13.324219 -27.035156 C 14.765625 -27.132812 16.152344 -27.324219 17.59375 -27.082031 C 18.742188 -26.84375 19.269531 -26.316406 19.269531 -25.070312 C 19.222656 -23.726562 18.742188 -22.53125 17.734375 -21.570312 Z M 17.734375 -21.570312 "/></g></g></g><g fill="#faf0ca" fill-opacity="1"><g transform="translate(223.913084, 201.49481)"><g><path d="M 13.46875 -36.765625 C 14.714844 -36.71875 15.769531 -37.101562 16.488281 -38.15625 C 17.207031 -39.164062 17.351562 -41.082031 16.730469 -41.941406 C 15.292969 -44.003906 11.886719 -43.765625 10.738281 -41.464844 C 10.066406 -40.167969 10.496094 -38.828125 11.121094 -37.675781 C 11.601562 -36.765625 12.605469 -36.8125 13.46875 -36.765625 Z M 12.414062 -40.695312 C 12.894531 -41.75 14.476562 -41.847656 15.097656 -40.886719 C 15.386719 -40.503906 15.339844 -39.640625 15.003906 -39.210938 C 14.667969 -38.730469 14.1875 -38.539062 13.613281 -38.585938 C 13.230469 -38.585938 12.796875 -38.585938 12.558594 -38.972656 C 12.269531 -39.5 12.078125 -40.121094 12.414062 -40.695312 Z M 21.332031 -4.027344 L 21.28125 -4.027344 C 21.089844 -6.183594 20.851562 -8.292969 20.757812 -10.402344 C 20.324219 -16.824219 19.507812 -23.199219 19.460938 -29.625 C 19.414062 -29.960938 19.269531 -30.296875 19.269531 -30.679688 C 19.269531 -31.972656 18.597656 -32.738281 17.351562 -33.171875 C 16.730469 -33.363281 16.203125 -33.554688 15.578125 -33.171875 C 15.242188 -32.929688 14.765625 -32.546875 14.378906 -32.789062 C 13.375 -33.410156 12.222656 -32.789062 11.3125 -33.125 C 10.59375 -33.410156 10.355469 -33.171875 10.066406 -32.738281 C 9.539062 -31.734375 8.964844 -30.679688 8.484375 -29.625 C 6.136719 -24.351562 3.785156 -19.078125 1.484375 -13.757812 C 0.191406 -10.832031 -1.054688 -7.863281 -2.300781 -4.9375 C -2.972656 -3.453125 -2.828125 -2.925781 -1.4375 -2.109375 C -0.480469 -1.582031 0.480469 -1.152344 1.484375 -0.71875 C 2.445312 -0.289062 2.828125 -0.480469 3.402344 -1.484375 C 3.835938 -2.347656 4.21875 -3.257812 4.648438 -4.171875 C 4.984375 -4.890625 5.320312 -5.609375 5.609375 -6.328125 C 5.800781 -6.664062 5.992188 -7 6.375 -7 C 8.675781 -7.140625 10.976562 -7.71875 13.277344 -7.621094 C 13.949219 -7.621094 14.238281 -7.285156 14.285156 -6.664062 C 14.429688 -5.320312 14.621094 -3.980469 14.714844 -2.683594 C 14.8125 -1.964844 15.148438 -1.535156 15.769531 -1.199219 C 16.585938 -0.816406 17.304688 -0.480469 18.261719 -0.957031 C 18.789062 -1.246094 19.460938 -1.246094 20.085938 -1.34375 C 21.140625 -1.535156 21.332031 -1.726562 21.332031 -2.683594 Z M 12.894531 -14.476562 C 11.648438 -14.332031 10.449219 -13.851562 9.203125 -14.140625 C 9.777344 -16.347656 11.839844 -21.28125 12.558594 -22.195312 C 12.65625 -22.289062 12.894531 -22.242188 13.085938 -22.242188 L 13.660156 -15.578125 C 13.710938 -15.003906 13.566406 -14.523438 12.894531 -14.476562 Z M 12.894531 -14.476562 "/></g></g></g><g fill="#faf0ca" fill-opacity="1"><g transform="translate(248.260028, 201.49481)"><g><path d="M 13.375 -18.167969 C 14.238281 -13.230469 14.957031 -8.292969 14.140625 -3.257812 C 14.09375 -3.019531 14.046875 -2.730469 14.046875 -2.492188 C 14.046875 -1.390625 14.476562 -0.71875 15.484375 -0.527344 C 16.347656 -0.382812 17.257812 -0.429688 18.167969 -0.382812 C 21.28125 -0.289062 21.714844 -0.574219 22.53125 -3.402344 C 24.6875 -11.121094 26.796875 -18.839844 28.953125 -26.605469 C 29.191406 -27.609375 29.382812 -28.664062 29.527344 -29.71875 C 29.671875 -30.582031 29.433594 -31.253906 28.808594 -31.925781 C 27.851562 -32.835938 26.941406 -33.554688 25.550781 -32.980469 C 25.308594 -32.882812 25.023438 -32.691406 24.832031 -32.789062 C 23.96875 -33.171875 23.777344 -32.691406 23.585938 -31.972656 L 20.996094 -22.722656 C 20.757812 -21.90625 20.46875 -21.140625 20.085938 -19.941406 C 19.703125 -20.898438 19.414062 -21.425781 19.222656 -22.003906 C 18.503906 -24.160156 17.496094 -26.125 16.441406 -28.089844 C 15.675781 -29.527344 14.523438 -30.628906 13.375 -31.734375 C 12.558594 -32.546875 11.503906 -32.070312 10.691406 -32.5 C 9.730469 -32.980469 8.820312 -32.738281 7.8125 -32.691406 C 6.710938 -32.644531 6.230469 -32.117188 5.945312 -31.15625 L 3.738281 -23.199219 C 2.398438 -18.121094 1.054688 -13.039062 -0.335938 -7.957031 C -0.625 -6.855469 -0.910156 -5.703125 -1.246094 -4.601562 C -1.390625 -4.074219 -1.199219 -3.691406 -0.863281 -3.402344 C -0.429688 -3.117188 0 -2.683594 0.480469 -2.589844 C 1.535156 -2.398438 2.539062 -2.011719 3.546875 -1.675781 C 4.121094 -1.484375 4.601562 -1.628906 4.839844 -2.253906 C 5.175781 -3.066406 5.558594 -3.882812 5.800781 -4.746094 C 6.949219 -9.203125 8.054688 -13.710938 9.25 -18.214844 C 9.730469 -19.988281 10.304688 -21.761719 10.882812 -23.871094 C 12.222656 -22.050781 12.992188 -20.421875 13.375 -18.167969 Z M 13.375 -18.167969 "/></g></g></g><g fill="#faf0ca" fill-opacity="1"><g transform="translate(275.530545, 201.49481)"><g><path d="M 5.992188 -19.84375 C 7.8125 -19.84375 9.011719 -21.089844 8.964844 -22.863281 C 8.964844 -23.679688 8.675781 -24.445312 8.246094 -25.117188 C 7.285156 -26.554688 5.464844 -26.890625 4.121094 -25.980469 C 3.066406 -25.214844 2.492188 -23.296875 2.925781 -21.859375 C 3.257812 -20.707031 4.601562 -19.84375 5.992188 -19.84375 Z M 4.121094 -8.867188 C 3.066406 -8.148438 2.492188 -6.183594 2.925781 -4.746094 C 3.257812 -3.59375 4.601562 -2.730469 5.992188 -2.730469 C 7.8125 -2.730469 9.011719 -3.980469 8.964844 -5.753906 C 8.964844 -6.566406 8.675781 -7.335938 8.246094 -8.003906 C 7.285156 -9.441406 5.464844 -9.777344 4.121094 -8.867188 Z M 4.121094 -8.867188 "/></g></g></g><path stroke-linecap="butt" transform="matrix(0.766839, 0, 0, 0.766839, 77.663685, 153.950805)" fill="none" stroke-linejoin="miter" d="M 55.285296 20.185315 C 55.16304 19.98665 54.59761 20.06306 54.291972 19.925523 C 53.405623 19.681013 52.723031 20.490953 51.974218 20.368698 C 51.10315 20.30757 50.78223 19.054455 49.72778 18.993327 C 49.167444 18.993327 48.602013 18.748817 48.036583 18.550152 C 47.165515 18.183387 46.47783 18.550152 45.851272 19.17671 C 45.474319 19.619885 45.107553 20.124187 44.786634 20.552081 L 35.780503 33.429624 C 35.276201 34.178437 34.78718 34.92725 34.226844 35.691345 C 34.043461 35.996983 33.722541 36.180366 33.355776 36.05811 C 33.157111 35.996983 32.973728 35.752472 32.973728 35.553808 C 32.469426 31.75371 30.849545 28.18284 29.968289 24.489716 C 29.723779 23.496392 29.097221 22.625324 28.592918 21.677847 C 28.287281 21.056383 27.72185 20.613208 26.978132 20.490953 C 24.915076 20.246443 22.902959 19.74214 20.778776 20.124187 C 19.785453 20.30757 19.347372 20.689618 19.102861 21.555592 C 18.965324 21.998767 18.904197 22.487787 18.781942 22.930962 C 15.654247 34.300692 13.224426 45.930215 9.775811 57.315227 C 9.714684 57.620865 9.592429 57.941784 9.592429 58.30855 C 9.531301 58.507215 9.592429 58.812853 9.714684 58.930014 C 10.601034 59.938619 11.288719 61.313989 12.964633 61.191734 C 13.530064 61.130607 14.156621 61.252862 14.722051 61.436245 C 17.162061 62.062802 17.162061 62.12393 18.155384 59.678827 C 18.537431 58.751725 18.781942 57.681992 19.102861 56.749797 C 20.778776 50.937582 22.093019 44.998019 23.524423 39.124677 C 23.66196 38.559247 23.463296 37.749307 24.533028 37.428387 C 24.777539 38.620375 24.976203 39.751235 25.281841 40.800592 C 26.290446 44.050542 25.786144 47.50425 27.095293 50.631945 C 27.72185 52.063349 28.088616 52.751034 29.479268 52.751034 C 31.21631 52.751034 32.973728 52.491242 34.664925 52.368987 C 35.535993 52.307859 35.902758 51.681301 35.780503 50.876455 C 35.413738 49.119037 36.162551 47.743666 37.293411 46.495645 C 37.721304 46.067752 37.981096 45.563449 38.28164 45.059147 C 40.344696 42.114835 42.34153 39.124677 44.404586 36.180366 C 44.725506 35.752472 44.970016 35.125915 45.596574 35.370425 C 45.352064 35.187042 45.413191 35.00366 45.596574 34.743867 C 45.657702 34.68274 45.851272 34.68274 45.9124 34.68274 C 46.095783 35.064787 45.851272 35.24817 45.596574 35.370425 C 45.474319 36.05811 45.413191 36.740702 45.229809 37.428387 L 40.543361 55.313298 C 39.779266 58.247422 40.161313 58.991141 42.968088 59.938619 C 43.716901 60.122002 44.542123 60.183129 45.352064 60.381794 C 47.975456 60.809687 47.975456 60.809687 48.724269 58.446087 C 48.785396 58.125167 48.846524 57.74312 48.968779 57.437482 C 51.164278 49.119037 53.405623 40.800592 55.606215 32.558556 C 56.232773 30.057419 56.721794 27.556283 57.28213 25.050052 C 57.84756 22.930962 56.095236 21.738974 55.285296 20.185315 Z M 82.665358 56.933179 L 82.604231 56.933179 C 82.344438 54.187532 82.0388 51.436791 81.901263 48.614734 C 81.356209 40.311571 80.286476 31.99822 80.225349 23.618648 C 80.164221 23.175473 79.965557 22.686452 79.965557 22.243277 C 79.965557 20.490953 79.094489 19.49763 77.479702 18.993327 C 76.654479 18.672407 75.966794 18.427897 75.156854 18.993327 C 74.652551 19.298965 74.087121 19.74214 73.603194 19.436502 C 72.288951 18.672407 70.776044 19.49763 69.604432 19.054455 C 68.595826 18.672407 68.351316 18.9322 67.969269 19.558757 C 67.281583 20.873 66.532771 22.182149 65.911307 23.55752 C 62.839646 30.439467 59.773079 37.367259 56.782921 44.249206 L 51.775554 55.802319 C 50.970707 57.74312 51.15409 58.446087 52.967542 59.495444 C 54.220657 60.183129 55.468678 60.748559 56.782921 61.252862 C 58.036037 61.818292 58.540339 61.619627 59.222931 60.244257 C 59.849488 59.128678 60.338509 57.941784 60.842812 56.810924 L 62.157055 53.943022 C 62.340437 53.499847 62.656263 53.1178 63.160566 53.056672 C 66.155817 52.934417 69.100129 52.124476 72.151414 52.246731 C 73.037764 52.307859 73.40453 52.689906 73.480939 53.560974 L 74.025993 58.751725 C 74.16353 59.617699 74.591423 60.244257 75.401364 60.626304 C 76.471097 61.191734 77.418574 61.5585 78.651314 60.931942 C 79.354281 60.565177 80.225349 60.626304 81.035289 60.504049 C 82.405566 60.183129 82.604231 59.999746 82.665358 58.690597 Z M 71.906904 33.246242 L 72.655717 41.870325 C 72.716844 42.680265 72.533462 43.245695 71.662393 43.36795 C 70.032325 43.566615 68.473571 44.188079 66.838409 43.749998 C 67.587221 40.938129 70.287023 34.438229 71.219219 33.307369 C 71.341474 33.185114 71.662393 33.246242 71.906904 33.246242 Z M 97.534642 37.245004 C 96.103238 43.811125 94.529203 50.372152 93.092705 56.933179 C 92.787067 58.30855 93.092705 59.250934 94.34582 59.755236 C 95.782318 60.381794 97.35126 60.870814 98.910013 61.313989 C 100.040873 61.696037 100.601209 61.375117 101.029102 60.183129 C 101.533405 58.87398 101.97658 57.49861 102.282218 56.184367 C 103.35195 51.31963 104.279052 46.37339 105.348785 41.503559 C 106.28098 37.428387 107.228458 33.368497 108.216687 29.308607 C 108.598734 27.678538 108.782117 27.556283 110.600663 27.434027 C 112.597497 27.311772 114.538298 27.311772 116.535132 27.189517 C 118.659316 27.05198 119.158524 26.624087 119.341907 24.489716 C 119.464162 22.99209 119.280779 21.494464 119.280779 19.98665 C 119.280779 19.054455 118.659316 18.748817 117.910503 18.748817 C 115.282017 18.748817 112.597497 18.809944 109.912977 18.871072 C 104.90561 18.9322 99.903336 19.054455 94.91125 18.9322 C 92.410113 18.871072 91.661301 20.490953 91.279253 22.625324 C 91.156998 23.31301 91.340381 24.000695 91.401508 24.749508 C 91.539045 27.250645 91.783556 27.495155 94.223565 27.61741 C 94.91125 27.61741 95.598936 27.495155 96.286621 27.434027 C 97.27485 27.434027 98.344583 27.189517 99.475443 27.739665 C 98.848885 30.86736 98.283455 34.056182 97.534642 37.245004 Z M 148.036212 29.874037 C 148.280723 29.048814 148.785025 28.74827 149.533838 28.74827 C 151.5918 28.687143 153.715983 28.687143 155.789227 28.564888 C 156.965933 28.564888 158.0917 28.50376 159.283687 28.243968 C 160.414548 28.060585 161.041105 27.311772 161.102233 26.058657 C 161.16336 25.050052 161.102233 24.000695 161.102233 22.930962 C 161.16336 19.925523 161.041105 19.74214 158.0917 19.74214 C 157.470236 19.74214 156.904806 19.864395 156.354657 19.803268 C 152.783788 19.558757 149.2282 20.873 145.657331 19.681013 C 145.41282 19.558757 144.969645 19.803268 144.725135 19.98665 C 144.159705 20.246443 143.655402 20.429825 143.028845 20.368698 C 142.162871 20.185315 141.780823 20.750745 141.59744 21.433337 C 140.909755 23.55752 140.160942 25.676609 139.595512 27.739665 C 136.910993 36.801829 134.287601 45.80796 131.659115 54.875217 C 131.46045 55.557809 131.338195 56.245494 131.159906 56.872052 C 130.777859 58.568342 131.720242 59.434316 132.973358 59.816364 C 134.470983 60.244257 136.08577 60.565177 137.659805 60.870814 C 138.286363 60.99307 138.846699 60.809687 139.030082 60.122002 C 139.213465 59.556571 139.473257 58.991141 139.595512 58.507215 C 140.7875 54.936345 141.903078 51.375663 143.028845 47.804794 C 143.655402 45.746832 143.71653 45.746832 145.901841 45.563449 L 147.654165 45.563449 L 155.284925 44.814636 C 156.415785 44.677099 157.042343 44.126951 157.042343 43.062312 C 157.10347 41.304894 157.042343 39.567852 156.904806 37.871562 C 156.78255 36.862957 156.278248 36.435064 155.223797 36.496191 C 152.340613 36.557319 149.472711 36.679574 146.222761 36.801829 C 146.599714 34.300692 147.2874 32.059348 148.036212 29.874037 Z M 170.342686 18.748817 C 166.527306 19.558757 166.023003 20.185315 164.912519 24.061823 L 164.713854 25.050052 L 158.147733 47.122203 C 157.098376 50.555535 156.028644 54.004149 154.897783 57.376354 C 154.531018 58.446087 154.775528 59.189806 155.524341 59.877491 C 156.212026 60.504049 157.037249 60.99307 157.96435 61.130607 C 158.896546 61.313989 159.782896 61.619627 160.653964 61.87942 C 162.024241 62.307313 162.222905 62.246185 162.773053 61.069479 C 164.408216 57.055435 165.396445 52.873289 166.710688 48.813399 C 167.337246 46.93882 167.276119 46.93882 169.033537 46.816565 C 169.593873 46.816565 170.159303 46.755437 170.724733 46.755437 C 171.412418 46.755437 171.840311 47.122203 172.100104 47.682539 C 172.344614 48.186841 172.527997 48.752271 172.787789 49.241292 L 177.652526 60.809687 C 178.340211 62.383722 179.348816 62.806521 180.963603 62.383722 C 181.406778 62.246185 181.849953 62.001675 182.277846 61.818292 C 187.606133 59.312061 186.918448 60.748559 184.901238 55.557809 C 184.656728 54.936345 184.35109 54.309787 184.035264 53.68323 C 183.041941 51.31963 182.033336 48.996782 181.10114 46.6179 C 180.219884 44.493717 180.281012 44.493717 182.155591 43.36795 C 182.659893 43.062312 183.164196 42.817802 183.592089 42.496882 C 187.789516 39.491443 190.535163 35.614935 191.100593 30.439467 C 191.666024 25.111179 188.227597 19.237838 182.476511 18.244514 C 180.963603 17.984722 179.471071 17.862467 177.973445 17.679084 C 175.411181 17.679084 172.848916 18.183387 170.342686 18.748817 Z M 180.418549 33.872799 C 178.600003 35.614935 176.542041 36.740702 174.158065 37.367259 C 172.966078 37.688179 171.595801 38.803758 170.587196 37.627052 C 169.899511 36.801829 170.846988 35.431553 171.152626 34.377102 C 171.656929 32.364986 172.222359 30.363057 172.726661 28.305095 C 172.966078 27.311772 173.592635 26.80747 174.662368 26.746342 C 176.542041 26.624087 178.340211 26.364295 180.219884 26.685215 C 181.727698 26.990852 182.415383 27.678538 182.415383 29.308607 C 182.338973 31.050743 181.727698 32.619684 180.418549 33.872799 Z M 208.282538 14.047087 C 209.902419 14.108215 211.287977 13.624288 212.220173 12.248917 C 213.152368 10.934674 213.351033 8.433538 212.541093 7.302677 C 210.661419 4.618158 206.224576 4.923796 204.72695 7.929235 C 203.8406 9.625525 204.40603 11.362567 205.215971 12.875475 C 205.842528 14.047087 207.151678 13.98596 208.282538 14.047087 Z M 206.907167 8.93784 C 207.533725 7.547188 209.596781 7.424932 210.406721 8.678048 C 210.783675 9.18235 210.722547 10.308117 210.284466 10.858265 C 209.841291 11.484823 209.214733 11.744615 208.465921 11.683487 C 207.961618 11.683487 207.41147 11.683487 207.09055 11.179185 C 206.723784 10.491499 206.469086 9.686653 206.907167 8.93784 Z M 218.53669 56.749797 L 218.475562 56.749797 C 218.21577 53.943022 217.915226 51.182093 217.792971 48.431352 C 217.227541 40.056873 216.157808 31.75371 216.09668 23.374137 C 216.035553 22.930962 215.85217 22.487787 215.85217 21.998767 C 215.85217 20.30757 214.96582 19.298965 213.351033 18.748817 C 212.541093 18.489025 211.838125 18.244514 211.028185 18.748817 C 210.600292 19.054455 209.978828 19.558757 209.474526 19.237838 C 208.160283 18.427897 206.652469 19.237838 205.475763 18.809944 C 204.528285 18.427897 204.222648 18.748817 203.8406 19.298965 C 203.152915 20.613208 202.409196 21.998767 201.782638 23.374137 C 198.716071 30.240802 195.659692 37.122749 192.654253 44.050542 C 190.963056 47.865921 189.343175 51.742429 187.713107 55.557809 C 186.842039 57.49861 187.025421 58.186295 188.838873 59.250934 C 190.091988 59.938619 191.345104 60.504049 192.654253 61.069479 C 193.907368 61.619627 194.411671 61.375117 195.160484 60.060874 C 195.72082 58.930014 196.20984 57.74312 196.775271 56.566414 C 197.218446 55.618936 197.661621 54.691835 198.028386 53.744357 C 198.288178 53.316464 198.532689 52.873289 199.036991 52.873289 C 202.027149 52.689906 205.032588 51.941094 208.038027 52.063349 C 208.909095 52.063349 209.291143 52.491242 209.35227 53.316464 C 209.535653 55.0586 209.780164 56.810924 209.902419 58.507215 C 210.039956 59.434316 210.462755 59.999746 211.287977 60.442921 C 212.342428 60.931942 213.289905 61.375117 214.537927 60.748559 C 215.225612 60.381794 216.09668 60.381794 216.906621 60.244257 C 218.276897 59.999746 218.53669 59.755236 218.53669 58.507215 Z M 207.533725 43.12344 C 205.903656 43.306823 204.344903 43.928286 202.714834 43.566615 C 203.473835 40.678337 206.163448 34.239565 207.09055 33.062859 C 207.212805 32.925322 207.533725 32.986449 207.778235 32.986449 L 208.527048 41.686942 C 208.588176 42.435755 208.404793 43.062312 207.533725 43.12344 Z M 239.910967 38.314737 C 241.041827 44.753509 241.968929 51.182093 240.90429 57.74312 C 240.843163 58.06404 240.782035 58.446087 240.782035 58.751725 C 240.782035 60.183129 241.347465 61.069479 242.656614 61.313989 C 243.787475 61.497372 244.979462 61.436245 246.151074 61.497372 C 250.226246 61.619627 250.776395 61.252862 251.846127 57.559737 C 254.652902 47.50425 257.413831 37.428387 260.2257 27.311772 C 260.526244 25.997529 260.786036 24.627253 260.969419 23.2366 C 261.152802 22.121022 260.847164 21.239766 260.042317 20.368698 C 258.789202 19.17671 257.597214 18.244514 255.783762 18.993327 C 255.478125 19.115582 255.096077 19.375375 254.851567 19.237838 C 253.720707 18.748817 253.476196 19.375375 253.216404 20.30757 L 249.844199 32.364986 C 249.538561 33.429624 249.156514 34.438229 248.657305 35.996983 C 248.153003 34.743867 247.786237 34.056182 247.526445 33.307369 C 246.594249 30.500594 245.2851 27.93833 243.90973 25.370972 C 242.901125 23.496392 241.408593 22.059894 239.910967 20.613208 C 238.841234 19.558757 237.470958 20.185315 236.401225 19.619885 C 235.14811 18.993327 233.976498 19.298965 232.662255 19.375375 C 231.210475 19.436502 230.583917 20.124187 230.222246 21.372209 L 227.333967 31.75371 C 225.596925 38.375864 223.839507 44.998019 222.026056 51.620174 C 221.65929 53.056672 221.277243 54.56958 220.84935 56.000984 C 220.650685 56.688669 220.910477 57.192972 221.33837 57.559737 C 221.9038 57.941784 222.469231 58.507215 223.090694 58.62947 C 224.466065 58.87398 225.780308 59.373189 227.089457 59.816364 C 227.83827 60.060874 228.464828 59.877491 228.785747 59.052269 C 229.21364 58.002912 229.717943 56.933179 230.038863 55.802319 C 231.531395 50.005387 232.967893 44.126951 234.536834 38.253609 C 235.14811 35.935855 235.912205 33.613007 236.661017 30.86736 C 238.39806 33.246242 239.406665 35.370425 239.910967 38.314737 Z M 265.844344 36.119238 C 268.223225 36.119238 269.781979 34.499357 269.720851 32.181603 C 269.720851 31.127152 269.338804 30.118547 268.788655 29.247479 C 267.53554 27.3729 265.156658 26.929725 263.39924 28.121713 C 262.028964 29.125224 261.280151 31.616173 261.845581 33.490752 C 262.288756 35.00366 264.025798 36.119238 265.844344 36.119238 Z M 263.39924 50.43328 C 262.028964 51.375663 261.280151 53.943022 261.845581 55.802319 C 262.288756 57.315227 264.025798 58.446087 265.844344 58.446087 C 268.223225 58.446087 269.781979 56.810924 269.720851 54.49317 C 269.720851 53.438719 269.338804 52.430114 268.788655 51.559046 C 267.53554 49.684467 265.156658 49.241292 263.39924 50.43328 Z M 263.39924 50.43328 " stroke="#0d3b66" stroke-width="0.429773" stroke-opacity="1" stroke-miterlimit="4"/></svg>