<svg xmlns="http://www.w3.org/2000/svg" xmlns:xlink="http://www.w3.org/1999/xlink" width="500" zoomAndPan="magnify" viewBox="0 0 375 374.999991" height="500" preserveAspectRatio="xMidYMid meet" version="1.0"><defs><g/><clipPath id="d1db3b1254"><path d="M 9 147 L 366.617188 147 L 366.617188 212.796875 L 9 212.796875 Z M 9 147 " clip-rule="nonzero"/></clipPath></defs><g clip-path="url(#d1db3b1254)"><path fill="#faf0ca" d="M 16.171875 156.644531 C 5.589844 160.15625 9.84375 190.246094 11.984375 195.980469 C 14.667969 203.167969 24.597656 206.832031 31.257812 208.6875 C 50.359375 214 71.140625 211.476562 90.710938 212.675781 C 108.503906 213.761719 126.335938 212.871094 144.152344 213.300781 C 187.265625 214.339844 230.054688 214.566406 273.195312 213.632812 C 292.230469 213.21875 349.5625 216.15625 356.71875 212.863281 C 360.738281 211.015625 363.003906 205.875 364.417969 201.996094 C 367.609375 193.234375 370.410156 165.957031 361.875 158.871094 C 353.753906 152.132812 341.824219 150.925781 331.820312 149.273438 C 311.914062 145.988281 212.699219 148.464844 183.058594 152.363281 C 162.917969 155.011719 34.585938 150.53125 16.171875 156.644531 Z M 16.171875 156.644531 " fill-opacity="1" fill-rule="evenodd"/></g><g fill="#6a040f" fill-opacity="1"><g transform="translate(86.554222, 201.49481)"><g><path d="M 33.554688 -32.070312 C 33.457031 -32.210938 33.027344 -32.164062 32.789062 -32.261719 C 32.117188 -32.453125 31.589844 -31.828125 31.015625 -31.925781 C 30.34375 -31.972656 30.101562 -32.929688 29.289062 -32.980469 C 28.855469 -32.980469 28.425781 -33.171875 27.992188 -33.316406 C 27.324219 -33.601562 26.796875 -33.316406 26.363281 -32.835938 C 26.027344 -32.5 25.742188 -32.117188 25.5 -31.78125 C 23.199219 -28.472656 20.898438 -25.214844 18.648438 -21.90625 L 17.402344 -20.179688 C 17.257812 -19.941406 17.015625 -19.796875 16.730469 -19.894531 C 16.585938 -19.941406 16.488281 -20.132812 16.441406 -20.277344 C 16.058594 -23.199219 14.8125 -25.933594 14.140625 -28.761719 C 13.949219 -29.527344 13.46875 -30.199219 13.085938 -30.917969 C 12.847656 -31.398438 12.414062 -31.734375 11.839844 -31.828125 C 10.257812 -32.019531 8.722656 -32.402344 7.09375 -32.117188 C 6.328125 -31.972656 5.992188 -31.683594 5.800781 -31.015625 C 5.703125 -30.679688 5.703125 -30.296875 5.609375 -29.960938 C 3.164062 -21.234375 1.292969 -12.320312 -1.34375 -3.59375 C -1.390625 -3.355469 -1.484375 -3.117188 -1.484375 -2.828125 C -1.535156 -2.683594 -1.484375 -2.445312 -1.390625 -2.347656 C -0.71875 -1.582031 -0.191406 -0.527344 1.152344 -0.625 C 1.582031 -0.671875 2.011719 -0.574219 2.445312 -0.429688 C 4.3125 0.046875 4.363281 0.0976562 5.082031 -1.773438 C 5.367188 -2.492188 5.558594 -3.308594 5.800781 -4.027344 C 7.140625 -8.484375 8.101562 -13.039062 9.203125 -17.542969 C 9.300781 -17.976562 9.15625 -18.597656 9.96875 -18.839844 C 10.164062 -17.925781 10.304688 -17.066406 10.546875 -16.25 C 11.3125 -13.757812 10.929688 -11.121094 11.9375 -8.722656 C 12.414062 -7.621094 12.703125 -7.09375 13.757812 -7.09375 C 15.097656 -7.09375 16.441406 -7.285156 17.734375 -7.382812 C 18.40625 -7.429688 18.742188 -7.910156 18.597656 -8.53125 C 18.3125 -9.875 18.886719 -10.929688 19.75 -11.886719 C 20.085938 -12.222656 20.277344 -12.605469 20.515625 -12.992188 C 22.097656 -15.242188 23.632812 -17.542969 25.214844 -19.796875 C 25.453125 -20.132812 25.644531 -20.613281 26.125 -20.421875 C 25.933594 -20.5625 25.980469 -20.707031 26.171875 -20.898438 C 26.171875 -20.949219 26.316406 -20.949219 26.363281 -20.949219 C 26.507812 -20.660156 26.316406 -20.515625 26.125 -20.421875 C 26.027344 -19.894531 25.980469 -19.367188 25.886719 -18.839844 L 22.242188 -5.128906 C 21.667969 -2.875 21.953125 -2.300781 24.113281 -1.582031 C 24.6875 -1.4375 25.308594 -1.390625 25.933594 -1.246094 C 27.945312 -0.910156 27.945312 -0.910156 28.519531 -2.730469 C 28.570312 -2.972656 28.617188 -3.257812 28.714844 -3.5 C 30.390625 -9.875 32.117188 -16.25 33.792969 -22.578125 C 34.273438 -24.496094 34.65625 -26.414062 35.089844 -28.328125 C 35.519531 -29.960938 34.175781 -30.871094 33.554688 -32.070312 Z M 33.554688 -32.070312 "/></g></g></g><g fill="#6a040f" fill-opacity="1"><g transform="translate(119.767737, 201.49481)"><g><path d="M 21.28125 -3.882812 L 21.234375 -3.882812 C 21.042969 -5.992188 20.804688 -8.101562 20.707031 -10.257812 C 20.277344 -16.632812 19.460938 -23.007812 19.414062 -29.433594 C 19.367188 -29.769531 19.222656 -30.152344 19.222656 -30.488281 C 19.222656 -31.828125 18.550781 -32.597656 17.304688 -32.980469 C 16.679688 -33.21875 16.152344 -33.410156 15.53125 -32.980469 C 15.148438 -32.738281 14.714844 -32.402344 14.332031 -32.644531 C 13.324219 -33.21875 12.175781 -32.597656 11.265625 -32.929688 C 10.496094 -33.21875 10.304688 -33.027344 10.019531 -32.546875 C 9.492188 -31.542969 8.914062 -30.535156 8.4375 -29.480469 C 6.085938 -24.207031 3.738281 -18.886719 1.4375 -13.613281 L -2.398438 -4.746094 C -3.019531 -3.257812 -2.875 -2.730469 -1.484375 -1.917969 C -0.527344 -1.390625 0.429688 -0.957031 1.4375 -0.574219 C 2.398438 -0.144531 2.78125 -0.289062 3.308594 -1.34375 C 3.785156 -2.203125 4.171875 -3.117188 4.554688 -3.980469 L 5.558594 -6.183594 C 5.703125 -6.519531 5.945312 -6.808594 6.328125 -6.855469 C 8.628906 -6.949219 10.882812 -7.574219 13.230469 -7.476562 C 13.902344 -7.429688 14.1875 -7.140625 14.238281 -6.472656 L 14.667969 -2.492188 C 14.765625 -1.820312 15.097656 -1.34375 15.722656 -1.054688 C 16.539062 -0.625 17.257812 -0.335938 18.214844 -0.816406 C 18.742188 -1.101562 19.414062 -1.054688 20.035156 -1.152344 C 21.089844 -1.390625 21.234375 -1.535156 21.28125 -2.539062 Z M 13.039062 -22.050781 L 13.613281 -15.433594 C 13.660156 -14.8125 13.519531 -14.378906 12.847656 -14.285156 C 11.601562 -14.140625 10.402344 -13.660156 9.15625 -13.996094 C 9.730469 -16.152344 11.792969 -21.140625 12.511719 -22.003906 C 12.605469 -22.097656 12.847656 -22.050781 13.039062 -22.050781 Z M 13.039062 -22.050781 "/></g></g></g><g fill="#6a040f" fill-opacity="1"><g transform="translate(144.06675, 201.49481)"><g><path d="M 8.386719 -18.980469 C 7.285156 -13.949219 6.085938 -8.914062 4.984375 -3.882812 C 4.746094 -2.828125 4.984375 -2.109375 5.945312 -1.726562 C 7.046875 -1.246094 8.246094 -0.863281 9.441406 -0.527344 C 10.304688 -0.238281 10.738281 -0.480469 11.074219 -1.390625 C 11.457031 -2.398438 11.792969 -3.453125 12.03125 -4.457031 C 12.847656 -8.195312 13.566406 -11.984375 14.378906 -15.722656 C 15.097656 -18.839844 15.820312 -21.953125 16.585938 -25.070312 C 16.875 -26.316406 17.015625 -26.414062 18.40625 -26.507812 C 19.941406 -26.605469 21.425781 -26.605469 22.960938 -26.699219 C 24.589844 -26.796875 24.972656 -27.132812 25.117188 -28.761719 C 25.214844 -29.910156 25.070312 -31.0625 25.070312 -32.210938 C 25.070312 -32.929688 24.589844 -33.171875 24.015625 -33.171875 C 22.003906 -33.171875 19.941406 -33.125 17.878906 -33.074219 C 14.046875 -33.027344 10.210938 -32.929688 6.375 -33.027344 C 4.457031 -33.074219 3.882812 -31.828125 3.59375 -30.199219 C 3.5 -29.671875 3.644531 -29.144531 3.691406 -28.570312 C 3.785156 -26.652344 3.980469 -26.460938 5.847656 -26.363281 C 6.375 -26.363281 6.902344 -26.460938 7.429688 -26.507812 C 8.195312 -26.507812 9.011719 -26.699219 9.875 -26.269531 C 9.394531 -23.871094 8.964844 -21.425781 8.386719 -18.980469 Z M 8.386719 -18.980469 "/></g></g></g><g fill="#6a040f" fill-opacity="1"><g transform="translate(164.819132, 201.49481)"><g/></g></g><g fill="#6a040f" fill-opacity="1"><g transform="translate(179.820228, 201.49481)"><g><path d="M 11.359375 -24.636719 C 11.550781 -25.261719 11.9375 -25.5 12.511719 -25.5 C 14.09375 -25.550781 15.722656 -25.550781 17.304688 -25.644531 C 18.214844 -25.644531 19.078125 -25.691406 19.988281 -25.886719 C 20.898438 -26.027344 21.332031 -26.605469 21.378906 -27.5625 C 21.425781 -28.328125 21.378906 -29.144531 21.378906 -29.960938 C 21.425781 -32.261719 21.332031 -32.402344 19.078125 -32.402344 C 18.597656 -32.402344 18.167969 -32.308594 17.734375 -32.355469 C 15.003906 -32.546875 12.269531 -31.542969 9.539062 -32.453125 C 9.347656 -32.546875 9.011719 -32.355469 8.820312 -32.210938 C 8.4375 -32.019531 8.003906 -31.875 7.527344 -31.925781 C 6.855469 -32.070312 6.566406 -31.636719 6.421875 -31.109375 C 5.894531 -29.480469 5.367188 -27.851562 4.890625 -26.269531 C 2.828125 -19.316406 0.816406 -12.414062 -1.199219 -5.464844 C -1.34375 -4.9375 -1.4375 -4.410156 -1.582031 -3.929688 C -1.871094 -2.636719 -1.152344 -1.964844 -0.191406 -1.675781 C 0.957031 -1.34375 2.203125 -1.101562 3.453125 -0.863281 C 3.882812 -0.765625 4.3125 -0.910156 4.457031 -1.4375 C 4.601562 -1.871094 4.792969 -2.300781 4.9375 -2.683594 L 7.527344 -10.882812 C 8.054688 -12.464844 8.054688 -12.464844 9.730469 -12.605469 L 11.074219 -12.605469 L 16.921875 -13.183594 C 17.785156 -13.277344 18.261719 -13.710938 18.261719 -14.523438 C 18.3125 -15.867188 18.261719 -17.207031 18.167969 -18.503906 C 18.070312 -19.269531 17.6875 -19.605469 16.875 -19.558594 C 14.667969 -19.507812 12.464844 -19.414062 9.96875 -19.316406 C 10.257812 -21.234375 10.785156 -22.960938 11.359375 -24.636719 Z M 11.359375 -24.636719 "/></g></g></g><g fill="#6a040f" fill-opacity="1"><g transform="translate(198.224172, 201.49481)"><g><path d="M 10.019531 -33.171875 C 7.09375 -32.546875 6.710938 -32.070312 5.847656 -29.097656 L 5.703125 -28.328125 L 0.671875 -11.410156 C -0.144531 -8.773438 -0.957031 -6.136719 -1.820312 -3.546875 C -2.109375 -2.730469 -1.917969 -2.15625 -1.34375 -1.628906 C -0.816406 -1.152344 -0.191406 -0.765625 0.527344 -0.671875 C 1.246094 -0.527344 1.917969 -0.289062 2.589844 -0.0976562 C 3.644531 0.238281 3.785156 0.191406 4.21875 -0.71875 C 5.464844 -3.785156 6.230469 -7 7.238281 -10.113281 C 7.71875 -11.550781 7.667969 -11.550781 9.011719 -11.648438 C 9.441406 -11.648438 9.875 -11.695312 10.304688 -11.695312 C 10.832031 -11.695312 11.167969 -11.410156 11.359375 -10.976562 C 11.550781 -10.59375 11.695312 -10.164062 11.886719 -9.777344 L 15.625 -0.910156 C 16.152344 0.289062 16.921875 0.625 18.167969 0.289062 C 18.503906 0.191406 18.839844 0 19.175781 -0.144531 C 23.25 -2.0625 22.722656 -0.957031 21.1875 -4.9375 C 20.996094 -5.417969 20.757812 -5.894531 20.515625 -6.375 C 19.75 -8.195312 18.980469 -9.96875 18.261719 -11.792969 C 17.59375 -13.421875 17.640625 -13.421875 19.078125 -14.285156 C 19.460938 -14.523438 19.84375 -14.714844 20.179688 -14.957031 C 23.390625 -17.257812 25.5 -20.230469 25.933594 -24.207031 C 26.363281 -28.28125 23.726562 -32.789062 19.316406 -33.554688 C 18.167969 -33.746094 17.015625 -33.84375 15.867188 -33.984375 C 13.902344 -33.984375 11.9375 -33.601562 10.019531 -33.171875 Z M 17.734375 -21.570312 C 16.347656 -20.230469 14.765625 -19.367188 12.941406 -18.886719 C 12.03125 -18.648438 10.976562 -17.785156 10.210938 -18.695312 C 9.683594 -19.316406 10.402344 -20.371094 10.640625 -21.1875 C 11.023438 -22.722656 11.457031 -24.253906 11.839844 -25.835938 C 12.03125 -26.605469 12.511719 -26.988281 13.324219 -27.035156 C 14.765625 -27.132812 16.152344 -27.324219 17.59375 -27.082031 C 18.742188 -26.84375 19.269531 -26.316406 19.269531 -25.070312 C 19.222656 -23.726562 18.742188 -22.53125 17.734375 -21.570312 Z M 17.734375 -21.570312 "/></g></g></g><g fill="#6a040f" fill-opacity="1"><g transform="translate(223.865157, 201.49481)"><g><path d="M 13.46875 -36.765625 C 14.714844 -36.71875 15.769531 -37.101562 16.488281 -38.15625 C 17.207031 -39.164062 17.351562 -41.082031 16.730469 -41.941406 C 15.292969 -44.003906 11.886719 -43.765625 10.738281 -41.464844 C 10.066406 -40.167969 10.496094 -38.828125 11.121094 -37.675781 C 11.601562 -36.765625 12.605469 -36.8125 13.46875 -36.765625 Z M 12.414062 -40.695312 C 12.894531 -41.75 14.476562 -41.847656 15.097656 -40.886719 C 15.386719 -40.503906 15.339844 -39.640625 15.003906 -39.210938 C 14.667969 -38.730469 14.1875 -38.539062 13.613281 -38.585938 C 13.230469 -38.585938 12.796875 -38.585938 12.558594 -38.972656 C 12.269531 -39.5 12.078125 -40.121094 12.414062 -40.695312 Z M 21.332031 -4.027344 L 21.28125 -4.027344 C 21.089844 -6.183594 20.851562 -8.292969 20.757812 -10.402344 C 20.324219 -16.824219 19.507812 -23.199219 19.460938 -29.625 C 19.414062 -29.960938 19.269531 -30.296875 19.269531 -30.679688 C 19.269531 -31.972656 18.597656 -32.738281 17.351562 -33.171875 C 16.730469 -33.363281 16.203125 -33.554688 15.578125 -33.171875 C 15.242188 -32.929688 14.765625 -32.546875 14.378906 -32.789062 C 13.375 -33.410156 12.222656 -32.789062 11.3125 -33.125 C 10.59375 -33.410156 10.355469 -33.171875 10.066406 -32.738281 C 9.539062 -31.734375 8.964844 -30.679688 8.484375 -29.625 C 6.136719 -24.351562 3.785156 -19.078125 1.484375 -13.757812 C 0.191406 -10.832031 -1.054688 -7.863281 -2.300781 -4.9375 C -2.972656 -3.453125 -2.828125 -2.925781 -1.4375 -2.109375 C -0.480469 -1.582031 0.480469 -1.152344 1.484375 -0.71875 C 2.445312 -0.289062 2.828125 -0.480469 3.402344 -1.484375 C 3.835938 -2.347656 4.21875 -3.257812 4.648438 -4.171875 C 4.984375 -4.890625 5.320312 -5.609375 5.609375 -6.328125 C 5.800781 -6.664062 5.992188 -7 6.375 -7 C 8.675781 -7.140625 10.976562 -7.71875 13.277344 -7.621094 C 13.949219 -7.621094 14.238281 -7.285156 14.285156 -6.664062 C 14.429688 -5.320312 14.621094 -3.980469 14.714844 -2.683594 C 14.8125 -1.964844 15.148438 -1.535156 15.769531 -1.199219 C 16.585938 -0.816406 17.304688 -0.480469 18.261719 -0.957031 C 18.789062 -1.246094 19.460938 -1.246094 20.085938 -1.34375 C 21.140625 -1.535156 21.332031 -1.726562 21.332031 -2.683594 Z M 12.894531 -14.476562 C 11.648438 -14.332031 10.449219 -13.851562 9.203125 -14.140625 C 9.777344 -16.347656 11.839844 -21.28125 12.558594 -22.195312 C 12.65625 -22.289062 12.894531 -22.242188 13.085938 -22.242188 L 13.660156 -15.578125 C 13.710938 -15.003906 13.566406 -14.523438 12.894531 -14.476562 Z M 12.894531 -14.476562 "/></g></g></g><g fill="#6a040f" fill-opacity="1"><g transform="translate(248.212101, 201.49481)"><g><path d="M 13.375 -18.167969 C 14.238281 -13.230469 14.957031 -8.292969 14.140625 -3.257812 C 14.09375 -3.019531 14.046875 -2.730469 14.046875 -2.492188 C 14.046875 -1.390625 14.476562 -0.71875 15.484375 -0.527344 C 16.347656 -0.382812 17.257812 -0.429688 18.167969 -0.382812 C 21.28125 -0.289062 21.714844 -0.574219 22.53125 -3.402344 C 24.6875 -11.121094 26.796875 -18.839844 28.953125 -26.605469 C 29.191406 -27.609375 29.382812 -28.664062 29.527344 -29.71875 C 29.671875 -30.582031 29.433594 -31.253906 28.808594 -31.925781 C 27.851562 -32.835938 26.941406 -33.554688 25.550781 -32.980469 C 25.308594 -32.882812 25.023438 -32.691406 24.832031 -32.789062 C 23.96875 -33.171875 23.777344 -32.691406 23.585938 -31.972656 L 20.996094 -22.722656 C 20.757812 -21.90625 20.46875 -21.140625 20.085938 -19.941406 C 19.703125 -20.898438 19.414062 -21.425781 19.222656 -22.003906 C 18.503906 -24.160156 17.496094 -26.125 16.441406 -28.089844 C 15.675781 -29.527344 14.523438 -30.628906 13.375 -31.734375 C 12.558594 -32.546875 11.503906 -32.070312 10.691406 -32.5 C 9.730469 -32.980469 8.820312 -32.738281 7.8125 -32.691406 C 6.710938 -32.644531 6.230469 -32.117188 5.945312 -31.15625 L 3.738281 -23.199219 C 2.398438 -18.121094 1.054688 -13.039062 -0.335938 -7.957031 C -0.625 -6.855469 -0.910156 -5.703125 -1.246094 -4.601562 C -1.390625 -4.074219 -1.199219 -3.691406 -0.863281 -3.402344 C -0.429688 -3.117188 0 -2.683594 0.480469 -2.589844 C 1.535156 -2.398438 2.539062 -2.011719 3.546875 -1.675781 C 4.121094 -1.484375 4.601562 -1.628906 4.839844 -2.253906 C 5.175781 -3.066406 5.558594 -3.882812 5.800781 -4.746094 C 6.949219 -9.203125 8.054688 -13.710938 9.25 -18.214844 C 9.730469 -19.988281 10.304688 -21.761719 10.882812 -23.871094 C 12.222656 -22.050781 12.992188 -20.421875 13.375 -18.167969 Z M 13.375 -18.167969 "/></g></g></g><g fill="#6a040f" fill-opacity="1"><g transform="translate(275.482618, 201.49481)"><g><path d="M 5.992188 -19.84375 C 7.8125 -19.84375 9.011719 -21.089844 8.964844 -22.863281 C 8.964844 -23.679688 8.675781 -24.445312 8.246094 -25.117188 C 7.285156 -26.554688 5.464844 -26.890625 4.121094 -25.980469 C 3.066406 -25.214844 2.492188 -23.296875 2.925781 -21.859375 C 3.257812 -20.707031 4.601562 -19.84375 5.992188 -19.84375 Z M 4.121094 -8.867188 C 3.066406 -8.148438 2.492188 -6.183594 2.925781 -4.746094 C 3.257812 -3.59375 4.601562 -2.730469 5.992188 -2.730469 C 7.8125 -2.730469 9.011719 -3.980469 8.964844 -5.753906 C 8.964844 -6.566406 8.675781 -7.335938 8.246094 -8.003906 C 7.285156 -9.441406 5.464844 -9.777344 4.121094 -8.867188 Z M 4.121094 -8.867188 "/></g></g></g><path stroke-linecap="butt" transform="matrix(0.766839, 0, 0, 0.766839, 77.663685, 153.950805)" fill="none" stroke-linejoin="miter" d="M 55.346423 20.185315 C 55.224168 19.98665 54.658738 20.06306 54.358194 19.925523 C 53.471844 19.681013 52.784159 20.490953 52.035346 20.368698 C 51.164278 20.30757 50.843358 19.054455 49.794001 18.993327 C 49.228571 18.993327 48.663141 18.748817 48.097711 18.550152 C 47.226643 18.183387 46.544052 18.550152 45.978621 19.17671 C 45.535446 19.619885 45.168681 20.124187 44.847761 20.552081 C 41.842322 24.871763 38.852164 29.125224 35.902758 33.429624 L 34.287971 35.691345 C 34.104589 35.996983 33.783669 36.180366 33.416903 36.05811 C 33.218239 35.996983 33.095984 35.752472 33.034856 35.553808 C 32.530553 31.75371 30.915767 28.18284 30.029417 24.489716 C 29.784906 23.496392 29.158349 22.625324 28.654046 21.677847 C 28.348408 21.056383 27.788072 20.613208 27.039259 20.490953 C 24.976203 20.246443 22.964087 19.74214 20.839904 20.124187 C 19.851674 20.30757 19.408499 20.689618 19.163989 21.555592 C 19.026452 21.998767 19.026452 22.487787 18.904197 22.930962 C 15.715375 34.300692 13.285553 45.930215 9.836939 57.315227 C 9.775811 57.620865 9.653556 57.941784 9.653556 58.30855 C 9.592429 58.507215 9.653556 58.812853 9.775811 58.930014 C 10.662161 59.938619 11.349847 61.313989 13.086889 61.191734 C 13.652319 61.130607 14.217749 61.252862 14.783179 61.436245 C 17.223188 62.062802 17.284316 62.12393 18.216512 59.678827 C 18.598559 58.751725 18.843069 57.681992 19.163989 56.749797 C 20.901031 50.937582 22.154147 44.998019 23.590645 39.124677 C 23.728182 38.559247 23.529517 37.749307 24.594156 37.428387 C 24.838666 38.620375 25.037331 39.751235 25.342969 40.800592 C 26.351574 44.050542 25.847271 47.50425 27.161514 50.631945 C 27.788072 52.063349 28.149743 52.751034 29.540396 52.751034 C 31.282532 52.751034 33.034856 52.491242 34.731146 52.368987 C 35.59712 52.307859 36.040295 51.681301 35.841631 50.876455 C 35.479959 49.119037 36.223678 47.743666 37.354538 46.495645 C 37.782432 46.067752 38.042224 45.563449 38.347862 45.059147 C 40.405824 42.114835 42.407752 39.124677 44.465714 36.180366 C 44.786634 35.752472 45.031144 35.125915 45.657702 35.370425 C 45.413191 35.187042 45.474319 35.00366 45.718829 34.743867 C 45.718829 34.68274 45.917494 34.68274 45.978621 34.68274 C 46.162004 35.064787 45.917494 35.24817 45.657702 35.370425 C 45.535446 36.05811 45.474319 36.740702 45.352064 37.428387 L 40.604488 55.313298 C 39.840393 58.247422 40.222441 58.991141 43.03431 59.938619 C 43.778028 60.122002 44.603251 60.183129 45.413191 60.381794 C 48.036583 60.809687 48.036583 60.809687 48.785396 58.446087 C 48.846524 58.125167 48.907651 57.74312 49.029906 57.437482 C 51.225405 49.119037 53.471844 40.800592 55.667343 32.558556 C 56.293901 30.057419 56.782921 27.556283 57.348352 25.050052 C 57.913782 22.930962 56.156364 21.738974 55.346423 20.185315 Z M 82.665358 56.933179 L 82.604231 56.933179 C 82.344438 54.187532 82.0388 51.436791 81.901263 48.614734 C 81.356209 40.311571 80.286476 31.99822 80.225349 23.618648 C 80.164221 23.175473 79.965557 22.686452 79.965557 22.243277 C 79.965557 20.490953 79.094489 19.49763 77.479702 18.993327 C 76.654479 18.672407 75.966794 18.427897 75.156854 18.993327 C 74.652551 19.298965 74.087121 19.74214 73.603194 19.436502 C 72.288951 18.672407 70.776044 19.49763 69.604432 19.054455 C 68.595826 18.672407 68.351316 18.9322 67.969269 19.558757 C 67.281583 20.873 66.532771 22.182149 65.911307 23.55752 C 62.839646 30.439467 59.773079 37.367259 56.782921 44.249206 L 51.775554 55.802319 C 50.970707 57.74312 51.15409 58.446087 52.967542 59.495444 C 54.220657 60.183129 55.468678 60.748559 56.782921 61.252862 C 58.036037 61.818292 58.540339 61.619627 59.222931 60.244257 C 59.849488 59.128678 60.338509 57.941784 60.842812 56.810924 L 62.157055 53.943022 C 62.340437 53.499847 62.656263 53.1178 63.160566 53.056672 C 66.155817 52.934417 69.100129 52.124476 72.151414 52.246731 C 73.037764 52.307859 73.40453 52.689906 73.480939 53.560974 L 74.025993 58.751725 C 74.16353 59.617699 74.591423 60.244257 75.401364 60.626304 C 76.471097 61.191734 77.418574 61.5585 78.651314 60.931942 C 79.354281 60.565177 80.225349 60.626304 81.035289 60.504049 C 82.405566 60.183129 82.604231 59.999746 82.665358 58.690597 Z M 71.906904 33.246242 L 72.655717 41.870325 C 72.716844 42.680265 72.533462 43.245695 71.662393 43.36795 C 70.032325 43.566615 68.473571 44.188079 66.838409 43.749998 C 67.587221 40.938129 70.287023 34.438229 71.219219 33.307369 C 71.341474 33.185114 71.662393 33.246242 71.906904 33.246242 Z M 97.534642 37.245004 C 96.103238 43.811125 94.529203 50.372152 93.092705 56.933179 C 92.787067 58.30855 93.092705 59.250934 94.34582 59.755236 C 95.782318 60.381794 97.35126 60.870814 98.910013 61.313989 C 100.040873 61.696037 100.601209 61.375117 101.029102 60.183129 C 101.533405 58.87398 101.97658 57.49861 102.282218 56.184367 C 103.35195 51.31963 104.279052 46.37339 105.348785 41.503559 C 106.28098 37.428387 107.228458 33.368497 108.216687 29.308607 C 108.598734 27.678538 108.782117 27.556283 110.600663 27.434027 C 112.597497 27.311772 114.538298 27.311772 116.535132 27.189517 C 118.659316 27.05198 119.158524 26.624087 119.341907 24.489716 C 119.464162 22.99209 119.280779 21.494464 119.280779 19.98665 C 119.280779 19.054455 118.659316 18.748817 117.910503 18.748817 C 115.282017 18.748817 112.597497 18.809944 109.912977 18.871072 C 104.90561 18.9322 99.903336 19.054455 94.91125 18.9322 C 92.410113 18.871072 91.661301 20.490953 91.279253 22.625324 C 91.156998 23.31301 91.340381 24.000695 91.401508 24.749508 C 91.539045 27.250645 91.783556 27.495155 94.223565 27.61741 C 94.91125 27.61741 95.598936 27.495155 96.286621 27.434027 C 97.27485 27.434027 98.344583 27.189517 99.475443 27.739665 C 98.848885 30.86736 98.283455 34.056182 97.534642 37.245004 Z M 148.036212 29.874037 C 148.280723 29.048814 148.785025 28.74827 149.533838 28.74827 C 151.5918 28.687143 153.715983 28.687143 155.789227 28.564888 C 156.965933 28.564888 158.0917 28.50376 159.283687 28.243968 C 160.475675 28.060585 161.041105 27.311772 161.102233 26.058657 C 161.16336 25.050052 161.102233 24.000695 161.102233 22.930962 C 161.16336 19.925523 161.041105 19.74214 158.0917 19.74214 C 157.470236 19.74214 156.904806 19.864395 156.354657 19.803268 C 152.783788 19.558757 149.2282 20.873 145.657331 19.681013 C 145.41282 19.558757 144.969645 19.803268 144.725135 19.98665 C 144.220833 20.246443 143.655402 20.429825 143.028845 20.368698 C 142.162871 20.185315 141.780823 20.750745 141.59744 21.433337 C 140.909755 23.55752 140.22207 25.676609 139.595512 27.739665 C 136.910993 36.801829 134.287601 45.80796 131.659115 54.875217 C 131.46045 55.557809 131.338195 56.245494 131.159906 56.872052 C 130.777859 58.568342 131.720242 59.434316 132.973358 59.816364 C 134.470983 60.244257 136.08577 60.565177 137.720933 60.870814 C 138.286363 60.99307 138.846699 60.809687 139.030082 60.122002 C 139.213465 59.556571 139.473257 58.991141 139.65664 58.507215 L 143.028845 47.804794 C 143.71653 45.746832 143.71653 45.746832 145.901841 45.563449 L 147.654165 45.563449 L 155.284925 44.814636 C 156.415785 44.677099 157.042343 44.126951 157.042343 43.062312 C 157.10347 41.304894 157.042343 39.567852 156.904806 37.871562 C 156.78255 36.862957 156.278248 36.435064 155.223797 36.496191 C 152.340613 36.557319 149.472711 36.679574 146.222761 36.801829 C 146.599714 34.300692 147.2874 32.059348 148.036212 29.874037 Z M 170.281558 18.748817 C 166.466178 19.558757 165.961876 20.185315 164.846297 24.061823 L 164.647633 25.050052 L 158.086606 47.122203 C 157.032155 50.555535 155.967516 54.004149 154.836656 57.376354 C 154.46989 58.446087 154.714401 59.189806 155.463214 59.877491 C 156.150899 60.504049 156.971027 60.99307 157.903223 61.130607 C 158.835418 61.313989 159.721768 61.619627 160.587742 61.87942 C 161.963113 62.307313 162.161778 62.246185 162.711926 61.069479 C 164.341995 57.055435 165.335318 52.873289 166.649561 48.813399 C 167.276119 46.93882 167.214991 46.93882 168.967315 46.816565 C 169.532745 46.816565 170.098175 46.755437 170.663605 46.755437 C 171.351291 46.755437 171.779184 47.122203 172.033882 47.682539 C 172.278392 48.186841 172.461775 48.752271 172.721567 49.241292 L 177.591398 60.809687 C 178.279083 62.383722 179.287688 62.806521 180.902475 62.383722 C 181.34565 62.246185 181.788825 62.001675 182.216718 61.818292 C 187.539912 59.312061 186.857321 60.748559 184.84011 55.557809 C 184.5956 54.936345 184.289962 54.309787 183.969042 53.68323 C 182.980813 51.31963 181.972208 48.996782 181.040012 46.6179 C 180.153662 44.493717 180.21479 44.493717 182.094463 43.36795 C 182.598766 43.062312 183.103068 42.817802 183.525867 42.496882 C 187.723295 39.491443 190.474036 35.614935 191.034372 30.439467 C 191.599802 25.111179 188.16647 19.237838 182.415383 18.244514 C 180.902475 17.984722 179.40485 17.862467 177.912318 17.679084 C 175.350053 17.679084 172.782695 18.183387 170.281558 18.748817 Z M 180.352327 33.872799 C 178.538875 35.614935 176.47582 36.740702 174.096938 37.367259 C 172.90495 37.688179 171.534673 38.803758 170.526068 37.627052 C 169.838383 36.801829 170.785861 35.431553 171.091498 34.377102 C 171.595801 32.364986 172.156137 30.363057 172.66044 28.305095 C 172.90495 27.311772 173.531508 26.80747 174.60124 26.746342 C 176.47582 26.624087 178.279083 26.364295 180.153662 26.685215 C 181.66657 26.990852 182.354255 27.678538 182.354255 29.308607 C 182.277846 31.050743 181.66657 32.619684 180.352327 33.872799 Z M 208.22141 14.047087 C 209.836197 14.108215 211.22685 13.624288 212.159045 12.248917 C 213.091241 10.934674 213.284812 8.433538 212.479965 7.302677 C 210.600292 4.618158 206.158354 4.923796 204.665823 7.929235 C 203.779473 9.625525 204.344903 11.362567 205.154843 12.875475 C 205.776307 14.047087 207.09055 13.98596 208.22141 14.047087 Z M 206.84604 8.93784 C 207.472597 7.547188 209.530559 7.424932 210.3405 8.678048 C 210.722547 9.18235 210.661419 10.308117 210.218245 10.858265 C 209.77507 11.484823 209.153606 11.744615 208.404793 11.683487 C 207.90049 11.683487 207.350342 11.683487 207.029422 11.179185 C 206.662657 10.491499 206.402865 9.686653 206.84604 8.93784 Z M 218.475562 56.749797 L 218.414434 56.749797 C 218.154642 53.943022 217.849004 51.182093 217.726749 48.431352 C 217.161319 40.056873 216.09668 31.75371 216.035553 23.374137 C 215.974425 22.930962 215.791042 22.487787 215.791042 21.998767 C 215.791042 20.30757 214.904692 19.298965 213.284812 18.748817 C 212.479965 18.489025 211.776998 18.244514 210.967057 18.748817 C 210.539164 19.054455 209.912607 19.558757 209.408304 19.237838 C 208.099155 18.427897 206.586247 19.237838 205.414635 18.809944 C 204.467158 18.427897 204.16152 18.748817 203.779473 19.298965 C 203.091787 20.613208 202.342974 21.998767 201.721511 23.374137 C 198.64985 30.240802 195.598565 37.122749 192.593125 44.050542 C 190.896835 47.865921 189.282048 51.742429 187.646885 55.557809 C 186.780911 57.49861 186.9592 58.186295 188.777745 59.250934 C 190.030861 59.938619 191.278882 60.504049 192.593125 61.069479 C 193.846241 61.619627 194.345449 61.375117 195.094262 60.060874 C 195.659692 58.930014 196.148713 57.74312 196.714143 56.566414 C 197.157318 55.618936 197.600493 54.691835 197.967258 53.744357 C 198.221957 53.316464 198.466467 52.873289 198.97077 52.873289 C 201.960927 52.689906 204.97146 51.941094 207.9769 52.063349 C 208.847968 52.063349 209.230015 52.491242 209.291143 53.316464 C 209.469432 55.0586 209.713942 56.810924 209.836197 58.507215 C 209.973734 59.434316 210.401627 59.999746 211.22685 60.442921 C 212.2813 60.931942 213.223684 61.375117 214.476799 60.748559 C 215.164485 60.381794 216.035553 60.381794 216.845493 60.244257 C 218.21577 59.999746 218.475562 59.755236 218.475562 58.507215 Z M 207.472597 43.12344 C 205.837435 43.306823 204.283775 43.928286 202.648612 43.566615 C 203.412707 40.678337 206.097227 34.239565 207.029422 33.062859 C 207.151678 32.925322 207.472597 32.986449 207.717108 32.986449 L 208.465921 41.686942 C 208.527048 42.435755 208.343665 43.062312 207.472597 43.12344 Z M 239.84984 38.314737 C 240.975606 44.753509 241.907801 51.182093 240.838069 57.74312 C 240.776941 58.06404 240.715814 58.446087 240.715814 58.751725 C 240.715814 60.183129 241.281244 61.069479 242.595487 61.313989 C 243.726347 61.497372 244.913241 61.436245 246.089947 61.497372 C 250.165119 61.619627 250.715267 61.252862 251.779906 57.559737 C 254.591775 47.50425 257.352704 37.428387 260.159478 27.311772 C 260.465116 25.997529 260.724909 24.627253 260.908291 23.2366 C 261.091674 22.121022 260.786036 21.239766 259.976096 20.368698 C 258.728074 19.17671 257.536086 18.244514 255.717541 18.993327 C 255.416997 19.115582 255.03495 19.375375 254.790439 19.237838 C 253.659579 18.748817 253.415069 19.375375 253.155276 20.30757 L 249.783072 32.364986 C 249.477434 33.429624 249.095386 34.438229 248.591084 35.996983 C 248.086781 34.743867 247.72511 34.056182 247.465317 33.307369 C 246.533122 30.500594 245.218879 27.93833 243.848602 25.370972 C 242.839997 23.496392 241.342371 22.059894 239.84984 20.613208 C 238.780107 19.558757 237.404736 20.185315 236.340098 19.619885 C 235.086982 18.993327 233.910276 19.298965 232.601127 19.375375 C 231.149347 19.436502 230.522789 20.124187 230.156024 21.372209 L 227.27284 31.75371 C 225.530704 38.375864 223.77838 44.998019 221.959834 51.620174 C 221.598163 53.056672 221.216115 54.56958 220.788222 56.000984 C 220.589557 56.688669 220.84935 57.192972 221.277243 57.559737 C 221.837579 57.941784 222.403009 58.507215 223.029567 58.62947 C 224.404937 58.87398 225.714086 59.373189 227.028329 59.816364 C 227.777142 60.060874 228.4037 59.877491 228.72462 59.052269 C 229.152513 58.002912 229.651721 56.933179 229.972641 55.802319 C 231.470267 50.005387 232.906765 44.126951 234.475706 38.253609 C 235.086982 35.935855 235.851077 33.613007 236.59989 30.86736 C 238.336932 33.246242 239.345537 35.370425 239.84984 38.314737 Z M 265.778122 36.119238 C 268.162098 36.119238 269.715757 34.499357 269.654629 32.181603 C 269.654629 31.127152 269.277676 30.118547 268.727528 29.247479 C 267.474412 27.3729 265.095531 26.929725 263.338113 28.121713 C 261.962742 29.125224 261.219023 31.616173 261.784453 33.490752 C 262.222534 35.00366 263.96467 36.119238 265.778122 36.119238 Z M 263.338113 50.43328 C 261.962742 51.375663 261.219023 53.943022 261.784453 55.802319 C 262.222534 57.315227 263.96467 58.446087 265.778122 58.446087 C 268.162098 58.446087 269.715757 56.810924 269.654629 54.49317 C 269.654629 53.438719 269.277676 52.430114 268.727528 51.559046 C 267.474412 49.684467 265.095531 49.241292 263.338113 50.43328 Z M 263.338113 50.43328 " stroke="#0d3b66" stroke-width="0.429773" stroke-opacity="1" stroke-miterlimit="4"/></svg>