<svg xmlns="http://www.w3.org/2000/svg" xmlns:xlink="http://www.w3.org/1999/xlink" width="500" zoomAndPan="magnify" viewBox="0 0 375 112.499997" height="150" preserveAspectRatio="xMidYMid meet" version="1.0"><defs><clipPath id="1d51538eb6"><path d="M 18 18 L 357.558594 18 L 357.558594 79.917969 L 18 79.917969 Z M 18 18 " clip-rule="nonzero"/></clipPath></defs><g clip-path="url(#1d51538eb6)"><path fill="#1e1e1e" d="M 24.710938 26.585938 C 14.660156 29.921875 18.703125 58.5 20.734375 63.949219 C 23.285156 70.773438 32.714844 74.253906 39.039062 76.015625 C 57.183594 81.0625 76.921875 78.664062 95.507812 79.804688 C 112.40625 80.835938 129.34375 79.988281 146.265625 80.398438 C 187.214844 81.386719 227.851562 81.601562 268.828125 80.714844 C 286.90625 80.320312 341.359375 83.109375 348.15625 79.980469 C 351.972656 78.226562 354.125 73.34375 355.46875 69.660156 C 358.5 61.339844 361.160156 35.433594 353.054688 28.703125 C 345.339844 22.300781 334.007812 21.15625 324.507812 19.585938 C 305.601562 16.464844 211.371094 18.816406 183.21875 22.519531 C 164.089844 25.035156 42.199219 20.78125 24.710938 26.585938 Z M 24.710938 26.585938 " fill-opacity="1" fill-rule="evenodd"/></g><path fill="#faf0ca" d="M 123.382812 38.726562 C 123.289062 38.589844 122.882812 38.636719 122.65625 38.542969 C 122.019531 38.363281 121.515625 38.957031 120.972656 38.863281 C 120.332031 38.816406 120.105469 37.910156 119.332031 37.859375 C 118.921875 37.859375 118.511719 37.679688 118.101562 37.542969 C 117.464844 37.269531 116.964844 37.542969 116.507812 38 C 116.234375 38.316406 115.964844 38.679688 115.734375 39 L 109.175781 48.378906 C 108.8125 48.925781 108.449219 49.46875 108.042969 50.019531 C 107.90625 50.246094 107.675781 50.382812 107.402344 50.289062 C 107.265625 50.246094 107.128906 50.0625 107.128906 49.925781 C 106.765625 47.152344 105.582031 44.554688 104.945312 41.867188 C 104.761719 41.140625 104.304688 40.503906 103.941406 39.820312 C 103.714844 39.363281 103.304688 39.042969 102.757812 38.957031 C 101.257812 38.773438 99.796875 38.410156 98.25 38.679688 C 97.523438 38.816406 97.203125 39.09375 97.023438 39.726562 C 96.929688 40.046875 96.886719 40.410156 96.792969 40.730469 C 94.519531 49.015625 92.742188 57.484375 90.238281 65.773438 C 90.191406 66 90.105469 66.222656 90.105469 66.5 C 90.054688 66.636719 90.105469 66.863281 90.191406 66.957031 C 90.832031 67.683594 91.332031 68.683594 92.558594 68.589844 C 92.972656 68.546875 93.425781 68.640625 93.835938 68.777344 C 95.609375 69.230469 95.609375 69.277344 96.339844 67.5 C 96.613281 66.816406 96.792969 66.042969 97.023438 65.359375 C 98.25 61.125 99.207031 56.800781 100.253906 52.523438 C 100.347656 52.109375 100.210938 51.519531 100.980469 51.292969 C 101.167969 52.160156 101.300781 52.976562 101.53125 53.75 C 102.257812 56.117188 101.894531 58.621094 102.851562 60.902344 C 103.304688 61.945312 103.578125 62.449219 104.582031 62.449219 C 105.851562 62.449219 107.128906 62.265625 108.359375 62.171875 C 108.996094 62.128906 109.269531 61.671875 109.175781 61.082031 C 108.90625 59.804688 109.453125 58.804688 110.273438 57.894531 C 110.589844 57.578125 110.773438 57.210938 111 56.84375 C 112.5 54.707031 113.960938 52.523438 115.460938 50.382812 C 115.6875 50.0625 115.871094 49.605469 116.328125 49.789062 C 116.144531 49.65625 116.1875 49.519531 116.328125 49.335938 C 116.371094 49.289062 116.507812 49.289062 116.554688 49.289062 C 116.691406 49.5625 116.507812 49.699219 116.328125 49.789062 C 116.234375 50.289062 116.1875 50.789062 116.050781 51.292969 L 112.640625 64.3125 C 112.09375 66.453125 112.363281 67 114.414062 67.683594 C 114.960938 67.820312 115.550781 67.863281 116.144531 68 C 118.054688 68.320312 118.054688 68.320312 118.601562 66.589844 C 118.648438 66.363281 118.695312 66.089844 118.785156 65.859375 C 120.378906 59.804688 122.019531 53.75 123.609375 47.742188 C 124.066406 45.917969 124.429688 44.097656 124.839844 42.28125 C 125.25 40.730469 123.972656 39.863281 123.382812 38.726562 Z M 123.382812 38.726562 " fill-opacity="1" fill-rule="nonzero"/><path fill="#faf0ca" d="M 143.316406 65.496094 L 143.273438 65.496094 C 143.089844 63.492188 142.863281 61.492188 142.773438 59.441406 C 142.363281 53.386719 141.589844 47.332031 141.542969 41.230469 C 141.5 40.910156 141.363281 40.546875 141.363281 40.226562 C 141.363281 38.957031 140.722656 38.222656 139.539062 37.859375 C 138.945312 37.632812 138.445312 37.453125 137.855469 37.859375 C 137.492188 38.089844 137.082031 38.410156 136.71875 38.179688 C 135.761719 37.632812 134.667969 38.222656 133.804688 37.910156 C 133.074219 37.632812 132.890625 37.816406 132.621094 38.273438 C 132.121094 39.226562 131.570312 40.183594 131.117188 41.183594 C 128.886719 46.195312 126.65625 51.246094 124.46875 56.253906 L 120.828125 64.675781 C 120.238281 66.089844 120.375 66.589844 121.695312 67.363281 C 122.605469 67.863281 123.511719 68.277344 124.46875 68.640625 C 125.382812 69.046875 125.746094 68.910156 126.246094 67.910156 C 126.699219 67.09375 127.066406 66.222656 127.429688 65.40625 L 128.382812 63.3125 C 128.523438 62.992188 128.753906 62.71875 129.117188 62.675781 C 131.300781 62.585938 133.441406 61.992188 135.671875 62.082031 C 136.308594 62.128906 136.582031 62.402344 136.628906 63.039062 L 137.035156 66.816406 C 137.128906 67.457031 137.445312 67.910156 138.039062 68.183594 C 138.8125 68.589844 139.496094 68.867188 140.40625 68.410156 C 140.90625 68.140625 141.542969 68.183594 142.132812 68.089844 C 143.136719 67.863281 143.273438 67.726562 143.316406 66.773438 Z M 135.488281 48.242188 L 136.035156 54.527344 C 136.078125 55.117188 135.945312 55.527344 135.308594 55.617188 C 134.125 55.753906 132.984375 56.210938 131.800781 55.890625 C 132.347656 53.84375 134.304688 49.105469 134.988281 48.285156 C 135.078125 48.195312 135.308594 48.242188 135.488281 48.242188 Z M 135.488281 48.242188 " fill-opacity="1" fill-rule="nonzero"/><path fill="#faf0ca" d="M 154.148438 51.15625 C 153.101562 55.9375 151.964844 60.71875 150.917969 65.496094 C 150.691406 66.5 150.917969 67.179688 151.832031 67.546875 C 152.875 68 154.015625 68.363281 155.152344 68.683594 C 155.972656 68.957031 156.382812 68.730469 156.703125 67.863281 C 157.066406 66.90625 157.382812 65.90625 157.609375 64.953125 C 158.386719 61.402344 159.070312 57.800781 159.839844 54.253906 C 160.523438 51.292969 161.210938 48.335938 161.9375 45.375 C 162.210938 44.191406 162.34375 44.097656 163.664062 44.007812 C 165.125 43.914062 166.535156 43.914062 167.992188 43.828125 C 169.539062 43.734375 169.902344 43.414062 170.039062 41.867188 C 170.132812 40.777344 169.996094 39.683594 169.996094 38.589844 C 169.996094 37.910156 169.539062 37.679688 168.992188 37.679688 C 167.082031 37.679688 165.125 37.722656 163.164062 37.773438 C 159.523438 37.816406 155.882812 37.910156 152.238281 37.816406 C 150.417969 37.773438 149.871094 38.957031 149.597656 40.503906 C 149.507812 41.003906 149.644531 41.503906 149.691406 42.050781 C 149.777344 43.871094 149.964844 44.054688 151.738281 44.144531 C 152.238281 44.144531 152.738281 44.054688 153.242188 44.007812 C 153.96875 44.007812 154.742188 43.828125 155.5625 44.234375 C 155.105469 46.511719 154.699219 48.835938 154.148438 51.15625 Z M 154.148438 51.15625 " fill-opacity="1" fill-rule="nonzero"/><path fill="#faf0ca" d="M 190.929688 45.785156 C 191.113281 45.191406 191.480469 44.964844 192.023438 44.964844 C 193.527344 44.917969 195.074219 44.917969 196.578125 44.828125 C 197.441406 44.828125 198.261719 44.785156 199.125 44.597656 C 199.945312 44.464844 200.402344 43.914062 200.445312 43.007812 C 200.492188 42.28125 200.445312 41.503906 200.445312 40.730469 C 200.492188 38.542969 200.402344 38.410156 198.261719 38.410156 C 197.804688 38.410156 197.398438 38.5 196.984375 38.453125 C 194.390625 38.273438 191.792969 39.226562 189.203125 38.363281 C 189.019531 38.273438 188.699219 38.453125 188.519531 38.589844 C 188.105469 38.773438 187.742188 38.910156 187.289062 38.863281 C 186.652344 38.726562 186.378906 39.136719 186.242188 39.636719 C 185.738281 41.183594 185.195312 42.730469 184.785156 44.234375 C 182.828125 50.839844 180.917969 57.394531 179.003906 63.996094 C 178.863281 64.496094 178.777344 64.996094 178.640625 65.453125 C 178.363281 66.679688 179.046875 67.320312 179.960938 67.59375 C 181.050781 67.910156 182.234375 68.140625 183.371094 68.363281 C 183.828125 68.457031 184.238281 68.320312 184.375 67.820312 C 184.511719 67.40625 184.695312 67 184.785156 66.636719 C 185.652344 64.039062 186.472656 61.445312 187.289062 58.847656 C 187.742188 57.347656 187.792969 57.347656 189.382812 57.210938 L 190.660156 57.210938 L 196.214844 56.664062 C 197.035156 56.574219 197.484375 56.164062 197.484375 55.390625 C 197.535156 54.113281 197.484375 52.84375 197.398438 51.609375 C 197.304688 50.882812 196.941406 50.5625 196.167969 50.609375 C 194.074219 50.65625 191.980469 50.746094 189.609375 50.839844 C 189.882812 49.015625 190.386719 47.378906 190.929688 45.785156 Z M 190.929688 45.785156 " fill-opacity="1" fill-rule="nonzero"/><path fill="#faf0ca" d="M 207.183594 37.679688 C 204.402344 38.273438 204.039062 38.726562 203.21875 41.546875 L 203.082031 42.28125 L 198.304688 58.347656 C 197.53125 60.851562 196.757812 63.355469 195.9375 65.816406 C 195.664062 66.589844 195.84375 67.136719 196.390625 67.636719 C 196.890625 68.089844 197.484375 68.457031 198.167969 68.546875 C 198.851562 68.683594 199.488281 68.910156 200.125 69.09375 C 201.128906 69.410156 201.261719 69.367188 201.671875 68.503906 C 202.855469 65.589844 203.585938 62.535156 204.542969 59.578125 C 204.996094 58.214844 204.949219 58.214844 206.226562 58.121094 C 206.632812 58.121094 207.046875 58.078125 207.453125 58.078125 C 207.953125 58.078125 208.273438 58.347656 208.457031 58.757812 C 208.636719 59.125 208.773438 59.53125 208.957031 59.898438 L 212.507812 68.320312 C 213.007812 69.460938 213.738281 69.777344 214.921875 69.460938 C 215.242188 69.367188 215.558594 69.183594 215.878906 69.046875 C 219.75 67.226562 219.25 68.277344 217.789062 64.496094 C 217.609375 64.039062 217.382812 63.585938 217.152344 63.128906 C 216.425781 61.402344 215.695312 59.71875 215.011719 57.984375 C 214.375 56.4375 214.421875 56.4375 215.785156 55.617188 C 216.148438 55.390625 216.515625 55.210938 216.832031 54.980469 C 219.882812 52.792969 221.886719 49.96875 222.296875 46.195312 C 222.707031 42.324219 220.203125 38.042969 216.011719 37.316406 C 214.921875 37.132812 213.828125 37.039062 212.738281 36.90625 C 210.871094 36.90625 209.003906 37.269531 207.183594 37.679688 Z M 214.511719 48.699219 C 213.191406 49.96875 211.691406 50.789062 209.957031 51.246094 C 209.09375 51.472656 208.09375 52.292969 207.363281 51.429688 C 206.863281 50.839844 207.546875 49.835938 207.773438 49.0625 C 208.136719 47.605469 208.546875 46.148438 208.910156 44.648438 C 209.09375 43.914062 209.550781 43.550781 210.320312 43.507812 C 211.691406 43.414062 213.007812 43.234375 214.375 43.464844 C 215.46875 43.6875 215.96875 44.191406 215.96875 45.375 C 215.925781 46.648438 215.46875 47.785156 214.511719 48.699219 Z M 214.511719 48.699219 " fill-opacity="1" fill-rule="nonzero"/><path fill="#faf0ca" d="M 234.8125 34.265625 C 235.996094 34.308594 236.996094 33.945312 237.679688 32.945312 C 238.363281 31.988281 238.5 30.167969 237.910156 29.351562 C 236.542969 27.390625 233.308594 27.617188 232.21875 29.800781 C 231.582031 31.035156 231.988281 32.308594 232.582031 33.402344 C 233.039062 34.265625 233.992188 34.222656 234.8125 34.265625 Z M 233.808594 30.535156 C 234.265625 29.53125 235.769531 29.4375 236.359375 30.351562 C 236.632812 30.714844 236.589844 31.535156 236.269531 31.941406 C 235.953125 32.398438 235.496094 32.582031 234.949219 32.535156 C 234.585938 32.535156 234.175781 32.535156 233.949219 32.167969 C 233.671875 31.667969 233.492188 31.078125 233.808594 30.535156 Z M 242.28125 65.359375 L 242.230469 65.359375 C 242.050781 63.3125 241.824219 61.308594 241.734375 59.304688 C 241.324219 53.207031 240.546875 47.152344 240.503906 41.046875 C 240.457031 40.730469 240.320312 40.410156 240.320312 40.046875 C 240.320312 38.816406 239.683594 38.089844 238.5 37.679688 C 237.910156 37.496094 237.410156 37.316406 236.816406 37.679688 C 236.496094 37.910156 236.042969 38.273438 235.675781 38.042969 C 234.722656 37.453125 233.628906 38.042969 232.765625 37.722656 C 232.082031 37.453125 231.855469 37.679688 231.582031 38.089844 C 231.078125 39.042969 230.535156 40.046875 230.078125 41.046875 C 227.847656 46.054688 225.613281 51.066406 223.429688 56.117188 C 222.203125 58.898438 221.019531 61.714844 219.835938 64.496094 C 219.195312 65.90625 219.332031 66.40625 220.65625 67.179688 C 221.5625 67.683594 222.476562 68.089844 223.429688 68.503906 C 224.34375 68.910156 224.707031 68.730469 225.25 67.773438 C 225.664062 66.957031 226.027344 66.089844 226.433594 65.222656 C 226.753906 64.539062 227.074219 63.855469 227.347656 63.175781 C 227.53125 62.855469 227.710938 62.535156 228.074219 62.535156 C 230.261719 62.402344 232.445312 61.855469 234.628906 61.945312 C 235.269531 61.945312 235.542969 62.265625 235.585938 62.855469 C 235.726562 64.132812 235.90625 65.40625 235.996094 66.636719 C 236.089844 67.320312 236.40625 67.726562 236.996094 68.046875 C 237.773438 68.410156 238.457031 68.730469 239.363281 68.277344 C 239.867188 68 240.503906 68 241.097656 67.910156 C 242.097656 67.726562 242.28125 67.546875 242.28125 66.636719 Z M 234.265625 55.433594 C 233.082031 55.574219 231.945312 56.027344 230.761719 55.753906 C 231.304688 53.660156 233.265625 48.972656 233.949219 48.105469 C 234.039062 48.015625 234.265625 48.058594 234.449219 48.058594 L 234.992188 54.390625 C 235.042969 54.933594 234.90625 55.390625 234.265625 55.433594 Z M 234.265625 55.433594 " fill-opacity="1" fill-rule="nonzero"/><path fill="#faf0ca" d="M 257.847656 51.929688 C 258.667969 56.617188 259.351562 61.308594 258.574219 66.089844 C 258.53125 66.316406 258.484375 66.589844 258.484375 66.816406 C 258.484375 67.863281 258.894531 68.503906 259.851562 68.683594 C 260.671875 68.820312 261.535156 68.777344 262.398438 68.820312 C 265.355469 68.910156 265.769531 68.640625 266.542969 65.953125 C 268.59375 58.621094 270.59375 51.292969 272.644531 43.914062 C 272.871094 42.960938 273.050781 41.960938 273.1875 40.957031 C 273.324219 40.140625 273.097656 39.5 272.507812 38.863281 C 271.597656 38 270.734375 37.316406 269.410156 37.859375 C 269.183594 37.953125 268.910156 38.136719 268.730469 38.042969 C 267.910156 37.679688 267.726562 38.136719 267.546875 38.816406 L 265.085938 47.605469 C 264.859375 48.378906 264.585938 49.105469 264.222656 50.246094 C 263.859375 49.335938 263.582031 48.835938 263.402344 48.285156 C 262.71875 46.238281 261.761719 44.371094 260.761719 42.507812 C 260.03125 41.140625 258.9375 40.09375 257.847656 39.042969 C 257.070312 38.273438 256.070312 38.726562 255.296875 38.316406 C 254.386719 37.859375 253.523438 38.089844 252.5625 38.136719 C 251.519531 38.179688 251.0625 38.679688 250.789062 39.59375 L 248.695312 47.152344 C 247.421875 51.972656 246.144531 56.800781 244.824219 61.628906 C 244.550781 62.675781 244.28125 63.769531 243.960938 64.816406 C 243.824219 65.316406 244.003906 65.679688 244.324219 65.953125 C 244.734375 66.222656 245.144531 66.636719 245.601562 66.726562 C 246.601562 66.90625 247.554688 67.273438 248.511719 67.59375 C 249.058594 67.773438 249.515625 67.636719 249.742188 67.042969 C 250.058594 66.273438 250.421875 65.496094 250.652344 64.675781 C 251.746094 60.445312 252.792969 56.164062 253.929688 51.886719 C 254.386719 50.199219 254.929688 48.515625 255.480469 46.511719 C 256.753906 48.242188 257.484375 49.789062 257.847656 51.929688 Z M 257.847656 51.929688 " fill-opacity="1" fill-rule="nonzero"/><path fill="#faf0ca" d="M 276.734375 50.335938 C 278.464844 50.335938 279.605469 49.15625 279.558594 47.46875 C 279.558594 46.695312 279.285156 45.96875 278.875 45.328125 C 277.964844 43.964844 276.234375 43.644531 274.957031 44.507812 C 273.957031 45.238281 273.410156 47.058594 273.824219 48.421875 C 274.140625 49.519531 275.414062 50.335938 276.734375 50.335938 Z M 274.957031 60.761719 C 273.957031 61.445312 273.410156 63.3125 273.824219 64.675781 C 274.140625 65.773438 275.414062 66.589844 276.734375 66.589844 C 278.464844 66.589844 279.605469 65.40625 279.558594 63.71875 C 279.558594 62.949219 279.285156 62.21875 278.875 61.582031 C 277.964844 60.21875 276.234375 59.898438 274.957031 60.761719 Z M 274.957031 60.761719 " fill-opacity="1" fill-rule="nonzero"/><path stroke-linecap="butt" transform="matrix(0.728328, 0, 0, 0.728328, 83.115761, 24.02782)" fill="none" stroke-linejoin="miter" d="M 55.286958 20.186844 C 55.163602 19.988401 54.595091 20.063487 54.289382 19.924041 C 53.404436 19.682692 52.723296 20.492552 51.972432 20.369196 C 51.103576 20.3102 50.781778 19.055185 49.725205 18.990826 C 49.167421 18.990826 48.604274 18.749477 48.035763 18.551034 C 47.166907 18.180966 46.480403 18.551034 45.852896 19.178541 C 45.472101 19.618333 45.107396 20.122484 44.785597 20.551549 L 35.7806 33.428855 C 35.276448 34.179718 34.788387 34.925218 34.22524 35.692172 C 34.042887 35.99788 33.721089 36.180233 33.356383 36.056877 C 33.157941 35.99788 32.975588 35.751168 32.975588 35.552726 C 32.471437 31.755502 30.851718 28.183538 29.966772 24.488218 C 29.725423 23.496006 29.097915 22.627149 28.593764 21.677844 C 28.288056 21.0557 27.719545 20.610545 26.979408 20.492552 C 24.914534 20.24584 22.903292 19.741689 20.779422 20.122484 C 19.787209 20.3102 19.347418 20.690995 19.100706 21.554488 C 18.966623 21.999642 18.902263 22.487703 18.78427 22.932858 C 15.652097 34.303074 13.222518 45.93073 9.77391 57.317036 C 9.714913 57.622745 9.591557 57.93918 9.591557 58.309248 C 9.532561 58.507691 9.591557 58.813399 9.714913 58.931392 C 10.599859 59.939694 11.286363 61.312702 12.965079 61.189345 C 13.528227 61.130349 14.155734 61.253705 14.724245 61.436058 C 17.164551 62.063565 17.164551 62.122561 18.156763 59.676892 C 18.537558 58.754403 18.78427 57.681741 19.100706 56.748525 C 20.779422 50.940061 22.093433 44.997514 23.525436 39.12469 C 23.659519 38.561542 23.461077 37.751683 24.533739 37.429884 C 24.775088 38.620539 24.97353 39.752197 25.279239 40.798042 C 26.292904 44.048208 25.788753 47.502179 27.097401 50.634352 C 27.719545 52.060993 28.089613 52.752859 29.47871 52.752859 C 31.216423 52.752859 32.975588 52.490057 34.665031 52.366701 C 35.533887 52.307705 35.903956 51.680198 35.7806 50.875701 C 35.415895 49.116536 36.161395 47.743528 37.293053 46.493877 C 37.722118 46.070176 37.979557 45.566025 38.279902 45.05651 C 40.344776 42.117417 42.339928 39.12469 44.404802 36.180233 C 44.726601 35.751168 44.96795 35.123661 45.595457 35.370373 C 45.354108 35.188021 45.413104 35.005668 45.595457 34.742866 C 45.659817 34.683869 45.852896 34.683869 45.911892 34.683869 C 46.094245 35.064664 45.852896 35.247017 45.595457 35.370373 C 45.472101 36.056877 45.413104 36.74338 45.230752 37.429884 L 40.543219 55.311158 C 39.781629 58.244889 40.162424 58.990389 42.967435 59.939694 C 43.718298 60.122047 44.544248 60.181043 45.354108 60.379486 C 47.976766 60.80855 47.976766 60.80855 48.722266 58.448694 C 48.786626 58.126896 48.845623 57.740737 48.968979 57.435029 C 51.162573 49.116536 53.404436 40.798042 55.608756 32.559999 C 56.2309 30.055333 56.724325 27.556031 57.282109 25.051365 C 57.845257 22.932858 56.096818 21.73684 55.286958 20.186844 Z M 82.666655 56.930878 L 82.602295 56.930878 C 82.344857 54.184863 82.039148 51.438849 81.899702 48.612384 C 81.358008 40.309981 80.285346 31.996851 80.226349 23.619362 C 80.161989 23.174207 79.963547 22.686146 79.963547 22.240991 C 79.963547 20.492552 79.094691 19.494977 77.480334 18.990826 C 76.654385 18.67439 75.967881 18.427678 75.158021 18.990826 C 74.65387 19.296534 74.085359 19.741689 73.602661 19.43598 C 72.28865 18.67439 70.776197 19.494977 69.606995 19.055185 C 68.59333 18.67439 68.351981 18.931829 67.971186 19.559336 C 67.279319 20.873347 66.533819 22.181995 65.911675 23.555002 C 62.838498 30.441492 59.770685 37.365524 56.783321 44.24665 L 51.77399 55.804583 C 50.969493 57.740737 51.151846 58.448694 52.970008 59.49454 C 54.219659 60.181043 55.46931 60.749554 56.783321 61.253705 C 58.038336 61.816853 58.542487 61.61841 59.223627 60.245403 C 59.851135 59.129835 60.339196 57.93918 60.843347 56.812885 L 62.157358 53.943514 C 62.33971 53.49836 62.656146 53.117565 63.160297 53.058568 C 66.158387 52.935212 69.097481 52.125352 72.149204 52.248708 C 73.039514 52.307705 73.404219 52.6885 73.479305 53.562719 L 74.026363 58.754403 C 74.165809 59.617896 74.58951 60.245403 75.39937 60.626198 C 76.472032 61.189345 77.415975 61.559414 78.649536 60.931907 C 79.35213 60.567202 80.226349 60.626198 81.036209 60.502842 C 82.403853 60.181043 82.602295 59.998691 82.666655 58.690043 Z M 71.907855 33.246502 L 72.653356 41.870704 C 72.717715 42.680564 72.535363 43.243712 71.661143 43.367068 C 70.030697 43.56551 68.475337 44.187654 66.839528 43.747863 C 67.585028 40.937488 70.288136 34.437157 71.221352 33.305499 C 71.339345 33.187506 71.661143 33.246502 71.907855 33.246502 Z M 97.53375 37.247531 C 96.101747 43.812222 94.530297 50.37155 93.09293 56.930878 C 92.787221 58.309248 93.09293 59.253191 94.347944 59.757342 C 95.779948 60.379486 97.351398 60.87291 98.912121 61.312702 C 100.038416 61.693497 100.601564 61.377061 101.030628 60.181043 C 101.53478 58.872396 101.974571 57.499388 102.28028 56.185378 C 103.352942 51.320856 104.280794 46.375884 105.348093 41.505999 C 106.281309 37.429884 107.230615 33.369859 108.217464 29.309833 C 108.598259 27.679387 108.780611 27.556031 110.598773 27.432675 C 112.599288 27.309319 114.540806 27.309319 116.535958 27.191326 C 118.659828 27.05188 119.158616 26.622815 119.340969 24.488218 C 119.464325 22.991855 119.281972 21.495491 119.281972 19.988401 C 119.281972 19.055185 118.659828 18.749477 117.908965 18.749477 C 115.280943 18.749477 112.599288 18.808473 109.91227 18.872833 C 104.902938 18.931829 99.904333 19.055185 94.911092 18.931829 C 92.411789 18.872833 91.660926 20.492552 91.280131 22.627149 C 91.156775 23.313653 91.339127 24.000157 91.403487 24.75102 C 91.53757 27.250322 91.784282 27.497035 94.224588 27.615027 C 94.911092 27.615027 95.597595 27.497035 96.284099 27.432675 C 97.276311 27.432675 98.34361 27.191326 99.475269 27.738384 C 98.847761 30.865193 98.284614 34.056362 97.53375 37.247531 Z M 148.034677 29.872981 C 148.281389 29.047031 148.78554 28.746686 149.536404 28.746686 C 151.590551 28.687689 153.714422 28.687689 155.790023 28.564333 C 156.964588 28.564333 158.090883 28.505337 159.281538 28.242535 C 160.413196 28.060182 161.040704 27.309319 161.0997 26.059668 C 161.16406 25.051365 161.0997 24.000157 161.0997 22.932858 C 161.16406 19.924041 161.040704 19.741689 158.090883 19.741689 C 157.468739 19.741689 156.905592 19.865045 156.353171 19.800685 C 152.781206 19.559336 149.230695 20.873347 145.658731 19.682692 C 145.412018 19.559336 144.972227 19.800685 144.725515 19.988401 C 144.162367 20.24584 143.652853 20.428193 143.030709 20.369196 C 142.161852 20.186844 141.781057 20.749991 141.598705 21.431131 C 140.912201 23.555002 140.161338 25.678873 139.592827 27.738384 C 136.911172 36.802377 134.288513 45.807374 131.660492 54.87673 C 131.462049 55.55787 131.338693 56.244374 131.161704 56.871881 C 130.775545 58.566687 131.719488 59.435543 132.974503 59.816338 C 134.470866 60.245403 136.085222 60.567202 137.662035 60.87291 C 138.284179 60.990903 138.847327 60.80855 139.029679 60.122047 C 139.212032 59.558899 139.474834 58.990389 139.592827 58.507691 C 140.788845 54.935726 141.904414 51.374489 143.030709 47.802525 C 143.652853 45.748377 143.717212 45.748377 145.90008 45.566025 L 147.653882 45.566025 L 155.285872 44.815161 C 156.41753 44.675715 157.039674 44.128658 157.039674 43.061359 C 157.104034 41.307557 157.039674 39.569844 156.905592 37.869675 C 156.782235 36.861373 156.278084 36.437672 155.221512 36.496668 C 152.341415 36.555664 149.472044 36.679021 146.221878 36.802377 C 146.59731 34.303074 147.289177 32.061211 148.034677 29.872981 Z M 170.340683 18.749477 C 166.52737 19.559336 166.023218 20.186844 164.913013 24.059153 L 164.714571 25.051365 L 158.149879 47.121384 C 157.098671 50.553903 156.026009 54.002511 154.899714 57.376032 C 154.529645 58.448694 154.776357 59.188831 155.521858 59.875335 C 156.213725 60.502842 157.039674 60.990903 157.962164 61.130349 C 158.89538 61.312702 159.780326 61.61841 160.654545 61.881212 C 162.022189 62.304914 162.220632 62.245917 162.773053 61.071353 C 164.408862 57.054234 165.395711 52.870852 166.709722 48.810827 C 167.337229 46.939032 167.278233 46.939032 169.032035 46.815676 C 169.595183 46.815676 170.15833 46.756679 170.726841 46.756679 C 171.413345 46.756679 171.84241 47.121384 172.099849 47.684532 C 172.346561 48.188683 172.528913 48.751831 172.786352 49.239892 L 177.650874 60.80855 C 178.342741 62.385364 179.351044 62.809065 180.9654 62.385364 C 181.405191 62.245917 181.850346 61.999205 182.279411 61.816853 C 187.605178 59.312187 186.918674 60.749554 184.902069 55.55787 C 184.655357 54.935726 184.349649 54.308219 184.033213 53.680712 C 183.041001 51.320856 182.032699 48.998543 181.099483 46.617233 C 180.2199 44.493363 180.278896 44.493363 182.156055 43.367068 C 182.660206 43.061359 183.164357 42.82001 183.593422 42.498212 C 187.78753 39.489395 190.533545 35.617085 191.102056 30.441492 C 191.665203 25.110362 188.227322 19.237538 182.477853 18.245326 C 180.9654 17.982523 179.469037 17.864531 177.972673 17.676815 C 175.409011 17.676815 172.850712 18.180966 170.340683 18.749477 Z M 180.418342 33.87401 C 178.60018 35.617085 176.540669 36.74338 174.15936 37.365524 C 172.968705 37.687323 171.595697 38.802891 170.587395 37.628326 C 169.900892 36.802377 170.844834 35.429369 171.150543 34.378161 C 171.654694 32.36692 172.223205 30.361042 172.727356 28.306894 C 172.968705 27.309319 173.590849 26.805168 174.663511 26.746171 C 176.540669 26.622815 178.342741 26.365376 180.2199 26.687175 C 181.72699 26.992883 182.413494 27.679387 182.413494 29.309833 C 182.338407 31.052909 181.72699 32.618995 180.418342 33.87401 Z M 208.280738 14.045854 C 209.900457 14.110214 211.289554 13.622153 212.22277 12.249145 C 213.150623 10.935135 213.349065 8.435832 212.539206 7.304174 C 210.662047 4.617156 206.22659 4.922864 204.724863 7.931681 C 203.839917 9.626487 204.408428 11.364199 205.218288 12.876653 C 205.840432 14.045854 207.149079 13.986858 208.280738 14.045854 Z M 206.90773 8.939983 C 207.535237 7.545523 209.594749 7.42753 210.404608 8.677181 C 210.785403 9.181332 210.721044 10.307627 210.286615 10.860048 C 209.841461 11.482192 209.213954 11.744994 208.468453 11.685998 C 207.958939 11.685998 207.411881 11.685998 207.090083 11.181847 C 206.725378 10.48998 206.467939 9.685483 206.90773 8.939983 Z M 218.535386 56.748525 L 218.47639 56.748525 C 218.213588 53.943514 217.913242 51.18141 217.795249 48.430032 C 217.226739 40.057906 216.15944 31.755502 216.09508 23.372649 C 216.036084 22.932858 215.853731 22.487703 215.853731 21.999642 C 215.853731 20.3102 214.963422 19.296534 213.349065 18.749477 C 212.539206 18.486674 211.836612 18.245326 211.026752 18.749477 C 210.597687 19.055185 209.980907 19.559336 209.476756 19.237538 C 208.162745 18.427678 206.650291 19.237538 205.475726 18.808473 C 204.526421 18.427678 204.220712 18.749477 203.839917 19.296534 C 203.153413 20.610545 202.407913 21.999642 201.780406 23.372649 C 198.717956 30.243049 195.660869 37.124175 192.652052 44.048208 C 190.96261 47.866884 189.34289 51.744557 187.712444 55.55787 C 186.843588 57.499388 187.02594 58.185892 188.838739 59.253191 C 190.093754 59.939694 191.343405 60.502842 192.652052 61.071353 C 193.907067 61.61841 194.411218 61.377061 195.162081 60.06305 C 195.719866 58.931392 196.207927 57.740737 196.776438 56.566173 C 197.216229 55.616867 197.661384 54.694378 198.026089 53.745072 C 198.288891 53.316007 198.53024 52.870852 199.034391 52.870852 C 202.027118 52.6885 205.030572 51.943 208.039389 52.060993 C 208.908245 52.060993 209.28904 52.490057 209.3534 53.316007 C 209.535752 55.059083 209.782464 56.812885 209.900457 58.507691 C 210.039903 59.435543 210.463605 59.998691 211.289554 60.443845 C 212.340763 60.931907 213.290069 61.377061 214.53972 60.749554 C 215.226224 60.379486 216.09508 60.379486 216.90494 60.245403 C 218.277947 59.998691 218.535386 59.757342 218.535386 58.507691 Z M 207.535237 43.125719 C 205.904791 43.308071 204.344068 43.930215 202.713622 43.56551 C 203.475212 40.68005 206.16223 34.238715 207.090083 33.06415 C 207.213439 32.924704 207.535237 32.989064 207.776586 32.989064 L 208.52745 41.688352 C 208.586446 42.433852 208.404094 43.061359 207.535237 43.125719 Z M 239.91354 38.31483 C 241.039835 44.756165 241.967687 51.18141 240.905752 57.740737 C 240.841392 58.062536 240.782396 58.448694 240.782396 58.754403 C 240.782396 60.181043 241.345543 61.071353 242.654191 61.312702 C 243.785849 61.495054 244.981868 61.436058 246.151069 61.495054 C 250.227185 61.61841 250.774242 61.253705 251.846904 57.558385 C 254.651915 47.502179 257.41402 37.429884 260.224394 27.309319 C 260.52474 25.995308 260.787542 24.627664 260.969895 23.238567 C 261.152247 22.122998 260.846538 21.238052 260.042042 20.369196 C 258.787027 19.178541 257.596373 18.245326 255.783574 18.990826 C 255.477865 19.114182 255.09707 19.376984 254.850358 19.237538 C 253.718699 18.749477 253.477351 19.376984 253.214548 20.3102 L 249.84639 32.36692 C 249.540681 33.428855 249.154523 34.437157 248.655735 35.99788 C 248.151584 34.742866 247.786879 34.056362 247.524076 33.305499 C 246.596224 30.500488 245.287576 27.936826 243.909206 25.373164 C 242.900903 23.496006 241.409903 22.058639 239.91354 20.610545 C 238.840878 19.559336 237.473234 20.186844 236.400572 19.618333 C 235.145557 18.990826 233.976356 19.296534 232.662345 19.376984 C 231.208888 19.43598 230.58138 20.122484 230.222039 21.372135 L 227.336578 31.755502 C 225.598865 38.373826 223.8397 44.997514 222.026901 51.621201 C 221.656833 53.058568 221.276038 54.571021 220.846973 56.003025 C 220.64853 56.689529 220.911333 57.19368 221.340397 57.558385 C 221.903545 57.93918 222.466692 58.507691 223.088836 58.631047 C 224.467207 58.872396 225.781218 59.371184 227.089866 59.816338 C 227.840729 60.06305 228.462873 59.875335 228.784672 59.054748 C 229.213736 58.00354 229.717887 56.930878 230.039686 55.804583 C 231.530686 50.006845 232.968053 44.128658 234.539503 38.255834 C 235.145557 35.933521 235.91251 33.611208 236.663374 30.865193 C 238.395723 33.246502 239.404025 35.370373 239.91354 38.31483 Z M 265.845143 36.121236 C 268.22109 36.121236 269.781813 34.501517 269.722816 32.179204 C 269.722816 31.127995 269.336658 30.119693 268.7896 29.245473 C 267.534586 27.373678 265.15864 26.928524 263.399474 28.119178 C 262.026467 29.127481 261.280967 31.616056 261.844114 33.493215 C 262.289269 35.005668 264.026981 36.121236 265.845143 36.121236 Z M 263.399474 50.43591 C 262.026467 51.374489 261.280967 53.943514 261.844114 55.804583 C 262.289269 57.317036 264.026981 58.448694 265.845143 58.448694 C 268.22109 58.448694 269.781813 56.812885 269.722816 54.490572 C 269.722816 53.439363 269.336658 52.431061 268.7896 51.556841 C 267.534586 49.685046 265.15864 49.239892 263.399474 50.43591 Z M 263.399474 50.43591 " stroke="#0d3b66" stroke-width="0.43" stroke-opacity="1" stroke-miterlimit="4"/></svg>