<svg xmlns="http://www.w3.org/2000/svg" xmlns:xlink="http://www.w3.org/1999/xlink" width="500" zoomAndPan="magnify" viewBox="0 0 375 374.999991" height="500" preserveAspectRatio="xMidYMid meet" version="1.0"><defs><g/><clipPath id="fc76b1e012"><path d="M 9 147 L 366.617188 147 L 366.617188 212.796875 L 9 212.796875 Z M 9 147 " clip-rule="nonzero"/></clipPath></defs><g clip-path="url(#fc76b1e012)"><path fill="#6a040f" d="M 16.171875 156.644531 C 5.589844 160.15625 9.84375 190.246094 11.984375 195.980469 C 14.667969 203.167969 24.597656 206.832031 31.257812 208.6875 C 50.359375 214 71.140625 211.476562 90.710938 212.675781 C 108.503906 213.761719 126.335938 212.871094 144.152344 213.300781 C 187.265625 214.339844 230.054688 214.566406 273.195312 213.632812 C 292.230469 213.21875 349.5625 216.15625 356.71875 212.863281 C 360.738281 211.015625 363.003906 205.875 364.417969 201.996094 C 367.609375 193.234375 370.410156 165.957031 361.875 158.871094 C 353.753906 152.132812 341.824219 150.925781 331.820312 149.273438 C 311.914062 145.988281 212.699219 148.464844 183.058594 152.363281 C 162.917969 155.011719 34.585938 150.53125 16.171875 156.644531 Z M 16.171875 156.644531 " fill-opacity="1" fill-rule="evenodd"/></g><g fill="#faf0ca" fill-opacity="1"><g transform="translate(107.043196, 201.494795)"><g><path d="M 33.554688 -32.070312 C 33.457031 -32.210938 33.027344 -32.164062 32.789062 -32.261719 C 32.117188 -32.453125 31.589844 -31.828125 31.015625 -31.925781 C 30.34375 -31.972656 30.101562 -32.929688 29.289062 -32.980469 C 28.855469 -32.980469 28.425781 -33.171875 27.992188 -33.316406 C 27.324219 -33.601562 26.796875 -33.316406 26.316406 -32.835938 C 26.027344 -32.5 25.742188 -32.117188 25.5 -31.78125 L 18.597656 -21.90625 C 18.214844 -21.332031 17.832031 -20.757812 17.402344 -20.179688 C 17.257812 -19.941406 17.015625 -19.796875 16.730469 -19.894531 C 16.585938 -19.941406 16.441406 -20.132812 16.441406 -20.277344 C 16.058594 -23.199219 14.8125 -25.933594 14.140625 -28.761719 C 13.949219 -29.527344 13.46875 -30.199219 13.085938 -30.917969 C 12.847656 -31.398438 12.414062 -31.734375 11.839844 -31.828125 C 10.257812 -32.019531 8.722656 -32.402344 7.09375 -32.117188 C 6.328125 -31.972656 5.992188 -31.683594 5.800781 -31.015625 C 5.703125 -30.679688 5.65625 -30.296875 5.558594 -29.960938 C 3.164062 -21.234375 1.292969 -12.320312 -1.34375 -3.59375 C -1.390625 -3.355469 -1.484375 -3.117188 -1.484375 -2.828125 C -1.535156 -2.683594 -1.484375 -2.445312 -1.390625 -2.347656 C -0.71875 -1.582031 -0.191406 -0.527344 1.101562 -0.625 C 1.535156 -0.671875 2.011719 -0.574219 2.445312 -0.429688 C 4.3125 0.046875 4.3125 0.0976562 5.082031 -1.773438 C 5.367188 -2.492188 5.558594 -3.308594 5.800781 -4.027344 C 7.09375 -8.484375 8.101562 -13.039062 9.203125 -17.542969 C 9.300781 -17.976562 9.15625 -18.597656 9.96875 -18.839844 C 10.164062 -17.925781 10.304688 -17.066406 10.546875 -16.25 C 11.3125 -13.757812 10.929688 -11.121094 11.9375 -8.722656 C 12.414062 -7.621094 12.703125 -7.09375 13.757812 -7.09375 C 15.097656 -7.09375 16.441406 -7.285156 17.734375 -7.382812 C 18.40625 -7.429688 18.695312 -7.910156 18.597656 -8.53125 C 18.3125 -9.875 18.886719 -10.929688 19.75 -11.886719 C 20.085938 -12.222656 20.277344 -12.605469 20.515625 -12.992188 C 22.097656 -15.242188 23.632812 -17.542969 25.214844 -19.796875 C 25.453125 -20.132812 25.644531 -20.613281 26.125 -20.421875 C 25.933594 -20.5625 25.980469 -20.707031 26.125 -20.898438 C 26.171875 -20.949219 26.316406 -20.949219 26.363281 -20.949219 C 26.507812 -20.660156 26.316406 -20.515625 26.125 -20.421875 C 26.027344 -19.894531 25.980469 -19.367188 25.835938 -18.839844 L 22.242188 -5.128906 C 21.667969 -2.875 21.953125 -2.300781 24.113281 -1.582031 C 24.6875 -1.4375 25.308594 -1.390625 25.933594 -1.246094 C 27.945312 -0.910156 27.945312 -0.910156 28.519531 -2.730469 C 28.570312 -2.972656 28.617188 -3.257812 28.714844 -3.5 C 30.390625 -9.875 32.117188 -16.25 33.792969 -22.578125 C 34.273438 -24.496094 34.65625 -26.414062 35.089844 -28.328125 C 35.519531 -29.960938 34.175781 -30.871094 33.554688 -32.070312 Z M 33.554688 -32.070312 "/></g></g></g><g fill="#faf0ca" fill-opacity="1"><g transform="translate(140.304638, 201.494795)"><g><path d="M 21.28125 -3.882812 L 21.234375 -3.882812 C 21.042969 -5.992188 20.804688 -8.101562 20.707031 -10.257812 C 20.277344 -16.632812 19.460938 -23.007812 19.414062 -29.433594 C 19.367188 -29.769531 19.222656 -30.152344 19.222656 -30.488281 C 19.222656 -31.828125 18.550781 -32.597656 17.304688 -32.980469 C 16.679688 -33.21875 16.152344 -33.410156 15.53125 -32.980469 C 15.148438 -32.738281 14.714844 -32.402344 14.332031 -32.644531 C 13.324219 -33.21875 12.175781 -32.597656 11.265625 -32.929688 C 10.496094 -33.21875 10.304688 -33.027344 10.019531 -32.546875 C 9.492188 -31.542969 8.914062 -30.535156 8.4375 -29.480469 C 6.085938 -24.207031 3.738281 -18.886719 1.4375 -13.613281 L -2.398438 -4.746094 C -3.019531 -3.257812 -2.875 -2.730469 -1.484375 -1.917969 C -0.527344 -1.390625 0.429688 -0.957031 1.4375 -0.574219 C 2.398438 -0.144531 2.78125 -0.289062 3.308594 -1.34375 C 3.785156 -2.203125 4.171875 -3.117188 4.554688 -3.980469 L 5.558594 -6.183594 C 5.703125 -6.519531 5.945312 -6.808594 6.328125 -6.855469 C 8.628906 -6.949219 10.882812 -7.574219 13.230469 -7.476562 C 13.902344 -7.429688 14.1875 -7.140625 14.238281 -6.472656 L 14.667969 -2.492188 C 14.765625 -1.820312 15.097656 -1.34375 15.722656 -1.054688 C 16.539062 -0.625 17.257812 -0.335938 18.214844 -0.816406 C 18.742188 -1.101562 19.414062 -1.054688 20.035156 -1.152344 C 21.089844 -1.390625 21.234375 -1.535156 21.28125 -2.539062 Z M 13.039062 -22.050781 L 13.613281 -15.433594 C 13.660156 -14.8125 13.519531 -14.378906 12.847656 -14.285156 C 11.601562 -14.140625 10.402344 -13.660156 9.15625 -13.996094 C 9.730469 -16.152344 11.792969 -21.140625 12.511719 -22.003906 C 12.605469 -22.097656 12.847656 -22.050781 13.039062 -22.050781 Z M 13.039062 -22.050781 "/></g></g></g><g fill="#faf0ca" fill-opacity="1"><g transform="translate(164.603652, 201.494795)"><g><path d="M 8.386719 -18.980469 C 7.285156 -13.949219 6.085938 -8.914062 4.984375 -3.882812 C 4.746094 -2.828125 4.984375 -2.109375 5.945312 -1.726562 C 7.046875 -1.246094 8.246094 -0.863281 9.441406 -0.527344 C 10.304688 -0.238281 10.738281 -0.480469 11.074219 -1.390625 C 11.457031 -2.398438 11.792969 -3.453125 12.03125 -4.457031 C 12.847656 -8.195312 13.566406 -11.984375 14.378906 -15.722656 C 15.097656 -18.839844 15.820312 -21.953125 16.585938 -25.070312 C 16.875 -26.316406 17.015625 -26.414062 18.40625 -26.507812 C 19.941406 -26.605469 21.425781 -26.605469 22.960938 -26.699219 C 24.589844 -26.796875 24.972656 -27.132812 25.117188 -28.761719 C 25.214844 -29.910156 25.070312 -31.0625 25.070312 -32.210938 C 25.070312 -32.929688 24.589844 -33.171875 24.015625 -33.171875 C 22.003906 -33.171875 19.941406 -33.125 17.878906 -33.074219 C 14.046875 -33.027344 10.210938 -32.929688 6.375 -33.027344 C 4.457031 -33.074219 3.882812 -31.828125 3.59375 -30.199219 C 3.5 -29.671875 3.644531 -29.144531 3.691406 -28.570312 C 3.785156 -26.652344 3.980469 -26.460938 5.847656 -26.363281 C 6.375 -26.363281 6.902344 -26.460938 7.429688 -26.507812 C 8.195312 -26.507812 9.011719 -26.699219 9.875 -26.269531 C 9.394531 -23.871094 8.964844 -21.425781 8.386719 -18.980469 Z M 8.386719 -18.980469 "/></g></g></g><g fill="#faf0ca" fill-opacity="1"><g transform="translate(185.356033, 201.494795)"><g><path d="M 8.386719 -18.980469 C 7.285156 -13.949219 6.085938 -8.914062 4.984375 -3.882812 C 4.746094 -2.828125 4.984375 -2.109375 5.945312 -1.726562 C 7.046875 -1.246094 8.246094 -0.863281 9.441406 -0.527344 C 10.304688 -0.238281 10.738281 -0.480469 11.074219 -1.390625 C 11.457031 -2.398438 11.792969 -3.453125 12.03125 -4.457031 C 12.847656 -8.195312 13.566406 -11.984375 14.378906 -15.722656 C 15.097656 -18.839844 15.820312 -21.953125 16.585938 -25.070312 C 16.875 -26.316406 17.015625 -26.414062 18.40625 -26.507812 C 19.941406 -26.605469 21.425781 -26.605469 22.960938 -26.699219 C 24.589844 -26.796875 24.972656 -27.132812 25.117188 -28.761719 C 25.214844 -29.910156 25.070312 -31.0625 25.070312 -32.210938 C 25.070312 -32.929688 24.589844 -33.171875 24.015625 -33.171875 C 22.003906 -33.171875 19.941406 -33.125 17.878906 -33.074219 C 14.046875 -33.027344 10.210938 -32.929688 6.375 -33.027344 C 4.457031 -33.074219 3.882812 -31.828125 3.59375 -30.199219 C 3.5 -29.671875 3.644531 -29.144531 3.691406 -28.570312 C 3.785156 -26.652344 3.980469 -26.460938 5.847656 -26.363281 C 6.375 -26.363281 6.902344 -26.460938 7.429688 -26.507812 C 8.195312 -26.507812 9.011719 -26.699219 9.875 -26.269531 C 9.394531 -23.871094 8.964844 -21.425781 8.386719 -18.980469 Z M 8.386719 -18.980469 "/></g></g></g><g fill="#faf0ca" fill-opacity="1"><g transform="translate(206.10842, 201.494795)"><g><path d="M 7.09375 -18.503906 C 7.429688 -17.207031 7.765625 -15.867188 8.292969 -14.667969 C 8.675781 -13.710938 8.582031 -12.992188 7.863281 -12.269531 C 5.800781 -10.164062 4.074219 -7.765625 2.300781 -5.417969 C 1.152344 -3.882812 1.390625 -2.398438 3.066406 -1.390625 C 3.785156 -0.957031 4.363281 -0.429688 4.984375 0 C 5.894531 0.574219 6.136719 0.574219 6.757812 -0.238281 C 8.53125 -2.492188 10.304688 -4.746094 12.078125 -6.949219 C 13.566406 -8.820312 15.195312 -10.640625 16.679688 -12.511719 C 20.660156 -17.6875 24.542969 -22.863281 28.519531 -28.042969 C 29.046875 -28.761719 29.816406 -29.480469 29.625 -30.34375 C 29.382812 -31.253906 28.761719 -32.070312 28.136719 -32.835938 C 27.46875 -33.699219 26.171875 -33.265625 25.308594 -33.9375 C 25.117188 -34.128906 24.636719 -33.507812 24.351562 -33.125 C 21.667969 -29.71875 18.839844 -26.414062 16.394531 -22.769531 C 15.867188 -22.050781 15.242188 -21.378906 14.667969 -20.707031 C 14.378906 -20.421875 14.09375 -19.988281 13.566406 -20.277344 C 12.558594 -23.871094 11.503906 -27.46875 10.019531 -30.917969 C 9.15625 -32.980469 9.300781 -32.691406 7.046875 -32.691406 C 6.472656 -32.691406 5.992188 -32.546875 5.558594 -32.164062 L 3.308594 -30.246094 C 4.984375 -26.414062 6.136719 -22.480469 7.09375 -18.503906 Z M 7.09375 -18.503906 "/></g></g></g><g fill="#faf0ca" fill-opacity="1"><g transform="translate(231.126348, 201.494795)"><g><path d="M 14.378906 -33.554688 C 12.175781 -33.21875 10.066406 -32.546875 7.863281 -32.164062 C 6.472656 -31.972656 5.894531 -31.445312 5.65625 -30.152344 C 5.558594 -29.671875 5.367188 -29.144531 5.273438 -28.617188 C 4.121094 -23.058594 2.445312 -17.59375 0.957031 -12.128906 C 0.144531 -9.203125 -0.671875 -6.28125 -1.582031 -3.402344 C -1.871094 -2.445312 -1.582031 -1.871094 -0.957031 -1.292969 C -0.480469 -0.816406 0.046875 -0.527344 0.71875 -0.527344 C 1.4375 -0.480469 2.109375 -0.289062 2.78125 -0.046875 C 4.074219 0.429688 4.171875 0.335938 4.648438 -1.054688 C 5.226562 -3.019531 5.703125 -5.03125 6.328125 -6.949219 C 6.710938 -8.101562 6.757812 -9.585938 7.667969 -10.355469 C 8.582031 -11.121094 9.921875 -10.691406 11.074219 -10.785156 C 17.066406 -11.121094 21.476562 -14.09375 24.589844 -19.078125 C 26.21875 -21.667969 26.652344 -24.636719 25.886719 -27.5625 C 25.070312 -30.582031 23.25 -32.835938 19.941406 -33.363281 L 16.875 -33.792969 C 15.960938 -33.699219 15.148438 -33.652344 14.378906 -33.554688 Z M 11.410156 -25.597656 C 11.601562 -26.171875 11.9375 -26.507812 12.464844 -26.605469 C 14.429688 -26.988281 16.347656 -27.035156 18.3125 -26.890625 C 18.980469 -26.84375 19.222656 -26.414062 19.414062 -25.886719 C 19.796875 -24.589844 19.414062 -23.34375 18.742188 -22.335938 C 16.632812 -19.078125 13.613281 -17.304688 9.347656 -17.257812 C 10.066406 -20.230469 10.785156 -22.914062 11.410156 -25.597656 Z M 11.410156 -25.597656 "/></g></g></g><g fill="#faf0ca" fill-opacity="1"><g transform="translate(254.994018, 201.494795)"><g><path d="M 5.992188 -19.84375 C 7.8125 -19.84375 9.011719 -21.089844 8.964844 -22.863281 C 8.964844 -23.679688 8.675781 -24.445312 8.246094 -25.117188 C 7.285156 -26.554688 5.464844 -26.890625 4.121094 -25.980469 C 3.066406 -25.214844 2.492188 -23.296875 2.925781 -21.859375 C 3.257812 -20.707031 4.601562 -19.84375 5.992188 -19.84375 Z M 4.121094 -8.867188 C 3.066406 -8.148438 2.492188 -6.183594 2.925781 -4.746094 C 3.257812 -3.59375 4.601562 -2.730469 5.992188 -2.730469 C 7.8125 -2.730469 9.011719 -3.980469 8.964844 -5.753906 C 8.964844 -6.566406 8.675781 -7.335938 8.246094 -8.003906 C 7.285156 -9.441406 5.464844 -9.777344 4.121094 -8.867188 Z M 4.121094 -8.867188 "/></g></g></g><path stroke-linecap="butt" transform="matrix(0.766839, 0, 0, 0.766839, 77.663685, 153.950791)" fill="none" stroke-linejoin="miter" d="M 82.06427 20.185334 C 81.942015 19.986669 81.381679 20.063079 81.076041 19.925542 C 80.189691 19.681031 79.502006 20.490972 78.753193 20.368717 C 77.887219 20.307589 77.566299 19.054474 76.511848 18.993346 C 75.946418 18.993346 75.380988 18.748836 74.815558 18.550171 C 73.949584 18.183406 73.261899 18.550171 72.635341 19.176729 C 72.253293 19.619904 71.886528 20.124206 71.565608 20.552099 L 62.564572 33.429643 C 62.060269 34.178456 61.571249 34.927269 61.005818 35.691364 C 60.822436 35.997002 60.501516 36.180384 60.13475 36.058129 C 59.936086 35.997002 59.752703 35.752491 59.752703 35.553827 C 59.2484 31.753729 57.633614 28.182859 56.747264 24.489734 C 56.502753 23.496411 55.876196 22.625343 55.376987 21.677866 C 55.071349 21.056402 54.505919 20.613227 53.757106 20.490972 C 51.699144 20.246461 49.681934 19.742159 47.562845 20.124206 C 46.569521 20.307589 46.126346 20.689636 45.881836 21.55561 C 45.744299 21.998785 45.683171 22.487806 45.560916 22.930981 C 42.433222 34.300711 40.008494 45.930234 36.55988 57.315246 C 36.498752 57.620883 36.376497 57.941803 36.376497 58.308569 C 36.31537 58.507233 36.376497 58.812871 36.498752 58.930032 C 37.380008 59.938638 38.067694 61.314008 39.748702 61.191753 C 40.314132 61.130625 40.935596 61.252881 41.501026 61.436263 C 43.946129 62.062821 43.946129 62.123949 44.934359 59.678845 C 45.316406 58.751744 45.560916 57.682011 45.881836 56.749815 C 47.562845 50.937601 48.871994 44.998038 50.308492 39.124696 C 50.446029 38.559266 50.247364 37.749326 51.317097 37.428406 C 51.561607 38.620394 51.755178 39.751254 52.060816 40.800611 C 53.069421 44.05056 52.565118 47.504269 53.879361 50.631963 C 54.505919 52.063368 54.872684 52.751053 56.258243 52.751053 C 58.000379 52.751053 59.752703 52.491261 61.448993 52.369005 C 62.320061 52.307878 62.686827 51.68132 62.564572 50.876474 C 62.197806 49.119056 62.946619 47.743685 64.072385 46.495664 C 64.500279 46.067771 64.760071 45.563468 65.065709 45.059165 C 67.123671 42.114854 69.125599 39.124696 71.183561 36.180384 C 71.504481 35.752491 71.748991 35.125934 72.375549 35.370444 C 72.131038 35.187061 72.192166 35.003678 72.375549 34.743886 C 72.436676 34.682759 72.635341 34.682759 72.696468 34.682759 C 72.879851 35.064806 72.635341 35.248189 72.375549 35.370444 C 72.253293 36.058129 72.192166 36.74072 72.008783 37.428406 L 67.322335 55.313317 C 66.563334 58.247441 66.940288 58.99116 69.752157 59.938638 C 70.500969 60.12202 71.321098 60.183148 72.131038 60.381813 C 74.75443 60.809706 74.75443 60.809706 75.503243 58.446106 C 75.564371 58.125186 75.625498 57.743139 75.747753 57.437501 C 77.948346 49.119056 80.189691 40.800611 82.38519 32.558575 C 83.011748 30.057438 83.500768 27.556301 84.066199 25.050071 C 84.631629 22.930981 82.874211 21.738993 82.06427 20.185334 Z M 109.449427 56.933198 L 109.388299 56.933198 C 109.128507 54.187551 108.822869 51.43681 108.685332 48.614753 C 108.135184 40.31159 107.065451 31.998239 107.004323 23.618666 C 106.943196 23.175491 106.744531 22.686471 106.744531 22.243296 C 106.744531 20.490972 105.878557 19.497649 104.258676 18.993346 C 103.433454 18.672426 102.745769 18.427916 101.940922 18.993346 C 101.43662 19.298984 100.871189 19.742159 100.382169 19.436521 C 99.067926 18.672426 97.560112 19.497649 96.383406 19.054474 C 95.374801 18.672426 95.130291 18.932218 94.753337 19.558776 C 94.065652 20.873019 93.316839 22.182168 92.690281 23.557539 C 89.623714 30.439486 86.557147 37.367278 83.561896 44.249225 L 78.559622 55.802338 C 77.749682 57.743139 77.933065 58.446106 79.75161 59.495463 C 80.999632 60.183148 82.252747 60.748578 83.561896 61.252881 C 84.815011 61.818311 85.319314 61.619646 86.006999 60.244275 C 86.633557 59.128697 87.122578 57.941803 87.621786 56.810943 L 88.936029 53.943041 C 89.119412 53.499866 89.440332 53.117818 89.944634 53.056691 C 92.934792 52.934436 95.879104 52.124495 98.930389 52.24675 C 99.816739 52.307878 100.183504 52.689925 100.259914 53.560993 L 100.810062 58.751744 C 100.947599 59.617718 101.375492 60.244275 102.185432 60.626323 C 103.250071 61.191753 104.197549 61.558518 105.435382 60.931961 C 106.133255 60.565195 107.004323 60.626323 107.814264 60.504068 C 109.189634 60.183148 109.388299 59.999765 109.449427 58.690616 Z M 98.685878 33.24626 L 99.434691 41.870343 C 99.495819 42.680284 99.312436 43.245714 98.446462 43.367969 C 96.811299 43.566634 95.252546 44.188097 93.622477 43.750016 C 94.37129 40.938148 97.071091 34.438248 98.003287 33.307388 C 98.125542 33.185133 98.446462 33.24626 98.685878 33.24626 Z M 124.318711 37.245023 C 122.882213 43.811144 121.308177 50.372171 119.876773 56.933198 C 119.571135 58.308569 119.876773 59.250952 121.124795 59.755255 C 122.561293 60.381813 124.135328 60.870833 125.688987 61.314008 C 126.819848 61.696056 127.385278 61.375136 127.813171 60.183148 C 128.317473 58.868905 128.755554 57.498628 129.061192 56.184385 C 130.130925 51.319649 131.063121 46.373408 132.132853 41.503578 C 133.059955 37.428406 134.007432 33.368516 135.000756 29.308625 C 135.382803 27.678557 135.566186 27.556301 137.379637 27.434046 C 139.381566 27.311791 141.317272 27.311791 143.319201 27.189536 C 145.43829 27.051999 145.942593 26.624106 146.125975 24.489734 C 146.248231 22.992109 146.064848 21.494483 146.064848 19.986669 C 146.064848 19.054474 145.43829 18.748836 144.689477 18.748836 C 142.066085 18.748836 139.381566 18.809963 136.691952 18.871091 C 131.689678 18.932218 126.682311 19.054474 121.690225 18.932218 C 119.189088 18.871091 118.440275 20.490972 118.058228 22.625343 C 117.935973 23.313028 118.119355 24.000714 118.180483 24.749527 C 118.31802 27.250663 118.56253 27.495174 121.007634 27.617429 C 121.690225 27.617429 122.37791 27.495174 123.065595 27.434046 C 124.058919 27.434046 125.123557 27.189536 126.254418 27.739684 C 125.62786 30.867379 125.06243 34.056201 124.318711 37.245023 Z M 151.377854 37.245023 C 149.946449 43.811144 148.372414 50.372171 146.935916 56.933198 C 146.630278 58.308569 146.935916 59.250952 148.189031 59.755255 C 149.62553 60.381813 151.194471 60.870833 152.753224 61.314008 C 153.884084 61.696056 154.444421 61.375136 154.872314 60.183148 C 155.376616 58.868905 155.819791 57.498628 156.125429 56.184385 C 157.195162 51.319649 158.122263 46.373408 159.191996 41.503578 C 160.124192 37.428406 161.071669 33.368516 162.059898 29.308625 C 162.441946 27.678557 162.625328 27.556301 164.443874 27.434046 C 166.440708 27.311791 168.381509 27.311791 170.378343 27.189536 C 172.502527 27.051999 173.001735 26.624106 173.185118 24.489734 C 173.307373 22.992109 173.123991 21.494483 173.123991 19.986669 C 173.123991 19.054474 172.502527 18.748836 171.753714 18.748836 C 169.130322 18.748836 166.440708 18.809963 163.756189 18.871091 C 158.748821 18.932218 153.746547 19.054474 148.754461 18.932218 C 146.253325 18.871091 145.504512 20.490972 145.122464 22.625343 C 145.000209 23.313028 145.183592 24.000714 145.24472 24.749527 C 145.382257 27.250663 145.626767 27.495174 148.066776 27.617429 C 148.754461 27.617429 149.442147 27.495174 150.129832 27.434046 C 151.118061 27.434046 152.187794 27.189536 153.318654 27.739684 C 152.692097 30.867379 152.126666 34.056201 151.377854 37.245023 Z M 176.7458 37.871581 C 177.188975 39.567871 177.63215 41.304913 178.319835 42.878948 C 178.808856 44.12697 178.6866 45.059165 177.754405 45.991361 C 175.069885 48.75229 172.808165 51.864703 170.505692 54.936364 C 168.992785 56.933198 169.313705 58.868905 171.499016 60.183148 C 172.441399 60.748578 173.190212 61.436263 174.000153 62.001693 C 175.19214 62.745412 175.497778 62.745412 176.317907 61.696056 C 178.625473 58.751744 180.943227 55.802338 183.250793 52.934436 C 185.1865 50.494426 187.305589 48.125732 189.24639 45.685723 C 194.437141 38.941313 199.500542 32.181622 204.691292 25.432118 C 205.378978 24.489734 206.382489 23.557539 206.122697 22.426678 C 205.822153 21.239785 205.012212 20.185334 204.18699 19.176729 C 203.315922 18.06115 201.624725 18.611299 200.509147 17.740231 C 200.249355 17.49572 199.622797 18.305661 199.256032 18.809963 C 195.74629 23.236619 192.068447 27.556301 188.879625 32.303877 C 188.191939 33.24626 187.381999 34.117328 186.622998 35.003678 C 186.256233 35.370444 185.874185 35.935874 185.1865 35.553827 C 183.872257 30.867379 182.50198 26.180931 180.56118 21.677866 C 179.435413 18.993346 179.634078 19.375393 176.684672 19.375393 C 175.940953 19.375393 175.314396 19.558776 174.748965 20.063079 L 171.819935 22.548934 C 174.000153 27.556301 175.497778 32.68083 176.7458 37.871581 Z M 218.877985 18.244533 C 215.994801 18.672426 213.249154 19.558776 210.381251 20.063079 C 208.562706 20.307589 207.813893 20.995274 207.492973 22.686471 C 207.370718 23.313028 207.126208 24.000714 207.009046 24.688399 C 205.496139 31.937111 203.310828 39.063569 201.375121 46.190026 C 200.305388 50.005406 199.256032 53.805504 198.064044 57.559756 C 197.681996 58.812871 198.064044 59.55659 198.873984 60.305403 C 199.500542 60.931961 200.183133 61.314008 201.054201 61.314008 C 202.001679 61.375136 202.872747 61.619646 203.754003 61.940566 C 205.435011 62.567124 205.557266 62.444868 206.183824 60.626323 C 206.932637 58.064058 207.554101 55.435572 208.379323 52.934436 C 208.868344 51.43681 208.944753 49.501103 210.121459 48.492498 C 211.308353 47.504269 213.065771 48.064605 214.563397 47.927068 C 222.372445 47.504269 228.128626 43.627761 232.188516 37.122768 C 234.322887 33.750563 234.873036 29.874055 233.879712 26.058676 C 232.815074 22.121041 230.44638 19.176729 226.126698 18.489043 L 222.127935 17.923613 C 220.941041 18.06115 219.871308 18.122278 218.877985 18.244533 Z M 215.001478 28.626034 C 215.245988 27.877221 215.689163 27.434046 216.376848 27.311791 C 218.939113 26.807488 221.445344 26.746361 224.007608 26.929744 C 224.878676 26.990871 225.184314 27.556301 225.444106 28.243987 C 225.943315 29.935183 225.444106 31.555064 224.573038 32.864213 C 221.812109 37.122768 217.874474 39.430334 212.316958 39.491462 C 213.249154 35.614954 214.196631 32.120494 215.001478 28.626034 Z M 239.060275 36.119257 C 241.444251 36.119257 242.99791 34.499376 242.936782 32.181622 C 242.936782 31.127171 242.554735 30.118566 242.009681 29.247498 C 240.756565 27.372919 238.377684 26.929744 236.620266 28.121731 C 235.244895 29.125243 234.501176 31.616192 235.061512 33.490771 C 235.504687 35.003678 237.246823 36.119257 239.060275 36.119257 Z M 236.620266 50.433299 C 235.244895 51.375682 234.501176 53.943041 235.061512 55.802338 C 235.504687 57.315246 237.246823 58.446106 239.060275 58.446106 C 241.444251 58.446106 242.99791 56.810943 242.936782 54.493189 C 242.936782 53.438738 242.554735 52.430133 242.009681 51.559065 C 240.756565 49.684486 238.377684 49.241311 236.620266 50.433299 Z M 236.620266 50.433299 " stroke="#0d3b66" stroke-width="0.429773" stroke-opacity="1" stroke-miterlimit="4"/></svg>