<svg xmlns="http://www.w3.org/2000/svg" xmlns:xlink="http://www.w3.org/1999/xlink" width="500" zoomAndPan="magnify" viewBox="0 0 375 112.499997" height="150" preserveAspectRatio="xMidYMid meet" version="1.0"><defs><clipPath id="1a1ff69e85"><path d="M 18 17.238281 L 357.445312 17.238281 L 357.445312 79.730469 L 18 79.730469 Z M 18 17.238281 " clip-rule="nonzero"/></clipPath></defs><g clip-path="url(#1a1ff69e85)"><path fill="#1e1e1e" d="M 24.597656 26.398438 C 14.546875 29.734375 18.589844 58.3125 20.621094 63.757812 C 23.171875 70.585938 32.601562 74.066406 38.925781 75.828125 C 57.070312 80.871094 76.808594 78.476562 95.394531 79.617188 C 112.292969 80.648438 129.230469 79.800781 146.152344 80.207031 C 187.101562 81.195312 227.738281 81.410156 268.714844 80.523438 C 286.792969 80.132812 341.246094 82.921875 348.042969 79.792969 C 351.859375 78.039062 354.011719 73.15625 355.355469 69.472656 C 358.386719 61.148438 361.046875 35.242188 352.941406 28.511719 C 345.226562 22.113281 333.894531 20.964844 324.394531 19.398438 C 305.488281 16.277344 211.257812 18.628906 183.105469 22.332031 C 163.976562 24.847656 42.085938 20.589844 24.597656 26.398438 Z M 24.597656 26.398438 " fill-opacity="1" fill-rule="evenodd"/></g><path fill="#faf0ca" d="M 142.777344 38.535156 C 142.683594 38.402344 142.273438 38.449219 142.046875 38.355469 C 141.410156 38.171875 140.910156 38.765625 140.363281 38.671875 C 139.726562 38.628906 139.496094 37.71875 138.722656 37.671875 C 138.3125 37.671875 137.902344 37.488281 137.492188 37.351562 C 136.859375 37.082031 136.355469 37.351562 135.902344 37.808594 C 135.625 38.128906 135.355469 38.492188 135.125 38.8125 L 128.570312 48.191406 C 128.207031 48.734375 127.84375 49.28125 127.433594 49.828125 C 127.296875 50.054688 127.066406 50.195312 126.796875 50.101562 C 126.660156 50.054688 126.523438 49.875 126.523438 49.738281 C 126.15625 46.960938 124.976562 44.363281 124.335938 41.679688 C 124.15625 40.953125 123.699219 40.3125 123.335938 39.628906 C 123.109375 39.175781 122.695312 38.855469 122.152344 38.765625 C 120.648438 38.585938 119.191406 38.222656 117.644531 38.492188 C 116.917969 38.628906 116.597656 38.902344 116.414062 39.539062 C 116.324219 39.855469 116.277344 40.21875 116.183594 40.539062 C 113.910156 48.828125 112.132812 57.292969 109.628906 65.582031 C 109.585938 65.808594 109.496094 66.035156 109.496094 66.308594 C 109.449219 66.445312 109.496094 66.671875 109.585938 66.765625 C 110.222656 67.492188 110.722656 68.496094 111.953125 68.402344 C 112.363281 68.359375 112.816406 68.449219 113.230469 68.589844 C 115 69.039062 115 69.089844 115.734375 67.3125 C 116.003906 66.628906 116.183594 65.855469 116.414062 65.171875 C 117.644531 60.9375 118.601562 56.613281 119.648438 52.335938 C 119.738281 51.921875 119.601562 51.332031 120.375 51.101562 C 120.558594 51.96875 120.691406 52.785156 120.921875 53.5625 C 121.652344 55.929688 121.285156 58.433594 122.242188 60.710938 C 122.695312 61.757812 122.972656 62.257812 123.972656 62.257812 C 125.246094 62.257812 126.523438 62.078125 127.75 61.984375 C 128.386719 61.941406 128.664062 61.484375 128.570312 60.894531 C 128.300781 59.617188 128.84375 58.617188 129.664062 57.707031 C 129.984375 57.386719 130.164062 57.023438 130.390625 56.65625 C 131.894531 54.519531 133.351562 52.335938 134.855469 50.195312 C 135.082031 49.875 135.261719 49.417969 135.71875 49.601562 C 135.539062 49.464844 135.582031 49.328125 135.71875 49.148438 C 135.761719 49.097656 135.902344 49.097656 135.945312 49.097656 C 136.082031 49.375 135.902344 49.511719 135.71875 49.601562 C 135.625 50.101562 135.582031 50.601562 135.445312 51.101562 L 132.03125 64.125 C 131.484375 66.265625 131.757812 66.8125 133.808594 67.492188 C 134.355469 67.628906 134.945312 67.675781 135.539062 67.8125 C 137.449219 68.132812 137.449219 68.132812 137.992188 66.402344 C 138.042969 66.171875 138.085938 65.902344 138.179688 65.671875 C 139.769531 59.617188 141.410156 53.5625 143 47.550781 C 143.457031 45.730469 143.820312 43.910156 144.234375 42.089844 C 144.640625 40.539062 143.367188 39.675781 142.777344 38.535156 Z M 142.777344 38.535156 " fill-opacity="1" fill-rule="nonzero"/><path fill="#faf0ca" d="M 162.710938 65.308594 L 162.664062 65.308594 C 162.484375 63.304688 162.257812 61.300781 162.164062 59.253906 C 161.757812 53.199219 160.980469 47.144531 160.9375 41.039062 C 160.890625 40.722656 160.753906 40.359375 160.753906 40.039062 C 160.753906 38.765625 160.117188 38.035156 158.933594 37.671875 C 158.339844 37.445312 157.839844 37.265625 157.25 37.671875 C 156.886719 37.902344 156.472656 38.222656 156.109375 37.992188 C 155.152344 37.445312 154.0625 38.035156 153.199219 37.71875 C 152.464844 37.445312 152.285156 37.628906 152.015625 38.082031 C 151.511719 39.039062 150.964844 39.996094 150.511719 40.996094 C 148.277344 46.003906 146.046875 51.058594 143.863281 56.066406 L 140.21875 64.488281 C 139.628906 65.902344 139.765625 66.402344 141.085938 67.175781 C 141.996094 67.675781 142.90625 68.085938 143.863281 68.449219 C 144.777344 68.859375 145.140625 68.722656 145.640625 67.71875 C 146.09375 66.902344 146.460938 66.035156 146.824219 65.214844 L 147.777344 63.121094 C 147.914062 62.804688 148.144531 62.53125 148.507812 62.484375 C 150.691406 62.394531 152.832031 61.800781 155.0625 61.894531 C 155.703125 61.941406 155.972656 62.214844 156.019531 62.847656 L 156.429688 66.628906 C 156.523438 67.265625 156.835938 67.71875 157.429688 67.996094 C 158.207031 68.402344 158.886719 68.675781 159.796875 68.21875 C 160.296875 67.949219 160.9375 67.996094 161.527344 67.902344 C 162.527344 67.675781 162.664062 67.539062 162.710938 66.585938 Z M 154.882812 48.050781 L 155.425781 54.335938 C 155.472656 54.925781 155.339844 55.339844 154.699219 55.429688 C 153.515625 55.566406 152.378906 56.023438 151.195312 55.703125 C 151.738281 53.65625 153.699219 48.917969 154.382812 48.097656 C 154.46875 48.007812 154.699219 48.050781 154.882812 48.050781 Z M 154.882812 48.050781 " fill-opacity="1" fill-rule="nonzero"/><path fill="#faf0ca" d="M 173.542969 50.96875 C 172.496094 55.746094 171.355469 60.53125 170.308594 65.308594 C 170.085938 66.308594 170.308594 66.992188 171.222656 67.355469 C 172.269531 67.8125 173.410156 68.175781 174.542969 68.496094 C 175.363281 68.769531 175.773438 68.539062 176.09375 67.675781 C 176.457031 66.71875 176.777344 65.714844 177.003906 64.761719 C 177.777344 61.210938 178.460938 57.613281 179.234375 54.0625 C 179.914062 51.101562 180.601562 48.144531 181.328125 45.183594 C 181.605469 44 181.738281 43.910156 183.058594 43.820312 C 184.515625 43.726562 185.925781 43.726562 187.382812 43.636719 C 188.929688 43.546875 189.292969 43.226562 189.433594 41.679688 C 189.523438 40.589844 189.386719 39.492188 189.386719 38.402344 C 189.386719 37.71875 188.929688 37.488281 188.386719 37.488281 C 186.476562 37.488281 184.515625 37.535156 182.558594 37.582031 C 178.917969 37.628906 175.273438 37.71875 171.632812 37.628906 C 169.808594 37.582031 169.265625 38.765625 168.988281 40.3125 C 168.902344 40.8125 169.039062 41.316406 169.082031 41.859375 C 169.171875 43.683594 169.355469 43.863281 171.128906 43.957031 C 171.632812 43.957031 172.132812 43.863281 172.632812 43.820312 C 173.359375 43.820312 174.136719 43.636719 174.957031 44.046875 C 174.5 46.324219 174.089844 48.644531 173.542969 50.96875 Z M 173.542969 50.96875 " fill-opacity="1" fill-rule="nonzero"/><path fill="#faf0ca" d="M 193.25 50.96875 C 192.207031 55.746094 191.066406 60.53125 190.019531 65.308594 C 189.792969 66.308594 190.019531 66.992188 190.933594 67.355469 C 191.980469 67.8125 193.117188 68.175781 194.253906 68.496094 C 195.074219 68.769531 195.484375 68.539062 195.804688 67.675781 C 196.167969 66.71875 196.488281 65.714844 196.714844 64.761719 C 197.488281 61.210938 198.171875 57.613281 198.941406 54.0625 C 199.625 51.101562 200.3125 48.144531 201.039062 45.183594 C 201.3125 44 201.445312 43.910156 202.769531 43.820312 C 204.226562 43.726562 205.636719 43.726562 207.09375 43.636719 C 208.640625 43.546875 209.003906 43.226562 209.140625 41.679688 C 209.234375 40.589844 209.097656 39.492188 209.097656 38.402344 C 209.097656 37.71875 208.640625 37.488281 208.09375 37.488281 C 206.183594 37.488281 204.226562 37.535156 202.265625 37.582031 C 198.628906 37.628906 194.984375 37.71875 191.339844 37.628906 C 189.519531 37.582031 188.972656 38.765625 188.699219 40.3125 C 188.609375 40.8125 188.746094 41.316406 188.792969 41.859375 C 188.882812 43.683594 189.066406 43.863281 190.839844 43.957031 C 191.339844 43.957031 191.839844 43.863281 192.34375 43.820312 C 193.070312 43.820312 193.84375 43.636719 194.664062 44.046875 C 194.207031 46.324219 193.800781 48.644531 193.25 50.96875 Z M 193.25 50.96875 " fill-opacity="1" fill-rule="nonzero"/><path fill="#faf0ca" d="M 211.734375 51.421875 C 212.050781 52.652344 212.371094 53.925781 212.871094 55.066406 C 213.234375 55.972656 213.148438 56.65625 212.464844 57.34375 C 210.503906 59.34375 208.867188 61.621094 207.179688 63.851562 C 206.089844 65.308594 206.316406 66.71875 207.910156 67.675781 C 208.589844 68.085938 209.140625 68.589844 209.730469 68.996094 C 210.59375 69.542969 210.824219 69.542969 211.414062 68.769531 C 213.097656 66.628906 214.78125 64.488281 216.46875 62.394531 C 217.882812 60.617188 219.429688 58.890625 220.835938 57.113281 C 224.617188 52.195312 228.304688 47.28125 232.082031 42.363281 C 232.582031 41.679688 233.316406 40.996094 233.132812 40.175781 C 232.902344 39.3125 232.3125 38.535156 231.71875 37.808594 C 231.085938 36.988281 229.851562 37.402344 229.035156 36.761719 C 228.851562 36.582031 228.394531 37.171875 228.125 37.535156 C 225.574219 40.769531 222.890625 43.910156 220.566406 47.371094 C 220.066406 48.050781 219.472656 48.691406 218.925781 49.328125 C 218.652344 49.601562 218.382812 50.011719 217.882812 49.738281 C 216.921875 46.324219 215.921875 42.90625 214.511719 39.628906 C 213.691406 37.671875 213.828125 37.945312 211.6875 37.945312 C 211.144531 37.945312 210.6875 38.082031 210.273438 38.449219 L 208.136719 40.269531 C 209.730469 43.910156 210.824219 47.644531 211.734375 51.421875 Z M 211.734375 51.421875 " fill-opacity="1" fill-rule="nonzero"/><path fill="#faf0ca" d="M 242.414062 37.125 C 240.320312 37.445312 238.316406 38.082031 236.226562 38.449219 C 234.90625 38.628906 234.355469 39.128906 234.128906 40.359375 C 234.035156 40.8125 233.855469 41.316406 233.765625 41.816406 C 232.671875 47.09375 231.078125 52.285156 229.667969 57.476562 C 228.894531 60.253906 228.121094 63.03125 227.253906 65.765625 C 226.980469 66.671875 227.253906 67.21875 227.847656 67.769531 C 228.300781 68.21875 228.800781 68.496094 229.441406 68.496094 C 230.121094 68.539062 230.761719 68.722656 231.398438 68.953125 C 232.628906 69.402344 232.71875 69.316406 233.171875 67.996094 C 233.722656 66.128906 234.175781 64.21875 234.769531 62.394531 C 235.132812 61.300781 235.175781 59.890625 236.039062 59.160156 C 236.910156 58.433594 238.179688 58.839844 239.277344 58.753906 C 244.964844 58.433594 249.15625 55.609375 252.113281 50.875 C 253.660156 48.417969 254.070312 45.597656 253.34375 42.816406 C 252.570312 39.949219 250.839844 37.808594 247.699219 37.308594 L 244.785156 36.898438 C 243.917969 36.988281 243.144531 37.035156 242.414062 37.125 Z M 239.59375 44.683594 C 239.777344 44.136719 240.09375 43.820312 240.597656 43.726562 C 242.460938 43.363281 244.285156 43.320312 246.148438 43.457031 C 246.785156 43.5 247.015625 43.910156 247.195312 44.410156 C 247.558594 45.640625 247.195312 46.824219 246.558594 47.78125 C 244.554688 50.875 241.6875 52.558594 237.636719 52.605469 C 238.316406 49.78125 239 47.234375 239.59375 44.683594 Z M 239.59375 44.683594 " fill-opacity="1" fill-rule="nonzero"/><path fill="#faf0ca" d="M 257.117188 50.148438 C 258.847656 50.148438 259.984375 48.964844 259.941406 47.28125 C 259.941406 46.503906 259.667969 45.777344 259.257812 45.140625 C 258.347656 43.773438 256.617188 43.457031 255.339844 44.320312 C 254.339844 45.046875 253.792969 46.871094 254.207031 48.234375 C 254.519531 49.328125 255.796875 50.148438 257.117188 50.148438 Z M 255.339844 60.574219 C 254.339844 61.257812 253.792969 63.121094 254.207031 64.488281 C 254.519531 65.582031 255.796875 66.402344 257.117188 66.402344 C 258.847656 66.402344 259.984375 65.214844 259.941406 63.53125 C 259.941406 62.757812 259.667969 62.027344 259.257812 61.394531 C 258.347656 60.027344 256.617188 59.710938 255.339844 60.574219 Z M 255.339844 60.574219 " fill-opacity="1" fill-rule="nonzero"/><path stroke-linecap="butt" transform="matrix(0.728328, 0, 0, 0.728328, 83.00249, 23.838794)" fill="none" stroke-linejoin="miter" d="M 82.06595 20.183575 C 81.942594 19.985133 81.379447 20.065582 81.073738 19.926136 C 80.188792 19.679424 79.502288 20.489284 78.751425 20.371291 C 77.887932 20.306931 77.566133 19.051917 76.509561 18.99292 C 75.946414 18.99292 75.383266 18.746208 74.814755 18.547766 C 73.951262 18.183061 73.259395 18.547766 72.637251 19.175273 C 72.251093 19.620428 71.886388 20.124579 71.564589 20.553644 L 62.564955 33.43095 C 62.060804 34.17645 61.572743 34.927313 61.004232 35.688903 C 60.82188 35.994612 60.500081 36.182328 60.135376 36.058972 C 59.936933 35.994612 59.754581 35.753263 59.754581 35.554821 C 59.25043 31.752234 57.636074 28.18027 56.745764 24.490313 C 56.504415 23.498101 55.876908 22.623881 55.37812 21.679939 C 55.072411 21.057795 54.503901 20.61264 53.7584 20.489284 C 51.698889 20.247935 49.682285 19.743784 47.563777 20.124579 C 46.571565 20.306931 46.12641 20.687726 45.879698 21.556582 C 45.745615 21.996374 45.681256 22.489798 45.563263 22.92959 C 42.43109 34.299806 40.006874 45.932825 36.558265 57.313768 C 36.499269 57.619476 36.375913 57.941275 36.375913 58.30598 C 36.316916 58.509786 36.375913 58.815494 36.499269 58.928124 C 37.378852 59.936426 38.065356 61.314797 39.749435 61.19144 C 40.312582 61.132444 40.934726 61.250437 41.503237 61.438153 C 43.943543 62.060297 43.943543 62.124656 44.935756 59.678987 C 45.316551 58.751135 45.563263 57.683836 45.879698 56.75062 C 47.563777 50.936792 48.872425 44.999609 50.309792 39.126785 C 50.443875 38.558274 50.245432 37.748414 51.318094 37.426616 C 51.559443 38.622634 51.752522 39.748929 52.058231 40.800137 C 53.071897 44.050303 52.567746 47.504274 53.881757 50.631084 C 54.503901 52.063087 54.873969 52.749591 56.257703 52.749591 C 58.000779 52.749591 59.754581 52.492152 61.449387 52.368796 C 62.318243 52.3098 62.688311 51.682292 62.564955 50.877796 C 62.20025 49.11863 62.94575 47.745623 64.072045 46.495972 C 64.50111 46.066907 64.758549 45.562756 65.064258 45.058605 C 67.123769 42.114148 69.124283 39.126785 71.183794 36.182328 C 71.505593 35.753263 71.746942 35.125756 72.374449 35.372468 C 72.1331 35.184752 72.192097 35.0024 72.374449 34.744961 C 72.438809 34.680601 72.637251 34.680601 72.696248 34.680601 C 72.8786 35.066759 72.637251 35.249112 72.374449 35.372468 C 72.251093 36.058972 72.192097 36.740112 72.009744 37.426616 L 67.322211 55.313253 C 66.565985 58.246983 66.941416 58.992483 69.751791 59.936426 C 70.502654 60.124142 71.323241 60.183138 72.1331 60.381581 C 74.755759 60.810645 74.755759 60.810645 75.501259 58.445426 C 75.565619 58.123627 75.624615 57.742832 75.747971 57.437124 C 77.946928 49.11863 80.188792 40.800137 82.387749 32.55673 C 83.009893 30.057428 83.503317 27.558126 84.066465 25.048097 C 84.629613 22.92959 82.87581 21.738935 82.06595 20.183575 Z M 109.451011 56.932973 L 109.386651 56.932973 C 109.129212 54.186958 108.823504 51.43558 108.684058 48.614479 C 108.137 40.312076 107.064338 31.998946 107.005342 23.616093 C 106.940982 23.176302 106.742539 22.688241 106.742539 22.243086 C 106.742539 20.489284 105.879047 19.497072 104.259327 18.99292 C 103.433377 18.671122 102.746874 18.429773 101.942377 18.99292 C 101.438226 19.298629 100.869715 19.743784 100.381654 19.438075 C 99.067643 18.671122 97.560553 19.497072 96.385988 19.051917 C 95.372322 18.671122 95.130973 18.933924 94.755542 19.561431 C 94.063675 20.875442 93.318175 22.18409 92.690667 23.557097 C 89.622854 30.438223 86.555041 37.367619 83.562314 44.248745 L 78.558346 55.801314 C 77.748486 57.742832 77.930838 58.445426 79.749 59.496635 C 80.998652 60.183138 82.253666 60.746286 83.562314 61.250437 C 84.817328 61.818948 85.321479 61.620505 86.007983 60.242135 C 86.63549 59.126566 87.123552 57.941275 87.622339 56.809616 L 88.93635 53.945609 C 89.118703 53.500454 89.440502 53.119659 89.944653 53.0553 C 92.93738 52.931944 95.876473 52.122084 98.928197 52.24544 C 99.818506 52.3098 100.183211 52.690595 100.258298 53.559451 L 100.810719 58.751135 C 100.950165 59.619991 101.373866 60.242135 102.183726 60.628293 C 103.251025 61.19144 104.194967 61.556145 105.433892 60.934002 C 106.131122 60.563933 107.005342 60.628293 107.815201 60.504937 C 109.188209 60.183138 109.386651 60.000786 109.451011 58.692138 Z M 98.686848 33.248597 L 99.432348 41.872799 C 99.496708 42.682659 99.314355 43.245806 98.445499 43.369163 C 96.809689 43.567605 95.25433 44.189749 93.623883 43.749958 C 94.369383 40.939583 97.072492 34.439252 98.005708 33.307594 C 98.1237 33.184238 98.445499 33.248597 98.686848 33.248597 Z M 124.318106 37.244263 C 122.880739 43.808954 121.309289 50.373645 119.877286 56.932973 C 119.571577 58.30598 119.877286 59.249922 121.126937 59.754073 C 122.55894 60.381581 124.135754 60.869642 125.691113 61.314797 C 126.817409 61.695592 127.385919 61.373793 127.814984 60.183138 C 128.319135 58.869127 128.753563 57.49612 129.059272 56.182109 C 130.131934 51.317587 131.06515 46.372616 132.132449 41.502731 C 133.060301 37.426616 134.009607 33.36659 135.00182 29.306565 C 135.382615 27.676119 135.564967 27.558126 137.377766 27.43477 C 139.383644 27.311414 141.319799 27.311414 143.320313 27.188058 C 145.438821 27.053975 145.942972 26.62491 146.125324 24.490313 C 146.248681 22.993949 146.066328 21.492223 146.066328 19.985133 C 146.066328 19.051917 145.438821 18.746208 144.687957 18.746208 C 142.065299 18.746208 139.383644 18.810568 136.691262 18.869564 C 131.687294 18.933924 126.683326 19.051917 121.690084 18.933924 C 119.190782 18.869564 118.439918 20.489284 118.059123 22.623881 C 117.935767 23.310385 118.11812 24.002252 118.18248 24.747752 C 118.316562 27.252417 118.563275 27.493766 121.008944 27.617122 C 121.690084 27.617122 122.376588 27.493766 123.063092 27.43477 C 124.060667 27.43477 125.122603 27.188058 126.254261 27.740478 C 125.626754 30.867288 125.063606 34.058457 124.318106 37.244263 Z M 151.376005 37.244263 C 149.944001 43.808954 148.372551 50.373645 146.935184 56.932973 C 146.629476 58.30598 146.935184 59.249922 148.190199 59.754073 C 149.627566 60.381581 151.193652 60.869642 152.754376 61.314797 C 153.886034 61.695592 154.443818 61.373793 154.872883 60.183138 C 155.377034 58.869127 155.822189 57.49612 156.127897 56.182109 C 157.195196 51.317587 158.123049 46.372616 159.190347 41.502731 C 160.123563 37.426616 161.072869 33.36659 162.059718 29.306565 C 162.440513 27.676119 162.622866 27.558126 164.446391 27.43477 C 166.441543 27.311414 168.383061 27.311414 170.378212 27.188058 C 172.502083 27.053975 173.000871 26.62491 173.183223 24.490313 C 173.306579 22.993949 173.124227 21.492223 173.124227 19.985133 C 173.124227 19.051917 172.502083 18.746208 171.751219 18.746208 C 169.128561 18.746208 166.441543 18.810568 163.754524 18.869564 C 158.750556 18.933924 153.746588 19.051917 148.753346 18.933924 C 146.254044 18.869564 145.50318 20.489284 145.122385 22.623881 C 144.999029 23.310385 145.181382 24.002252 145.245742 24.747752 C 145.379824 27.252417 145.626537 27.493766 148.066843 27.617122 C 148.753346 27.617122 149.43985 27.493766 150.131717 27.43477 C 151.118566 27.43477 152.185865 27.188058 153.317523 27.740478 C 152.690016 30.867288 152.126868 34.058457 151.376005 37.244263 Z M 176.744461 37.87177 C 177.189616 39.566576 177.63477 41.304288 178.321274 42.881101 C 178.809335 44.125389 178.685979 45.058605 177.752763 45.991821 C 175.071108 48.753925 172.807791 51.864645 170.506931 54.937821 C 168.994478 56.932973 169.316277 58.869127 171.499144 60.183138 C 172.443086 60.746286 173.188586 61.438153 173.998446 62.0013 C 175.194464 62.7468 175.500173 62.7468 176.315396 61.695592 C 178.626983 58.751135 180.943933 55.801314 183.250156 52.931944 C 185.186311 50.497001 187.304818 48.126418 189.246336 45.686112 C 194.43802 38.939069 199.500985 32.181299 204.692669 25.434255 C 205.379173 24.490313 206.382112 23.557097 206.124673 22.425439 C 205.824327 21.240147 205.014468 20.183575 204.188518 19.175273 C 203.314298 18.059705 201.624856 18.612125 200.509287 17.737906 C 200.251848 17.496557 199.624341 18.306417 199.254273 18.810568 C 195.746668 23.235298 192.067437 27.558126 188.881631 32.304655 C 188.189764 33.248597 187.379905 34.117454 186.623678 35.0024 C 186.253609 35.372468 185.872814 35.935615 185.186311 35.554821 C 183.8723 30.867288 182.504656 26.179755 180.563138 21.679939 C 179.436843 18.99292 179.635285 19.373715 176.685465 19.373715 C 175.939964 19.373715 175.312457 19.561431 174.74931 20.065582 L 171.820942 22.548795 C 173.998446 27.558126 175.500173 32.680087 176.744461 37.87177 Z M 218.878624 18.242057 C 215.993163 18.671122 213.247148 19.561431 210.383141 20.065582 C 208.564979 20.306931 207.814115 20.993435 207.492317 22.688241 C 207.368961 23.310385 207.127612 24.002252 207.009619 24.688755 C 205.497166 31.934587 203.308935 39.062425 201.37278 46.190263 C 200.305482 50.003577 199.254273 53.806163 198.063618 57.56048 C 197.682823 58.815494 198.063618 59.555631 198.873478 60.306494 C 199.500985 60.934002 200.182125 61.314797 201.056345 61.314797 C 202.000287 61.373793 202.874507 61.620505 203.75409 61.942304 C 205.432806 62.564448 205.556162 62.446455 206.183669 60.628293 C 206.934533 58.064631 207.556677 55.436609 208.377263 52.931944 C 208.870688 51.43558 208.945774 49.499425 210.120339 48.491123 C 211.310994 47.504274 213.064796 48.062058 214.561159 47.927976 C 222.370139 47.504274 228.130334 43.626601 232.190359 37.120907 C 234.324957 33.752748 234.872014 29.875076 233.879802 26.056399 C 232.812503 22.11973 230.447283 19.175273 226.124456 18.488769 L 222.12879 17.925622 C 220.943498 18.059705 219.870836 18.124064 218.878624 18.242057 Z M 215.000951 28.625425 C 215.247663 27.874561 215.687454 27.43477 216.379321 27.311414 C 218.93762 26.807263 221.447649 26.748266 224.005948 26.930619 C 224.880168 26.989615 225.185876 27.558126 225.443315 28.24463 C 225.942103 29.934072 225.443315 31.553792 224.574459 32.862439 C 221.812354 37.120907 217.875685 39.432493 212.319296 39.49149 C 213.247148 35.613817 214.196454 32.122302 215.000951 28.625425 Z M 239.060759 36.117968 C 241.442069 36.117968 242.997429 34.498249 242.938432 32.181299 C 242.938432 31.124727 242.552274 30.116425 242.01058 29.247568 C 240.755565 27.37041 238.379619 26.930619 236.620453 28.121273 C 235.247446 29.124212 234.501946 31.618151 235.05973 33.489946 C 235.504885 35.0024 237.24796 36.117968 239.060759 36.117968 Z M 236.620453 50.432641 C 235.247446 51.376584 234.501946 53.945609 235.05973 55.801314 C 235.504885 57.313768 237.24796 58.445426 239.060759 58.445426 C 241.442069 58.445426 242.997429 56.809616 242.938432 54.492667 C 242.938432 53.436095 242.552274 52.427793 242.01058 51.558936 C 240.755565 49.687141 238.379619 49.241987 236.620453 50.432641 Z M 236.620453 50.432641 " stroke="#0d3b66" stroke-width="0.43" stroke-opacity="1" stroke-miterlimit="4"/></svg>