<svg xmlns="http://www.w3.org/2000/svg" xmlns:xlink="http://www.w3.org/1999/xlink" width="500" zoomAndPan="magnify" viewBox="0 0 375 374.999991" height="500" preserveAspectRatio="xMidYMid meet" version="1.0"><defs><g/><clipPath id="352703a2b0"><path d="M 9 147 L 366.617188 147 L 366.617188 212.796875 L 9 212.796875 Z M 9 147 " clip-rule="nonzero"/></clipPath></defs><rect x="-37.5" width="450" fill="#ffffff" y="-37.499999" height="449.999989" fill-opacity="1"/><rect x="-37.5" width="450" fill="#faf0ca" y="-37.499999" height="449.999989" fill-opacity="1"/><g clip-path="url(#352703a2b0)"><path fill="#0d3b66" d="M 16.171875 156.644531 C 5.589844 160.15625 9.84375 190.246094 11.984375 195.980469 C 14.667969 203.167969 24.597656 206.832031 31.257812 208.6875 C 50.359375 214 71.140625 211.476562 90.710938 212.675781 C 108.503906 213.761719 126.335938 212.871094 144.152344 213.300781 C 187.265625 214.339844 230.054688 214.566406 273.195312 213.632812 C 292.230469 213.21875 349.5625 216.15625 356.71875 212.863281 C 360.738281 211.015625 363.003906 205.875 364.417969 201.996094 C 367.609375 193.234375 370.410156 165.957031 361.875 158.871094 C 353.753906 152.132812 341.824219 150.925781 331.820312 149.273438 C 311.914062 145.988281 212.699219 148.464844 183.058594 152.363281 C 162.917969 155.011719 34.585938 150.53125 16.171875 156.644531 Z M 16.171875 156.644531 " fill-opacity="1" fill-rule="evenodd"/></g><g fill="#faf0ca" fill-opacity="1"><g transform="translate(107.043196, 201.49481)"><g><path d="M 33.554688 -32.070312 C 33.457031 -32.210938 33.027344 -32.164062 32.789062 -32.261719 C 32.117188 -32.453125 31.589844 -31.828125 31.015625 -31.925781 C 30.34375 -31.972656 30.101562 -32.929688 29.289062 -32.980469 C 28.855469 -32.980469 28.425781 -33.171875 27.992188 -33.316406 C 27.324219 -33.601562 26.796875 -33.316406 26.316406 -32.835938 C 26.027344 -32.5 25.742188 -32.117188 25.5 -31.78125 L 18.597656 -21.90625 C 18.214844 -21.332031 17.832031 -20.757812 17.402344 -20.179688 C 17.257812 -19.941406 17.015625 -19.796875 16.730469 -19.894531 C 16.585938 -19.941406 16.441406 -20.132812 16.441406 -20.277344 C 16.058594 -23.199219 14.8125 -25.933594 14.140625 -28.761719 C 13.949219 -29.527344 13.46875 -30.199219 13.085938 -30.917969 C 12.847656 -31.398438 12.414062 -31.734375 11.839844 -31.828125 C 10.257812 -32.019531 8.722656 -32.402344 7.09375 -32.117188 C 6.328125 -31.972656 5.992188 -31.683594 5.800781 -31.015625 C 5.703125 -30.679688 5.65625 -30.296875 5.558594 -29.960938 C 3.164062 -21.234375 1.292969 -12.320312 -1.34375 -3.59375 C -1.390625 -3.355469 -1.484375 -3.117188 -1.484375 -2.828125 C -1.535156 -2.683594 -1.484375 -2.445312 -1.390625 -2.347656 C -0.71875 -1.582031 -0.191406 -0.527344 1.101562 -0.625 C 1.535156 -0.671875 2.011719 -0.574219 2.445312 -0.429688 C 4.3125 0.046875 4.3125 0.0976562 5.082031 -1.773438 C 5.367188 -2.492188 5.558594 -3.308594 5.800781 -4.027344 C 7.09375 -8.484375 8.101562 -13.039062 9.203125 -17.542969 C 9.300781 -17.976562 9.15625 -18.597656 9.96875 -18.839844 C 10.164062 -17.925781 10.304688 -17.066406 10.546875 -16.25 C 11.3125 -13.757812 10.929688 -11.121094 11.9375 -8.722656 C 12.414062 -7.621094 12.703125 -7.09375 13.757812 -7.09375 C 15.097656 -7.09375 16.441406 -7.285156 17.734375 -7.382812 C 18.40625 -7.429688 18.695312 -7.910156 18.597656 -8.53125 C 18.3125 -9.875 18.886719 -10.929688 19.75 -11.886719 C 20.085938 -12.222656 20.277344 -12.605469 20.515625 -12.992188 C 22.097656 -15.242188 23.632812 -17.542969 25.214844 -19.796875 C 25.453125 -20.132812 25.644531 -20.613281 26.125 -20.421875 C 25.933594 -20.5625 25.980469 -20.707031 26.125 -20.898438 C 26.171875 -20.949219 26.316406 -20.949219 26.363281 -20.949219 C 26.507812 -20.660156 26.316406 -20.515625 26.125 -20.421875 C 26.027344 -19.894531 25.980469 -19.367188 25.835938 -18.839844 L 22.242188 -5.128906 C 21.667969 -2.875 21.953125 -2.300781 24.113281 -1.582031 C 24.6875 -1.4375 25.308594 -1.390625 25.933594 -1.246094 C 27.945312 -0.910156 27.945312 -0.910156 28.519531 -2.730469 C 28.570312 -2.972656 28.617188 -3.257812 28.714844 -3.5 C 30.390625 -9.875 32.117188 -16.25 33.792969 -22.578125 C 34.273438 -24.496094 34.65625 -26.414062 35.089844 -28.328125 C 35.519531 -29.960938 34.175781 -30.871094 33.554688 -32.070312 Z M 33.554688 -32.070312 "/></g></g></g><g fill="#faf0ca" fill-opacity="1"><g transform="translate(140.304638, 201.49481)"><g><path d="M 21.28125 -3.882812 L 21.234375 -3.882812 C 21.042969 -5.992188 20.804688 -8.101562 20.707031 -10.257812 C 20.277344 -16.632812 19.460938 -23.007812 19.414062 -29.433594 C 19.367188 -29.769531 19.222656 -30.152344 19.222656 -30.488281 C 19.222656 -31.828125 18.550781 -32.597656 17.304688 -32.980469 C 16.679688 -33.21875 16.152344 -33.410156 15.53125 -32.980469 C 15.148438 -32.738281 14.714844 -32.402344 14.332031 -32.644531 C 13.324219 -33.21875 12.175781 -32.597656 11.265625 -32.929688 C 10.496094 -33.21875 10.304688 -33.027344 10.019531 -32.546875 C 9.492188 -31.542969 8.914062 -30.535156 8.4375 -29.480469 C 6.085938 -24.207031 3.738281 -18.886719 1.4375 -13.613281 L -2.398438 -4.746094 C -3.019531 -3.257812 -2.875 -2.730469 -1.484375 -1.917969 C -0.527344 -1.390625 0.429688 -0.957031 1.4375 -0.574219 C 2.398438 -0.144531 2.78125 -0.289062 3.308594 -1.34375 C 3.785156 -2.203125 4.171875 -3.117188 4.554688 -3.980469 L 5.558594 -6.183594 C 5.703125 -6.519531 5.945312 -6.808594 6.328125 -6.855469 C 8.628906 -6.949219 10.882812 -7.574219 13.230469 -7.476562 C 13.902344 -7.429688 14.1875 -7.140625 14.238281 -6.472656 L 14.667969 -2.492188 C 14.765625 -1.820312 15.097656 -1.34375 15.722656 -1.054688 C 16.539062 -0.625 17.257812 -0.335938 18.214844 -0.816406 C 18.742188 -1.101562 19.414062 -1.054688 20.035156 -1.152344 C 21.089844 -1.390625 21.234375 -1.535156 21.28125 -2.539062 Z M 13.039062 -22.050781 L 13.613281 -15.433594 C 13.660156 -14.8125 13.519531 -14.378906 12.847656 -14.285156 C 11.601562 -14.140625 10.402344 -13.660156 9.15625 -13.996094 C 9.730469 -16.152344 11.792969 -21.140625 12.511719 -22.003906 C 12.605469 -22.097656 12.847656 -22.050781 13.039062 -22.050781 Z M 13.039062 -22.050781 "/></g></g></g><g fill="#faf0ca" fill-opacity="1"><g transform="translate(164.603652, 201.49481)"><g><path d="M 8.386719 -18.980469 C 7.285156 -13.949219 6.085938 -8.914062 4.984375 -3.882812 C 4.746094 -2.828125 4.984375 -2.109375 5.945312 -1.726562 C 7.046875 -1.246094 8.246094 -0.863281 9.441406 -0.527344 C 10.304688 -0.238281 10.738281 -0.480469 11.074219 -1.390625 C 11.457031 -2.398438 11.792969 -3.453125 12.03125 -4.457031 C 12.847656 -8.195312 13.566406 -11.984375 14.378906 -15.722656 C 15.097656 -18.839844 15.820312 -21.953125 16.585938 -25.070312 C 16.875 -26.316406 17.015625 -26.414062 18.40625 -26.507812 C 19.941406 -26.605469 21.425781 -26.605469 22.960938 -26.699219 C 24.589844 -26.796875 24.972656 -27.132812 25.117188 -28.761719 C 25.214844 -29.910156 25.070312 -31.0625 25.070312 -32.210938 C 25.070312 -32.929688 24.589844 -33.171875 24.015625 -33.171875 C 22.003906 -33.171875 19.941406 -33.125 17.878906 -33.074219 C 14.046875 -33.027344 10.210938 -32.929688 6.375 -33.027344 C 4.457031 -33.074219 3.882812 -31.828125 3.59375 -30.199219 C 3.5 -29.671875 3.644531 -29.144531 3.691406 -28.570312 C 3.785156 -26.652344 3.980469 -26.460938 5.847656 -26.363281 C 6.375 -26.363281 6.902344 -26.460938 7.429688 -26.507812 C 8.195312 -26.507812 9.011719 -26.699219 9.875 -26.269531 C 9.394531 -23.871094 8.964844 -21.425781 8.386719 -18.980469 Z M 8.386719 -18.980469 "/></g></g></g><g fill="#faf0ca" fill-opacity="1"><g transform="translate(185.356033, 201.49481)"><g><path d="M 8.386719 -18.980469 C 7.285156 -13.949219 6.085938 -8.914062 4.984375 -3.882812 C 4.746094 -2.828125 4.984375 -2.109375 5.945312 -1.726562 C 7.046875 -1.246094 8.246094 -0.863281 9.441406 -0.527344 C 10.304688 -0.238281 10.738281 -0.480469 11.074219 -1.390625 C 11.457031 -2.398438 11.792969 -3.453125 12.03125 -4.457031 C 12.847656 -8.195312 13.566406 -11.984375 14.378906 -15.722656 C 15.097656 -18.839844 15.820312 -21.953125 16.585938 -25.070312 C 16.875 -26.316406 17.015625 -26.414062 18.40625 -26.507812 C 19.941406 -26.605469 21.425781 -26.605469 22.960938 -26.699219 C 24.589844 -26.796875 24.972656 -27.132812 25.117188 -28.761719 C 25.214844 -29.910156 25.070312 -31.0625 25.070312 -32.210938 C 25.070312 -32.929688 24.589844 -33.171875 24.015625 -33.171875 C 22.003906 -33.171875 19.941406 -33.125 17.878906 -33.074219 C 14.046875 -33.027344 10.210938 -32.929688 6.375 -33.027344 C 4.457031 -33.074219 3.882812 -31.828125 3.59375 -30.199219 C 3.5 -29.671875 3.644531 -29.144531 3.691406 -28.570312 C 3.785156 -26.652344 3.980469 -26.460938 5.847656 -26.363281 C 6.375 -26.363281 6.902344 -26.460938 7.429688 -26.507812 C 8.195312 -26.507812 9.011719 -26.699219 9.875 -26.269531 C 9.394531 -23.871094 8.964844 -21.425781 8.386719 -18.980469 Z M 8.386719 -18.980469 "/></g></g></g><g fill="#faf0ca" fill-opacity="1"><g transform="translate(206.10842, 201.49481)"><g><path d="M 7.09375 -18.503906 C 7.429688 -17.207031 7.765625 -15.867188 8.292969 -14.667969 C 8.675781 -13.710938 8.582031 -12.992188 7.863281 -12.269531 C 5.800781 -10.164062 4.074219 -7.765625 2.300781 -5.417969 C 1.152344 -3.882812 1.390625 -2.398438 3.066406 -1.390625 C 3.785156 -0.957031 4.363281 -0.429688 4.984375 0 C 5.894531 0.574219 6.136719 0.574219 6.757812 -0.238281 C 8.53125 -2.492188 10.304688 -4.746094 12.078125 -6.949219 C 13.566406 -8.820312 15.195312 -10.640625 16.679688 -12.511719 C 20.660156 -17.6875 24.542969 -22.863281 28.519531 -28.042969 C 29.046875 -28.761719 29.816406 -29.480469 29.625 -30.34375 C 29.382812 -31.253906 28.761719 -32.070312 28.136719 -32.835938 C 27.46875 -33.699219 26.171875 -33.265625 25.308594 -33.9375 C 25.117188 -34.128906 24.636719 -33.507812 24.351562 -33.125 C 21.667969 -29.71875 18.839844 -26.414062 16.394531 -22.769531 C 15.867188 -22.050781 15.242188 -21.378906 14.667969 -20.707031 C 14.378906 -20.421875 14.09375 -19.988281 13.566406 -20.277344 C 12.558594 -23.871094 11.503906 -27.46875 10.019531 -30.917969 C 9.15625 -32.980469 9.300781 -32.691406 7.046875 -32.691406 C 6.472656 -32.691406 5.992188 -32.546875 5.558594 -32.164062 L 3.308594 -30.246094 C 4.984375 -26.414062 6.136719 -22.480469 7.09375 -18.503906 Z M 7.09375 -18.503906 "/></g></g></g><g fill="#faf0ca" fill-opacity="1"><g transform="translate(231.126348, 201.49481)"><g><path d="M 14.378906 -33.554688 C 12.175781 -33.21875 10.066406 -32.546875 7.863281 -32.164062 C 6.472656 -31.972656 5.894531 -31.445312 5.65625 -30.152344 C 5.558594 -29.671875 5.367188 -29.144531 5.273438 -28.617188 C 4.121094 -23.058594 2.445312 -17.59375 0.957031 -12.128906 C 0.144531 -9.203125 -0.671875 -6.28125 -1.582031 -3.402344 C -1.871094 -2.445312 -1.582031 -1.871094 -0.957031 -1.292969 C -0.480469 -0.816406 0.046875 -0.527344 0.71875 -0.527344 C 1.4375 -0.480469 2.109375 -0.289062 2.78125 -0.046875 C 4.074219 0.429688 4.171875 0.335938 4.648438 -1.054688 C 5.226562 -3.019531 5.703125 -5.03125 6.328125 -6.949219 C 6.710938 -8.101562 6.757812 -9.585938 7.667969 -10.355469 C 8.582031 -11.121094 9.921875 -10.691406 11.074219 -10.785156 C 17.066406 -11.121094 21.476562 -14.09375 24.589844 -19.078125 C 26.21875 -21.667969 26.652344 -24.636719 25.886719 -27.5625 C 25.070312 -30.582031 23.25 -32.835938 19.941406 -33.363281 L 16.875 -33.792969 C 15.960938 -33.699219 15.148438 -33.652344 14.378906 -33.554688 Z M 11.410156 -25.597656 C 11.601562 -26.171875 11.9375 -26.507812 12.464844 -26.605469 C 14.429688 -26.988281 16.347656 -27.035156 18.3125 -26.890625 C 18.980469 -26.84375 19.222656 -26.414062 19.414062 -25.886719 C 19.796875 -24.589844 19.414062 -23.34375 18.742188 -22.335938 C 16.632812 -19.078125 13.613281 -17.304688 9.347656 -17.257812 C 10.066406 -20.230469 10.785156 -22.914062 11.410156 -25.597656 Z M 11.410156 -25.597656 "/></g></g></g><g fill="#faf0ca" fill-opacity="1"><g transform="translate(254.994018, 201.49481)"><g><path d="M 5.992188 -19.84375 C 7.8125 -19.84375 9.011719 -21.089844 8.964844 -22.863281 C 8.964844 -23.679688 8.675781 -24.445312 8.246094 -25.117188 C 7.285156 -26.554688 5.464844 -26.890625 4.121094 -25.980469 C 3.066406 -25.214844 2.492188 -23.296875 2.925781 -21.859375 C 3.257812 -20.707031 4.601562 -19.84375 5.992188 -19.84375 Z M 4.121094 -8.867188 C 3.066406 -8.148438 2.492188 -6.183594 2.925781 -4.746094 C 3.257812 -3.59375 4.601562 -2.730469 5.992188 -2.730469 C 7.8125 -2.730469 9.011719 -3.980469 8.964844 -5.753906 C 8.964844 -6.566406 8.675781 -7.335938 8.246094 -8.003906 C 7.285156 -9.441406 5.464844 -9.777344 4.121094 -8.867188 Z M 4.121094 -8.867188 "/></g></g></g><path stroke-linecap="butt" transform="matrix(0.766839, 0, 0, 0.766839, 77.663685, 153.950805)" fill="none" stroke-linejoin="miter" d="M 82.06427 20.185315 C 81.942015 19.98665 81.381679 20.06306 81.076041 19.925523 C 80.189691 19.681013 79.502006 20.490953 78.753193 20.368698 C 77.887219 20.30757 77.566299 19.054455 76.511848 18.993327 C 75.946418 18.993327 75.380988 18.748817 74.815558 18.550152 C 73.949584 18.183387 73.261899 18.550152 72.635341 19.17671 C 72.253293 19.619885 71.886528 20.124187 71.565608 20.552081 L 62.564572 33.429624 C 62.060269 34.178437 61.571249 34.92725 61.005818 35.691345 C 60.822436 35.996983 60.501516 36.180366 60.13475 36.05811 C 59.936086 35.996983 59.752703 35.752472 59.752703 35.553808 C 59.2484 31.75371 57.633614 28.18284 56.747264 24.489716 C 56.502753 23.496392 55.876196 22.625324 55.376987 21.677847 C 55.071349 21.056383 54.505919 20.613208 53.757106 20.490953 C 51.699144 20.246443 49.681934 19.74214 47.562845 20.124187 C 46.569521 20.30757 46.126346 20.689618 45.881836 21.555592 C 45.744299 21.998767 45.683171 22.487787 45.560916 22.930962 C 42.433222 34.300692 40.008494 45.930215 36.55988 57.315227 C 36.498752 57.620865 36.376497 57.941784 36.376497 58.30855 C 36.31537 58.507215 36.376497 58.812853 36.498752 58.930014 C 37.380008 59.938619 38.067694 61.313989 39.748702 61.191734 C 40.314132 61.130607 40.935596 61.252862 41.501026 61.436245 C 43.946129 62.062802 43.946129 62.12393 44.934359 59.678827 C 45.316406 58.751725 45.560916 57.681992 45.881836 56.749797 C 47.562845 50.937582 48.871994 44.998019 50.308492 39.124677 C 50.446029 38.559247 50.247364 37.749307 51.317097 37.428387 C 51.561607 38.620375 51.755178 39.751235 52.060816 40.800592 C 53.069421 44.050542 52.565118 47.50425 53.879361 50.631945 C 54.505919 52.063349 54.872684 52.751034 56.258243 52.751034 C 58.000379 52.751034 59.752703 52.491242 61.448993 52.368987 C 62.320061 52.307859 62.686827 51.681301 62.564572 50.876455 C 62.197806 49.119037 62.946619 47.743666 64.072385 46.495645 C 64.500279 46.067752 64.760071 45.563449 65.065709 45.059147 C 67.123671 42.114835 69.125599 39.124677 71.183561 36.180366 C 71.504481 35.752472 71.748991 35.125915 72.375549 35.370425 C 72.131038 35.187042 72.192166 35.00366 72.375549 34.743867 C 72.436676 34.68274 72.635341 34.68274 72.696468 34.68274 C 72.879851 35.064787 72.635341 35.24817 72.375549 35.370425 C 72.253293 36.05811 72.192166 36.740702 72.008783 37.428387 L 67.322335 55.313298 C 66.563334 58.247422 66.940288 58.991141 69.752157 59.938619 C 70.500969 60.122002 71.321098 60.183129 72.131038 60.381794 C 74.75443 60.809687 74.75443 60.809687 75.503243 58.446087 C 75.564371 58.125167 75.625498 57.74312 75.747753 57.437482 C 77.948346 49.119037 80.189691 40.800592 82.38519 32.558556 C 83.011748 30.057419 83.500768 27.556283 84.066199 25.050052 C 84.631629 22.930962 82.874211 21.738974 82.06427 20.185315 Z M 109.449427 56.933179 L 109.388299 56.933179 C 109.128507 54.187532 108.822869 51.436791 108.685332 48.614734 C 108.135184 40.311571 107.065451 31.99822 107.004323 23.618648 C 106.943196 23.175473 106.744531 22.686452 106.744531 22.243277 C 106.744531 20.490953 105.878557 19.49763 104.258676 18.993327 C 103.433454 18.672407 102.745769 18.427897 101.940922 18.993327 C 101.43662 19.298965 100.871189 19.74214 100.382169 19.436502 C 99.067926 18.672407 97.560112 19.49763 96.383406 19.054455 C 95.374801 18.672407 95.130291 18.9322 94.753337 19.558757 C 94.065652 20.873 93.316839 22.182149 92.690281 23.55752 C 89.623714 30.439467 86.557147 37.367259 83.561896 44.249206 L 78.559622 55.802319 C 77.749682 57.74312 77.933065 58.446087 79.75161 59.495444 C 80.999632 60.183129 82.252747 60.748559 83.561896 61.252862 C 84.815011 61.818292 85.319314 61.619627 86.006999 60.244257 C 86.633557 59.128678 87.122578 57.941784 87.621786 56.810924 L 88.936029 53.943022 C 89.119412 53.499847 89.440332 53.1178 89.944634 53.056672 C 92.934792 52.934417 95.879104 52.124476 98.930389 52.246731 C 99.816739 52.307859 100.183504 52.689906 100.259914 53.560974 L 100.810062 58.751725 C 100.947599 59.617699 101.375492 60.244257 102.185432 60.626304 C 103.250071 61.191734 104.197549 61.5585 105.435382 60.931942 C 106.133255 60.565177 107.004323 60.626304 107.814264 60.504049 C 109.189634 60.183129 109.388299 59.999746 109.449427 58.690597 Z M 98.685878 33.246242 L 99.434691 41.870325 C 99.495819 42.680265 99.312436 43.245695 98.446462 43.36795 C 96.811299 43.566615 95.252546 44.188079 93.622477 43.749998 C 94.37129 40.938129 97.071091 34.438229 98.003287 33.307369 C 98.125542 33.185114 98.446462 33.246242 98.685878 33.246242 Z M 124.318711 37.245004 C 122.882213 43.811125 121.308177 50.372152 119.876773 56.933179 C 119.571135 58.30855 119.876773 59.250934 121.124795 59.755236 C 122.561293 60.381794 124.135328 60.870814 125.688987 61.313989 C 126.819848 61.696037 127.385278 61.375117 127.813171 60.183129 C 128.317473 58.87398 128.755554 57.49861 129.061192 56.184367 C 130.130925 51.31963 131.063121 46.37339 132.132853 41.503559 C 133.059955 37.428387 134.007432 33.368497 135.000756 29.308607 C 135.382803 27.678538 135.566186 27.556283 137.379637 27.434027 C 139.381566 27.311772 141.317272 27.311772 143.319201 27.189517 C 145.43829 27.05198 145.942593 26.624087 146.125975 24.489716 C 146.248231 22.99209 146.064848 21.494464 146.064848 19.98665 C 146.064848 19.054455 145.43829 18.748817 144.689477 18.748817 C 142.066085 18.748817 139.381566 18.809944 136.691952 18.871072 C 131.689678 18.9322 126.682311 19.054455 121.690225 18.9322 C 119.189088 18.871072 118.440275 20.490953 118.058228 22.625324 C 117.935973 23.31301 118.119355 24.000695 118.180483 24.749508 C 118.31802 27.250645 118.56253 27.495155 121.007634 27.61741 C 121.690225 27.61741 122.37791 27.495155 123.065595 27.434027 C 124.058919 27.434027 125.123557 27.189517 126.254418 27.739665 C 125.62786 30.86736 125.06243 34.056182 124.318711 37.245004 Z M 151.377854 37.245004 C 149.946449 43.811125 148.372414 50.372152 146.935916 56.933179 C 146.630278 58.30855 146.935916 59.250934 148.189031 59.755236 C 149.62553 60.381794 151.194471 60.870814 152.753224 61.313989 C 153.884084 61.696037 154.444421 61.375117 154.872314 60.183129 C 155.376616 58.87398 155.819791 57.49861 156.125429 56.184367 C 157.195162 51.31963 158.122263 46.37339 159.191996 41.503559 C 160.124192 37.428387 161.071669 33.368497 162.059898 29.308607 C 162.441946 27.678538 162.625328 27.556283 164.443874 27.434027 C 166.440708 27.311772 168.381509 27.311772 170.378343 27.189517 C 172.502527 27.05198 173.001735 26.624087 173.185118 24.489716 C 173.307373 22.99209 173.123991 21.494464 173.123991 19.98665 C 173.123991 19.054455 172.502527 18.748817 171.753714 18.748817 C 169.130322 18.748817 166.440708 18.809944 163.756189 18.871072 C 158.748821 18.9322 153.746547 19.054455 148.754461 18.9322 C 146.253325 18.871072 145.504512 20.490953 145.122464 22.625324 C 145.000209 23.31301 145.183592 24.000695 145.24472 24.749508 C 145.382257 27.250645 145.626767 27.495155 148.066776 27.61741 C 148.754461 27.61741 149.442147 27.495155 150.129832 27.434027 C 151.118061 27.434027 152.187794 27.189517 153.318654 27.739665 C 152.692097 30.86736 152.126666 34.056182 151.377854 37.245004 Z M 176.7458 37.871562 C 177.188975 39.567852 177.63215 41.304894 178.319835 42.87893 C 178.808856 44.126951 178.6866 45.059147 177.754405 45.991342 C 175.069885 48.752271 172.808165 51.864684 170.505692 54.936345 C 168.992785 56.933179 169.313705 58.87398 171.499016 60.183129 C 172.441399 60.748559 173.190212 61.436245 174.000153 62.001675 C 175.19214 62.745394 175.497778 62.745394 176.317907 61.696037 C 178.625473 58.751725 180.943227 55.802319 183.250793 52.934417 C 185.1865 50.494407 187.305589 48.125714 189.24639 45.685704 C 194.437141 38.941295 199.500542 32.181603 204.691292 25.432099 C 205.378978 24.489716 206.382489 23.55752 206.122697 22.42666 C 205.822153 21.239766 205.012212 20.185315 204.18699 19.17671 C 203.315922 18.061132 201.624725 18.61128 200.509147 17.740212 C 200.249355 17.500795 199.622797 18.305642 199.256032 18.809944 C 195.74629 23.2366 192.068447 27.556283 188.879625 32.303858 C 188.191939 33.246242 187.381999 34.11731 186.622998 35.00366 C 186.256233 35.370425 185.874185 35.935855 185.1865 35.553808 C 183.872257 30.86736 182.50198 26.180912 180.56118 21.677847 C 179.435413 18.993327 179.634078 19.375375 176.684672 19.375375 C 175.940953 19.375375 175.314396 19.558757 174.748965 20.06306 L 171.819935 22.548915 C 174.000153 27.556283 175.497778 32.680811 176.7458 37.871562 Z M 218.877985 18.244514 C 215.994801 18.672407 213.249154 19.558757 210.381251 20.06306 C 208.562706 20.30757 207.813893 20.995256 207.492973 22.686452 C 207.370718 23.31301 207.126208 24.000695 207.009046 24.68838 C 205.496139 31.937093 203.310828 39.06355 201.375121 46.190007 C 200.305388 50.005387 199.256032 53.805485 198.064044 57.559737 C 197.681996 58.812853 198.064044 59.556571 198.873984 60.305384 C 199.500542 60.931942 200.183133 61.313989 201.054201 61.313989 C 202.001679 61.375117 202.872747 61.619627 203.754003 61.940547 C 205.435011 62.567105 205.557266 62.44485 206.183824 60.626304 C 206.932637 58.06404 207.554101 55.435554 208.379323 52.934417 C 208.868344 51.436791 208.944753 49.501084 210.121459 48.492479 C 211.308353 47.50425 213.065771 48.064586 214.563397 47.927049 C 222.372445 47.50425 228.128626 43.627743 232.188516 37.122749 C 234.322887 33.750544 234.873036 29.874037 233.879712 26.058657 C 232.815074 22.121022 230.44638 19.17671 226.126698 18.489025 L 222.127935 17.923595 C 220.941041 18.061132 219.871308 18.122259 218.877985 18.244514 Z M 215.001478 28.626015 C 215.245988 27.877202 215.689163 27.434027 216.376848 27.311772 C 218.939113 26.80747 221.445344 26.746342 224.007608 26.929725 C 224.878676 26.990852 225.184314 27.556283 225.444106 28.243968 C 225.943315 29.935164 225.444106 31.555045 224.573038 32.864194 C 221.812109 37.122749 217.874474 39.430315 212.316958 39.491443 C 213.249154 35.614935 214.196631 32.120475 215.001478 28.626015 Z M 239.060275 36.119238 C 241.444251 36.119238 242.99791 34.499357 242.936782 32.181603 C 242.936782 31.127152 242.554735 30.118547 242.009681 29.247479 C 240.756565 27.3729 238.377684 26.929725 236.620266 28.121713 C 235.244895 29.125224 234.501176 31.616173 235.061512 33.490752 C 235.504687 35.00366 237.246823 36.119238 239.060275 36.119238 Z M 236.620266 50.43328 C 235.244895 51.375663 234.501176 53.943022 235.061512 55.802319 C 235.504687 57.315227 237.246823 58.446087 239.060275 58.446087 C 241.444251 58.446087 242.99791 56.810924 242.936782 54.49317 C 242.936782 53.438719 242.554735 52.430114 242.009681 51.559046 C 240.756565 49.684467 238.377684 49.241292 236.620266 50.43328 Z M 236.620266 50.43328 " stroke="#0d3b66" stroke-width="0.429773" stroke-opacity="1" stroke-miterlimit="4"/></svg>