<svg xmlns="http://www.w3.org/2000/svg" xmlns:xlink="http://www.w3.org/1999/xlink" width="500" zoomAndPan="magnify" viewBox="0 0 375 112.499997" height="150" preserveAspectRatio="xMidYMid meet" version="1.0"><defs><filter x="0%" y="0%" width="100%" height="100%" id="6eae364cbe"><feColorMatrix values="0 0 0 0 1 0 0 0 0 1 0 0 0 0 1 0 0 0 1 0" color-interpolation-filters="sRGB"/></filter><g/><clipPath id="14b3da3e5d"><path d="M 76.40625 24.480469 L 298.589844 24.480469 L 298.589844 87.523438 L 76.40625 87.523438 Z M 76.40625 24.480469 " clip-rule="nonzero"/></clipPath><mask id="9ebd356227"><g filter="url(#6eae364cbe)"><rect x="-37.5" width="450" fill="#000000" y="-11.25" height="134.999996" fill-opacity="0.93"/></g></mask><clipPath id="4b84406202"><rect x="0" width="113" y="0" height="54"/></clipPath></defs><g clip-path="url(#14b3da3e5d)"><path fill="#1e1e1e" d="M 76.40625 24.480469 L 298.542969 24.480469 L 298.542969 87.523438 L 76.40625 87.523438 Z M 76.40625 24.480469 " fill-opacity="1" fill-rule="nonzero"/></g><g mask="url(#9ebd356227)"><g transform="matrix(1, 0, 0, 1, 131, 35)"><g clip-path="url(#4b84406202)"><g fill="#ffffff" fill-opacity="1"><g transform="translate(0.650811, 38.595718)"><g><path d="M 31.71875 0 L 30.046875 -20.90625 L 29.84375 -20.90625 L 22.609375 -0.21875 L 17.828125 -0.21875 L 10.609375 -20.90625 L 10.390625 -20.90625 L 8.71875 0 L 0.6875 0 L 3.84375 -35.265625 L 12.390625 -35.265625 L 20.21875 -14.921875 L 28.046875 -35.265625 L 36.59375 -35.265625 L 39.75 0 Z M 31.71875 0 "/></g></g></g><g fill="#ffffff" fill-opacity="1"><g transform="translate(41.082123, 38.595718)"><g><path d="M 22.75 -35.265625 L 22.75 -28.21875 L 10.609375 -28.21875 L 10.609375 -21.203125 L 22.234375 -21.203125 L 22.234375 -14.15625 L 10.609375 -14.15625 L 10.609375 -7.046875 L 22.75 -7.046875 L 22.75 0 L 2.5625 0 L 2.5625 -35.265625 Z M 22.75 -35.265625 "/></g></g></g><g fill="#ffffff" fill-opacity="1"><g transform="translate(65.870881, 38.595718)"><g><path d="M 2.5625 -35.265625 L 12.78125 -35.265625 C 17.6875 -35.265625 21.875 -33.585938 25.34375 -30.234375 C 28.820312 -26.890625 30.5625 -22.695312 30.5625 -17.65625 C 30.5625 -12.582031 28.828125 -8.367188 25.359375 -5.015625 C 21.898438 -1.671875 17.707031 0 12.78125 0 L 2.5625 0 Z M 10.609375 -7.1875 L 11.84375 -7.1875 C 14.78125 -7.1875 17.179688 -8.175781 19.046875 -10.15625 C 20.910156 -12.132812 21.859375 -14.617188 21.890625 -17.609375 C 21.890625 -20.609375 20.953125 -23.101562 19.078125 -25.09375 C 17.210938 -27.09375 14.800781 -28.09375 11.84375 -28.09375 L 10.609375 -28.09375 Z M 10.609375 -7.1875 "/></g></g></g><g fill="#ffffff" fill-opacity="1"><g transform="translate(97.412433, 38.595718)"><g><path d="M 7.4375 -23.6875 C 8.800781 -23.6875 9.960938 -23.207031 10.921875 -22.25 C 11.878906 -21.289062 12.359375 -20.128906 12.359375 -18.765625 C 12.359375 -17.429688 11.878906 -16.285156 10.921875 -15.328125 C 9.960938 -14.367188 8.800781 -13.890625 7.4375 -13.890625 C 6.09375 -13.890625 4.941406 -14.367188 3.984375 -15.328125 C 3.035156 -16.285156 2.5625 -17.429688 2.5625 -18.765625 C 2.5625 -20.128906 3.035156 -21.289062 3.984375 -22.25 C 4.941406 -23.207031 6.09375 -23.6875 7.4375 -23.6875 Z M 7.4375 -9.15625 C 8.800781 -9.15625 9.960938 -8.675781 10.921875 -7.71875 C 11.878906 -6.757812 12.359375 -5.597656 12.359375 -4.234375 C 12.359375 -2.890625 11.878906 -1.738281 10.921875 -0.78125 C 9.960938 0.164062 8.800781 0.640625 7.4375 0.640625 C 6.09375 0.640625 4.941406 0.164062 3.984375 -0.78125 C 3.035156 -1.738281 2.5625 -2.890625 2.5625 -4.234375 C 2.5625 -5.597656 3.035156 -6.757812 3.984375 -7.71875 C 4.941406 -8.675781 6.09375 -9.15625 7.4375 -9.15625 Z M 7.4375 -9.15625 "/></g></g></g></g></g></g></svg>