<svg xmlns="http://www.w3.org/2000/svg" xmlns:xlink="http://www.w3.org/1999/xlink" width="500" zoomAndPan="magnify" viewBox="0 0 375 374.999991" height="500" preserveAspectRatio="xMidYMid meet" version="1.0"><defs><g/><clipPath id="70f3f8bb43"><path d="M 9 147 L 366.617188 147 L 366.617188 212.796875 L 9 212.796875 Z M 9 147 " clip-rule="nonzero"/></clipPath></defs><g clip-path="url(#70f3f8bb43)"><path fill="#6a040f" d="M 16.171875 156.644531 C 5.589844 160.15625 9.84375 190.246094 11.984375 195.980469 C 14.667969 203.167969 24.597656 206.832031 31.257812 208.6875 C 50.359375 214 71.140625 211.476562 90.710938 212.675781 C 108.503906 213.761719 126.335938 212.871094 144.152344 213.300781 C 187.265625 214.339844 230.054688 214.566406 273.195312 213.632812 C 292.230469 213.21875 349.5625 216.15625 356.71875 212.863281 C 360.738281 211.015625 363.003906 205.875 364.417969 201.996094 C 367.609375 193.234375 370.410156 165.957031 361.875 158.871094 C 353.753906 152.132812 341.824219 150.925781 331.820312 149.273438 C 311.914062 145.988281 212.699219 148.464844 183.058594 152.363281 C 162.917969 155.011719 34.585938 150.53125 16.171875 156.644531 Z M 16.171875 156.644531 " fill-opacity="1" fill-rule="evenodd"/></g><g fill="#faf0ca" fill-opacity="1"><g transform="translate(100.860558, 201.494795)"><g><path d="M 14.378906 -33.554688 C 12.175781 -33.21875 10.066406 -32.546875 7.910156 -32.164062 C 6.472656 -31.972656 5.894531 -31.445312 5.65625 -30.152344 C 5.558594 -29.671875 5.367188 -29.144531 5.273438 -28.617188 C 4.121094 -23.058594 2.445312 -17.59375 0.957031 -12.128906 C 0.144531 -9.203125 -0.671875 -6.28125 -1.582031 -3.402344 C -1.871094 -2.445312 -1.535156 -1.871094 -0.957031 -1.292969 C -0.480469 -0.816406 0.046875 -0.527344 0.71875 -0.527344 C 1.4375 -0.480469 2.109375 -0.289062 2.78125 -0.046875 C 4.074219 0.429688 4.171875 0.335938 4.648438 -1.054688 C 5.226562 -3.019531 5.703125 -5.03125 6.328125 -6.949219 C 6.710938 -8.101562 6.757812 -9.585938 7.71875 -10.355469 C 8.582031 -11.121094 9.921875 -10.691406 11.074219 -10.785156 C 17.066406 -11.121094 21.476562 -14.09375 24.589844 -19.078125 C 26.21875 -21.667969 26.652344 -24.636719 25.886719 -27.5625 C 25.070312 -30.582031 23.296875 -32.835938 19.941406 -33.363281 L 16.875 -33.792969 C 15.960938 -33.699219 15.195312 -33.652344 14.378906 -33.554688 Z M 11.457031 -25.597656 C 11.601562 -26.171875 11.9375 -26.507812 12.511719 -26.605469 C 14.429688 -26.988281 16.394531 -27.035156 18.3125 -26.890625 C 18.980469 -26.84375 19.222656 -26.414062 19.414062 -25.886719 C 19.796875 -24.589844 19.414062 -23.34375 18.742188 -22.335938 C 16.632812 -19.078125 13.613281 -17.304688 9.347656 -17.257812 C 10.066406 -20.230469 10.785156 -22.914062 11.457031 -25.597656 Z M 11.457031 -25.597656 "/></g></g></g><g fill="#faf0ca" fill-opacity="1"><g transform="translate(124.680298, 201.494795)"><g><path d="M 10.019531 -33.171875 C 7.09375 -32.546875 6.710938 -32.070312 5.847656 -29.097656 L 5.703125 -28.328125 L 0.671875 -11.410156 C -0.144531 -8.773438 -0.957031 -6.136719 -1.820312 -3.546875 C -2.109375 -2.730469 -1.917969 -2.15625 -1.34375 -1.628906 C -0.816406 -1.152344 -0.191406 -0.765625 0.527344 -0.671875 C 1.246094 -0.527344 1.917969 -0.289062 2.589844 -0.0976562 C 3.644531 0.238281 3.785156 0.191406 4.21875 -0.71875 C 5.464844 -3.785156 6.230469 -7 7.238281 -10.113281 C 7.71875 -11.550781 7.667969 -11.550781 9.011719 -11.648438 C 9.441406 -11.648438 9.875 -11.695312 10.304688 -11.695312 C 10.832031 -11.695312 11.167969 -11.410156 11.359375 -10.976562 C 11.550781 -10.59375 11.695312 -10.164062 11.886719 -9.777344 L 15.625 -0.910156 C 16.152344 0.289062 16.921875 0.625 18.167969 0.289062 C 18.503906 0.191406 18.839844 0 19.175781 -0.144531 C 23.25 -2.0625 22.722656 -0.957031 21.1875 -4.9375 C 20.996094 -5.417969 20.757812 -5.894531 20.515625 -6.375 C 19.75 -8.195312 18.980469 -9.96875 18.261719 -11.792969 C 17.59375 -13.421875 17.640625 -13.421875 19.078125 -14.285156 C 19.460938 -14.523438 19.84375 -14.714844 20.179688 -14.957031 C 23.390625 -17.257812 25.5 -20.230469 25.933594 -24.207031 C 26.363281 -28.28125 23.726562 -32.789062 19.316406 -33.554688 C 18.167969 -33.746094 17.015625 -33.84375 15.867188 -33.984375 C 13.902344 -33.984375 11.9375 -33.601562 10.019531 -33.171875 Z M 17.734375 -21.570312 C 16.347656 -20.230469 14.765625 -19.367188 12.941406 -18.886719 C 12.03125 -18.648438 10.976562 -17.785156 10.210938 -18.695312 C 9.683594 -19.316406 10.402344 -20.371094 10.640625 -21.1875 C 11.023438 -22.722656 11.457031 -24.253906 11.839844 -25.835938 C 12.03125 -26.605469 12.511719 -26.988281 13.324219 -27.035156 C 14.765625 -27.132812 16.152344 -27.324219 17.59375 -27.082031 C 18.742188 -26.84375 19.269531 -26.316406 19.269531 -25.070312 C 19.222656 -23.726562 18.742188 -22.53125 17.734375 -21.570312 Z M 17.734375 -21.570312 "/></g></g></g><g fill="#faf0ca" fill-opacity="1"><g transform="translate(150.321279, 201.494795)"><g><path d="M 0.765625 -8.148438 C 1.101562 -5.558594 2.15625 -3.210938 4.3125 -1.773438 C 8.4375 0.910156 12.894531 1.773438 17.496094 -0.429688 C 21.042969 -2.109375 23.441406 -4.9375 24.832031 -8.582031 C 25.453125 -10.355469 26.027344 -12.128906 26.507812 -13.949219 C 27.371094 -17.304688 27.945312 -20.757812 27.417969 -24.253906 C 26.796875 -28.28125 25.164062 -31.542969 21.089844 -33.125 C 20.949219 -33.21875 20.707031 -33.21875 20.613281 -33.363281 C 19.414062 -34.5625 17.832031 -34.417969 16.347656 -34.320312 C 14.523438 -34.226562 12.894531 -33.601562 11.359375 -32.644531 C 7 -29.910156 4.171875 -25.980469 2.398438 -21.28125 C 1.34375 -18.40625 0.625 -15.484375 0.671875 -12.320312 C 0.335938 -10.976562 0.574219 -9.539062 0.765625 -8.148438 Z M 18.742188 -11.792969 C 18.3125 -10.832031 17.785156 -9.875 17.304688 -8.964844 C 16.441406 -7.382812 15.097656 -6.328125 13.421875 -5.894531 C 11.695312 -5.511719 10.113281 -6.183594 8.53125 -6.902344 C 7.957031 -7.191406 7.765625 -7.8125 7.527344 -8.386719 C 7 -9.777344 7.140625 -11.21875 7.238281 -12.605469 C 7.621094 -17.160156 9.109375 -21.28125 12.128906 -24.78125 C 13.46875 -26.316406 15.003906 -27.417969 17.160156 -27.324219 C 18.980469 -27.226562 20.179688 -26.269531 20.5625 -24.496094 C 20.707031 -23.726562 20.804688 -22.914062 20.949219 -22.144531 C 20.996094 -21.761719 20.996094 -21.425781 21.042969 -20.949219 C 20.660156 -17.878906 20.085938 -14.714844 18.742188 -11.792969 Z M 18.742188 -11.792969 "/></g></g></g><g fill="#faf0ca" fill-opacity="1"><g transform="translate(177.735572, 201.494795)"><g><path d="M 8.386719 -18.980469 C 7.285156 -13.949219 6.085938 -8.914062 4.984375 -3.882812 C 4.746094 -2.828125 4.984375 -2.109375 5.945312 -1.726562 C 7.046875 -1.246094 8.246094 -0.863281 9.441406 -0.527344 C 10.304688 -0.238281 10.738281 -0.480469 11.074219 -1.390625 C 11.457031 -2.398438 11.792969 -3.453125 12.03125 -4.457031 C 12.847656 -8.195312 13.566406 -11.984375 14.378906 -15.722656 C 15.097656 -18.839844 15.820312 -21.953125 16.585938 -25.070312 C 16.875 -26.316406 17.015625 -26.414062 18.40625 -26.507812 C 19.941406 -26.605469 21.425781 -26.605469 22.960938 -26.699219 C 24.589844 -26.796875 24.972656 -27.132812 25.117188 -28.761719 C 25.214844 -29.910156 25.070312 -31.0625 25.070312 -32.210938 C 25.070312 -32.929688 24.589844 -33.171875 24.015625 -33.171875 C 22.003906 -33.171875 19.941406 -33.125 17.878906 -33.074219 C 14.046875 -33.027344 10.210938 -32.929688 6.375 -33.027344 C 4.457031 -33.074219 3.882812 -31.828125 3.59375 -30.199219 C 3.5 -29.671875 3.644531 -29.144531 3.691406 -28.570312 C 3.785156 -26.652344 3.980469 -26.460938 5.847656 -26.363281 C 6.375 -26.363281 6.902344 -26.460938 7.429688 -26.507812 C 8.195312 -26.507812 9.011719 -26.699219 9.875 -26.269531 C 9.394531 -23.871094 8.964844 -21.425781 8.386719 -18.980469 Z M 8.386719 -18.980469 "/></g></g></g><g fill="#faf0ca" fill-opacity="1"><g transform="translate(198.48796, 201.494795)"><g><path d="M 17.066406 -9.539062 C 15.578125 -7.335938 13.324219 -6.566406 10.976562 -5.945312 C 9.730469 -5.609375 8.53125 -6.039062 7.382812 -6.566406 C 7.09375 -6.710938 6.808594 -7.046875 6.664062 -7.335938 C 5.609375 -9.25 5.945312 -11.742188 7.476562 -13.277344 C 8.914062 -14.714844 10.59375 -15.722656 12.703125 -15.625 C 14.332031 -15.53125 15.914062 -15.675781 17.496094 -16.011719 C 18.886719 -16.296875 19.269531 -16.875 19.078125 -18.261719 C 18.886719 -19.414062 18.648438 -20.5625 18.40625 -21.667969 C 18.214844 -22.578125 18.070312 -22.722656 17.160156 -22.578125 C 15.53125 -22.386719 13.949219 -22.195312 12.367188 -22.53125 C 11.742188 -22.625 11.503906 -23.152344 11.695312 -23.726562 C 12.464844 -25.644531 13.949219 -26.746094 15.960938 -26.796875 C 16.488281 -26.796875 17.015625 -26.796875 17.542969 -26.746094 C 18.933594 -26.699219 19.84375 -26.078125 20.324219 -24.6875 C 20.804688 -23.199219 21.425781 -22.816406 22.863281 -23.152344 C 23.917969 -23.34375 24.972656 -23.488281 26.027344 -23.585938 C 26.699219 -23.585938 26.941406 -23.96875 26.890625 -24.636719 C 26.699219 -27.992188 25.40625 -30.679688 22.195312 -32.117188 C 21.089844 -32.644531 19.652344 -32.738281 18.742188 -33.457031 C 17.785156 -34.320312 16.875 -34.371094 15.820312 -34.128906 C 11.792969 -33.21875 8.339844 -31.347656 6.183594 -27.609375 C 5.367188 -26.171875 4.839844 -24.6875 4.984375 -23.007812 C 5.03125 -22.050781 5.464844 -20.949219 5.175781 -20.179688 C 4.839844 -19.367188 3.785156 -18.886719 3.066406 -18.214844 C 2.78125 -17.976562 2.539062 -17.6875 2.347656 -17.449219 C -1.582031 -13.085938 -1.101562 -6.949219 1.582031 -3.066406 C 2.300781 -2.011719 3.257812 -1.199219 4.363281 -0.625 C 7.191406 0.863281 10.210938 0.957031 13.230469 0.289062 C 17.207031 -0.625 20.46875 -2.636719 22.769531 -6.085938 C 23.25 -6.808594 23.199219 -7.429688 22.769531 -8.054688 C 22.578125 -8.4375 22.242188 -8.773438 21.90625 -9.011719 L 18.503906 -11.21875 C 17.976562 -10.59375 17.449219 -10.113281 17.066406 -9.539062 Z M 17.066406 -9.539062 "/></g></g></g><g fill="#faf0ca" fill-opacity="1"><g transform="translate(223.793453, 201.494795)"><g><path d="M 11.410156 -31.347656 C 10.210938 -32.019531 9.109375 -32.546875 7.667969 -32.402344 C 7.046875 -32.308594 6.664062 -32.164062 6.472656 -31.589844 C 5.753906 -29.382812 5.03125 -27.179688 4.363281 -24.972656 C 3.453125 -21.90625 2.589844 -18.839844 1.726562 -15.769531 L -1.535156 -4.171875 C -1.628906 -3.738281 -1.726562 -3.257812 -1.4375 -2.925781 C -0.910156 -2.203125 -0.382812 -1.4375 0.574219 -1.246094 C 1.34375 -1.101562 2.109375 -0.863281 2.875 -0.671875 C 3.835938 -0.480469 4.363281 -0.71875 4.699219 -1.726562 C 5.082031 -2.925781 5.417969 -4.121094 5.753906 -5.320312 L 7.863281 -13.039062 L 12.320312 -28.378906 L 12.558594 -29.289062 C 12.558594 -30.296875 12.222656 -30.871094 11.410156 -31.347656 Z M 11.410156 -31.347656 "/></g></g></g><g fill="#faf0ca" fill-opacity="1"><g transform="translate(233.905952, 201.494795)"><g><path d="M 13.375 -18.167969 C 14.238281 -13.230469 14.957031 -8.292969 14.140625 -3.257812 C 14.09375 -3.019531 14.046875 -2.730469 14.046875 -2.492188 C 14.046875 -1.390625 14.476562 -0.71875 15.484375 -0.527344 C 16.347656 -0.382812 17.257812 -0.429688 18.167969 -0.382812 C 21.28125 -0.289062 21.714844 -0.574219 22.53125 -3.402344 C 24.6875 -11.121094 26.796875 -18.839844 28.953125 -26.605469 C 29.191406 -27.609375 29.382812 -28.664062 29.527344 -29.71875 C 29.671875 -30.582031 29.433594 -31.253906 28.808594 -31.925781 C 27.851562 -32.835938 26.941406 -33.554688 25.550781 -32.980469 C 25.308594 -32.882812 25.023438 -32.691406 24.832031 -32.789062 C 23.96875 -33.171875 23.777344 -32.691406 23.585938 -31.972656 L 20.996094 -22.722656 C 20.757812 -21.90625 20.46875 -21.140625 20.085938 -19.941406 C 19.703125 -20.898438 19.414062 -21.425781 19.222656 -22.003906 C 18.503906 -24.160156 17.496094 -26.125 16.441406 -28.089844 C 15.675781 -29.527344 14.523438 -30.628906 13.375 -31.734375 C 12.558594 -32.546875 11.503906 -32.070312 10.691406 -32.5 C 9.730469 -32.980469 8.820312 -32.738281 7.8125 -32.691406 C 6.710938 -32.644531 6.230469 -32.117188 5.945312 -31.15625 L 3.738281 -23.199219 C 2.398438 -18.121094 1.054688 -13.039062 -0.335938 -7.957031 C -0.625 -6.855469 -0.910156 -5.703125 -1.246094 -4.601562 C -1.390625 -4.074219 -1.199219 -3.691406 -0.863281 -3.402344 C -0.429688 -3.117188 0 -2.683594 0.480469 -2.589844 C 1.535156 -2.398438 2.539062 -2.011719 3.546875 -1.675781 C 4.121094 -1.484375 4.601562 -1.628906 4.839844 -2.253906 C 5.175781 -3.066406 5.558594 -3.882812 5.800781 -4.746094 C 6.949219 -9.203125 8.054688 -13.710938 9.25 -18.214844 C 9.730469 -19.988281 10.304688 -21.761719 10.882812 -23.871094 C 12.222656 -22.050781 12.992188 -20.421875 13.375 -18.167969 Z M 13.375 -18.167969 "/></g></g></g><g fill="#faf0ca" fill-opacity="1"><g transform="translate(261.176469, 201.494795)"><g><path d="M 5.992188 -19.84375 C 7.8125 -19.84375 9.011719 -21.089844 8.964844 -22.863281 C 8.964844 -23.679688 8.675781 -24.445312 8.246094 -25.117188 C 7.285156 -26.554688 5.464844 -26.890625 4.121094 -25.980469 C 3.066406 -25.214844 2.492188 -23.296875 2.925781 -21.859375 C 3.257812 -20.707031 4.601562 -19.84375 5.992188 -19.84375 Z M 4.121094 -8.867188 C 3.066406 -8.148438 2.492188 -6.183594 2.925781 -4.746094 C 3.257812 -3.59375 4.601562 -2.730469 5.992188 -2.730469 C 7.8125 -2.730469 9.011719 -3.980469 8.964844 -5.753906 C 8.964844 -6.566406 8.675781 -7.335938 8.246094 -8.003906 C 7.285156 -9.441406 5.464844 -9.777344 4.121094 -8.867188 Z M 4.121094 -8.867188 "/></g></g></g><path stroke-linecap="butt" transform="matrix(0.766839, 0, 0, 0.766839, 77.663685, 153.950791)" fill="none" stroke-linejoin="miter" d="M 49.004437 18.244533 C 46.121252 18.672426 43.375605 19.558776 40.56883 20.063079 C 38.689157 20.307589 37.940344 20.995274 37.619425 22.686471 C 37.497169 23.313028 37.252659 24.000714 37.130404 24.688399 C 35.62259 31.937111 33.437279 39.063569 31.501573 46.190026 C 30.43184 50.005406 29.382483 53.805504 28.190495 57.559756 C 27.808448 58.812871 28.251623 59.55659 29.000436 60.305403 C 29.621899 60.931961 30.309585 61.314008 31.180653 61.314008 C 32.12813 61.375136 32.999198 61.619646 33.880454 61.940566 C 35.561463 62.567124 35.683718 62.444868 36.310276 60.626323 C 37.053995 58.064058 37.680552 55.435572 38.505775 52.934436 C 38.994795 51.43681 39.071205 49.501103 40.309038 48.492498 C 41.434804 47.504269 43.192222 48.064605 44.684754 47.927068 C 52.498897 47.504269 58.255077 43.627761 62.314967 37.122768 C 64.449339 33.750563 64.999487 29.874055 64.006164 26.058676 C 62.941525 22.121041 60.633959 19.176729 56.253149 18.489043 L 52.254386 17.923613 C 51.067493 18.06115 50.058887 18.122278 49.004437 18.244533 Z M 45.189057 28.626034 C 45.37244 27.877221 45.815614 27.434046 46.564427 27.311791 C 49.065564 26.807488 51.632923 26.746361 54.13406 26.929744 C 55.005128 26.990871 55.310765 27.556301 55.570558 28.243987 C 56.069766 29.935183 55.570558 31.555064 54.69949 32.864213 C 51.938561 37.122768 48.000926 39.430334 42.44341 39.491462 C 43.375605 35.614954 44.323083 32.120494 45.189057 28.626034 Z M 74.377477 18.748836 C 70.562097 19.558776 70.057794 20.185334 68.942216 24.061841 L 68.743551 25.050071 L 62.182524 47.122221 C 61.128074 50.555554 60.058341 54.004168 58.932575 57.376373 C 58.565809 58.446106 58.810319 59.189825 59.559132 59.87751 C 60.241724 60.504068 61.066946 60.993088 61.999142 61.130625 C 62.931337 61.314008 63.812593 61.619646 64.683661 61.879438 C 66.059032 62.307331 66.257696 62.246204 66.807845 61.069498 C 68.437914 57.055453 69.431237 52.873308 70.74548 48.813418 C 71.366943 46.938839 71.305816 46.938839 73.063234 46.816583 C 73.628664 46.816583 74.194094 46.755456 74.759524 46.755456 C 75.442116 46.755456 75.870009 47.122221 76.129801 47.682558 C 76.374311 48.18686 76.557694 48.75229 76.817486 49.241311 L 81.687317 60.809706 C 82.375002 62.383741 83.378513 62.80654 84.998394 62.383741 C 85.441569 62.246204 85.884744 62.001693 86.312637 61.818311 C 91.635831 59.31208 90.948145 60.748578 88.936029 55.557828 C 88.691519 54.936364 88.385881 54.309806 88.064961 53.683248 C 87.071638 51.319649 86.068127 48.996801 85.135931 46.617919 C 84.249581 44.493735 84.310709 44.493735 86.190382 43.367969 C 86.689591 43.062331 87.193893 42.817821 87.621786 42.496901 C 91.819213 39.491462 94.564861 35.614954 95.130291 30.439486 C 95.695721 25.111198 92.262388 19.237856 86.506208 18.244533 C 84.998394 17.984741 83.500768 17.862486 82.008237 17.679103 C 79.440878 17.679103 76.878614 18.183406 74.377477 18.748836 Z M 84.448246 33.872818 C 82.6297 35.614954 80.571738 36.74072 78.192857 37.367278 C 77.000869 37.688198 75.625498 38.803776 74.621987 37.62707 C 73.934302 36.801848 74.881779 35.431571 75.182323 34.377121 C 75.686626 32.365004 76.252056 30.363076 76.756359 28.305114 C 77.000869 27.311791 77.627427 26.807488 78.697159 26.746361 C 80.571738 26.624106 82.375002 26.364314 84.249581 26.685233 C 85.762489 26.990871 86.44508 27.678557 86.44508 29.308625 C 86.368671 31.050761 85.762489 32.619703 84.448246 33.872818 Z M 95.756848 51.375682 C 96.184742 54.752981 97.560112 57.819548 100.382169 59.678845 C 105.751208 63.188587 111.568516 64.319448 117.564113 61.436263 C 122.189433 59.250952 125.317128 55.557828 127.135674 50.815346 C 127.94052 48.492498 128.689333 46.190026 129.315891 43.811144 C 130.446751 39.430334 131.195564 34.927269 130.507878 30.363076 C 129.697938 25.111198 127.563567 20.873019 122.250561 18.809963 C 122.067178 18.672426 121.746258 18.672426 121.624003 18.489043 C 120.070344 16.935384 118.007288 17.118767 116.071581 17.241022 C 113.687606 17.363277 111.568516 18.183406 109.566588 19.436521 C 103.876629 22.992109 100.183504 28.121731 97.875938 34.239584 C 96.505661 37.993836 95.558184 41.809216 95.619311 45.930234 C 95.191418 47.682558 95.497056 49.562231 95.756848 51.375682 Z M 119.199276 46.617919 C 118.633846 47.86594 117.94616 49.119056 117.319603 50.311044 C 116.193836 52.369005 114.436419 53.744376 112.256201 54.309806 C 109.994481 54.814109 107.936519 53.943041 105.873463 52.995563 C 105.12465 52.628798 104.885234 51.803575 104.564314 51.059856 C 103.876629 49.241311 104.060012 47.382014 104.182267 45.563468 C 104.686569 39.628999 106.622276 34.239584 110.559911 29.675391 C 112.317329 27.678557 114.314163 26.242058 117.120938 26.364314 C 119.504914 26.486569 121.058573 27.739684 121.562876 30.057438 C 121.746258 31.050761 121.883796 32.120494 122.067178 33.124005 C 122.128306 33.613026 122.128306 34.056201 122.189433 34.682759 C 121.685131 38.681521 120.936318 42.817821 119.199276 46.617919 Z M 141.439528 37.245023 C 140.008123 43.811144 138.434088 50.372171 137.002684 56.933198 C 136.697046 58.308569 137.002684 59.250952 138.250705 59.755255 C 139.687204 60.381813 141.256145 60.870833 142.814898 61.314008 C 143.945758 61.696056 144.511189 61.375136 144.933988 60.183148 C 145.43829 58.868905 145.881465 57.498628 146.187103 56.184385 C 147.256836 51.319649 148.189031 46.373408 149.25367 41.503578 C 150.185866 37.428406 151.133343 33.368516 152.126666 29.308625 C 152.50362 27.678557 152.687003 27.556301 154.505548 27.434046 C 156.502382 27.311791 158.443183 27.311791 160.440017 27.189536 C 162.564201 27.051999 163.068503 26.624106 163.251886 24.489734 C 163.374141 22.992109 163.190759 21.494483 163.190759 19.986669 C 163.190759 19.054474 162.564201 18.748836 161.815388 18.748836 C 159.191996 18.748836 156.502382 18.809963 153.817863 18.871091 C 148.810495 18.932218 143.808221 19.054474 138.816136 18.932218 C 136.314999 18.871091 135.566186 20.490972 135.184138 22.625343 C 135.061883 23.313028 135.245266 24.000714 135.306394 24.749527 C 135.443931 27.250663 135.688441 27.495174 138.12845 27.617429 C 138.816136 27.617429 139.503821 27.495174 140.191506 27.434046 C 141.179735 27.434046 142.249468 27.189536 143.380328 27.739684 C 142.753771 30.867379 142.18834 34.056201 141.439528 37.245023 Z M 179.812367 49.562231 C 177.87666 52.430133 174.942536 53.438738 171.875969 54.248679 C 170.2459 54.691854 168.687147 54.126423 167.189521 53.438738 C 166.807474 53.255355 166.445802 52.81218 166.247138 52.430133 C 164.871767 49.928996 165.314942 46.679046 167.311776 44.677118 C 169.19145 42.817821 171.371667 41.503578 174.122408 41.625833 C 176.256779 41.748088 178.314741 41.564705 180.377797 41.12153 C 182.191248 40.739483 182.695551 39.995764 182.435759 38.177219 C 182.191248 36.679593 181.870329 35.187061 181.569785 33.750563 C 181.309993 32.558575 181.12661 32.365004 179.934622 32.558575 C 177.815532 32.803085 175.752477 33.062878 173.694515 32.619703 C 172.884574 32.502541 172.563654 31.814856 172.808165 31.050761 C 173.81677 28.564906 175.752477 27.113126 178.375869 27.051999 C 179.063554 27.051999 179.751239 27.051999 180.438924 27.113126 C 182.252376 27.189536 183.444364 27.999476 184.070922 29.812928 C 184.697479 31.753729 185.502326 32.242749 187.381999 31.814856 C 188.757369 31.555064 190.127646 31.371681 191.503017 31.249426 C 192.374085 31.249426 192.695005 30.745124 192.633877 29.874055 C 192.374085 25.493245 190.693076 21.998785 186.495649 20.124206 C 185.064245 19.436521 183.184572 19.298984 182.007866 18.366788 C 180.759844 17.241022 179.567856 17.179894 178.192486 17.49572 C 172.945702 18.672426 168.442637 21.117529 165.62058 25.997548 C 164.566129 27.877221 163.878444 29.812928 164.061827 31.998239 C 164.122954 33.24626 164.688384 34.682759 164.306337 35.691364 C 163.878444 36.74072 162.508167 37.367278 161.56069 38.253628 C 161.193924 38.559266 160.873004 38.941313 160.628494 39.246951 C 155.498871 44.93691 156.125429 52.934436 159.619889 58.002931 C 160.567367 59.373207 161.820482 60.44294 163.251886 61.191753 C 166.929729 63.12746 170.867364 63.249715 174.804999 62.383741 C 179.99575 61.191753 184.254304 58.568361 187.259744 54.065296 C 187.886301 53.117818 187.809892 52.307878 187.259744 51.497937 C 186.999952 50.998729 186.572058 50.555554 186.128883 50.249916 L 181.69204 47.382014 C 181.004355 48.18686 180.316669 48.813418 179.812367 49.562231 Z M 205.440105 21.117529 C 203.871164 20.246461 202.434666 19.558776 200.554993 19.742159 C 199.750146 19.864414 199.245844 20.063079 199.001333 20.811892 C 198.069138 23.679794 197.12166 26.562978 196.255686 29.430881 C 195.063698 33.429643 193.932838 37.428406 192.807072 41.427168 L 188.563799 56.566433 C 188.441544 57.131863 188.319288 57.743139 188.686054 58.186314 C 189.368645 59.128697 190.056331 60.12202 191.309446 60.381813 C 192.318051 60.565195 193.30628 60.870833 194.314885 61.130625 C 195.568001 61.375136 196.255686 61.069498 196.678485 59.755255 C 197.182788 58.186314 197.625963 56.62756 198.069138 55.058619 L 200.814785 44.998038 L 206.632093 24.994037 L 206.937731 23.802049 C 206.937731 22.487806 206.494556 21.738993 205.440105 21.117529 Z M 221.190645 38.314756 C 222.321506 44.753528 223.253701 51.182112 222.183969 57.743139 C 222.122841 58.064058 222.061713 58.446106 222.061713 58.751744 C 222.061713 60.183148 222.627144 61.069498 223.941387 61.314008 C 225.067153 61.497391 226.259141 61.436263 227.435847 61.497391 C 231.511019 61.619646 232.056073 61.252881 233.125806 57.559756 C 235.93258 47.504269 238.698603 37.428406 241.505378 27.311791 C 241.811016 25.997548 242.070808 24.627271 242.254191 23.236619 C 242.437574 22.121041 242.131936 21.239785 241.321995 20.368717 C 240.06888 19.176729 238.881986 18.244533 237.063441 18.993346 C 236.757803 19.115601 236.375755 19.375393 236.131245 19.237856 C 235.005479 18.748836 234.760968 19.375393 234.501176 20.307589 L 231.128971 32.365004 C 230.823333 33.429643 230.441286 34.438248 229.936983 35.997002 C 229.432681 34.743886 229.065915 34.056201 228.806123 33.307388 C 227.879022 30.500613 226.564779 27.938349 225.189408 25.37099 C 224.180803 23.496411 222.688271 22.059913 221.190645 20.613227 C 220.126007 19.558776 218.750636 20.185334 217.680903 19.619904 C 216.432882 18.993346 215.256176 19.298984 213.941933 19.375393 C 212.495247 19.436521 211.868689 20.124206 211.501924 21.372228 L 208.618739 31.753729 C 206.876603 38.375883 205.124279 44.998038 203.305734 51.620193 C 202.938968 53.056691 202.556921 54.569598 202.129028 56.001003 C 201.930363 56.688688 202.190155 57.19299 202.618049 57.559756 C 203.183479 57.941803 203.748909 58.507233 204.375467 58.629489 C 205.745743 58.868905 207.059986 59.373207 208.374229 59.816382 C 209.117948 60.060893 209.744506 59.87751 210.065426 59.052288 C 210.493319 58.002931 210.997621 56.933198 211.318541 55.802338 C 212.816167 50.005406 214.247571 44.12697 215.821606 38.253628 C 216.432882 35.935874 217.191883 33.613026 217.940696 30.867379 C 219.682832 33.24626 220.686343 35.370444 221.190645 38.314756 Z M 247.124022 36.119257 C 249.502903 36.119257 251.061657 34.499376 251.000529 32.181622 C 251.000529 31.127171 250.618482 30.118566 250.068334 29.247498 C 248.820312 27.372919 246.436336 26.929744 244.684012 28.121731 C 243.308642 29.125243 242.559829 31.616192 243.125259 33.490771 C 243.568434 35.003678 245.31057 36.119257 247.124022 36.119257 Z M 244.684012 50.433299 C 243.308642 51.375682 242.559829 53.943041 243.125259 55.802338 C 243.568434 57.315246 245.31057 58.446106 247.124022 58.446106 C 249.502903 58.446106 251.061657 56.810943 251.000529 54.493189 C 251.000529 53.438738 250.618482 52.430133 250.068334 51.559065 C 248.820312 49.684486 246.436336 49.241311 244.684012 50.433299 Z M 244.684012 50.433299 " stroke="#0d3b66" stroke-width="0.429773" stroke-opacity="1" stroke-miterlimit="4"/></svg>