<svg xmlns="http://www.w3.org/2000/svg" xmlns:xlink="http://www.w3.org/1999/xlink" width="500" zoomAndPan="magnify" viewBox="0 0 375 374.999991" height="500" preserveAspectRatio="xMidYMid meet" version="1.0"><defs><g/><clipPath id="712a8b064b"><path d="M 9 147 L 366.617188 147 L 366.617188 212.796875 L 9 212.796875 Z M 9 147 " clip-rule="nonzero"/></clipPath></defs><g clip-path="url(#712a8b064b)"><path fill="#faf0ca" d="M 16.171875 156.644531 C 5.589844 160.15625 9.84375 190.246094 11.984375 195.980469 C 14.667969 203.167969 24.597656 206.832031 31.257812 208.6875 C 50.359375 214 71.140625 211.476562 90.710938 212.675781 C 108.503906 213.761719 126.335938 212.871094 144.152344 213.300781 C 187.265625 214.339844 230.054688 214.566406 273.195312 213.632812 C 292.230469 213.21875 349.5625 216.15625 356.71875 212.863281 C 360.738281 211.015625 363.003906 205.875 364.417969 201.996094 C 367.609375 193.234375 370.410156 165.957031 361.875 158.871094 C 353.753906 152.132812 341.824219 150.925781 331.820312 149.273438 C 311.914062 145.988281 212.699219 148.464844 183.058594 152.363281 C 162.917969 155.011719 34.585938 150.53125 16.171875 156.644531 Z M 16.171875 156.644531 " fill-opacity="1" fill-rule="evenodd"/></g><g fill="#6a040f" fill-opacity="1"><g transform="translate(100.836594, 201.494795)"><g><path d="M 14.378906 -33.554688 C 12.175781 -33.21875 10.066406 -32.546875 7.863281 -32.164062 C 6.472656 -31.972656 5.894531 -31.445312 5.65625 -30.152344 C 5.558594 -29.671875 5.367188 -29.144531 5.273438 -28.617188 C 4.121094 -23.058594 2.445312 -17.59375 0.957031 -12.128906 C 0.144531 -9.203125 -0.671875 -6.28125 -1.582031 -3.402344 C -1.871094 -2.445312 -1.582031 -1.871094 -0.957031 -1.292969 C -0.480469 -0.816406 0.046875 -0.527344 0.71875 -0.527344 C 1.4375 -0.480469 2.109375 -0.289062 2.78125 -0.046875 C 4.074219 0.429688 4.171875 0.335938 4.648438 -1.054688 C 5.226562 -3.019531 5.703125 -5.03125 6.328125 -6.949219 C 6.710938 -8.101562 6.757812 -9.585938 7.667969 -10.355469 C 8.582031 -11.121094 9.921875 -10.691406 11.074219 -10.785156 C 17.066406 -11.121094 21.476562 -14.09375 24.589844 -19.078125 C 26.21875 -21.667969 26.652344 -24.636719 25.886719 -27.5625 C 25.070312 -30.582031 23.25 -32.835938 19.941406 -33.363281 L 16.875 -33.792969 C 15.960938 -33.699219 15.148438 -33.652344 14.378906 -33.554688 Z M 11.410156 -25.597656 C 11.601562 -26.171875 11.9375 -26.507812 12.464844 -26.605469 C 14.429688 -26.988281 16.347656 -27.035156 18.3125 -26.890625 C 18.980469 -26.84375 19.222656 -26.414062 19.414062 -25.886719 C 19.796875 -24.589844 19.414062 -23.34375 18.742188 -22.335938 C 16.632812 -19.078125 13.613281 -17.304688 9.347656 -17.257812 C 10.066406 -20.230469 10.785156 -22.914062 11.410156 -25.597656 Z M 11.410156 -25.597656 "/></g></g></g><g fill="#6a040f" fill-opacity="1"><g transform="translate(124.704261, 201.494795)"><g><path d="M 10.019531 -33.171875 C 7.09375 -32.546875 6.710938 -32.070312 5.847656 -29.097656 L 5.703125 -28.328125 L 0.671875 -11.410156 C -0.144531 -8.773438 -0.957031 -6.136719 -1.820312 -3.546875 C -2.109375 -2.730469 -1.917969 -2.15625 -1.34375 -1.628906 C -0.816406 -1.152344 -0.191406 -0.765625 0.527344 -0.671875 C 1.246094 -0.527344 1.917969 -0.289062 2.589844 -0.0976562 C 3.644531 0.238281 3.785156 0.191406 4.21875 -0.71875 C 5.464844 -3.785156 6.230469 -7 7.238281 -10.113281 C 7.71875 -11.550781 7.667969 -11.550781 9.011719 -11.648438 C 9.441406 -11.648438 9.875 -11.695312 10.304688 -11.695312 C 10.832031 -11.695312 11.167969 -11.410156 11.359375 -10.976562 C 11.550781 -10.59375 11.695312 -10.164062 11.886719 -9.777344 L 15.625 -0.910156 C 16.152344 0.289062 16.921875 0.625 18.167969 0.289062 C 18.503906 0.191406 18.839844 0 19.175781 -0.144531 C 23.25 -2.0625 22.722656 -0.957031 21.1875 -4.9375 C 20.996094 -5.417969 20.757812 -5.894531 20.515625 -6.375 C 19.75 -8.195312 18.980469 -9.96875 18.261719 -11.792969 C 17.59375 -13.421875 17.640625 -13.421875 19.078125 -14.285156 C 19.460938 -14.523438 19.84375 -14.714844 20.179688 -14.957031 C 23.390625 -17.257812 25.5 -20.230469 25.933594 -24.207031 C 26.363281 -28.28125 23.726562 -32.789062 19.316406 -33.554688 C 18.167969 -33.746094 17.015625 -33.84375 15.867188 -33.984375 C 13.902344 -33.984375 11.9375 -33.601562 10.019531 -33.171875 Z M 17.734375 -21.570312 C 16.347656 -20.230469 14.765625 -19.367188 12.941406 -18.886719 C 12.03125 -18.648438 10.976562 -17.785156 10.210938 -18.695312 C 9.683594 -19.316406 10.402344 -20.371094 10.640625 -21.1875 C 11.023438 -22.722656 11.457031 -24.253906 11.839844 -25.835938 C 12.03125 -26.605469 12.511719 -26.988281 13.324219 -27.035156 C 14.765625 -27.132812 16.152344 -27.324219 17.59375 -27.082031 C 18.742188 -26.84375 19.269531 -26.316406 19.269531 -25.070312 C 19.222656 -23.726562 18.742188 -22.53125 17.734375 -21.570312 Z M 17.734375 -21.570312 "/></g></g></g><g fill="#6a040f" fill-opacity="1"><g transform="translate(150.345243, 201.494795)"><g><path d="M 0.765625 -8.148438 C 1.101562 -5.558594 2.15625 -3.210938 4.3125 -1.773438 C 8.4375 0.910156 12.894531 1.773438 17.496094 -0.429688 C 21.042969 -2.109375 23.441406 -4.9375 24.832031 -8.582031 C 25.453125 -10.355469 26.027344 -12.128906 26.507812 -13.949219 C 27.371094 -17.304688 27.945312 -20.757812 27.417969 -24.253906 C 26.796875 -28.28125 25.164062 -31.542969 21.089844 -33.125 C 20.949219 -33.21875 20.707031 -33.21875 20.613281 -33.363281 C 19.414062 -34.5625 17.832031 -34.417969 16.347656 -34.320312 C 14.523438 -34.226562 12.894531 -33.601562 11.359375 -32.644531 C 7 -29.910156 4.171875 -25.980469 2.398438 -21.28125 C 1.34375 -18.40625 0.625 -15.484375 0.671875 -12.320312 C 0.335938 -10.976562 0.574219 -9.539062 0.765625 -8.148438 Z M 18.742188 -11.792969 C 18.3125 -10.832031 17.785156 -9.875 17.304688 -8.964844 C 16.441406 -7.382812 15.097656 -6.328125 13.421875 -5.894531 C 11.695312 -5.511719 10.113281 -6.183594 8.53125 -6.902344 C 7.957031 -7.191406 7.765625 -7.8125 7.527344 -8.386719 C 7 -9.777344 7.140625 -11.21875 7.238281 -12.605469 C 7.621094 -17.160156 9.109375 -21.28125 12.128906 -24.78125 C 13.46875 -26.316406 15.003906 -27.417969 17.160156 -27.324219 C 18.980469 -27.226562 20.179688 -26.269531 20.5625 -24.496094 C 20.707031 -23.726562 20.804688 -22.914062 20.949219 -22.144531 C 20.996094 -21.761719 20.996094 -21.425781 21.042969 -20.949219 C 20.660156 -17.878906 20.085938 -14.714844 18.742188 -11.792969 Z M 18.742188 -11.792969 "/></g></g></g><g fill="#6a040f" fill-opacity="1"><g transform="translate(177.759536, 201.494795)"><g><path d="M 8.386719 -18.980469 C 7.285156 -13.949219 6.085938 -8.914062 4.984375 -3.882812 C 4.746094 -2.828125 4.984375 -2.109375 5.945312 -1.726562 C 7.046875 -1.246094 8.246094 -0.863281 9.441406 -0.527344 C 10.304688 -0.238281 10.738281 -0.480469 11.074219 -1.390625 C 11.457031 -2.398438 11.792969 -3.453125 12.03125 -4.457031 C 12.847656 -8.195312 13.566406 -11.984375 14.378906 -15.722656 C 15.097656 -18.839844 15.820312 -21.953125 16.585938 -25.070312 C 16.875 -26.316406 17.015625 -26.414062 18.40625 -26.507812 C 19.941406 -26.605469 21.425781 -26.605469 22.960938 -26.699219 C 24.589844 -26.796875 24.972656 -27.132812 25.117188 -28.761719 C 25.214844 -29.910156 25.070312 -31.0625 25.070312 -32.210938 C 25.070312 -32.929688 24.589844 -33.171875 24.015625 -33.171875 C 22.003906 -33.171875 19.941406 -33.125 17.878906 -33.074219 C 14.046875 -33.027344 10.210938 -32.929688 6.375 -33.027344 C 4.457031 -33.074219 3.882812 -31.828125 3.59375 -30.199219 C 3.5 -29.671875 3.644531 -29.144531 3.691406 -28.570312 C 3.785156 -26.652344 3.980469 -26.460938 5.847656 -26.363281 C 6.375 -26.363281 6.902344 -26.460938 7.429688 -26.507812 C 8.195312 -26.507812 9.011719 -26.699219 9.875 -26.269531 C 9.394531 -23.871094 8.964844 -21.425781 8.386719 -18.980469 Z M 8.386719 -18.980469 "/></g></g></g><g fill="#6a040f" fill-opacity="1"><g transform="translate(198.511924, 201.494795)"><g><path d="M 17.066406 -9.539062 C 15.578125 -7.335938 13.324219 -6.566406 10.976562 -5.945312 C 9.730469 -5.609375 8.53125 -6.039062 7.382812 -6.566406 C 7.09375 -6.710938 6.808594 -7.046875 6.664062 -7.335938 C 5.609375 -9.25 5.945312 -11.742188 7.476562 -13.277344 C 8.914062 -14.714844 10.59375 -15.722656 12.703125 -15.625 C 14.332031 -15.53125 15.914062 -15.675781 17.496094 -16.011719 C 18.886719 -16.296875 19.269531 -16.875 19.078125 -18.261719 C 18.886719 -19.414062 18.648438 -20.5625 18.40625 -21.667969 C 18.214844 -22.578125 18.070312 -22.722656 17.160156 -22.578125 C 15.53125 -22.386719 13.949219 -22.195312 12.367188 -22.53125 C 11.742188 -22.625 11.503906 -23.152344 11.695312 -23.726562 C 12.464844 -25.644531 13.949219 -26.746094 15.960938 -26.796875 C 16.488281 -26.796875 17.015625 -26.796875 17.542969 -26.746094 C 18.933594 -26.699219 19.84375 -26.078125 20.324219 -24.6875 C 20.804688 -23.199219 21.425781 -22.816406 22.863281 -23.152344 C 23.917969 -23.34375 24.972656 -23.488281 26.027344 -23.585938 C 26.699219 -23.585938 26.941406 -23.96875 26.890625 -24.636719 C 26.699219 -27.992188 25.40625 -30.679688 22.195312 -32.117188 C 21.089844 -32.644531 19.652344 -32.738281 18.742188 -33.457031 C 17.785156 -34.320312 16.875 -34.371094 15.820312 -34.128906 C 11.792969 -33.21875 8.339844 -31.347656 6.183594 -27.609375 C 5.367188 -26.171875 4.839844 -24.6875 4.984375 -23.007812 C 5.03125 -22.050781 5.464844 -20.949219 5.175781 -20.179688 C 4.839844 -19.367188 3.785156 -18.886719 3.066406 -18.214844 C 2.78125 -17.976562 2.539062 -17.6875 2.347656 -17.449219 C -1.582031 -13.085938 -1.101562 -6.949219 1.582031 -3.066406 C 2.300781 -2.011719 3.257812 -1.199219 4.363281 -0.625 C 7.191406 0.863281 10.210938 0.957031 13.230469 0.289062 C 17.207031 -0.625 20.46875 -2.636719 22.769531 -6.085938 C 23.25 -6.808594 23.199219 -7.429688 22.769531 -8.054688 C 22.578125 -8.4375 22.242188 -8.773438 21.90625 -9.011719 L 18.503906 -11.21875 C 17.976562 -10.59375 17.449219 -10.113281 17.066406 -9.539062 Z M 17.066406 -9.539062 "/></g></g></g><g fill="#6a040f" fill-opacity="1"><g transform="translate(223.817416, 201.494795)"><g><path d="M 11.410156 -31.347656 C 10.210938 -32.019531 9.109375 -32.546875 7.667969 -32.402344 C 7.046875 -32.308594 6.664062 -32.164062 6.472656 -31.589844 C 5.753906 -29.382812 5.03125 -27.179688 4.363281 -24.972656 C 3.453125 -21.90625 2.589844 -18.839844 1.726562 -15.769531 L -1.535156 -4.171875 C -1.628906 -3.738281 -1.726562 -3.257812 -1.4375 -2.925781 C -0.910156 -2.203125 -0.382812 -1.4375 0.574219 -1.246094 C 1.34375 -1.101562 2.109375 -0.863281 2.875 -0.671875 C 3.835938 -0.480469 4.363281 -0.71875 4.699219 -1.726562 C 5.082031 -2.925781 5.417969 -4.121094 5.753906 -5.320312 L 7.863281 -13.039062 L 12.320312 -28.378906 L 12.558594 -29.289062 C 12.558594 -30.296875 12.222656 -30.871094 11.410156 -31.347656 Z M 11.410156 -31.347656 "/></g></g></g><g fill="#6a040f" fill-opacity="1"><g transform="translate(233.929915, 201.494795)"><g><path d="M 13.375 -18.167969 C 14.238281 -13.230469 14.957031 -8.292969 14.140625 -3.257812 C 14.09375 -3.019531 14.046875 -2.730469 14.046875 -2.492188 C 14.046875 -1.390625 14.476562 -0.71875 15.484375 -0.527344 C 16.347656 -0.382812 17.257812 -0.429688 18.167969 -0.382812 C 21.28125 -0.289062 21.714844 -0.574219 22.53125 -3.402344 C 24.6875 -11.121094 26.796875 -18.839844 28.953125 -26.605469 C 29.191406 -27.609375 29.382812 -28.664062 29.527344 -29.71875 C 29.671875 -30.582031 29.433594 -31.253906 28.808594 -31.925781 C 27.851562 -32.835938 26.941406 -33.554688 25.550781 -32.980469 C 25.308594 -32.882812 25.023438 -32.691406 24.832031 -32.789062 C 23.96875 -33.171875 23.777344 -32.691406 23.585938 -31.972656 L 20.996094 -22.722656 C 20.757812 -21.90625 20.46875 -21.140625 20.085938 -19.941406 C 19.703125 -20.898438 19.414062 -21.425781 19.222656 -22.003906 C 18.503906 -24.160156 17.496094 -26.125 16.441406 -28.089844 C 15.675781 -29.527344 14.523438 -30.628906 13.375 -31.734375 C 12.558594 -32.546875 11.503906 -32.070312 10.691406 -32.5 C 9.730469 -32.980469 8.820312 -32.738281 7.8125 -32.691406 C 6.710938 -32.644531 6.230469 -32.117188 5.945312 -31.15625 L 3.738281 -23.199219 C 2.398438 -18.121094 1.054688 -13.039062 -0.335938 -7.957031 C -0.625 -6.855469 -0.910156 -5.703125 -1.246094 -4.601562 C -1.390625 -4.074219 -1.199219 -3.691406 -0.863281 -3.402344 C -0.429688 -3.117188 0 -2.683594 0.480469 -2.589844 C 1.535156 -2.398438 2.539062 -2.011719 3.546875 -1.675781 C 4.121094 -1.484375 4.601562 -1.628906 4.839844 -2.253906 C 5.175781 -3.066406 5.558594 -3.882812 5.800781 -4.746094 C 6.949219 -9.203125 8.054688 -13.710938 9.25 -18.214844 C 9.730469 -19.988281 10.304688 -21.761719 10.882812 -23.871094 C 12.222656 -22.050781 12.992188 -20.421875 13.375 -18.167969 Z M 13.375 -18.167969 "/></g></g></g><g fill="#6a040f" fill-opacity="1"><g transform="translate(261.200433, 201.494795)"><g><path d="M 5.992188 -19.84375 C 7.8125 -19.84375 9.011719 -21.089844 8.964844 -22.863281 C 8.964844 -23.679688 8.675781 -24.445312 8.246094 -25.117188 C 7.285156 -26.554688 5.464844 -26.890625 4.121094 -25.980469 C 3.066406 -25.214844 2.492188 -23.296875 2.925781 -21.859375 C 3.257812 -20.707031 4.601562 -19.84375 5.992188 -19.84375 Z M 4.121094 -8.867188 C 3.066406 -8.148438 2.492188 -6.183594 2.925781 -4.746094 C 3.257812 -3.59375 4.601562 -2.730469 5.992188 -2.730469 C 7.8125 -2.730469 9.011719 -3.980469 8.964844 -5.753906 C 8.964844 -6.566406 8.675781 -7.335938 8.246094 -8.003906 C 7.285156 -9.441406 5.464844 -9.777344 4.121094 -8.867188 Z M 4.121094 -8.867188 "/></g></g></g><path stroke-linecap="butt" transform="matrix(0.766839, 0, 0, 0.766839, 77.663685, 153.950791)" fill="none" stroke-linejoin="miter" d="M 48.973873 18.244533 C 46.090689 18.672426 43.345041 19.558776 40.472045 20.063079 C 38.658594 20.307589 37.909781 20.995274 37.588861 22.686471 C 37.466606 23.313028 37.222095 24.000714 37.09984 24.688399 C 35.592027 31.937111 33.406715 39.063569 31.471009 46.190026 C 30.401276 50.005406 29.346825 53.805504 28.159931 57.559756 C 27.777884 58.812871 28.159931 59.55659 28.969872 60.305403 C 29.591336 60.931961 30.279021 61.314008 31.150089 61.314008 C 32.097566 61.375136 32.963541 61.619646 33.84989 61.940566 C 35.530899 62.567124 35.653154 62.444868 36.279712 60.626323 C 37.023431 58.064058 37.649988 55.435572 38.475211 52.934436 C 38.964231 51.43681 39.040641 49.501103 40.217347 48.492498 C 41.404241 47.504269 43.161659 48.064605 44.65419 47.927068 C 52.468333 47.504269 58.224514 43.627761 62.284404 37.122768 C 64.418775 33.750563 64.968923 29.874055 63.9756 26.058676 C 62.905867 22.121041 60.542268 19.176729 56.222585 18.489043 L 52.223823 17.923613 C 51.036929 18.06115 49.967196 18.122278 48.973873 18.244533 Z M 45.097365 28.626034 C 45.341876 27.877221 45.785051 27.434046 46.472736 27.311791 C 49.035 26.807488 51.541231 26.746361 54.103496 26.929744 C 54.974564 26.990871 55.280202 27.556301 55.5349 28.243987 C 56.039202 29.935183 55.5349 31.555064 54.668926 32.864213 C 51.902903 37.122768 47.965268 39.430334 42.412846 39.491462 C 43.345041 35.614954 44.287425 32.120494 45.097365 28.626034 Z M 74.408041 18.748836 C 70.592661 19.558776 70.088358 20.185334 68.97278 24.061841 L 68.774115 25.050071 L 62.213088 47.122221 C 61.158637 50.555554 60.093999 54.004168 58.963138 57.376373 C 58.596373 58.446106 58.840883 59.189825 59.589696 59.87751 C 60.277381 60.504068 61.09751 60.993088 62.029705 61.130625 C 62.961901 61.314008 63.848251 61.619646 64.714225 61.879438 C 66.089596 62.307331 66.28826 62.246204 66.838409 61.069498 C 68.468477 57.055453 69.461801 52.873308 70.776044 48.813418 C 71.402601 46.938839 71.341474 46.938839 73.093798 46.816583 C 73.659228 46.816583 74.224658 46.755456 74.790088 46.755456 C 75.477773 46.755456 75.900572 47.122221 76.160365 47.682558 C 76.404875 48.18686 76.588258 48.75229 76.84805 49.241311 L 81.717881 60.809706 C 82.405566 62.383741 83.409077 62.80654 85.028958 62.383741 C 85.472133 62.246204 85.915308 62.001693 86.343201 61.818311 C 91.666394 59.31208 90.978709 60.748578 88.966593 55.557828 C 88.722083 54.936364 88.416445 54.309806 88.095525 53.683248 C 87.102202 51.319649 86.098691 48.996801 85.166495 46.617919 C 84.280145 44.493735 84.341273 44.493735 86.220946 43.367969 C 86.725248 43.062331 87.224457 42.817821 87.65235 42.496901 C 91.849777 39.491462 94.595424 35.614954 95.160855 30.439486 C 95.726285 25.111198 92.292952 19.237856 86.541866 18.244533 C 85.028958 17.984741 83.531332 17.862486 82.0388 17.679103 C 79.471442 17.679103 76.909178 18.183406 74.408041 18.748836 Z M 84.47881 33.872818 C 82.665358 35.614954 80.602302 36.74072 78.223421 37.367278 C 77.031433 37.688198 75.656062 38.803776 74.652551 37.62707 C 73.964866 36.801848 74.912343 35.431571 75.217981 34.377121 C 75.71719 32.365004 76.28262 30.363076 76.786922 28.305114 C 77.031433 27.311791 77.65799 26.807488 78.727723 26.746361 C 80.602302 26.624106 82.405566 26.364314 84.280145 26.685233 C 85.793053 26.990871 86.480738 27.678557 86.480738 29.308625 C 86.404329 31.050761 85.793053 32.619703 84.47881 33.872818 Z M 95.787412 51.375682 C 96.215305 54.752981 97.590676 57.819548 100.412733 59.678845 C 105.781772 63.188587 111.59908 64.319448 117.594677 61.436263 C 122.219997 59.250952 125.347692 55.557828 127.166237 50.815346 C 127.976178 48.492498 128.719897 46.190026 129.346454 43.811144 C 130.477315 39.430334 131.226128 34.927269 130.538442 30.363076 C 129.728502 25.111198 127.59413 20.873019 122.281125 18.809963 C 122.097742 18.672426 121.776822 18.672426 121.654567 18.489043 C 120.100908 16.935384 118.037852 17.118767 116.102145 17.241022 C 113.718169 17.363277 111.59908 18.183406 109.597152 19.436521 C 103.907193 22.992109 100.214068 28.121731 97.911596 34.239584 C 96.536225 37.993836 95.588748 41.809216 95.649875 45.930234 C 95.221982 47.682558 95.52762 49.562231 95.787412 51.375682 Z M 119.22984 46.617919 C 118.66441 47.86594 117.976724 49.119056 117.350167 50.311044 C 116.2244 52.369005 114.466982 53.744376 112.286765 54.309806 C 110.025045 54.814109 107.967083 53.943041 105.904027 52.995563 C 105.160308 52.628798 104.915798 51.803575 104.594878 51.059856 C 103.907193 49.241311 104.090575 47.382014 104.212831 45.563468 C 104.717133 39.628999 106.65284 34.239584 110.590475 29.675391 C 112.347893 27.678557 114.344727 26.242058 117.151502 26.364314 C 119.535478 26.486569 121.089137 27.739684 121.593439 30.057438 C 121.776822 31.050761 121.914359 32.120494 122.097742 33.124005 C 122.15887 33.613026 122.15887 34.056201 122.219997 34.682759 C 121.715695 38.681521 120.966882 42.817821 119.22984 46.617919 Z M 141.475185 37.245023 C 140.038687 43.811144 138.464652 50.372171 137.033248 56.933198 C 136.72761 58.308569 137.033248 59.250952 138.281269 59.755255 C 139.717767 60.381813 141.291803 60.870833 142.845462 61.314008 C 143.976322 61.696056 144.541752 61.375136 144.969645 60.183148 C 145.468854 58.868905 145.912029 57.498628 146.217667 56.184385 C 147.2874 51.319649 148.219595 46.373408 149.284234 41.503578 C 150.216429 37.428406 151.163907 33.368516 152.15723 29.308625 C 152.539278 27.678557 152.72266 27.556301 154.536112 27.434046 C 156.53804 27.311791 158.473747 27.311791 160.470581 27.189536 C 162.594765 27.051999 163.099067 26.624106 163.28245 24.489734 C 163.404705 22.992109 163.221322 21.494483 163.221322 19.986669 C 163.221322 19.054474 162.594765 18.748836 161.845952 18.748836 C 159.22256 18.748836 156.53804 18.809963 153.848427 18.871091 C 148.846153 18.932218 143.838785 19.054474 138.846699 18.932218 C 136.345562 18.871091 135.59675 20.490972 135.214702 22.625343 C 135.092447 23.313028 135.27583 24.000714 135.336957 24.749527 C 135.474494 27.250663 135.719005 27.495174 138.159014 27.617429 C 138.846699 27.617429 139.534385 27.495174 140.22207 27.434046 C 141.215393 27.434046 142.280032 27.189536 143.410892 27.739684 C 142.784334 30.867379 142.218904 34.056201 141.475185 37.245023 Z M 179.842931 49.562231 C 177.907224 52.430133 174.9731 53.438738 171.906533 54.248679 C 170.276464 54.691854 168.717711 54.126423 167.220085 53.438738 C 166.843132 53.255355 166.476366 52.81218 166.277701 52.430133 C 164.902331 49.928996 165.345506 46.679046 167.34234 44.677118 C 169.222013 42.817821 171.40223 41.503578 174.152972 41.625833 C 176.287343 41.748088 178.350399 41.564705 180.408361 41.12153 C 182.226906 40.739483 182.726115 39.995764 182.466323 38.177219 C 182.226906 36.679593 181.905986 35.187061 181.600349 33.750563 C 181.340556 32.558575 181.157174 32.365004 179.965186 32.558575 C 177.846096 32.803085 175.78304 33.062878 173.725078 32.619703 C 172.915138 32.502541 172.594218 31.814856 172.838729 31.050761 C 173.847334 28.564906 175.78304 27.113126 178.411526 27.051999 C 179.094118 27.051999 179.781803 27.051999 180.469488 27.113126 C 182.28294 27.189536 183.474928 27.999476 184.101485 29.812928 C 184.728043 31.753729 185.537984 32.242749 187.412563 31.814856 C 188.787933 31.555064 190.15821 31.371681 191.53358 31.249426 C 192.404649 31.249426 192.725568 30.745124 192.664441 29.874055 C 192.404649 25.493245 190.72364 21.998785 186.526213 20.124206 C 185.094809 19.436521 183.215135 19.298984 182.043523 18.366788 C 180.790408 17.241022 179.59842 17.179894 178.228144 17.49572 C 172.976266 18.672426 168.4732 21.117529 165.651144 25.997548 C 164.596693 27.877221 163.909008 29.812928 164.09239 31.998239 C 164.153518 33.24626 164.718948 34.682759 164.336901 35.691364 C 163.909008 36.74072 162.538731 37.367278 161.591254 38.253628 C 161.224488 38.559266 160.903568 38.941313 160.659058 39.246951 C 155.534529 44.93691 156.155993 52.934436 159.655547 58.002931 C 160.59793 59.373207 161.851046 60.44294 163.287544 61.191753 C 166.965387 63.12746 170.903022 63.249715 174.835563 62.383741 C 180.026313 61.191753 184.284868 58.568361 187.290308 54.065296 C 187.916865 53.117818 187.840456 52.307878 187.290308 51.497937 C 187.030515 50.998729 186.602622 50.555554 186.159447 50.249916 L 181.722604 47.382014 C 181.034918 48.18686 180.347233 48.813418 179.842931 49.562231 Z M 205.470669 21.117529 C 203.901728 20.246461 202.46523 19.558776 200.59065 19.742159 C 199.78071 19.864414 199.276407 20.063079 199.031897 20.811892 C 198.099702 23.679794 197.157318 26.562978 196.28625 29.430881 C 195.094262 33.429643 193.963402 37.428406 192.837636 41.427168 L 188.594363 56.566433 C 188.472107 57.131863 188.349852 57.743139 188.716618 58.186314 C 189.404303 59.128697 190.086894 60.12202 191.34001 60.381813 C 192.348615 60.565195 193.341938 60.870833 194.345449 61.130625 C 195.598565 61.375136 196.28625 61.069498 196.714143 59.755255 C 197.213352 58.186314 197.656527 56.62756 198.099702 55.058619 L 200.850443 44.998038 L 206.662657 24.994037 L 206.968295 23.802049 C 206.968295 22.487806 206.52512 21.738993 205.470669 21.117529 Z M 221.221209 38.314756 C 222.352069 44.753528 223.284265 51.182112 222.214532 57.743139 C 222.153405 58.064058 222.092277 58.446106 222.092277 58.751744 C 222.092277 60.183148 222.657707 61.069498 223.97195 61.314008 C 225.097717 61.497391 226.289704 61.436263 227.46641 61.497391 C 231.541582 61.619646 232.091731 61.252881 233.156369 57.559756 C 235.968238 47.504269 238.729167 37.428406 241.535942 27.311791 C 241.84158 25.997548 242.101372 24.627271 242.284755 23.236619 C 242.468138 22.121041 242.1625 21.239785 241.352559 20.368717 C 240.099444 19.176729 238.91255 18.244533 237.094004 18.993346 C 236.788367 19.115601 236.406319 19.375393 236.161809 19.237856 C 235.036043 18.748836 234.791532 19.375393 234.53174 20.307589 L 231.159535 32.365004 C 230.853897 33.429643 230.47185 34.438248 229.967547 35.997002 C 229.463245 34.743886 229.096479 34.056201 228.836687 33.307388 C 227.909585 30.500613 226.595342 27.938349 225.219972 25.37099 C 224.216461 23.496411 222.718835 22.059913 221.221209 20.613227 C 220.15657 19.558776 218.7812 20.185334 217.711467 19.619904 C 216.463446 18.993346 215.28674 19.298984 213.972497 19.375393 C 212.525811 19.436521 211.899253 20.124206 211.532488 21.372228 L 208.649303 31.753729 C 206.907167 38.375883 205.154843 44.998038 203.336298 51.620193 C 202.969532 53.056691 202.587485 54.569598 202.159592 56.001003 C 201.966021 56.688688 202.220719 57.19299 202.648612 57.559756 C 203.214042 57.941803 203.779473 58.507233 204.40603 58.629489 C 205.781401 58.868905 207.09055 59.373207 208.404793 59.816382 C 209.153606 60.060893 209.77507 59.87751 210.095989 59.052288 C 210.523882 58.002931 211.028185 56.933198 211.349105 55.802338 C 212.846731 50.005406 214.278135 44.12697 215.85217 38.253628 C 216.463446 35.935874 217.222447 33.613026 217.971259 30.867379 C 219.713395 33.24626 220.722001 35.370444 221.221209 38.314756 Z M 247.154586 36.119257 C 249.538561 36.119257 251.092221 34.499376 251.031093 32.181622 C 251.031093 31.127171 250.649046 30.118566 250.098897 29.247498 C 248.850876 27.372919 246.4669 26.929744 244.714576 28.121731 C 243.339206 29.125243 242.590393 31.616192 243.155823 33.490771 C 243.598998 35.003678 245.341134 36.119257 247.154586 36.119257 Z M 244.714576 50.433299 C 243.339206 51.375682 242.590393 53.943041 243.155823 55.802338 C 243.598998 57.315246 245.341134 58.446106 247.154586 58.446106 C 249.538561 58.446106 251.092221 56.810943 251.031093 54.493189 C 251.031093 53.438738 250.649046 52.430133 250.098897 51.559065 C 248.850876 49.684486 246.4669 49.241311 244.714576 50.433299 Z M 244.714576 50.433299 " stroke="#0d3b66" stroke-width="0.429773" stroke-opacity="1" stroke-miterlimit="4"/></svg>