<svg xmlns="http://www.w3.org/2000/svg" xmlns:xlink="http://www.w3.org/1999/xlink" width="500" zoomAndPan="magnify" viewBox="0 0 375 112.499997" height="150" preserveAspectRatio="xMidYMid meet" version="1.0"><defs><clipPath id="552272044d"><path d="M 0.828125 0 L 374.167969 0 L 374.167969 112.003906 L 0.828125 112.003906 Z M 0.828125 0 " clip-rule="nonzero"/></clipPath><clipPath id="5f82e64110"><path d="M 18 18 L 357.558594 18 L 357.558594 79.917969 L 18 79.917969 Z M 18 18 " clip-rule="nonzero"/></clipPath></defs><g clip-path="url(#552272044d)"><path fill="#ffffff" d="M 0.828125 0 L 374.171875 0 L 374.171875 112.003906 L 0.828125 112.003906 Z M 0.828125 0 " fill-opacity="1" fill-rule="nonzero"/><path fill="#ffffff" d="M 0.828125 0 L 374.171875 0 L 374.171875 112.003906 L 0.828125 112.003906 Z M 0.828125 0 " fill-opacity="1" fill-rule="nonzero"/></g><g clip-path="url(#5f82e64110)"><path fill="#1e1e1e" d="M 24.710938 26.585938 C 14.660156 29.921875 18.703125 58.5 20.734375 63.949219 C 23.285156 70.773438 32.714844 74.253906 39.039062 76.015625 C 57.183594 81.0625 76.921875 78.664062 95.507812 79.804688 C 112.40625 80.835938 129.34375 79.988281 146.265625 80.398438 C 187.214844 81.386719 227.851562 81.601562 268.828125 80.714844 C 286.90625 80.320312 341.359375 83.109375 348.15625 79.980469 C 351.972656 78.226562 354.125 73.34375 355.46875 69.660156 C 358.5 61.339844 361.160156 35.433594 353.054688 28.703125 C 345.339844 22.300781 334.007812 21.15625 324.507812 19.585938 C 305.601562 16.464844 211.371094 18.816406 183.21875 22.519531 C 164.089844 25.035156 42.199219 20.78125 24.710938 26.585938 Z M 24.710938 26.585938 " fill-opacity="1" fill-rule="evenodd"/></g><path fill="#faf0ca" d="M 118.804688 37.316406 C 116.710938 37.632812 114.707031 38.273438 112.660156 38.636719 C 111.292969 38.816406 110.746094 39.320312 110.519531 40.546875 C 110.425781 41.003906 110.246094 41.503906 110.15625 42.003906 C 109.0625 47.285156 107.46875 52.476562 106.054688 57.664062 C 105.285156 60.445312 104.507812 63.21875 103.644531 65.953125 C 103.371094 66.863281 103.6875 67.40625 104.238281 67.957031 C 104.691406 68.410156 105.191406 68.683594 105.828125 68.683594 C 106.511719 68.730469 107.148438 68.910156 107.789062 69.140625 C 109.015625 69.59375 109.109375 69.503906 109.5625 68.183594 C 110.109375 66.316406 110.5625 64.40625 111.15625 62.585938 C 111.519531 61.492188 111.566406 60.082031 112.476562 59.351562 C 113.296875 58.621094 114.570312 59.03125 115.664062 58.941406 C 121.355469 58.621094 125.542969 55.800781 128.5 51.066406 C 130.050781 48.605469 130.460938 45.785156 129.734375 43.007812 C 128.957031 40.140625 127.273438 38 124.085938 37.496094 L 121.175781 37.089844 C 120.304688 37.179688 119.578125 37.222656 118.804688 37.316406 Z M 116.027344 44.871094 C 116.164062 44.328125 116.484375 44.007812 117.03125 43.914062 C 118.851562 43.550781 120.71875 43.507812 122.539062 43.644531 C 123.175781 43.6875 123.402344 44.097656 123.585938 44.597656 C 123.949219 45.832031 123.585938 47.011719 122.949219 47.972656 C 120.945312 51.066406 118.078125 52.75 114.023438 52.792969 C 114.707031 49.96875 115.390625 47.421875 116.027344 44.871094 Z M 116.027344 44.871094 " fill-opacity="1" fill-rule="nonzero"/><path fill="#faf0ca" d="M 137.285156 37.679688 C 134.507812 38.273438 134.144531 38.726562 133.324219 41.546875 L 133.1875 42.28125 L 128.410156 58.347656 C 127.632812 60.851562 126.863281 63.355469 126.042969 65.816406 C 125.765625 66.589844 125.949219 67.136719 126.496094 67.636719 C 126.996094 68.089844 127.589844 68.457031 128.269531 68.546875 C 128.953125 68.683594 129.59375 68.910156 130.230469 69.09375 C 131.230469 69.410156 131.367188 69.367188 131.777344 68.503906 C 132.960938 65.589844 133.6875 62.535156 134.644531 59.578125 C 135.101562 58.214844 135.054688 58.214844 136.328125 58.121094 C 136.738281 58.121094 137.148438 58.078125 137.558594 58.078125 C 138.058594 58.078125 138.378906 58.347656 138.558594 58.757812 C 138.742188 59.125 138.878906 59.53125 139.058594 59.898438 L 142.609375 68.320312 C 143.113281 69.460938 143.84375 69.777344 145.027344 69.460938 C 145.34375 69.367188 145.664062 69.183594 145.984375 69.046875 C 149.851562 67.226562 149.351562 68.277344 147.894531 64.496094 C 147.710938 64.039062 147.484375 63.585938 147.253906 63.128906 C 146.527344 61.402344 145.796875 59.71875 145.113281 57.984375 C 144.480469 56.4375 144.523438 56.4375 145.890625 55.617188 C 146.253906 55.390625 146.617188 55.210938 146.9375 54.980469 C 149.988281 52.792969 151.988281 49.96875 152.402344 46.195312 C 152.808594 42.324219 150.304688 38.042969 146.117188 37.316406 C 145.027344 37.132812 143.929688 37.039062 142.839844 36.90625 C 140.976562 36.90625 139.109375 37.269531 137.285156 37.679688 Z M 144.613281 48.699219 C 143.296875 49.96875 141.792969 50.789062 140.0625 51.246094 C 139.199219 51.472656 138.195312 52.292969 137.46875 51.429688 C 136.96875 50.839844 137.652344 49.835938 137.875 49.0625 C 138.242188 47.605469 138.652344 46.148438 139.015625 44.648438 C 139.199219 43.914062 139.652344 43.550781 140.425781 43.507812 C 141.792969 43.414062 143.113281 43.234375 144.480469 43.464844 C 145.570312 43.6875 146.074219 44.191406 146.074219 45.375 C 146.027344 46.648438 145.570312 47.785156 144.613281 48.699219 Z M 144.613281 48.699219 " fill-opacity="1" fill-rule="nonzero"/><path fill="#faf0ca" d="M 152.851562 61.445312 C 153.171875 63.90625 154.171875 66.136719 156.21875 67.5 C 160.136719 70.050781 164.371094 70.871094 168.742188 68.777344 C 172.109375 67.179688 174.386719 64.496094 175.707031 61.035156 C 176.296875 59.351562 176.84375 57.664062 177.300781 55.9375 C 178.121094 52.75 178.664062 49.46875 178.164062 46.148438 C 177.574219 42.324219 176.023438 39.226562 172.15625 37.722656 C 172.019531 37.632812 171.789062 37.632812 171.703125 37.496094 C 170.5625 36.359375 169.058594 36.496094 167.652344 36.589844 C 165.917969 36.675781 164.371094 37.269531 162.914062 38.179688 C 158.773438 40.777344 156.085938 44.507812 154.402344 48.972656 C 153.398438 51.703125 152.71875 54.476562 152.761719 57.484375 C 152.441406 58.757812 152.667969 60.125 152.851562 61.445312 Z M 169.925781 57.984375 C 169.515625 58.898438 169.015625 59.804688 168.558594 60.671875 C 167.738281 62.171875 166.464844 63.175781 164.871094 63.585938 C 163.230469 63.949219 161.730469 63.3125 160.226562 62.628906 C 159.679688 62.355469 159.5 61.765625 159.273438 61.21875 C 158.773438 59.898438 158.90625 58.53125 159 57.210938 C 159.363281 52.886719 160.777344 48.972656 163.644531 45.648438 C 164.917969 44.191406 166.375 43.144531 168.421875 43.234375 C 170.152344 43.324219 171.289062 44.234375 171.652344 45.917969 C 171.789062 46.648438 171.882812 47.421875 172.019531 48.152344 C 172.066406 48.515625 172.066406 48.835938 172.109375 49.289062 C 171.746094 52.203125 171.199219 55.210938 169.925781 57.984375 Z M 169.925781 57.984375 " fill-opacity="1" fill-rule="nonzero"/><path fill="#faf0ca" d="M 186.128906 51.15625 C 185.082031 55.9375 183.941406 60.71875 182.894531 65.496094 C 182.667969 66.5 182.894531 67.179688 183.808594 67.546875 C 184.855469 68 185.992188 68.363281 187.128906 68.683594 C 187.949219 68.957031 188.359375 68.730469 188.679688 67.863281 C 189.042969 66.90625 189.363281 65.90625 189.589844 64.953125 C 190.363281 61.402344 191.046875 57.800781 191.820312 54.253906 C 192.5 51.292969 193.1875 48.335938 193.914062 45.375 C 194.191406 44.191406 194.324219 44.097656 195.644531 44.007812 C 197.101562 43.914062 198.511719 43.914062 199.96875 43.828125 C 201.515625 43.734375 201.878906 43.414062 202.019531 41.867188 C 202.109375 40.777344 201.972656 39.683594 201.972656 38.589844 C 201.972656 37.910156 201.515625 37.679688 200.972656 37.679688 C 199.0625 37.679688 197.101562 37.722656 195.144531 37.773438 C 191.503906 37.816406 187.859375 37.910156 184.21875 37.816406 C 182.394531 37.773438 181.851562 38.957031 181.574219 40.503906 C 181.484375 41.003906 181.625 41.503906 181.667969 42.050781 C 181.757812 43.871094 181.941406 44.054688 183.714844 44.144531 C 184.21875 44.144531 184.71875 44.054688 185.21875 44.007812 C 185.945312 44.007812 186.722656 43.828125 187.542969 44.234375 C 187.085938 46.511719 186.675781 48.835938 186.128906 51.15625 Z M 186.128906 51.15625 " fill-opacity="1" fill-rule="nonzero"/><path fill="#faf0ca" d="M 214.082031 60.125 C 212.667969 62.21875 210.527344 62.949219 208.296875 63.539062 C 207.113281 63.855469 205.972656 63.449219 204.882812 62.949219 C 204.609375 62.8125 204.339844 62.492188 204.203125 62.21875 C 203.199219 60.398438 203.519531 58.03125 204.972656 56.574219 C 206.339844 55.210938 207.933594 54.253906 209.9375 54.34375 C 211.484375 54.433594 212.988281 54.296875 214.488281 53.976562 C 215.808594 53.707031 216.171875 53.15625 215.992188 51.839844 C 215.808594 50.746094 215.582031 49.65625 215.355469 48.605469 C 215.171875 47.742188 215.035156 47.605469 214.171875 47.742188 C 212.625 47.921875 211.121094 48.105469 209.617188 47.785156 C 209.023438 47.695312 208.796875 47.195312 208.980469 46.648438 C 209.710938 44.828125 211.121094 43.78125 213.03125 43.734375 C 213.53125 43.734375 214.03125 43.734375 214.535156 43.78125 C 215.855469 43.828125 216.71875 44.417969 217.175781 45.738281 C 217.632812 47.152344 218.222656 47.515625 219.585938 47.195312 C 220.589844 47.011719 221.589844 46.875 222.59375 46.785156 C 223.230469 46.785156 223.460938 46.421875 223.410156 45.785156 C 223.230469 42.597656 222.003906 40.046875 218.953125 38.679688 C 217.902344 38.179688 216.539062 38.089844 215.671875 37.410156 C 214.765625 36.589844 213.898438 36.539062 212.898438 36.769531 C 209.074219 37.632812 205.792969 39.410156 203.746094 42.960938 C 202.96875 44.328125 202.46875 45.738281 202.605469 47.332031 C 202.648438 48.242188 203.0625 49.289062 202.789062 50.019531 C 202.46875 50.789062 201.46875 51.246094 200.785156 51.886719 C 200.511719 52.109375 200.285156 52.386719 200.101562 52.613281 C 196.371094 56.757812 196.824219 62.585938 199.375 66.273438 C 200.058594 67.273438 200.964844 68.046875 202.015625 68.589844 C 204.703125 70.003906 207.570312 70.09375 210.4375 69.460938 C 214.214844 68.589844 217.3125 66.679688 219.496094 63.40625 C 219.953125 62.71875 219.90625 62.128906 219.496094 61.535156 C 219.316406 61.171875 218.996094 60.851562 218.679688 60.625 L 215.445312 58.53125 C 214.945312 59.125 214.445312 59.578125 214.082031 60.125 Z M 214.082031 60.125 " fill-opacity="1" fill-rule="nonzero"/><path fill="#faf0ca" d="M 232.742188 39.410156 C 231.605469 38.773438 230.558594 38.273438 229.1875 38.410156 C 228.597656 38.5 228.234375 38.636719 228.054688 39.183594 C 227.371094 41.277344 226.683594 43.371094 226.050781 45.464844 C 225.1875 48.378906 224.367188 51.292969 223.546875 54.207031 L 220.449219 65.222656 C 220.359375 65.632812 220.265625 66.089844 220.539062 66.40625 C 221.042969 67.09375 221.542969 67.820312 222.453125 68 C 223.183594 68.140625 223.910156 68.363281 224.636719 68.546875 C 225.550781 68.730469 226.050781 68.503906 226.371094 67.546875 C 226.734375 66.40625 227.050781 65.269531 227.371094 64.132812 L 229.375 56.800781 L 233.609375 42.230469 L 233.832031 41.367188 C 233.832031 40.410156 233.515625 39.863281 232.742188 39.410156 Z M 232.742188 39.410156 " fill-opacity="1" fill-rule="nonzero"/><path fill="#faf0ca" d="M 244.214844 51.929688 C 245.035156 56.617188 245.71875 61.308594 244.941406 66.089844 C 244.898438 66.316406 244.851562 66.589844 244.851562 66.816406 C 244.851562 67.863281 245.261719 68.503906 246.21875 68.683594 C 247.039062 68.820312 247.902344 68.777344 248.765625 68.820312 C 251.722656 68.910156 252.136719 68.640625 252.910156 65.953125 C 254.957031 58.621094 256.960938 51.292969 259.011719 43.914062 C 259.238281 42.960938 259.417969 41.960938 259.554688 40.957031 C 259.691406 40.140625 259.464844 39.5 258.871094 38.863281 C 257.964844 38 257.097656 37.316406 255.777344 37.859375 C 255.546875 37.953125 255.277344 38.136719 255.097656 38.042969 C 254.277344 37.679688 254.09375 38.136719 253.914062 38.816406 L 251.453125 47.605469 C 251.226562 48.378906 250.953125 49.105469 250.589844 50.246094 C 250.226562 49.335938 249.949219 48.835938 249.769531 48.285156 C 249.085938 46.238281 248.128906 44.371094 247.125 42.507812 C 246.398438 41.140625 245.304688 40.09375 244.214844 39.042969 C 243.4375 38.273438 242.4375 38.726562 241.664062 38.316406 C 240.753906 37.859375 239.886719 38.089844 238.929688 38.136719 C 237.886719 38.179688 237.429688 38.679688 237.15625 39.59375 L 235.0625 47.152344 C 233.789062 51.972656 232.511719 56.800781 231.191406 61.628906 C 230.917969 62.675781 230.648438 63.769531 230.328125 64.816406 C 230.191406 65.316406 230.371094 65.679688 230.691406 65.953125 C 231.101562 66.222656 231.511719 66.636719 231.96875 66.726562 C 232.96875 66.90625 233.921875 67.273438 234.878906 67.59375 C 235.425781 67.773438 235.882812 67.636719 236.109375 67.042969 C 236.425781 66.273438 236.789062 65.496094 237.019531 64.675781 C 238.109375 60.445312 239.160156 56.164062 240.296875 51.886719 C 240.753906 50.199219 241.296875 48.515625 241.847656 46.511719 C 243.121094 48.242188 243.851562 49.789062 244.214844 51.929688 Z M 244.214844 51.929688 " fill-opacity="1" fill-rule="nonzero"/><path fill="#faf0ca" d="M 263.101562 50.335938 C 264.832031 50.335938 265.96875 49.15625 265.925781 47.46875 C 265.925781 46.695312 265.652344 45.96875 265.242188 45.328125 C 264.332031 43.964844 262.601562 43.644531 261.324219 44.507812 C 260.324219 45.238281 259.777344 47.058594 260.191406 48.421875 C 260.503906 49.519531 261.78125 50.335938 263.101562 50.335938 Z M 261.324219 60.761719 C 260.324219 61.445312 259.777344 63.3125 260.191406 64.675781 C 260.503906 65.773438 261.78125 66.589844 263.101562 66.589844 C 264.832031 66.589844 265.96875 65.40625 265.925781 63.71875 C 265.925781 62.949219 265.652344 62.21875 265.242188 61.582031 C 264.332031 60.21875 262.601562 59.898438 261.324219 60.761719 Z M 261.324219 60.761719 " fill-opacity="1" fill-rule="nonzero"/><path stroke-linecap="butt" transform="matrix(0.728328, 0, 0, 0.728328, 83.115761, 24.02782)" fill="none" stroke-linejoin="miter" d="M 49.006522 18.245326 C 46.121061 18.67439 43.375046 19.559336 40.570035 20.063487 C 38.687514 20.3102 37.942013 20.996703 37.620215 22.686146 C 37.496859 23.313653 37.250147 24.000157 37.132154 24.68666 C 35.625064 31.937855 33.436833 39.065693 31.500678 46.188169 C 30.43338 50.006845 29.382171 53.804068 28.191516 57.558385 C 27.810721 58.813399 28.250512 59.558899 29.001376 60.304399 C 29.62352 60.931907 30.310023 61.312702 31.17888 61.312702 C 32.128186 61.377061 32.997042 61.61841 33.881988 61.940209 C 35.560704 62.567716 35.68406 62.44436 36.311567 60.626198 C 37.051704 58.062536 37.679211 55.434514 38.505161 52.935212 C 38.993222 51.438849 39.073672 49.502694 40.307233 48.494392 C 41.433528 47.502179 43.192694 48.065327 44.683694 47.925881 C 52.498037 47.502179 58.252868 43.62987 62.312894 37.124175 C 64.447491 33.750654 64.999912 29.872981 64.0077 26.059668 C 62.940401 22.122998 60.634178 19.178541 56.252354 18.486674 L 52.256688 17.923527 C 51.066033 18.062973 50.057731 18.121969 49.006522 18.245326 Z M 45.187845 28.628693 C 45.370198 27.87783 45.815353 27.432675 46.566216 27.309319 C 49.065518 26.805168 51.634544 26.746171 54.133846 26.928524 C 55.002702 26.992883 55.308411 27.556031 55.571213 28.242535 C 56.070001 29.93734 55.571213 31.55706 54.696994 32.865707 C 51.940252 37.124175 48.003583 39.430398 42.441831 39.489395 C 43.375046 35.617085 44.324352 32.120207 45.187845 28.628693 Z M 74.374978 18.749477 C 70.561665 19.559336 70.057513 20.186844 68.941945 24.059153 L 68.743503 25.051365 L 62.184174 47.121384 C 61.127602 50.553903 60.060304 54.002511 58.934009 57.376032 C 58.56394 58.448694 58.810653 59.188831 59.561516 59.875335 C 60.242656 60.502842 61.068606 60.990903 62.001822 61.130349 C 62.929675 61.312702 63.814621 61.61841 64.683477 61.881212 C 66.056484 62.304914 66.26029 62.245917 66.807348 61.071353 C 68.437794 57.054234 69.430006 52.870852 70.744017 48.810827 C 71.366161 46.939032 71.307165 46.939032 73.060967 46.815676 C 73.629478 46.815676 74.192625 46.756679 74.761136 46.756679 C 75.442277 46.756679 75.871341 47.121384 76.12878 47.684532 C 76.375493 48.188683 76.557845 48.751831 76.815284 49.239892 L 81.685169 60.80855 C 82.377036 62.385364 83.379975 62.809065 84.999695 62.385364 C 85.439486 62.245917 85.884641 61.999205 86.313706 61.816853 C 91.634109 59.312187 90.947606 60.749554 88.936365 55.55787 C 88.689652 54.935726 88.383944 54.308219 88.067508 53.680712 C 87.069933 51.320856 86.066994 48.998543 85.133778 46.617233 C 84.248832 44.493363 84.313191 44.493363 86.19035 43.367068 C 86.689138 43.061359 87.193289 42.82001 87.622354 42.498212 C 91.821825 39.489395 94.562477 35.617085 95.130988 30.441492 C 95.694135 25.110362 92.261617 19.237538 86.506785 18.245326 C 84.999695 17.982523 83.503332 17.864531 82.006968 17.676815 C 79.443306 17.676815 76.879644 18.180966 74.374978 18.749477 Z M 84.447274 33.87401 C 82.629112 35.617085 80.569601 36.74338 78.193655 37.365524 C 77.003 37.687323 75.624629 38.802891 74.62169 37.628326 C 73.935187 36.802377 74.879129 35.429369 75.184838 34.378161 C 75.688989 32.36692 76.252136 30.361042 76.756288 28.306894 C 77.003 27.309319 77.625144 26.805168 78.697806 26.746171 C 80.569601 26.622815 82.377036 26.365376 84.248832 26.687175 C 85.761285 26.992883 86.442425 27.679387 86.442425 29.309833 C 86.367339 31.052909 85.761285 32.618995 84.447274 33.87401 Z M 95.758495 51.374489 C 96.182196 54.753374 97.560567 57.821187 100.381668 59.676892 C 105.750341 63.18986 111.569533 64.321518 117.565713 61.436058 C 122.188886 59.253191 125.315696 55.55787 127.133858 50.816705 C 127.938354 48.494392 128.689218 46.188169 129.316725 43.812222 C 130.448384 39.430398 131.193884 34.925218 130.50738 30.361042 C 129.69752 25.110362 127.562923 20.873347 122.253246 18.808473 C 122.06553 18.67439 121.743731 18.67439 121.625739 18.486674 C 120.070379 16.936678 118.005504 17.11903 116.06935 17.242387 C 113.68804 17.365743 111.569533 18.180966 109.569018 19.43598 C 103.878546 22.991855 100.183225 28.119178 97.877002 34.238715 C 96.503995 37.993031 95.560052 41.811708 95.619049 45.93073 C 95.189984 47.684532 95.495693 49.56169 95.758495 51.374489 Z M 119.201523 46.617233 C 118.633012 47.866884 117.946508 49.116536 117.319001 50.312554 C 116.192706 52.366701 114.438903 53.745072 112.256036 54.308219 C 109.992719 54.81237 107.938572 53.943514 105.873697 52.994208 C 105.122834 52.629503 104.886848 51.803554 104.56505 51.058054 C 103.878546 49.239892 104.060899 47.384187 104.184255 45.566025 C 104.688406 39.628841 106.624561 34.238715 110.56123 29.674538 C 112.315033 27.679387 114.315547 26.24202 117.120558 26.365376 C 119.507231 26.488732 121.057228 27.738384 121.561379 30.055333 C 121.743731 31.052909 121.883178 32.120207 122.06553 33.123146 C 122.12989 33.611208 122.12989 34.056362 122.188886 34.683869 C 121.684735 38.679535 120.933872 42.82001 119.201523 46.617233 Z M 141.437806 37.247531 C 140.005802 43.812222 138.434352 50.37155 137.002348 56.930878 C 136.69664 58.309248 137.002348 59.253191 138.252 59.757342 C 139.689367 60.379486 141.255453 60.87291 142.816176 61.312702 C 143.947835 61.693497 144.510982 61.377061 144.934684 60.181043 C 145.438835 58.872396 145.88399 57.499388 146.189698 56.185378 C 147.256997 51.320856 148.190213 46.375884 149.252148 41.505999 C 150.185364 37.429884 151.13467 33.369859 152.126882 29.309833 C 152.502314 27.679387 152.684667 27.556031 154.508192 27.432675 C 156.503343 27.309319 158.444861 27.309319 160.440013 27.191326 C 162.563884 27.05188 163.068035 26.622815 163.250387 24.488218 C 163.373743 22.991855 163.191391 21.495491 163.191391 19.988401 C 163.191391 19.055185 162.563884 18.749477 161.81302 18.749477 C 159.190362 18.749477 156.503343 18.808473 153.816325 18.872833 C 148.812357 18.931829 143.808389 19.055185 138.815147 18.931829 C 136.315845 18.872833 135.564981 20.492552 135.184186 22.627149 C 135.06083 23.313653 135.243183 24.000157 135.307542 24.75102 C 135.441625 27.250322 135.688337 27.497035 138.128643 27.615027 C 138.815147 27.615027 139.501651 27.497035 140.193518 27.432675 C 141.180367 27.432675 142.247665 27.191326 143.379324 27.738384 C 142.751817 30.865193 142.188669 34.056362 141.437806 37.247531 Z M 179.812288 49.56169 C 177.876133 52.431061 174.942403 53.439363 171.87459 54.249223 C 170.244143 54.694378 168.688784 54.125867 167.187057 53.439363 C 166.806262 53.257011 166.44692 52.811856 166.248477 52.431061 C 164.870107 49.926395 165.315262 46.681593 167.310413 44.675715 C 169.192935 42.82001 171.370438 41.505999 174.121816 41.623992 C 176.256414 41.747348 178.315925 41.564996 180.375436 41.119841 C 182.193598 40.739046 182.697749 39.993546 182.434947 38.175384 C 182.193598 36.679021 181.871799 35.188021 181.571454 33.750654 C 181.308652 32.559999 181.126299 32.36692 179.935644 32.559999 C 177.817137 32.801348 175.752263 33.06415 173.692752 32.618995 C 172.882892 32.501002 172.561093 31.814499 172.807806 31.052909 C 173.816108 28.564333 175.752263 27.110876 178.374921 27.05188 C 179.061425 27.05188 179.753292 27.05188 180.439796 27.110876 C 182.252594 27.191326 183.443249 28.001186 184.070756 29.813984 C 184.698264 31.755502 185.50276 32.243564 187.379919 31.814499 C 188.758289 31.55706 190.125933 31.369344 191.504304 31.251351 C 192.37316 31.251351 192.694959 30.7472 192.635962 29.872981 C 192.37316 25.491157 190.694444 21.999642 186.494973 20.122484 C 185.062969 19.43598 183.18581 19.296534 182.005882 18.368682 C 180.761594 17.242387 179.565576 17.178027 178.192569 17.499825 C 172.947252 18.67439 168.442071 21.120059 165.62097 25.995308 C 164.564398 27.87783 163.877894 29.813984 164.060247 31.996851 C 164.124607 33.246502 164.687754 34.683869 164.306959 35.692172 C 163.877894 36.74338 162.51025 37.365524 161.560945 38.255834 C 161.196239 38.561542 160.874441 38.942337 160.627729 39.248046 C 155.500404 44.938517 156.127912 52.935212 159.619426 58.00354 C 160.568732 59.371184 161.818383 60.443845 163.250387 61.189345 C 166.929618 63.1255 170.866287 63.248856 174.802957 62.385364 C 179.994641 61.189345 184.253109 58.566687 187.261926 54.06687 C 187.88407 53.117565 187.808983 52.307705 187.261926 51.497845 C 186.999124 50.999057 186.570059 50.553903 186.130267 50.248194 L 181.689447 47.384187 C 181.002943 48.188683 180.316439 48.810827 179.812288 49.56169 Z M 205.438183 21.120059 C 203.872097 20.24584 202.43473 19.559336 200.557571 19.741689 C 199.747711 19.865045 199.24356 20.063487 199.002211 20.814351 C 198.068995 23.678358 197.11969 26.563819 196.256197 29.433189 C 195.065542 33.428855 193.933883 37.429884 192.807588 41.42555 L 188.56521 56.566173 C 188.441854 57.12932 188.318498 57.740737 188.688566 58.185892 C 189.369707 59.129835 190.05621 60.122047 191.311225 60.379486 C 192.319527 60.567202 193.306376 60.87291 194.314678 61.130349 C 195.569693 61.377061 196.256197 61.071353 196.679898 59.757342 C 197.184049 58.185892 197.623841 56.625169 198.068995 55.059083 L 200.81501 44.997514 L 206.634201 24.992369 L 206.93991 23.801714 C 206.93991 22.487703 206.494755 21.73684 205.438183 21.120059 Z M 221.190225 38.31483 C 222.321883 44.756165 223.255099 51.18141 222.182437 57.740737 C 222.123441 58.062536 222.059081 58.448694 222.059081 58.754403 C 222.059081 60.181043 222.627592 61.071353 223.941603 61.312702 C 225.067898 61.495054 226.258553 61.436058 227.438481 61.495054 C 231.509233 61.61841 232.056291 61.253705 233.123589 57.558385 C 235.933964 47.502179 238.696068 37.429884 241.506443 27.309319 C 241.812151 25.995308 242.06959 24.627664 242.251943 23.238567 C 242.439659 22.122998 242.13395 21.238052 241.32409 20.369196 C 240.069076 19.178541 238.883784 18.245326 237.065622 18.990826 C 236.759913 19.114182 236.373755 19.376984 236.132406 19.237538 C 235.006111 18.749477 234.759399 19.376984 234.50196 20.3102 L 231.128438 32.36692 C 230.822729 33.428855 230.441934 34.437157 229.937783 35.99788 C 229.433632 34.742866 229.063564 34.056362 228.806125 33.305499 C 227.878272 30.500488 226.564261 27.936826 225.191254 25.373164 C 224.182952 23.496006 222.686588 22.058639 221.190225 20.610545 C 220.128289 19.559336 218.749919 20.186844 217.68262 19.618333 C 216.432969 18.990826 215.258404 19.296534 213.944393 19.376984 C 212.496299 19.43598 211.868792 20.122484 211.504087 21.372135 L 208.618626 31.755502 C 206.87555 38.373826 205.121748 44.997514 203.303586 51.621201 C 202.938881 53.058568 202.558086 54.571021 202.129021 56.003025 C 201.930579 56.689529 202.188017 57.19368 202.617082 57.558385 C 203.185593 57.93918 203.748741 58.507691 204.376248 58.631047 C 205.743892 58.872396 207.057903 59.371184 208.371914 59.816338 C 209.117414 60.06305 209.744921 59.875335 210.06672 59.054748 C 210.495785 58.00354 210.999936 56.930878 211.316371 55.804583 C 212.818098 50.006845 214.250102 44.128658 215.821551 38.255834 C 216.432969 35.933521 217.194559 33.611208 217.940059 30.865193 C 219.683135 33.246502 220.686073 35.370373 221.190225 38.31483 Z M 247.121828 36.121236 C 249.503138 36.121236 251.063861 34.501517 250.999501 32.179204 C 250.999501 31.127995 250.618706 30.119693 250.066285 29.245473 C 248.821997 27.373678 246.435325 26.928524 244.681522 28.119178 C 243.308515 29.127481 242.557651 31.616056 243.126162 33.493215 C 243.565954 35.005668 245.309029 36.121236 247.121828 36.121236 Z M 244.681522 50.43591 C 243.308515 51.374489 242.557651 53.943514 243.126162 55.804583 C 243.565954 57.317036 245.309029 58.448694 247.121828 58.448694 C 249.503138 58.448694 251.063861 56.812885 250.999501 54.490572 C 250.999501 53.439363 250.618706 52.431061 250.066285 51.556841 C 248.821997 49.685046 246.435325 49.239892 244.681522 50.43591 Z M 244.681522 50.43591 " stroke="#0d3b66" stroke-width="0.43" stroke-opacity="1" stroke-miterlimit="4"/></svg>