<svg xmlns="http://www.w3.org/2000/svg" xmlns:xlink="http://www.w3.org/1999/xlink" width="500" zoomAndPan="magnify" viewBox="0 0 375 112.499997" height="150" preserveAspectRatio="xMidYMid meet" version="1.0"><defs><filter x="0%" y="0%" width="100%" height="100%" id="e236c2ef1a"><feColorMatrix values="0 0 0 0 1 0 0 0 0 1 0 0 0 0 1 0 0 0 1 0" color-interpolation-filters="sRGB"/></filter><g/><clipPath id="30edafef7b"><path d="M 76.40625 24.476562 L 298.589844 24.476562 L 298.589844 87.523438 L 76.40625 87.523438 Z M 76.40625 24.476562 " clip-rule="nonzero"/></clipPath><mask id="54c1a86730"><g filter="url(#e236c2ef1a)"><rect x="-37.5" width="450" fill="#000000" y="-11.25" height="134.999996" fill-opacity="0.93"/></g></mask><clipPath id="bcc3fd3de7"><rect x="0" width="118" y="0" height="54"/></clipPath></defs><g clip-path="url(#30edafef7b)"><path fill="#1e1e1e" d="M 76.40625 24.476562 L 298.542969 24.476562 L 298.542969 87.523438 L 76.40625 87.523438 Z M 76.40625 24.476562 " fill-opacity="1" fill-rule="nonzero"/></g><g mask="url(#54c1a86730)"><g transform="matrix(1, 0, 0, 1, 128, 35)"><g clip-path="url(#bcc3fd3de7)"><g fill="#ffffff" fill-opacity="1"><g transform="translate(2.75962, 38.595718)"><g><path d="M 13.59375 0 L -1.203125 -35.265625 L 7.859375 -35.265625 L 16.765625 -12.09375 L 25.65625 -35.265625 L 34.71875 -35.265625 L 19.921875 0 Z M 13.59375 0 "/></g></g></g><g fill="#ffffff" fill-opacity="1"><g transform="translate(36.26718, 38.595718)"><g><path d="M 20.484375 -35.265625 L 34.71875 0 L 26.078125 0 L 23.46875 -7.046875 L 10.046875 -7.046875 L 7.4375 0 L -1.203125 0 L 13.03125 -35.265625 Z M 20.734375 -14.109375 L 16.796875 -24.375 L 16.71875 -24.375 L 12.78125 -14.109375 Z M 20.734375 -14.109375 "/></g></g></g><g fill="#ffffff" fill-opacity="1"><g transform="translate(69.774739, 38.595718)"><g><path d="M 2.5625 -35.265625 L 12.78125 -35.265625 C 17.6875 -35.265625 21.875 -33.585938 25.34375 -30.234375 C 28.820312 -26.890625 30.5625 -22.695312 30.5625 -17.65625 C 30.5625 -12.582031 28.828125 -8.367188 25.359375 -5.015625 C 21.898438 -1.671875 17.707031 0 12.78125 0 L 2.5625 0 Z M 10.609375 -7.1875 L 11.84375 -7.1875 C 14.78125 -7.1875 17.179688 -8.175781 19.046875 -10.15625 C 20.910156 -12.132812 21.859375 -14.617188 21.890625 -17.609375 C 21.890625 -20.609375 20.953125 -23.101562 19.078125 -25.09375 C 17.210938 -27.09375 14.800781 -28.09375 11.84375 -28.09375 L 10.609375 -28.09375 Z M 10.609375 -7.1875 "/></g></g></g><g fill="#ffffff" fill-opacity="1"><g transform="translate(101.316291, 38.595718)"><g><path d="M 7.4375 -23.6875 C 8.800781 -23.6875 9.960938 -23.207031 10.921875 -22.25 C 11.878906 -21.289062 12.359375 -20.128906 12.359375 -18.765625 C 12.359375 -17.429688 11.878906 -16.285156 10.921875 -15.328125 C 9.960938 -14.367188 8.800781 -13.890625 7.4375 -13.890625 C 6.09375 -13.890625 4.941406 -14.367188 3.984375 -15.328125 C 3.035156 -16.285156 2.5625 -17.429688 2.5625 -18.765625 C 2.5625 -20.128906 3.035156 -21.289062 3.984375 -22.25 C 4.941406 -23.207031 6.09375 -23.6875 7.4375 -23.6875 Z M 7.4375 -9.15625 C 8.800781 -9.15625 9.960938 -8.675781 10.921875 -7.71875 C 11.878906 -6.757812 12.359375 -5.597656 12.359375 -4.234375 C 12.359375 -2.890625 11.878906 -1.738281 10.921875 -0.78125 C 9.960938 0.164062 8.800781 0.640625 7.4375 0.640625 C 6.09375 0.640625 4.941406 0.164062 3.984375 -0.78125 C 3.035156 -1.738281 2.5625 -2.890625 2.5625 -4.234375 C 2.5625 -5.597656 3.035156 -6.757812 3.984375 -7.71875 C 4.941406 -8.675781 6.09375 -9.15625 7.4375 -9.15625 Z M 7.4375 -9.15625 "/></g></g></g></g></g></g></svg>