<svg xmlns="http://www.w3.org/2000/svg" xmlns:xlink="http://www.w3.org/1999/xlink" width="500" zoomAndPan="magnify" viewBox="0 0 375 374.999991" height="500" preserveAspectRatio="xMidYMid meet" version="1.0"><defs><g/><clipPath id="c04904bfae"><path d="M 45.238281 45.238281 L 329.761719 45.238281 L 329.761719 329.761719 L 45.238281 329.761719 Z M 45.238281 45.238281 " clip-rule="nonzero"/></clipPath><clipPath id="20bb01a697"><path d="M 187.5 45.238281 C 108.929688 45.238281 45.238281 108.929688 45.238281 187.5 C 45.238281 266.070312 108.929688 329.761719 187.5 329.761719 C 266.070312 329.761719 329.761719 266.070312 329.761719 187.5 C 329.761719 108.929688 266.070312 45.238281 187.5 45.238281 Z M 187.5 45.238281 " clip-rule="nonzero"/></clipPath><clipPath id="50e82b4ae0"><path d="M 116.550781 149.523438 L 258.300781 149.523438 L 258.300781 271.023438 L 116.550781 271.023438 Z M 116.550781 149.523438 " clip-rule="nonzero"/></clipPath></defs><g clip-path="url(#c04904bfae)"><g clip-path="url(#20bb01a697)"><path fill="#bdd865" d="M 45.238281 45.238281 L 329.761719 45.238281 L 329.761719 329.761719 L 45.238281 329.761719 Z M 45.238281 45.238281 " fill-opacity="1" fill-rule="nonzero"/></g></g><g clip-path="url(#50e82b4ae0)"><path fill="#000000" d="M 256.757812 164 L 203.480469 165.210938 L 203.480469 164.875 C 203.484375 164.171875 203.367188 163.488281 203.136719 162.820312 C 202.902344 162.15625 202.566406 161.550781 202.125 161 C 201.683594 160.449219 201.164062 159.988281 200.5625 159.617188 C 199.960938 159.246094 199.316406 158.988281 198.628906 158.835938 L 193.121094 157.617188 C 191.824219 157.328125 190.515625 157.234375 189.191406 157.328125 L 184.886719 157.632812 L 184.886719 157.195312 C 184.886719 156.703125 184.789062 156.230469 184.601562 155.773438 C 184.414062 155.320312 184.144531 154.917969 183.796875 154.570312 C 183.445312 154.222656 183.042969 153.957031 182.589844 153.765625 C 182.132812 153.578125 181.660156 153.484375 181.167969 153.484375 C 180.515625 153.488281 179.90625 153.652344 179.34375 153.980469 C 179.113281 153.613281 178.828125 153.292969 178.484375 153.027344 C 178.144531 152.757812 177.765625 152.558594 177.351562 152.425781 C 176.9375 152.289062 176.515625 152.230469 176.082031 152.25 C 175.644531 152.265625 175.226562 152.355469 174.824219 152.519531 C 174.710938 152.082031 174.519531 151.683594 174.257812 151.316406 C 173.996094 150.953125 173.675781 150.644531 173.300781 150.394531 C 172.925781 150.144531 172.519531 149.96875 172.082031 149.867188 C 171.644531 149.765625 171.199219 149.746094 170.753906 149.804688 C 170.308594 149.863281 169.886719 150 169.488281 150.210938 C 169.089844 150.421875 168.746094 150.699219 168.449219 151.039062 C 168.152344 151.375 167.925781 151.753906 167.765625 152.175781 C 167.609375 152.597656 167.53125 153.035156 167.53125 153.484375 L 167.53125 153.710938 C 167.132812 153.5625 166.71875 153.488281 166.292969 153.484375 C 165.796875 153.484375 165.324219 153.578125 164.867188 153.765625 C 164.414062 153.957031 164.011719 154.222656 163.664062 154.570312 C 163.316406 154.917969 163.046875 155.320312 162.855469 155.773438 C 162.667969 156.230469 162.574219 156.703125 162.574219 157.195312 L 162.574219 159.222656 L 156.285156 159.671875 C 156.128906 159.683594 155.980469 159.722656 155.839844 159.789062 C 155.699219 159.859375 155.574219 159.949219 155.46875 160.0625 C 155.359375 160.179688 155.277344 160.308594 155.222656 160.453125 C 155.164062 160.597656 155.136719 160.75 155.136719 160.90625 L 155.136719 164.617188 C 155.136719 164.78125 155.167969 164.941406 155.230469 165.09375 C 155.292969 165.242188 155.382812 165.378906 155.496094 165.492188 C 155.613281 165.609375 155.75 165.699219 155.898438 165.761719 C 156.050781 165.824219 156.210938 165.855469 156.375 165.855469 L 156.417969 165.855469 L 162.574219 165.636719 L 162.574219 168.109375 L 156.328125 168.332031 C 156.167969 168.335938 156.015625 168.371094 155.871094 168.4375 C 155.722656 168.503906 155.59375 168.59375 155.480469 168.707031 C 155.371094 168.824219 155.285156 168.957031 155.226562 169.105469 C 155.164062 169.253906 155.136719 169.40625 155.136719 169.566406 L 155.136719 172.042969 C 155.136719 172.203125 155.164062 172.355469 155.226562 172.503906 C 155.285156 172.65625 155.371094 172.785156 155.480469 172.902344 C 155.59375 173.015625 155.722656 173.109375 155.867188 173.171875 C 156.015625 173.238281 156.167969 173.273438 156.328125 173.28125 L 162.574219 173.503906 L 162.574219 175.976562 L 156.417969 175.753906 C 156.25 175.75 156.089844 175.777344 155.929688 175.835938 C 155.773438 175.898438 155.636719 175.984375 155.515625 176.101562 C 155.394531 176.21875 155.300781 176.351562 155.234375 176.507812 C 155.167969 176.664062 155.136719 176.824219 155.136719 176.992188 L 155.136719 180.703125 C 155.136719 180.859375 155.164062 181.011719 155.222656 181.15625 C 155.277344 181.300781 155.359375 181.433594 155.46875 181.546875 C 155.574219 181.660156 155.699219 181.753906 155.839844 181.820312 C 155.980469 181.886719 156.128906 181.925781 156.285156 181.9375 L 162.574219 182.386719 L 162.574219 184.414062 C 162.574219 184.796875 162.632812 185.171875 162.75 185.535156 C 162.867188 185.898438 163.035156 186.238281 163.257812 186.550781 C 163.480469 186.863281 163.746094 187.132812 164.050781 187.363281 C 164.355469 187.59375 164.691406 187.773438 165.050781 187.898438 L 165.050781 242.8125 C 163.636719 242.457031 162.199219 242.226562 160.742188 242.128906 C 157.589844 241.976562 154.484375 242.277344 151.421875 243.035156 C 148.363281 243.792969 145.472656 244.972656 142.757812 246.578125 C 142.628906 246.539062 142.496094 246.523438 142.359375 246.53125 C 116.707031 248.667969 116.707031 251.5625 116.707031 252.957031 C 116.667969 253.449219 116.804688 253.890625 117.113281 254.277344 C 117.179688 254.722656 117.414062 255.035156 117.828125 255.21875 C 117.976562 255.285156 132.78125 261.640625 137.125 264.570312 C 145.980469 270.539062 165.117188 271.023438 187.363281 271.023438 C 209.613281 271.023438 228.75 270.539062 237.605469 264.570312 C 241.949219 261.640625 256.753906 255.285156 256.902344 255.21875 C 257.316406 255.035156 257.550781 254.722656 257.613281 254.277344 C 257.925781 253.890625 258.0625 253.449219 258.023438 252.957031 C 258.023438 251.542969 258.019531 247.789062 221.269531 245.777344 C 216.042969 241.015625 209.453125 236.359375 202.6875 235.082031 C 199.371094 234.527344 196.046875 234.484375 192.71875 234.945312 C 189.390625 235.40625 186.207031 236.355469 183.167969 237.792969 C 183.652344 236.164062 183.8125 234.507812 183.644531 232.820312 C 183.621094 232.648438 183.566406 232.484375 183.476562 232.335938 C 183.386719 232.1875 183.269531 232.0625 183.128906 231.964844 C 182.988281 231.863281 182.832031 231.796875 182.660156 231.761719 C 182.488281 231.726562 182.320312 231.726562 182.148438 231.765625 C 180.429688 232.1875 178.863281 232.933594 177.449219 234 L 177.449219 189.136719 C 178.253906 188.851562 178.886719 188.347656 179.34375 187.628906 C 179.90625 187.957031 180.515625 188.121094 181.167969 188.125 C 181.660156 188.125 182.132812 188.03125 182.589844 187.84375 C 183.042969 187.65625 183.445312 187.386719 183.796875 187.039062 C 184.144531 186.691406 184.414062 186.289062 184.601562 185.835938 C 184.789062 185.378906 184.886719 184.90625 184.886719 184.414062 L 184.886719 183.976562 C 189.078125 184.265625 189.339844 184.316406 190.164062 184.316406 C 191.160156 184.316406 192.148438 184.210938 193.121094 183.992188 L 198.628906 182.773438 C 199.316406 182.621094 199.960938 182.363281 200.5625 181.992188 C 201.164062 181.621094 201.683594 181.160156 202.125 180.609375 C 202.566406 180.0625 202.902344 179.453125 203.136719 178.789062 C 203.367188 178.125 203.484375 177.4375 203.480469 176.734375 L 203.480469 176.402344 L 256.757812 177.609375 C 257.109375 177.632812 257.40625 177.515625 257.652344 177.257812 C 257.898438 177.015625 258.023438 176.71875 258.023438 176.371094 L 258.023438 165.238281 C 258.023438 164.890625 257.898438 164.59375 257.652344 164.351562 C 257.402344 164.105469 257.105469 163.988281 256.757812 164 Z M 184.886719 174.296875 L 188.648438 174.429688 C 188.898438 174.441406 189.121094 174.515625 189.324219 174.660156 C 189.527344 174.804688 189.671875 174.992188 189.761719 175.222656 C 189.851562 175.453125 189.867188 175.691406 189.816406 175.933594 C 189.761719 176.175781 189.644531 176.382812 189.464844 176.554688 C 189.214844 176.800781 188.914062 176.917969 188.5625 176.898438 L 184.886719 176.769531 Z M 184.886719 164.839844 L 188.5625 164.710938 C 188.910156 164.699219 189.214844 164.8125 189.464844 165.054688 C 189.644531 165.226562 189.761719 165.433594 189.816406 165.675781 C 189.867188 165.917969 189.851562 166.15625 189.761719 166.386719 C 189.671875 166.617188 189.527344 166.804688 189.324219 166.949219 C 189.121094 167.09375 188.898438 167.171875 188.648438 167.179688 L 184.886719 167.3125 Z M 180.910156 241.5625 L 180.929688 241.558594 C 182.167969 241.441406 183.410156 241.40625 184.652344 241.464844 C 188.792969 241.660156 193.523438 243.269531 198.734375 246.226562 C 197.683594 246.554688 196.648438 246.941406 195.640625 247.378906 C 192.183594 245.445312 188.480469 244.296875 184.535156 243.933594 C 182.136719 243.828125 179.777344 244.070312 177.449219 244.652344 L 177.449219 242.125 C 178.589844 241.863281 179.746094 241.675781 180.910156 241.5625 Z M 231.941406 256.945312 C 230.585938 257.058594 229.179688 257.164062 227.714844 257.269531 C 227.648438 257.191406 227.574219 257.125 227.492188 257.066406 C 222.601562 254.164062 213.246094 249.371094 205.710938 249.902344 C 202.605469 250.203125 199.628906 250.996094 196.78125 252.277344 C 193.933594 253.558594 191.371094 255.261719 189.085938 257.386719 C 188.578125 256.914062 187.957031 256.351562 187.234375 255.71875 C 191.347656 252.082031 197.644531 247.984375 205.539062 247.433594 C 215.011719 246.769531 226.21875 253.167969 231.941406 256.945312 Z M 218.007812 257.839844 C 217.890625 257.703125 217.75 257.601562 217.585938 257.527344 C 212.972656 255.535156 209.082031 254.628906 206.058594 254.839844 C 205.648438 254.867188 205.246094 254.910156 204.851562 254.960938 C 201.566406 255.445312 198.542969 256.617188 195.789062 258.476562 C 194.398438 258.492188 192.992188 258.503906 191.558594 258.511719 C 193.570312 256.773438 195.800781 255.378906 198.242188 254.332031 C 200.6875 253.285156 203.234375 252.632812 205.882812 252.371094 C 211.519531 251.988281 218.4375 254.957031 223.3125 257.554688 C 221.609375 257.65625 219.835938 257.75 218.007812 257.839844 Z M 211.902344 258.097656 C 208.5625 258.21875 205.050781 258.316406 201.363281 258.390625 C 202.597656 257.921875 203.871094 257.59375 205.179688 257.414062 C 205.519531 257.367188 205.871094 257.332031 206.226562 257.308594 C 208.164062 257.253906 210.054688 257.515625 211.902344 258.097656 Z M 177.449219 247.214844 C 179.726562 246.574219 182.050781 246.308594 184.414062 246.40625 C 187.363281 246.660156 190.164062 247.441406 192.816406 248.757812 C 191.90625 249.257812 191.035156 249.78125 190.214844 250.324219 C 190.203125 250.320312 190.195312 250.308594 190.183594 250.304688 C 188.300781 249.507812 186.339844 249.03125 184.300781 248.878906 C 183.886719 248.859375 183.476562 248.851562 183.085938 248.859375 C 181.808594 248.878906 180.546875 249.023438 179.296875 249.289062 C 179.199219 249.316406 179.109375 249.355469 179.023438 249.40625 C 178.507812 249.0625 177.984375 248.71875 177.449219 248.382812 Z M 183.125 251.332031 C 183.472656 251.324219 183.820312 251.332031 184.175781 251.351562 C 185.40625 251.433594 186.601562 251.671875 187.769531 252.070312 C 186.886719 252.75 186.074219 253.433594 185.328125 254.101562 C 184.296875 253.25 183.140625 252.339844 181.882812 251.414062 C 182.300781 251.375 182.714844 251.339844 183.125 251.332031 Z M 205.367188 244.964844 C 204.257812 245.042969 203.160156 245.183594 202.070312 245.390625 C 202.007812 245.3125 201.933594 245.246094 201.851562 245.1875 C 199.96875 244.023438 198.023438 242.980469 196.011719 242.054688 C 197.789062 241.945312 199.550781 242.054688 201.300781 242.375 C 203.597656 242.871094 205.75 243.726562 207.761719 244.933594 C 206.964844 244.902344 206.164062 244.914062 205.367188 244.964844 Z M 174.96875 240.867188 C 174.917969 241.0625 174.914062 241.261719 174.960938 241.457031 L 174.96875 241.472656 L 174.96875 246.90625 C 174.15625 246.453125 173.332031 246.015625 172.488281 245.601562 L 172.488281 191.609375 C 173.0625 191.40625 173.554688 191.082031 173.96875 190.636719 C 174.378906 190.191406 174.667969 189.675781 174.824219 189.089844 C 174.871094 189.109375 174.921875 189.121094 174.96875 189.136719 Z M 170.011719 153.484375 C 170.011719 153.320312 170.042969 153.160156 170.105469 153.011719 C 170.167969 152.859375 170.257812 152.722656 170.375 152.609375 C 170.488281 152.492188 170.625 152.402344 170.777344 152.339844 C 170.925781 152.277344 171.085938 152.246094 171.25 152.246094 C 171.414062 152.246094 171.574219 152.277344 171.722656 152.339844 C 171.875 152.402344 172.011719 152.492188 172.125 152.609375 C 172.242188 152.722656 172.332031 152.859375 172.394531 153.011719 C 172.457031 153.160156 172.488281 153.320312 172.488281 153.484375 L 172.488281 188.125 C 172.488281 188.289062 172.457031 188.449219 172.394531 188.601562 C 172.332031 188.75 172.242188 188.886719 172.125 189 C 172.011719 189.117188 171.875 189.207031 171.722656 189.269531 C 171.574219 189.332031 171.414062 189.363281 171.25 189.363281 C 171.085938 189.363281 170.925781 189.332031 170.777344 189.269531 C 170.625 189.207031 170.488281 189.117188 170.375 189 C 170.257812 188.886719 170.167969 188.75 170.105469 188.601562 C 170.042969 188.449219 170.011719 188.289062 170.011719 188.125 Z M 166.292969 155.957031 C 166.457031 155.957031 166.613281 155.988281 166.765625 156.050781 C 166.917969 156.113281 167.050781 156.203125 167.167969 156.320312 C 167.285156 156.4375 167.375 156.570312 167.4375 156.722656 C 167.5 156.875 167.53125 157.03125 167.53125 157.195312 L 167.53125 184.414062 C 167.53125 184.578125 167.5 184.738281 167.4375 184.886719 C 167.375 185.039062 167.285156 185.175781 167.167969 185.289062 C 167.050781 185.40625 166.917969 185.496094 166.765625 185.558594 C 166.613281 185.621094 166.457031 185.652344 166.292969 185.652344 C 166.128906 185.652344 165.96875 185.621094 165.816406 185.558594 C 165.664062 185.496094 165.53125 185.40625 165.414062 185.289062 C 165.296875 185.175781 165.210938 185.039062 165.144531 184.886719 C 165.082031 184.738281 165.050781 184.578125 165.050781 184.414062 L 165.050781 181.332031 L 165.054688 181.320312 C 165.054688 181.316406 165.050781 181.308594 165.050781 181.304688 L 165.050781 157.195312 C 165.050781 157.03125 165.082031 156.875 165.148438 156.722656 C 165.210938 156.570312 165.300781 156.4375 165.414062 156.320312 C 165.53125 156.203125 165.664062 156.113281 165.816406 156.050781 C 165.96875 155.988281 166.128906 155.957031 166.292969 155.957031 Z M 157.613281 163.335938 L 157.613281 162.058594 L 162.574219 161.707031 L 162.574219 163.160156 Z M 157.613281 170.847656 L 157.613281 170.761719 L 162.574219 170.585938 L 162.574219 171.027344 Z M 157.613281 179.550781 L 157.613281 178.273438 L 162.574219 178.449219 L 162.574219 179.90625 Z M 167.53125 188.125 C 167.53125 188.507812 167.589844 188.882812 167.707031 189.246094 C 167.824219 189.613281 167.996094 189.949219 168.21875 190.261719 C 168.4375 190.574219 168.703125 190.84375 169.007812 191.074219 C 169.316406 191.304688 169.648438 191.484375 170.011719 191.609375 L 170.011719 244.46875 C 169.191406 244.125 168.363281 243.816406 167.53125 243.535156 Z M 160.585938 244.597656 C 170.765625 245.238281 181.972656 254.324219 186.640625 258.523438 C 185.367188 258.519531 184.113281 258.515625 182.878906 258.507812 C 178.027344 254.449219 168.683594 247.585938 160.433594 247.066406 C 150.136719 246.417969 141.789062 252.609375 137.640625 256.476562 C 136.53125 256.363281 135.476562 256.25 134.464844 256.132812 C 138.21875 252.308594 148.046875 243.808594 160.585938 244.597656 Z M 174.609375 258.410156 C 170.628906 255.636719 164.921875 252.308594 160.121094 252.007812 C 159.710938 251.980469 159.308594 251.96875 158.910156 251.96875 C 156.328125 252.0625 153.824219 252.546875 151.398438 253.421875 C 148.96875 254.296875 146.734375 255.523438 144.691406 257.097656 C 143.421875 257 142.199219 256.898438 141.023438 256.792969 C 145.210938 253.300781 152.082031 249 160.273438 249.535156 C 166.753906 249.945312 174.335938 254.980469 178.875 258.472656 C 177.429688 258.457031 176.007812 258.4375 174.609375 258.410156 Z M 169.910156 258.3125 C 162.023438 258.121094 154.96875 257.796875 148.8125 257.390625 C 151.917969 255.523438 155.285156 254.542969 158.910156 254.441406 C 159.253906 254.441406 159.605469 254.453125 159.964844 254.476562 C 163.058594 254.671875 166.710938 256.390625 169.910156 258.3125 Z M 138.453125 249.371094 C 135.882812 251.253906 133.539062 253.378906 131.417969 255.753906 C 124.675781 254.859375 120.574219 253.867188 119.390625 252.976562 C 120.273438 252.398438 123.953125 250.785156 138.453125 249.371094 Z M 236.21875 262.519531 C 227.945312 268.097656 209.199219 268.550781 187.363281 268.550781 C 165.53125 268.550781 146.785156 268.097656 138.511719 262.519531 C 135.804688 260.859375 133.007812 259.375 130.117188 258.058594 C 130.480469 258.109375 130.847656 258.160156 131.234375 258.210938 C 131.53125 258.386719 131.84375 258.425781 132.175781 258.332031 C 133.960938 258.558594 135.9375 258.78125 138.15625 259 C 151.308594 260.289062 168.785156 260.996094 187.363281 260.996094 C 190.1875 260.996094 192.980469 260.980469 195.742188 260.945312 C 195.976562 261.019531 196.214844 261.015625 196.449219 260.9375 C 210.6875 260.757812 230.582031 260.03125 244.613281 258.058594 C 241.722656 259.375 238.925781 260.859375 236.21875 262.519531 Z M 235.820312 256.601562 C 232.636719 254.335938 229.316406 252.300781 225.847656 250.496094 C 225.796875 250.308594 225.707031 250.144531 225.574219 250 C 225.085938 249.484375 224.5625 248.953125 224.027344 248.414062 C 245.671875 249.738281 253.761719 251.828125 255.355469 252.960938 C 253.8125 254.148438 247.082031 255.519531 235.820312 256.601562 Z M 202.222656 237.511719 C 208.617188 238.722656 215.027344 243.453125 219.683594 247.695312 C 217.644531 246.890625 215.554688 246.238281 213.417969 245.738281 C 213.394531 245.714844 213.378906 245.679688 213.351562 245.660156 C 209.917969 242.886719 206.058594 240.980469 201.765625 239.945312 C 198.253906 239.300781 194.761719 239.394531 191.289062 240.21875 C 189.691406 239.714844 188.066406 239.355469 186.40625 239.140625 C 188.917969 238.152344 191.519531 237.519531 194.203125 237.246094 C 196.890625 236.96875 199.5625 237.058594 202.222656 237.511719 Z M 177.597656 237.519531 C 178.476562 236.160156 179.683594 235.210938 181.210938 234.671875 C 181.171875 235.964844 180.851562 237.1875 180.25 238.332031 C 180.042969 238.671875 179.792969 238.976562 179.5 239.242188 C 178.816406 239.335938 178.132812 239.449219 177.449219 239.589844 L 177.449219 237.703125 C 177.503906 237.644531 177.550781 237.585938 177.597656 237.519531 Z M 177.449219 185.652344 C 177.449219 185.816406 177.417969 185.972656 177.355469 186.125 C 177.289062 186.277344 177.203125 186.410156 177.085938 186.527344 C 176.96875 186.644531 176.835938 186.734375 176.683594 186.796875 C 176.53125 186.859375 176.371094 186.890625 176.207031 186.890625 C 176.042969 186.890625 175.886719 186.859375 175.734375 186.796875 C 175.582031 186.734375 175.449219 186.644531 175.332031 186.527344 C 175.214844 186.410156 175.125 186.277344 175.0625 186.125 C 175 185.972656 174.96875 185.816406 174.96875 185.652344 L 174.96875 155.957031 C 174.96875 155.792969 175 155.636719 175.0625 155.484375 C 175.125 155.332031 175.214844 155.199219 175.332031 155.082031 C 175.449219 154.96875 175.582031 154.878906 175.734375 154.816406 C 175.886719 154.753906 176.042969 154.71875 176.207031 154.71875 C 176.371094 154.71875 176.53125 154.753906 176.683594 154.816406 C 176.835938 154.878906 176.96875 154.96875 177.085938 155.082031 C 177.203125 155.199219 177.289062 155.332031 177.355469 155.484375 C 177.417969 155.636719 177.449219 155.792969 177.449219 155.957031 Z M 182.40625 184.414062 C 182.40625 184.578125 182.375 184.738281 182.3125 184.886719 C 182.25 185.039062 182.160156 185.175781 182.042969 185.289062 C 181.925781 185.40625 181.792969 185.496094 181.640625 185.558594 C 181.488281 185.621094 181.332031 185.652344 181.167969 185.652344 C 181.003906 185.652344 180.84375 185.621094 180.691406 185.558594 C 180.539062 185.496094 180.40625 185.40625 180.289062 185.289062 C 180.175781 185.175781 180.085938 185.039062 180.023438 184.886719 C 179.957031 184.738281 179.925781 184.578125 179.925781 184.414062 L 179.925781 157.195312 C 179.925781 157.03125 179.957031 156.875 180.023438 156.722656 C 180.085938 156.570312 180.175781 156.4375 180.289062 156.320312 C 180.40625 156.203125 180.539062 156.113281 180.691406 156.050781 C 180.84375 155.988281 181.003906 155.957031 181.167969 155.957031 C 181.332031 155.957031 181.488281 155.988281 181.640625 156.050781 C 181.792969 156.113281 181.925781 156.203125 182.042969 156.320312 C 182.160156 156.4375 182.25 156.570312 182.3125 156.722656 C 182.375 156.875 182.40625 157.03125 182.40625 157.195312 Z M 255.542969 175.105469 L 202.269531 173.898438 C 202.101562 173.894531 201.941406 173.921875 201.785156 173.984375 C 201.628906 174.046875 201.492188 174.132812 201.375 174.25 C 201.253906 174.367188 201.164062 174.503906 201.097656 174.65625 C 201.03125 174.808594 201 174.96875 201 175.136719 L 201 176.734375 C 201.003906 177.15625 200.933594 177.566406 200.792969 177.964844 C 200.65625 178.367188 200.453125 178.730469 200.1875 179.058594 C 199.921875 179.390625 199.609375 179.664062 199.25 179.886719 C 198.890625 180.109375 198.503906 180.265625 198.089844 180.355469 L 192.582031 181.578125 C 191.523438 181.8125 190.449219 181.890625 189.367188 181.816406 L 184.886719 181.496094 L 184.886719 179.246094 L 188.472656 179.375 C 188.519531 179.375 188.566406 179.375 188.609375 179.375 C 189.097656 179.375 189.566406 179.28125 190.015625 179.097656 C 190.464844 178.914062 190.863281 178.648438 191.210938 178.308594 C 191.558594 177.96875 191.828125 177.574219 192.019531 177.128906 C 192.210938 176.679688 192.3125 176.214844 192.320312 175.730469 C 192.328125 175.242188 192.246094 174.773438 192.070312 174.320312 C 191.890625 173.867188 191.636719 173.464844 191.300781 173.113281 C 190.96875 172.761719 190.578125 172.484375 190.132812 172.285156 C 189.691406 172.085938 189.226562 171.976562 188.738281 171.957031 L 184.886719 171.820312 L 184.886719 169.789062 L 188.738281 169.652344 C 189.230469 169.636719 189.703125 169.523438 190.152344 169.320312 C 190.597656 169.113281 190.992188 168.832031 191.328125 168.472656 C 191.664062 168.113281 191.917969 167.703125 192.089844 167.242188 C 192.261719 166.78125 192.339844 166.304688 192.320312 165.8125 C 192.304688 165.320312 192.191406 164.851562 191.988281 164.402344 C 191.78125 163.953125 191.5 163.5625 191.140625 163.226562 C 190.777344 162.894531 190.367188 162.640625 189.90625 162.46875 C 189.441406 162.296875 188.964844 162.21875 188.472656 162.234375 L 184.886719 162.363281 L 184.886719 160.113281 L 189.367188 159.796875 C 190.449219 159.71875 191.523438 159.796875 192.582031 160.03125 L 198.089844 161.253906 C 198.503906 161.34375 198.890625 161.5 199.25 161.722656 C 199.609375 161.945312 199.921875 162.21875 200.1875 162.550781 C 200.453125 162.878906 200.65625 163.246094 200.792969 163.644531 C 200.933594 164.042969 201.003906 164.453125 201 164.875 L 201 166.476562 C 201 166.640625 201.03125 166.800781 201.097656 166.953125 C 201.164062 167.109375 201.253906 167.242188 201.375 167.359375 C 201.492188 167.476562 201.628906 167.566406 201.785156 167.625 C 201.941406 167.6875 202.101562 167.714844 202.269531 167.710938 L 255.542969 166.503906 Z M 255.542969 175.105469 " fill-opacity="1" fill-rule="nonzero"/></g><g fill="#000000" fill-opacity="1"><g transform="translate(123.562169, 127.057082)"><g><path d="M 2.78125 -1.484375 L -11.859375 -28.859375 C -9.523438 -30.410156 -6.125 -32.382812 -1.65625 -34.78125 C 2.1875 -36.832031 5.144531 -37.613281 7.21875 -37.125 C 9.300781 -36.632812 11.265625 -34.65625 13.109375 -31.1875 C 14.960938 -27.726562 15.554688 -25.015625 14.890625 -23.046875 C 14.234375 -21.078125 12.171875 -19.164062 8.703125 -17.3125 C 6.960938 -16.375 5.191406 -15.554688 3.390625 -14.859375 L 8.8125 -4.703125 Z M 1.078125 -19.1875 L 5.328125 -21.46875 C 6.859375 -22.320312 7.75 -23.191406 8 -24.078125 C 8.257812 -24.972656 7.9375 -26.265625 7.03125 -27.953125 C 6.132812 -29.640625 5.242188 -30.617188 4.359375 -30.890625 C 3.484375 -31.171875 2.269531 -30.898438 0.71875 -30.078125 L -3.515625 -27.75 Z M 1.078125 -19.1875 "/></g></g></g><g fill="#000000" fill-opacity="1"><g transform="translate(146.82639, 114.348596)"><g><path d="M 17.453125 -12.6875 L 7.09375 -10.125 L 6.859375 -1.6875 L 0.046875 -0.015625 L 1.734375 -30.5625 C 1.734375 -31.113281 1.910156 -31.597656 2.265625 -32.015625 C 2.617188 -32.441406 3.078125 -32.722656 3.640625 -32.859375 L 9.921875 -34.40625 C 11.171875 -34.71875 12.082031 -34.332031 12.65625 -33.25 L 28.359375 -6.984375 L 21.59375 -5.3125 Z M 14.75 -17.484375 L 9.9375 -26.078125 C 9.226562 -27.453125 8.789062 -28.347656 8.625 -28.765625 L 7.453125 -28.484375 C 7.460938 -28.171875 7.472656 -27.675781 7.484375 -27 C 7.492188 -26.320312 7.492188 -25.8125 7.484375 -25.46875 L 7.21875 -15.625 Z M 14.75 -17.484375 "/></g></g></g><g fill="#000000" fill-opacity="1"><g transform="translate(174.205806, 107.665743)"><g><path d="M 14.65625 -11.71875 L 8.40625 -13.9375 C 6.09375 -14.769531 4.441406 -15.910156 3.453125 -17.359375 C 2.472656 -18.804688 1.984375 -20.703125 1.984375 -23.046875 C 1.992188 -26.460938 2.832031 -28.742188 4.5 -29.890625 C 6.175781 -31.046875 9.113281 -31.617188 13.3125 -31.609375 C 17.269531 -31.597656 20.664062 -31.1875 23.5 -30.375 L 23.0625 -25.6875 C 20.445312 -25.78125 17.207031 -25.832031 13.34375 -25.84375 C 11.539062 -25.84375 10.335938 -25.6875 9.734375 -25.375 C 9.140625 -25.070312 8.835938 -24.289062 8.828125 -23.03125 C 8.828125 -22.007812 9.050781 -21.269531 9.5 -20.8125 C 9.945312 -20.363281 10.800781 -19.925781 12.0625 -19.5 L 17.953125 -17.453125 C 20.347656 -16.617188 22.039062 -15.46875 23.03125 -14 C 24.019531 -12.539062 24.507812 -10.644531 24.5 -8.3125 C 24.488281 -4.832031 23.640625 -2.472656 21.953125 -1.234375 C 20.273438 0.00390625 17.273438 0.617188 12.953125 0.609375 C 9.441406 0.597656 5.890625 0.203125 2.296875 -0.578125 L 2.71875 -5.53125 C 9.101562 -5.363281 12.519531 -5.28125 12.96875 -5.28125 C 14.800781 -5.28125 16.023438 -5.472656 16.640625 -5.859375 C 17.253906 -6.242188 17.5625 -7.050781 17.5625 -8.28125 C 17.5625 -9.332031 17.351562 -10.078125 16.9375 -10.515625 C 16.53125 -10.953125 15.769531 -11.351562 14.65625 -11.71875 Z M 14.65625 -11.71875 "/></g></g></g><g fill="#000000" fill-opacity="1"><g transform="translate(199.497488, 107.567304)"><g><path d="M 31.484375 -18.578125 L 22.484375 -20.765625 L 16.5 3.984375 L 9.796875 2.375 L 15.78125 -22.375 L 6.78125 -24.5625 L 8.09375 -29.984375 L 32.796875 -24 Z M 31.484375 -18.578125 "/></g></g></g><g fill="#000000" fill-opacity="1"><g transform="translate(224.797079, 113.408325)"><g><path d="M 21.484375 2.109375 L 12.03125 -2.859375 L 6.25 3.28125 L 0.046875 0.015625 L 21.59375 -21.703125 C 21.945312 -22.117188 22.394531 -22.363281 22.9375 -22.4375 C 23.488281 -22.519531 24.019531 -22.429688 24.53125 -22.171875 L 30.25 -19.15625 C 31.394531 -18.550781 31.828125 -17.648438 31.546875 -16.453125 L 25.84375 13.59375 L 19.671875 10.359375 Z M 22.640625 -3.296875 L 24.75 -12.90625 C 25.125 -14.40625 25.390625 -15.363281 25.546875 -15.78125 L 24.484375 -16.34375 C 24.285156 -16.113281 23.96875 -15.738281 23.53125 -15.21875 C 23.09375 -14.707031 22.753906 -14.332031 22.515625 -14.09375 L 15.78125 -6.90625 Z M 22.640625 -3.296875 "/></g></g></g></svg>