<svg xmlns="http://www.w3.org/2000/svg" xmlns:xlink="http://www.w3.org/1999/xlink" width="500" zoomAndPan="magnify" viewBox="0 0 375 374.999991" height="500" preserveAspectRatio="xMidYMid meet" version="1.0"><defs><g/><clipPath id="2da8259cd7"><path d="M 45.238281 45.238281 L 329.761719 45.238281 L 329.761719 329.761719 L 45.238281 329.761719 Z M 45.238281 45.238281 " clip-rule="nonzero"/></clipPath><clipPath id="2826198fdc"><path d="M 187.5 45.238281 C 108.929688 45.238281 45.238281 108.929688 45.238281 187.5 C 45.238281 266.070312 108.929688 329.761719 187.5 329.761719 C 266.070312 329.761719 329.761719 266.070312 329.761719 187.5 C 329.761719 108.929688 266.070312 45.238281 187.5 45.238281 Z M 187.5 45.238281 " clip-rule="nonzero"/></clipPath><clipPath id="1616948787"><path d="M 124.765625 172.601562 L 249.894531 172.601562 L 249.894531 271.601562 L 124.765625 271.601562 Z M 124.765625 172.601562 " clip-rule="nonzero"/></clipPath></defs><g clip-path="url(#2da8259cd7)"><g clip-path="url(#2826198fdc)"><path fill="#bdd865" d="M 45.238281 45.238281 L 329.761719 45.238281 L 329.761719 329.761719 L 45.238281 329.761719 Z M 45.238281 45.238281 " fill-opacity="1" fill-rule="nonzero"/></g></g><g clip-path="url(#1616948787)"><path fill="#000000" d="M 216.765625 190.53125 C 219.046875 190.53125 219.046875 186.96875 216.765625 186.96875 C 214.488281 186.96875 214.484375 190.53125 216.765625 190.53125 Z M 159.347656 189.980469 C 161.628906 189.980469 161.632812 186.417969 159.347656 186.417969 C 157.070312 186.417969 157.066406 189.980469 159.347656 189.980469 Z M 150.421875 203.515625 C 152.699219 203.515625 152.703125 199.953125 150.421875 199.953125 C 148.140625 199.953125 148.136719 203.515625 150.421875 203.515625 Z M 176.242188 196.277344 C 178.519531 196.277344 178.53125 192.714844 176.242188 192.714844 C 173.964844 192.714844 173.960938 196.277344 176.242188 196.277344 Z M 182.289062 181.554688 C 184.570312 181.554688 184.570312 177.992188 182.289062 177.992188 C 180.011719 177.992188 180.007812 181.554688 182.289062 181.554688 Z M 212.78125 204.207031 C 215.066406 204.207031 215.070312 200.644531 212.78125 200.644531 C 210.507812 200.644531 210.5 204.207031 212.78125 204.207031 Z M 201.382812 185.421875 C 203.660156 185.421875 203.667969 181.859375 201.382812 181.859375 C 199.101562 181.859375 199.097656 185.421875 201.382812 185.421875 Z M 187.332031 176.15625 C 158.914062 176.15625 135.796875 190.480469 135.796875 208.082031 L 135.792969 209.613281 C 135.792969 211.386719 137.230469 212.832031 139 212.832031 L 235.671875 212.832031 C 237.433594 212.832031 238.871094 211.386719 238.871094 209.613281 L 238.871094 208.082031 C 238.871094 190.480469 215.75 176.15625 187.335938 176.15625 Z M 235.667969 216.390625 L 138.996094 216.390625 C 135.28125 216.390625 132.257812 213.347656 132.257812 209.613281 L 132.257812 208.082031 C 132.257812 198.445312 138.097656 189.449219 148.699219 182.746094 C 159.046875 176.203125 172.765625 172.601562 187.332031 172.601562 C 201.902344 172.601562 215.621094 176.203125 225.96875 182.746094 C 236.570312 189.449219 242.40625 198.445312 242.40625 208.082031 L 242.40625 209.613281 C 242.40625 213.347656 239.382812 216.390625 235.667969 216.390625 Z M 244.949219 222.527344 C 245.183594 222.347656 245.105469 222.417969 244.84375 222.589844 C 244.472656 222.835938 244.097656 223.070312 243.707031 223.289062 C 242.550781 223.925781 241.285156 224.394531 239.976562 224.609375 C 238.03125 224.929688 236.050781 224.636719 234.277344 223.769531 C 232.269531 222.792969 230.707031 221.167969 228.632812 220.28125 C 224.320312 218.421875 219.097656 219.328125 215.582031 222.472656 C 215.542969 222.503906 215.484375 222.542969 215.410156 222.589844 C 215.039062 222.835938 214.664062 223.070312 214.273438 223.289062 C 213.113281 223.925781 211.847656 224.394531 210.542969 224.609375 C 208.597656 224.929688 206.613281 224.636719 204.84375 223.769531 C 202.835938 222.792969 201.269531 221.167969 199.199219 220.28125 C 194.886719 218.421875 189.664062 219.328125 186.148438 222.472656 C 186.109375 222.503906 186.050781 222.542969 185.976562 222.589844 C 185.605469 222.835938 185.222656 223.070312 184.835938 223.289062 C 183.675781 223.925781 182.410156 224.394531 181.105469 224.609375 C 179.160156 224.929688 177.175781 224.636719 175.402344 223.769531 C 173.394531 222.792969 171.835938 221.167969 169.765625 220.28125 C 165.449219 218.421875 160.226562 219.328125 156.714844 222.472656 C 156.671875 222.503906 156.613281 222.542969 156.539062 222.589844 C 156.167969 222.835938 155.792969 223.070312 155.398438 223.289062 C 154.242188 223.925781 152.976562 224.394531 151.671875 224.609375 C 149.726562 224.929688 147.742188 224.636719 145.96875 223.769531 C 143.964844 222.792969 142.402344 221.167969 140.328125 220.28125 C 135.984375 218.414062 130.71875 219.335938 127.207031 222.527344 C 125.515625 224.070312 128.027344 226.578125 129.714844 225.046875 C 130.789062 224.070312 132.59375 223.25 134.15625 222.96875 C 138.714844 222.140625 141.359375 225.695312 145.175781 227.300781 C 149.800781 229.242188 155.273438 228.148438 159.148438 225.046875 C 160.222656 224.070312 162.027344 223.25 163.589844 222.96875 C 168.152344 222.140625 170.796875 225.695312 174.613281 227.300781 C 179.238281 229.242188 184.710938 228.148438 188.585938 225.046875 C 189.660156 224.070312 191.460938 223.25 193.027344 222.96875 C 197.585938 222.140625 200.230469 225.695312 204.046875 227.300781 C 208.671875 229.242188 214.144531 228.148438 218.023438 225.046875 C 219.097656 224.070312 220.898438 223.25 222.460938 222.96875 C 227.023438 222.140625 229.667969 225.695312 233.484375 227.300781 C 238.105469 229.242188 243.582031 228.148438 247.457031 225.046875 C 249.238281 223.617188 246.71875 221.117188 244.949219 222.527344 Z M 130.808594 234.742188 C 129.429688 234.742188 128.304688 235.871094 128.304688 237.257812 L 128.304688 239.574219 C 128.304688 240.960938 129.429688 242.089844 130.808594 242.089844 L 243.859375 242.089844 C 245.238281 242.089844 246.359375 240.960938 246.359375 239.574219 L 246.359375 237.257812 C 246.359375 235.871094 245.238281 234.742188 243.859375 234.742188 Z M 243.859375 245.648438 L 130.808594 245.648438 C 127.476562 245.648438 124.769531 242.925781 124.769531 239.574219 L 124.769531 237.257812 C 124.769531 233.910156 127.476562 231.1875 130.808594 231.1875 L 243.859375 231.1875 C 247.1875 231.1875 249.898438 233.910156 249.898438 237.257812 L 249.898438 239.574219 C 249.898438 242.925781 247.1875 245.648438 243.859375 245.648438 Z M 138.996094 252.710938 C 137.230469 252.710938 135.792969 254.15625 135.792969 255.933594 L 135.792969 258.160156 C 135.792969 263.609375 140.203125 268.046875 145.628906 268.046875 L 229.035156 268.046875 C 234.460938 268.046875 238.867188 263.609375 238.867188 258.160156 L 238.867188 255.933594 C 238.867188 254.15625 237.429688 252.710938 235.667969 252.710938 Z M 229.035156 271.605469 L 145.628906 271.605469 C 138.253906 271.605469 132.257812 265.570312 132.257812 258.160156 L 132.257812 255.933594 C 132.257812 252.195312 135.28125 249.15625 139 249.15625 L 235.671875 249.15625 C 239.386719 249.15625 242.410156 252.195312 242.410156 255.933594 L 242.410156 258.160156 C 242.410156 265.570312 236.414062 271.605469 229.039062 271.605469 " fill-opacity="1" fill-rule="nonzero"/></g><path stroke-linecap="butt" transform="matrix(0.255609, -0.705099, 0.705099, 0.255609, 50.093783, 164.474989)" fill="none" stroke-linejoin="miter" d="M 19.496634 44.343381 L 11.16066 41.398711 C 8.075395 40.284543 5.874256 38.766767 4.555469 36.840485 C 3.238458 34.919099 2.579717 32.39898 2.579247 29.280127 C 2.577534 24.721324 3.689437 21.675659 5.903388 20.141788 C 8.130254 18.597695 12.039704 17.828641 17.634861 17.827955 C 22.920311 17.828741 27.463453 18.364547 31.259389 19.437145 L 30.657381 25.677368 C 27.181324 25.563569 22.859757 25.501441 17.696231 25.500775 C 15.304025 25.503744 13.706347 25.711746 12.906748 26.134573 C 12.105373 26.552504 11.704299 27.60092 11.703525 29.279822 C 11.702625 30.63745 12.003347 31.619815 12.59902 32.223795 C 13.204485 32.824226 14.343061 33.397596 16.02497 33.95682 L 23.87704 36.666952 C 27.077557 37.778118 29.343208 39.305748 30.657527 41.25027 C 31.976742 43.193017 32.639033 45.722929 32.637728 48.836885 C 32.634913 53.47489 31.510892 56.624667 29.265666 58.286217 C 27.030233 59.944216 23.038399 60.776375 17.288389 60.777798 C 12.596094 60.778044 7.85403 60.258951 3.063974 59.225415 L 3.603608 52.614464 C 12.122064 52.822699 16.680318 52.926445 17.283266 52.923927 C 19.726641 52.924568 21.351065 52.66809 22.164557 52.146047 C 22.982946 51.622228 23.392956 50.537333 23.391465 48.898031 C 23.39463 47.500803 23.115269 46.516234 22.556504 45.937654 C 22.000861 45.352402 20.981945 44.818754 19.496634 44.343381 Z M 19.496634 44.343381 " stroke="#fff7b3" stroke-width="0.9" stroke-opacity="1" stroke-miterlimit="4"/><path stroke-linecap="butt" transform="matrix(0.428148, -0.615783, 0.615783, 0.428148, 63.7191, 130.654211)" fill="none" stroke-linejoin="miter" d="M 34.980016 26.045922 L 22.616802 26.046442 L 22.617642 59.996529 L 13.446032 59.998199 L 13.449469 26.045139 L 1.086255 26.045659 L 1.083792 18.60639 L 34.981829 18.603679 Z M 34.980016 26.045922 " stroke="#fff7b3" stroke-width="0.9" stroke-opacity="1" stroke-miterlimit="4"/><path stroke-linecap="butt" transform="matrix(0.577718, -0.47827, 0.47827, 0.577718, 86.287278, 100.509017)" fill="none" stroke-linejoin="miter" d="M 36.84055 59.997298 L 27.175061 60.001255 L 24.051828 47.340984 C 23.66145 46.023862 23.135687 45.115297 22.47122 44.619303 C 21.809384 44.111963 20.856948 43.857638 19.613912 43.856328 L 13.197842 43.798414 L 13.199625 60.000495 L 4.206986 60.000272 L 4.203644 18.603472 C 7.924232 18.241989 13.185856 18.060903 19.981183 18.060905 C 25.537486 18.062919 29.47081 18.93911 31.785856 20.700133 C 34.111557 22.456453 35.270916 25.654305 35.271266 30.292998 C 35.273121 33.337218 34.665327 35.721218 33.443871 37.441677 C 32.229749 39.161445 30.204526 40.202973 27.364191 40.56294 L 27.365804 40.855021 C 30.519073 41.579025 32.475712 43.658635 33.235722 47.093849 Z M 13.199126 36.781018 L 19.805729 36.780298 C 22.199099 36.780551 23.832932 36.375143 24.709861 35.552729 C 25.601455 34.728935 26.04391 33.181715 26.044557 30.91038 C 26.043824 28.624379 25.61737 27.081306 24.753851 26.278533 C 23.894345 25.479081 22.243901 25.07964 19.805841 25.076198 L 13.19743 25.136274 Z M 13.199126 36.781018 " stroke="#fff7b3" stroke-width="0.9" stroke-opacity="1" stroke-miterlimit="4"/><path stroke-linecap="butt" transform="matrix(0.683383, -0.309011, 0.309011, 0.683383, 117.614015, 76.647768)" fill="none" stroke-linejoin="miter" d="M 31.746036 52.864865 L 32.152329 59.57631 C 28.393962 59.974648 21.998501 60.175142 12.9612 60.175647 C 10.201212 60.173739 7.999694 59.429766 6.356194 57.932093 C 4.714839 56.429674 3.878072 54.399368 3.839001 51.843775 L 3.839751 26.762093 C 3.87525 24.205923 4.714383 22.173188 6.355006 20.668635 C 7.995628 19.164081 10.19938 18.411459 12.964114 18.415513 C 21.996669 18.412862 28.393779 18.613237 32.150699 19.014491 L 31.741593 25.797366 L 15.834714 25.795411 C 14.839432 25.796934 14.123942 26.039294 13.679204 26.529835 C 13.240903 27.006139 13.021731 27.781589 13.021686 28.856186 L 13.025006 35.156773 L 29.516806 35.154562 L 29.518144 41.762919 L 13.021599 41.762984 L 13.023056 49.748963 C 13.024372 50.858472 13.244489 51.661078 13.680804 52.149889 C 14.121412 52.629208 14.836984 52.867034 15.837011 52.867656 Z M 31.746036 52.864865 " stroke="#fff7b3" stroke-width="0.9" stroke-opacity="1" stroke-miterlimit="4"/><path stroke-linecap="butt" transform="matrix(0.739066, -0.127599, 0.127599, 0.739066, 150.941332, 62.987809)" fill="none" stroke-linejoin="miter" d="M 31.744944 52.864871 L 32.151189 59.573455 C 28.392437 59.976303 21.999289 60.178024 12.961479 60.176846 C 10.202615 60.176216 7.995234 59.430423 6.356505 57.931859 C 4.717777 56.433295 3.874192 54.400767 3.840264 51.842067 L 3.836255 26.76221 C 3.875953 24.205651 4.718341 22.173508 6.357401 20.670029 C 7.996462 19.16655 10.198876 18.410436 12.962872 18.411952 C 21.995549 18.412244 28.393208 18.612991 32.155847 19.014193 L 31.740504 25.797633 L 15.837215 25.795064 C 14.83795 25.79696 14.119861 26.037674 13.681177 26.527473 C 13.244265 27.007006 13.020554 27.782332 13.020309 28.855224 L 13.021349 35.155586 L 29.517189 35.15475 L 29.518158 41.761652 L 13.022318 41.762488 L 13.022973 49.748822 C 13.021658 50.858526 13.243062 51.657847 13.682054 52.145899 C 14.121932 52.628818 14.837258 52.863312 15.835637 52.866548 Z M 31.744944 52.864871 " stroke="#fff7b3" stroke-width="0.9" stroke-opacity="1" stroke-miterlimit="4"/><path stroke-linecap="butt" transform="matrix(0.747122, 0.0656447, -0.0656447, 0.747122, 186.767702, 58.076363)" fill="none" stroke-linejoin="miter" d="M 34.978884 26.045948 L 22.618816 26.044439 L 22.616663 59.99785 L 13.446103 59.998434 L 13.448256 26.045022 L 1.083 26.043969 L 1.082847 18.603971 L 34.97873 18.60595 Z M 34.978884 26.045948 " stroke="#fff7b3" stroke-width="0.9" stroke-opacity="1" stroke-miterlimit="4"/><path stroke-linecap="butt" transform="matrix(0.706583, 0.251477, -0.251477, 0.706583, 223.620283, 62.741715)" fill="none" stroke-linejoin="miter" d="M 31.317404 25.795168 L 16.496169 25.796076 C 15.341411 25.797962 14.509414 26.038792 14.003672 26.528377 C 13.50425 27.004657 13.256398 27.783915 13.256623 28.856339 L 13.259704 35.94814 L 29.103962 35.948004 L 29.104724 42.598361 L 13.255559 42.600243 L 13.255743 59.997956 L 4.084962 60.000158 L 4.086134 26.995376 C 4.087275 24.357937 4.91499 22.272157 6.560877 20.729967 C 8.221485 19.182538 10.434795 18.411392 13.199062 18.411622 C 21.996012 18.415316 28.201177 18.639341 31.799836 19.088935 Z M 31.317404 25.795168 " stroke="#fff7b3" stroke-width="0.9" stroke-opacity="1" stroke-miterlimit="4"/><path stroke-linecap="butt" transform="matrix(0.613665, 0.431179, -0.431179, 0.613665, 256.737849, 75.636089)" fill="none" stroke-linejoin="miter" d="M 6.696723 22.412505 C 9.27192 19.355469 13.882962 17.827921 20.522593 17.828593 C 27.162223 17.829266 31.781637 19.357613 34.380835 22.413637 C 36.980033 25.46966 38.273844 31.097901 38.27678 39.300896 C 38.275455 47.506884 36.978441 53.134998 34.377215 56.191226 C 31.783245 59.248722 27.164948 60.775003 20.521056 60.777325 C 13.881425 60.776653 9.273528 59.246578 6.693104 56.190095 C 4.115674 53.137873 2.826124 47.506637 2.827449 39.300649 C 2.824512 31.097655 4.114271 25.468274 6.696723 22.412505 Z M 26.909025 28.140957 C 25.764183 26.176388 23.632027 25.198346 20.510828 25.195313 C 17.392624 25.196542 15.262213 26.177829 14.119597 28.139176 C 12.991492 30.103057 12.423735 33.824742 12.420586 39.301236 C 12.420431 44.781992 12.989781 48.500393 14.120111 50.462427 C 15.263226 52.415478 17.395383 53.39352 20.509325 53.395286 C 23.634786 53.395325 25.76819 52.418299 26.90954 50.464208 C 28.052156 48.502861 28.624175 44.778182 28.623062 39.304682 C 28.623217 33.823926 28.050873 30.101264 26.909025 28.140957 Z M 26.909025 28.140957 " stroke="#fff7b3" stroke-width="0.9" stroke-opacity="1" stroke-miterlimit="4"/><path stroke-linecap="butt" transform="matrix(0.461175, 0.591454, -0.591454, 0.461175, 290.161831, 101.169721)" fill="none" stroke-linejoin="miter" d="M 6.693198 22.413205 C 9.272815 19.358969 13.881519 17.827435 20.520216 17.825912 C 27.16302 17.827593 31.783079 19.356185 34.380391 22.411689 C 36.977704 25.467194 38.275487 31.095652 38.277846 39.300265 C 38.276098 47.501676 36.976505 53.132457 34.379067 56.19261 C 31.784831 59.248655 27.164709 60.777892 20.521905 60.776211 C 13.883208 60.777734 9.270459 59.248237 6.695076 56.190018 C 4.116491 53.135906 2.826018 47.506544 2.827766 39.305134 C 2.825406 31.10052 4.11769 25.470643 6.693198 22.413205 Z M 26.910208 28.138207 C 25.765565 26.175767 23.632584 25.192878 20.508061 25.193648 C 17.390849 25.193513 15.2637 26.176704 14.122507 28.14002 C 12.988624 30.102431 12.420868 33.820561 12.420143 39.30172 C 12.422621 44.778772 12.98727 48.501477 14.120495 50.461619 C 15.264233 52.416749 17.393107 53.396435 20.506213 53.393368 C 23.630735 53.392598 25.766099 52.415812 26.912304 50.463009 C 28.053497 48.499693 28.621253 44.781563 28.621978 39.300403 C 28.623607 33.826554 28.051648 30.104754 26.910208 28.138207 Z M 26.910208 28.138207 " stroke="#fff7b3" stroke-width="0.9" stroke-opacity="1" stroke-miterlimit="4"/><path stroke-linecap="butt" transform="matrix(0.269108, 0.700058, -0.700058, 0.269108, 314.66509, 135.326242)" fill="none" stroke-linejoin="miter" d="M 4.201853 59.999172 L 4.206374 18.603646 C 9.88117 18.240655 15.234414 18.06095 20.272835 18.06154 C 26.874311 18.060353 31.463159 19.578831 34.044242 22.618845 C 36.632056 25.655867 37.926876 31.214575 37.926834 39.299831 C 37.9238 47.378357 36.628362 52.940149 34.045382 55.987074 C 31.46614 59.024277 26.876716 60.541041 20.27524 60.542228 C 15.236818 60.541639 9.876779 60.361618 4.201853 59.999172 Z M 13.317786 25.253217 L 13.315347 53.274527 C 14.001147 53.2759 15.10688 53.288041 16.641144 53.303096 C 18.183263 53.326751 19.396314 53.335507 20.273569 53.332358 C 23.358172 53.335169 25.468121 52.360684 26.600423 50.402175 C 27.744316 48.442542 28.314277 44.738971 28.31816 39.300063 C 28.315313 33.864148 27.744766 30.151809 26.604651 28.167906 C 25.469397 26.185873 23.360964 25.196816 20.276361 25.194005 Z M 13.317786 25.253217 " stroke="#fff7b3" stroke-width="0.9" stroke-opacity="1" stroke-miterlimit="4"/><g fill="#000000" fill-opacity="1"><g transform="translate(91.566155, 189.56912)"><g/></g></g><g fill="#000000" fill-opacity="1"><g transform="translate(92.399698, 179.811519)"><g><path d="M -6.0625 -17.75 L -10.265625 -12.625 C -11.835938 -10.738281 -13.46875 -9.578125 -15.15625 -9.140625 C -16.851562 -8.703125 -18.804688 -8.882812 -21.015625 -9.6875 C -24.222656 -10.84375 -26.085938 -12.398438 -26.609375 -14.359375 C -27.128906 -16.316406 -26.671875 -19.269531 -25.234375 -23.21875 C -23.890625 -26.945312 -22.347656 -30.007812 -20.609375 -32.40625 L -16.34375 -30.390625 C -17.332031 -27.960938 -18.484375 -24.929688 -19.796875 -21.296875 C -20.410156 -19.597656 -20.671875 -18.414062 -20.578125 -17.75 C -20.484375 -17.082031 -19.847656 -16.535156 -18.671875 -16.109375 C -17.710938 -15.753906 -16.941406 -15.710938 -16.359375 -15.984375 C -15.785156 -16.253906 -15.085938 -16.910156 -14.265625 -17.953125 L -10.34375 -22.796875 C -8.75 -24.773438 -7.09375 -25.976562 -5.375 -26.40625 C -3.664062 -26.84375 -1.71875 -26.664062 0.46875 -25.875 C 3.738281 -24.6875 5.671875 -23.085938 6.265625 -21.078125 C 6.867188 -19.078125 6.4375 -16.039062 4.96875 -11.96875 C 3.769531 -8.675781 2.191406 -5.472656 0.234375 -2.359375 L -4.28125 -4.4375 C -1.96875 -10.382812 -0.734375 -13.566406 -0.578125 -13.984375 C 0.046875 -15.710938 0.28125 -16.929688 0.125 -17.640625 C -0.03125 -18.347656 -0.6875 -18.914062 -1.84375 -19.34375 C -2.832031 -19.695312 -3.601562 -19.75 -4.15625 -19.5 C -4.707031 -19.257812 -5.34375 -18.675781 -6.0625 -17.75 Z M -6.0625 -17.75 "/></g></g></g><g fill="#000000" fill-opacity="1"><g transform="translate(100.666088, 156.343111)"><g><path d="M -5.9375 -36.09375 L -11.21875 -28.484375 L 9.6875 -13.9375 L 5.75 -8.28125 L -15.15625 -22.828125 L -20.4375 -15.21875 L -25.015625 -18.390625 L -10.515625 -39.265625 Z M -5.9375 -36.09375 "/></g></g></g><g fill="#000000" fill-opacity="1"><g transform="translate(114.983482, 135.172074)"><g><path d="M 21.28125 -17.609375 L 15.703125 -13 L 7.84375 -18.828125 C 6.976562 -19.398438 6.234375 -19.671875 5.609375 -19.640625 C 4.992188 -19.609375 4.332031 -19.300781 3.625 -18.71875 L -0.125 -15.671875 L 7.625 -6.3125 L 2.4375 -2.015625 L -17.359375 -25.9375 C -15.398438 -27.914062 -12.453125 -30.535156 -8.515625 -33.796875 C -5.304688 -36.453125 -2.609375 -37.828125 -0.421875 -37.921875 C 1.753906 -38.015625 3.953125 -36.71875 6.171875 -34.03125 C 7.617188 -32.28125 8.398438 -30.613281 8.515625 -29.03125 C 8.640625 -27.457031 7.96875 -25.882812 6.5 -24.3125 L 6.640625 -24.140625 C 8.816406 -25.242188 10.945312 -24.984375 13.03125 -23.359375 Z M -3.484375 -19.734375 L 0.328125 -22.890625 C 1.710938 -24.035156 2.460938 -25.054688 2.578125 -25.953125 C 2.703125 -26.847656 2.21875 -27.953125 1.125 -29.265625 C 0.0390625 -30.578125 -0.941406 -31.257812 -1.828125 -31.3125 C -2.710938 -31.363281 -3.859375 -30.804688 -5.265625 -29.640625 L -9.046875 -26.453125 Z M -3.484375 -19.734375 "/></g></g></g><g fill="#000000" fill-opacity="1"><g transform="translate(136.154667, 117.650743)"><g><path d="M 19.5 -14.703125 L 21.859375 -10.21875 C 19.410156 -8.78125 15.097656 -6.664062 8.921875 -3.875 C 7.023438 -3.019531 5.285156 -2.851562 3.703125 -3.375 C 2.117188 -3.894531 0.914062 -5.023438 0.09375 -6.765625 L -7.65625 -23.90625 C -8.414062 -25.664062 -8.46875 -27.3125 -7.8125 -28.84375 C -7.15625 -30.375 -5.878906 -31.566406 -3.984375 -32.421875 C 2.191406 -35.210938 6.628906 -37.050781 9.328125 -37.9375 L 11.125 -33.1875 L 0.234375 -28.265625 C -0.441406 -27.953125 -0.851562 -27.5625 -1 -27.09375 C -1.15625 -26.632812 -1.066406 -26.039062 -0.734375 -25.3125 L 1.21875 -21 L 12.5 -26.09375 L 14.53125 -21.59375 L 3.25 -16.5 L 5.71875 -11.03125 C 6.0625 -10.269531 6.457031 -9.789062 6.90625 -9.59375 C 7.363281 -9.40625 7.929688 -9.46875 8.609375 -9.78125 Z M 19.5 -14.703125 "/></g></g></g><g fill="#000000" fill-opacity="1"><g transform="translate(158.597266, 107.331763)"><g><path d="M 22.5625 -9.328125 L 23.71875 -4.421875 C 20.988281 -3.640625 16.285156 -2.671875 9.609375 -1.515625 C 7.566406 -1.160156 5.84375 -1.429688 4.4375 -2.328125 C 3.03125 -3.234375 2.144531 -4.628906 1.78125 -6.515625 L -1.421875 -25.0625 C -1.710938 -26.957031 -1.347656 -28.5625 -0.328125 -29.875 C 0.691406 -31.195312 2.222656 -32.035156 4.265625 -32.390625 C 10.941406 -33.546875 15.695312 -34.210938 18.53125 -34.390625 L 19.109375 -29.328125 L 7.34375 -27.296875 C 6.601562 -27.171875 6.101562 -26.898438 5.84375 -26.484375 C 5.582031 -26.066406 5.519531 -25.460938 5.65625 -24.671875 L 6.453125 -20.015625 L 18.640625 -22.125 L 19.484375 -17.25 L 7.296875 -15.140625 L 8.3125 -9.234375 C 8.457031 -8.410156 8.722656 -7.847656 9.109375 -7.546875 C 9.492188 -7.253906 10.054688 -7.171875 10.796875 -7.296875 Z M 22.5625 -9.328125 "/></g></g></g><g fill="#000000" fill-opacity="1"><g transform="translate(182.829023, 102.903662)"><g><path d="M 28.375 -23.078125 L 19.140625 -23.890625 L 16.90625 1.484375 L 10.046875 0.875 L 12.28125 -24.5 L 3.046875 -25.296875 L 3.53125 -30.84375 L 28.859375 -28.625 Z M 28.375 -23.078125 "/></g></g></g><g fill="#000000" fill-opacity="1"><g transform="translate(208.531645, 105.136676)"><g><path d="M 30.734375 -16.296875 L 20.265625 -20.015625 C 19.441406 -20.316406 18.789062 -20.359375 18.3125 -20.140625 C 17.832031 -19.921875 17.457031 -19.429688 17.1875 -18.671875 L 15.40625 -13.671875 L 26.609375 -9.6875 L 24.9375 -4.984375 L 13.734375 -8.96875 L 9.359375 3.328125 L 2.890625 1.03125 L 11.1875 -22.28125 C 11.851562 -24.144531 12.960938 -25.410156 14.515625 -26.078125 C 16.078125 -26.753906 17.832031 -26.742188 19.78125 -26.046875 C 26 -23.835938 30.328125 -22.125 32.765625 -20.90625 Z M 30.734375 -16.296875 "/></g></g></g><g fill="#000000" fill-opacity="1"><g transform="translate(230.867113, 112.455986)"><g><path d="M 20.3125 -20.1875 C 23.21875 -20.957031 26.707031 -19.910156 30.78125 -17.046875 C 34.851562 -14.179688 37.023438 -11.25 37.296875 -8.25 C 37.578125 -5.25 35.945312 -1.234375 32.40625 3.796875 C 28.875 8.828125 25.648438 11.71875 22.734375 12.46875 C 19.828125 13.226562 16.335938 12.175781 12.265625 9.3125 C 8.191406 6.445312 6.019531 3.519531 5.75 0.53125 C 5.476562 -2.445312 7.109375 -6.453125 10.640625 -11.484375 C 14.179688 -16.515625 17.40625 -19.414062 20.3125 -20.1875 Z M 30.25 -7.9375 C 30.394531 -9.625 29.507812 -11.140625 27.59375 -12.484375 C 25.675781 -13.835938 23.945312 -14.160156 22.40625 -13.453125 C 20.863281 -12.742188 18.910156 -10.707031 16.546875 -7.34375 C 14.179688 -3.976562 12.925781 -1.453125 12.78125 0.234375 C 12.632812 1.929688 13.519531 3.453125 15.4375 4.796875 C 17.351562 6.148438 19.082031 6.46875 20.625 5.75 C 22.164062 5.039062 24.117188 3.003906 26.484375 -0.359375 C 28.847656 -3.722656 30.101562 -6.25 30.25 -7.9375 Z M 30.25 -7.9375 "/></g></g></g><g fill="#000000" fill-opacity="1"><g transform="translate(254.674596, 128.840207)"><g><path d="M 25.3125 -13.375 C 28.320312 -13.257812 31.359375 -11.238281 34.421875 -7.3125 C 37.484375 -3.382812 38.707031 0.0507812 38.09375 3 C 37.476562 5.945312 34.742188 9.3125 29.890625 13.09375 C 25.046875 16.875 21.117188 18.703125 18.109375 18.578125 C 15.109375 18.453125 12.078125 16.425781 9.015625 12.5 C 5.953125 8.570312 4.726562 5.132812 5.34375 2.1875 C 5.957031 -0.75 8.6875 -4.109375 13.53125 -7.890625 C 18.382812 -11.671875 22.3125 -13.5 25.3125 -13.375 Z M 31.25 1.234375 C 31.882812 -0.347656 31.476562 -2.0625 30.03125 -3.90625 C 28.59375 -5.757812 27.03125 -6.566406 25.34375 -6.328125 C 23.664062 -6.097656 21.203125 -4.71875 17.953125 -2.1875 C 14.710938 0.332031 12.773438 2.378906 12.140625 3.953125 C 11.515625 5.523438 11.921875 7.234375 13.359375 9.078125 C 14.804688 10.929688 16.367188 11.742188 18.046875 11.515625 C 19.734375 11.296875 22.195312 9.921875 25.4375 7.390625 C 28.6875 4.867188 30.625 2.816406 31.25 1.234375 Z M 31.25 1.234375 "/></g></g></g><g fill="#000000" fill-opacity="1"><g transform="translate(272.661635, 151.472746)"><g><path d="M 1.125 2.953125 L 30.109375 -8.1875 C 31.890625 -4.3125 33.457031 -0.613281 34.8125 2.90625 C 36.59375 7.53125 36.765625 11.15625 35.328125 13.78125 C 33.890625 16.40625 30.34375 18.800781 24.6875 20.96875 C 19.039062 23.144531 14.804688 23.738281 11.984375 22.75 C 9.160156 21.757812 6.859375 18.953125 5.078125 14.328125 C 3.722656 10.804688 2.40625 7.015625 1.125 2.953125 Z M 27.90625 -0.03125 L 8.28125 7.5 C 8.46875 7.976562 8.765625 8.757812 9.171875 9.84375 C 9.578125 10.925781 9.894531 11.773438 10.125 12.390625 C 10.957031 14.546875 12.210938 15.757812 13.890625 16.03125 C 15.566406 16.300781 18.304688 15.703125 22.109375 14.234375 C 25.921875 12.773438 28.363281 11.378906 29.4375 10.046875 C 30.519531 8.722656 30.644531 6.984375 29.8125 4.828125 Z M 27.90625 -0.03125 "/></g></g></g><g fill="#000000" fill-opacity="1"><g transform="translate(282.514435, 179.925642)"><g/></g></g></svg>