<svg xmlns="http://www.w3.org/2000/svg" xmlns:xlink="http://www.w3.org/1999/xlink" width="1929" zoomAndPan="magnify" viewBox="0 0 1446.75 809.999993" height="1080" preserveAspectRatio="xMidYMid meet" version="1.0"><defs><g/></defs><g fill="#000000" fill-opacity="1"><g transform="translate(48.098232, 352.531666)"><g><path d="M 94.421875 -314.109375 L 94.421875 0 L 22.84375 0 L 22.84375 -314.109375 Z M 94.421875 -314.109375 "/></g></g></g><g fill="#000000" fill-opacity="1"><g transform="translate(146.327086, 352.531666)"><g><path d="M 22.84375 0 L 22.84375 -195.3125 L 90.234375 -195.3125 L 90.234375 -174.75 L 91 -174.75 C 108.507812 -192.269531 127.164062 -201.03125 146.96875 -201.03125 C 156.613281 -201.03125 166.191406 -199.757812 175.703125 -197.21875 C 185.222656 -194.675781 194.359375 -190.738281 203.109375 -185.40625 C 211.867188 -180.082031 218.976562 -172.535156 224.4375 -162.765625 C 229.894531 -152.992188 232.625 -141.632812 232.625 -128.6875 L 232.625 0 L 165.234375 0 L 165.234375 -110.40625 C 165.234375 -120.5625 162 -129.445312 155.53125 -137.0625 C 149.0625 -144.675781 140.625 -148.484375 130.21875 -148.484375 C 120.0625 -148.484375 110.859375 -144.546875 102.609375 -136.671875 C 94.359375 -128.804688 90.234375 -120.050781 90.234375 -110.40625 L 90.234375 0 Z M 22.84375 0 "/></g></g></g><g fill="#000000" fill-opacity="1"><g transform="translate(378.954354, 352.531666)"><g><path d="M 107.75 -201.03125 C 118.914062 -201.03125 129.957031 -199.757812 140.875 -197.21875 C 151.789062 -194.675781 159.910156 -192.140625 165.234375 -189.609375 L 173.234375 -185.796875 L 151.15625 -141.640625 C 135.925781 -149.753906 121.457031 -153.8125 107.75 -153.8125 C 100.132812 -153.8125 94.738281 -152.984375 91.5625 -151.328125 C 88.394531 -149.679688 86.8125 -146.578125 86.8125 -142.015625 C 86.8125 -140.992188 86.9375 -139.972656 87.1875 -138.953125 C 87.4375 -137.941406 87.941406 -136.992188 88.703125 -136.109375 C 89.472656 -135.222656 90.171875 -134.460938 90.796875 -133.828125 C 91.429688 -133.191406 92.507812 -132.492188 94.03125 -131.734375 C 95.5625 -130.972656 96.769531 -130.398438 97.65625 -130.015625 C 98.539062 -129.640625 100 -129.070312 102.03125 -128.3125 C 104.0625 -127.550781 105.582031 -126.976562 106.59375 -126.59375 C 107.613281 -126.207031 109.328125 -125.632812 111.734375 -124.875 C 114.148438 -124.113281 115.992188 -123.609375 117.265625 -123.359375 C 125.128906 -121.078125 131.976562 -118.539062 137.8125 -115.75 C 143.65625 -112.957031 149.8125 -109.148438 156.28125 -104.328125 C 162.757812 -99.503906 167.773438 -93.410156 171.328125 -86.046875 C 174.878906 -78.679688 176.65625 -70.304688 176.65625 -60.921875 C 176.65625 -16.492188 145.816406 5.71875 84.140625 5.71875 C 70.179688 5.71875 56.921875 3.5625 44.359375 -0.75 C 31.796875 -5.070312 22.722656 -9.390625 17.140625 -13.703125 L 8.75 -20.5625 L 36.171875 -66.625 C 38.203125 -64.851562 40.863281 -62.757812 44.15625 -60.34375 C 47.457031 -57.9375 53.421875 -54.640625 62.046875 -50.453125 C 70.679688 -46.265625 78.171875 -44.171875 84.515625 -44.171875 C 98.484375 -44.171875 105.46875 -48.863281 105.46875 -58.25 C 105.46875 -62.5625 103.6875 -65.921875 100.125 -68.328125 C 96.570312 -70.742188 90.546875 -73.472656 82.046875 -76.515625 C 73.546875 -79.566406 66.882812 -82.363281 62.0625 -84.90625 C 49.875 -91.25 40.226562 -98.414062 33.125 -106.40625 C 26.019531 -114.40625 22.46875 -125.003906 22.46875 -138.203125 C 22.46875 -158.003906 30.144531 -173.425781 45.5 -184.46875 C 60.851562 -195.507812 81.601562 -201.03125 107.75 -201.03125 Z M 107.75 -201.03125 "/></g></g></g><g fill="#000000" fill-opacity="1"><g transform="translate(547.237911, 352.531666)"><g><path d="M 34.265625 -195.3125 L 34.265625 -268.03125 L 101.65625 -268.03125 L 101.65625 -195.3125 L 142.78125 -195.3125 L 142.78125 -143.921875 L 101.65625 -143.921875 L 101.65625 -81.859375 C 101.65625 -63.835938 106.734375 -54.828125 116.890625 -54.828125 C 119.421875 -54.828125 122.082031 -55.332031 124.875 -56.34375 C 127.664062 -57.363281 129.828125 -58.378906 131.359375 -59.390625 L 133.640625 -60.921875 L 150.390625 -6.46875 C 135.921875 1.65625 119.421875 5.71875 100.890625 5.71875 C 88.203125 5.71875 77.285156 3.5 68.140625 -0.9375 C 59.003906 -5.382812 52.085938 -11.351562 47.390625 -18.84375 C 42.703125 -26.332031 39.34375 -34.203125 37.3125 -42.453125 C 35.28125 -50.703125 34.265625 -59.519531 34.265625 -68.90625 L 34.265625 -143.921875 L 6.09375 -143.921875 L 6.09375 -195.3125 Z M 34.265625 -195.3125 "/></g></g></g><g fill="#000000" fill-opacity="1"><g transform="translate(678.590487, 352.531666)"><g><path d="M 36.15625 -24.171875 C 17.882812 -44.097656 8.75 -68.53125 8.75 -97.46875 C 8.75 -126.40625 17.882812 -150.898438 36.15625 -170.953125 C 54.4375 -191.003906 77.664062 -201.03125 105.84375 -201.03125 C 131.726562 -201.03125 153.050781 -192.90625 169.8125 -176.65625 L 169.8125 -195.3125 L 237.203125 -195.3125 L 237.203125 0 L 170.5625 0 L 170.5625 -22.078125 L 169.8125 -22.078125 C 153.050781 -3.546875 131.726562 5.71875 105.84375 5.71875 C 77.664062 5.71875 54.4375 -4.242188 36.15625 -24.171875 Z M 93.46875 -130.578125 C 84.707031 -121.953125 80.328125 -110.914062 80.328125 -97.46875 C 80.328125 -84.019531 84.515625 -73.039062 92.890625 -64.53125 C 101.273438 -56.03125 112.316406 -51.78125 126.015625 -51.78125 C 139.222656 -51.78125 150.078125 -56.09375 158.578125 -64.71875 C 167.078125 -73.351562 171.328125 -84.269531 171.328125 -97.46875 C 171.328125 -110.914062 166.945312 -121.953125 158.1875 -130.578125 C 149.4375 -139.210938 138.710938 -143.53125 126.015625 -143.53125 C 113.078125 -143.53125 102.226562 -139.210938 93.46875 -130.578125 Z M 93.46875 -130.578125 "/></g></g></g><g fill="#000000" fill-opacity="1"><g transform="translate(48.098232, 560.333272)"><g><path d="M 17.3125 0 L 17.3125 -148.015625 L 68.375 -148.015625 L 68.375 -126.671875 L 68.953125 -126.671875 C 69.335938 -127.429688 69.960938 -128.390625 70.828125 -129.546875 C 71.703125 -130.703125 73.578125 -132.722656 76.453125 -135.609375 C 79.335938 -138.492188 82.414062 -141.085938 85.6875 -143.390625 C 88.957031 -145.703125 93.1875 -147.769531 98.375 -149.59375 C 103.570312 -151.425781 108.867188 -152.34375 114.265625 -152.34375 C 119.835938 -152.34375 125.316406 -151.570312 130.703125 -150.03125 C 136.085938 -148.5 140.03125 -146.960938 142.53125 -145.421875 L 146.578125 -143.109375 L 125.21875 -99.828125 C 118.875 -105.210938 110.023438 -107.90625 98.671875 -107.90625 C 92.515625 -107.90625 87.222656 -106.554688 82.796875 -103.859375 C 78.378906 -101.171875 75.253906 -97.90625 73.421875 -94.0625 C 71.597656 -90.21875 70.300781 -86.945312 69.53125 -84.25 C 68.757812 -81.5625 68.375 -79.445312 68.375 -77.90625 L 68.375 0 Z M 17.3125 0 "/></g></g></g><g fill="#000000" fill-opacity="1"><g transform="translate(177.362902, 560.333272)"><g><path d="M 167.0625 -66.9375 L 59.71875 -66.9375 C 59.71875 -56.550781 63.082031 -48.859375 69.8125 -43.859375 C 76.550781 -38.859375 83.863281 -36.359375 91.75 -36.359375 C 100.019531 -36.359375 106.5625 -37.460938 111.375 -39.671875 C 116.1875 -41.878906 121.664062 -46.253906 127.8125 -52.796875 L 164.75 -34.328125 C 149.363281 -8.554688 123.78125 4.328125 88 4.328125 C 65.6875 4.328125 46.546875 -3.316406 30.578125 -18.609375 C 14.617188 -33.898438 6.640625 -52.316406 6.640625 -73.859375 C 6.640625 -95.398438 14.617188 -113.863281 30.578125 -129.25 C 46.546875 -144.644531 65.6875 -152.34375 88 -152.34375 C 111.46875 -152.34375 130.554688 -145.5625 145.265625 -132 C 159.984375 -118.4375 167.34375 -99.054688 167.34375 -73.859375 C 167.34375 -70.398438 167.25 -68.09375 167.0625 -66.9375 Z M 61.171875 -95.21875 L 117.4375 -95.21875 C 116.28125 -102.90625 113.25 -108.816406 108.34375 -112.953125 C 103.4375 -117.085938 97.132812 -119.15625 89.4375 -119.15625 C 80.976562 -119.15625 74.25 -116.941406 69.25 -112.515625 C 64.25 -108.097656 61.554688 -102.332031 61.171875 -95.21875 Z M 61.171875 -95.21875 "/></g></g></g><g fill="#000000" fill-opacity="1"><g transform="translate(336.923981, 560.333272)"><g><path d="M 96.078125 -110.5 C 86.460938 -110.5 78.191406 -106.941406 71.265625 -99.828125 C 64.335938 -92.710938 60.875 -84.15625 60.875 -74.15625 C 60.875 -63.957031 64.335938 -55.300781 71.265625 -48.1875 C 78.191406 -41.070312 86.460938 -37.515625 96.078125 -37.515625 C 100.691406 -37.515625 105.066406 -38.085938 109.203125 -39.234375 C 113.335938 -40.390625 116.367188 -41.546875 118.296875 -42.703125 L 120.890625 -44.4375 L 138.203125 -8.9375 C 136.859375 -7.976562 134.984375 -6.773438 132.578125 -5.328125 C 130.171875 -3.890625 124.6875 -1.921875 116.125 0.578125 C 107.570312 3.078125 98.390625 4.328125 88.578125 4.328125 C 66.835938 4.328125 47.742188 -3.316406 31.296875 -18.609375 C 14.859375 -33.898438 6.640625 -52.222656 6.640625 -73.578125 C 6.640625 -95.117188 14.859375 -113.628906 31.296875 -129.109375 C 47.742188 -144.597656 66.835938 -152.34375 88.578125 -152.34375 C 98.390625 -152.34375 107.429688 -151.1875 115.703125 -148.875 C 123.972656 -146.570312 129.835938 -144.265625 133.296875 -141.953125 L 138.203125 -138.5 L 120.890625 -103.578125 C 114.546875 -108.191406 106.273438 -110.5 96.078125 -110.5 Z M 96.078125 -110.5 "/></g></g></g><g fill="#000000" fill-opacity="1"><g transform="translate(464.168901, 560.333272)"><g><path d="M 167.0625 -66.9375 L 59.71875 -66.9375 C 59.71875 -56.550781 63.082031 -48.859375 69.8125 -43.859375 C 76.550781 -38.859375 83.863281 -36.359375 91.75 -36.359375 C 100.019531 -36.359375 106.5625 -37.460938 111.375 -39.671875 C 116.1875 -41.878906 121.664062 -46.253906 127.8125 -52.796875 L 164.75 -34.328125 C 149.363281 -8.554688 123.78125 4.328125 88 4.328125 C 65.6875 4.328125 46.546875 -3.316406 30.578125 -18.609375 C 14.617188 -33.898438 6.640625 -52.316406 6.640625 -73.859375 C 6.640625 -95.398438 14.617188 -113.863281 30.578125 -129.25 C 46.546875 -144.644531 65.6875 -152.34375 88 -152.34375 C 111.46875 -152.34375 130.554688 -145.5625 145.265625 -132 C 159.984375 -118.4375 167.34375 -99.054688 167.34375 -73.859375 C 167.34375 -70.398438 167.25 -68.09375 167.0625 -66.9375 Z M 61.171875 -95.21875 L 117.4375 -95.21875 C 116.28125 -102.90625 113.25 -108.816406 108.34375 -112.953125 C 103.4375 -117.085938 97.132812 -119.15625 89.4375 -119.15625 C 80.976562 -119.15625 74.25 -116.941406 69.25 -112.515625 C 64.25 -108.097656 61.554688 -102.332031 61.171875 -95.21875 Z M 61.171875 -95.21875 "/></g></g></g><g fill="#000000" fill-opacity="1"><g transform="translate(623.730011, 560.333272)"><g><path d="M 169.65625 -129.6875 C 183.507812 -114.59375 190.4375 -96.082031 190.4375 -74.15625 C 190.4375 -52.226562 183.507812 -33.664062 169.65625 -18.46875 C 155.800781 -3.269531 138.203125 4.328125 116.859375 4.328125 C 97.234375 4.328125 81.070312 -1.828125 68.375 -14.140625 L 68.375 75.015625 L 17.3125 75.015625 L 17.3125 -148.015625 L 67.8125 -148.015625 L 67.8125 -131.28125 L 68.375 -131.28125 C 81.070312 -145.320312 97.234375 -152.34375 116.859375 -152.34375 C 138.203125 -152.34375 155.800781 -144.789062 169.65625 -129.6875 Z M 126.234375 -49.046875 C 132.867188 -55.585938 136.1875 -63.953125 136.1875 -74.140625 C 136.1875 -84.335938 133.007812 -92.660156 126.65625 -99.109375 C 120.3125 -105.554688 111.945312 -108.78125 101.5625 -108.78125 C 91.5625 -108.78125 83.335938 -105.507812 76.890625 -98.96875 C 70.453125 -92.425781 67.234375 -84.15625 67.234375 -74.15625 C 67.234375 -63.957031 70.550781 -55.585938 77.1875 -49.046875 C 83.820312 -42.503906 91.945312 -39.234375 101.5625 -39.234375 C 111.375 -39.234375 119.597656 -42.503906 126.234375 -49.046875 Z M 126.234375 -49.046875 "/></g></g></g><g fill="#000000" fill-opacity="1"><g transform="translate(806.374043, 560.333272)"><g><path d="M 25.96875 -148.015625 L 25.96875 -203.125 L 77.03125 -203.125 L 77.03125 -148.015625 L 108.203125 -148.015625 L 108.203125 -109.0625 L 77.03125 -109.0625 L 77.03125 -62.03125 C 77.03125 -48.375 80.878906 -41.546875 88.578125 -41.546875 C 90.503906 -41.546875 92.523438 -41.929688 94.640625 -42.703125 C 96.753906 -43.472656 98.390625 -44.242188 99.546875 -45.015625 L 101.28125 -46.171875 L 113.96875 -4.90625 C 103.007812 1.25 90.503906 4.328125 76.453125 4.328125 C 66.835938 4.328125 58.566406 2.644531 51.640625 -0.71875 C 44.722656 -4.082031 39.484375 -8.601562 35.921875 -14.28125 C 32.359375 -19.957031 29.804688 -25.921875 28.265625 -32.171875 C 26.734375 -38.421875 25.96875 -45.101562 25.96875 -52.21875 L 25.96875 -109.0625 L 4.609375 -109.0625 L 4.609375 -148.015625 Z M 25.96875 -148.015625 "/></g></g></g><g fill="#000000" fill-opacity="1"><g transform="translate(48.098232, 763.715782)"><g><path d="M 50.078125 -61.578125 C 59.285156 -61.578125 67.101562 -58.363281 73.53125 -51.9375 C 79.957031 -45.507812 83.171875 -37.691406 83.171875 -28.484375 C 83.171875 -19.472656 79.957031 -11.753906 73.53125 -5.328125 C 67.101562 1.097656 59.285156 4.3125 50.078125 4.3125 C 41.054688 4.3125 33.332031 1.097656 26.90625 -5.328125 C 20.476562 -11.753906 17.265625 -19.472656 17.265625 -28.484375 C 17.265625 -37.691406 20.476562 -45.507812 26.90625 -51.9375 C 33.332031 -58.363281 41.054688 -61.578125 50.078125 -61.578125 Z M 50.078125 -61.578125 "/></g></g></g><g fill="#000000" fill-opacity="1"><g transform="translate(134.143118, 763.715782)"><g><path d="M 81.4375 -151.953125 C 89.882812 -151.953125 98.234375 -150.988281 106.484375 -149.0625 C 114.734375 -147.144531 120.867188 -145.226562 124.890625 -143.3125 L 130.9375 -140.4375 L 114.25 -107.046875 C 102.738281 -113.191406 91.800781 -116.265625 81.4375 -116.265625 C 75.6875 -116.265625 71.609375 -115.640625 69.203125 -114.390625 C 66.804688 -113.140625 65.609375 -110.789062 65.609375 -107.34375 C 65.609375 -106.570312 65.703125 -105.800781 65.890625 -105.03125 C 66.085938 -104.269531 66.472656 -103.550781 67.046875 -102.875 C 67.628906 -102.207031 68.160156 -101.632812 68.640625 -101.15625 C 69.117188 -100.675781 69.929688 -100.144531 71.078125 -99.5625 C 72.234375 -98.988281 73.144531 -98.554688 73.8125 -98.265625 C 74.488281 -97.984375 75.59375 -97.554688 77.125 -96.984375 C 78.65625 -96.410156 79.804688 -95.976562 80.578125 -95.6875 C 81.347656 -95.394531 82.644531 -94.960938 84.46875 -94.390625 C 86.289062 -93.816406 87.679688 -93.429688 88.640625 -93.234375 C 94.585938 -91.515625 99.765625 -89.597656 104.171875 -87.484375 C 108.585938 -85.367188 113.238281 -82.488281 118.125 -78.84375 C 123.019531 -75.207031 126.8125 -70.601562 129.5 -65.03125 C 132.1875 -59.46875 133.53125 -53.140625 133.53125 -46.046875 C 133.53125 -12.472656 110.21875 4.3125 63.59375 4.3125 C 53.039062 4.3125 43.015625 2.679688 33.515625 -0.578125 C 24.023438 -3.835938 17.171875 -7.097656 12.953125 -10.359375 L 6.625 -15.546875 L 27.34375 -50.359375 C 28.875 -49.015625 30.882812 -47.429688 33.375 -45.609375 C 35.875 -43.785156 40.382812 -41.289062 46.90625 -38.125 C 53.425781 -34.957031 59.085938 -33.375 63.890625 -33.375 C 74.441406 -33.375 79.71875 -36.925781 79.71875 -44.03125 C 79.71875 -47.289062 78.375 -49.832031 75.6875 -51.65625 C 73 -53.476562 68.441406 -55.539062 62.015625 -57.84375 C 55.585938 -60.144531 50.550781 -62.253906 46.90625 -64.171875 C 37.695312 -68.972656 30.40625 -74.394531 25.03125 -80.4375 C 19.664062 -86.476562 16.984375 -94.488281 16.984375 -104.46875 C 16.984375 -119.425781 22.785156 -131.078125 34.390625 -139.421875 C 45.992188 -147.773438 61.675781 -151.953125 81.4375 -151.953125 Z M 81.4375 -151.953125 "/></g></g></g><g fill="#000000" fill-opacity="1"><g transform="translate(261.339917, 763.715782)"><g><path d="M 166.625 -66.765625 L 59.578125 -66.765625 C 59.578125 -56.398438 62.929688 -48.722656 69.640625 -43.734375 C 76.359375 -38.753906 83.648438 -36.265625 91.515625 -36.265625 C 99.765625 -36.265625 106.285156 -37.363281 111.078125 -39.5625 C 115.878906 -41.769531 121.347656 -46.132812 127.484375 -52.65625 L 164.328125 -34.25 C 148.972656 -8.539062 123.453125 4.3125 87.765625 4.3125 C 65.515625 4.3125 46.425781 -3.3125 30.5 -18.5625 C 14.582031 -33.8125 6.625 -52.179688 6.625 -73.671875 C 6.625 -95.160156 14.582031 -113.578125 30.5 -128.921875 C 46.425781 -144.273438 65.515625 -151.953125 87.765625 -151.953125 C 111.171875 -151.953125 130.210938 -145.1875 144.890625 -131.65625 C 159.566406 -118.132812 166.90625 -98.804688 166.90625 -73.671875 C 166.90625 -70.210938 166.8125 -67.910156 166.625 -66.765625 Z M 61.015625 -94.96875 L 117.125 -94.96875 C 115.976562 -102.644531 112.957031 -108.546875 108.0625 -112.671875 C 103.164062 -116.796875 96.882812 -118.859375 89.21875 -118.859375 C 80.769531 -118.859375 74.050781 -116.648438 69.0625 -112.234375 C 64.070312 -107.816406 61.390625 -102.0625 61.015625 -94.96875 Z M 61.015625 -94.96875 "/></g></g></g></svg>