<svg xmlns="http://www.w3.org/2000/svg" xmlns:xlink="http://www.w3.org/1999/xlink" width="1929" zoomAndPan="magnify" viewBox="0 0 1446.75 809.999993" height="1080" preserveAspectRatio="xMidYMid meet" version="1.0"><defs><g/><clipPath id="3486125f67"><path d="M 32.675781 35.679688 L 832.039062 35.679688 L 832.039062 745.058594 L 32.675781 745.058594 Z M 32.675781 35.679688 " clip-rule="nonzero"/></clipPath></defs><g fill="#000000" fill-opacity="1"><g transform="translate(68.023759, 334.807325)"><g><path d="M 76.765625 -255.390625 L 76.765625 0 L 18.578125 0 L 18.578125 -255.390625 Z M 76.765625 -255.390625 "/></g></g></g><g fill="#000000" fill-opacity="1"><g transform="translate(147.889311, 334.807325)"><g><path d="M 18.578125 0 L 18.578125 -158.8125 L 73.359375 -158.8125 L 73.359375 -142.09375 L 73.984375 -142.09375 C 88.222656 -156.332031 103.390625 -163.453125 119.484375 -163.453125 C 127.328125 -163.453125 135.117188 -162.414062 142.859375 -160.34375 C 150.597656 -158.28125 158.023438 -155.082031 165.140625 -150.75 C 172.265625 -146.414062 178.046875 -140.273438 182.484375 -132.328125 C 186.921875 -124.390625 189.140625 -115.15625 189.140625 -104.625 L 189.140625 0 L 134.34375 0 L 134.34375 -89.765625 C 134.34375 -98.023438 131.710938 -105.25 126.453125 -111.4375 C 121.191406 -117.632812 114.332031 -120.734375 105.875 -120.734375 C 97.613281 -120.734375 90.128906 -117.53125 83.421875 -111.125 C 76.710938 -104.726562 73.359375 -97.609375 73.359375 -89.765625 L 73.359375 0 Z M 18.578125 0 "/></g></g></g><g fill="#000000" fill-opacity="1"><g transform="translate(337.028291, 334.807325)"><g><path d="M 87.609375 -163.453125 C 96.691406 -163.453125 105.664062 -162.414062 114.53125 -160.34375 C 123.40625 -158.28125 130.007812 -156.21875 134.34375 -154.15625 L 140.84375 -151.0625 L 122.890625 -115.15625 C 110.515625 -121.757812 98.753906 -125.0625 87.609375 -125.0625 C 81.410156 -125.0625 77.019531 -124.390625 74.4375 -123.046875 C 71.863281 -121.703125 70.578125 -119.175781 70.578125 -115.46875 C 70.578125 -114.644531 70.679688 -113.816406 70.890625 -112.984375 C 71.097656 -112.160156 71.507812 -111.382812 72.125 -110.65625 C 72.75 -109.9375 73.316406 -109.316406 73.828125 -108.796875 C 74.347656 -108.285156 75.222656 -107.722656 76.453125 -107.109375 C 77.691406 -106.492188 78.671875 -106.03125 79.390625 -105.71875 C 80.117188 -105.40625 81.304688 -104.9375 82.953125 -104.3125 C 84.609375 -103.695312 85.847656 -103.234375 86.671875 -102.921875 C 87.503906 -102.617188 88.898438 -102.15625 90.859375 -101.53125 C 92.816406 -100.914062 94.3125 -100.503906 95.34375 -100.296875 C 101.738281 -98.441406 107.3125 -96.378906 112.0625 -94.109375 C 116.8125 -91.835938 121.816406 -88.738281 127.078125 -84.8125 C 132.335938 -80.894531 136.410156 -75.941406 139.296875 -69.953125 C 142.191406 -63.972656 143.640625 -57.164062 143.640625 -49.53125 C 143.640625 -13.414062 118.5625 4.640625 68.40625 4.640625 C 57.0625 4.640625 46.28125 2.890625 36.0625 -0.609375 C 25.84375 -4.117188 18.46875 -7.628906 13.9375 -11.140625 L 7.125 -16.71875 L 29.40625 -54.171875 C 31.0625 -52.722656 33.226562 -51.019531 35.90625 -49.0625 C 38.59375 -47.101562 43.441406 -44.421875 50.453125 -41.015625 C 57.472656 -37.609375 63.5625 -35.90625 68.71875 -35.90625 C 80.070312 -35.90625 85.75 -39.722656 85.75 -47.359375 C 85.75 -50.867188 84.300781 -53.601562 81.40625 -55.5625 C 78.519531 -57.519531 73.617188 -59.738281 66.703125 -62.21875 C 59.796875 -64.695312 54.378906 -66.96875 50.453125 -69.03125 C 40.546875 -74.1875 32.703125 -80.015625 26.921875 -86.515625 C 21.148438 -93.023438 18.265625 -101.644531 18.265625 -112.375 C 18.265625 -128.46875 24.503906 -141.003906 36.984375 -149.984375 C 49.472656 -158.960938 66.347656 -163.453125 87.609375 -163.453125 Z M 87.609375 -163.453125 "/></g></g></g><g fill="#000000" fill-opacity="1"><g transform="translate(473.852234, 334.807325)"><g><path d="M 27.859375 -158.8125 L 27.859375 -217.9375 L 82.65625 -217.9375 L 82.65625 -158.8125 L 116.078125 -158.8125 L 116.078125 -117.015625 L 82.65625 -117.015625 L 82.65625 -66.5625 C 82.65625 -51.90625 86.78125 -44.578125 95.03125 -44.578125 C 97.09375 -44.578125 99.257812 -44.988281 101.53125 -45.8125 C 103.800781 -46.632812 105.554688 -47.460938 106.796875 -48.296875 L 108.65625 -49.53125 L 122.28125 -5.265625 C 110.507812 1.335938 97.09375 4.640625 82.03125 4.640625 C 71.71875 4.640625 62.84375 2.835938 55.40625 -0.765625 C 47.976562 -4.378906 42.351562 -9.226562 38.53125 -15.3125 C 34.71875 -21.40625 31.984375 -27.804688 30.328125 -34.515625 C 28.679688 -41.222656 27.859375 -48.394531 27.859375 -56.03125 L 27.859375 -117.015625 L 4.953125 -117.015625 L 4.953125 -158.8125 Z M 27.859375 -158.8125 "/></g></g></g><g fill="#000000" fill-opacity="1"><g transform="translate(580.649224, 334.807325)"><g><path d="M 29.40625 -19.65625 C 14.550781 -35.851562 7.125 -55.710938 7.125 -79.234375 C 7.125 -102.765625 14.550781 -122.679688 29.40625 -138.984375 C 44.269531 -155.296875 63.15625 -163.453125 86.0625 -163.453125 C 107.113281 -163.453125 124.445312 -156.847656 138.0625 -143.640625 L 138.0625 -158.8125 L 192.859375 -158.8125 L 192.859375 0 L 138.6875 0 L 138.6875 -17.953125 L 138.0625 -17.953125 C 124.445312 -2.890625 107.113281 4.640625 86.0625 4.640625 C 63.15625 4.640625 44.269531 -3.457031 29.40625 -19.65625 Z M 75.984375 -106.171875 C 68.867188 -99.160156 65.3125 -90.1875 65.3125 -79.25 C 65.3125 -68.3125 68.71875 -59.382812 75.53125 -52.46875 C 82.34375 -45.550781 91.320312 -42.09375 102.46875 -42.09375 C 113.195312 -42.09375 122.015625 -45.601562 128.921875 -52.625 C 135.835938 -59.644531 139.296875 -68.519531 139.296875 -79.25 C 139.296875 -90.1875 135.734375 -99.160156 128.609375 -106.171875 C 121.492188 -113.191406 112.78125 -116.703125 102.46875 -116.703125 C 91.9375 -116.703125 83.109375 -113.191406 75.984375 -106.171875 Z M 75.984375 -106.171875 "/></g></g></g><g fill="#000000" fill-opacity="1"><g transform="translate(73.283338, 524.593035)"><g><path d="M 14.078125 0 L 14.078125 -120.34375 L 55.59375 -120.34375 L 55.59375 -102.984375 L 56.0625 -102.984375 C 56.375 -103.609375 56.882812 -104.390625 57.59375 -105.328125 C 58.300781 -106.265625 59.828125 -107.90625 62.171875 -110.25 C 64.515625 -112.601562 67.015625 -114.71875 69.671875 -116.59375 C 72.328125 -118.46875 75.765625 -120.144531 79.984375 -121.625 C 84.210938 -123.113281 88.519531 -123.859375 92.90625 -123.859375 C 97.4375 -123.859375 101.890625 -123.234375 106.265625 -121.984375 C 110.648438 -120.734375 113.859375 -119.484375 115.890625 -118.234375 L 119.171875 -116.359375 L 101.8125 -81.171875 C 96.65625 -85.546875 89.460938 -87.734375 80.234375 -87.734375 C 75.222656 -87.734375 70.921875 -86.640625 67.328125 -84.453125 C 63.734375 -82.265625 61.191406 -79.601562 59.703125 -76.46875 C 58.210938 -73.34375 57.15625 -70.6875 56.53125 -68.5 C 55.90625 -66.3125 55.59375 -64.59375 55.59375 -63.34375 L 55.59375 0 Z M 14.078125 0 "/></g></g></g><g fill="#000000" fill-opacity="1"><g transform="translate(178.382755, 524.593035)"><g><path d="M 135.828125 -54.421875 L 48.5625 -54.421875 C 48.5625 -45.972656 51.296875 -39.71875 56.765625 -35.65625 C 62.242188 -31.59375 68.1875 -29.5625 74.59375 -29.5625 C 81.320312 -29.5625 86.640625 -30.457031 90.546875 -32.25 C 94.460938 -34.050781 98.921875 -37.613281 103.921875 -42.9375 L 133.953125 -27.921875 C 121.441406 -6.960938 100.640625 3.515625 71.546875 3.515625 C 53.410156 3.515625 37.847656 -2.695312 24.859375 -15.125 C 11.878906 -27.5625 5.390625 -42.535156 5.390625 -60.046875 C 5.390625 -77.566406 11.878906 -92.582031 24.859375 -105.09375 C 37.847656 -117.601562 53.410156 -123.859375 71.546875 -123.859375 C 90.628906 -123.859375 106.148438 -118.34375 118.109375 -107.3125 C 130.078125 -96.289062 136.0625 -80.539062 136.0625 -60.0625 C 136.0625 -57.238281 135.984375 -55.359375 135.828125 -54.421875 Z M 49.734375 -77.421875 L 95.484375 -77.421875 C 94.546875 -83.671875 92.082031 -88.476562 88.09375 -91.84375 C 84.101562 -95.207031 78.976562 -96.890625 72.71875 -96.890625 C 65.84375 -96.890625 60.367188 -95.085938 56.296875 -91.484375 C 52.234375 -87.890625 50.046875 -83.203125 49.734375 -77.421875 Z M 49.734375 -77.421875 "/></g></g></g><g fill="#000000" fill-opacity="1"><g transform="translate(308.114848, 524.593035)"><g><path d="M 78.125 -89.84375 C 70.300781 -89.84375 63.570312 -86.945312 57.9375 -81.15625 C 52.3125 -75.375 49.5 -68.421875 49.5 -60.296875 C 49.5 -52.003906 52.3125 -44.960938 57.9375 -39.171875 C 63.570312 -33.390625 70.300781 -30.5 78.125 -30.5 C 81.875 -30.5 85.429688 -30.96875 88.796875 -31.90625 C 92.160156 -32.84375 94.625 -33.78125 96.1875 -34.71875 L 98.296875 -36.125 L 112.375 -7.265625 C 111.28125 -6.484375 109.753906 -5.503906 107.796875 -4.328125 C 105.835938 -3.160156 101.378906 -1.5625 94.421875 0.46875 C 87.460938 2.5 79.992188 3.515625 72.015625 3.515625 C 54.347656 3.515625 38.828125 -2.695312 25.453125 -15.125 C 12.078125 -27.5625 5.390625 -42.460938 5.390625 -59.828125 C 5.390625 -77.335938 12.078125 -92.382812 25.453125 -104.96875 C 38.828125 -117.5625 54.347656 -123.859375 72.015625 -123.859375 C 79.992188 -123.859375 87.34375 -122.921875 94.0625 -121.046875 C 100.789062 -119.171875 105.5625 -117.296875 108.375 -115.421875 L 112.375 -112.609375 L 98.296875 -84.21875 C 93.128906 -87.96875 86.40625 -89.84375 78.125 -89.84375 Z M 78.125 -89.84375 "/></g></g></g><g fill="#000000" fill-opacity="1"><g transform="translate(411.572094, 524.593035)"><g><path d="M 135.828125 -54.421875 L 48.5625 -54.421875 C 48.5625 -45.972656 51.296875 -39.71875 56.765625 -35.65625 C 62.242188 -31.59375 68.1875 -29.5625 74.59375 -29.5625 C 81.320312 -29.5625 86.640625 -30.457031 90.546875 -32.25 C 94.460938 -34.050781 98.921875 -37.613281 103.921875 -42.9375 L 133.953125 -27.921875 C 121.441406 -6.960938 100.640625 3.515625 71.546875 3.515625 C 53.410156 3.515625 37.847656 -2.695312 24.859375 -15.125 C 11.878906 -27.5625 5.390625 -42.535156 5.390625 -60.046875 C 5.390625 -77.566406 11.878906 -92.582031 24.859375 -105.09375 C 37.847656 -117.601562 53.410156 -123.859375 71.546875 -123.859375 C 90.628906 -123.859375 106.148438 -118.34375 118.109375 -107.3125 C 130.078125 -96.289062 136.0625 -80.539062 136.0625 -60.0625 C 136.0625 -57.238281 135.984375 -55.359375 135.828125 -54.421875 Z M 49.734375 -77.421875 L 95.484375 -77.421875 C 94.546875 -83.671875 92.082031 -88.476562 88.09375 -91.84375 C 84.101562 -95.207031 78.976562 -96.890625 72.71875 -96.890625 C 65.84375 -96.890625 60.367188 -95.085938 56.296875 -91.484375 C 52.234375 -87.890625 50.046875 -83.203125 49.734375 -77.421875 Z M 49.734375 -77.421875 "/></g></g></g><g fill="#000000" fill-opacity="1"><g transform="translate(541.304213, 524.593035)"><g><path d="M 137.9375 -105.4375 C 149.195312 -93.164062 154.828125 -78.113281 154.828125 -60.28125 C 154.828125 -42.457031 149.195312 -27.367188 137.9375 -15.015625 C 126.675781 -2.660156 112.367188 3.515625 95.015625 3.515625 C 79.054688 3.515625 65.914062 -1.488281 55.59375 -11.5 L 55.59375 61 L 14.078125 61 L 14.078125 -120.34375 L 55.125 -120.34375 L 55.125 -106.734375 L 55.59375 -106.734375 C 65.914062 -118.148438 79.054688 -123.859375 95.015625 -123.859375 C 112.367188 -123.859375 126.675781 -117.71875 137.9375 -105.4375 Z M 102.640625 -39.875 C 108.035156 -45.195312 110.734375 -52 110.734375 -60.28125 C 110.734375 -68.570312 108.148438 -75.335938 102.984375 -80.578125 C 97.828125 -85.816406 91.023438 -88.4375 82.578125 -88.4375 C 74.441406 -88.4375 67.753906 -85.773438 62.515625 -80.453125 C 57.273438 -75.140625 54.65625 -68.421875 54.65625 -60.296875 C 54.65625 -52.003906 57.351562 -45.195312 62.75 -39.875 C 68.144531 -34.5625 74.753906 -31.90625 82.578125 -31.90625 C 90.554688 -31.90625 97.242188 -34.5625 102.640625 -39.875 Z M 102.640625 -39.875 "/></g></g></g><g fill="#000000" fill-opacity="1"><g transform="translate(689.804041, 524.593035)"><g><path d="M 21.109375 -120.34375 L 21.109375 -165.15625 L 62.640625 -165.15625 L 62.640625 -120.34375 L 87.96875 -120.34375 L 87.96875 -88.671875 L 62.640625 -88.671875 L 62.640625 -50.4375 C 62.640625 -39.332031 65.765625 -33.78125 72.015625 -33.78125 C 73.578125 -33.78125 75.21875 -34.09375 76.9375 -34.71875 C 78.664062 -35.34375 80 -35.96875 80.9375 -36.59375 L 82.34375 -37.53125 L 92.671875 -3.984375 C 83.753906 1.015625 73.585938 3.515625 62.171875 3.515625 C 54.347656 3.515625 47.617188 2.148438 41.984375 -0.578125 C 36.359375 -3.316406 32.097656 -6.992188 29.203125 -11.609375 C 26.304688 -16.222656 24.234375 -21.070312 22.984375 -26.15625 C 21.734375 -31.238281 21.109375 -36.675781 21.109375 -42.46875 L 21.109375 -88.671875 L 3.75 -88.671875 L 3.75 -120.34375 Z M 21.109375 -120.34375 "/></g></g></g><g fill="#000000" fill-opacity="1"><g transform="translate(68.023759, 698.277655)"><g><path d="M 40.71875 -50.078125 C 48.195312 -50.078125 54.550781 -47.460938 59.78125 -42.234375 C 65.007812 -37.003906 67.625 -30.648438 67.625 -23.171875 C 67.625 -15.835938 65.007812 -9.554688 59.78125 -4.328125 C 54.550781 0.898438 48.195312 3.515625 40.71875 3.515625 C 33.382812 3.515625 27.101562 0.898438 21.875 -4.328125 C 16.65625 -9.554688 14.046875 -15.835938 14.046875 -23.171875 C 14.046875 -30.648438 16.65625 -37.003906 21.875 -42.234375 C 27.101562 -47.460938 33.382812 -50.078125 40.71875 -50.078125 Z M 40.71875 -50.078125 "/></g></g></g><g fill="#000000" fill-opacity="1"><g transform="translate(137.983072, 698.277655)"><g><path d="M 66.21875 -123.546875 C 73.082031 -123.546875 79.867188 -122.765625 86.578125 -121.203125 C 93.285156 -119.640625 98.273438 -118.082031 101.546875 -116.53125 L 106.46875 -114.1875 L 92.890625 -87.046875 C 83.535156 -92.035156 74.644531 -94.53125 66.21875 -94.53125 C 61.539062 -94.53125 58.222656 -94.019531 56.265625 -93 C 54.316406 -91.988281 53.34375 -90.082031 53.34375 -87.28125 C 53.34375 -86.65625 53.421875 -86.03125 53.578125 -85.40625 C 53.734375 -84.78125 54.046875 -84.191406 54.515625 -83.640625 C 54.984375 -83.097656 55.410156 -82.628906 55.796875 -82.234375 C 56.191406 -81.847656 56.859375 -81.421875 57.796875 -80.953125 C 58.734375 -80.484375 59.472656 -80.132812 60.015625 -79.90625 C 60.566406 -79.675781 61.460938 -79.328125 62.703125 -78.859375 C 63.953125 -78.390625 64.890625 -78.035156 65.515625 -77.796875 C 66.140625 -77.566406 67.191406 -77.21875 68.671875 -76.75 C 70.148438 -76.28125 71.28125 -75.96875 72.0625 -75.8125 C 76.90625 -74.40625 81.117188 -72.84375 84.703125 -71.125 C 88.285156 -69.414062 92.066406 -67.078125 96.046875 -64.109375 C 100.023438 -61.148438 103.101562 -57.40625 105.28125 -52.875 C 107.46875 -48.351562 108.5625 -43.207031 108.5625 -37.4375 C 108.5625 -10.132812 89.609375 3.515625 51.703125 3.515625 C 43.128906 3.515625 34.976562 2.1875 27.25 -0.46875 C 19.53125 -3.125 13.957031 -5.773438 10.53125 -8.421875 L 5.375 -12.640625 L 22.234375 -40.953125 C 23.472656 -39.859375 25.109375 -38.566406 27.140625 -37.078125 C 29.171875 -35.597656 32.835938 -33.570312 38.140625 -31 C 43.441406 -28.425781 48.039062 -27.140625 51.9375 -27.140625 C 60.519531 -27.140625 64.8125 -30.023438 64.8125 -35.796875 C 64.8125 -38.453125 63.71875 -40.519531 61.53125 -42 C 59.351562 -43.476562 55.648438 -45.15625 50.421875 -47.03125 C 45.191406 -48.90625 41.097656 -50.617188 38.140625 -52.171875 C 30.648438 -56.078125 24.722656 -60.484375 20.359375 -65.390625 C 15.992188 -70.304688 13.8125 -76.820312 13.8125 -84.9375 C 13.8125 -97.101562 18.53125 -106.578125 27.96875 -113.359375 C 37.40625 -120.148438 50.15625 -123.546875 66.21875 -123.546875 Z M 66.21875 -123.546875 "/></g></g></g><g fill="#000000" fill-opacity="1"><g transform="translate(241.401194, 698.277655)"><g><path d="M 135.484375 -54.28125 L 48.4375 -54.28125 C 48.4375 -45.863281 51.164062 -39.625 56.625 -35.5625 C 62.082031 -31.507812 68.007812 -29.484375 74.40625 -29.484375 C 81.113281 -29.484375 86.414062 -30.378906 90.3125 -32.171875 C 94.21875 -33.960938 98.664062 -37.507812 103.65625 -42.8125 L 133.609375 -27.84375 C 121.128906 -6.9375 100.378906 3.515625 71.359375 3.515625 C 53.265625 3.515625 37.742188 -2.679688 24.796875 -15.078125 C 11.847656 -27.484375 5.375 -42.421875 5.375 -59.890625 C 5.375 -77.367188 11.847656 -92.347656 24.796875 -104.828125 C 37.742188 -117.304688 53.265625 -123.546875 71.359375 -123.546875 C 90.390625 -123.546875 105.875 -118.046875 117.8125 -107.046875 C 129.75 -96.046875 135.71875 -80.332031 135.71875 -59.90625 C 135.71875 -57.09375 135.640625 -55.21875 135.484375 -54.28125 Z M 49.609375 -77.21875 L 95.234375 -77.21875 C 94.296875 -83.457031 91.835938 -88.253906 87.859375 -91.609375 C 83.878906 -94.960938 78.769531 -96.640625 72.53125 -96.640625 C 65.664062 -96.640625 60.207031 -94.84375 56.15625 -91.25 C 52.101562 -87.664062 49.921875 -82.988281 49.609375 -77.21875 Z M 49.609375 -77.21875 "/></g></g></g><g clip-path="url(#3486125f67)"><path stroke-linecap="butt" transform="matrix(0.74987, 0, 0, 0.74987, 32.677264, 35.67969)" fill="none" stroke-linejoin="miter" d="M -0.00197794 -0.00000297846 L 1066.104066 -0.00000297846 L 1066.104066 946.236375 L -0.00197794 946.236375 Z M -0.00197794 -0.00000297846 " stroke="#000000" stroke-width="8" stroke-opacity="1" stroke-miterlimit="4"/></g></svg>