
        <svg xmlns="http://www.w3.org/2000/svg" xmlns:xlink="http://www.w3.org/1999/xlink" version="1.1" width="3192" height="3192" viewBox="0 0 3192 3192">
			
			<g transform="scale(9.6) translate(10, 10)">
				<defs id="SvgjsDefs7388"/><g id="SvgjsG7389" featureKey="rootContainer" transform="matrix(6.25,0,0,6.25,0,0)" fill="#000"><path xmlns="http://www.w3.org/2000/svg" d="M50 25c0 8.88-3.62 15.67-10.6 20.11C35.53 47.58 29.93 50 25 50c-8.63 0-14.24-1.37-18.73-8C3.57 38 0 30.2 0 25c0-6.85 1.76-14.06 6.22-18.58S18.04 0 25 0c9.5 0 16.77 5.3 21 13.11 1.88 3.53 4 7.58 4 11.89z"/></g><g id="SvgjsG7390" featureKey="symbolFeature-0" transform="matrix(0.8054142032968511,0,0,0.8054142032968511,116.58375739010944,95.28913234335118)" fill="#ffffff"><g xmlns="http://www.w3.org/2000/svg"><path d="M93.865,82.979c2.826-6.234,3.424-11.953,1.752-17.051c-2.826-8.615-11.077-12.336-12.113-12.773   c-4.199-2.698-17.638-6.618-18.21-6.784c-18.792-5.489-24.901-9.849-26.556-11.322c0.004-0.082,0.005-0.143,0.005-0.159   l-0.001-0.425L8.762,5.849L8.275,5.924c-4.313,0.666-5.143,4.869-5.176,5.047L3,11.502l30.824,29.59l0.209-0.083   c1.957,2.094,6.545,8.3,12.958,25.075c0.212,0.559,5.206,13.638,8.235,17.605c0.52,0.997,4.894,8.921,13.71,11.041   c1.424,0.343,2.88,0.514,4.366,0.514c4.117,0,8.469-1.318,13.01-3.929c0.17,0.12,0.413,0.229,0.747,0.229   c1.359,0,3.533-2.171,4.404-3.104c2.551-2.728,3.361-4.563,2.406-5.458C93.869,82.981,93.867,82.98,93.865,82.979z M69.423,92.791   c-8.302-1.986-12.414-10.007-12.454-10.087l-0.106-0.168c-2.838-3.636-7.95-17.028-8.002-17.165   c-3.674-9.611-6.788-15.861-9.206-19.905c3.031,4.027,7.237,10.229,12.365,19.336c0.323,0.643,7.99,15.788,15.233,21.103   c0.147,0.111,3.665,2.748,8.275,4.35c2.163,0.75,4.197,1.132,6.092,1.171C77.293,93.234,73.212,93.696,69.423,92.791z    M86.439,88.474c-7.583,3.549-17.864-4.077-17.991-4.174c-6.867-5.038-14.564-20.243-14.664-20.438   c-4.377-7.775-8.074-13.449-10.969-17.491c4.835,5.129,11.012,12.276,15.931,19.947c0.287,0.464,7.13,11.421,15.855,15.926   c0.333,0.194,6.967,4.035,12.399,5.391C86.783,87.93,86.599,88.209,86.439,88.474z M75.564,80.492   c-8.273-4.273-15.05-15.117-15.126-15.24c-4.399-6.859-9.775-13.293-14.345-18.285c5.357,4.164,12.238,9.032,19.471,12.883   c0.114,0.058,11.47,5.935,16.425,13.878c0.055,0.078,4.894,7.062,6.356,12.16C83.141,84.877,75.688,80.563,75.564,80.492z    M90.89,83.642c-0.316,0.238-0.629,0.493-0.922,0.756c-1.811-5.28-6.114-11.493-6.31-11.771   c-5.224-8.375-16.696-14.309-17.168-14.55c-8.059-4.291-15.691-9.877-21.197-14.285c4.271,2.563,10.241,5.798,18.375,9.546   c0.159,0.064,15.934,6.504,21.523,12.958C85.288,66.404,93.572,75.837,90.89,83.642z M91.688,72.86   c-1.968-4.466-4.881-7.758-4.994-7.885c-5.892-6.803-21.607-13.222-22.23-13.473c-9.506-4.381-16.035-8.074-20.3-10.771   c4.227,2.082,10.706,4.678,20.571,7.56c0.139,0.04,13.899,4.053,17.752,6.587l0.177,0.093c0.084,0.034,8.388,3.452,11.054,11.581   c1.215,3.703,1.088,7.812-0.367,12.277C93.156,76.946,92.609,74.951,91.688,72.86z"/></g></g><g id="SvgjsG7391" featureKey="nameFeature-0" transform="matrix(0.7512023811611613,0,0,0.7512023811611613,53.006909386098144,183.1675225956188)" fill="#ffffff"><path d="M3.9844 40 l0 -27.852 l4.668 0 l0 27.852 l-4.668 0 z M36.347117187500004 12.148 l4.668 0 l0 27.852 l-5.2344 0 l-13.672 -21.25 l0 21.25 l-4.6289 0 l0 -27.852 l5.1758 0 l13.691 21.113 l0 -21.113 z M58.787421875 40.37109 c-5.8984 0 -10.313 -2.8125 -11.211 -7.7344 l4.8047 -1.1133 c0.50781 3.2031 3.1445 4.9609 6.582 4.9609 c2.7148 0 5.1758 -1.1523 5.1367 -4.082 c-0.039063 -3.0469 -3.418 -3.9258 -7.0703 -4.9609 c-4.2188 -1.2305 -8.5547 -2.6367 -8.5547 -7.7539 c0 -5.1953 4.2578 -7.9297 9.5508 -7.9297 c4.8828 0 9.5117 2.0508 10.586 7.0508 l-4.5117 1.1328 c-0.625 -2.9688 -2.9297 -4.2773 -5.8398 -4.2773 c-2.5977 0 -5.0586 1.1133 -5.0586 3.9453 c0 2.5781 2.9492 3.3789 6.3281 4.3164 c4.3555 1.2109 9.3945 2.6953 9.3945 8.2813 c0 5.7617 -4.8242 8.1641 -10.137 8.1641 z M91.1489453125 12.148 l0 4.1602 l-6.875 0 l0 23.691 l-4.6484 0 l0 -23.691 l-6.8945 0 l0 -4.1602 l18.418 0 z M115.21131249999999 40 l-2.207 -6.1914 l-12.168 0 l-2.1875 6.1914 l-4.8242 0 l10.254 -27.852 l5.6836 0 l10.254 27.852 l-4.8047 0 z M102.2617125 29.805 l9.3359 0 l-4.668 -13.164 z M140.6594609375 40 l-7.2266 -12.422 l-3.0078 0 l0 12.422 l-4.668 0 l0 -27.852 l9.668 0 c6.0352 0 8.6914 3.6133 8.6914 8.0859 c0 3.8867 -2.3047 6.5039 -5.9961 7.168 l8.0273 12.598 l-5.4883 0 z M130.4247609375 16.094 l0 8.0273 l4.3164 0 c3.418 0 4.8828 -1.6016 4.8828 -3.9844 c0 -2.3633 -1.4648 -4.043 -4.8828 -4.043 l-4.3164 0 z M167.689203125 16.309 l-10.82 0 l0 7.7148 l9.5703 0 l0 4.1211 l-9.5703 0 l0 7.6758 l10.82 0 l0 4.1797 l-15.547 0 l0 -27.852 l15.547 0 l0 4.1602 z M187.0436640625 40.37109 c-8.0078 0 -14.063 -5.4688 -14.063 -14.316 c0 -8.8086 6.0547 -14.297 14.063 -14.297 c5.8594 0 10.664 2.9688 12.754 7.9492 l-4.3555 1.6602 c-1.4453 -3.3398 -4.6094 -5.2539 -8.3984 -5.2539 c-5.2734 0 -9.3945 3.6719 -9.3945 9.9414 c0 6.3086 4.1211 9.9609 9.3945 9.9609 c3.7891 0 6.9531 -1.8945 8.3984 -5.2344 l4.3555 1.6602 c-2.0898 4.9805 -6.8945 7.9297 -12.754 7.9297 z M221.5935 16.309 l-10.82 0 l0 7.7148 l9.5703 0 l0 4.1211 l-9.5703 0 l0 7.6758 l10.82 0 l0 4.1797 l-15.547 0 l0 -27.852 l15.547 0 l0 4.1602 z M239.8939609375 12.148 c5.2344 0 8.5742 3.9258 8.5742 8.7695 c0 4.9219 -3.3398 8.6914 -8.5742 8.6914 l-6.4063 0 l0 10.391 l-4.668 0 l0 -27.852 l11.074 0 z M239.1509609375 25.625 c3.125 0 4.7656 -1.9141 4.7656 -4.7656 c0 -2.7539 -1.6406 -4.7656 -4.7656 -4.7656 l-5.6641 0 l0 9.5313 l5.6641 0 z M270.224140625 12.148 l0 4.1602 l-6.875 0 l0 23.691 l-4.6484 0 l0 -23.691 l-6.8945 0 l0 -4.1602 l18.418 0 z"/></g>
			</g>
		</svg>
	