<svg xmlns="http://www.w3.org/2000/svg" xmlns:xlink="http://www.w3.org/1999/xlink" width="500" zoomAndPan="magnify" viewBox="0 0 375 374.999991" height="500" preserveAspectRatio="xMidYMid meet" version="1.0"><defs><g/><clipPath id="33beea6685"><path d="M 77.074219 157.546875 L 287 157.546875 L 287 197 L 77.074219 197 Z M 77.074219 157.546875 " clip-rule="nonzero"/></clipPath><clipPath id="408aa8de85"><path d="M 256 176 L 306 176 L 306 219.796875 L 256 219.796875 Z M 256 176 " clip-rule="nonzero"/></clipPath></defs><g clip-path="url(#33beea6685)"><path fill="#cbdfbd" d="M 268.429688 157.546875 L 94.6875 157.546875 C 85.007812 157.546875 77.085938 166.417969 77.085938 177.257812 C 77.085938 188.097656 85.007812 196.96875 94.6875 196.96875 L 268.429688 196.96875 C 278.113281 196.96875 286.03125 188.097656 286.03125 177.257812 C 286.03125 166.417969 278.113281 157.546875 268.429688 157.546875 " fill-opacity="1" fill-rule="nonzero"/></g><path fill="#191919" d="M 277.199219 169.433594 C 276.964844 169.136719 276.589844 168.976562 276.214844 169.023438 C 276.019531 169.046875 275.835938 169.125 275.683594 169.246094 L 269.207031 174.347656 C 268.742188 174.714844 268.660156 175.394531 269.023438 175.867188 C 269.253906 176.164062 269.632812 176.320312 270.007812 176.273438 C 270.199219 176.25 270.382812 176.175781 270.539062 176.054688 L 277.011719 170.953125 C 277.476562 170.585938 277.5625 169.90625 277.199219 169.433594 " fill-opacity="1" fill-rule="nonzero"/><path fill="#191919" d="M 255.820312 172.507812 L 250.753906 165.957031 C 250.519531 165.660156 250.144531 165.503906 249.769531 165.550781 C 249.574219 165.574219 249.390625 165.648438 249.238281 165.769531 C 248.773438 166.136719 248.6875 166.816406 249.054688 167.289062 L 254.121094 173.839844 C 254.355469 174.136719 254.730469 174.292969 255.105469 174.246094 C 255.300781 174.222656 255.484375 174.148438 255.636719 174.027344 C 256.101562 173.660156 256.183594 172.980469 255.820312 172.507812 " fill-opacity="1" fill-rule="nonzero"/><path fill="#191919" d="M 265.066406 161.792969 C 264.980469 161.78125 264.890625 161.78125 264.804688 161.792969 C 264.3125 161.851562 263.925781 162.238281 263.867188 162.734375 L 262.871094 170.972656 C 262.800781 171.566406 263.222656 172.105469 263.808594 172.179688 C 263.898438 172.191406 263.984375 172.191406 264.070312 172.179688 C 264.566406 172.121094 264.949219 171.730469 265.007812 171.238281 L 266.003906 163 C 266.074219 162.40625 265.65625 161.867188 265.066406 161.792969 " fill-opacity="1" fill-rule="nonzero"/><path fill="#191919" d="M 255.847656 186.902344 C 255.617188 186.601562 255.238281 186.445312 254.863281 186.492188 C 254.667969 186.515625 254.484375 186.59375 254.332031 186.714844 L 247.855469 191.816406 C 247.390625 192.183594 247.308594 192.863281 247.671875 193.332031 C 247.90625 193.632812 248.28125 193.789062 248.65625 193.742188 C 248.851562 193.71875 249.03125 193.640625 249.1875 193.519531 L 255.664062 188.417969 C 256.128906 188.050781 256.210938 187.371094 255.847656 186.902344 " fill-opacity="1" fill-rule="nonzero"/><path fill="#191919" d="M 251.199219 179.761719 L 243.039062 178.738281 C 242.949219 178.726562 242.859375 178.726562 242.773438 178.738281 C 242.28125 178.796875 241.898438 179.1875 241.835938 179.679688 C 241.765625 180.273438 242.183594 180.8125 242.773438 180.886719 L 250.9375 181.910156 C 251.023438 181.921875 251.113281 181.921875 251.199219 181.910156 C 251.203125 181.910156 251.199219 181.910156 251.203125 181.910156 C 251.695312 181.851562 252.078125 181.464844 252.136719 180.96875 C 252.210938 180.378906 251.789062 179.835938 251.199219 179.761719 " fill-opacity="1" fill-rule="nonzero"/><g clip-path="url(#408aa8de85)"><path fill="#1e1e1e" d="M 299.476562 215.734375 C 295.757812 218.558594 291.539062 219.878906 288.195312 219.269531 C 283.164062 218.355469 277.464844 215.960938 272.4375 213.851562 C 271.324219 213.382812 270.238281 212.929688 269.191406 212.5 C 268.976562 212.414062 268.695312 212.308594 268.371094 212.1875 C 264.988281 210.917969 261.320312 209.347656 260.5625 206.71875 C 260.339844 205.941406 260.285156 204.734375 261.292969 203.410156 C 261.476562 203.171875 261.691406 202.957031 261.9375 202.769531 C 264.199219 201.050781 268.382812 202.027344 272.835938 203.273438 C 272.871094 203.28125 272.902344 203.289062 272.933594 203.300781 C 271.421875 201.335938 269.851562 199.367188 268.324219 197.449219 C 264.609375 192.792969 260.769531 187.976562 257.496094 182.941406 C 256.425781 181.292969 256.957031 178.890625 258.679688 177.582031 C 260.195312 176.429688 262.1875 176.46875 263.882812 177.683594 L 264.0625 177.8125 L 271.972656 188.234375 C 271.996094 187.214844 272.425781 186.3125 273.222656 185.707031 C 273.582031 185.4375 274.007812 185.230469 274.488281 185.097656 C 276.328125 184.59375 277.941406 185.9375 278.550781 186.539062 C 278.925781 186.910156 279.289062 187.3125 279.640625 187.722656 C 279.34375 185.742188 280.253906 184.765625 280.738281 184.394531 C 282.199219 183.289062 284.402344 183.765625 286.351562 185.609375 C 286.660156 185.902344 286.964844 186.207031 287.257812 186.519531 C 286.945312 185.371094 287.046875 184.179688 288.21875 183.289062 C 288.328125 183.207031 288.445312 183.128906 288.566406 183.058594 C 290.40625 182.011719 292.726562 182.535156 294.207031 184.328125 C 294.863281 185.125 296.300781 186.816406 296.300781 186.816406 C 296.550781 187.117188 302.207031 193.929688 304.082031 197.367188 C 305.65625 200.246094 306.882812 204.609375 304.847656 209.316406 C 303.867188 211.582031 301.949219 213.855469 299.476562 215.734375 " fill-opacity="1" fill-rule="nonzero"/></g><path fill="#ffffff" d="M 289.894531 217.5625 C 289.417969 217.5625 288.960938 217.523438 288.527344 217.445312 C 283.695312 216.566406 278.09375 214.214844 273.152344 212.140625 C 272.019531 211.664062 270.945312 211.210938 269.890625 210.78125 C 269.664062 210.6875 269.363281 210.578125 269.023438 210.449219 C 267.039062 209.703125 262.90625 208.15625 262.347656 206.207031 C 262.191406 205.660156 262.328125 205.113281 262.769531 204.535156 C 263.1875 203.984375 264.046875 203.707031 265.324219 203.707031 C 267.492188 203.707031 270.40625 204.519531 272.335938 205.058594 C 273 205.246094 273.570312 205.40625 273.988281 205.5 C 274.082031 205.519531 274.171875 205.53125 274.265625 205.53125 C 274.742188 205.53125 275.164062 205.253906 275.394531 204.789062 C 275.636719 204.300781 275.59375 203.726562 275.292969 203.328125 C 273.5 200.96875 271.609375 198.59375 269.773438 196.292969 C 266.089844 191.671875 262.277344 186.890625 259.054688 181.929688 C 258.695312 181.378906 258.707031 180.597656 259.085938 179.894531 C 259.429688 179.269531 260.148438 178.597656 261.148438 178.597656 C 261.679688 178.597656 262.21875 178.785156 262.753906 179.160156 L 273.679688 193.558594 C 273.949219 193.902344 274.316406 194.089844 274.71875 194.089844 C 275.238281 194.089844 275.746094 193.773438 275.988281 193.296875 C 276.21875 192.847656 276.171875 192.34375 275.859375 191.914062 L 274.542969 190.179688 C 274.328125 189.871094 274.144531 189.59375 274.035156 189.324219 C 273.777344 188.667969 273.757812 188.066406 273.976562 187.625 C 274.15625 187.269531 274.492188 187.023438 274.980469 186.886719 C 275.082031 186.859375 275.191406 186.84375 275.304688 186.84375 C 276.152344 186.84375 277.003906 187.621094 277.242188 187.859375 C 277.914062 188.523438 278.570312 189.328125 279.210938 190.109375 C 279.6875 190.691406 280.179688 191.292969 280.664062 191.828125 C 280.945312 192.128906 281.316406 192.296875 281.703125 192.296875 C 282.234375 192.296875 282.742188 191.988281 282.976562 191.523438 C 283.199219 191.085938 283.140625 190.585938 282.820312 190.152344 C 282.734375 190.035156 282.640625 189.917969 282.550781 189.804688 C 282.277344 189.460938 282 189.105469 281.855469 188.746094 C 281.378906 187.578125 281.308594 186.609375 281.660156 186.089844 C 281.847656 185.8125 282.148438 185.671875 282.550781 185.671875 C 283.292969 185.671875 284.210938 186.140625 285.074219 186.957031 C 285.773438 187.617188 286.449219 188.382812 287.101562 189.121094 C 287.539062 189.613281 287.992188 190.121094 288.445312 190.597656 C 288.734375 190.902344 289.109375 191.066406 289.496094 191.066406 C 290 191.066406 290.457031 190.800781 290.695312 190.371094 C 290.9375 189.9375 290.90625 189.417969 290.613281 188.945312 C 290.523438 188.800781 290.417969 188.640625 290.308594 188.472656 C 289.703125 187.546875 288.792969 186.148438 289.003906 185.269531 C 289.0625 185.019531 289.222656 184.824219 289.488281 184.671875 C 289.835938 184.472656 290.203125 184.375 290.585938 184.375 C 291.367188 184.375 292.1875 184.800781 292.773438 185.511719 C 293.429688 186.304688 294.871094 188 294.886719 188.019531 C 294.941406 188.085938 300.664062 194.976562 302.457031 198.257812 C 303.84375 200.804688 304.757812 204.851562 303.144531 208.574219 C 302.203125 210.742188 300.21875 212.988281 297.699219 214.738281 C 295.113281 216.535156 292.265625 217.5625 289.894531 217.5625 " fill-opacity="1" fill-rule="nonzero"/><g fill="#000000" fill-opacity="1"><g transform="translate(151.346447, 183.9439)"><g><path d="M 1.1875 0 L 1.1875 -11.765625 C 2.8125 -11.867188 4.335938 -11.921875 5.765625 -11.921875 C 7.640625 -11.921875 8.941406 -11.488281 9.671875 -10.625 C 10.410156 -9.757812 10.78125 -8.175781 10.78125 -5.875 C 10.78125 -3.582031 10.410156 -2.003906 9.671875 -1.140625 C 8.941406 -0.273438 7.640625 0.15625 5.765625 0.15625 C 4.335938 0.15625 2.8125 0.101562 1.1875 0 Z M 3.78125 -9.875 L 3.78125 -1.90625 C 3.976562 -1.90625 4.296875 -1.898438 4.734375 -1.890625 C 5.171875 -1.890625 5.515625 -1.890625 5.765625 -1.890625 C 6.640625 -1.890625 7.238281 -2.164062 7.5625 -2.71875 C 7.882812 -3.28125 8.046875 -4.332031 8.046875 -5.875 C 8.046875 -7.425781 7.882812 -8.484375 7.5625 -9.046875 C 7.238281 -9.609375 6.640625 -9.890625 5.765625 -9.890625 Z M 3.78125 -9.875 "/></g></g></g><g fill="#000000" fill-opacity="1"><g transform="translate(164.16547, 183.9439)"><g><path d="M 3.84375 -15.125 L 4.671875 -15.125 C 5.035156 -15.125 5.21875 -14.929688 5.21875 -14.546875 L 5.21875 -13.578125 C 5.21875 -13.203125 5.035156 -13.015625 4.671875 -13.015625 L 3.84375 -13.015625 C 3.476562 -13.015625 3.296875 -13.203125 3.296875 -13.578125 L 3.296875 -14.546875 C 3.296875 -14.929688 3.476562 -15.125 3.84375 -15.125 Z M 6.9375 -15.125 L 7.78125 -15.125 C 8.15625 -15.125 8.34375 -14.929688 8.34375 -14.546875 L 8.34375 -13.578125 C 8.34375 -13.203125 8.15625 -13.015625 7.78125 -13.015625 L 6.9375 -13.015625 C 6.5625 -13.015625 6.375 -13.203125 6.375 -13.578125 L 6.375 -14.546875 C 6.375 -14.929688 6.5625 -15.125 6.9375 -15.125 Z M 1.890625 -10.6875 C 2.628906 -11.5625 3.941406 -12 5.828125 -12 C 7.722656 -12 9.039062 -11.5625 9.78125 -10.6875 C 10.519531 -9.820312 10.890625 -8.222656 10.890625 -5.890625 C 10.890625 -3.554688 10.519531 -1.953125 9.78125 -1.078125 C 9.039062 -0.210938 7.722656 0.21875 5.828125 0.21875 C 3.941406 0.21875 2.628906 -0.210938 1.890625 -1.078125 C 1.160156 -1.953125 0.796875 -3.554688 0.796875 -5.890625 C 0.796875 -8.222656 1.160156 -9.820312 1.890625 -10.6875 Z M 7.65625 -9.046875 C 7.332031 -9.609375 6.722656 -9.890625 5.828125 -9.890625 C 4.941406 -9.890625 4.335938 -9.609375 4.015625 -9.046875 C 3.691406 -8.492188 3.53125 -7.4375 3.53125 -5.875 C 3.53125 -4.320312 3.691406 -3.265625 4.015625 -2.703125 C 4.335938 -2.148438 4.941406 -1.875 5.828125 -1.875 C 6.722656 -1.875 7.332031 -2.148438 7.65625 -2.703125 C 7.976562 -3.265625 8.140625 -4.320312 8.140625 -5.875 C 8.140625 -7.4375 7.976562 -8.492188 7.65625 -9.046875 Z M 7.65625 -9.046875 "/></g></g></g><g fill="#000000" fill-opacity="1"><g transform="translate(177.052772, 183.9439)"><g><path d="M 3.75 -11.765625 L 3.75 -2.984375 C 3.75 -2.679688 3.820312 -2.457031 3.96875 -2.3125 C 4.113281 -2.175781 4.347656 -2.109375 4.671875 -2.109375 L 8.71875 -2.109375 L 8.84375 -0.140625 C 7.6875 -0.015625 6.023438 0.046875 3.859375 0.046875 C 2.941406 0.046875 2.257812 -0.175781 1.8125 -0.625 C 1.375 -1.082031 1.15625 -1.691406 1.15625 -2.453125 L 1.15625 -11.765625 Z M 3.75 -11.765625 "/></g></g></g><g fill="#000000" fill-opacity="1"><g transform="translate(187.345543, 183.9439)"><g><path d="M 5.15625 -11.765625 L 5.15625 -2.46875 C 5.15625 -1.613281 4.921875 -0.953125 4.453125 -0.484375 C 3.984375 -0.0234375 3.328125 0.203125 2.484375 0.203125 C 1.546875 0.203125 0.832031 0.0859375 0.34375 -0.140625 L 0.625 -1.875 L 1.4375 -1.875 C 2.1875 -1.875 2.5625 -2.175781 2.5625 -2.78125 L 2.5625 -11.765625 Z M 5.15625 -11.765625 "/></g></g></g></svg>