<svg xmlns="http://www.w3.org/2000/svg" xmlns:xlink="http://www.w3.org/1999/xlink" width="500" zoomAndPan="magnify" viewBox="0 0 375 374.999991" height="500" preserveAspectRatio="xMidYMid meet" version="1.0"><defs><g/></defs><path fill="#000000" d="M 187.5 0 C 84.050781 0 0 84.050781 0 187.5 C 0 290.949219 84.050781 375 187.5 375 C 290.949219 375 375 290.949219 375 187.5 C 375 84.050781 290.949219 0 187.5 0 Z M 187.5 8.152344 C 286.65625 8.152344 366.847656 88.34375 366.847656 187.5 C 366.847656 286.65625 286.65625 366.847656 187.5 366.847656 C 88.34375 366.847656 8.152344 286.65625 8.152344 187.5 C 8.152344 88.34375 88.34375 8.152344 187.5 8.152344 Z M 187.5 8.152344 " fill-opacity="1" fill-rule="nonzero"/><g fill="#000000" fill-opacity="1"><g transform="translate(40.569391, 206.968006)"><g><path d="M 53.546875 0 L 50.734375 -35.296875 L 50.375 -35.296875 L 38.171875 -0.359375 L 30.09375 -0.359375 L 17.90625 -35.296875 L 17.53125 -35.296875 L 14.71875 0 L 1.15625 0 L 6.5 -59.546875 L 20.9375 -59.546875 L 34.140625 -25.1875 L 47.34375 -59.546875 L 61.78125 -59.546875 L 67.125 0 Z M 53.546875 0 "/></g></g></g><g fill="#000000" fill-opacity="1"><g transform="translate(108.845253, 206.968006)"><g><path d="M 17.90625 -59.546875 L 17.90625 0 L 4.328125 0 L 4.328125 -59.546875 Z M 17.90625 -59.546875 "/></g></g></g><g fill="#000000" fill-opacity="1"><g transform="translate(131.074605, 206.968006)"><g><path d="M 17.90625 -36.953125 L 17.90625 0 L 4.328125 0 L 4.328125 -59.546875 L 17.90625 -59.546875 L 41.578125 -22.59375 L 41.71875 -22.59375 L 41.71875 -59.546875 L 55.28125 -59.546875 L 55.28125 0 L 41.71875 0 L 18.046875 -36.953125 Z M 17.90625 -36.953125 "/></g></g></g><g fill="#000000" fill-opacity="1"><g transform="translate(190.68968, 206.968006)"><g><path d="M 4.328125 -59.546875 L 21.578125 -59.546875 C 29.859375 -59.546875 36.929688 -56.71875 42.796875 -51.0625 C 48.671875 -45.40625 51.609375 -38.320312 51.609375 -29.8125 C 51.609375 -21.238281 48.679688 -14.125 42.828125 -8.46875 C 36.984375 -2.820312 29.898438 0 21.578125 0 L 4.328125 0 Z M 17.90625 -12.125 L 19.984375 -12.125 C 24.941406 -12.125 28.992188 -13.796875 32.140625 -17.140625 C 35.296875 -20.484375 36.898438 -24.679688 36.953125 -29.734375 C 36.953125 -34.785156 35.375 -38.992188 32.21875 -42.359375 C 29.070312 -45.734375 24.992188 -47.421875 19.984375 -47.421875 L 17.90625 -47.421875 Z M 17.90625 -12.125 "/></g></g></g><g fill="#000000" fill-opacity="1"><g transform="translate(243.953517, 206.968006)"><g><path d="M 4.328125 -59.546875 L 25.625 -59.546875 C 31.34375 -59.546875 36.003906 -58.015625 39.609375 -54.953125 C 43.222656 -51.898438 45.03125 -47.535156 45.03125 -41.859375 C 45.03125 -37.484375 43.9375 -33.816406 41.75 -30.859375 C 39.5625 -27.898438 36.59375 -25.816406 32.84375 -24.609375 L 53.328125 0 L 36.09375 0 L 17.90625 -23.53125 L 17.90625 0 L 4.328125 0 Z M 17.90625 -33.125 L 19.484375 -33.125 C 20.734375 -33.125 21.789062 -33.144531 22.65625 -33.1875 C 23.53125 -33.238281 24.519531 -33.410156 25.625 -33.703125 C 26.726562 -33.992188 27.613281 -34.398438 28.28125 -34.921875 C 28.957031 -35.453125 29.535156 -36.222656 30.015625 -37.234375 C 30.503906 -38.242188 30.75 -39.472656 30.75 -40.921875 C 30.75 -42.367188 30.503906 -43.597656 30.015625 -44.609375 C 29.535156 -45.617188 28.957031 -46.382812 28.28125 -46.90625 C 27.613281 -47.4375 26.726562 -47.847656 25.625 -48.140625 C 24.519531 -48.429688 23.53125 -48.597656 22.65625 -48.640625 C 21.789062 -48.691406 20.734375 -48.71875 19.484375 -48.71875 L 17.90625 -48.71875 Z M 17.90625 -33.125 "/></g></g></g><g fill="#000000" fill-opacity="1"><g transform="translate(295.629547, 206.968006)"><g><path d="M 38.390625 -59.546875 L 38.390625 -47.640625 L 17.90625 -47.640625 L 17.90625 -35.796875 L 37.53125 -35.796875 L 37.53125 -23.890625 L 17.90625 -23.890625 L 17.90625 -11.90625 L 38.390625 -11.90625 L 38.390625 0 L 4.328125 0 L 4.328125 -59.546875 Z M 38.390625 -59.546875 "/></g></g></g></svg>