<svg xmlns="http://www.w3.org/2000/svg" xmlns:xlink="http://www.w3.org/1999/xlink" width="500" zoomAndPan="magnify" viewBox="0 0 375 374.999991" height="500" preserveAspectRatio="xMidYMid meet" version="1.0"><defs><clipPath id="dacbdff207"><path d="M 11.335938 11.335938 L 363.835938 11.335938 L 363.835938 363.835938 L 11.335938 363.835938 Z M 11.335938 11.335938 " clip-rule="nonzero"/></clipPath></defs><g clip-path="url(#dacbdff207)"><path fill="#000000" d="M 242.285156 138.964844 C 238.929688 138.964844 236.207031 136.242188 236.207031 132.890625 C 236.207031 132.890625 236.207031 29.714844 236.207031 29.714844 C 236.207031 19.644531 228.046875 11.484375 217.976562 11.484375 L 157.199219 11.484375 C 147.128906 11.484375 138.964844 19.644531 138.964844 29.714844 L 138.964844 132.890625 C 138.964844 136.242188 136.242188 138.964844 132.890625 138.964844 C 132.890625 138.964844 29.714844 138.964844 29.714844 138.964844 C 19.644531 138.964844 11.484375 147.128906 11.484375 157.199219 L 11.484375 217.976562 C 11.484375 228.046875 19.644531 236.207031 29.714844 236.207031 L 132.890625 236.207031 C 136.242188 236.207031 138.964844 238.929688 138.964844 242.285156 C 138.964844 242.285156 138.964844 345.457031 138.964844 345.457031 C 138.964844 355.527344 147.128906 363.691406 157.199219 363.691406 L 217.976562 363.691406 C 228.046875 363.691406 236.207031 355.527344 236.207031 345.457031 L 236.207031 242.285156 C 236.207031 238.929688 238.929688 236.207031 242.285156 236.207031 C 242.285156 236.207031 345.457031 236.207031 345.457031 236.207031 C 355.527344 236.207031 363.691406 228.046875 363.691406 217.976562 L 363.691406 157.199219 C 363.691406 147.128906 355.527344 138.964844 345.457031 138.964844 Z M 242.285156 138.964844 " fill-opacity="1" fill-rule="evenodd"/></g></svg>