<svg xmlns="http://www.w3.org/2000/svg" xmlns:xlink="http://www.w3.org/1999/xlink" width="1929" zoomAndPan="magnify" viewBox="0 0 1446.75 809.999993" height="1080" preserveAspectRatio="xMidYMid meet" version="1.0"><defs><g/></defs><g fill="#000000" fill-opacity="1"><g transform="translate(48.081411, 345.444872)"><g><path d="M 57.296875 -190.59375 L 57.296875 0 L 13.859375 0 L 13.859375 -190.59375 Z M 57.296875 -190.59375 "/></g></g></g><g fill="#000000" fill-opacity="1"><g transform="translate(107.688195, 345.444872)"><g><path d="M 13.859375 0 L 13.859375 -118.515625 L 54.75 -118.515625 L 54.75 -106.046875 L 55.21875 -106.046875 C 65.84375 -116.671875 77.160156 -121.984375 89.171875 -121.984375 C 95.023438 -121.984375 100.835938 -121.210938 106.609375 -119.671875 C 112.390625 -118.128906 117.9375 -115.738281 123.25 -112.5 C 128.5625 -109.269531 132.875 -104.691406 136.1875 -98.765625 C 139.5 -92.835938 141.15625 -85.945312 141.15625 -78.09375 L 141.15625 0 L 100.265625 0 L 100.265625 -67 C 100.265625 -73.15625 98.300781 -78.546875 94.375 -83.171875 C 90.445312 -87.796875 85.328125 -90.109375 79.015625 -90.109375 C 72.847656 -90.109375 67.257812 -87.71875 62.25 -82.9375 C 57.25 -78.164062 54.75 -72.851562 54.75 -67 L 54.75 0 Z M 13.859375 0 "/></g></g></g><g fill="#000000" fill-opacity="1"><g transform="translate(248.850011, 345.444872)"><g><path d="M 8.546875 29.109375 L 42.046875 12.703125 C 48.203125 22.867188 58.90625 27.953125 74.15625 27.953125 C 81.238281 27.953125 87.820312 25.679688 93.90625 21.140625 C 100 16.597656 103.046875 9.628906 103.046875 0.234375 L 103.046875 -8.546875 C 95.804688 -0.535156 82.867188 3.46875 64.234375 3.46875 C 47.128906 3.46875 33.03125 -2.578125 21.9375 -14.671875 C 10.851562 -26.765625 5.3125 -41.585938 5.3125 -59.140625 C 5.3125 -76.703125 10.851562 -91.566406 21.9375 -103.734375 C 33.03125 -115.898438 47.128906 -121.984375 64.234375 -121.984375 C 79.472656 -121.984375 92.175781 -117.285156 102.34375 -107.890625 L 103.046875 -107.890625 L 103.046875 -118.515625 L 143.9375 -118.515625 L 143.9375 3.234375 C 143.9375 22.484375 137.539062 37.34375 124.75 47.8125 C 111.96875 58.289062 95.101562 63.53125 74.15625 63.53125 C 40.269531 63.53125 18.398438 52.054688 8.546875 29.109375 Z M 56.71875 -79.234375 C 51.40625 -74.003906 48.75 -67.304688 48.75 -59.140625 C 48.75 -50.984375 51.289062 -44.320312 56.375 -39.15625 C 61.457031 -34 68.15625 -31.421875 76.46875 -31.421875 C 84.476562 -31.421875 91.0625 -34.035156 96.21875 -39.265625 C 101.382812 -44.503906 103.96875 -51.128906 103.96875 -59.140625 C 103.96875 -67.304688 101.304688 -74.003906 95.984375 -79.234375 C 90.671875 -84.472656 84.164062 -87.09375 76.46875 -87.09375 C 68.613281 -87.09375 62.03125 -84.472656 56.71875 -79.234375 Z M 56.71875 -79.234375 "/></g></g></g><g fill="#000000" fill-opacity="1"><g transform="translate(395.094574, 345.444872)"><g><path d="M 13.859375 0 L 13.859375 -118.515625 L 54.75 -118.515625 L 54.75 -101.421875 L 55.21875 -101.421875 C 55.519531 -102.035156 56.015625 -102.804688 56.703125 -103.734375 C 57.398438 -104.660156 58.90625 -106.273438 61.21875 -108.578125 C 63.53125 -110.890625 65.992188 -112.96875 68.609375 -114.8125 C 71.234375 -116.664062 74.625 -118.320312 78.78125 -119.78125 C 82.9375 -121.25 87.171875 -121.984375 91.484375 -121.984375 C 95.953125 -121.984375 100.34375 -121.363281 104.65625 -120.125 C 108.96875 -118.894531 112.125 -117.664062 114.125 -116.4375 L 117.359375 -114.59375 L 100.265625 -79.9375 C 95.179688 -84.25 88.097656 -86.40625 79.015625 -86.40625 C 74.085938 -86.40625 69.851562 -85.328125 66.3125 -83.171875 C 62.769531 -81.015625 60.265625 -78.394531 58.796875 -75.3125 C 57.335938 -72.238281 56.296875 -69.625 55.671875 -67.46875 C 55.054688 -65.3125 54.75 -63.613281 54.75 -62.375 L 54.75 0 Z M 13.859375 0 "/></g></g></g><g fill="#000000" fill-opacity="1"><g transform="translate(498.59783, 345.444872)"><g><path d="M 133.765625 -53.59375 L 47.828125 -53.59375 C 47.828125 -45.28125 50.519531 -39.117188 55.90625 -35.109375 C 61.300781 -31.109375 67.15625 -29.109375 73.46875 -29.109375 C 80.09375 -29.109375 85.328125 -29.992188 89.171875 -31.765625 C 93.023438 -33.535156 97.414062 -37.039062 102.34375 -42.28125 L 131.921875 -27.5 C 119.597656 -6.851562 99.113281 3.46875 70.46875 3.46875 C 52.601562 3.46875 37.273438 -2.648438 24.484375 -14.890625 C 11.703125 -27.140625 5.3125 -41.890625 5.3125 -59.140625 C 5.3125 -76.390625 11.703125 -91.175781 24.484375 -103.5 C 37.273438 -115.820312 52.601562 -121.984375 70.46875 -121.984375 C 89.257812 -121.984375 104.546875 -116.550781 116.328125 -105.6875 C 128.109375 -94.832031 134 -79.316406 134 -59.140625 C 134 -56.367188 133.921875 -54.519531 133.765625 -53.59375 Z M 48.984375 -76.234375 L 94.03125 -76.234375 C 93.101562 -82.398438 90.675781 -87.140625 86.75 -90.453125 C 82.820312 -93.765625 77.78125 -95.421875 71.625 -95.421875 C 64.84375 -95.421875 59.445312 -93.644531 55.4375 -90.09375 C 51.4375 -86.550781 49.285156 -81.929688 48.984375 -76.234375 Z M 48.984375 -76.234375 "/></g></g></g><g fill="#000000" fill-opacity="1"><g transform="translate(626.359688, 345.444872)"><g><path d="M 21.9375 -14.671875 C 10.851562 -26.765625 5.3125 -41.585938 5.3125 -59.140625 C 5.3125 -76.703125 10.851562 -91.566406 21.9375 -103.734375 C 33.03125 -115.898438 47.128906 -121.984375 64.234375 -121.984375 C 79.941406 -121.984375 92.878906 -117.054688 103.046875 -107.203125 L 103.046875 -198.6875 L 143.9375 -198.6875 L 143.9375 0 L 103.5 0 L 103.5 -13.40625 L 103.046875 -13.40625 C 92.878906 -2.15625 79.941406 3.46875 64.234375 3.46875 C 47.128906 3.46875 33.03125 -2.578125 21.9375 -14.671875 Z M 56.71875 -79.234375 C 51.40625 -74.003906 48.75 -67.304688 48.75 -59.140625 C 48.75 -50.984375 51.289062 -44.320312 56.375 -39.15625 C 61.457031 -34 68.15625 -31.421875 76.46875 -31.421875 C 84.476562 -31.421875 91.0625 -34.035156 96.21875 -39.265625 C 101.382812 -44.503906 103.96875 -51.128906 103.96875 -59.140625 C 103.96875 -67.304688 101.304688 -74.003906 95.984375 -79.234375 C 90.671875 -84.472656 84.164062 -87.09375 76.46875 -87.09375 C 68.613281 -87.09375 62.03125 -84.472656 56.71875 -79.234375 Z M 56.71875 -79.234375 "/></g></g></g><g fill="#000000" fill-opacity="1"><g transform="translate(772.604226, 345.444872)"><g><path d="M 17.78125 -184.59375 C 22.5625 -189.363281 28.257812 -191.75 34.875 -191.75 C 41.5 -191.75 47.195312 -189.363281 51.96875 -184.59375 C 56.75 -179.820312 59.140625 -174.125 59.140625 -167.5 C 59.140625 -160.875 56.75 -155.171875 51.96875 -150.390625 C 47.195312 -145.617188 41.5 -143.234375 34.875 -143.234375 C 28.257812 -143.234375 22.5625 -145.617188 17.78125 -150.390625 C 13.007812 -155.171875 10.625 -160.875 10.625 -167.5 C 10.625 -174.125 13.007812 -179.820312 17.78125 -184.59375 Z M 13.859375 -118.515625 L 13.859375 0 L 54.75 0 L 54.75 -118.515625 Z M 13.859375 -118.515625 "/></g></g></g><g fill="#000000" fill-opacity="1"><g transform="translate(830.824812, 345.444872)"><g><path d="M 133.765625 -53.59375 L 47.828125 -53.59375 C 47.828125 -45.28125 50.519531 -39.117188 55.90625 -35.109375 C 61.300781 -31.109375 67.15625 -29.109375 73.46875 -29.109375 C 80.09375 -29.109375 85.328125 -29.992188 89.171875 -31.765625 C 93.023438 -33.535156 97.414062 -37.039062 102.34375 -42.28125 L 131.921875 -27.5 C 119.597656 -6.851562 99.113281 3.46875 70.46875 3.46875 C 52.601562 3.46875 37.273438 -2.648438 24.484375 -14.890625 C 11.703125 -27.140625 5.3125 -41.890625 5.3125 -59.140625 C 5.3125 -76.390625 11.703125 -91.175781 24.484375 -103.5 C 37.273438 -115.820312 52.601562 -121.984375 70.46875 -121.984375 C 89.257812 -121.984375 104.546875 -116.550781 116.328125 -105.6875 C 128.109375 -94.832031 134 -79.316406 134 -59.140625 C 134 -56.367188 133.921875 -54.519531 133.765625 -53.59375 Z M 48.984375 -76.234375 L 94.03125 -76.234375 C 93.101562 -82.398438 90.675781 -87.140625 86.75 -90.453125 C 82.820312 -93.765625 77.78125 -95.421875 71.625 -95.421875 C 64.84375 -95.421875 59.445312 -93.644531 55.4375 -90.09375 C 51.4375 -86.550781 49.285156 -81.929688 48.984375 -76.234375 Z M 48.984375 -76.234375 "/></g></g></g><g fill="#000000" fill-opacity="1"><g transform="translate(958.58662, 345.444872)"><g><path d="M 13.859375 0 L 13.859375 -118.515625 L 54.75 -118.515625 L 54.75 -106.046875 L 55.21875 -106.046875 C 65.84375 -116.671875 77.160156 -121.984375 89.171875 -121.984375 C 95.023438 -121.984375 100.835938 -121.210938 106.609375 -119.671875 C 112.390625 -118.128906 117.9375 -115.738281 123.25 -112.5 C 128.5625 -109.269531 132.875 -104.691406 136.1875 -98.765625 C 139.5 -92.835938 141.15625 -85.945312 141.15625 -78.09375 L 141.15625 0 L 100.265625 0 L 100.265625 -67 C 100.265625 -73.15625 98.300781 -78.546875 94.375 -83.171875 C 90.445312 -87.796875 85.328125 -90.109375 79.015625 -90.109375 C 72.847656 -90.109375 67.257812 -87.71875 62.25 -82.9375 C 57.25 -78.164062 54.75 -72.851562 54.75 -67 L 54.75 0 Z M 13.859375 0 "/></g></g></g><g fill="#000000" fill-opacity="1"><g transform="translate(1099.748486, 345.444872)"><g><path d="M 65.375 -121.984375 C 72.15625 -121.984375 78.859375 -121.210938 85.484375 -119.671875 C 92.109375 -118.128906 97.035156 -116.585938 100.265625 -115.046875 L 105.125 -112.75 L 91.71875 -85.9375 C 82.476562 -90.875 73.695312 -93.34375 65.375 -93.34375 C 60.757812 -93.34375 57.488281 -92.835938 55.5625 -91.828125 C 53.632812 -90.828125 52.671875 -88.941406 52.671875 -86.171875 C 52.671875 -85.554688 52.75 -84.941406 52.90625 -84.328125 C 53.0625 -83.710938 53.367188 -83.132812 53.828125 -82.59375 C 54.285156 -82.050781 54.707031 -81.585938 55.09375 -81.203125 C 55.476562 -80.816406 56.132812 -80.394531 57.0625 -79.9375 C 57.988281 -79.476562 58.71875 -79.128906 59.25 -78.890625 C 59.789062 -78.660156 60.675781 -78.316406 61.90625 -77.859375 C 63.144531 -77.398438 64.070312 -77.050781 64.6875 -76.8125 C 65.300781 -76.582031 66.335938 -76.234375 67.796875 -75.765625 C 69.265625 -75.304688 70.382812 -75.003906 71.15625 -74.859375 C 75.925781 -73.472656 80.082031 -71.929688 83.625 -70.234375 C 87.175781 -68.535156 90.914062 -66.222656 94.84375 -63.296875 C 98.769531 -60.367188 101.8125 -56.671875 103.96875 -52.203125 C 106.125 -47.742188 107.203125 -42.664062 107.203125 -36.96875 C 107.203125 -10.007812 88.488281 3.46875 51.0625 3.46875 C 42.582031 3.46875 34.53125 2.160156 26.90625 -0.453125 C 19.289062 -3.078125 13.785156 -5.695312 10.390625 -8.3125 L 5.3125 -12.46875 L 21.953125 -40.4375 C 23.179688 -39.351562 24.796875 -38.078125 26.796875 -36.609375 C 28.796875 -35.148438 32.414062 -33.148438 37.65625 -30.609375 C 42.894531 -28.066406 47.4375 -26.796875 51.28125 -26.796875 C 59.757812 -26.796875 64 -29.644531 64 -35.34375 C 64 -37.96875 62.921875 -40.007812 60.765625 -41.46875 C 58.609375 -42.9375 54.945312 -44.59375 49.78125 -46.4375 C 44.625 -48.28125 40.582031 -49.972656 37.65625 -51.515625 C 30.257812 -55.367188 24.40625 -59.71875 20.09375 -64.5625 C 15.78125 -69.414062 13.625 -75.847656 13.625 -83.859375 C 13.625 -95.878906 18.28125 -105.238281 27.59375 -111.9375 C 36.914062 -118.632812 49.507812 -121.984375 65.375 -121.984375 Z M 65.375 -121.984375 "/></g></g></g><g fill="#000000" fill-opacity="1"><g transform="translate(1201.86557, 345.444872)"><g/></g></g><g fill="#000000" fill-opacity="1"><g transform="translate(1253.386178, 345.444872)"><g><path d="M 13.859375 -84.5625 L 88.25 -84.5625 L 88.25 -49.203125 L 13.859375 -49.203125 Z M 13.859375 -84.5625 "/></g></g></g><g fill="#000000" fill-opacity="1"><g transform="translate(48.081411, 564.927058)"><g><path d="M 110.65625 -190.59375 L 187.59375 0 L 140.921875 0 L 126.84375 -38.125 L 54.296875 -38.125 L 40.203125 0 L -6.46875 0 L 70.46875 -190.59375 Z M 112.046875 -76.234375 L 90.796875 -131.6875 L 90.328125 -131.6875 L 69.078125 -76.234375 Z M 112.046875 -76.234375 "/></g></g></g><g fill="#000000" fill-opacity="1"><g transform="translate(217.660421, 564.927058)"><g><path d="M 65.375 -121.984375 C 72.15625 -121.984375 78.859375 -121.210938 85.484375 -119.671875 C 92.109375 -118.128906 97.035156 -116.585938 100.265625 -115.046875 L 105.125 -112.75 L 91.71875 -85.9375 C 82.476562 -90.875 73.695312 -93.34375 65.375 -93.34375 C 60.757812 -93.34375 57.488281 -92.835938 55.5625 -91.828125 C 53.632812 -90.828125 52.671875 -88.941406 52.671875 -86.171875 C 52.671875 -85.554688 52.75 -84.941406 52.90625 -84.328125 C 53.0625 -83.710938 53.367188 -83.132812 53.828125 -82.59375 C 54.285156 -82.050781 54.707031 -81.585938 55.09375 -81.203125 C 55.476562 -80.816406 56.132812 -80.394531 57.0625 -79.9375 C 57.988281 -79.476562 58.71875 -79.128906 59.25 -78.890625 C 59.789062 -78.660156 60.675781 -78.316406 61.90625 -77.859375 C 63.144531 -77.398438 64.070312 -77.050781 64.6875 -76.8125 C 65.300781 -76.582031 66.335938 -76.234375 67.796875 -75.765625 C 69.265625 -75.304688 70.382812 -75.003906 71.15625 -74.859375 C 75.925781 -73.472656 80.082031 -71.929688 83.625 -70.234375 C 87.175781 -68.535156 90.914062 -66.222656 94.84375 -63.296875 C 98.769531 -60.367188 101.8125 -56.671875 103.96875 -52.203125 C 106.125 -47.742188 107.203125 -42.664062 107.203125 -36.96875 C 107.203125 -10.007812 88.488281 3.46875 51.0625 3.46875 C 42.582031 3.46875 34.53125 2.160156 26.90625 -0.453125 C 19.289062 -3.078125 13.785156 -5.695312 10.390625 -8.3125 L 5.3125 -12.46875 L 21.953125 -40.4375 C 23.179688 -39.351562 24.796875 -38.078125 26.796875 -36.609375 C 28.796875 -35.148438 32.414062 -33.148438 37.65625 -30.609375 C 42.894531 -28.066406 47.4375 -26.796875 51.28125 -26.796875 C 59.757812 -26.796875 64 -29.644531 64 -35.34375 C 64 -37.96875 62.921875 -40.007812 60.765625 -41.46875 C 58.609375 -42.9375 54.945312 -44.59375 49.78125 -46.4375 C 44.625 -48.28125 40.582031 -49.972656 37.65625 -51.515625 C 30.257812 -55.367188 24.40625 -59.71875 20.09375 -64.5625 C 15.78125 -69.414062 13.625 -75.847656 13.625 -83.859375 C 13.625 -95.878906 18.28125 -105.238281 27.59375 -111.9375 C 36.914062 -118.632812 49.507812 -121.984375 65.375 -121.984375 Z M 65.375 -121.984375 "/></g></g></g><g fill="#000000" fill-opacity="1"><g transform="translate(319.77748, 564.927058)"><g><path d="M 65.375 -121.984375 C 72.15625 -121.984375 78.859375 -121.210938 85.484375 -119.671875 C 92.109375 -118.128906 97.035156 -116.585938 100.265625 -115.046875 L 105.125 -112.75 L 91.71875 -85.9375 C 82.476562 -90.875 73.695312 -93.34375 65.375 -93.34375 C 60.757812 -93.34375 57.488281 -92.835938 55.5625 -91.828125 C 53.632812 -90.828125 52.671875 -88.941406 52.671875 -86.171875 C 52.671875 -85.554688 52.75 -84.941406 52.90625 -84.328125 C 53.0625 -83.710938 53.367188 -83.132812 53.828125 -82.59375 C 54.285156 -82.050781 54.707031 -81.585938 55.09375 -81.203125 C 55.476562 -80.816406 56.132812 -80.394531 57.0625 -79.9375 C 57.988281 -79.476562 58.71875 -79.128906 59.25 -78.890625 C 59.789062 -78.660156 60.675781 -78.316406 61.90625 -77.859375 C 63.144531 -77.398438 64.070312 -77.050781 64.6875 -76.8125 C 65.300781 -76.582031 66.335938 -76.234375 67.796875 -75.765625 C 69.265625 -75.304688 70.382812 -75.003906 71.15625 -74.859375 C 75.925781 -73.472656 80.082031 -71.929688 83.625 -70.234375 C 87.175781 -68.535156 90.914062 -66.222656 94.84375 -63.296875 C 98.769531 -60.367188 101.8125 -56.671875 103.96875 -52.203125 C 106.125 -47.742188 107.203125 -42.664062 107.203125 -36.96875 C 107.203125 -10.007812 88.488281 3.46875 51.0625 3.46875 C 42.582031 3.46875 34.53125 2.160156 26.90625 -0.453125 C 19.289062 -3.078125 13.785156 -5.695312 10.390625 -8.3125 L 5.3125 -12.46875 L 21.953125 -40.4375 C 23.179688 -39.351562 24.796875 -38.078125 26.796875 -36.609375 C 28.796875 -35.148438 32.414062 -33.148438 37.65625 -30.609375 C 42.894531 -28.066406 47.4375 -26.796875 51.28125 -26.796875 C 59.757812 -26.796875 64 -29.644531 64 -35.34375 C 64 -37.96875 62.921875 -40.007812 60.765625 -41.46875 C 58.609375 -42.9375 54.945312 -44.59375 49.78125 -46.4375 C 44.625 -48.28125 40.582031 -49.972656 37.65625 -51.515625 C 30.257812 -55.367188 24.40625 -59.71875 20.09375 -64.5625 C 15.78125 -69.414062 13.625 -75.847656 13.625 -83.859375 C 13.625 -95.878906 18.28125 -105.238281 27.59375 -111.9375 C 36.914062 -118.632812 49.507812 -121.984375 65.375 -121.984375 Z M 65.375 -121.984375 "/></g></g></g><g fill="#000000" fill-opacity="1"><g transform="translate(421.894539, 564.927058)"><g><path d="M 17.78125 -184.59375 C 22.5625 -189.363281 28.257812 -191.75 34.875 -191.75 C 41.5 -191.75 47.195312 -189.363281 51.96875 -184.59375 C 56.75 -179.820312 59.140625 -174.125 59.140625 -167.5 C 59.140625 -160.875 56.75 -155.171875 51.96875 -150.390625 C 47.195312 -145.617188 41.5 -143.234375 34.875 -143.234375 C 28.257812 -143.234375 22.5625 -145.617188 17.78125 -150.390625 C 13.007812 -155.171875 10.625 -160.875 10.625 -167.5 C 10.625 -174.125 13.007812 -179.820312 17.78125 -184.59375 Z M 13.859375 -118.515625 L 13.859375 0 L 54.75 0 L 54.75 -118.515625 Z M 13.859375 -118.515625 "/></g></g></g><g fill="#000000" fill-opacity="1"><g transform="translate(480.115151, 564.927058)"><g><path d="M 65.375 -121.984375 C 72.15625 -121.984375 78.859375 -121.210938 85.484375 -119.671875 C 92.109375 -118.128906 97.035156 -116.585938 100.265625 -115.046875 L 105.125 -112.75 L 91.71875 -85.9375 C 82.476562 -90.875 73.695312 -93.34375 65.375 -93.34375 C 60.757812 -93.34375 57.488281 -92.835938 55.5625 -91.828125 C 53.632812 -90.828125 52.671875 -88.941406 52.671875 -86.171875 C 52.671875 -85.554688 52.75 -84.941406 52.90625 -84.328125 C 53.0625 -83.710938 53.367188 -83.132812 53.828125 -82.59375 C 54.285156 -82.050781 54.707031 -81.585938 55.09375 -81.203125 C 55.476562 -80.816406 56.132812 -80.394531 57.0625 -79.9375 C 57.988281 -79.476562 58.71875 -79.128906 59.25 -78.890625 C 59.789062 -78.660156 60.675781 -78.316406 61.90625 -77.859375 C 63.144531 -77.398438 64.070312 -77.050781 64.6875 -76.8125 C 65.300781 -76.582031 66.335938 -76.234375 67.796875 -75.765625 C 69.265625 -75.304688 70.382812 -75.003906 71.15625 -74.859375 C 75.925781 -73.472656 80.082031 -71.929688 83.625 -70.234375 C 87.175781 -68.535156 90.914062 -66.222656 94.84375 -63.296875 C 98.769531 -60.367188 101.8125 -56.671875 103.96875 -52.203125 C 106.125 -47.742188 107.203125 -42.664062 107.203125 -36.96875 C 107.203125 -10.007812 88.488281 3.46875 51.0625 3.46875 C 42.582031 3.46875 34.53125 2.160156 26.90625 -0.453125 C 19.289062 -3.078125 13.785156 -5.695312 10.390625 -8.3125 L 5.3125 -12.46875 L 21.953125 -40.4375 C 23.179688 -39.351562 24.796875 -38.078125 26.796875 -36.609375 C 28.796875 -35.148438 32.414062 -33.148438 37.65625 -30.609375 C 42.894531 -28.066406 47.4375 -26.796875 51.28125 -26.796875 C 59.757812 -26.796875 64 -29.644531 64 -35.34375 C 64 -37.96875 62.921875 -40.007812 60.765625 -41.46875 C 58.609375 -42.9375 54.945312 -44.59375 49.78125 -46.4375 C 44.625 -48.28125 40.582031 -49.972656 37.65625 -51.515625 C 30.257812 -55.367188 24.40625 -59.71875 20.09375 -64.5625 C 15.78125 -69.414062 13.625 -75.847656 13.625 -83.859375 C 13.625 -95.878906 18.28125 -105.238281 27.59375 -111.9375 C 36.914062 -118.632812 49.507812 -121.984375 65.375 -121.984375 Z M 65.375 -121.984375 "/></g></g></g><g fill="#000000" fill-opacity="1"><g transform="translate(582.232235, 564.927058)"><g><path d="M 20.796875 -118.515625 L 20.796875 -162.640625 L 61.6875 -162.640625 L 61.6875 -118.515625 L 86.640625 -118.515625 L 86.640625 -87.328125 L 61.6875 -87.328125 L 61.6875 -49.671875 C 61.6875 -38.734375 64.765625 -33.265625 70.921875 -33.265625 C 72.460938 -33.265625 74.078125 -33.570312 75.765625 -34.1875 C 77.460938 -34.800781 78.773438 -35.421875 79.703125 -36.046875 L 81.09375 -36.96875 L 91.25 -3.921875 C 82.476562 1.003906 72.46875 3.46875 61.21875 3.46875 C 53.519531 3.46875 46.894531 2.117188 41.34375 -0.578125 C 35.800781 -3.273438 31.601562 -6.894531 28.75 -11.4375 C 25.90625 -15.976562 23.867188 -20.75 22.640625 -25.75 C 21.410156 -30.757812 20.796875 -36.113281 20.796875 -41.8125 L 20.796875 -87.328125 L 3.703125 -87.328125 L 3.703125 -118.515625 Z M 20.796875 -118.515625 "/></g></g></g><g fill="#000000" fill-opacity="1"><g transform="translate(661.939004, 564.927058)"><g><path d="M 133.765625 -53.59375 L 47.828125 -53.59375 C 47.828125 -45.28125 50.519531 -39.117188 55.90625 -35.109375 C 61.300781 -31.109375 67.15625 -29.109375 73.46875 -29.109375 C 80.09375 -29.109375 85.328125 -29.992188 89.171875 -31.765625 C 93.023438 -33.535156 97.414062 -37.039062 102.34375 -42.28125 L 131.921875 -27.5 C 119.597656 -6.851562 99.113281 3.46875 70.46875 3.46875 C 52.601562 3.46875 37.273438 -2.648438 24.484375 -14.890625 C 11.703125 -27.140625 5.3125 -41.890625 5.3125 -59.140625 C 5.3125 -76.390625 11.703125 -91.175781 24.484375 -103.5 C 37.273438 -115.820312 52.601562 -121.984375 70.46875 -121.984375 C 89.257812 -121.984375 104.546875 -116.550781 116.328125 -105.6875 C 128.109375 -94.832031 134 -79.316406 134 -59.140625 C 134 -56.367188 133.921875 -54.519531 133.765625 -53.59375 Z M 48.984375 -76.234375 L 94.03125 -76.234375 C 93.101562 -82.398438 90.675781 -87.140625 86.75 -90.453125 C 82.820312 -93.765625 77.78125 -95.421875 71.625 -95.421875 C 64.84375 -95.421875 59.445312 -93.644531 55.4375 -90.09375 C 51.4375 -86.550781 49.285156 -81.929688 48.984375 -76.234375 Z M 48.984375 -76.234375 "/></g></g></g><g fill="#000000" fill-opacity="1"><g transform="translate(789.700813, 564.927058)"><g><path d="M 13.859375 0 L 13.859375 -118.515625 L 54.75 -118.515625 L 54.75 -106.046875 L 55.21875 -106.046875 C 65.84375 -116.671875 77.160156 -121.984375 89.171875 -121.984375 C 95.023438 -121.984375 100.835938 -121.210938 106.609375 -119.671875 C 112.390625 -118.128906 117.9375 -115.738281 123.25 -112.5 C 128.5625 -109.269531 132.875 -104.691406 136.1875 -98.765625 C 139.5 -92.835938 141.15625 -85.945312 141.15625 -78.09375 L 141.15625 0 L 100.265625 0 L 100.265625 -67 C 100.265625 -73.15625 98.300781 -78.546875 94.375 -83.171875 C 90.445312 -87.796875 85.328125 -90.109375 79.015625 -90.109375 C 72.847656 -90.109375 67.257812 -87.71875 62.25 -82.9375 C 57.25 -78.164062 54.75 -72.851562 54.75 -67 L 54.75 0 Z M 13.859375 0 "/></g></g></g><g fill="#000000" fill-opacity="1"><g transform="translate(930.862578, 564.927058)"><g><path d="M 20.796875 -118.515625 L 20.796875 -162.640625 L 61.6875 -162.640625 L 61.6875 -118.515625 L 86.640625 -118.515625 L 86.640625 -87.328125 L 61.6875 -87.328125 L 61.6875 -49.671875 C 61.6875 -38.734375 64.765625 -33.265625 70.921875 -33.265625 C 72.460938 -33.265625 74.078125 -33.570312 75.765625 -34.1875 C 77.460938 -34.800781 78.773438 -35.421875 79.703125 -36.046875 L 81.09375 -36.96875 L 91.25 -3.921875 C 82.476562 1.003906 72.46875 3.46875 61.21875 3.46875 C 53.519531 3.46875 46.894531 2.117188 41.34375 -0.578125 C 35.800781 -3.273438 31.601562 -6.894531 28.75 -11.4375 C 25.90625 -15.976562 23.867188 -20.75 22.640625 -25.75 C 21.410156 -30.757812 20.796875 -36.113281 20.796875 -41.8125 L 20.796875 -87.328125 L 3.703125 -87.328125 L 3.703125 -118.515625 Z M 20.796875 -118.515625 "/></g></g></g><g fill="#000000" fill-opacity="1"><g transform="translate(1010.569347, 564.927058)"><g><path d="M 133.765625 -53.59375 L 47.828125 -53.59375 C 47.828125 -45.28125 50.519531 -39.117188 55.90625 -35.109375 C 61.300781 -31.109375 67.15625 -29.109375 73.46875 -29.109375 C 80.09375 -29.109375 85.328125 -29.992188 89.171875 -31.765625 C 93.023438 -33.535156 97.414062 -37.039062 102.34375 -42.28125 L 131.921875 -27.5 C 119.597656 -6.851562 99.113281 3.46875 70.46875 3.46875 C 52.601562 3.46875 37.273438 -2.648438 24.484375 -14.890625 C 11.703125 -27.140625 5.3125 -41.890625 5.3125 -59.140625 C 5.3125 -76.390625 11.703125 -91.175781 24.484375 -103.5 C 37.273438 -115.820312 52.601562 -121.984375 70.46875 -121.984375 C 89.257812 -121.984375 104.546875 -116.550781 116.328125 -105.6875 C 128.109375 -94.832031 134 -79.316406 134 -59.140625 C 134 -56.367188 133.921875 -54.519531 133.765625 -53.59375 Z M 48.984375 -76.234375 L 94.03125 -76.234375 C 93.101562 -82.398438 90.675781 -87.140625 86.75 -90.453125 C 82.820312 -93.765625 77.78125 -95.421875 71.625 -95.421875 C 64.84375 -95.421875 59.445312 -93.644531 55.4375 -90.09375 C 51.4375 -86.550781 49.285156 -81.929688 48.984375 -76.234375 Z M 48.984375 -76.234375 "/></g></g></g><g fill="#000000" fill-opacity="1"><g transform="translate(1138.331155, 564.927058)"><g><path d="M 13.859375 0 L 13.859375 -118.515625 L 54.75 -118.515625 L 54.75 -106.046875 L 55.21875 -106.046875 C 65.84375 -116.671875 77.160156 -121.984375 89.171875 -121.984375 C 95.023438 -121.984375 100.835938 -121.210938 106.609375 -119.671875 C 112.390625 -118.128906 117.9375 -115.738281 123.25 -112.5 C 128.5625 -109.269531 132.875 -104.691406 136.1875 -98.765625 C 139.5 -92.835938 141.15625 -85.945312 141.15625 -78.09375 L 141.15625 0 L 100.265625 0 L 100.265625 -67 C 100.265625 -73.15625 98.300781 -78.546875 94.375 -83.171875 C 90.445312 -87.796875 85.328125 -90.109375 79.015625 -90.109375 C 72.847656 -90.109375 67.257812 -87.71875 62.25 -82.9375 C 57.25 -78.164062 54.75 -72.851562 54.75 -67 L 54.75 0 Z M 13.859375 0 "/></g></g></g><g fill="#000000" fill-opacity="1"><g transform="translate(1279.49292, 564.927058)"><g><path d="M 40.203125 -49.4375 C 47.585938 -49.4375 53.859375 -46.859375 59.015625 -41.703125 C 64.179688 -36.546875 66.765625 -30.269531 66.765625 -22.875 C 66.765625 -15.632812 64.179688 -9.429688 59.015625 -4.265625 C 53.859375 0.890625 47.585938 3.46875 40.203125 3.46875 C 32.960938 3.46875 26.757812 0.890625 21.59375 -4.265625 C 16.4375 -9.429688 13.859375 -15.632812 13.859375 -22.875 C 13.859375 -30.269531 16.4375 -36.546875 21.59375 -41.703125 C 26.757812 -46.859375 32.960938 -49.4375 40.203125 -49.4375 Z M 40.203125 -49.4375 "/></g></g></g></svg>