<svg xmlns="http://www.w3.org/2000/svg" xmlns:xlink="http://www.w3.org/1999/xlink" width="500" zoomAndPan="magnify" viewBox="0 0 375 374.999991" height="500" preserveAspectRatio="xMidYMid meet" version="1.0"><defs><g/></defs><g fill="#000000" fill-opacity="1"><g transform="translate(19.335402, 140.999991)"><g><path d="M 6.4375 -88.484375 L 33.890625 -88.484375 C 42.179688 -88.484375 48.789062 -86.710938 53.71875 -83.171875 C 58.65625 -79.628906 61.125 -73.890625 61.125 -65.953125 C 61.125 -57.085938 57.441406 -50.757812 50.078125 -46.96875 C 62.671875 -44.757812 68.96875 -37.328125 68.96875 -24.671875 C 68.96875 -17.234375 66.390625 -11.257812 61.234375 -6.75 C 56.085938 -2.25 49.007812 0 40 0 L 6.4375 0 Z M 26.59375 -53.84375 L 28.203125 -53.84375 C 32.710938 -53.84375 36.070312 -54.628906 38.28125 -56.203125 C 40.5 -57.773438 41.609375 -60.347656 41.609375 -63.921875 C 41.609375 -69.929688 37.140625 -72.9375 28.203125 -72.9375 L 26.59375 -72.9375 Z M 26.59375 -15.546875 L 32.921875 -15.546875 C 42.785156 -15.546875 47.71875 -18.835938 47.71875 -25.421875 C 47.71875 -29.347656 46.484375 -32.171875 44.015625 -33.890625 C 41.554688 -35.609375 37.859375 -36.46875 32.921875 -36.46875 L 26.59375 -36.46875 Z M 26.59375 -15.546875 "/></g></g></g><g fill="#000000" fill-opacity="1"><g transform="translate(97.405412, 140.999991)"><g><path d="M 51.375 -88.484375 L 87.09375 0 L 65.421875 0 L 58.875 -17.703125 L 25.203125 -17.703125 L 18.65625 0 L -3 0 L 32.71875 -88.484375 Z M 52.015625 -35.390625 L 42.15625 -61.125 L 41.9375 -61.125 L 32.0625 -35.390625 Z M 52.015625 -35.390625 "/></g></g></g><g fill="#000000" fill-opacity="1"><g transform="translate(188.129542, 140.999991)"><g><path d="M 6.4375 -88.484375 L 38.078125 -88.484375 C 46.585938 -88.484375 53.519531 -86.210938 58.875 -81.671875 C 64.238281 -77.128906 66.921875 -70.640625 66.921875 -62.203125 C 66.921875 -55.691406 65.296875 -50.238281 62.046875 -45.84375 C 58.796875 -41.445312 54.378906 -38.359375 48.796875 -36.578125 L 79.25 0 L 53.625 0 L 26.59375 -34.96875 L 26.59375 0 L 6.4375 0 Z M 26.59375 -49.234375 L 28.953125 -49.234375 C 30.816406 -49.234375 32.390625 -49.265625 33.671875 -49.328125 C 34.960938 -49.398438 36.429688 -49.648438 38.078125 -50.078125 C 39.722656 -50.515625 41.046875 -51.125 42.046875 -51.90625 C 43.046875 -52.695312 43.898438 -53.84375 44.609375 -55.34375 C 45.328125 -56.84375 45.6875 -58.664062 45.6875 -60.8125 C 45.6875 -62.957031 45.328125 -64.78125 44.609375 -66.28125 C 43.898438 -67.78125 43.046875 -68.921875 42.046875 -69.703125 C 41.046875 -70.492188 39.722656 -71.101562 38.078125 -71.53125 C 36.429688 -71.957031 34.960938 -72.207031 33.671875 -72.28125 C 32.390625 -72.351562 30.816406 -72.390625 28.953125 -72.390625 L 26.59375 -72.390625 Z M 26.59375 -49.234375 "/></g></g></g><g fill="#000000" fill-opacity="1"><g transform="translate(271.561475, 140.999991)"><g><path d="M 51.375 -88.484375 L 87.09375 0 L 65.421875 0 L 58.875 -17.703125 L 25.203125 -17.703125 L 18.65625 0 L -3 0 L 32.71875 -88.484375 Z M 52.015625 -35.390625 L 42.15625 -61.125 L 41.9375 -61.125 L 32.0625 -35.390625 Z M 52.015625 -35.390625 "/></g></g></g><g fill="#000000" fill-opacity="1"><g transform="translate(63.257274, 290.999981)"><g><path d="M 34.109375 0 L -3 -88.484375 L 19.734375 -88.484375 L 42.046875 -30.359375 L 64.34375 -88.484375 L 87.09375 -88.484375 L 49.984375 0 Z M 34.109375 0 "/></g></g></g><g fill="#000000" fill-opacity="1"><g transform="translate(153.981405, 290.999981)"><g><path d="M 57.0625 -88.484375 L 57.0625 -70.78125 L 26.59375 -70.78125 L 26.59375 -53.203125 L 55.765625 -53.203125 L 55.765625 -35.5 L 26.59375 -35.5 L 26.59375 -17.703125 L 57.0625 -17.703125 L 57.0625 0 L 6.4375 0 L 6.4375 -88.484375 Z M 57.0625 -88.484375 "/></g></g></g><g fill="#000000" fill-opacity="1"><g transform="translate(222.82893, 290.999981)"><g><path d="M 86.4375 -49.546875 L 86.4375 -30.359375 C 84.15625 -19.847656 79.148438 -11.890625 71.421875 -6.484375 C 63.703125 -1.085938 55.085938 1.609375 45.578125 1.609375 C 33.640625 1.609375 23.46875 -2.859375 15.0625 -11.796875 C 6.664062 -20.734375 2.46875 -31.53125 2.46875 -44.1875 C 2.46875 -57.050781 6.578125 -67.914062 14.796875 -76.78125 C 23.023438 -85.65625 33.285156 -90.09375 45.578125 -90.09375 C 59.953125 -90.09375 71.320312 -85.050781 79.6875 -74.96875 L 66.5 -60.484375 C 61.78125 -68.066406 55.203125 -71.859375 46.765625 -71.859375 C 40.546875 -71.859375 35.234375 -69.15625 30.828125 -63.75 C 26.429688 -58.351562 24.234375 -51.832031 24.234375 -44.1875 C 24.234375 -36.675781 26.429688 -30.257812 30.828125 -24.9375 C 35.234375 -19.613281 40.546875 -16.953125 46.765625 -16.953125 C 51.910156 -16.953125 56.394531 -18.503906 60.21875 -21.609375 C 64.039062 -24.722656 65.953125 -28.851562 65.953125 -34 L 45.578125 -34 L 45.578125 -49.546875 Z M 86.4375 -49.546875 "/></g></g></g></svg>