<svg xmlns="http://www.w3.org/2000/svg" xmlns:xlink="http://www.w3.org/1999/xlink" width="500" zoomAndPan="magnify" viewBox="0 0 375 374.999991" height="500" preserveAspectRatio="xMidYMid meet" version="1.0"><defs><clipPath id="b69459cc22"><path d="M 10.125 18.511719 L 364.875 18.511719 L 364.875 356.761719 L 10.125 356.761719 Z M 10.125 18.511719 " clip-rule="nonzero"/></clipPath></defs><g clip-path="url(#b69459cc22)"><path fill="#000000" d="M 184.582031 26.078125 L 188.21875 26.128906 C 235.664062 29.28125 277.035156 46.972656 312.335938 79.203125 C 327.59375 99.46875 337.6875 116.835938 342.617188 131.292969 C 350.589844 157.21875 355.117188 178.386719 356.199219 194.800781 C 356.871094 234.828125 342.320312 269.210938 312.542969 297.945312 C 291.765625 316.890625 275.472656 328.121094 263.664062 331.632812 C 242.292969 341.640625 219.738281 348.097656 196 350.996094 C 176.339844 350.277344 152.597656 344.175781 124.773438 332.683594 C 102.308594 321.917969 82.707031 309.140625 65.976562 294.355469 C 49.300781 280.023438 37.800781 265.304688 31.46875 250.203125 L 26.925781 235.683594 L 22.878906 211.832031 C 22.3125 210.398438 22.0625 212.5625 22.128906 218.316406 C 22.300781 223.460938 22.71875 228.15625 23.382812 232.402344 L 20.332031 222.636719 C 17.847656 213.550781 16.398438 203.75 15.980469 193.238281 C 15.421875 170.976562 18.523438 151.199219 25.28125 133.917969 C 34.074219 111.25 46.382812 92.265625 62.210938 76.960938 C 96.792969 45.113281 137.582031 28.152344 184.582031 26.078125 M 40.601562 275.09375 L 41.972656 276.785156 C 56.625 294.285156 76.113281 310.292969 100.441406 324.804688 C 113.367188 331.90625 125.304688 337.304688 136.261719 341.003906 C 152.824219 346.894531 165.859375 350.636719 175.375 352.230469 C 167.386719 352.152344 160.984375 351.820312 156.167969 351.226562 C 147.878906 350.289062 140.085938 348.90625 132.792969 347.074219 C 114.777344 342.3125 101.15625 337.128906 91.933594 331.519531 C 69.148438 318.375 52.035156 299.566406 40.601562 275.09375 M 184.039062 18.535156 L 182.449219 18.546875 C 137.316406 20.210938 96.039062 37.382812 58.617188 70.0625 C 42.523438 85.207031 29.773438 103.90625 20.363281 126.171875 C 13.613281 137.722656 10.277344 157.054688 10.351562 184.164062 C 10.53125 206.304688 13.523438 224.382812 19.339844 238.398438 L 41.039062 286.414062 C 45.867188 295.4375 52.472656 304.367188 60.855469 313.203125 C 75.699219 327.777344 91.53125 338.078125 108.355469 344.109375 C 131.390625 352.578125 154.230469 356.714844 176.867188 356.519531 C 223.628906 355.429688 265.839844 340.621094 303.503906 312.097656 C 312.667969 304.53125 320.722656 296.636719 327.660156 288.414062 C 336.152344 278.25 342.851562 268.078125 347.761719 257.898438 C 345.84375 263.847656 347.136719 263.027344 351.640625 255.429688 C 359.914062 239.234375 364.257812 220.824219 364.675781 200.199219 C 361.324219 144.746094 343.976562 101.679688 312.628906 71.007812 C 299.007812 56.082031 274.414062 41.695312 238.839844 27.839844 C 223.621094 21.941406 205.351562 18.839844 184.039062 18.535156 " fill-opacity="1" fill-rule="nonzero"/></g></svg>