<svg xmlns="http://www.w3.org/2000/svg" xmlns:xlink="http://www.w3.org/1999/xlink" width="500" zoomAndPan="magnify" viewBox="0 0 375 374.999991" height="500" preserveAspectRatio="xMidYMid meet" version="1.0"><defs><clipPath id="c793f52b3e"><path d="M 3.53125 8 L 367 8 L 367 367.441406 L 3.53125 367.441406 Z M 3.53125 8 " clip-rule="nonzero"/></clipPath></defs><g clip-path="url(#c793f52b3e)"><path fill="#231f20" d="M 176.292969 367.355469 C 171.796875 367.355469 167.316406 367.195312 162.859375 366.875 C 134.707031 364.851562 114.183594 358.488281 98.28125 346.859375 C 89.695312 340.582031 81.75 334.464844 74.414062 328.183594 C 55.0625 313.140625 38.660156 293.835938 26.445312 271.585938 C 11.394531 244.164062 3.527344 213.789062 3.695312 183.742188 C 3.902344 148.253906 14.945312 113.675781 34.796875 86.375 C 46.367188 70.457031 61.238281 56.453125 78.996094 44.753906 C 95.582031 33.824219 114.207031 25.191406 134.359375 19.085938 C 146.742188 15.339844 159.464844 12.6875 172.117188 11.199219 C 186.375 8.417969 200.210938 7.53125 213.367188 8.558594 C 227.976562 9.699219 242.648438 13.253906 256.976562 19.125 C 270.660156 24.734375 283.734375 32.328125 295.839844 41.691406 C 319.625 60.089844 338.710938 85.011719 351.03125 113.757812 C 363.347656 142.503906 368.226562 173.496094 365.132812 203.386719 C 362.042969 233.277344 350.921875 262.621094 332.980469 288.246094 C 315.035156 313.871094 291.253906 334.371094 264.207031 347.523438 C 252.421875 353.253906 239.917969 357.636719 226.976562 360.617188 C 210.429688 365.078125 193.289062 367.363281 176.292969 367.363281 Z M 77.46875 324.347656 C 81.808594 327.726562 86.324219 330.890625 90.984375 333.824219 C 131.214844 359.117188 182.136719 366.539062 228.277344 355.257812 C 258.832031 346.5625 286.753906 330.265625 308.363281 307.742188 C 357.546875 256.480469 371.765625 175.351562 342.9375 110.449219 C 327.238281 75.105469 300.765625 46.804688 268.390625 30.757812 C 240.832031 17.101562 207.445312 12.097656 173.144531 16.007812 C 154.882812 19.570312 135.6875 26.332031 115.722656 36.253906 C 80.214844 53.894531 54 75.648438 37.804688 100.90625 C 20.414062 128.035156 12.320312 163.203125 15.015625 199.9375 C 17.289062 230.910156 27.359375 261.054688 44.136719 287.117188 C 53.285156 301.328125 64.355469 313.09375 77.46875 324.34375 Z M 114.136719 31.582031 C 82.796875 44.828125 56.511719 64.828125 38.757812 89.246094 C 19.507812 115.726562 8.792969 149.296875 8.59375 183.769531 C 8.511719 198.285156 10.375 212.765625 13.972656 226.824219 C 12.074219 218.097656 10.789062 209.230469 10.132812 200.292969 C 8.792969 182.074219 10.003906 164.238281 13.722656 147.292969 C 17.6875 129.234375 24.398438 112.742188 33.683594 98.269531 C 50.363281 72.257812 77.230469 49.917969 113.542969 31.875 C 113.742188 31.777344 113.9375 31.675781 114.136719 31.578125 Z M 114.136719 31.582031 " fill-opacity="1" fill-rule="nonzero"/></g></svg>