<svg xmlns="http://www.w3.org/2000/svg" xmlns:xlink="http://www.w3.org/1999/xlink" width="500" zoomAndPan="magnify" viewBox="0 0 375 374.999991" height="500" preserveAspectRatio="xMidYMid meet" version="1.0"><defs><clipPath id="5198d274d7"><path d="M 189 9.148438 L 196 9.148438 L 196 11 L 189 11 Z M 189 9.148438 " clip-rule="nonzero"/></clipPath><clipPath id="c2ce989fd3"><path d="M 163 9.148438 L 172 9.148438 L 172 12 L 163 12 Z M 163 9.148438 " clip-rule="nonzero"/></clipPath><clipPath id="edfff0bae2"><path d="M 3.394531 10.121094 L 371.5625 10.121094 L 371.5625 365.71875 L 3.394531 365.71875 Z M 3.394531 10.121094 " clip-rule="nonzero"/></clipPath></defs><path fill="#f19c79" d="M 6.03125 160.167969 C 5.59375 159.941406 6.625 155.644531 5.792969 156.496094 C 5.484375 158.265625 5.105469 160.019531 4.859375 161.804688 C 5.050781 161.691406 5.253906 161.796875 5.445312 161.671875 C 5.636719 161.546875 5.808594 161.195312 6.03125 160.167969 " fill-opacity="1" fill-rule="evenodd"/><g clip-path="url(#5198d274d7)"><path fill="#f19c79" d="M 195.050781 10.019531 C 192.515625 9.882812 192.0625 9.453125 189.722656 9.289062 C 188.164062 9.863281 194.304688 10.742188 195.050781 10.019531 " fill-opacity="1" fill-rule="evenodd"/></g><path fill="#f19c79" d="M 276.925781 31.722656 C 275.507812 30.84375 274.285156 30.292969 273.347656 29.804688 C 272.398438 29.332031 271.699219 29.003906 271.203125 28.789062 C 270.21875 28.359375 270.066406 28.394531 270.457031 28.675781 C 270.84375 28.957031 271.777344 29.488281 272.953125 30.058594 C 274.125 30.640625 275.582031 31.199219 276.925781 31.722656 " fill-opacity="1" fill-rule="evenodd"/><path fill="#f19c79" d="M 142.914062 360.035156 C 142.253906 360.046875 139.773438 359.394531 137.359375 358.929688 C 136.152344 358.691406 134.960938 358.488281 134.03125 358.414062 C 133.101562 358.34375 132.445312 358.335938 132.269531 358.621094 C 133.527344 359.007812 134.941406 359.3125 136.339844 359.679688 C 137.746094 360.027344 139.160156 360.382812 140.464844 360.707031 C 141.121094 360.855469 141.746094 361.011719 142.335938 361.117188 C 142.933594 361.214844 143.488281 361.296875 143.988281 361.355469 C 144.984375 361.472656 145.769531 361.496094 146.21875 361.390625 C 143.9375 360.875 144.761719 360.523438 142.914062 360.035156 " fill-opacity="1" fill-rule="evenodd"/><path fill="#f19c79" d="M 164.886719 11.300781 C 162.542969 11.609375 160.175781 11.824219 157.84375 12.277344 C 157.742188 12.816406 159.828125 12.671875 161.789062 12.5 C 163.746094 12.285156 165.566406 11.8125 164.886719 11.300781 " fill-opacity="1" fill-rule="evenodd"/><path fill="#f19c79" d="M 172.015625 11.160156 C 173.773438 11.027344 175.546875 10.898438 177.320312 10.769531 L 177.285156 10.171875 C 175.507812 10.304688 173.730469 10.433594 171.964844 10.566406 L 172.015625 11.160156 " fill-opacity="1" fill-rule="evenodd"/><path fill="#f19c79" d="M 233.394531 358.4375 C 234.84375 359.234375 224.480469 361.269531 230.386719 360.957031 C 231.679688 360.34375 232.816406 359.992188 233.871094 359.707031 C 234.921875 359.402344 235.914062 359.21875 236.925781 359.039062 C 237.9375 358.859375 238.972656 358.683594 240.121094 358.394531 C 241.269531 358.109375 242.53125 357.722656 243.941406 356.996094 C 239.394531 357.523438 250.546875 355.054688 248.589844 354.214844 C 244.445312 355.46875 241.679688 356.585938 239.382812 357.214844 C 237.105469 357.898438 235.375 358.347656 233.394531 358.4375 " fill-opacity="1" fill-rule="evenodd"/><path fill="#f19c79" d="M 282.484375 46.367188 C 283.550781 46.964844 285.402344 48.117188 286.871094 49.222656 C 288.371094 50.289062 289.625 51.109375 289.691406 50.761719 C 288.917969 49.988281 287.28125 48.703125 285.753906 47.707031 C 284.183594 46.769531 282.753906 46.085938 282.484375 46.367188 " fill-opacity="1" fill-rule="evenodd"/><g clip-path="url(#c2ce989fd3)"><path fill="#f19c79" d="M 163.085938 11.222656 C 167.59375 10.636719 169.207031 9.878906 171.863281 9.371094 C 171.09375 9.5 170.109375 9.605469 169.082031 9.710938 C 168.054688 9.863281 166.984375 10.027344 166.027344 10.167969 C 164.125 10.480469 162.699219 10.816406 163.085938 11.222656 " fill-opacity="1" fill-rule="evenodd"/></g><path fill="#f19c79" d="M 369.914062 211.027344 C 369.472656 210.796875 370.269531 206.492188 369.484375 207.367188 C 368.746094 210.980469 369.585938 214.152344 369.914062 211.027344 " fill-opacity="1" fill-rule="evenodd"/><path fill="#f19c79" d="M 367.980469 217.867188 C 366.609375 215.757812 366.472656 225.410156 367.980469 217.867188 " fill-opacity="1" fill-rule="evenodd"/><path fill="#f19c79" d="M 367.605469 223.203125 C 369.933594 216.339844 367.410156 218.949219 367.605469 223.203125 " fill-opacity="1" fill-rule="evenodd"/><g clip-path="url(#edfff0bae2)"><path fill="#f19c79" d="M 367.691406 200.195312 C 367.957031 196.898438 368.863281 199.046875 368.867188 195.003906 C 369.734375 196.597656 368.304688 202.070312 367.691406 200.195312 Z M 366.488281 194.914062 C 366.488281 192.179688 366.59375 190.113281 366.753906 188.417969 L 367.832031 188.417969 C 367.675781 192.597656 367.21875 194.722656 366.488281 194.914062 Z M 362.300781 240.128906 C 361.613281 240.167969 362.574219 236.949219 363.289062 234.429688 C 363.664062 233.167969 363.953125 232.082031 363.921875 231.65625 C 363.886719 231.234375 363.664062 231.519531 362.84375 232.945312 C 363.492188 230.195312 363.832031 230.113281 364.386719 227.910156 L 364.964844 228.054688 C 363.929688 232.9375 363.644531 235.289062 362.300781 240.128906 Z M 361.40625 232.558594 C 362.785156 228.730469 363.972656 221.214844 364.203125 226.109375 C 363.28125 227.996094 362.21875 233.0625 361.40625 232.558594 Z M 361.171875 220.179688 C 361.660156 216.503906 362.992188 214.976562 361.804688 215.109375 C 362.34375 209.875 363.066406 211.976562 363.539062 206.714844 C 363.523438 208.285156 363.378906 211.902344 363 215.007812 C 362.492188 218.097656 361.847656 220.679688 361.171875 220.179688 Z M 360.042969 233.992188 L 359.472656 233.824219 C 359.777344 232.730469 360.148438 231.648438 360.382812 230.539062 L 360.964844 230.6875 C 360.722656 231.808594 360.351562 232.886719 360.042969 233.992188 Z M 358.523438 246.257812 C 358.300781 246.886719 358.066406 247.519531 357.757812 248.28125 C 357.460938 249.039062 357.019531 249.910156 356.488281 251.066406 C 356.761719 250.175781 357.085938 249.113281 357.34375 247.992188 C 357.59375 246.863281 357.851562 245.699219 358.125 244.671875 C 358.671875 242.613281 359.285156 241.050781 360.050781 241.265625 C 359.339844 243.707031 358.960938 244.996094 358.523438 246.257812 Z M 355.34375 246.632812 C 355.058594 247.355469 354.714844 248.070312 354.386719 248.664062 C 354.082031 249.253906 353.832031 249.734375 353.707031 249.96875 C 353.394531 249.730469 353.949219 248.394531 354.5625 246.972656 C 355.152344 245.535156 355.875 244.039062 356.082031 243.566406 C 356.390625 243.816406 355.933594 245.195312 355.34375 246.632812 Z M 352.695312 242.386719 C 351.207031 247.542969 350.449219 247.148438 349.539062 248.316406 C 349.199219 249.585938 348.707031 251.113281 348.132812 252.757812 C 347.863281 253.589844 347.503906 254.417969 347.144531 255.277344 C 346.78125 256.121094 346.414062 256.984375 346.050781 257.847656 C 344.652344 261.34375 342.945312 264.652344 342.097656 267.035156 C 341.691406 266.933594 341.90625 266.019531 342.082031 265.15625 C 341.484375 266.246094 340.894531 267.308594 340.3125 268.371094 C 339.679688 269.398438 339.058594 270.429688 338.425781 271.46875 C 332.515625 281.472656 325.929688 290.675781 320.082031 297.328125 C 318.871094 298.691406 317.707031 299.960938 316.621094 301.125 C 315.492188 302.253906 314.402344 303.25 313.421875 304.136719 C 313.539062 304.917969 310.957031 307.773438 307.984375 310.308594 C 305.117188 312.957031 301.882812 315.246094 301.324219 315.695312 C 298.625 317.914062 295.460938 320.179688 292.257812 322.664062 C 290.621094 323.867188 288.910156 325.019531 287.234375 326.234375 C 286.375 326.824219 285.546875 327.453125 284.675781 328.019531 C 283.804688 328.585938 282.941406 329.140625 282.070312 329.699219 C 281.207031 330.253906 280.339844 330.8125 279.492188 331.359375 C 279.0625 331.632812 278.636719 331.90625 278.214844 332.179688 C 277.785156 332.429688 277.351562 332.679688 276.925781 332.925781 C 275.203125 333.90625 273.53125 334.863281 271.9375 335.765625 C 271.140625 336.230469 270.34375 336.640625 269.554688 337.011719 C 268.773438 337.394531 268.011719 337.757812 267.277344 338.117188 C 265.800781 338.8125 264.429688 339.460938 263.183594 339.984375 C 261.648438 340.964844 263.152344 341.199219 258.914062 342.832031 C 261.011719 340.988281 254.429688 343.378906 254.027344 344.230469 C 255.992188 343.554688 257.738281 342.765625 257.40625 343.496094 C 256.085938 344.039062 254.789062 344.453125 253.570312 344.871094 C 252.339844 345.292969 251.179688 345.691406 250.066406 346.074219 C 247.847656 346.902344 245.769531 347.46875 243.859375 348.082031 C 242.90625 348.390625 241.976562 348.679688 241.078125 348.96875 C 240.628906 349.113281 240.191406 349.261719 239.75 349.402344 C 239.308594 349.519531 238.871094 349.644531 238.441406 349.761719 C 236.699219 350.25 235.035156 350.722656 233.371094 351.1875 C 231.710938 351.703125 230.019531 352.066406 228.257812 352.472656 C 226.496094 352.875 224.679688 353.324219 222.699219 353.710938 C 220.710938 354.042969 218.574219 354.394531 216.242188 354.777344 C 215.652344 354.855469 215.054688 354.949219 214.449219 355.046875 C 213.824219 355.105469 213.191406 355.171875 212.554688 355.238281 C 211.261719 355.355469 209.902344 355.488281 208.488281 355.621094 C 207.769531 355.929688 207.171875 356.246094 206.226562 356.535156 C 205.273438 356.820312 203.957031 357.007812 201.824219 357.148438 C 200.695312 357.082031 199.132812 357.125 197.789062 357.117188 C 196.453125 357.117188 195.324219 356.933594 195.074219 356.652344 C 183.832031 356.941406 171.449219 356.417969 158.785156 354.328125 C 146.136719 352.257812 133.222656 348.605469 121.210938 343.273438 C 113.703125 341.0625 105.464844 337.179688 97.558594 332.304688 C 89.652344 327.394531 82.136719 321.507812 75.414062 315.878906 C 74.214844 314.863281 73.46875 314.402344 72.699219 313.9375 C 71.933594 313.46875 71.117188 313.023438 69.914062 311.941406 C 68.328125 310.5625 66.816406 309.144531 65.375 307.707031 C 63.96875 306.230469 62.664062 304.691406 61.378906 303.207031 C 60.738281 302.460938 60.089844 301.738281 59.484375 300.980469 C 58.886719 300.226562 58.296875 299.480469 57.714844 298.738281 C 56.554688 297.261719 55.355469 295.875 54.203125 294.511719 C 53.589844 294.414062 51.605469 291.863281 50.574219 290.988281 C 49.976562 290.128906 49.347656 289.304688 48.78125 288.464844 C 48.21875 287.621094 47.644531 286.789062 47.078125 285.984375 C 46.503906 285.175781 45.941406 284.390625 45.386719 283.609375 C 44.820312 282.835938 44.246094 282.089844 43.742188 281.308594 C 41.65625 278.21875 39.503906 275.414062 37.703125 272.523438 C 36.773438 271.085938 35.835938 269.707031 34.96875 268.296875 C 34.148438 266.871094 33.351562 265.449219 32.589844 264.035156 C 30.992188 261.226562 29.847656 258.261719 28.785156 255.277344 C 28.351562 255.175781 28.144531 255.90625 27.273438 254.148438 C 26.574219 250.789062 26.265625 250.941406 28.097656 253.789062 C 27.40625 252.121094 26.71875 250.460938 26.035156 248.808594 L 25.003906 246.324219 L 24.109375 243.789062 C 23.519531 242.105469 22.929688 240.417969 22.34375 238.726562 C 21.800781 237.023438 21.320312 235.292969 20.8125 233.570312 C 20.554688 232.707031 20.304688 231.832031 20.046875 230.96875 C 19.78125 230.105469 19.617188 229.210938 19.398438 228.328125 C 18.976562 226.558594 18.5625 224.785156 18.136719 222.992188 C 17.734375 221.1875 17.457031 219.351562 17.101562 217.507812 C 16.769531 215.664062 16.394531 213.8125 16.195312 211.902344 C 15.945312 210.007812 15.699219 208.09375 15.449219 206.148438 C 15.242188 204.195312 15.125 202.210938 14.949219 200.210938 C 14.875 199.207031 14.792969 198.191406 14.710938 197.179688 C 14.675781 196.15625 14.652344 195.128906 14.617188 194.09375 C 14.578125 192.015625 14.460938 189.90625 14.46875 187.761719 C 14.484375 179.1875 15.132812 170.03125 16.667969 160.183594 C 16.492188 161.125 16.070312 162.019531 16.371094 160.136719 C 17.101562 157.1875 17.566406 154.445312 18.207031 151.878906 C 18.496094 150.585938 18.753906 149.316406 19 148.070312 C 19.128906 147.441406 19.246094 146.816406 19.367188 146.199219 C 19.515625 145.585938 19.660156 144.972656 19.808594 144.363281 C 20.097656 143.136719 20.390625 141.925781 20.679688 140.695312 C 20.980469 139.464844 21.234375 138.214844 21.652344 136.976562 C 22.023438 135.730469 22.433594 134.46875 22.855469 133.171875 C 23.3125 131.886719 23.703125 130.523438 24.300781 129.195312 C 23.695312 132.558594 24.765625 128.910156 25.78125 127.949219 C 26.292969 126.761719 26.761719 125.664062 27.164062 124.640625 C 27.570312 123.625 27.929688 122.675781 28.320312 121.820312 C 29.058594 120.085938 29.640625 118.582031 30.148438 117.179688 C 30.386719 116.472656 30.625 115.800781 30.859375 115.144531 C 31.121094 114.488281 31.367188 113.855469 31.617188 113.207031 C 32.121094 111.929688 32.636719 110.625 33.269531 109.183594 L 34.046875 109.613281 C 36.597656 103.90625 39.066406 99.980469 41.507812 96.402344 C 42.101562 95.496094 42.6875 94.609375 43.273438 93.710938 C 43.898438 92.839844 44.519531 91.957031 45.136719 91.046875 C 46.382812 89.226562 47.535156 87.210938 48.9375 85.027344 C 49.851562 84.585938 51.15625 83.445312 52.824219 81.644531 C 52.808594 80.800781 54.09375 79.328125 55.757812 77.453125 C 56.585938 76.515625 57.515625 75.476562 58.445312 74.378906 C 59.433594 73.332031 60.414062 72.230469 61.296875 71.082031 C 64 68.941406 67.125 66.132812 70.480469 62.945312 C 72.242188 61.433594 74.066406 59.839844 75.96875 58.253906 C 77.886719 56.683594 79.980469 55.238281 82.09375 53.800781 C 82.339844 53.355469 82.84375 52.738281 83.472656 52.152344 C 84.117188 51.566406 84.847656 50.953125 85.492188 50.414062 C 86.78125 49.320312 87.71875 48.488281 86.789062 48.652344 C 88.210938 47.960938 89.230469 47.589844 90.398438 47.191406 C 91.582031 46.800781 92.859375 46.320312 94.710938 45.304688 C 95.765625 44.609375 96.726562 43.9375 97.675781 43.355469 C 98.640625 42.796875 99.542969 42.277344 100.421875 41.761719 C 101.304688 41.265625 102.152344 40.78125 103 40.300781 C 103.84375 39.816406 104.675781 39.328125 105.554688 38.902344 C 107.308594 38.007812 109.121094 37.058594 111.167969 35.929688 C 113.21875 34.808594 115.605469 33.671875 118.386719 32.152344 L 118.726562 32.984375 C 126 29.480469 132.6875 26.957031 139.46875 25.070312 C 141.171875 24.597656 142.859375 24.082031 144.578125 23.652344 C 146.296875 23.25 148.039062 22.851562 149.800781 22.445312 C 150.679688 22.246094 151.566406 22.039062 152.464844 21.832031 C 153.371094 21.664062 154.28125 21.488281 155.207031 21.324219 C 157.050781 20.972656 158.933594 20.617188 160.871094 20.253906 C 162.964844 20.070312 164.332031 20.195312 164.34375 20.710938 C 166.257812 20.113281 168.277344 19.691406 170.328125 19.414062 C 172.378906 19.214844 174.460938 19.117188 176.507812 19.007812 C 177.527344 18.972656 178.539062 18.882812 179.535156 18.867188 C 180.542969 18.851562 181.519531 18.816406 182.484375 18.75 C 184.40625 18.625 186.238281 18.386719 187.949219 17.917969 C 194.660156 18.535156 187.617188 18.257812 187.949219 19.117188 C 193.394531 19.515625 190.257812 18.195312 194.765625 18.386719 C 194.699219 18.640625 195.015625 18.84375 195.605469 19 C 196.195312 19.15625 197.058594 19.257812 198.097656 19.414062 C 206.359375 18.710938 215.769531 20.992188 224.878906 22.917969 C 224.878906 22.917969 225.46875 22.453125 226.671875 22.710938 C 229.992188 23.34375 236.164062 25.078125 242.757812 27.429688 C 244.402344 28.027344 246.085938 28.625 247.773438 29.230469 C 249.441406 29.867188 251.082031 30.574219 252.722656 31.214844 C 256 32.445312 259.046875 33.863281 261.78125 34.9375 C 263.875 35.734375 264.753906 35.625 266.632812 36.554688 C 266.632812 36.554688 266.257812 36.542969 265.859375 36.511719 C 265.460938 36.480469 265.027344 36.429688 264.886719 36.355469 C 266.296875 37.167969 269.261719 38.398438 271.886719 39.621094 C 274.261719 40.824219 276.386719 41.953125 276.789062 42.511719 C 276.558594 42.042969 276.851562 41.984375 277.441406 42.167969 C 278.070312 42.367188 279.070312 42.816406 280.074219 43.421875 C 282.117188 44.585938 284.417969 45.988281 284.863281 45.738281 C 285.894531 46.84375 288.105469 48.644531 291.625 51.011719 C 291.90625 51.726562 293.011719 52.566406 291.101562 51.742188 C 292.492188 52.707031 293.640625 53.652344 294.722656 54.492188 C 295.800781 55.328125 296.78125 56.085938 297.714844 56.808594 L 297.140625 57.539062 C 297.636719 57.925781 298.152344 58.328125 298.675781 58.734375 C 299.1875 59.15625 299.703125 59.597656 300.238281 60.039062 C 300.890625 60.238281 301.53125 60.386719 302.269531 60.585938 C 302.667969 60.945312 303.058594 61.300781 303.417969 61.625 C 303.472656 62.074219 304.007812 62.753906 304.792969 63.550781 C 305.574219 64.371094 306.566406 65.351562 307.625 66.324219 C 308.683594 67.289062 309.769531 68.273438 310.707031 69.132812 C 311.621094 70.011719 312.328125 70.808594 312.703125 71.324219 C 312.195312 70.101562 312.410156 69.804688 313.457031 70.492188 C 313.878906 70.898438 314.261719 71.273438 314.679688 71.6875 C 314.15625 71.90625 315.566406 73.507812 315.042969 73.707031 C 315.550781 74.238281 316.03125 74.742188 316.503906 75.234375 C 316.960938 75.742188 317.402344 76.222656 317.824219 76.695312 C 318.679688 77.644531 319.496094 78.515625 320.273438 79.347656 L 319.835938 79.734375 C 321.03125 80.800781 321.84375 81.355469 321.761719 81.011719 C 324.476562 84.417969 327.554688 88.28125 330.214844 91.917969 C 330.441406 92.355469 330.671875 92.789062 330.878906 93.246094 C 330.9375 93.144531 331.054688 93.164062 331.160156 93.164062 C 332.28125 94.535156 333.203125 95.902344 334.144531 97.074219 C 335.066406 98.246094 335.929688 99.265625 336.726562 100.070312 C 336.84375 100.246094 336.972656 100.4375 337.082031 100.597656 C 337.125 100.597656 337.148438 100.5625 337.179688 100.554688 C 337.671875 101.035156 338.089844 101.410156 338.484375 101.675781 L 338.195312 101.847656 C 338.691406 102.796875 339.074219 103.375 339.390625 103.808594 C 339.351562 103.832031 339.292969 103.867188 339.207031 103.859375 C 339.839844 104.914062 340.660156 106.292969 341.457031 107.628906 C 341.300781 108.359375 339.996094 107.46875 338.734375 105.925781 L 338.394531 105.386719 C 337.148438 103.390625 336.019531 101.367188 334.765625 99.484375 C 333.542969 97.597656 332.429688 95.695312 331.238281 93.984375 C 330.015625 92.292969 328.835938 90.691406 327.667969 89.257812 C 327.367188 88.914062 327.066406 88.5625 326.785156 88.222656 C 326.480469 87.898438 326.171875 87.59375 325.863281 87.292969 C 325.25 86.695312 324.632812 86.144531 324.019531 85.664062 C 330.3125 93.253906 333.425781 98.628906 337.636719 105.835938 C 338.277344 106.921875 338.941406 108.054688 339.640625 109.230469 C 340.660156 110.054688 341.804688 110.773438 343.035156 111.902344 C 343.859375 113.617188 344.664062 114.980469 345.253906 116.167969 C 345.859375 117.34375 346.410156 118.285156 346.90625 119.039062 C 347.601562 120.109375 348.203125 120.832031 348.773438 121.40625 C 348.542969 121.238281 348.402344 121.339844 348.335938 121.5625 C 348.175781 122.039062 348.285156 123.058594 348.367188 123.570312 C 347.578125 120.382812 346.914062 120.851562 344.839844 115.917969 C 344.390625 116.40625 344.191406 116.339844 343.84375 115.667969 C 343.484375 115 342.976562 113.71875 341.976562 111.730469 C 341.789062 112.105469 341.980469 112.902344 342.394531 113.929688 C 342.804688 114.953125 343.460938 116.1875 344.050781 117.527344 C 345.261719 120.160156 346.722656 122.90625 346.996094 124.164062 C 347.003906 123.09375 347.164062 122.75 347.65625 123.207031 C 348.109375 123.683594 348.816406 124.984375 349.828125 127.25 C 350.003906 127.703125 350.167969 128.105469 350.34375 128.546875 C 350.84375 130.230469 352.246094 133.976562 351.183594 133.195312 C 350.296875 130.15625 350.941406 130.074219 348.714844 125.210938 C 348.054688 125.082031 348.816406 127.226562 348.242188 127.226562 C 348.804688 128.714844 349.375 130.074219 349.886719 131.363281 C 350.351562 132.664062 350.800781 133.871094 351.242188 135 C 351.679688 136.117188 352.09375 137.175781 352.488281 138.171875 C 352.894531 139.160156 353.164062 140.121094 353.488281 141.027344 C 354.089844 142.847656 354.613281 144.492188 355 146.101562 C 355.367188 147.722656 355.507812 149.332031 355.550781 151.019531 C 355.824219 150.792969 356.140625 151.066406 356.480469 151.847656 C 356.644531 152.238281 356.820312 152.753906 357.011719 153.390625 C 357.195312 154.03125 357.394531 154.796875 357.535156 155.691406 C 358.074219 156.28125 358.15625 155.660156 358.207031 154.953125 C 358.265625 154.25 358.214844 153.464844 358.65625 153.726562 C 359.238281 156.972656 359.667969 156.9375 360.191406 158.582031 C 359.867188 158.859375 359.578125 159.183594 360.207031 161.988281 C 360.941406 164.695312 361.082031 163.632812 361.1875 162.378906 C 361.230469 161.132812 361.199219 159.703125 361.6875 161.75 C 362.34375 165.203125 362.277344 166.828125 362.171875 168.042969 C 362.011719 169.261719 361.820312 170.074219 361.808594 171.976562 C 361.421875 169.5625 361.054688 163.308594 360.46875 163.664062 C 360.691406 166.644531 360.101562 162.96875 359.621094 162.078125 C 359.800781 163.390625 359.652344 164.0625 359.285156 163.847656 C 359.535156 165.996094 360.042969 169.285156 360.277344 171.4375 C 360.410156 173.605469 360.351562 174.609375 359.734375 172.183594 C 359.835938 173.921875 359.941406 175.390625 360.070312 176.644531 C 360.070312 181.625 359.933594 189.664062 359.933594 189.664062 L 359.941406 189.664062 C 359.917969 191.851562 359.894531 194.097656 359.867188 196.34375 C 359.792969 198.527344 359.609375 200.660156 359.488281 202.753906 C 359.414062 203.796875 359.378906 204.828125 359.269531 205.851562 C 359.152344 206.863281 359.035156 207.859375 358.921875 208.847656 C 358.671875 210.816406 358.515625 212.742188 358.234375 214.578125 C 357.941406 216.414062 357.652344 218.171875 357.386719 219.867188 C 357.242188 220.714844 357.144531 221.542969 356.996094 222.347656 C 356.835938 223.144531 356.679688 223.929688 356.53125 224.683594 C 356.230469 226.210938 355.964844 227.648438 355.734375 229 C 355.535156 230.355469 355.226562 231.59375 355.019531 232.746094 C 354.804688 233.894531 354.628906 234.949219 354.503906 235.894531 C 354.003906 235.695312 353.441406 236.957031 352.660156 238.859375 C 352.035156 242.261719 353.074219 240.496094 352.695312 242.386719 Z M 341.699219 276.699219 C 340.910156 278.171875 340.273438 278.511719 340.195312 278.078125 C 340.121094 277.65625 340.539062 276.433594 341.824219 274.730469 L 342.332031 275.039062 C 341.539062 276.277344 341.597656 276.511719 341.699219 276.699219 Z M 342.769531 276.929688 C 342.578125 277.390625 342.28125 278.011719 341.921875 278.734375 C 341.535156 279.449219 341.050781 280.226562 340.558594 281.035156 C 339.574219 282.628906 338.492188 284.257812 337.695312 285.25 C 336.917969 286.257812 336.351562 286.570312 336.566406 285.6875 C 337.691406 283.703125 339.203125 281.65625 340.40625 280.046875 C 341.632812 278.460938 342.40625 277.222656 342.203125 277.007812 C 343.070312 275.835938 343.144531 276.027344 342.769531 276.929688 Z M 331.277344 291.921875 C 330.132812 293.382812 328.738281 295.0625 327.480469 296.59375 C 326.84375 297.367188 326.253906 298.105469 325.714844 298.738281 C 325.160156 299.367188 324.675781 299.910156 324.320312 300.316406 C 324.425781 299.742188 324.910156 299.023438 325.589844 298.191406 C 326.230469 297.335938 327.085938 296.371094 327.972656 295.371094 C 328.871094 294.355469 329.816406 293.300781 330.648438 292.261719 C 331.46875 291.207031 332.117188 290.128906 332.53125 289.171875 C 334.730469 286.9375 333.445312 288.925781 331.277344 291.921875 Z M 330.164062 296.132812 C 327.742188 298.855469 327.480469 298.699219 328.355469 296.929688 L 330.574219 294.203125 C 331.261719 294.113281 329.933594 295.808594 330.164062 296.132812 Z M 327.574219 300.332031 C 327.085938 300.917969 326.394531 301.621094 325.707031 302.269531 C 324.800781 303.164062 323.886719 303.976562 323.574219 304.285156 C 324.078125 303.332031 324.574219 302.375 323.132812 303.886719 C 323.347656 303.039062 324.121094 302.410156 325.074219 301.710938 C 326.039062 301.023438 327.292969 300.273438 328.203125 299.023438 C 328.320312 299.230469 328.054688 299.730469 327.574219 300.332031 Z M 322.242188 303.082031 C 322.683594 303.117188 321.917969 304.09375 321.070312 305.140625 C 320.199219 306.171875 319.214844 307.214844 319.347656 307.5 C 317.378906 308.730469 314.828125 311.054688 311.265625 314.128906 C 311.121094 313.953125 311.65625 313.347656 312.496094 312.53125 C 313.339844 311.726562 314.496094 310.730469 315.507812 309.699219 C 317.574219 307.667969 319.386719 305.832031 318.046875 306.253906 C 318.980469 305.566406 319.484375 305.101562 319.949219 304.578125 C 320.398438 304.03125 320.804688 303.429688 321.578125 302.476562 C 325.714844 297.984375 317.152344 308.332031 322.242188 303.082031 Z M 309.726562 317.589844 C 310.984375 316.257812 312.136719 314.804688 313.304688 313.46875 C 313.890625 312.808594 314.476562 312.164062 315.082031 311.585938 C 315.667969 310.976562 316.269531 310.429688 316.914062 309.964844 C 315.765625 311.851562 312.976562 314.515625 309.726562 317.589844 Z M 304.191406 321.875 L 303.816406 321.417969 L 306.496094 319.160156 L 306.890625 319.617188 Z M 298.402344 328.667969 C 296.25 329.113281 300.179688 326.398438 300.460938 325.59375 C 303.46875 323.429688 301.640625 326.472656 298.402344 328.667969 Z M 299.183594 323.941406 L 296.453125 326.027344 L 295.910156 325.304688 C 297.089844 324.613281 298.308594 323.875 300.203125 322.414062 C 300.097656 322.804688 299 323.699219 299.183594 323.941406 Z M 280.332031 336.023438 C 278.914062 336.613281 277.449219 337.21875 277.292969 337.726562 C 270.976562 340.867188 282.027344 333.660156 280.332031 336.023438 Z M 291.882812 331.214844 C 290.878906 331.886719 289.855469 332.578125 288.851562 333.25 C 287.8125 333.871094 286.800781 334.488281 285.835938 335.070312 C 284.308594 336.902344 290.878906 333.410156 286.636719 336.339844 C 282.25 338.945312 285.316406 336.214844 281.394531 337.832031 C 277.609375 340.722656 276.082031 341.878906 276.140625 342.816406 C 274.617188 343.703125 273.015625 344.4375 271.449219 345.234375 L 266.710938 347.574219 C 267.492188 346.722656 271.480469 343.671875 272.359375 343.109375 C 274.277344 341.90625 275.203125 341.996094 275.574219 341.761719 C 277.21875 340.683594 278.089844 339.859375 278.960938 339.019531 C 279.832031 338.175781 280.753906 337.386719 282.382812 336.167969 C 284.785156 334.410156 288.226562 332.902344 288.453125 332.738281 C 290.105469 331.546875 291.34375 330.519531 292.929688 329.246094 C 293.710938 328.609375 294.621094 327.953125 295.652344 327.113281 C 296.683594 326.265625 297.886719 325.304688 299.363281 324.175781 C 301.738281 323.402344 300.277344 324.929688 297.304688 327.332031 C 295.84375 328.566406 293.875 329.84375 291.882812 331.214844 Z M 289.433594 334.238281 L 289.109375 333.738281 L 291.976562 331.765625 L 292.316406 332.253906 Z M 263.820312 346.609375 C 264.464844 346.34375 265.125 346.089844 265.765625 345.855469 C 266.398438 345.621094 266.976562 345.382812 267.503906 345.207031 C 268.542969 344.859375 269.289062 344.710938 269.378906 344.929688 C 266.28125 346.546875 263.035156 347.855469 259.839844 349.289062 C 258.925781 348.953125 261.238281 347.691406 263.820312 346.609375 Z M 257.429688 348.046875 C 255.445312 348.539062 252.953125 349.335938 249.265625 350.847656 C 248.992188 349.128906 259.347656 347.175781 259.988281 345.300781 C 265.949219 343.375 257.238281 347.566406 257.429688 348.046875 Z M 224.179688 360.746094 C 223.117188 361.003906 221.8125 361.210938 220.378906 361.398438 C 218.949219 361.585938 217.394531 361.78125 215.800781 361.988281 C 214.214844 362.140625 212.585938 362.292969 211.050781 362.539062 C 209.574219 361.835938 215.371094 361.515625 216.050781 360.871094 C 216.109375 361.242188 216.921875 361.1875 218.625 360.9375 C 219.480469 360.796875 220.550781 360.632812 221.863281 360.421875 C 222.527344 360.328125 223.242188 360.222656 224.019531 360.105469 C 224.800781 360 225.625 359.824219 226.527344 359.675781 C 226.058594 360.097656 225.242188 360.472656 224.179688 360.746094 Z M 92.34375 339.5625 C 91.066406 338.433594 90.367188 338.058594 89.398438 337.5625 C 88.914062 337.316406 88.367188 337.046875 87.640625 336.640625 C 86.921875 336.214844 86 335.707031 84.878906 334.851562 C 85.933594 335.285156 86.871094 335.511719 88.078125 335.980469 C 89.28125 336.453125 90.757812 337.179688 92.960938 338.53125 Z M 70.449219 321.859375 C 71.410156 322.347656 72.257812 322.960938 72.886719 323.523438 C 73.535156 324.074219 74 324.539062 74.132812 324.789062 C 74.425781 325.265625 73.359375 324.898438 70.449219 321.859375 Z M 66.792969 318.703125 C 65.421875 317.5625 64.019531 316.238281 63.617188 316.300781 C 62.484375 315.320312 62.472656 315.089844 62.558594 314.917969 C 62.492188 314.582031 61.726562 313.789062 60.738281 312.847656 C 59.75 311.910156 58.636719 310.746094 57.730469 309.808594 C 58.917969 310.929688 60 311.875 61.128906 312.640625 C 62.261719 313.394531 63.320312 314.101562 64.417969 314.832031 C 65.496094 315.5625 66.566406 316.359375 67.707031 317.296875 C 68.878906 318.210938 70.089844 319.308594 71.402344 320.710938 C 69.988281 320.085938 66.792969 317.480469 64.425781 315.421875 C 64.492188 315.753906 65.246094 316.535156 66.226562 317.464844 C 67.207031 318.402344 68.488281 319.382812 69.472656 320.261719 C 69.484375 320.808594 68.1875 319.8125 66.792969 318.703125 Z M 60.175781 314.773438 C 60.175781 314.933594 63.597656 318.3125 63.921875 318.621094 C 63.96875 319.316406 56.695312 312.5 60.175781 314.773438 Z M 52.277344 305.429688 C 50.746094 303.929688 49.054688 302.152344 48.257812 301.804688 C 47.210938 300.726562 47.261719 300.464844 47.359375 300.308594 L 47.820312 299.917969 C 43.9375 295.082031 50.898438 302.167969 47.386719 297.972656 C 48.203125 298.449219 48.980469 299.742188 50.21875 301.394531 C 50.824219 302.234375 51.523438 303.191406 52.34375 304.203125 C 53.183594 305.207031 54.09375 306.3125 55.292969 307.332031 C 55.222656 308.089844 53.769531 306.960938 52.277344 305.429688 Z M 45.617188 290.511719 C 47.527344 292.933594 47.601562 293.566406 49.6875 296.066406 C 49.554688 296.53125 48.089844 294.621094 46.769531 292.941406 C 45.417969 291.296875 44.347656 289.769531 44.671875 291.238281 L 42.636719 288.464844 C 43.035156 288.582031 42.480469 287.777344 41.847656 286.890625 C 42.042969 285.941406 46.382812 293.34375 45.617188 290.511719 Z M 43.957031 296.074219 C 43.402344 295.582031 42.726562 294.910156 41.972656 294.03125 C 41.25 293.132812 40.425781 292.046875 39.503906 290.765625 C 38.808594 289.414062 39.539062 289.441406 38.160156 287.421875 C 39.753906 288.632812 40.46875 290.070312 41.214844 291.554688 C 41.589844 292.292969 41.972656 293.050781 42.460938 293.789062 C 42.984375 294.503906 43.632812 295.195312 44.496094 295.832031 C 44.546875 295.371094 43.515625 294.355469 43.382812 294.453125 C 41.929688 292.527344 42.15625 292.320312 42.886719 293.058594 C 43.632812 293.761719 45.050781 295.285156 46.042969 296.785156 C 45.765625 297.292969 45.078125 297.0625 43.957031 296.074219 Z M 40.632812 294.320312 C 41.53125 294.835938 42.859375 295.925781 43.800781 296.386719 C 46.371094 299.828125 43.191406 298.105469 40.632812 294.320312 Z M 35.71875 289.140625 C 34.996094 288.183594 34.375 287.144531 33.691406 286.152344 C 33.808594 285.128906 35.527344 288.035156 37.238281 290.203125 C 36.839844 290.078125 35.960938 288.964844 35.71875 289.140625 Z M 18.3125 250.367188 C 18.863281 250.574219 20.390625 255.207031 20.847656 255.015625 C 21.304688 256.351562 21.445312 256.953125 21.394531 257.027344 C 21.328125 257.117188 21.042969 256.695312 20.6875 256 C 19.96875 254.59375 18.878906 252.085938 18.3125 250.367188 Z M 30.917969 279.757812 C 29.648438 277.546875 28.234375 275 27.214844 273.445312 C 27.382812 272.78125 28.519531 274.640625 28.910156 274.539062 C 27.910156 272.949219 27.089844 271.402344 26.277344 269.949219 C 25.457031 268.496094 24.664062 267.117188 23.890625 265.773438 C 22.417969 263.039062 21.070312 260.382812 19.601562 257.492188 C 20.191406 258.207031 20.8125 258.972656 21.144531 258.699219 C 25.03125 267.199219 25.25 265.1875 29.007812 270.480469 C 29.898438 272.257812 29.191406 271.453125 28.75 270.621094 C 28.726562 271.042969 28.992188 271.535156 29.476562 272.226562 C 29.964844 272.914062 30.636719 273.832031 31.367188 275.164062 C 31.308594 276.675781 29.066406 272.476562 28.519531 272.714844 C 29.480469 274.101562 30.4375 275.476562 31.316406 276.808594 C 32.222656 278.128906 32.996094 279.4375 33.78125 280.59375 C 35.304688 282.9375 36.332031 284.96875 36.417969 286.476562 C 33.292969 281.332031 30.933594 278.785156 33.984375 283.875 C 33.5 283.71875 32.214844 281.949219 30.917969 279.757812 Z M 17.09375 248.929688 C 17.09375 247.503906 15.6875 243.535156 16.503906 243.609375 C 18.089844 247.902344 18.003906 249.179688 17.09375 248.929688 Z M 15.066406 242.214844 C 14.777344 241.640625 13.5625 238.253906 12.472656 234.789062 C 12.207031 233.925781 11.917969 233.0625 11.71875 232.222656 C 11.527344 231.386719 11.363281 230.578125 11.230469 229.859375 C 10.980469 228.421875 10.90625 227.324219 11.121094 226.898438 C 12.472656 234.339844 12.910156 233.839844 15.066406 240.355469 C 14.652344 240.195312 14.660156 240.894531 15.066406 242.214844 Z M 10.382812 185.164062 C 9.867188 185.480469 9.796875 183.609375 9.8125 181.300781 C 9.8125 180.722656 9.816406 180.113281 9.828125 179.507812 C 9.867188 178.910156 9.902344 178.304688 9.945312 177.722656 C 10.007812 176.570312 10.050781 175.523438 10.003906 174.792969 C 10.074219 176.304688 10.242188 177.453125 10.316406 178.9375 C 10.40625 180.421875 10.53125 182.257812 10.382812 185.164062 Z M 9.300781 222.347656 C 9.070312 221.386719 8.9375 220.414062 8.820312 219.359375 C 8.722656 218.308594 8.605469 217.179688 8.472656 215.871094 C 8.332031 214.578125 8.257812 213.101562 7.996094 211.398438 C 7.875 212.367188 7.757812 213.28125 7.34375 213.289062 C 7.292969 211.828125 7.203125 210.367188 7.070312 208.8125 C 6.996094 208.042969 6.921875 207.246094 6.847656 206.421875 C 6.792969 205.589844 6.746094 204.726562 6.695312 203.824219 C 6.570312 202.011719 6.4375 200.042969 6.289062 197.828125 C 6.222656 195.609375 6.199219 193.144531 6.164062 190.363281 C 6.761719 190.417969 6.671875 195.1875 7.453125 193.890625 C 7.511719 195.433594 7.476562 196.90625 7.59375 198.300781 C 7.683594 199.703125 7.773438 201.050781 7.867188 202.34375 C 7.941406 203.648438 8.015625 204.910156 8.097656 206.140625 C 8.226562 207.378906 8.347656 208.582031 8.464844 209.785156 C 8.878906 214.617188 9.507812 219.351562 10.417969 225.238281 C 9.851562 224.253906 9.527344 223.304688 9.300781 222.347656 Z M 8.171875 155.121094 C 8.597656 152.289062 9.019531 152.203125 9.566406 149.980469 C 9.945312 149.722656 9.535156 151.6875 9.144531 153.402344 C 8.773438 155.109375 8.289062 156.539062 8.171875 155.121094 Z M 9.277344 160.699219 C 9.085938 156.046875 11.5625 156.832031 9.277344 160.699219 Z M 13.140625 157.859375 C 13.238281 158.457031 13.207031 159.390625 13.082031 160.558594 C 13.015625 161.140625 12.933594 161.78125 12.851562 162.476562 C 12.78125 163.164062 12.703125 163.914062 12.617188 164.695312 C 12.175781 166.164062 11.679688 165.597656 11.28125 168.023438 C 10.796875 166.914062 12.484375 161.59375 13.140625 157.859375 Z M 13.613281 136.460938 C 14.171875 135.140625 14.90625 134.1875 14.941406 134.988281 C 14.492188 136.070312 14.195312 136.703125 13.871094 137.347656 C 13.539062 138.007812 13.214844 138.667969 12.832031 139.867188 C 12.574219 139.417969 13.046875 137.773438 13.613281 136.460938 Z M 14.402344 131.085938 C 15.140625 125.617188 17.242188 125.738281 14.402344 131.085938 Z M 16.644531 142.796875 C 16.917969 143.46875 16.585938 144.332031 16.113281 145.429688 C 15.699219 146.535156 15.152344 147.878906 14.917969 149.472656 C 14.585938 149.257812 14.902344 147.820312 15.347656 146.316406 C 15.554688 145.5625 15.839844 144.804688 16.09375 144.175781 C 16.34375 143.554688 16.550781 143.039062 16.644531 142.796875 Z M 18.613281 130.878906 C 18.894531 129.910156 19.261719 128.605469 19.78125 127.441406 C 20.761719 125.09375 21.785156 123.082031 21.691406 124.492188 C 21.003906 126.371094 20.339844 127.882812 19.792969 129.1875 C 19.277344 130.496094 18.804688 131.5625 18.34375 132.476562 C 18.210938 132.515625 18.339844 131.851562 18.613281 130.878906 Z M 65.039062 57.398438 C 65.605469 56.75 66.449219 55.984375 67.632812 55 C 67.449219 55.386719 67.117188 55.878906 66.535156 56.5 C 66.242188 56.816406 65.886719 57.164062 65.472656 57.554688 C 65.066406 57.96875 64.59375 58.425781 64.035156 58.933594 C 64.175781 58.550781 64.484375 58.054688 65.039062 57.398438 Z M 79.242188 46.960938 C 80.386719 46.105469 81.53125 45.242188 80.359375 45.464844 C 81.257812 44.992188 82.28125 44.410156 83.492188 43.644531 C 84.714844 42.890625 86.082031 41.886719 87.828125 40.789062 C 87.949219 41.171875 87.609375 41.644531 86.964844 42.183594 C 86.316406 42.722656 85.417969 43.394531 84.378906 44.078125 C 83.339844 44.757812 82.195312 45.511719 81.09375 46.238281 C 80.535156 46.609375 80.003906 46.984375 79.507812 47.347656 C 79.015625 47.75 78.578125 48.136719 78.1875 48.519531 C 77.03125 48.785156 78.136719 47.871094 79.242188 46.960938 Z M 104.800781 31.507812 C 103.894531 32.296875 101.3125 33.582031 102.082031 33.863281 C 98.199219 35.867188 101.414062 32.828125 104.800781 31.507812 Z M 114.226562 26.769531 C 114.597656 26.578125 115.164062 26.316406 115.960938 25.964844 C 116.75 25.601562 117.804688 25.210938 119.144531 24.753906 C 117.472656 25.824219 114.878906 26.921875 113.96875 27.136719 C 113.511719 27.253906 113.484375 27.164062 114.226562 26.769531 Z M 159.980469 14.339844 C 159.265625 14.832031 157.839844 15.332031 154.890625 15.828125 C 153.960938 15.347656 157.257812 14.839844 159.980469 14.339844 Z M 182.667969 12.074219 C 180.757812 12.308594 179.355469 12.5625 178.265625 12.945312 C 177.175781 13.335938 176.398438 13.75 175.742188 14.183594 C 172.171875 14.367188 174.0625 13.195312 170.46875 13.378906 C 173.707031 12.429688 178.574219 11.125 182.667969 12.074219 Z M 203.777344 12.339844 C 201.785156 12.121094 202.804688 11.964844 203.800781 12.042969 C 204.160156 11.816406 203.164062 11.714844 202.050781 11.617188 C 204.351562 10.871094 207.304688 12.339844 203.777344 12.339844 Z M 210.488281 15.734375 L 213.917969 16.160156 L 213.832031 16.746094 L 210.414062 16.332031 Z M 239.824219 19.199219 C 240.582031 19.347656 241.425781 19.503906 242.316406 19.730469 C 243.203125 19.988281 244.140625 20.261719 245.121094 20.542969 C 244.75 20.792969 245.382812 21.191406 246.625 21.664062 C 246.492188 22.054688 244.484375 21.582031 242.25 20.878906 C 240 20.238281 237.492188 19.441406 236.453125 18.933594 C 237.117188 18.808594 238.304688 18.925781 239.824219 19.199219 Z M 280.988281 37.824219 C 281.601562 37.996094 282.738281 38.546875 284.640625 39.621094 C 283.097656 39.488281 281.222656 38.421875 280.613281 37.980469 C 280.324219 37.75 280.375 37.632812 280.988281 37.824219 Z M 319.96875 77.34375 C 320.40625 77.957031 320.535156 78.339844 320.027344 78.222656 C 318.640625 76.53125 318.480469 75.808594 317.320312 74.335938 C 318.191406 75.273438 319.0625 76.289062 319.96875 77.34375 Z M 349.488281 122.085938 C 349.5625 122.351562 349.644531 122.644531 349.746094 122.976562 C 349.429688 122.285156 349.171875 121.847656 348.964844 121.597656 C 349.140625 121.773438 349.316406 121.925781 349.488281 122.085938 Z M 364.652344 214.820312 C 364.667969 215.246094 364.636719 215.773438 364.578125 216.335938 C 364.445312 217.484375 364.195312 218.828125 363.878906 220.132812 C 363.566406 221.445312 363.230469 222.714844 362.847656 223.703125 C 362.460938 224.683594 362.101562 225.382812 361.867188 225.578125 C 361.980469 224.941406 362.152344 224.152344 362.378906 223.261719 C 362.550781 222.367188 362.765625 221.367188 363 220.316406 C 363.242188 219.269531 363.492188 218.164062 363.738281 217.0625 C 363.988281 215.953125 364.277344 214.851562 364.429688 213.773438 C 364.542969 214.011719 364.621094 214.378906 364.652344 214.820312 Z M 364.578125 182 C 364.710938 184.691406 364.714844 186.75 364.640625 188.417969 L 363.566406 188.417969 C 363.507812 184.351562 363.847656 182.242188 364.578125 182 Z M 5.148438 178.445312 C 4.851562 180.050781 4.628906 181.203125 4.207031 181.492188 C 4.328125 179.617188 4.578125 176.96875 4.84375 175.007812 C 5.117188 173.054688 5.453125 171.804688 5.964844 172.726562 C 5.714844 174.808594 5.453125 176.851562 5.148438 178.445312 Z M 370.007812 188.417969 L 371.433594 188.417969 C 371.328125 185.671875 371.210938 182.8125 371.097656 179.957031 C 371.003906 178.140625 370.789062 176.363281 370.644531 174.621094 C 370.464844 172.875 370.363281 171.144531 370.132812 169.476562 C 369.890625 167.808594 369.652344 166.171875 369.417969 164.578125 C 369.171875 162.992188 368.996094 161.429688 368.65625 159.933594 C 368.761719 159.636719 368.886719 159.296875 369.027344 158.90625 C 369.550781 161.355469 369.867188 163.222656 370.28125 164.394531 C 370.683594 165.566406 371.105469 166.054688 371.5625 165.765625 L 371.152344 162.585938 L 370.945312 160.992188 L 370.65625 159.40625 C 370.265625 157.289062 369.875 155.167969 369.484375 153.046875 C 369.070312 150.917969 368.496094 148.808594 368.007812 146.675781 C 367.75 145.609375 367.484375 144.550781 367.226562 143.480469 C 366.910156 142.414062 366.59375 141.359375 366.28125 140.289062 C 365.960938 139.226562 365.640625 138.15625 365.324219 137.082031 C 364.992188 136.011719 364.695312 134.925781 364.296875 133.871094 C 363.53125 131.738281 362.757812 129.59375 361.980469 127.417969 C 361.164062 125.257812 360.207031 123.125 359.304688 120.941406 C 358.433594 118.738281 357.359375 116.605469 356.304688 114.421875 C 354.617188 110.742188 352.667969 107.347656 350.902344 104.074219 C 350.46875 103.253906 349.996094 102.464844 349.511719 101.691406 C 349.039062 100.921875 348.574219 100.15625 348.109375 99.410156 C 347.179688 97.914062 346.308594 96.433594 345.394531 95.066406 C 343.492188 92.355469 341.785156 89.800781 340.0625 87.597656 C 338.320312 85.414062 336.726562 83.480469 335.28125 81.84375 C 335.164062 81.511719 335.039062 81.179688 334.9375 80.90625 C 334.863281 81.03125 334.765625 81.113281 334.707031 81.230469 C 333.910156 80.421875 333.144531 79.671875 332.472656 79.054688 C 332.746094 78.914062 332.582031 78.398438 332.191406 77.703125 C 332.25 77.511719 332.148438 77.152344 331.800781 76.5625 C 331.210938 75.933594 330.589844 75.269531 329.941406 74.585938 L 327.917969 72.558594 C 326.554688 71.207031 325.199219 69.855469 323.960938 68.699219 C 323.886719 68.464844 323.765625 68.199219 323.621094 67.945312 C 322.492188 67.039062 321.171875 65.859375 319.761719 64.546875 C 319.054688 63.894531 318.324219 63.203125 317.574219 62.503906 C 316.804688 61.832031 316.015625 61.152344 315.234375 60.472656 L 315.742188 59.929688 C 313.714844 57.925781 312.609375 57.097656 311.746094 56.425781 C 310.855469 55.777344 310.191406 55.304688 309.0625 53.984375 C 308.765625 53.902344 308.5 53.871094 308.226562 53.84375 C 307.335938 53.070312 306.492188 52.332031 305.59375 51.566406 C 304.792969 50.496094 302.589844 48.859375 300.726562 47.308594 C 300.550781 47.824219 299.855469 47.8125 298.625 47.214844 C 300.800781 48.976562 301.582031 49.234375 302.945312 50.132812 L 302.472656 50.730469 C 299.890625 48.605469 297.015625 46.695312 295.953125 44.90625 C 294.507812 44.328125 292.199219 43.28125 289.914062 41.96875 C 287.5625 40.738281 285.214844 39.269531 283.746094 37.652344 C 286.054688 39.019531 289.234375 41.179688 289.925781 41.136719 C 288.328125 39.925781 286.851562 38.839844 285.449219 37.84375 C 284.75 37.359375 284.070312 36.886719 283.40625 36.429688 C 282.738281 35.972656 282.058594 35.601562 281.414062 35.203125 C 280.097656 34.429688 278.828125 33.710938 277.558594 33.015625 C 276.921875 32.675781 276.289062 32.335938 275.648438 31.996094 C 275 31.664062 274.335938 31.363281 273.664062 31.050781 C 272.316406 30.433594 270.933594 29.792969 269.464844 29.121094 C 268.722656 28.78125 267.96875 28.414062 267.167969 28.074219 C 266.371094 27.746094 265.535156 27.402344 264.671875 27.046875 C 262.941406 26.316406 261.074219 25.527344 259.015625 24.65625 C 256.921875 23.859375 254.640625 22.976562 252.121094 21.964844 C 247.910156 20.808594 254.796875 23.90625 250.046875 22.480469 L 246.71875 21.382812 C 246.792969 20.96875 247.722656 21.011719 248.703125 21.089844 C 246.441406 20.144531 244.449219 19.472656 242.648438 18.949219 C 240.832031 18.484375 239.1875 18.195312 237.625 17.894531 C 236.0625 17.605469 234.59375 17.28125 233.074219 16.917969 C 231.546875 16.574219 229.984375 16.117188 228.265625 15.410156 C 225.675781 16.066406 231.136719 17.140625 233.082031 18.019531 C 223.828125 15.695312 219.828125 15.214844 214.332031 13.195312 C 215.683594 13.285156 216.738281 13.476562 217.644531 13.652344 C 218.546875 13.824219 219.296875 14 220 14.175781 C 221.40625 14.523438 222.660156 14.871094 224.71875 15.230469 C 225.53125 14.972656 225.144531 14.539062 223.988281 14.160156 C 222.84375 13.761719 220.957031 13.335938 218.839844 12.9375 C 217.777344 12.746094 216.664062 12.53125 215.550781 12.398438 C 214.433594 12.273438 213.320312 12.15625 212.28125 12.066406 C 210.195312 11.882812 208.386719 11.765625 207.363281 11.742188 C 205.910156 11.136719 204.832031 10.585938 200.394531 10.296875 C 199.433594 10.679688 198.140625 10.761719 196.652344 10.835938 C 195.164062 10.902344 193.503906 10.828125 191.820312 10.710938 C 190.972656 10.644531 190.117188 10.570312 189.277344 10.503906 C 188.863281 10.460938 188.445312 10.429688 188.039062 10.386719 C 187.625 10.371094 187.226562 10.355469 186.828125 10.339844 C 185.25 10.273438 183.804688 10.222656 182.675781 10.28125 C 182.675781 10.363281 179.769531 11.226562 180.648438 11.226562 C 179.894531 11.277344 179.113281 11.328125 178.34375 11.375 C 177.542969 11.449219 176.746094 11.519531 175.941406 11.59375 C 174.324219 11.726562 172.683594 11.859375 171.058594 11.992188 C 169.421875 12.097656 167.804688 12.382812 166.226562 12.679688 C 164.648438 12.988281 163.113281 13.351562 161.644531 13.808594 C 161.71875 13.511719 161.070312 13.410156 160.046875 13.460938 C 159.023438 13.535156 157.625 13.742188 156.160156 13.96875 C 154.699219 14.199219 153.179688 14.449219 151.933594 14.597656 C 150.679688 14.746094 149.710938 14.90625 149.308594 14.765625 C 151.621094 14.191406 152.539062 14.015625 152.679688 13.867188 C 152.8125 13.726562 152.183594 13.703125 151.429688 13.675781 C 149.933594 13.660156 147.949219 13.78125 150.703125 12.921875 C 145.226562 13.992188 143.140625 15.445312 143.640625 13.882812 C 141.675781 14.277344 139.734375 14.855469 137.917969 15.351562 C 136.109375 15.859375 134.429688 16.351562 133.085938 16.816406 C 130.410156 17.859375 129.023438 18.726562 130.269531 19.191406 C 133.679688 18.183594 134.925781 17.664062 136.167969 17.089844 C 137.390625 16.515625 138.632812 15.941406 142.085938 15.15625 C 142.160156 15.445312 143.597656 15.171875 143.988281 15.335938 C 138.679688 16.9375 153.019531 13.824219 142.734375 17.761719 C 141.429688 17.453125 139.644531 18.078125 137.402344 18.964844 C 136.289062 19.40625 135.054688 19.898438 133.707031 20.425781 C 132.378906 20.992188 130.933594 21.542969 129.363281 22.007812 C 128.816406 21.589844 131.058594 20.75 130.636719 20.328125 C 125.304688 21.351562 120.003906 23.464844 115.371094 25.375 C 113.0625 26.382812 110.902344 27.3125 108.949219 28.027344 C 107.027344 28.808594 105.324219 29.410156 103.871094 29.636719 C 104.515625 29.746094 104.476562 30.070312 103.746094 30.597656 C 103.382812 30.863281 102.847656 31.183594 102.140625 31.546875 C 101.429688 31.902344 100.554688 32.328125 99.542969 32.859375 C 102.898438 29.734375 92.445312 36.261719 94.902344 35.453125 C 87.8125 39.488281 85.433594 40.191406 75.378906 47.648438 C 75.339844 48.113281 75.3125 48.570312 74.695312 49.339844 C 74.390625 49.722656 73.933594 50.179688 73.253906 50.761719 C 72.914062 51.054688 72.511719 51.367188 72.054688 51.726562 C 71.609375 52.097656 71.101562 52.515625 70.523438 52.972656 C 72.703125 50.4375 69.589844 52.53125 67.050781 54.316406 C 67.214844 55.113281 67.023438 55.148438 66.386719 55.398438 C 65.746094 55.652344 64.609375 56.085938 63.03125 57.820312 C 62.351562 59.074219 61.394531 60.011719 60.3125 60.988281 C 59.773438 61.476562 59.210938 61.964844 58.628906 62.503906 C 58.070312 63.0625 57.515625 63.683594 56.976562 64.382812 C 56.785156 65.378906 58.183594 63.957031 59.742188 62.5625 C 61.3125 61.175781 62.929688 59.707031 62.929688 60.363281 C 61.496094 61.65625 60.042969 62.855469 58.738281 64.125 C 57.425781 65.402344 56.15625 66.648438 54.933594 67.902344 C 54.328125 68.523438 53.710938 69.136719 53.140625 69.769531 C 52.582031 70.425781 52.035156 71.074219 51.503906 71.730469 C 50.433594 73.042969 49.410156 74.363281 48.457031 75.714844 C 48.523438 75.046875 49.695312 73.476562 48.738281 73.597656 C 46.902344 75.707031 45.859375 76.871094 44.722656 78.058594 C 44.164062 78.65625 43.59375 79.261719 42.925781 80.042969 C 42.277344 80.820312 41.472656 81.710938 40.632812 83.015625 C 39.132812 86.011719 41.132812 83.59375 41.832031 83.921875 C 39.480469 86.003906 38.003906 88.105469 36.730469 90.5 C 36.125 91.710938 35.503906 92.964844 34.820312 94.324219 C 34.140625 95.6875 33.300781 97.082031 32.429688 98.703125 C 33.253906 95.296875 30.933594 99.101562 29.226562 102.929688 C 29.324219 102.414062 30.453125 98.609375 28.195312 102.332031 C 28.277344 102.835938 27.582031 104.234375 26.96875 105.746094 C 26.941406 104.132812 25.515625 106.734375 24.019531 109.523438 C 23.644531 110.21875 23.253906 110.925781 22.921875 111.589844 C 22.589844 112.269531 22.273438 112.894531 22 113.398438 C 21.4375 114.414062 21.003906 114.96875 20.835938 114.554688 C 21.652344 113.183594 22.289062 111.898438 22.945312 110.683594 C 23.609375 109.480469 24.21875 108.300781 24.8125 107.089844 C 25.414062 105.867188 26.035156 104.617188 26.707031 103.242188 C 27.449219 101.90625 28.261719 100.464844 29.214844 98.84375 C 28.363281 99.488281 27.421875 100.570312 26.457031 101.933594 C 26.21875 102.273438 25.96875 102.621094 25.726562 102.996094 C 25.515625 103.375 25.28125 103.773438 25.046875 104.183594 C 24.589844 105 24.136719 105.859375 23.679688 106.75 C 22.789062 108.535156 21.800781 110.375 21.054688 112.269531 C 20.273438 114.140625 19.511719 115.941406 18.792969 117.519531 C 18.613281 117.917969 18.429688 118.324219 18.25 118.730469 C 18.074219 119.148438 17.898438 119.5625 17.714844 119.984375 C 17.359375 120.832031 16.984375 121.695312 16.605469 122.585938 C 16.210938 123.464844 15.804688 124.359375 15.398438 125.285156 C 15.199219 125.75 14.992188 126.210938 14.785156 126.679688 C 14.59375 127.160156 14.402344 127.644531 14.210938 128.132812 C 13.464844 130.082031 12.691406 132.117188 11.9375 134.234375 C 11.207031 136.363281 10.632812 138.621094 10.023438 140.929688 C 10.140625 141.839844 10.109375 142.945312 9.933594 144.582031 C 9.226562 143.933594 8.839844 145.394531 8.398438 147.5625 C 7.964844 149.738281 7.433594 152.585938 6.714844 154.839844 C 7.667969 155.667969 6.980469 161.007812 8.390625 160.550781 C 7.824219 161.414062 7.773438 163.472656 7.609375 165.566406 C 7.484375 167.675781 7.261719 169.824219 6.703125 171.007812 C 6.65625 168.921875 6.90625 166.246094 7.519531 162.21875 L 6.335938 162.035156 C 6.039062 168.40625 5.601562 167.386719 4.453125 167.195312 C 4.496094 168.324219 4.386719 169.484375 4.34375 170.679688 C 4.296875 171.886719 4.195312 173.097656 4.089844 174.316406 C 3.882812 176.761719 3.523438 179.210938 3.605469 181.46875 C 3.621094 183.734375 4.113281 184.707031 4.0625 186.84375 C 4.058594 186.957031 3.484375 186.667969 3.464844 186.84375 C 3.472656 186.980469 3.355469 187.953125 3.40625 189.414062 C 3.441406 190.878906 3.484375 192.835938 3.53125 194.929688 C 3.574219 195.976562 3.574219 197.0625 3.664062 198.144531 C 3.769531 199.214844 3.871094 200.277344 3.972656 201.300781 C 4.1875 203.332031 4.421875 205.160156 4.652344 206.4375 C 4.761719 205.042969 4.695312 202.949219 4.644531 200.917969 C 4.621094 199.90625 4.59375 198.898438 4.605469 198.003906 C 4.613281 197.09375 4.710938 196.308594 4.8125 195.710938 C 4.835938 197.554688 5 199.273438 5.101562 200.917969 C 5.191406 202.5625 5.277344 204.113281 5.359375 205.601562 C 5.382812 206.347656 5.441406 207.078125 5.515625 207.785156 C 5.585938 208.496094 5.648438 209.195312 5.707031 209.886719 C 5.839844 211.253906 5.972656 212.585938 6.097656 213.878906 C 6.164062 214.535156 6.222656 215.175781 6.3125 215.816406 C 6.421875 216.445312 6.527344 217.066406 6.640625 217.699219 C 6.867188 218.945312 7.113281 220.191406 7.394531 221.4375 C 7.683594 222.671875 7.933594 223.945312 8.375 225.199219 C 8.796875 226.453125 9.261719 227.738281 9.785156 229.050781 C 9.710938 229.832031 9.886719 231.003906 10.167969 232.339844 C 10.457031 233.675781 10.972656 235.144531 11.398438 236.59375 C 12.265625 239.480469 13.015625 242.179688 12.515625 243.058594 L 14.570312 248.949219 C 14.890625 249.9375 15.304688 250.890625 15.6875 251.855469 L 16.871094 254.742188 C 17.464844 254.195312 18.996094 258.183594 20.058594 259.1875 C 20.910156 262.675781 20.832031 262.734375 18.695312 259.792969 C 21.320312 265.832031 24.003906 270.964844 26.675781 275.554688 C 28.0625 277.820312 29.332031 280.019531 30.695312 282.089844 C 32.089844 284.125 33.441406 286.109375 34.777344 288.066406 C 40.378906 295.734375 46.125 302.726562 53.921875 311.054688 C 55.015625 311.636719 53.695312 310.03125 52.726562 308.828125 C 52.226562 308.242188 51.855469 307.707031 51.886719 307.625 C 51.914062 307.539062 52.328125 307.917969 53.5625 308.976562 C 54.734375 310.613281 55.53125 311.867188 56.554688 313.070312 C 57.058594 313.660156 57.609375 314.265625 58.320312 314.847656 C 59.035156 315.421875 59.882812 316.019531 60.929688 316.667969 C 60.898438 317.109375 60.097656 317.050781 61.601562 318.503906 C 63.960938 320.179688 67.441406 322.9375 71.039062 325.820312 C 74.753906 328.535156 78.617188 331.375 81.929688 332.828125 C 82.667969 333.375 83.484375 333.984375 84.371094 334.644531 C 84.8125 334.96875 85.269531 335.320312 85.742188 335.667969 C 86.226562 336 86.722656 336.332031 87.238281 336.683594 C 89.289062 338.042969 91.480469 339.578125 93.746094 340.964844 C 96.039062 342.320312 98.339844 343.640625 100.457031 344.785156 C 102.617188 345.863281 104.617188 346.746094 106.21875 347.367188 C 104.382812 346.285156 102.757812 345.300781 101.738281 344.476562 L 108.03125 347.601562 C 107.625 346.769531 108.03125 346.171875 103.878906 344.203125 C 103.976562 344.503906 102.988281 344.277344 101.460938 343.628906 C 99.96875 342.921875 97.957031 341.746094 95.980469 340.285156 C 95.796875 341.03125 98.496094 342.75 93.878906 340.472656 C 95.234375 340.132812 93.507812 338.679688 93.417969 337.757812 C 94.105469 338.273438 94.695312 338.648438 95.195312 338.929688 C 95.691406 339.222656 96.089844 339.429688 96.414062 339.589844 C 97.054688 339.886719 97.410156 339.953125 97.683594 339.945312 C 98.222656 339.9375 98.429688 339.664062 99.941406 340.433594 C 107.847656 344.511719 109.972656 346.4375 115.089844 349.113281 C 113.246094 349.46875 114.597656 349.703125 112.746094 350.050781 C 117.253906 352.972656 128.535156 357.066406 129.546875 355.523438 C 128.050781 355.015625 126.898438 354.683594 125.925781 354.453125 C 124.957031 354.21875 124.191406 354.011719 123.417969 353.855469 C 121.878906 353.511719 120.378906 353.195312 117.613281 352.140625 C 117.671875 352.003906 117.382812 351.800781 117.046875 351.585938 C 116.714844 351.355469 116.351562 351.113281 116.253906 350.929688 C 119.773438 352.316406 121.433594 352.640625 122.871094 352.867188 C 124.3125 353.058594 125.535156 353.136719 128.34375 353.554688 C 127.570312 353.296875 126.804688 353.046875 126.070312 352.808594 C 125.335938 352.523438 124.621094 352.242188 123.925781 351.976562 C 122.539062 351.421875 121.226562 350.890625 120.003906 350.363281 C 117.53125 349.378906 115.519531 348.222656 113.941406 347.308594 C 116.609375 348.480469 115.179688 346.945312 117.515625 347.894531 C 124 350.058594 121.058594 350.214844 125.261719 351.859375 C 127.097656 352.265625 126.144531 351.03125 130.488281 352.679688 C 127.464844 352.648438 128.667969 352.855469 130.808594 353.34375 C 131.886719 353.59375 133.191406 353.914062 134.332031 354.300781 C 135.46875 354.675781 136.464844 355.066406 136.863281 355.605469 C 137.011719 356.003906 135.765625 355.746094 134.445312 355.449219 C 133.144531 355.101562 131.765625 354.691406 131.597656 354.941406 C 137.460938 356.667969 144.550781 358.078125 149.550781 359.214844 C 152.042969 359.875 154.042969 360.289062 155.089844 360.84375 C 156.144531 361.386719 156.269531 361.949219 155.015625 362.546875 C 160.113281 362.980469 160.3125 362.605469 160.496094 362.230469 C 160.679688 361.855469 160.835938 361.511719 165.769531 361.722656 C 164.257812 361.398438 162.105469 361.144531 160.132812 360.796875 C 158.152344 360.398438 156.359375 360.007812 155.539062 359.609375 C 155.921875 359.332031 157.507812 359.476562 159.035156 359.609375 C 160.511719 360.046875 162.664062 360.304688 164.640625 360.605469 C 166.617188 360.902344 168.425781 361.203125 169.273438 361.558594 C 167.253906 361.359375 164.378906 360.902344 164.058594 361.21875 C 166.140625 361.417969 167.0625 361.667969 168.085938 361.914062 C 168.589844 362.03125 169.125 362.164062 169.835938 362.257812 C 170.554688 362.339844 171.4375 362.398438 172.667969 362.429688 C 172.96875 362.101562 172.460938 361.570312 174.488281 361.660156 C 175.21875 362.164062 177.394531 362.605469 179.59375 362.90625 C 181.804688 363.175781 184.027344 363.441406 184.851562 363.925781 C 182.78125 363.421875 181.480469 363.484375 180.242188 363.703125 C 178.996094 363.933594 177.835938 364.226562 176.082031 364.175781 C 175.410156 364.175781 166.945312 362.523438 169.03125 363.933594 C 170.425781 364.199219 172.105469 364.347656 173.914062 364.507812 C 175.71875 364.640625 177.652344 364.820312 179.59375 364.839844 C 181.53125 364.847656 183.464844 364.859375 185.265625 364.863281 C 186.164062 364.875 187.027344 364.878906 187.839844 364.890625 C 188.652344 364.875 189.417969 364.859375 190.105469 364.847656 C 190.765625 364.316406 187.5 364.152344 190.101562 363.953125 C 191.1875 364.476562 193.820312 364.226562 196.378906 363.96875 C 198.941406 363.683594 201.429688 363.234375 202.324219 363.703125 C 200.125 363.910156 198.128906 364.234375 196.371094 364.417969 C 194.617188 364.609375 193.113281 364.832031 191.894531 365.105469 C 194.636719 365.570312 195.796875 365.539062 197 365.332031 C 198.203125 365.113281 199.441406 364.648438 202.371094 364.300781 C 201.410156 364.992188 203.105469 366.492188 206.027344 365.230469 C 203.910156 365.34375 204.691406 365.136719 206.035156 364.863281 C 207.378906 364.582031 209.273438 364.097656 209.425781 363.941406 C 210.984375 363.851562 213.203125 363.953125 215.46875 363.910156 C 217.734375 363.792969 220.042969 363.46875 221.753906 362.730469 C 221.167969 362.761719 221.820312 362.515625 223 362.140625 C 223.589844 361.941406 224.3125 361.75 225.058594 361.484375 C 225.816406 361.210938 226.605469 360.929688 227.34375 360.664062 C 230.308594 359.566406 232.457031 358.621094 228.199219 359.300781 C 230.605469 358.695312 231 358.171875 233.171875 357.566406 C 235.613281 357.476562 238.386719 356.785156 240.804688 355.9375 C 243.222656 355.058594 245.25 353.871094 246.335938 353.0625 C 250.246094 351.964844 253.5 350.800781 254.863281 350.949219 C 253.835938 351.277344 251.328125 352.273438 249.714844 352.921875 C 248.082031 353.511719 247.382812 353.855469 250.070312 353.09375 C 260.484375 349.085938 250.140625 353.914062 252.28125 354.175781 C 256.535156 352.121094 266.007812 347.949219 270.300781 346.800781 C 271.230469 346.28125 272.199219 345.730469 273.199219 345.167969 C 274.203125 344.621094 275.25 344.054688 276.277344 343.40625 C 278.375 342.175781 280.574219 340.890625 282.832031 339.554688 C 285.054688 338.15625 287.347656 336.722656 289.664062 335.269531 C 291.921875 333.734375 294.214844 332.1875 296.492188 330.640625 C 298.734375 329.054688 300.902344 327.394531 303.058594 325.820312 C 304.15625 325.046875 305.15625 324.183594 306.167969 323.375 C 307.171875 322.566406 308.167969 321.757812 309.136719 320.96875 C 311.117188 319.433594 312.835938 317.769531 314.511719 316.300781 C 315.34375 315.5625 316.148438 314.839844 316.914062 314.152344 C 317.675781 313.453125 318.355469 312.738281 319.023438 312.085938 C 318.308594 312.105469 317.335938 312.757812 316.105469 313.644531 C 314.875 314.535156 313.464844 315.726562 311.980469 317 C 311.230469 317.632812 310.484375 318.296875 309.703125 318.910156 C 308.914062 319.515625 308.125 320.105469 307.355469 320.65625 C 305.808594 321.757812 304.332031 322.6875 303.070312 323.210938 C 304.820312 321.90625 306.761719 320.371094 308.773438 318.761719 C 310.757812 317.117188 312.710938 315.28125 314.660156 313.585938 C 315.648438 312.738281 316.5625 311.859375 317.441406 311.015625 C 318.332031 310.164062 319.1875 309.359375 320.007812 308.613281 C 320.820312 307.859375 321.609375 307.175781 322.328125 306.554688 C 323.015625 305.914062 323.652344 305.347656 324.234375 304.894531 C 323.171875 306.136719 322.210938 307.257812 321.429688 308.171875 C 320.648438 309.101562 320.082031 309.875 319.808594 310.429688 C 321.046875 309.449219 322.425781 308.222656 323.605469 306.882812 C 324.777344 305.542969 325.847656 304.167969 326.636719 303.082031 C 327.609375 301.710938 328.097656 300.816406 327.746094 300.953125 C 329.492188 298.964844 331.3125 296.738281 333.136719 294.527344 C 334.90625 292.277344 336.550781 289.917969 338.0625 287.761719 C 339.523438 285.570312 340.6875 283.433594 341.574219 281.679688 C 342.011719 280.796875 342.371094 279.996094 342.613281 279.289062 C 342.835938 278.578125 342.960938 277.964844 342.96875 277.480469 C 343.507812 276.511719 343.984375 275.703125 344.429688 275.015625 C 347.511719 270.179688 347.886719 272.378906 346.574219 275.503906 L 346.25 276.085938 C 345.03125 278.246094 343.800781 280.363281 342.414062 282.296875 C 341.050781 284.25 339.773438 286.175781 338.46875 287.949219 C 337.148438 289.707031 335.929688 291.398438 334.859375 293.027344 C 334.589844 293.441406 334.332031 293.847656 334.074219 294.238281 C 333.820312 294.628906 333.570312 295.019531 333.320312 295.390625 C 332.839844 296.148438 332.398438 296.898438 332.027344 297.632812 C 338.359375 289.339844 342.449219 284.191406 347.003906 276.53125 C 347.703125 275.382812 348.433594 274.183594 349.140625 272.914062 C 349.316406 271.277344 349.257812 269.625 349.695312 267.507812 C 349.914062 266.445312 350.285156 265.28125 350.816406 263.910156 C 351.324219 262.527344 352.035156 260.957031 353.050781 259.136719 C 353.28125 256.644531 348.5 267.136719 350.507812 261.769531 C 352.28125 257.816406 352.925781 258.230469 354.238281 255.808594 C 353.484375 257.691406 353.625 258.050781 354.105469 257.847656 C 354.578125 257.640625 355.34375 256.851562 355.617188 256.394531 C 353.734375 259.257812 354.4375 259.394531 351.914062 264.410156 C 352.550781 264.449219 352.660156 264.675781 352.304688 265.390625 C 351.941406 266.105469 351.125 267.324219 349.996094 269.367188 C 350.410156 269.308594 350.984375 268.652344 351.632812 267.675781 C 352.28125 266.683594 353.027344 265.390625 353.660156 263.980469 C 354.953125 261.171875 356.28125 258.148438 356.988281 256.984375 C 356.171875 257.859375 355.734375 257.917969 355.847656 257.070312 C 355.933594 256.214844 356.488281 254.414062 357.601562 251.507812 C 358.035156 250.808594 358.730469 249.347656 359.1875 248.175781 C 359.6875 247.019531 360.117188 246.214844 360.292969 246.929688 C 359.089844 250.058594 358.40625 249.613281 356.539062 254.917969 C 356.914062 255.5 357.90625 253.308594 358.316406 253.714844 C 358.980469 252.152344 359.59375 250.699219 360.117188 249.320312 C 360.589844 247.925781 361.015625 246.613281 361.40625 245.386719 C 361.789062 244.15625 362.144531 243 362.476562 241.921875 C 362.824219 240.835938 363.035156 239.78125 363.300781 238.800781 C 363.804688 236.824219 364.285156 235.0625 364.859375 233.386719 C 365.398438 231.710938 365.929688 230.097656 366.71875 228.464844 C 366.363281 228.554688 366.210938 228.144531 366.28125 227.25 C 366.304688 226.800781 366.386719 226.226562 366.519531 225.535156 C 366.652344 224.839844 366.851562 224.035156 367.019531 223.082031 C 366.738281 222.285156 366.429688 222.863281 366.121094 223.527344 C 365.828125 224.199219 365.449219 224.941406 365.199219 224.519531 C 365.972656 221.175781 365.457031 221.011719 365.597656 219.246094 C 366 219.09375 366.386719 218.886719 366.820312 215.921875 C 366.976562 213.007812 366.476562 214.027344 366.035156 215.234375 C 365.539062 216.429688 365.058594 217.808594 365.339844 215.683594 C 365.765625 212.121094 366.132812 210.515625 366.59375 209.34375 C 367.019531 208.167969 367.546875 207.402344 367.882812 205.46875 C 367.808594 208.015625 366.386719 214.351562 367.085938 214.171875 C 367.625 211.117188 367.335938 214.992188 367.410156 216.023438 C 367.734375 214.667969 367.941406 214.023438 368.273438 214.351562 C 368.5625 212.085938 369.019531 208.605469 369.308594 206.339844 C 369.527344 204.0625 369.75 203.019531 369.964844 205.675781 C 371.113281 195.757812 369.859375 193.851562 368.964844 191.515625 C 368.953125 187.972656 369.90625 191.085938 370.007812 188.417969 " fill-opacity="1" fill-rule="evenodd"/></g></svg>