<svg xmlns="http://www.w3.org/2000/svg" xmlns:xlink="http://www.w3.org/1999/xlink" width="500" zoomAndPan="magnify" viewBox="0 0 375 374.999991" height="500" preserveAspectRatio="xMidYMid meet" version="1.0"><defs><g/></defs><path fill="#000000" d="M 187.5 0 C 84.050781 0 0 84.050781 0 187.5 C 0 290.949219 84.050781 375 187.5 375 C 290.949219 375 375 290.949219 375 187.5 C 375 84.050781 290.949219 0 187.5 0 Z M 187.5 8.152344 C 286.65625 8.152344 366.847656 88.34375 366.847656 187.5 C 366.847656 286.65625 286.65625 366.847656 187.5 366.847656 C 88.34375 366.847656 8.152344 286.65625 8.152344 187.5 C 8.152344 88.34375 88.34375 8.152344 187.5 8.152344 Z M 187.5 8.152344 " fill-opacity="1" fill-rule="nonzero"/><g fill="#000000" fill-opacity="1"><g transform="translate(57.471814, 208.309096)"><g><path d="M 41.53125 -63.796875 L 41.53125 -51.03125 L 19.171875 -51.03125 L 19.171875 -38.359375 L 39.828125 -38.359375 L 39.828125 -25.59375 L 19.171875 -25.59375 L 19.171875 0 L 4.640625 0 L 4.640625 -63.796875 Z M 41.53125 -63.796875 "/></g></g></g><g fill="#000000" fill-opacity="1"><g transform="translate(101.315807, 208.309096)"><g><path d="M 16.078125 -83.203125 C 17.472656 -84.597656 19.148438 -85.296875 21.109375 -85.296875 C 23.066406 -85.296875 24.738281 -84.597656 26.125 -83.203125 C 27.519531 -81.816406 28.21875 -80.140625 28.21875 -78.171875 C 28.21875 -76.210938 27.519531 -74.535156 26.125 -73.140625 C 24.738281 -71.753906 23.066406 -71.0625 21.109375 -71.0625 C 19.148438 -71.0625 17.472656 -71.753906 16.078125 -73.140625 C 14.691406 -74.535156 14 -76.210938 14 -78.171875 C 14 -80.140625 14.691406 -81.816406 16.078125 -83.203125 Z M 34.40625 -83.203125 C 35.800781 -84.597656 37.476562 -85.296875 39.4375 -85.296875 C 41.394531 -85.296875 43.066406 -84.597656 44.453125 -83.203125 C 45.847656 -81.816406 46.546875 -80.140625 46.546875 -78.171875 C 46.546875 -76.210938 45.847656 -74.535156 44.453125 -73.140625 C 43.066406 -71.753906 41.394531 -71.0625 39.4375 -71.0625 C 37.476562 -71.0625 35.800781 -71.753906 34.40625 -73.140625 C 33.019531 -74.535156 32.328125 -76.210938 32.328125 -78.171875 C 32.328125 -80.140625 33.019531 -81.816406 34.40625 -83.203125 Z M 37.046875 -63.796875 L 62.796875 0 L 47.171875 0 L 42.453125 -12.765625 L 18.171875 -12.765625 L 13.453125 0 L -2.171875 0 L 23.578125 -63.796875 Z M 37.5 -25.515625 L 30.390625 -44.078125 L 30.234375 -44.078125 L 23.125 -25.515625 Z M 37.5 -25.515625 "/></g></g></g><g fill="#000000" fill-opacity="1"><g transform="translate(161.939596, 208.309096)"><g><path d="M 4.640625 -63.796875 L 27.453125 -63.796875 C 33.585938 -63.796875 38.585938 -62.15625 42.453125 -58.875 C 46.316406 -55.601562 48.25 -50.925781 48.25 -44.84375 C 48.25 -40.15625 47.078125 -36.222656 44.734375 -33.046875 C 42.390625 -29.878906 39.207031 -27.65625 35.1875 -26.375 L 57.140625 0 L 38.671875 0 L 19.171875 -25.203125 L 19.171875 0 L 4.640625 0 Z M 19.171875 -35.5 L 20.875 -35.5 C 22.21875 -35.5 23.351562 -35.519531 24.28125 -35.5625 C 25.207031 -35.613281 26.265625 -35.796875 27.453125 -36.109375 C 28.640625 -36.421875 29.59375 -36.859375 30.3125 -37.421875 C 31.03125 -37.992188 31.644531 -38.820312 32.15625 -39.90625 C 32.675781 -40.988281 32.9375 -42.300781 32.9375 -43.84375 C 32.9375 -45.394531 32.675781 -46.707031 32.15625 -47.78125 C 31.644531 -48.863281 31.03125 -49.6875 30.3125 -50.25 C 29.59375 -50.820312 28.640625 -51.265625 27.453125 -51.578125 C 26.265625 -51.890625 25.207031 -52.070312 24.28125 -52.125 C 23.351562 -52.175781 22.21875 -52.203125 20.875 -52.203125 L 19.171875 -52.203125 Z M 19.171875 -35.5 "/></g></g></g><g fill="#000000" fill-opacity="1"><g transform="translate(217.30519, 208.309096)"><g><path d="M 4.640625 -63.796875 L 27.453125 -63.796875 C 33.585938 -63.796875 38.585938 -62.15625 42.453125 -58.875 C 46.316406 -55.601562 48.25 -50.925781 48.25 -44.84375 C 48.25 -40.15625 47.078125 -36.222656 44.734375 -33.046875 C 42.390625 -29.878906 39.207031 -27.65625 35.1875 -26.375 L 57.140625 0 L 38.671875 0 L 19.171875 -25.203125 L 19.171875 0 L 4.640625 0 Z M 19.171875 -35.5 L 20.875 -35.5 C 22.21875 -35.5 23.351562 -35.519531 24.28125 -35.5625 C 25.207031 -35.613281 26.265625 -35.796875 27.453125 -36.109375 C 28.640625 -36.421875 29.59375 -36.859375 30.3125 -37.421875 C 31.03125 -37.992188 31.644531 -38.820312 32.15625 -39.90625 C 32.675781 -40.988281 32.9375 -42.300781 32.9375 -43.84375 C 32.9375 -45.394531 32.675781 -46.707031 32.15625 -47.78125 C 31.644531 -48.863281 31.03125 -49.6875 30.3125 -50.25 C 29.59375 -50.820312 28.640625 -51.265625 27.453125 -51.578125 C 26.265625 -51.890625 25.207031 -52.070312 24.28125 -52.125 C 23.351562 -52.175781 22.21875 -52.203125 20.875 -52.203125 L 19.171875 -52.203125 Z M 19.171875 -35.5 "/></g></g></g><g fill="#000000" fill-opacity="1"><g transform="translate(272.670793, 208.309096)"><g><path d="M 41.140625 -63.796875 L 41.140625 -51.03125 L 19.171875 -51.03125 L 19.171875 -38.359375 L 40.203125 -38.359375 L 40.203125 -25.59375 L 19.171875 -25.59375 L 19.171875 -12.765625 L 41.140625 -12.765625 L 41.140625 0 L 4.640625 0 L 4.640625 -63.796875 Z M 41.140625 -63.796875 "/></g></g></g></svg>