<svg xmlns="http://www.w3.org/2000/svg" xmlns:xlink="http://www.w3.org/1999/xlink" width="500" zoomAndPan="magnify" viewBox="0 0 375 374.999991" height="500" preserveAspectRatio="xMidYMid meet" version="1.0"><defs><g/></defs><path fill="#000000" d="M 187.5 0 C 84.050781 0 0 84.050781 0 187.5 C 0 290.949219 84.050781 375 187.5 375 C 290.949219 375 375 290.949219 375 187.5 C 375 84.050781 290.949219 0 187.5 0 Z M 187.5 8.152344 C 286.65625 8.152344 366.847656 88.34375 366.847656 187.5 C 366.847656 286.65625 286.65625 366.847656 187.5 366.847656 C 88.34375 366.847656 8.152344 286.65625 8.152344 187.5 C 8.152344 88.34375 88.34375 8.152344 187.5 8.152344 Z M 187.5 8.152344 " fill-opacity="1" fill-rule="nonzero"/><g fill="#000000" fill-opacity="1"><g transform="translate(83.831156, 210.479932)"><g><path d="M 45.859375 -70.453125 L 45.859375 -56.359375 L 21.171875 -56.359375 L 21.171875 -42.359375 L 43.96875 -42.359375 L 43.96875 -28.265625 L 21.171875 -28.265625 L 21.171875 0 L 5.125 0 L 5.125 -70.453125 Z M 45.859375 -70.453125 "/></g></g></g><g fill="#000000" fill-opacity="1"><g transform="translate(132.249001, 210.479932)"><g><path d="M 21.171875 -70.453125 L 21.171875 -14.09375 L 45.421875 -14.09375 L 45.421875 0 L 5.125 0 L 5.125 -70.453125 Z M 21.171875 -70.453125 "/></g></g></g><g fill="#000000" fill-opacity="1"><g transform="translate(180.49606, 210.479932)"><g><path d="M 45.421875 -70.453125 L 45.421875 -56.359375 L 21.171875 -56.359375 L 21.171875 -42.359375 L 44.40625 -42.359375 L 44.40625 -28.265625 L 21.171875 -28.265625 L 21.171875 -14.09375 L 45.421875 -14.09375 L 45.421875 0 L 5.125 0 L 5.125 -70.453125 Z M 45.421875 -70.453125 "/></g></g></g><g fill="#000000" fill-opacity="1"><g transform="translate(230.024016, 210.479932)"><g><path d="M 5.125 -70.453125 L 30.3125 -70.453125 C 37.082031 -70.453125 42.601562 -68.644531 46.875 -65.03125 C 51.144531 -61.414062 53.28125 -56.25 53.28125 -49.53125 C 53.28125 -44.34375 51.984375 -40 49.390625 -36.5 C 46.804688 -33 43.296875 -30.539062 38.859375 -29.125 L 63.109375 0 L 42.6875 0 L 21.171875 -27.84375 L 21.171875 0 L 5.125 0 Z M 21.171875 -39.1875 L 23.0625 -39.1875 C 24.539062 -39.1875 25.789062 -39.210938 26.8125 -39.265625 C 27.832031 -39.328125 29 -39.53125 30.3125 -39.875 C 31.625 -40.21875 32.675781 -40.703125 33.46875 -41.328125 C 34.269531 -41.953125 34.953125 -42.863281 35.515625 -44.0625 C 36.085938 -45.257812 36.375 -46.710938 36.375 -48.421875 C 36.375 -50.128906 36.085938 -51.578125 35.515625 -52.765625 C 34.953125 -53.960938 34.269531 -54.875 33.46875 -55.5 C 32.675781 -56.125 31.625 -56.609375 30.3125 -56.953125 C 29 -57.296875 27.832031 -57.492188 26.8125 -57.546875 C 25.789062 -57.609375 24.539062 -57.640625 23.0625 -57.640625 L 21.171875 -57.640625 Z M 21.171875 -39.1875 "/></g></g></g></svg>