<svg xmlns="http://www.w3.org/2000/svg" xmlns:xlink="http://www.w3.org/1999/xlink" width="1080" zoomAndPan="magnify" viewBox="0 0 810 809.999993" height="1080" preserveAspectRatio="xMidYMid meet" version="1.0"><defs><clipPath id="6dc4d3ec05"><path d="M 4 22 L 800 22 L 800 775 L 4 775 Z M 4 22 " clip-rule="nonzero"/></clipPath><clipPath id="ee2b3953b9"><path d="M 60.996094 -12.941406 L 812.835938 66.246094 L 736.085938 794.96875 L -15.757812 715.777344 Z M 60.996094 -12.941406 " clip-rule="nonzero"/></clipPath><clipPath id="8f397b9faa"><path d="M 60.996094 -12.941406 L 812.835938 66.246094 L 736.085938 794.96875 L -15.757812 715.777344 Z M 60.996094 -12.941406 " clip-rule="nonzero"/></clipPath><clipPath id="e69c4e7f0a"><path d="M 0 0 L 810 0 L 810 795 L 0 795 Z M 0 0 " clip-rule="nonzero"/></clipPath><clipPath id="3cd2d4be0e"><path d="M 60.996094 -12.941406 L 812.835938 66.246094 L 736.085938 794.96875 L -15.757812 715.777344 Z M 60.996094 -12.941406 " clip-rule="nonzero"/></clipPath><clipPath id="0e533ed261"><path d="M 60.996094 -12.941406 L 812.835938 66.246094 L 736.085938 794.96875 L -15.757812 715.777344 Z M 60.996094 -12.941406 " clip-rule="nonzero"/></clipPath><clipPath id="6cfc16ecfd"><path d="M 54 78 L 755 78 L 755 724 L 54 724 Z M 54 78 " clip-rule="nonzero"/></clipPath><clipPath id="4a36366a96"><path d="M 60.996094 -12.941406 L 812.835938 66.246094 L 736.085938 794.96875 L -15.757812 715.777344 Z M 60.996094 -12.941406 " clip-rule="nonzero"/></clipPath><clipPath id="d28eea7ee9"><path d="M 60.996094 -12.941406 L 812.835938 66.246094 L 736.085938 794.96875 L -15.757812 715.777344 Z M 60.996094 -12.941406 " clip-rule="nonzero"/></clipPath><clipPath id="4a5b520806"><path d="M 0 0 L 810 0 L 810 795 L 0 795 Z M 0 0 " clip-rule="nonzero"/></clipPath><clipPath id="f6b152332c"><path d="M 60.996094 -12.941406 L 812.835938 66.246094 L 736.085938 794.96875 L -15.757812 715.777344 Z M 60.996094 -12.941406 " clip-rule="nonzero"/></clipPath><clipPath id="5d3d45febc"><path d="M 60.996094 -12.941406 L 812.835938 66.246094 L 736.085938 794.96875 L -15.757812 715.777344 Z M 60.996094 -12.941406 " clip-rule="nonzero"/></clipPath><clipPath id="1bca88921f"><path d="M 228 46 L 592 46 L 592 144 L 228 144 Z M 228 46 " clip-rule="nonzero"/></clipPath><clipPath id="dea67e2840"><path d="M 60.996094 -12.941406 L 812.835938 66.246094 L 736.085938 794.96875 L -15.757812 715.777344 Z M 60.996094 -12.941406 " clip-rule="nonzero"/></clipPath><clipPath id="0225e57b6e"><path d="M 60.996094 -12.941406 L 812.835938 66.246094 L 736.085938 794.96875 L -15.757812 715.777344 Z M 60.996094 -12.941406 " clip-rule="nonzero"/></clipPath><clipPath id="aa83f9cd4c"><path d="M 136 0 L 684 0 L 684 236 L 136 236 Z M 136 0 " clip-rule="nonzero"/></clipPath><clipPath id="4ff0a3629f"><path d="M 60.996094 -12.941406 L 812.835938 66.246094 L 736.085938 794.96875 L -15.757812 715.777344 Z M 60.996094 -12.941406 " clip-rule="nonzero"/></clipPath><clipPath id="1a6cb103e4"><path d="M 60.996094 -12.941406 L 812.835938 66.246094 L 736.085938 794.96875 L -15.757812 715.777344 Z M 60.996094 -12.941406 " clip-rule="nonzero"/></clipPath></defs><g clip-path="url(#6dc4d3ec05)"><g clip-path="url(#ee2b3953b9)"><g clip-path="url(#8f397b9faa)"><path fill="#545454" d="M 128.492188 22.136719 C 128.492188 22.136719 234.066406 35.453125 366.253906 69.824219 C 498.453125 104.199219 759.800781 146.320312 778.121094 152.628906 C 783.847656 154.601562 799.402344 158.523438 799.402344 158.523438 C 799.402344 158.523438 791.15625 183.117188 778.1875 249.019531 C 759.328125 344.878906 702.902344 658.753906 694.769531 694.40625 C 686.636719 730.058594 677.578125 774.382812 677.578125 774.382812 C 677.578125 774.382812 656.898438 776.582031 595.253906 765.710938 C 533.601562 754.839844 397.074219 720.011719 345.382812 711.648438 C 293.695312 703.289062 44.660156 655.148438 30.367188 652.179688 C 16.070312 649.210938 -9.539062 656.742188 15.242188 560.046875 C 40.035156 463.347656 111.890625 86.109375 116.761719 67.636719 C 121.632812 49.164062 128.496094 22.125 128.496094 22.125 Z M 128.492188 22.136719 " fill-opacity="1" fill-rule="nonzero"/></g></g></g><g clip-path="url(#e69c4e7f0a)"><g clip-path="url(#3cd2d4be0e)"><g clip-path="url(#0e533ed261)"><path stroke-linecap="butt" transform="matrix(0.921377, 0.0970445, -0.0970445, 0.921377, 67.784729, -11.945618)" fill="none" stroke-linejoin="miter" d="M 69.018187 29.721288 C 69.018187 29.721288 183.849676 32.079326 329.628934 54.029109 C 475.421213 75.98176 760.72035 91.647861 781.099065 96.348383 C 787.469124 97.818441 804.60931 100.26968 804.60931 100.26968 C 804.60931 100.26968 798.538296 127.601508 792.068178 199.80893 C 782.661831 304.838951 757.579418 648.139497 752.880278 687.329083 C 748.181137 726.518669 743.468674 775.121525 743.468674 775.121525 C 743.468674 775.121525 721.519233 779.820246 654.11941 775.120419 C 586.711201 770.421474 436.221777 748.471762 379.789412 745.338591 C 323.361683 742.209172 50.598522 718.689519 34.920456 717.118739 C 19.238196 715.548401 -7.400058 726.528 8.268465 619.931143 C 23.949124 513.328767 58.43035 100.268059 61.5706 79.888336 C 64.710851 59.508614 69.021055 29.708267 69.021055 29.708267 Z M 69.018187 29.721288 " stroke="#443354" stroke-width="7" stroke-opacity="1" stroke-miterlimit="10"/></g></g></g><g clip-path="url(#6cfc16ecfd)"><g clip-path="url(#4a36366a96)"><g clip-path="url(#d28eea7ee9)"><path fill="#d9d9d9" d="M 99.582031 78.246094 C 150.746094 78.699219 647.601562 88.445312 688.617188 87.316406 C 709.125 86.757812 747.371094 93.011719 747.371094 93.011719 C 747.371094 93.011719 754.945312 108.285156 754.179688 137.328125 C 752.59375 197.398438 735.234375 393.449219 739.640625 490.296875 C 744.046875 587.144531 739.492188 668.449219 737.699219 687.238281 C 736.578125 698.941406 732.59375 723.570312 732.59375 723.570312 C 732.59375 723.570312 712.871094 724.113281 688.414062 722.71875 C 623.546875 719.027344 390.851562 723.722656 284.503906 721.289062 C 178.15625 718.855469 95.902344 723.328125 78.570312 721.5 C 66.003906 720.175781 60.707031 722.695312 57.761719 712.367188 C 56.644531 708.460938 55.863281 702.703125 55.15625 694.207031 C 52.574219 663.265625 66.378906 483.453125 65.355469 403.207031 C 64.332031 322.980469 62.773438 141.9375 62.785156 122.5625 C 62.789062 109.429688 66.191406 80.933594 66.191406 80.933594 C 66.191406 80.933594 82.820312 78.09375 99.582031 78.246094 Z M 99.582031 78.246094 " fill-opacity="1" fill-rule="nonzero"/></g></g></g><g clip-path="url(#4a5b520806)"><g clip-path="url(#f6b152332c)"><g clip-path="url(#5d3d45febc)"><path stroke-linecap="butt" transform="matrix(0.921377, 0.0970445, -0.0970445, 0.921377, 67.784729, -11.945618)" fill="none" stroke-linejoin="miter" d="M 44.328989 93.219018 C 99.300975 87.920854 633.739673 42.208555 677.639215 36.359572 C 699.589649 33.441371 741.351002 35.830401 741.351002 35.830401 C 741.351002 35.830401 751.208154 51.368948 753.669883 82.630942 C 758.75899 147.29119 762.290322 359.699528 777.9696 463.160005 C 793.648879 566.620482 797.951994 654.409871 798.151651 674.781222 C 798.271385 687.470392 796.77898 714.358132 796.77898 714.358132 C 796.77898 714.358132 775.669586 717.170792 749.259146 718.438956 C 679.211773 721.810332 429.96178 753.1587 315.530465 762.569983 C 201.099149 771.981267 113.311468 786.081872 94.500156 786.07906 C 80.861353 786.078357 75.460414 789.381743 71.131156 778.628275 C 69.490302 774.561519 68.000717 768.46927 66.281212 759.429291 C 60.011391 726.507951 54.500255 531.93207 44.329127 445.909659 C 34.160207 359.908213 12.018633 165.748475 9.840693 144.949551 C 8.360103 130.852027 8.790522 99.878958 8.790522 99.878958 C 8.790522 99.878958 26.319326 94.950552 44.328989 93.219018 Z M 44.328989 93.219018 " stroke="#443354" stroke-width="7" stroke-opacity="1" stroke-miterlimit="10"/></g></g></g><g clip-path="url(#1bca88921f)"><g clip-path="url(#dea67e2840)"><g clip-path="url(#0225e57b6e)"><path fill="#d0ff00" d="M 236.359375 58.695312 C 236.359375 58.695312 323.539062 52.515625 399.664062 50.695312 C 475.789062 48.878906 589.175781 46.9375 589.175781 46.9375 L 582.144531 58.242188 L 591.304688 61.398438 L 578.257812 74.34375 L 591.261719 82.570312 L 583.5625 89.789062 L 589.855469 95.929688 L 578.945312 109.386719 L 591.675781 120.222656 L 234.355469 143.550781 L 242.734375 122.894531 L 232.257812 121.789062 C 232.257812 121.789062 242.613281 103.167969 242.613281 103.167969 L 235.105469 101.652344 L 241.722656 87.378906 L 228.667969 83.078125 L 241.652344 67.285156 L 236.351562 58.695312 Z M 236.359375 58.695312 " fill-opacity="1" fill-rule="nonzero"/></g></g></g><g clip-path="url(#aa83f9cd4c)"><g clip-path="url(#4ff0a3629f)"><g clip-path="url(#1a6cb103e4)"><path stroke-linecap="butt" transform="matrix(0.921377, 0.0970445, -0.0970445, 0.921377, 67.784729, -11.945618)" fill="none" stroke-linejoin="miter" d="M 188.938744 56.768818 C 188.938744 56.768818 281.820883 40.27894 363.329518 29.718353 C 444.838594 19.16196 566.331178 4.258615 566.331178 4.258615 L 560.061759 17.18829 L 570.251337 19.540647 L 557.710087 34.911529 L 572.598885 42.271914 L 565.1505 50.891163 L 572.59978 56.771183 L 562.40999 72.449781 L 577.300287 82.642047 L 196.381378 148.081313 L 203.040126 124.961078 L 191.669344 124.958911 C 191.669344 124.958911 200.679875 103.799794 200.679875 103.799794 L 192.44945 103.021711 L 197.93876 86.952122 L 183.439297 83.811508 L 195.591505 65.390948 L 188.930357 56.769701 Z M 188.938744 56.768818 " stroke="#443354" stroke-width="7" stroke-opacity="1" stroke-miterlimit="10"/></g></g></g></svg>