<svg xmlns="http://www.w3.org/2000/svg" xmlns:xlink="http://www.w3.org/1999/xlink" width="240" zoomAndPan="magnify" viewBox="0 0 180 112.499997" height="150" preserveAspectRatio="xMidYMid meet" version="1.0"><defs><clipPath id="97697d813e"><path d="M 0.398438 0 L 179.601562 0 L 179.601562 112.003906 L 0.398438 112.003906 Z M 0.398438 0 " clip-rule="nonzero"/></clipPath><clipPath id="d3e9a27b9d"><path d="M 11.597656 0 L 168.402344 0 C 171.371094 0 174.222656 1.179688 176.320312 3.28125 C 178.421875 5.382812 179.601562 8.230469 179.601562 11.199219 L 179.601562 100.800781 C 179.601562 103.773438 178.421875 106.621094 176.320312 108.722656 C 174.222656 110.820312 171.371094 112.003906 168.402344 112.003906 L 11.597656 112.003906 C 5.414062 112.003906 0.398438 106.988281 0.398438 100.800781 L 0.398438 11.199219 C 0.398438 5.015625 5.414062 0 11.597656 0 Z M 11.597656 0 " clip-rule="nonzero"/></clipPath></defs><g clip-path="url(#97697d813e)"><g clip-path="url(#d3e9a27b9d)"><path fill="#cfff00" d="M 0.398438 0 L 179.777344 0 L 179.777344 112.003906 L 0.398438 112.003906 Z M 0.398438 0 " fill-opacity="1" fill-rule="nonzero"/></g></g></svg>