<svg xmlns="http://www.w3.org/2000/svg" xmlns:xlink="http://www.w3.org/1999/xlink" width="1920" zoomAndPan="magnify" viewBox="0 0 1440 809.999993" height="1080" preserveAspectRatio="xMidYMid meet" version="1.0"><defs><g/></defs><g fill="#000000" fill-opacity="1"><g transform="translate(48.089725, 336.591895)"><g><path d="M 58.625 -195.03125 L 58.625 0 L 14.1875 0 L 14.1875 -195.03125 Z M 58.625 -195.03125 "/></g></g></g><g fill="#000000" fill-opacity="1"><g transform="translate(109.0812, 336.591895)"><g><path d="M 14.1875 0 L 14.1875 -121.28125 L 56.03125 -121.28125 L 56.03125 -108.515625 L 56.5 -108.515625 C 67.375 -119.390625 78.957031 -124.828125 91.25 -124.828125 C 97.238281 -124.828125 103.1875 -124.035156 109.09375 -122.453125 C 115.007812 -120.878906 120.6875 -118.4375 126.125 -115.125 C 131.5625 -111.820312 135.972656 -107.132812 139.359375 -101.0625 C 142.742188 -95 144.4375 -87.945312 144.4375 -79.90625 L 144.4375 0 L 102.59375 0 L 102.59375 -68.5625 C 102.59375 -74.863281 100.582031 -80.378906 96.5625 -85.109375 C 92.550781 -89.835938 87.3125 -92.203125 80.84375 -92.203125 C 74.539062 -92.203125 68.828125 -89.757812 63.703125 -84.875 C 58.585938 -79.988281 56.03125 -74.550781 56.03125 -68.5625 L 56.03125 0 Z M 14.1875 0 "/></g></g></g><g fill="#000000" fill-opacity="1"><g transform="translate(253.522266, 336.591895)"><g><path d="M 8.75 29.78125 L 43.03125 13 C 49.332031 23.40625 60.285156 28.609375 75.890625 28.609375 C 83.140625 28.609375 89.875 26.28125 96.09375 21.625 C 102.320312 16.976562 105.4375 9.847656 105.4375 0.234375 L 105.4375 -8.75 C 98.03125 -0.550781 84.789062 3.546875 65.71875 3.546875 C 48.226562 3.546875 33.804688 -2.632812 22.453125 -15 C 11.109375 -27.375 5.4375 -42.546875 5.4375 -60.515625 C 5.4375 -78.484375 11.109375 -93.691406 22.453125 -106.140625 C 33.804688 -118.597656 48.226562 -124.828125 65.71875 -124.828125 C 81.320312 -124.828125 94.328125 -120.019531 104.734375 -110.40625 L 105.4375 -110.40625 L 105.4375 -121.28125 L 147.28125 -121.28125 L 147.28125 3.3125 C 147.28125 23.007812 140.738281 38.21875 127.65625 48.9375 C 114.570312 59.65625 97.316406 65.015625 75.890625 65.015625 C 41.210938 65.015625 18.832031 53.269531 8.75 29.78125 Z M 58.03125 -81.078125 C 52.59375 -75.722656 49.875 -68.867188 49.875 -60.515625 C 49.875 -52.160156 52.472656 -45.34375 57.671875 -40.0625 C 62.878906 -34.789062 69.738281 -32.15625 78.25 -32.15625 C 86.445312 -32.15625 93.1875 -34.832031 98.46875 -40.1875 C 103.75 -45.550781 106.390625 -52.328125 106.390625 -60.515625 C 106.390625 -68.867188 103.671875 -75.722656 98.234375 -81.078125 C 92.796875 -86.441406 86.132812 -89.125 78.25 -89.125 C 70.207031 -89.125 63.46875 -86.441406 58.03125 -81.078125 Z M 58.03125 -81.078125 "/></g></g></g><g fill="#000000" fill-opacity="1"><g transform="translate(403.164153, 336.591895)"><g><path d="M 14.1875 0 L 14.1875 -121.28125 L 56.03125 -121.28125 L 56.03125 -103.78125 L 56.5 -103.78125 C 56.8125 -104.414062 57.320312 -105.203125 58.03125 -106.140625 C 58.75 -107.085938 60.285156 -108.742188 62.640625 -111.109375 C 65.003906 -113.472656 67.523438 -115.597656 70.203125 -117.484375 C 72.890625 -119.378906 76.359375 -121.078125 80.609375 -122.578125 C 84.867188 -124.078125 89.203125 -124.828125 93.609375 -124.828125 C 98.179688 -124.828125 102.675781 -124.195312 107.09375 -122.9375 C 111.507812 -121.675781 114.738281 -120.414062 116.78125 -119.15625 L 120.09375 -117.25 L 102.59375 -81.796875 C 97.394531 -86.210938 90.144531 -88.421875 80.84375 -88.421875 C 75.800781 -88.421875 71.46875 -87.316406 67.84375 -85.109375 C 64.21875 -82.898438 61.65625 -80.21875 60.15625 -77.0625 C 58.664062 -73.914062 57.601562 -71.238281 56.96875 -69.03125 C 56.34375 -66.820312 56.03125 -65.085938 56.03125 -63.828125 L 56.03125 0 Z M 14.1875 0 "/></g></g></g><g fill="#000000" fill-opacity="1"><g transform="translate(509.071834, 336.591895)"><g><path d="M 136.875 -54.84375 L 48.9375 -54.84375 C 48.9375 -46.332031 51.691406 -40.023438 57.203125 -35.921875 C 62.722656 -31.828125 68.710938 -29.78125 75.171875 -29.78125 C 81.953125 -29.78125 87.3125 -30.6875 91.25 -32.5 C 95.1875 -34.3125 99.679688 -37.898438 104.734375 -43.265625 L 134.984375 -28.125 C 122.378906 -7.007812 101.421875 3.546875 72.109375 3.546875 C 53.828125 3.546875 38.144531 -2.71875 25.0625 -15.25 C 11.976562 -27.78125 5.4375 -42.867188 5.4375 -60.515625 C 5.4375 -78.171875 11.976562 -93.300781 25.0625 -105.90625 C 38.144531 -118.519531 53.828125 -124.828125 72.109375 -124.828125 C 91.335938 -124.828125 106.976562 -119.269531 119.03125 -108.15625 C 131.082031 -97.039062 137.109375 -81.160156 137.109375 -60.515625 C 137.109375 -57.679688 137.03125 -55.789062 136.875 -54.84375 Z M 50.125 -78.015625 L 96.21875 -78.015625 C 95.269531 -84.316406 92.785156 -89.160156 88.765625 -92.546875 C 84.753906 -95.941406 79.59375 -97.640625 73.28125 -97.640625 C 66.351562 -97.640625 60.835938 -95.828125 56.734375 -92.203125 C 52.640625 -88.578125 50.4375 -83.847656 50.125 -78.015625 Z M 50.125 -78.015625 "/></g></g></g><g fill="#000000" fill-opacity="1"><g transform="translate(639.801654, 336.591895)"><g><path d="M 22.453125 -15 C 11.109375 -27.375 5.4375 -42.546875 5.4375 -60.515625 C 5.4375 -78.484375 11.109375 -93.691406 22.453125 -106.140625 C 33.804688 -118.597656 48.226562 -124.828125 65.71875 -124.828125 C 81.789062 -124.828125 95.03125 -119.78125 105.4375 -109.6875 L 105.4375 -203.3125 L 147.28125 -203.3125 L 147.28125 0 L 105.90625 0 L 105.90625 -13.71875 L 105.4375 -13.71875 C 95.03125 -2.207031 81.789062 3.546875 65.71875 3.546875 C 48.226562 3.546875 33.804688 -2.632812 22.453125 -15 Z M 58.03125 -81.078125 C 52.59375 -75.722656 49.875 -68.867188 49.875 -60.515625 C 49.875 -52.160156 52.472656 -45.34375 57.671875 -40.0625 C 62.878906 -34.789062 69.738281 -32.15625 78.25 -32.15625 C 86.445312 -32.15625 93.1875 -34.832031 98.46875 -40.1875 C 103.75 -45.550781 106.390625 -52.328125 106.390625 -60.515625 C 106.390625 -68.867188 103.671875 -75.722656 98.234375 -81.078125 C 92.796875 -86.441406 86.132812 -89.125 78.25 -89.125 C 70.207031 -89.125 63.46875 -86.441406 58.03125 -81.078125 Z M 58.03125 -81.078125 "/></g></g></g><g fill="#000000" fill-opacity="1"><g transform="translate(789.443515, 336.591895)"><g><path d="M 18.203125 -188.890625 C 23.085938 -193.773438 28.914062 -196.21875 35.6875 -196.21875 C 42.46875 -196.21875 48.300781 -193.773438 53.1875 -188.890625 C 58.070312 -184.003906 60.515625 -178.171875 60.515625 -171.390625 C 60.515625 -164.617188 58.070312 -158.789062 53.1875 -153.90625 C 48.300781 -149.019531 42.46875 -146.578125 35.6875 -146.578125 C 28.914062 -146.578125 23.085938 -149.019531 18.203125 -153.90625 C 13.316406 -158.789062 10.875 -164.617188 10.875 -171.390625 C 10.875 -178.171875 13.316406 -184.003906 18.203125 -188.890625 Z M 14.1875 -121.28125 L 14.1875 0 L 56.03125 0 L 56.03125 -121.28125 Z M 14.1875 -121.28125 "/></g></g></g><g fill="#000000" fill-opacity="1"><g transform="translate(849.01659, 336.591895)"><g><path d="M 136.875 -54.84375 L 48.9375 -54.84375 C 48.9375 -46.332031 51.691406 -40.023438 57.203125 -35.921875 C 62.722656 -31.828125 68.710938 -29.78125 75.171875 -29.78125 C 81.953125 -29.78125 87.3125 -30.6875 91.25 -32.5 C 95.1875 -34.3125 99.679688 -37.898438 104.734375 -43.265625 L 134.984375 -28.125 C 122.378906 -7.007812 101.421875 3.546875 72.109375 3.546875 C 53.828125 3.546875 38.144531 -2.71875 25.0625 -15.25 C 11.976562 -27.78125 5.4375 -42.867188 5.4375 -60.515625 C 5.4375 -78.171875 11.976562 -93.300781 25.0625 -105.90625 C 38.144531 -118.519531 53.828125 -124.828125 72.109375 -124.828125 C 91.335938 -124.828125 106.976562 -119.269531 119.03125 -108.15625 C 131.082031 -97.039062 137.109375 -81.160156 137.109375 -60.515625 C 137.109375 -57.679688 137.03125 -55.789062 136.875 -54.84375 Z M 50.125 -78.015625 L 96.21875 -78.015625 C 95.269531 -84.316406 92.785156 -89.160156 88.765625 -92.546875 C 84.753906 -95.941406 79.59375 -97.640625 73.28125 -97.640625 C 66.351562 -97.640625 60.835938 -95.828125 56.734375 -92.203125 C 52.640625 -88.578125 50.4375 -83.847656 50.125 -78.015625 Z M 50.125 -78.015625 "/></g></g></g><g fill="#000000" fill-opacity="1"><g transform="translate(979.74636, 336.591895)"><g><path d="M 14.1875 0 L 14.1875 -121.28125 L 56.03125 -121.28125 L 56.03125 -108.515625 L 56.5 -108.515625 C 67.375 -119.390625 78.957031 -124.828125 91.25 -124.828125 C 97.238281 -124.828125 103.1875 -124.035156 109.09375 -122.453125 C 115.007812 -120.878906 120.6875 -118.4375 126.125 -115.125 C 131.5625 -111.820312 135.972656 -107.132812 139.359375 -101.0625 C 142.742188 -95 144.4375 -87.945312 144.4375 -79.90625 L 144.4375 0 L 102.59375 0 L 102.59375 -68.5625 C 102.59375 -74.863281 100.582031 -80.378906 96.5625 -85.109375 C 92.550781 -89.835938 87.3125 -92.203125 80.84375 -92.203125 C 74.539062 -92.203125 68.828125 -89.757812 63.703125 -84.875 C 58.585938 -79.988281 56.03125 -74.550781 56.03125 -68.5625 L 56.03125 0 Z M 14.1875 0 "/></g></g></g><g fill="#000000" fill-opacity="1"><g transform="translate(1124.187476, 336.591895)"><g><path d="M 66.90625 -124.828125 C 73.84375 -124.828125 80.695312 -124.035156 87.46875 -122.453125 C 94.25 -120.878906 99.289062 -119.304688 102.59375 -117.734375 L 107.5625 -115.359375 L 93.859375 -87.9375 C 84.398438 -92.988281 75.414062 -95.515625 66.90625 -95.515625 C 62.175781 -95.515625 58.828125 -95 56.859375 -93.96875 C 54.890625 -92.945312 53.90625 -91.015625 53.90625 -88.171875 C 53.90625 -87.546875 53.984375 -86.914062 54.140625 -86.28125 C 54.296875 -85.65625 54.609375 -85.066406 55.078125 -84.515625 C 55.554688 -83.960938 55.988281 -83.488281 56.375 -83.09375 C 56.769531 -82.695312 57.441406 -82.265625 58.390625 -81.796875 C 59.335938 -81.328125 60.085938 -80.972656 60.640625 -80.734375 C 61.191406 -80.492188 62.097656 -80.132812 63.359375 -79.65625 C 64.617188 -79.1875 65.5625 -78.832031 66.1875 -78.59375 C 66.820312 -78.363281 67.882812 -78.007812 69.375 -77.53125 C 70.875 -77.0625 72.019531 -76.75 72.8125 -76.59375 C 77.695312 -75.175781 81.953125 -73.597656 85.578125 -71.859375 C 89.203125 -70.128906 93.023438 -67.765625 97.046875 -64.765625 C 101.066406 -61.773438 104.175781 -57.992188 106.375 -53.421875 C 108.582031 -48.859375 109.6875 -43.660156 109.6875 -37.828125 C 109.6875 -10.242188 90.539062 3.546875 52.25 3.546875 C 43.582031 3.546875 35.347656 2.207031 27.546875 -0.46875 C 19.742188 -3.144531 14.109375 -5.828125 10.640625 -8.515625 L 5.4375 -12.765625 L 22.453125 -41.375 C 23.710938 -40.269531 25.367188 -38.96875 27.421875 -37.46875 C 29.472656 -35.96875 33.175781 -33.914062 38.53125 -31.3125 C 43.894531 -28.71875 48.546875 -27.421875 52.484375 -27.421875 C 61.148438 -27.421875 65.484375 -30.335938 65.484375 -36.171875 C 65.484375 -38.847656 64.378906 -40.9375 62.171875 -42.4375 C 59.960938 -43.9375 56.21875 -45.628906 50.9375 -47.515625 C 45.664062 -49.410156 41.53125 -51.144531 38.53125 -52.71875 C 30.96875 -56.65625 24.976562 -61.101562 20.5625 -66.0625 C 16.15625 -71.03125 13.953125 -77.613281 13.953125 -85.8125 C 13.953125 -98.101562 18.71875 -107.675781 28.25 -114.53125 C 37.78125 -121.394531 50.664062 -124.828125 66.90625 -124.828125 Z M 66.90625 -124.828125 "/></g></g></g><g fill="#000000" fill-opacity="1"><g transform="translate(1228.676783, 336.591895)"><g><path d="M 14.1875 -86.53125 L 90.3125 -86.53125 L 90.3125 -50.359375 L 14.1875 -50.359375 Z M 14.1875 -86.53125 "/></g></g></g><g fill="#000000" fill-opacity="1"><g transform="translate(48.089725, 561.172746)"><g><path d="M 113.234375 -195.03125 L 191.96875 0 L 144.203125 0 L 129.78125 -39 L 55.5625 -39 L 41.140625 0 L -6.625 0 L 72.109375 -195.03125 Z M 114.65625 -78.015625 L 92.90625 -134.75 L 92.4375 -134.75 L 70.6875 -78.015625 Z M 114.65625 -78.015625 "/></g></g></g><g fill="#000000" fill-opacity="1"><g transform="translate(221.608128, 561.172746)"><g><path d="M 66.90625 -124.828125 C 73.84375 -124.828125 80.695312 -124.035156 87.46875 -122.453125 C 94.25 -120.878906 99.289062 -119.304688 102.59375 -117.734375 L 107.5625 -115.359375 L 93.859375 -87.9375 C 84.398438 -92.988281 75.414062 -95.515625 66.90625 -95.515625 C 62.175781 -95.515625 58.828125 -95 56.859375 -93.96875 C 54.890625 -92.945312 53.90625 -91.015625 53.90625 -88.171875 C 53.90625 -87.546875 53.984375 -86.914062 54.140625 -86.28125 C 54.296875 -85.65625 54.609375 -85.066406 55.078125 -84.515625 C 55.554688 -83.960938 55.988281 -83.488281 56.375 -83.09375 C 56.769531 -82.695312 57.441406 -82.265625 58.390625 -81.796875 C 59.335938 -81.328125 60.085938 -80.972656 60.640625 -80.734375 C 61.191406 -80.492188 62.097656 -80.132812 63.359375 -79.65625 C 64.617188 -79.1875 65.5625 -78.832031 66.1875 -78.59375 C 66.820312 -78.363281 67.882812 -78.007812 69.375 -77.53125 C 70.875 -77.0625 72.019531 -76.75 72.8125 -76.59375 C 77.695312 -75.175781 81.953125 -73.597656 85.578125 -71.859375 C 89.203125 -70.128906 93.023438 -67.765625 97.046875 -64.765625 C 101.066406 -61.773438 104.175781 -57.992188 106.375 -53.421875 C 108.582031 -48.859375 109.6875 -43.660156 109.6875 -37.828125 C 109.6875 -10.242188 90.539062 3.546875 52.25 3.546875 C 43.582031 3.546875 35.347656 2.207031 27.546875 -0.46875 C 19.742188 -3.144531 14.109375 -5.828125 10.640625 -8.515625 L 5.4375 -12.765625 L 22.453125 -41.375 C 23.710938 -40.269531 25.367188 -38.96875 27.421875 -37.46875 C 29.472656 -35.96875 33.175781 -33.914062 38.53125 -31.3125 C 43.894531 -28.71875 48.546875 -27.421875 52.484375 -27.421875 C 61.148438 -27.421875 65.484375 -30.335938 65.484375 -36.171875 C 65.484375 -38.847656 64.378906 -40.9375 62.171875 -42.4375 C 59.960938 -43.9375 56.21875 -45.628906 50.9375 -47.515625 C 45.664062 -49.410156 41.53125 -51.144531 38.53125 -52.71875 C 30.96875 -56.65625 24.976562 -61.101562 20.5625 -66.0625 C 16.15625 -71.03125 13.953125 -77.613281 13.953125 -85.8125 C 13.953125 -98.101562 18.71875 -107.675781 28.25 -114.53125 C 37.78125 -121.394531 50.664062 -124.828125 66.90625 -124.828125 Z M 66.90625 -124.828125 "/></g></g></g><g fill="#000000" fill-opacity="1"><g transform="translate(326.09741, 561.172746)"><g><path d="M 66.90625 -124.828125 C 73.84375 -124.828125 80.695312 -124.035156 87.46875 -122.453125 C 94.25 -120.878906 99.289062 -119.304688 102.59375 -117.734375 L 107.5625 -115.359375 L 93.859375 -87.9375 C 84.398438 -92.988281 75.414062 -95.515625 66.90625 -95.515625 C 62.175781 -95.515625 58.828125 -95 56.859375 -93.96875 C 54.890625 -92.945312 53.90625 -91.015625 53.90625 -88.171875 C 53.90625 -87.546875 53.984375 -86.914062 54.140625 -86.28125 C 54.296875 -85.65625 54.609375 -85.066406 55.078125 -84.515625 C 55.554688 -83.960938 55.988281 -83.488281 56.375 -83.09375 C 56.769531 -82.695312 57.441406 -82.265625 58.390625 -81.796875 C 59.335938 -81.328125 60.085938 -80.972656 60.640625 -80.734375 C 61.191406 -80.492188 62.097656 -80.132812 63.359375 -79.65625 C 64.617188 -79.1875 65.5625 -78.832031 66.1875 -78.59375 C 66.820312 -78.363281 67.882812 -78.007812 69.375 -77.53125 C 70.875 -77.0625 72.019531 -76.75 72.8125 -76.59375 C 77.695312 -75.175781 81.953125 -73.597656 85.578125 -71.859375 C 89.203125 -70.128906 93.023438 -67.765625 97.046875 -64.765625 C 101.066406 -61.773438 104.175781 -57.992188 106.375 -53.421875 C 108.582031 -48.859375 109.6875 -43.660156 109.6875 -37.828125 C 109.6875 -10.242188 90.539062 3.546875 52.25 3.546875 C 43.582031 3.546875 35.347656 2.207031 27.546875 -0.46875 C 19.742188 -3.144531 14.109375 -5.828125 10.640625 -8.515625 L 5.4375 -12.765625 L 22.453125 -41.375 C 23.710938 -40.269531 25.367188 -38.96875 27.421875 -37.46875 C 29.472656 -35.96875 33.175781 -33.914062 38.53125 -31.3125 C 43.894531 -28.71875 48.546875 -27.421875 52.484375 -27.421875 C 61.148438 -27.421875 65.484375 -30.335938 65.484375 -36.171875 C 65.484375 -38.847656 64.378906 -40.9375 62.171875 -42.4375 C 59.960938 -43.9375 56.21875 -45.628906 50.9375 -47.515625 C 45.664062 -49.410156 41.53125 -51.144531 38.53125 -52.71875 C 30.96875 -56.65625 24.976562 -61.101562 20.5625 -66.0625 C 16.15625 -71.03125 13.953125 -77.613281 13.953125 -85.8125 C 13.953125 -98.101562 18.71875 -107.675781 28.25 -114.53125 C 37.78125 -121.394531 50.664062 -124.828125 66.90625 -124.828125 Z M 66.90625 -124.828125 "/></g></g></g><g fill="#000000" fill-opacity="1"><g transform="translate(430.586692, 561.172746)"><g><path d="M 18.203125 -188.890625 C 23.085938 -193.773438 28.914062 -196.21875 35.6875 -196.21875 C 42.46875 -196.21875 48.300781 -193.773438 53.1875 -188.890625 C 58.070312 -184.003906 60.515625 -178.171875 60.515625 -171.390625 C 60.515625 -164.617188 58.070312 -158.789062 53.1875 -153.90625 C 48.300781 -149.019531 42.46875 -146.578125 35.6875 -146.578125 C 28.914062 -146.578125 23.085938 -149.019531 18.203125 -153.90625 C 13.316406 -158.789062 10.875 -164.617188 10.875 -171.390625 C 10.875 -178.171875 13.316406 -184.003906 18.203125 -188.890625 Z M 14.1875 -121.28125 L 14.1875 0 L 56.03125 0 L 56.03125 -121.28125 Z M 14.1875 -121.28125 "/></g></g></g><g fill="#000000" fill-opacity="1"><g transform="translate(490.159794, 561.172746)"><g><path d="M 66.90625 -124.828125 C 73.84375 -124.828125 80.695312 -124.035156 87.46875 -122.453125 C 94.25 -120.878906 99.289062 -119.304688 102.59375 -117.734375 L 107.5625 -115.359375 L 93.859375 -87.9375 C 84.398438 -92.988281 75.414062 -95.515625 66.90625 -95.515625 C 62.175781 -95.515625 58.828125 -95 56.859375 -93.96875 C 54.890625 -92.945312 53.90625 -91.015625 53.90625 -88.171875 C 53.90625 -87.546875 53.984375 -86.914062 54.140625 -86.28125 C 54.296875 -85.65625 54.609375 -85.066406 55.078125 -84.515625 C 55.554688 -83.960938 55.988281 -83.488281 56.375 -83.09375 C 56.769531 -82.695312 57.441406 -82.265625 58.390625 -81.796875 C 59.335938 -81.328125 60.085938 -80.972656 60.640625 -80.734375 C 61.191406 -80.492188 62.097656 -80.132812 63.359375 -79.65625 C 64.617188 -79.1875 65.5625 -78.832031 66.1875 -78.59375 C 66.820312 -78.363281 67.882812 -78.007812 69.375 -77.53125 C 70.875 -77.0625 72.019531 -76.75 72.8125 -76.59375 C 77.695312 -75.175781 81.953125 -73.597656 85.578125 -71.859375 C 89.203125 -70.128906 93.023438 -67.765625 97.046875 -64.765625 C 101.066406 -61.773438 104.175781 -57.992188 106.375 -53.421875 C 108.582031 -48.859375 109.6875 -43.660156 109.6875 -37.828125 C 109.6875 -10.242188 90.539062 3.546875 52.25 3.546875 C 43.582031 3.546875 35.347656 2.207031 27.546875 -0.46875 C 19.742188 -3.144531 14.109375 -5.828125 10.640625 -8.515625 L 5.4375 -12.765625 L 22.453125 -41.375 C 23.710938 -40.269531 25.367188 -38.96875 27.421875 -37.46875 C 29.472656 -35.96875 33.175781 -33.914062 38.53125 -31.3125 C 43.894531 -28.71875 48.546875 -27.421875 52.484375 -27.421875 C 61.148438 -27.421875 65.484375 -30.335938 65.484375 -36.171875 C 65.484375 -38.847656 64.378906 -40.9375 62.171875 -42.4375 C 59.960938 -43.9375 56.21875 -45.628906 50.9375 -47.515625 C 45.664062 -49.410156 41.53125 -51.144531 38.53125 -52.71875 C 30.96875 -56.65625 24.976562 -61.101562 20.5625 -66.0625 C 16.15625 -71.03125 13.953125 -77.613281 13.953125 -85.8125 C 13.953125 -98.101562 18.71875 -107.675781 28.25 -114.53125 C 37.78125 -121.394531 50.664062 -124.828125 66.90625 -124.828125 Z M 66.90625 -124.828125 "/></g></g></g><g fill="#000000" fill-opacity="1"><g transform="translate(594.649101, 561.172746)"><g><path d="M 21.28125 -121.28125 L 21.28125 -166.4375 L 63.125 -166.4375 L 63.125 -121.28125 L 88.65625 -121.28125 L 88.65625 -89.359375 L 63.125 -89.359375 L 63.125 -50.828125 C 63.125 -39.640625 66.273438 -34.046875 72.578125 -34.046875 C 74.148438 -34.046875 75.800781 -34.359375 77.53125 -34.984375 C 79.269531 -35.617188 80.613281 -36.25 81.5625 -36.875 L 82.984375 -37.828125 L 93.375 -4.015625 C 84.394531 1.023438 74.148438 3.546875 62.640625 3.546875 C 54.765625 3.546875 47.988281 2.164062 42.3125 -0.59375 C 36.644531 -3.351562 32.351562 -7.054688 29.4375 -11.703125 C 26.519531 -16.347656 24.429688 -21.234375 23.171875 -26.359375 C 21.910156 -31.484375 21.28125 -36.960938 21.28125 -42.796875 L 21.28125 -89.359375 L 3.78125 -89.359375 L 3.78125 -121.28125 Z M 21.28125 -121.28125 "/></g></g></g><g fill="#000000" fill-opacity="1"><g transform="translate(676.207493, 561.172746)"><g><path d="M 136.875 -54.84375 L 48.9375 -54.84375 C 48.9375 -46.332031 51.691406 -40.023438 57.203125 -35.921875 C 62.722656 -31.828125 68.710938 -29.78125 75.171875 -29.78125 C 81.953125 -29.78125 87.3125 -30.6875 91.25 -32.5 C 95.1875 -34.3125 99.679688 -37.898438 104.734375 -43.265625 L 134.984375 -28.125 C 122.378906 -7.007812 101.421875 3.546875 72.109375 3.546875 C 53.828125 3.546875 38.144531 -2.71875 25.0625 -15.25 C 11.976562 -27.78125 5.4375 -42.867188 5.4375 -60.515625 C 5.4375 -78.171875 11.976562 -93.300781 25.0625 -105.90625 C 38.144531 -118.519531 53.828125 -124.828125 72.109375 -124.828125 C 91.335938 -124.828125 106.976562 -119.269531 119.03125 -108.15625 C 131.082031 -97.039062 137.109375 -81.160156 137.109375 -60.515625 C 137.109375 -57.679688 137.03125 -55.789062 136.875 -54.84375 Z M 50.125 -78.015625 L 96.21875 -78.015625 C 95.269531 -84.316406 92.785156 -89.160156 88.765625 -92.546875 C 84.753906 -95.941406 79.59375 -97.640625 73.28125 -97.640625 C 66.351562 -97.640625 60.835938 -95.828125 56.734375 -92.203125 C 52.640625 -88.578125 50.4375 -83.847656 50.125 -78.015625 Z M 50.125 -78.015625 "/></g></g></g><g fill="#000000" fill-opacity="1"><g transform="translate(806.937263, 561.172746)"><g><path d="M 14.1875 0 L 14.1875 -121.28125 L 56.03125 -121.28125 L 56.03125 -108.515625 L 56.5 -108.515625 C 67.375 -119.390625 78.957031 -124.828125 91.25 -124.828125 C 97.238281 -124.828125 103.1875 -124.035156 109.09375 -122.453125 C 115.007812 -120.878906 120.6875 -118.4375 126.125 -115.125 C 131.5625 -111.820312 135.972656 -107.132812 139.359375 -101.0625 C 142.742188 -95 144.4375 -87.945312 144.4375 -79.90625 L 144.4375 0 L 102.59375 0 L 102.59375 -68.5625 C 102.59375 -74.863281 100.582031 -80.378906 96.5625 -85.109375 C 92.550781 -89.835938 87.3125 -92.203125 80.84375 -92.203125 C 74.539062 -92.203125 68.828125 -89.757812 63.703125 -84.875 C 58.585938 -79.988281 56.03125 -74.550781 56.03125 -68.5625 L 56.03125 0 Z M 14.1875 0 "/></g></g></g><g fill="#000000" fill-opacity="1"><g transform="translate(951.378276, 561.172746)"><g><path d="M 21.28125 -121.28125 L 21.28125 -166.4375 L 63.125 -166.4375 L 63.125 -121.28125 L 88.65625 -121.28125 L 88.65625 -89.359375 L 63.125 -89.359375 L 63.125 -50.828125 C 63.125 -39.640625 66.273438 -34.046875 72.578125 -34.046875 C 74.148438 -34.046875 75.800781 -34.359375 77.53125 -34.984375 C 79.269531 -35.617188 80.613281 -36.25 81.5625 -36.875 L 82.984375 -37.828125 L 93.375 -4.015625 C 84.394531 1.023438 74.148438 3.546875 62.640625 3.546875 C 54.765625 3.546875 47.988281 2.164062 42.3125 -0.59375 C 36.644531 -3.351562 32.351562 -7.054688 29.4375 -11.703125 C 26.519531 -16.347656 24.429688 -21.234375 23.171875 -26.359375 C 21.910156 -31.484375 21.28125 -36.960938 21.28125 -42.796875 L 21.28125 -89.359375 L 3.78125 -89.359375 L 3.78125 -121.28125 Z M 21.28125 -121.28125 "/></g></g></g><g fill="#000000" fill-opacity="1"><g transform="translate(1032.936668, 561.172746)"><g><path d="M 136.875 -54.84375 L 48.9375 -54.84375 C 48.9375 -46.332031 51.691406 -40.023438 57.203125 -35.921875 C 62.722656 -31.828125 68.710938 -29.78125 75.171875 -29.78125 C 81.953125 -29.78125 87.3125 -30.6875 91.25 -32.5 C 95.1875 -34.3125 99.679688 -37.898438 104.734375 -43.265625 L 134.984375 -28.125 C 122.378906 -7.007812 101.421875 3.546875 72.109375 3.546875 C 53.828125 3.546875 38.144531 -2.71875 25.0625 -15.25 C 11.976562 -27.78125 5.4375 -42.867188 5.4375 -60.515625 C 5.4375 -78.171875 11.976562 -93.300781 25.0625 -105.90625 C 38.144531 -118.519531 53.828125 -124.828125 72.109375 -124.828125 C 91.335938 -124.828125 106.976562 -119.269531 119.03125 -108.15625 C 131.082031 -97.039062 137.109375 -81.160156 137.109375 -60.515625 C 137.109375 -57.679688 137.03125 -55.789062 136.875 -54.84375 Z M 50.125 -78.015625 L 96.21875 -78.015625 C 95.269531 -84.316406 92.785156 -89.160156 88.765625 -92.546875 C 84.753906 -95.941406 79.59375 -97.640625 73.28125 -97.640625 C 66.351562 -97.640625 60.835938 -95.828125 56.734375 -92.203125 C 52.640625 -88.578125 50.4375 -83.847656 50.125 -78.015625 Z M 50.125 -78.015625 "/></g></g></g><g fill="#000000" fill-opacity="1"><g transform="translate(1163.666437, 561.172746)"><g><path d="M 14.1875 0 L 14.1875 -121.28125 L 56.03125 -121.28125 L 56.03125 -108.515625 L 56.5 -108.515625 C 67.375 -119.390625 78.957031 -124.828125 91.25 -124.828125 C 97.238281 -124.828125 103.1875 -124.035156 109.09375 -122.453125 C 115.007812 -120.878906 120.6875 -118.4375 126.125 -115.125 C 131.5625 -111.820312 135.972656 -107.132812 139.359375 -101.0625 C 142.742188 -95 144.4375 -87.945312 144.4375 -79.90625 L 144.4375 0 L 102.59375 0 L 102.59375 -68.5625 C 102.59375 -74.863281 100.582031 -80.378906 96.5625 -85.109375 C 92.550781 -89.835938 87.3125 -92.203125 80.84375 -92.203125 C 74.539062 -92.203125 68.828125 -89.757812 63.703125 -84.875 C 58.585938 -79.988281 56.03125 -74.550781 56.03125 -68.5625 L 56.03125 0 Z M 14.1875 0 "/></g></g></g><g fill="#000000" fill-opacity="1"><g transform="translate(1308.107451, 561.172746)"><g><path d="M 41.140625 -50.59375 C 48.703125 -50.59375 55.125 -47.953125 60.40625 -42.671875 C 65.6875 -37.390625 68.328125 -30.96875 68.328125 -23.40625 C 68.328125 -16 65.6875 -9.65625 60.40625 -4.375 C 55.125 0.90625 48.703125 3.546875 41.140625 3.546875 C 33.734375 3.546875 27.390625 0.90625 22.109375 -4.375 C 16.828125 -9.65625 14.1875 -16 14.1875 -23.40625 C 14.1875 -30.96875 16.828125 -37.390625 22.109375 -42.671875 C 27.390625 -47.953125 33.734375 -50.59375 41.140625 -50.59375 Z M 41.140625 -50.59375 "/></g></g></g></svg>