<svg xmlns="http://www.w3.org/2000/svg" xmlns:xlink="http://www.w3.org/1999/xlink" width="1447" zoomAndPan="magnify" viewBox="0 0 1085.25 374.999991" height="500" preserveAspectRatio="xMidYMid meet" version="1.0"><path fill="#000000" d="M 35.414062 26.851562 L 70.292969 26.851562 L 70.292969 179.882812 L 35.414062 179.882812 Z M 35.414062 26.851562 " fill-opacity="1" fill-rule="nonzero"/><path fill="#000000" d="M 83.285156 179.882812 L 83.285156 84.71875 L 116.125 84.71875 L 116.125 94.738281 L 116.492188 94.738281 C 125.03125 86.203125 134.121094 81.9375 143.769531 81.9375 C 148.46875 81.9375 153.136719 82.558594 157.773438 83.800781 C 162.414062 85.035156 166.875 86.953125 171.140625 89.550781 C 175.410156 92.144531 178.871094 95.820312 181.527344 100.585938 C 184.183594 105.339844 185.515625 110.875 185.515625 117.183594 L 185.515625 179.882812 L 152.671875 179.882812 L 152.671875 126.085938 C 152.671875 121.140625 151.09375 116.8125 147.9375 113.101562 C 144.789062 109.394531 140.679688 107.535156 135.601562 107.535156 C 130.652344 107.535156 126.171875 109.453125 122.148438 113.285156 C 118.132812 117.121094 116.125 121.386719 116.125 126.085938 L 116.125 179.882812 Z M 83.285156 179.882812 " fill-opacity="1" fill-rule="nonzero"/><path fill="#000000" d="M 192.382812 203.25 L 219.289062 190.082031 C 224.234375 198.246094 232.832031 202.332031 245.082031 202.332031 C 250.773438 202.332031 256.058594 200.503906 260.9375 196.851562 C 265.824219 193.203125 268.273438 187.609375 268.273438 180.066406 L 268.273438 173.015625 C 262.457031 179.449219 252.066406 182.664062 237.097656 182.664062 C 223.367188 182.664062 212.050781 177.816406 203.140625 168.113281 C 194.234375 158.402344 189.785156 146.5 189.785156 132.398438 C 189.785156 118.300781 194.234375 106.367188 203.140625 96.601562 C 212.050781 86.824219 223.367188 81.9375 237.097656 81.9375 C 249.34375 81.9375 259.550781 85.710938 267.71875 93.253906 L 268.273438 93.253906 L 268.273438 84.71875 L 301.113281 84.71875 L 301.113281 182.480469 C 301.113281 197.933594 295.980469 209.871094 285.710938 218.28125 C 275.441406 226.691406 261.898438 230.894531 245.082031 230.894531 C 217.863281 230.894531 200.296875 221.679688 192.382812 203.25 Z M 231.0625 116.265625 C 226.796875 120.46875 224.664062 125.847656 224.664062 132.398438 C 224.664062 138.957031 226.699219 144.304688 230.78125 148.449219 C 234.867188 152.585938 240.253906 154.652344 246.933594 154.652344 C 253.367188 154.652344 258.65625 152.550781 262.800781 148.347656 C 266.949219 144.140625 269.019531 138.824219 269.019531 132.398438 C 269.019531 125.847656 266.886719 120.46875 262.617188 116.265625 C 258.351562 112.058594 253.121094 109.953125 246.933594 109.953125 C 240.621094 109.953125 235.332031 112.058594 231.0625 116.265625 Z M 231.0625 116.265625 " fill-opacity="1" fill-rule="nonzero"/><path fill="#000000" d="M 314.101562 179.882812 L 314.101562 84.71875 L 346.945312 84.71875 L 346.945312 98.453125 L 347.3125 98.453125 C 347.558594 97.953125 347.957031 97.335938 348.515625 96.601562 C 349.078125 95.859375 350.28125 94.558594 352.132812 92.703125 C 353.988281 90.847656 355.964844 89.179688 358.066406 87.699219 C 360.175781 86.210938 362.898438 84.878906 366.234375 83.703125 C 369.578125 82.527344 372.980469 81.9375 376.4375 81.9375 C 380.027344 81.9375 383.554688 82.433594 387.023438 83.421875 C 390.488281 84.410156 393.023438 85.402344 394.625 86.386719 L 397.226562 87.882812 L 383.488281 115.699219 C 379.410156 112.238281 373.71875 110.503906 366.417969 110.503906 C 362.460938 110.503906 359.0625 111.371094 356.214844 113.101562 C 353.371094 114.835938 351.359375 116.9375 350.183594 119.414062 C 349.011719 121.886719 348.175781 123.984375 347.679688 125.71875 C 347.191406 127.453125 346.945312 128.8125 346.945312 129.800781 L 346.945312 179.882812 Z M 314.101562 179.882812 " fill-opacity="1" fill-rule="nonzero"/><path fill="#000000" d="M 493.519531 136.851562 L 424.5 136.851562 C 424.5 143.527344 426.664062 148.476562 430.988281 151.695312 C 435.320312 154.910156 440.019531 156.515625 445.089844 156.515625 C 450.414062 156.515625 454.621094 155.804688 457.710938 154.382812 C 460.800781 152.960938 464.328125 150.144531 468.292969 145.933594 L 492.035156 157.8125 C 482.144531 174.382812 465.695312 182.664062 442.6875 182.664062 C 428.339844 182.664062 416.03125 177.75 405.761719 167.917969 C 395.492188 158.085938 390.359375 146.246094 390.359375 132.398438 C 390.359375 118.546875 395.492188 106.675781 405.761719 96.785156 C 416.03125 86.886719 428.339844 81.9375 442.6875 81.9375 C 457.777344 81.9375 470.054688 86.296875 479.515625 95.019531 C 488.972656 103.742188 493.703125 116.199219 493.703125 132.398438 C 493.703125 134.625 493.644531 136.109375 493.519531 136.851562 Z M 425.433594 118.667969 L 461.609375 118.667969 C 460.867188 113.722656 458.914062 109.921875 455.761719 107.265625 C 452.613281 104.601562 448.5625 103.269531 443.609375 103.269531 C 438.167969 103.269531 433.839844 104.691406 430.621094 107.535156 C 427.40625 110.378906 425.679688 114.09375 425.433594 118.667969 Z M 425.433594 118.667969 " fill-opacity="1" fill-rule="nonzero"/><path fill="#000000" d="M 506.320312 168.113281 C 497.417969 158.402344 492.964844 146.5 492.964844 132.398438 C 492.964844 118.300781 497.417969 106.367188 506.320312 96.601562 C 515.230469 86.824219 526.550781 81.9375 540.277344 81.9375 C 552.890625 81.9375 563.285156 85.898438 571.453125 93.816406 L 571.453125 20.355469 L 604.292969 20.355469 L 604.292969 179.882812 L 571.820312 179.882812 L 571.820312 169.117188 L 571.453125 169.117188 C 563.285156 178.152344 552.890625 182.664062 540.277344 182.664062 C 526.550781 182.664062 515.230469 177.816406 506.320312 168.113281 Z M 534.246094 116.265625 C 529.976562 120.46875 527.84375 125.847656 527.84375 132.398438 C 527.84375 138.957031 529.882812 144.304688 533.960938 148.449219 C 538.050781 152.585938 543.433594 154.652344 550.113281 154.652344 C 556.546875 154.652344 561.839844 152.550781 565.984375 148.347656 C 570.128906 144.140625 572.199219 138.824219 572.199219 132.398438 C 572.199219 125.847656 570.066406 120.46875 565.800781 116.265625 C 561.53125 112.058594 556.300781 109.953125 550.113281 109.953125 C 543.800781 109.953125 538.511719 112.058594 534.246094 116.265625 Z M 534.246094 116.265625 " fill-opacity="1" fill-rule="nonzero"/><path fill="#000000" d="M 620.433594 31.671875 C 624.265625 27.839844 628.839844 25.921875 634.15625 25.921875 C 639.480469 25.921875 644.058594 27.839844 647.894531 31.671875 C 651.726562 35.503906 653.644531 40.082031 653.644531 45.402344 C 653.644531 50.71875 651.726562 55.289062 647.894531 59.121094 C 644.058594 62.957031 639.480469 64.871094 634.15625 64.871094 C 628.839844 64.871094 624.265625 62.957031 620.433594 59.121094 C 616.597656 55.289062 614.683594 50.71875 614.683594 45.402344 C 614.683594 40.082031 616.597656 35.503906 620.433594 31.671875 Z M 617.28125 84.71875 L 617.28125 179.882812 L 650.125 179.882812 L 650.125 84.71875 Z M 617.28125 84.71875 " fill-opacity="1" fill-rule="nonzero"/><path fill="#000000" d="M 760.335938 136.851562 L 691.316406 136.851562 C 691.316406 143.527344 693.476562 148.476562 697.800781 151.695312 C 702.132812 154.910156 706.835938 156.515625 711.90625 156.515625 C 717.226562 156.515625 721.433594 155.804688 724.523438 154.382812 C 727.613281 152.960938 731.140625 150.144531 735.109375 145.933594 L 758.851562 157.8125 C 748.957031 174.382812 732.507812 182.664062 709.5 182.664062 C 695.152344 182.664062 682.84375 177.75 672.574219 167.917969 C 662.304688 158.085938 657.171875 146.246094 657.171875 132.398438 C 657.171875 118.546875 662.304688 106.675781 672.574219 96.785156 C 682.84375 86.886719 695.152344 81.9375 709.5 81.9375 C 724.59375 81.9375 736.867188 86.296875 746.328125 95.019531 C 755.789062 103.742188 760.519531 116.199219 760.519531 132.398438 C 760.519531 134.625 760.457031 136.109375 760.335938 136.851562 Z M 692.246094 118.667969 L 728.425781 118.667969 C 727.679688 113.722656 725.730469 109.921875 722.574219 107.265625 C 719.425781 104.601562 715.375 103.269531 710.421875 103.269531 C 704.984375 103.269531 700.652344 104.691406 697.433594 107.535156 C 694.222656 110.378906 692.492188 114.09375 692.246094 118.667969 Z M 692.246094 118.667969 " fill-opacity="1" fill-rule="nonzero"/><path fill="#000000" d="M 766.648438 179.882812 L 766.648438 84.71875 L 799.488281 84.71875 L 799.488281 94.738281 L 799.855469 94.738281 C 808.390625 86.203125 817.484375 81.9375 827.132812 81.9375 C 831.832031 81.9375 836.5 82.558594 841.136719 83.800781 C 845.777344 85.035156 850.234375 86.953125 854.503906 89.550781 C 858.769531 92.144531 862.234375 95.820312 864.890625 100.585938 C 867.546875 105.339844 868.875 110.875 868.875 117.183594 L 868.875 179.882812 L 836.035156 179.882812 L 836.035156 126.085938 C 836.035156 121.140625 834.457031 116.8125 831.300781 113.101562 C 828.152344 109.394531 824.039062 107.535156 818.964844 107.535156 C 814.015625 107.535156 809.53125 109.453125 805.511719 113.285156 C 801.492188 117.121094 799.488281 121.386719 799.488281 126.085938 L 799.488281 179.882812 Z M 766.648438 179.882812 " fill-opacity="1" fill-rule="nonzero"/><path fill="#000000" d="M 921.390625 81.9375 C 926.835938 81.9375 932.214844 82.558594 937.53125 83.800781 C 942.855469 85.035156 946.808594 86.269531 949.402344 87.503906 L 953.300781 89.367188 L 942.546875 110.882812 C 935.121094 106.917969 928.070312 104.9375 921.390625 104.9375 C 917.679688 104.9375 915.050781 105.339844 913.507812 106.152344 C 911.960938 106.953125 911.1875 108.46875 911.1875 110.699219 C 911.1875 111.191406 911.25 111.6875 911.371094 112.183594 C 911.496094 112.671875 911.742188 113.136719 912.109375 113.566406 C 912.484375 114.003906 912.824219 114.375 913.125 114.683594 C 913.4375 114.996094 913.964844 115.332031 914.707031 115.699219 C 915.449219 116.070312 916.039062 116.347656 916.476562 116.535156 C 916.90625 116.726562 917.617188 117.007812 918.609375 117.378906 C 919.597656 117.75 920.335938 118.027344 920.828125 118.214844 C 921.324219 118.394531 922.160156 118.675781 923.328125 119.046875 C 924.507812 119.414062 925.40625 119.660156 926.027344 119.785156 C 929.859375 120.894531 933.203125 122.132812 936.046875 123.5 C 938.894531 124.855469 941.890625 126.710938 945.050781 129.066406 C 948.203125 131.414062 950.644531 134.378906 952.371094 137.964844 C 954.101562 141.546875 954.96875 145.625 954.96875 150.199219 C 954.96875 171.847656 939.941406 182.664062 909.890625 182.664062 C 903.085938 182.664062 896.621094 181.613281 890.5 179.515625 C 884.375 177.414062 879.953125 175.308594 877.230469 173.199219 L 873.148438 169.867188 L 886.503906 147.417969 C 887.488281 148.285156 888.789062 149.304688 890.402344 150.484375 C 892.011719 151.660156 894.917969 153.273438 899.121094 155.3125 C 903.332031 157.347656 906.984375 158.367188 910.074219 158.367188 C 916.875 158.367188 920.277344 156.078125 920.277344 151.5 C 920.277344 149.402344 919.410156 147.761719 917.675781 146.585938 C 915.941406 145.40625 913.003906 144.078125 908.859375 142.601562 C 904.71875 141.113281 901.476562 139.753906 899.121094 138.515625 C 893.1875 135.425781 888.484375 131.941406 885.019531 128.046875 C 881.558594 124.148438 879.832031 118.984375 879.832031 112.550781 C 879.832031 102.90625 883.570312 95.394531 891.050781 90.015625 C 898.53125 84.632812 908.644531 81.9375 921.390625 81.9375 Z M 921.390625 81.9375 " fill-opacity="1" fill-rule="nonzero"/><path fill="#000000" d="M 962.027344 111.988281 L 1021.773438 111.988281 L 1021.773438 140.367188 L 962.027344 140.367188 Z M 962.027344 111.988281 " fill-opacity="1" fill-rule="nonzero"/><path fill="#000000" d="M 113.152344 203.066406 L 174.949219 356.097656 L 137.460938 356.097656 L 126.140625 325.496094 L 67.886719 325.496094 L 56.566406 356.097656 L 19.078125 356.097656 L 80.875 203.066406 Z M 114.269531 294.882812 L 97.199219 250.367188 L 96.828125 250.367188 L 79.757812 294.882812 Z M 114.269531 294.882812 " fill-opacity="1" fill-rule="nonzero"/><path fill="#000000" d="M 212.980469 258.152344 C 218.425781 258.152344 223.804688 258.773438 229.121094 260.015625 C 234.441406 261.25 238.398438 262.488281 240.992188 263.71875 L 244.890625 265.582031 L 234.136719 287.097656 C 226.710938 283.136719 219.660156 281.152344 212.980469 281.152344 C 209.269531 281.152344 206.640625 281.558594 205.09375 282.367188 C 203.550781 283.167969 202.777344 284.683594 202.777344 286.914062 C 202.777344 287.40625 202.839844 287.902344 202.960938 288.398438 C 203.085938 288.886719 203.328125 289.351562 203.699219 289.785156 C 204.070312 290.21875 204.410156 290.589844 204.714844 290.898438 C 205.023438 291.210938 205.550781 291.546875 206.296875 291.917969 C 207.039062 292.285156 207.628906 292.5625 208.0625 292.75 C 208.496094 292.941406 209.207031 293.222656 210.195312 293.597656 C 211.183594 293.964844 211.925781 294.242188 212.417969 294.429688 C 212.914062 294.609375 213.746094 294.890625 214.917969 295.261719 C 216.097656 295.632812 216.996094 295.875 217.617188 296 C 221.449219 297.113281 224.789062 298.351562 227.636719 299.714844 C 230.480469 301.070312 233.480469 302.925781 236.636719 305.28125 C 239.792969 307.628906 242.234375 310.59375 243.960938 314.179688 C 245.691406 317.761719 246.558594 321.839844 246.558594 326.417969 C 246.558594 348.0625 231.53125 358.878906 201.476562 358.878906 C 194.675781 358.878906 188.210938 357.828125 182.089844 355.730469 C 175.964844 353.628906 171.542969 351.523438 168.820312 349.414062 L 164.734375 346.082031 L 178.089844 323.632812 C 179.078125 324.5 180.378906 325.519531 181.992188 326.699219 C 183.601562 327.875 186.507812 329.488281 190.710938 331.527344 C 194.917969 333.5625 198.570312 334.582031 201.660156 334.582031 C 208.460938 334.582031 211.863281 332.292969 211.863281 327.714844 C 211.863281 325.617188 210.996094 323.976562 209.265625 322.800781 C 207.53125 321.621094 204.59375 320.296875 200.449219 318.816406 C 196.308594 317.328125 193.066406 315.96875 190.710938 314.730469 C 184.773438 311.644531 180.070312 308.15625 176.605469 304.261719 C 173.148438 300.363281 171.417969 295.199219 171.417969 288.765625 C 171.417969 279.125 175.160156 271.609375 182.640625 266.230469 C 190.121094 260.847656 200.234375 258.152344 212.980469 258.152344 Z M 212.980469 258.152344 " fill-opacity="1" fill-rule="nonzero"/><path fill="#000000" d="M 294.992188 258.152344 C 300.4375 258.152344 305.816406 258.773438 311.132812 260.015625 C 316.453125 261.25 320.410156 262.488281 323.003906 263.71875 L 326.902344 265.582031 L 316.148438 287.097656 C 308.722656 283.136719 301.667969 281.152344 294.992188 281.152344 C 291.277344 281.152344 288.652344 281.558594 287.105469 282.367188 C 285.5625 283.167969 284.789062 284.683594 284.789062 286.914062 C 284.789062 287.40625 284.851562 287.902344 284.972656 288.398438 C 285.09375 288.886719 285.339844 289.351562 285.707031 289.785156 C 286.082031 290.21875 286.421875 290.589844 286.726562 290.898438 C 287.035156 291.210938 287.5625 291.546875 288.308594 291.917969 C 289.050781 292.285156 289.640625 292.5625 290.074219 292.75 C 290.507812 292.941406 291.21875 293.222656 292.207031 293.597656 C 293.195312 293.964844 293.9375 294.242188 294.429688 294.429688 C 294.925781 294.609375 295.757812 294.890625 296.929688 295.261719 C 298.105469 295.632812 299.003906 295.875 299.628906 296 C 303.460938 297.113281 306.800781 298.351562 309.648438 299.714844 C 312.492188 301.070312 315.492188 302.925781 318.648438 305.28125 C 321.804688 307.628906 324.242188 310.59375 325.96875 314.179688 C 327.703125 317.761719 328.570312 321.839844 328.570312 326.417969 C 328.570312 348.0625 313.539062 358.878906 283.488281 358.878906 C 276.683594 358.878906 270.222656 357.828125 264.101562 355.730469 C 257.972656 353.628906 253.554688 351.523438 250.832031 349.414062 L 246.746094 346.082031 L 260.101562 323.632812 C 261.089844 324.5 262.390625 325.519531 264 326.699219 C 265.613281 327.875 268.519531 329.488281 272.722656 331.527344 C 276.929688 333.5625 280.582031 334.582031 283.671875 334.582031 C 290.472656 334.582031 293.875 332.292969 293.875 327.714844 C 293.875 325.617188 293.007812 323.976562 291.277344 322.800781 C 289.539062 321.621094 286.605469 320.296875 282.457031 318.816406 C 278.320312 317.328125 275.074219 315.96875 272.722656 314.730469 C 266.785156 311.644531 262.082031 308.15625 258.617188 304.261719 C 255.160156 300.363281 253.429688 295.199219 253.429688 288.765625 C 253.429688 279.125 257.171875 271.609375 264.652344 266.230469 C 272.132812 260.847656 282.242188 258.152344 294.992188 258.152344 Z M 294.992188 258.152344 " fill-opacity="1" fill-rule="nonzero"/><path fill="#000000" d="M 338.777344 207.886719 C 342.609375 204.054688 347.183594 202.136719 352.5 202.136719 C 357.824219 202.136719 362.398438 204.054688 366.234375 207.886719 C 370.066406 211.71875 371.988281 216.296875 371.988281 221.617188 C 371.988281 226.933594 370.066406 231.503906 366.234375 235.335938 C 362.398438 239.171875 357.824219 241.085938 352.5 241.085938 C 347.183594 241.085938 342.609375 239.171875 338.777344 235.335938 C 334.941406 231.503906 333.027344 226.933594 333.027344 221.617188 C 333.027344 216.296875 334.941406 211.71875 338.777344 207.886719 Z M 335.625 260.933594 L 335.625 356.097656 L 368.46875 356.097656 L 368.46875 260.933594 Z M 335.625 260.933594 " fill-opacity="1" fill-rule="nonzero"/><path fill="#000000" d="M 423.761719 258.152344 C 429.207031 258.152344 434.582031 258.773438 439.898438 260.015625 C 445.222656 261.25 449.175781 262.488281 451.769531 263.71875 L 455.671875 265.582031 L 444.914062 287.097656 C 437.488281 283.136719 430.4375 281.152344 423.761719 281.152344 C 420.046875 281.152344 417.421875 281.558594 415.875 282.367188 C 414.328125 283.167969 413.558594 284.683594 413.558594 286.914062 C 413.558594 287.40625 413.617188 287.902344 413.742188 288.398438 C 413.863281 288.886719 414.109375 289.351562 414.476562 289.785156 C 414.851562 290.21875 415.191406 290.589844 415.496094 290.898438 C 415.804688 291.210938 416.332031 291.546875 417.078125 291.917969 C 417.820312 292.285156 418.40625 292.5625 418.84375 292.75 C 419.273438 292.941406 419.984375 293.222656 420.976562 293.597656 C 421.964844 293.964844 422.707031 294.242188 423.195312 294.429688 C 423.691406 294.609375 424.527344 294.890625 425.699219 295.261719 C 426.875 295.632812 427.773438 295.875 428.394531 296 C 432.226562 297.113281 435.570312 298.351562 438.414062 299.714844 C 441.261719 301.070312 444.257812 302.925781 447.417969 305.28125 C 450.570312 307.628906 453.011719 310.59375 454.738281 314.179688 C 456.46875 317.761719 457.339844 321.839844 457.339844 326.417969 C 457.339844 348.0625 442.308594 358.878906 412.257812 358.878906 C 405.453125 358.878906 398.992188 357.828125 392.867188 355.730469 C 386.742188 353.628906 382.320312 351.523438 379.597656 349.414062 L 375.515625 346.082031 L 388.871094 323.632812 C 389.859375 324.5 391.15625 325.519531 392.769531 326.699219 C 394.378906 327.875 397.285156 329.488281 401.488281 331.527344 C 405.699219 333.5625 409.351562 334.582031 412.441406 334.582031 C 419.242188 334.582031 422.644531 332.292969 422.644531 327.714844 C 422.644531 325.617188 421.777344 323.976562 420.042969 322.800781 C 418.308594 321.621094 415.371094 320.296875 411.226562 318.816406 C 407.089844 317.328125 403.84375 315.96875 401.488281 314.730469 C 395.554688 311.644531 390.851562 308.15625 387.386719 304.261719 C 383.929688 300.363281 382.199219 295.199219 382.199219 288.765625 C 382.199219 279.125 385.9375 271.609375 393.421875 266.230469 C 400.902344 260.847656 411.011719 258.152344 423.761719 258.152344 Z M 423.761719 258.152344 " fill-opacity="1" fill-rule="nonzero"/><path fill="#000000" d="M 469.960938 260.933594 L 469.960938 225.503906 L 502.804688 225.503906 L 502.804688 260.933594 L 522.84375 260.933594 L 522.84375 285.984375 L 502.804688 285.984375 L 502.804688 316.214844 C 502.804688 324.992188 505.273438 329.382812 510.222656 329.382812 C 511.457031 329.382812 512.753906 329.136719 514.109375 328.648438 C 515.476562 328.152344 516.53125 327.65625 517.273438 327.164062 L 518.390625 326.417969 L 526.546875 352.945312 C 519.496094 356.902344 511.457031 358.878906 502.421875 358.878906 C 496.242188 358.878906 490.921875 357.796875 486.46875 355.632812 C 482.019531 353.46875 478.648438 350.5625 476.363281 346.914062 C 474.074219 343.269531 472.433594 339.4375 471.445312 335.414062 C 470.457031 331.394531 469.960938 327.097656 469.960938 322.515625 L 469.960938 285.984375 L 456.226562 285.984375 L 456.226562 260.933594 Z M 469.960938 260.933594 " fill-opacity="1" fill-rule="nonzero"/><path fill="#000000" d="M 624.699219 313.066406 L 555.679688 313.066406 C 555.679688 319.742188 557.84375 324.695312 562.167969 327.910156 C 566.5 331.125 571.199219 332.730469 576.273438 332.730469 C 581.59375 332.730469 585.800781 332.019531 588.890625 330.597656 C 591.980469 329.175781 595.507812 326.359375 599.476562 322.148438 L 623.21875 334.03125 C 613.324219 350.597656 596.875 358.878906 573.867188 358.878906 C 559.519531 358.878906 547.210938 353.964844 536.941406 344.132812 C 526.671875 334.300781 521.539062 322.460938 521.539062 308.613281 C 521.539062 294.761719 526.671875 282.890625 536.941406 273 C 547.210938 263.101562 559.519531 258.152344 573.867188 258.152344 C 588.957031 258.152344 601.234375 262.515625 610.695312 271.234375 C 620.15625 279.957031 624.886719 292.417969 624.886719 308.613281 C 624.886719 310.839844 624.824219 312.324219 624.699219 313.066406 Z M 556.613281 294.882812 L 592.792969 294.882812 C 592.046875 289.941406 590.097656 286.140625 586.941406 283.480469 C 583.792969 280.816406 579.742188 279.484375 574.789062 279.484375 C 569.347656 279.484375 565.019531 280.90625 561.800781 283.75 C 558.585938 286.59375 556.859375 290.308594 556.613281 294.882812 Z M 556.613281 294.882812 " fill-opacity="1" fill-rule="nonzero"/><path fill="#000000" d="M 631.011719 356.097656 L 631.011719 260.933594 L 663.855469 260.933594 L 663.855469 270.953125 L 664.222656 270.953125 C 672.757812 262.417969 681.847656 258.152344 691.496094 258.152344 C 696.199219 258.152344 700.867188 258.773438 705.503906 260.015625 C 710.144531 261.25 714.601562 263.167969 718.871094 265.765625 C 723.136719 268.359375 726.597656 272.035156 729.257812 276.800781 C 731.914062 281.558594 733.242188 287.09375 733.242188 293.398438 L 733.242188 356.097656 L 700.402344 356.097656 L 700.402344 302.300781 C 700.402344 297.355469 698.820312 293.027344 695.667969 289.316406 C 692.519531 285.609375 688.40625 283.75 683.328125 283.75 C 678.382812 283.75 673.898438 285.671875 669.875 289.5 C 665.859375 293.335938 663.855469 297.601562 663.855469 302.300781 L 663.855469 356.097656 Z M 631.011719 356.097656 " fill-opacity="1" fill-rule="nonzero"/><path fill="#000000" d="M 749.949219 260.933594 L 749.949219 225.503906 L 782.792969 225.503906 L 782.792969 260.933594 L 802.828125 260.933594 L 802.828125 285.984375 L 782.792969 285.984375 L 782.792969 316.214844 C 782.792969 324.992188 785.261719 329.382812 790.210938 329.382812 C 791.441406 329.382812 792.738281 329.136719 794.097656 328.648438 C 795.460938 328.152344 796.515625 327.65625 797.261719 327.164062 L 798.378906 326.417969 L 806.535156 352.945312 C 799.484375 356.902344 791.441406 358.878906 782.410156 358.878906 C 776.230469 358.878906 770.910156 357.796875 766.457031 355.632812 C 762.007812 353.46875 758.636719 350.5625 756.351562 346.914062 C 754.058594 343.269531 752.421875 339.4375 751.433594 335.414062 C 750.441406 331.394531 749.949219 327.097656 749.949219 322.515625 L 749.949219 285.984375 L 736.214844 285.984375 L 736.214844 260.933594 Z M 749.949219 260.933594 " fill-opacity="1" fill-rule="nonzero"/><path fill="#000000" d="M 904.6875 313.066406 L 835.667969 313.066406 C 835.667969 319.742188 837.832031 324.695312 842.15625 327.910156 C 846.488281 331.125 851.1875 332.730469 856.257812 332.730469 C 861.582031 332.730469 865.789062 332.019531 868.878906 330.597656 C 871.96875 329.175781 875.496094 326.359375 879.460938 322.148438 L 903.203125 334.03125 C 893.3125 350.597656 876.863281 358.878906 853.855469 358.878906 C 839.507812 358.878906 827.199219 353.964844 816.929688 344.132812 C 806.660156 334.300781 801.527344 322.460938 801.527344 308.613281 C 801.527344 294.761719 806.660156 282.890625 816.929688 273 C 827.199219 263.101562 839.507812 258.152344 853.855469 258.152344 C 868.945312 258.152344 881.222656 262.515625 890.683594 271.234375 C 900.140625 279.957031 904.871094 292.417969 904.871094 308.613281 C 904.871094 310.839844 904.8125 312.324219 904.6875 313.066406 Z M 836.601562 294.882812 L 872.777344 294.882812 C 872.035156 289.941406 870.082031 286.140625 866.929688 283.480469 C 863.78125 280.816406 859.730469 279.484375 854.777344 279.484375 C 849.335938 279.484375 845.007812 280.90625 841.789062 283.75 C 838.574219 286.59375 836.847656 290.308594 836.601562 294.882812 Z M 836.601562 294.882812 " fill-opacity="1" fill-rule="nonzero"/><path fill="#000000" d="M 911 356.097656 L 911 260.933594 L 943.84375 260.933594 L 943.84375 270.953125 L 944.210938 270.953125 C 952.746094 262.417969 961.835938 258.152344 971.484375 258.152344 C 976.183594 258.152344 980.855469 258.773438 985.492188 260.015625 C 990.132812 261.25 994.589844 263.167969 998.859375 265.765625 C 1003.125 268.359375 1006.585938 272.035156 1009.246094 276.800781 C 1011.898438 281.558594 1013.230469 287.09375 1013.230469 293.398438 L 1013.230469 356.097656 L 980.386719 356.097656 L 980.386719 302.300781 C 980.386719 297.355469 978.808594 293.027344 975.65625 289.316406 C 972.507812 285.609375 968.394531 283.75 963.316406 283.75 C 958.371094 283.75 953.886719 285.671875 949.863281 289.5 C 945.847656 293.335938 943.84375 297.601562 943.84375 302.300781 L 943.84375 356.097656 Z M 911 356.097656 " fill-opacity="1" fill-rule="nonzero"/><path fill="#000000" d="M 1045.523438 316.398438 C 1051.460938 316.398438 1056.5 318.472656 1060.644531 322.617188 C 1064.789062 326.757812 1066.863281 331.796875 1066.863281 337.730469 C 1066.863281 343.542969 1064.789062 348.519531 1060.644531 352.664062 C 1056.5 356.808594 1051.460938 358.878906 1045.523438 358.878906 C 1039.710938 358.878906 1034.730469 356.808594 1030.585938 352.664062 C 1026.441406 348.519531 1024.367188 343.542969 1024.367188 337.730469 C 1024.367188 331.796875 1026.441406 326.757812 1030.585938 322.617188 C 1034.730469 318.472656 1039.710938 316.398438 1045.523438 316.398438 Z M 1045.523438 316.398438 " fill-opacity="1" fill-rule="nonzero"/></svg>