<svg xmlns="http://www.w3.org/2000/svg" xmlns:xlink="http://www.w3.org/1999/xlink" width="500" zoomAndPan="magnify" viewBox="0 0 375 374.999991" height="500" preserveAspectRatio="xMidYMid meet" version="1.0"><defs><clipPath id="80cd9b7a14"><path d="M 0 23.671875 L 283 23.671875 L 283 351.421875 L 0 351.421875 Z M 0 23.671875 " clip-rule="nonzero"/></clipPath><clipPath id="9fc318280f"><path d="M 178 259 L 374 259 L 374 351.421875 L 178 351.421875 Z M 178 259 " clip-rule="nonzero"/></clipPath></defs><g clip-path="url(#80cd9b7a14)"><path fill="#000000" d="M 141.488281 335.492188 C 138.410156 335.492188 133.339844 332.726562 124.941406 328.144531 L 122.304688 326.707031 C 90.296875 309.257812 15.851562 260.460938 15.851562 184.328125 L 15.851562 110.386719 C 15.851562 96.039062 16.058594 87.089844 18.933594 83.851562 C 21.96875 80.4375 31.480469 78.617188 46.777344 76.019531 C 76.160156 71.046875 100.269531 62.53125 120.488281 49.992188 L 121.488281 49.363281 C 131.960938 42.855469 137.726562 39.269531 141.496094 39.269531 C 145.265625 39.269531 151.03125 42.847656 161.503906 49.363281 L 162.507812 49.992188 C 182.714844 62.527344 206.820312 71.042969 236.203125 76.019531 C 251.503906 78.617188 261.015625 80.4375 264.046875 83.851562 C 266.925781 87.089844 267.132812 96.039062 267.132812 110.386719 L 267.132812 119.804688 C 267.132812 120.324219 267.183594 120.835938 267.285156 121.34375 C 267.386719 121.851562 267.535156 122.34375 267.734375 122.824219 C 267.933594 123.300781 268.175781 123.753906 268.460938 124.1875 C 268.75 124.617188 269.078125 125.015625 269.441406 125.382812 C 269.808594 125.746094 270.207031 126.074219 270.636719 126.363281 C 271.066406 126.648438 271.523438 126.890625 272 127.089844 C 272.480469 127.289062 272.972656 127.4375 273.480469 127.539062 C 273.988281 127.640625 274.5 127.691406 275.019531 127.691406 C 275.535156 127.691406 276.046875 127.640625 276.554688 127.539062 C 277.0625 127.4375 277.558594 127.289062 278.035156 127.089844 C 278.511719 126.890625 278.96875 126.648438 279.398438 126.363281 C 279.828125 126.074219 280.226562 125.746094 280.59375 125.382812 C 280.957031 125.015625 281.285156 124.617188 281.574219 124.1875 C 281.859375 123.753906 282.105469 123.300781 282.300781 122.824219 C 282.5 122.34375 282.648438 121.851562 282.75 121.34375 C 282.851562 120.835938 282.902344 120.324219 282.902344 119.804688 L 282.902344 110.386719 C 282.902344 71.511719 279.195312 67.3125 238.835938 60.46875 C 211.5 55.847656 189.25 48.027344 170.8125 36.605469 L 169.8125 35.972656 C 156.882812 27.945312 149.753906 23.519531 141.488281 23.519531 C 133.222656 23.519531 126.101562 27.9375 113.167969 35.972656 L 112.171875 36.605469 C 93.726562 48.046875 71.488281 55.847656 44.144531 60.484375 C 3.804688 67.3125 0.0820312 71.511719 0.0820312 110.386719 L 0.0820312 184.328125 C 0.0820312 268.917969 80.277344 321.761719 114.761719 340.558594 L 117.394531 341.988281 C 128.347656 347.984375 134.382812 351.265625 141.488281 351.265625 C 142.007812 351.265625 142.519531 351.214844 143.027344 351.113281 C 143.535156 351.011719 144.027344 350.863281 144.507812 350.664062 C 144.984375 350.464844 145.4375 350.222656 145.871094 349.933594 C 146.300781 349.648438 146.699219 349.320312 147.0625 348.953125 C 147.429688 348.589844 147.757812 348.191406 148.042969 347.757812 C 148.332031 347.328125 148.574219 346.875 148.773438 346.394531 C 148.972656 345.917969 149.121094 345.425781 149.222656 344.917969 C 149.324219 344.410156 149.375 343.894531 149.375 343.378906 C 149.375 342.859375 149.324219 342.347656 149.222656 341.839844 C 149.121094 341.332031 148.972656 340.839844 148.773438 340.359375 C 148.574219 339.882812 148.332031 339.425781 148.042969 338.996094 C 147.757812 338.566406 147.429688 338.167969 147.0625 337.800781 C 146.699219 337.433594 146.300781 337.109375 145.871094 336.820312 C 145.4375 336.53125 144.984375 336.289062 144.507812 336.09375 C 144.027344 335.894531 143.535156 335.746094 143.027344 335.644531 C 142.519531 335.542969 142.007812 335.492188 141.488281 335.492188 Z M 141.488281 335.492188 " fill-opacity="1" fill-rule="nonzero"/></g><path fill="#000000" d="M 200.902344 152.542969 L 136.625 211.25 L 104.402344 181.808594 C 104.019531 181.460938 103.609375 181.152344 103.164062 180.882812 C 102.722656 180.617188 102.257812 180.394531 101.769531 180.21875 C 101.285156 180.042969 100.785156 179.914062 100.273438 179.839844 C 99.761719 179.761719 99.246094 179.734375 98.730469 179.757812 C 98.210938 179.78125 97.703125 179.855469 97.199219 179.976562 C 96.699219 180.101562 96.210938 180.273438 95.742188 180.492188 C 95.273438 180.714844 94.832031 180.976562 94.414062 181.285156 C 94 181.589844 93.613281 181.933594 93.265625 182.316406 C 92.917969 182.699219 92.609375 183.113281 92.339844 183.554688 C 92.074219 184 91.851562 184.464844 91.675781 184.949219 C 91.5 185.4375 91.371094 185.9375 91.292969 186.449219 C 91.214844 186.960938 91.1875 187.476562 91.210938 187.992188 C 91.234375 188.507812 91.308594 189.019531 91.433594 189.523438 C 91.554688 190.023438 91.726562 190.511719 91.949219 190.980469 C 92.167969 191.449219 92.429688 191.890625 92.738281 192.308594 C 93.042969 192.726562 93.386719 193.109375 93.769531 193.457031 L 131.308594 227.765625 C 131.667969 228.09375 132.058594 228.386719 132.472656 228.644531 C 132.886719 228.902344 133.320312 229.121094 133.773438 229.296875 C 134.230469 229.472656 134.695312 229.605469 135.175781 229.695312 C 135.65625 229.785156 136.140625 229.828125 136.625 229.828125 C 137.113281 229.828125 137.597656 229.785156 138.078125 229.695312 C 138.554688 229.605469 139.023438 229.472656 139.476562 229.296875 C 139.933594 229.121094 140.367188 228.902344 140.78125 228.644531 C 141.195312 228.386719 141.582031 228.09375 141.945312 227.765625 L 211.527344 164.191406 C 211.894531 163.839844 212.222656 163.453125 212.511719 163.035156 C 212.804688 162.621094 213.054688 162.179688 213.261719 161.714844 C 213.464844 161.25 213.625 160.769531 213.738281 160.273438 C 213.851562 159.777344 213.917969 159.273438 213.933594 158.765625 C 213.949219 158.257812 213.917969 157.753906 213.835938 157.25 C 213.753906 156.75 213.625 156.257812 213.449219 155.78125 C 213.273438 155.304688 213.054688 154.847656 212.789062 154.414062 C 212.523438 153.980469 212.222656 153.574219 211.878906 153.199219 C 211.535156 152.824219 211.160156 152.484375 210.75 152.179688 C 210.34375 151.878906 209.910156 151.617188 209.449219 151.398438 C 208.992188 151.179688 208.515625 151.003906 208.023438 150.878906 C 207.53125 150.75 207.03125 150.671875 206.523438 150.640625 C 206.015625 150.613281 205.507812 150.628906 205.003906 150.699219 C 204.5 150.765625 204.007812 150.882812 203.527344 151.042969 C 203.046875 151.207031 202.582031 151.414062 202.140625 151.667969 C 201.699219 151.921875 201.289062 152.210938 200.902344 152.542969 Z M 200.902344 152.542969 " fill-opacity="1" fill-rule="nonzero"/><path fill="#000000" d="M 230.8125 202.273438 C 230.8125 203.757812 230.886719 205.238281 231.03125 206.714844 C 231.175781 208.191406 231.394531 209.65625 231.683594 211.113281 C 231.972656 212.566406 232.332031 214.007812 232.765625 215.425781 C 233.195312 216.847656 233.695312 218.242188 234.261719 219.613281 C 234.828125 220.984375 235.460938 222.324219 236.160156 223.632812 C 236.863281 224.941406 237.625 226.214844 238.449219 227.449219 C 239.273438 228.683594 240.15625 229.871094 241.09375 231.019531 C 242.035156 232.167969 243.03125 233.265625 244.082031 234.316406 C 245.128906 235.363281 246.226562 236.359375 247.375 237.300781 C 248.523438 238.242188 249.710938 239.125 250.945312 239.949219 C 252.179688 240.777344 253.449219 241.539062 254.757812 242.238281 C 256.066406 242.9375 257.40625 243.570312 258.777344 244.140625 C 260.148438 244.707031 261.542969 245.207031 262.964844 245.636719 C 264.382812 246.066406 265.820312 246.429688 267.277344 246.71875 C 268.730469 247.007812 270.195312 247.226562 271.671875 247.371094 C 273.148438 247.515625 274.628906 247.589844 276.113281 247.589844 C 277.597656 247.589844 279.078125 247.515625 280.554688 247.371094 C 282.03125 247.226562 283.496094 247.007812 284.953125 246.71875 C 286.40625 246.429688 287.84375 246.070312 289.265625 245.636719 C 290.683594 245.207031 292.078125 244.707031 293.449219 244.140625 C 294.820312 243.574219 296.160156 242.9375 297.46875 242.238281 C 298.777344 241.539062 300.046875 240.777344 301.28125 239.953125 C 302.515625 239.128906 303.707031 238.246094 304.851562 237.304688 C 306 236.363281 307.097656 235.367188 308.148438 234.316406 C 309.195312 233.269531 310.191406 232.171875 311.132812 231.023438 C 312.074219 229.875 312.957031 228.683594 313.78125 227.453125 C 314.605469 226.21875 315.367188 224.945312 316.066406 223.636719 C 316.765625 222.328125 317.398438 220.988281 317.96875 219.617188 C 318.535156 218.246094 319.035156 216.851562 319.464844 215.429688 C 319.894531 214.011719 320.257812 212.570312 320.546875 211.117188 C 320.835938 209.660156 321.054688 208.195312 321.199219 206.71875 C 321.34375 205.242188 321.417969 203.761719 321.417969 202.277344 C 321.417969 200.792969 321.34375 199.3125 321.199219 197.835938 C 321.054688 196.359375 320.835938 194.890625 320.546875 193.4375 C 320.257812 191.980469 319.898438 190.542969 319.464844 189.121094 C 319.035156 187.703125 318.535156 186.304688 317.96875 184.933594 C 317.402344 183.5625 316.765625 182.222656 316.066406 180.914062 C 315.367188 179.605469 314.605469 178.335938 313.78125 177.101562 C 312.957031 175.867188 312.074219 174.675781 311.132812 173.527344 C 310.191406 172.382812 309.199219 171.28125 308.148438 170.234375 C 307.097656 169.183594 306 168.1875 304.855469 167.246094 C 303.707031 166.304688 302.515625 165.421875 301.285156 164.597656 C 300.050781 163.773438 298.777344 163.011719 297.46875 162.3125 C 296.160156 161.613281 294.824219 160.976562 293.453125 160.410156 C 292.082031 159.84375 290.6875 159.34375 289.265625 158.914062 C 287.847656 158.480469 286.410156 158.121094 284.953125 157.832031 C 283.5 157.542969 282.03125 157.324219 280.554688 157.179688 C 279.078125 157.035156 277.597656 156.960938 276.117188 156.960938 C 274.632812 156.960938 273.152344 157.035156 271.675781 157.183594 C 270.199219 157.332031 268.734375 157.550781 267.28125 157.839844 C 265.828125 158.128906 264.390625 158.492188 262.972656 158.921875 C 261.550781 159.355469 260.15625 159.855469 258.789062 160.421875 C 257.417969 160.992188 256.078125 161.625 254.769531 162.324219 C 253.464844 163.027344 252.191406 163.789062 250.960938 164.613281 C 249.726562 165.4375 248.539062 166.320312 247.390625 167.261719 C 246.246094 168.203125 245.148438 169.199219 244.097656 170.246094 C 243.050781 171.296875 242.054688 172.394531 241.113281 173.539062 C 240.171875 174.6875 239.289062 175.875 238.464844 177.109375 C 237.640625 178.34375 236.878906 179.613281 236.179688 180.921875 C 235.480469 182.230469 234.84375 183.570312 234.277344 184.941406 C 233.707031 186.308594 233.207031 187.703125 232.777344 189.125 C 232.34375 190.542969 231.984375 191.980469 231.695312 193.433594 C 231.402344 194.890625 231.183594 196.355469 231.039062 197.832031 C 230.890625 199.308594 230.816406 200.789062 230.8125 202.273438 Z M 305.644531 202.273438 C 305.644531 203.238281 305.597656 204.203125 305.503906 205.167969 C 305.410156 206.128906 305.265625 207.085938 305.078125 208.035156 C 304.890625 208.984375 304.65625 209.921875 304.375 210.847656 C 304.09375 211.773438 303.769531 212.683594 303.398438 213.578125 C 303.027344 214.472656 302.617188 215.34375 302.160156 216.199219 C 301.703125 217.050781 301.207031 217.882812 300.667969 218.6875 C 300.132812 219.488281 299.558594 220.265625 298.941406 221.015625 C 298.328125 221.761719 297.679688 222.476562 296.996094 223.164062 C 296.3125 223.847656 295.597656 224.496094 294.847656 225.109375 C 294.101562 225.722656 293.324219 226.300781 292.523438 226.835938 C 291.71875 227.375 290.890625 227.871094 290.035156 228.328125 C 289.183594 228.785156 288.308594 229.195312 287.414062 229.566406 C 286.523438 229.9375 285.613281 230.261719 284.6875 230.542969 C 283.761719 230.824219 282.824219 231.058594 281.875 231.25 C 280.925781 231.4375 279.972656 231.578125 279.007812 231.675781 C 278.046875 231.769531 277.082031 231.816406 276.113281 231.816406 C 275.144531 231.816406 274.179688 231.769531 273.21875 231.675781 C 272.253906 231.578125 271.300781 231.4375 270.351562 231.25 C 269.402344 231.0625 268.464844 230.824219 267.539062 230.546875 C 266.613281 230.265625 265.703125 229.9375 264.8125 229.566406 C 263.917969 229.199219 263.042969 228.785156 262.191406 228.328125 C 261.335938 227.871094 260.507812 227.375 259.703125 226.839844 C 258.902344 226.300781 258.125 225.726562 257.375 225.109375 C 256.628906 224.496094 255.914062 223.847656 255.230469 223.164062 C 254.546875 222.480469 253.894531 221.765625 253.28125 221.015625 C 252.667969 220.269531 252.09375 219.492188 251.554688 218.6875 C 251.019531 217.882812 250.523438 217.054688 250.066406 216.199219 C 249.609375 215.347656 249.195312 214.472656 248.828125 213.578125 C 248.457031 212.6875 248.132812 211.777344 247.851562 210.851562 C 247.570312 209.925781 247.335938 208.988281 247.144531 208.039062 C 246.957031 207.089844 246.816406 206.132812 246.722656 205.167969 C 246.625 204.207031 246.578125 203.242188 246.578125 202.273438 C 246.578125 201.304688 246.625 200.339844 246.722656 199.378906 C 246.816406 198.414062 246.957031 197.460938 247.148438 196.511719 C 247.335938 195.5625 247.570312 194.625 247.851562 193.699219 C 248.132812 192.773438 248.457031 191.863281 248.828125 190.96875 C 249.199219 190.074219 249.609375 189.199219 250.066406 188.347656 C 250.523438 187.496094 251.019531 186.664062 251.558594 185.859375 C 252.09375 185.058594 252.671875 184.28125 253.285156 183.53125 C 253.898438 182.785156 254.546875 182.070312 255.230469 181.382812 C 255.914062 180.699219 256.628906 180.050781 257.378906 179.4375 C 258.125 178.824219 258.902344 178.25 259.707031 177.710938 C 260.511719 177.171875 261.339844 176.675781 262.191406 176.21875 C 263.046875 175.765625 263.917969 175.351562 264.8125 174.980469 C 265.707031 174.609375 266.617188 174.285156 267.542969 174.003906 C 268.46875 173.722656 269.40625 173.488281 270.351562 173.300781 C 271.300781 173.113281 272.257812 172.96875 273.21875 172.875 C 274.183594 172.78125 275.148438 172.734375 276.117188 172.734375 C 277.082031 172.734375 278.046875 172.78125 279.007812 172.878906 C 279.972656 172.972656 280.925781 173.117188 281.875 173.308594 C 282.820312 173.496094 283.757812 173.730469 284.683594 174.011719 C 285.609375 174.292969 286.519531 174.621094 287.410156 174.992188 C 288.304688 175.363281 289.175781 175.773438 290.027344 176.230469 C 290.882812 176.6875 291.710938 177.183594 292.511719 177.722656 C 293.316406 178.261719 294.09375 178.835938 294.839844 179.449219 C 295.585938 180.0625 296.300781 180.710938 296.984375 181.394531 C 297.667969 182.078125 298.320312 182.792969 298.933594 183.542969 C 299.546875 184.289062 300.121094 185.066406 300.65625 185.871094 C 301.195312 186.671875 301.691406 187.5 302.148438 188.355469 C 302.605469 189.207031 303.019531 190.082031 303.386719 190.972656 C 303.757812 191.867188 304.085938 192.777344 304.367188 193.703125 C 304.648438 194.625 304.882812 195.5625 305.074219 196.511719 C 305.261719 197.460938 305.40625 198.414062 305.5 199.378906 C 305.597656 200.339844 305.644531 201.304688 305.644531 202.273438 Z M 305.644531 202.273438 " fill-opacity="1" fill-rule="nonzero"/><g clip-path="url(#9fc318280f)"><path fill="#000000" d="M 370.613281 325.601562 L 369.832031 323.515625 C 346.664062 261.429688 344.070312 259.664062 276.875 260.007812 L 273.300781 260.027344 C 206.984375 260.367188 203.667969 262.503906 184.59375 317.105469 L 181.558594 325.765625 C 179.316406 332.125 177.261719 339.386719 181.292969 345.089844 C 185.328125 350.792969 192.75 351.265625 199.390625 351.265625 L 352.804688 351.265625 C 359.527344 351.265625 367.042969 350.773438 371.09375 344.957031 C 375.148438 339.136719 372.960938 331.902344 370.613281 325.601562 Z M 352.804688 335.492188 L 199.390625 335.492188 C 197.429688 335.492188 196.050781 335.417969 195.085938 335.328125 C 195.328125 334.351562 195.738281 332.96875 196.429688 331.011719 L 199.480469 322.304688 C 207.859375 298.332031 212.0625 286.289062 219.921875 281.296875 C 228.164062 276.046875 244.226562 275.960938 273.382812 275.808594 L 276.960938 275.808594 C 307.085938 275.644531 322.214844 275.566406 330.886719 281.488281 C 339.558594 287.40625 344.707031 301.308594 355.066406 329.070312 L 355.847656 331.15625 C 356.375 332.53125 356.835938 333.929688 357.222656 335.351562 C 355.75 335.472656 354.277344 335.519531 352.804688 335.492188 Z M 352.804688 335.492188 " fill-opacity="1" fill-rule="nonzero"/></g></svg>