<svg xmlns="http://www.w3.org/2000/svg" xmlns:xlink="http://www.w3.org/1999/xlink" width="500" zoomAndPan="magnify" viewBox="0 0 375 225" height="300" preserveAspectRatio="xMidYMid meet" version="1.0"><path fill="#000000" d="M 202.738281 176.3125 C 203.257812 182.839844 204.148438 188.550781 206.066406 194.042969 C 206.316406 194.769531 206.046875 195.621094 205.226562 195.898438 C 204.824219 196.03125 204.148438 195.871094 203.808594 195.589844 C 200.230469 192.601562 200.925781 188.097656 199.859375 184.21875 C 199.078125 181.351562 199.402344 178.742188 202.738281 176.308594 Z M 202.738281 176.3125 " fill-opacity="1" fill-rule="nonzero"/><path fill="#000000" d="M 212.660156 201.539062 C 204.65625 207.671875 197.03125 207.222656 189.15625 201.261719 C 192.3125 199.667969 194.664062 201.398438 197.039062 202.257812 C 199.527344 203.160156 202.085938 203.402344 204.648438 203.058594 C 207.335938 202.699219 209.992188 202.058594 212.660156 201.539062 Z M 212.660156 201.539062 " fill-opacity="1" fill-rule="nonzero"/><path fill="#000000" d="M 163.144531 181.378906 C 157.3125 180.722656 156.449219 173.617188 150.265625 173.199219 C 157.34375 169.179688 160.441406 171.367188 163.144531 181.378906 Z M 163.144531 181.378906 " fill-opacity="1" fill-rule="nonzero"/><path fill="#000000" d="M 190.128906 222.632812 C 174.570312 225.050781 159.582031 220.941406 145.457031 212.6875 C 142.550781 210.992188 139.363281 209.777344 136.257812 208.441406 C 114.882812 199.289062 98.894531 185.101562 92.816406 161.78125 C 91.769531 157.777344 89.722656 155.511719 85.523438 154.882812 C 73.949219 153.160156 63.597656 147.8125 54.035156 141.738281 C 42.515625 134.421875 32.773438 124.878906 30.734375 110.132812 C 30.523438 108.597656 30.351562 106.949219 29.675781 105.597656 C 26.425781 99.101562 26.089844 92.757812 29.65625 86.21875 C 30.464844 84.730469 30.40625 82.679688 30.445312 80.878906 C 30.515625 77.609375 31.492188 74.671875 33.628906 72.277344 C 38.175781 67.179688 41.285156 61.160156 44.792969 55.390625 C 47.378906 51.148438 50.179688 47.050781 53.964844 43.820312 C 71.710938 28.679688 91.207031 17.390625 115.242188 15.957031 C 124.832031 15.382812 134.417969 13.511719 143.96875 13.738281 C 156.082031 14.027344 168.492188 13.132812 180.175781 17.648438 C 183.351562 18.871094 186.0625 18.957031 189 17.03125 C 194.285156 13.5625 200.320312 11.8125 206.347656 10.1875 C 211.882812 8.6875 217.359375 7.070312 222.601562 4.722656 C 225.472656 3.4375 228.46875 2.511719 231.605469 2.320312 C 242.757812 1.648438 253.902344 0.882812 265.0625 0.488281 C 278.0625 0.0195312 290.273438 3.300781 301.957031 8.882812 C 306.492188 11.050781 310.480469 13.648438 313.535156 17.800781 C 316.492188 21.828125 320.792969 24.519531 325.015625 27.050781 C 332.882812 31.761719 337.496094 38.671875 339.585938 47.382812 C 340.574219 51.511719 341.976562 55.320312 345.113281 58.347656 C 347.8125 60.957031 348.191406 64.199219 347.441406 67.722656 C 347.0625 69.5 346.378906 71.371094 346.613281 73.097656 C 349.046875 90.550781 339.503906 104.648438 333.441406 119.632812 C 329.925781 128.320312 323.191406 134.601562 314.496094 138.429688 C 303.085938 143.441406 291.863281 148.980469 279.140625 150.199219 C 273.84375 150.707031 274.085938 151.039062 273.9375 156.511719 C 273.5625 169.96875 269.410156 182.167969 260.132812 192.0625 C 242.089844 211.289062 220.195312 222.449219 193.355469 222.640625 C 192.574219 222.640625 191.796875 222.640625 190.128906 222.640625 Z M 90.058594 110.019531 C 92.496094 108.269531 93.746094 105.648438 94.90625 103.050781 C 97.734375 96.722656 102.199219 91.71875 107.285156 87.1875 C 121.035156 74.921875 137.183594 67.628906 155.140625 63.980469 C 161.347656 62.71875 167.511719 62.527344 173.726562 63.710938 C 183.683594 65.601562 193.683594 67.242188 203.125 71.269531 C 207.671875 73.207031 208.75 72.277344 208.414062 67.390625 C 208.222656 64.550781 207.554688 61.742188 207.082031 58.929688 C 202.90625 34.28125 185.179688 18.859375 160.386719 18.230469 C 146.339844 17.871094 132.359375 18.242188 118.320312 19.378906 C 85.53125 22.019531 60.851562 37.121094 43.851562 65.171875 C 39.199219 72.839844 33.421875 79.699219 32.394531 89.3125 C 31.953125 93.46875 30.992188 97.28125 32.382812 101.421875 C 33.710938 105.351562 34.609375 109.4375 35.597656 113.472656 C 36.347656 116.53125 37.378906 119.410156 39.140625 122.0625 C 49.777344 138.082031 66.308594 144.878906 83.65625 150.117188 C 89.121094 151.761719 89.96875 150.449219 89.222656 144.578125 C 87.859375 133.789062 85.734375 122.988281 89.898438 112.308594 C 90.167969 111.617188 90.039062 110.761719 90.097656 109.988281 L 90.050781 110.039062 Z M 91.648438 127.371094 C 92.21875 139.511719 94.027344 149.429688 96.203125 159.351562 C 100.914062 180.847656 115.433594 193.839844 133.835938 203.261719 C 140.503906 206.679688 147.515625 209.53125 154.234375 212.9375 C 160.527344 216.121094 167.183594 217.980469 174.1875 219.238281 C 181.03125 220.46875 187.621094 219.117188 194.3125 219.207031 C 213.441406 219.460938 229.898438 211.917969 244.945312 201.378906 C 257.085938 192.871094 266.449219 181.652344 268.71875 166.171875 C 270.398438 154.699219 267.53125 143.679688 262.511719 133.730469 C 248.566406 106.089844 226.777344 86.121094 198.640625 73.527344 C 187.988281 68.757812 176.214844 66.152344 164.453125 66.839844 C 142.332031 68.128906 123.417969 77.402344 107.246094 92.367188 C 103.769531 95.578125 100.910156 99.289062 100.214844 104.191406 C 99.871094 106.617188 98.625 108.601562 97.15625 110.417969 C 92.640625 115.988281 90.871094 122.277344 91.65625 127.371094 Z M 263.300781 3.988281 C 257.335938 3.28125 249.980469 5.738281 242.429688 5.808594 C 226.730469 5.957031 212.699219 12.621094 198.242188 17.410156 C 190.324219 20.03125 189.964844 23.050781 195.832031 28.761719 C 204.558594 37.257812 209.742188 47.382812 211.453125 59.421875 C 212.007812 63.308594 212.292969 67.171875 212.269531 71.070312 C 212.25 74.21875 213.441406 76.632812 216.160156 78.207031 C 229.214844 85.738281 238.910156 97.082031 249.445312 107.460938 C 258.894531 116.769531 265.699219 127.628906 269.265625 140.507812 C 271.019531 146.851562 272.175781 147.339844 278.75 146.582031 C 291.632812 145.089844 303.265625 139.898438 314.734375 134.328125 C 320.460938 131.542969 325.464844 127.359375 328.113281 121.632812 C 335.019531 106.71875 345.089844 92.730469 342.984375 74.871094 C 342.691406 72.367188 343.445312 69.71875 343.851562 67.160156 C 344.28125 64.417969 343.855469 61.960938 341.832031 59.96875 C 338.527344 56.71875 337.277344 52.609375 336.179688 48.230469 C 334.292969 40.6875 330.363281 34.492188 323.371094 30.371094 C 318.464844 27.480469 313.386719 24.5625 309.996094 19.800781 C 307.46875 16.257812 304.121094 14.070312 300.308594 12.238281 C 289.125 6.847656 277.414062 3.820312 263.300781 3.992188 Z M 263.300781 3.988281 " fill-opacity="1" fill-rule="nonzero"/><path fill="#000000" d="M 168.730469 129.859375 C 174.496094 129.667969 179.601562 129.648438 185.222656 127.789062 C 184.632812 131.550781 182.449219 132.542969 179.921875 133.097656 C 179.195312 133.257812 178.382812 132.9375 177.613281 132.949219 C 169.75 133.078125 167.183594 135.8125 168.144531 143.378906 C 164.773438 143.199219 163.984375 140.671875 163.214844 138.261719 C 161.617188 133.257812 157.371094 131.179688 153.035156 131.449219 C 148.015625 131.761719 144.410156 130.421875 141.503906 126.679688 C 139.996094 124.738281 138.273438 124.128906 136.09375 125.109375 C 134.9375 125.628906 133.480469 126.449219 134.660156 127.972656 C 135.535156 129.101562 137.734375 129.777344 135.429688 131.339844 C 133.6875 132.527344 131.527344 133.21875 129.558594 132 C 128.03125 131.058594 128.351562 129.292969 128.699219 127.738281 C 129.523438 124 132.101562 121.878906 135.597656 121.117188 C 139.800781 120.199219 142.171875 117.617188 144.261719 114.03125 C 147.890625 107.8125 152.546875 105.820312 158.46875 107.179688 C 163.628906 108.367188 169.789062 114.492188 170.671875 119.230469 C 171.332031 122.75 168.679688 125.601562 168.730469 129.851562 Z M 146.621094 118.839844 C 146.117188 122.898438 147.695312 125.21875 151.773438 125.777344 C 153.574219 126.019531 155.363281 126.121094 157.011719 126.917969 C 160.128906 128.410156 163.066406 128.699219 165.144531 125.359375 C 167.195312 122.058594 166.433594 118.941406 163.988281 116.128906 C 162.457031 114.359375 160.738281 112.847656 158.507812 111.949219 C 152.695312 109.601562 147.386719 112.652344 146.621094 118.839844 Z M 146.621094 118.839844 " fill-opacity="1" fill-rule="nonzero"/><path fill="#000000" d="M 233.992188 123.0625 C 237.34375 123.050781 239.691406 124.472656 240.207031 128.300781 C 240.441406 130.078125 240.847656 131.859375 241.386719 133.570312 C 243.285156 139.652344 241.03125 145.621094 235.640625 148.550781 C 230.957031 151.089844 222.300781 149.851562 218.945312 146.160156 C 218.367188 145.519531 215.765625 129.542969 216.175781 128.808594 C 217.199219 126.941406 218.546875 125.207031 220.695312 124.832031 C 225.023438 124.089844 229.40625 123.652344 233.992188 123.0625 Z M 229.15625 145.597656 C 232.574219 145.742188 235.542969 144.148438 236.980469 140.789062 C 238.75 136.667969 237.144531 132.441406 235.203125 128.992188 C 233.554688 126.058594 230.015625 127.871094 227.320312 128.402344 C 220.960938 129.660156 220.984375 129.710938 222.230469 136.179688 C 222.421875 137.179688 222.421875 138.21875 222.492188 139.242188 C 222.839844 144.378906 224.039062 145.582031 229.15625 145.597656 Z M 229.15625 145.597656 " fill-opacity="1" fill-rule="nonzero"/><path fill="#000000" d="M 155.359375 101.070312 C 150.816406 103.402344 146.101562 104.199219 141.320312 103.441406 C 137.515625 102.847656 134.175781 102.867188 131.070312 105.441406 C 130.113281 106.238281 128.769531 106.839844 127.542969 106.96875 C 121.976562 107.542969 120.230469 111.1875 119.855469 116.058594 C 119.550781 119.902344 117.988281 122.9375 113.011719 125.578125 C 115.613281 119.851562 114.980469 114.78125 116.570312 110.179688 C 117.972656 106.117188 120.519531 102.851562 125.484375 102.652344 C 126.484375 102.617188 127.632812 102.359375 128.433594 101.800781 C 136.558594 96.148438 145.492188 99.667969 154.09375 99.480469 C 154.382812 99.480469 154.683594 100.199219 155.359375 101.070312 Z M 155.359375 101.070312 " fill-opacity="1" fill-rule="nonzero"/><path fill="#000000" d="M 187.480469 187.992188 C 184.210938 187.457031 181.132812 187.027344 178.085938 186.429688 C 171.972656 185.242188 169.839844 181.582031 171.761719 175.75 C 173.707031 169.851562 183.019531 164.980469 188.949219 166.761719 C 194.050781 168.292969 196.183594 172.5 195.320312 179.292969 C 194.574219 185.121094 191.933594 187.980469 187.488281 187.988281 Z M 191.398438 178.140625 C 191.542969 172.878906 189.070312 170.511719 183.800781 171.210938 C 181.8125 171.472656 179.785156 172.167969 178.003906 173.097656 C 175.46875 174.410156 174.566406 176.847656 174.910156 179.609375 C 175.289062 182.640625 177.726562 182.832031 180.082031 183.109375 C 181.605469 183.289062 183.113281 183.652344 184.632812 183.832031 C 189.558594 184.429688 191.273438 182.972656 191.398438 178.140625 Z M 191.398438 178.140625 " fill-opacity="1" fill-rule="nonzero"/><path fill="#000000" d="M 212.792969 125.988281 C 212.847656 126.707031 212.972656 127.078125 212.867188 127.179688 C 209.222656 130.578125 208.671875 134.230469 211.21875 138.140625 C 217.726562 148.148438 216.546875 158.660156 207.542969 167.941406 C 206.476562 165.28125 207.832031 163.257812 208.753906 161.382812 C 212.960938 152.808594 211.863281 144.871094 206.402344 137.25 C 204.816406 135.042969 201.976562 132.890625 204.21875 129.75 C 206.253906 126.917969 209.203125 125.570312 212.800781 125.988281 Z M 212.792969 125.988281 " fill-opacity="1" fill-rule="nonzero"/><path fill="#000000" d="M 134.320312 164.492188 C 123.433594 163.640625 114.699219 152.347656 115.5 141.460938 C 119.726562 145.019531 119.886719 150.378906 122.878906 154.039062 C 125.921875 157.761719 130.558594 159.707031 134.320312 164.492188 Z M 134.320312 164.492188 " fill-opacity="1" fill-rule="nonzero"/><path fill="#000000" d="M 232.8125 112.589844 C 241.171875 111.199219 245.078125 114.480469 249.433594 126.132812 C 241.371094 124.019531 240.441406 114.320312 232.8125 112.589844 Z M 232.8125 112.589844 " fill-opacity="1" fill-rule="nonzero"/><path fill="#000000" d="M 184.332031 115.597656 C 183.542969 117.480469 180.824219 118.460938 181.945312 121.371094 C 182.230469 122.101562 180.332031 122.042969 179.484375 121.46875 C 177.683594 120.238281 176.933594 118.261719 176.125 116.359375 C 175.605469 115.128906 175.378906 113.820312 176.417969 112.742188 C 177.894531 111.210938 179.691406 111.378906 181.441406 112.152344 C 182.910156 112.800781 184.011719 113.867188 184.332031 115.597656 Z M 184.332031 115.597656 " fill-opacity="1" fill-rule="nonzero"/><path fill="#000000" d="M 250.910156 151.6875 C 249.03125 146.441406 245.507812 141.527344 247.613281 135.609375 C 250.414062 140.632812 253.480469 145.570312 250.910156 151.6875 Z M 250.910156 151.6875 " fill-opacity="1" fill-rule="nonzero"/><path fill="#000000" d="M 149.484375 86.5 C 144.160156 88.082031 138.835938 89.667969 133 91.402344 C 136.726562 85.707031 140.941406 84.339844 149.484375 86.5 Z M 149.484375 86.5 " fill-opacity="1" fill-rule="nonzero"/><path fill="#000000" d="M 170.042969 88.578125 C 161.675781 92.878906 158.417969 92.242188 155.042969 86.097656 C 159.820312 86.882812 164.167969 87.609375 170.042969 88.578125 Z M 170.042969 88.578125 " fill-opacity="1" fill-rule="nonzero"/><path fill="#000000" d="M 293.480469 82.03125 C 292.691406 85.429688 295.65625 87.847656 296.890625 90.832031 C 299.136719 96.238281 298.847656 96.949219 293.183594 97.800781 C 282.351562 99.4375 277.089844 94.742188 277.3125 83.820312 C 277.375 80.652344 278.34375 78.230469 281.492188 77.171875 C 285.148438 75.949219 288.855469 74.332031 292.609375 76.867188 C 294.421875 78.089844 294.449219 79.8125 293.480469 82.03125 Z M 289.761719 78.898438 C 285.464844 80.300781 282.027344 80.039062 281.296875 83.53125 C 280.582031 86.949219 281.660156 90.261719 283.910156 92.890625 C 286.09375 95.441406 289.183594 95.207031 291.691406 93.679688 C 294.277344 92.109375 292.152344 90.03125 291.285156 88.382812 C 289.871094 85.6875 287.847656 83.222656 289.761719 78.898438 Z M 289.761719 78.898438 " fill-opacity="1" fill-rule="nonzero"/><path fill="#000000" d="M 276.839844 19.789062 C 280.5 20.382812 285.109375 22.5 288.441406 26.828125 C 289.964844 28.820312 290.082031 31.097656 289.042969 33.429688 C 285.269531 41.898438 270.445312 44.109375 264.402344 37.089844 C 260.785156 32.882812 260.792969 29.429688 264.863281 25.6875 C 267.832031 22.960938 270.359375 19.242188 276.839844 19.78125 Z M 273.683594 37.5625 C 276.171875 36.871094 279.773438 36.28125 283.007812 34.851562 C 286.648438 33.242188 286.925781 30.421875 284.335938 27.417969 C 279.640625 21.96875 274.097656 21.941406 268.480469 27.171875 C 266.71875 28.8125 264.832031 30.289062 266.082031 32.972656 C 267.351562 35.691406 269.449219 37.457031 273.675781 37.5625 Z M 273.683594 37.5625 " fill-opacity="1" fill-rule="nonzero"/><path fill="#000000" d="M 231.425781 62.792969 C 238.699219 63.117188 244.097656 68.367188 244.515625 75.097656 C 244.804688 79.707031 239.738281 83.332031 234.566406 81.671875 C 228.207031 79.628906 224.808594 74.3125 222.175781 68.597656 C 221.273438 66.632812 222.839844 65.21875 224.398438 64.148438 C 226.6875 62.582031 229.320312 62.851562 231.425781 62.792969 Z M 230.65625 66.328125 C 229.148438 66.449219 227.359375 66.0625 226.507812 67.738281 C 225.648438 69.417969 226.878906 70.71875 227.851562 71.882812 C 229.679688 74.070312 231.539062 76.28125 234.132812 77.609375 C 235.804688 78.46875 237.683594 78.679688 239.28125 77.421875 C 241.226562 75.890625 240.011719 74.160156 239.332031 72.519531 C 237.320312 67.601562 235.5625 66.351562 230.65625 66.332031 Z M 230.65625 66.328125 " fill-opacity="1" fill-rule="nonzero"/><path fill="#000000" d="M 201.425781 30.839844 C 204.566406 30.589844 205.585938 32.351562 206.972656 33.339844 C 210.5625 35.910156 214.160156 37.441406 218.355469 34.699219 C 219.707031 33.8125 221.242188 33.53125 222.804688 33.921875 C 229.519531 35.609375 235.78125 38.089844 240.992188 44.339844 C 236.980469 44.679688 234.710938 42.769531 232.257812 41.632812 C 227.980469 39.648438 223.84375 38.382812 218.875 39.460938 C 211.507812 41.0625 205.976562 37.671875 201.417969 30.832031 Z M 201.425781 30.839844 " fill-opacity="1" fill-rule="nonzero"/><path fill="#000000" d="M 248.550781 92.28125 C 252.171875 93.222656 255.730469 94.261719 259.488281 94.710938 C 264.050781 95.257812 267.179688 99.71875 268.828125 104.308594 C 269.550781 106.320312 267.699219 107.75 265.539062 106.882812 C 264.121094 106.320312 262.820312 105.382812 261.574219 104.460938 C 256.859375 100.957031 252.199219 97.378906 247.515625 93.832031 L 248.550781 92.277344 Z M 248.550781 92.28125 " fill-opacity="1" fill-rule="nonzero"/><path fill="#000000" d="M 284.914062 134.109375 C 296.910156 126.691406 309.140625 122.109375 321.058594 113.652344 C 317.640625 121.949219 297.769531 132.6875 284.914062 134.109375 Z M 284.914062 134.109375 " fill-opacity="1" fill-rule="nonzero"/><path fill="#000000" d="M 275.144531 128.550781 C 273.214844 125.390625 268.566406 125.730469 266.269531 121.378906 C 271.1875 121.738281 274.457031 123.847656 277.519531 126.410156 C 279.667969 128.210938 279.472656 130.339844 278.359375 132.679688 C 277.582031 134.289062 276.492188 135.140625 274.746094 134.78125 C 273.246094 134.46875 271.417969 134.070312 271.1875 132.328125 C 270.894531 130.132812 273.144531 130.4375 274.386719 129.742188 C 274.742188 129.550781 274.886719 128.980469 275.144531 128.558594 Z M 275.144531 128.550781 " fill-opacity="1" fill-rule="nonzero"/><path fill="#000000" d="M 265.710938 65.210938 C 256.785156 65.78125 251.683594 57.710938 243.75 55.832031 C 248.414062 54.292969 250.113281 55.019531 265.710938 65.210938 Z M 265.710938 65.210938 " fill-opacity="1" fill-rule="nonzero"/><path fill="#000000" d="M 297.316406 36.859375 C 302.761719 38.648438 307.078125 42.179688 311.269531 45.878906 C 312.054688 46.5625 312.625 47.558594 312.035156 48.597656 C 311.445312 49.632812 310.121094 49.917969 309.457031 49.128906 C 305.78125 44.808594 300.542969 42.398438 296.65625 38.378906 C 296.53125 38.257812 296.996094 37.570312 297.316406 36.851562 Z M 297.316406 36.859375 " fill-opacity="1" fill-rule="nonzero"/><path fill="#000000" d="M 301.394531 62.011719 C 292.722656 60.867188 286.683594 55.691406 278.523438 55.261719 C 285.238281 52.738281 294.109375 55.300781 301.394531 62.011719 Z M 301.394531 62.011719 " fill-opacity="1" fill-rule="nonzero"/><path fill="#000000" d="M 90.101562 109.96875 C 85.585938 112.21875 81.296875 112.5625 77.277344 108.800781 C 73.949219 105.6875 72.8125 102.109375 73.929688 97.648438 C 74.839844 94.027344 76.949219 92.382812 80.609375 92.867188 C 82.394531 93.097656 84.164062 93.488281 85.902344 93.921875 C 93.058594 95.730469 93.597656 96.859375 91.257812 103.992188 C 90.621094 105.921875 90.441406 108.007812 90.058594 110.019531 Z M 88.859375 99.199219 C 80.679688 96.058594 78.339844 96.191406 77.128906 99.421875 C 76.050781 102.289062 78.226562 106.648438 81.667969 107.261719 C 87.851562 108.367188 86.074219 102.320312 88.859375 99.199219 Z M 88.859375 99.199219 " fill-opacity="1" fill-rule="nonzero"/><path fill="#000000" d="M 111.117188 52.5 C 110.367188 52.382812 108.558594 52.261719 106.835938 51.8125 C 104.890625 51.3125 102.59375 51.007812 102 48.589844 C 101.289062 45.710938 102.832031 43.617188 104.949219 41.980469 C 108.945312 38.898438 113.570312 38.910156 118.199219 39.832031 C 120.71875 40.332031 122.085938 42.292969 122.265625 44.839844 C 122.457031 47.617188 121.378906 49.871094 118.90625 51.289062 C 116.820312 52.480469 114.484375 52.519531 111.117188 52.5 Z M 114.144531 43.132812 C 111.511719 43.230469 109.4375 43.332031 107.828125 44.792969 C 106.808594 45.722656 106.339844 46.917969 107.566406 48.058594 C 109.644531 49.992188 115.539062 49.902344 117.5625 47.859375 C 118.890625 46.519531 118.75 45.007812 117.171875 44.042969 C 116.148438 43.417969 114.804688 43.3125 114.140625 43.128906 Z M 114.144531 43.132812 " fill-opacity="1" fill-rule="nonzero"/><path fill="#000000" d="M 50.921875 99 C 52.945312 100.710938 52.695312 102.382812 52.917969 103.871094 C 53.398438 106.992188 54.953125 109.03125 58.085938 109.941406 C 60.601562 110.671875 62.96875 111.839844 64.058594 114.488281 C 64.835938 116.371094 66.316406 118.949219 64.359375 120.167969 C 61.742188 121.792969 61.191406 118.570312 60.3125 116.988281 C 59.234375 115.039062 57.613281 114.101562 55.726562 113.089844 C 50.78125 110.429688 49.347656 106.089844 50.917969 98.992188 Z M 50.921875 99 " fill-opacity="1" fill-rule="nonzero"/><path fill="#000000" d="M 85.03125 38.390625 C 91.679688 31.359375 99.433594 28.777344 108.246094 28.820312 C 109.523438 28.820312 110.894531 29.457031 110.484375 31.207031 C 110.222656 32.347656 109.125 32.9375 108.097656 32.652344 C 101.035156 30.722656 95.566406 33.789062 90.339844 37.96875 C 89.210938 38.871094 87.761719 39.742188 85.023438 38.382812 Z M 85.03125 38.390625 " fill-opacity="1" fill-rule="nonzero"/><path fill="#000000" d="M 80.089844 121.621094 C 75.34375 118.0625 65.917969 118.867188 68.027344 108.320312 C 73.953125 111.179688 78.046875 115.371094 80.089844 121.621094 Z M 80.089844 121.621094 " fill-opacity="1" fill-rule="nonzero"/><path fill="#000000" d="M 102.3125 73.609375 C 103.269531 70.660156 106.949219 71.851562 108.375 69.570312 C 107.667969 66.917969 103.871094 68.652344 103.167969 65.992188 C 103.441406 65.632812 103.730469 64.960938 104 64.96875 C 110.34375 65.148438 114.472656 67.128906 114.042969 69.710938 C 113.589844 72.46875 107.898438 74.378906 102.3125 73.601562 Z M 102.3125 73.609375 " fill-opacity="1" fill-rule="nonzero"/><path fill="#000000" d="M 146.230469 32.140625 C 151.277344 40.417969 154.863281 47.539062 162.539062 51.621094 C 158.960938 53.082031 155.933594 52.230469 154.390625 49.8125 C 151.175781 44.800781 145.691406 40.777344 146.230469 32.140625 Z M 146.230469 32.140625 " fill-opacity="1" fill-rule="nonzero"/><path fill="#000000" d="M 41.363281 80.179688 C 40.804688 86.8125 39.828125 92.429688 38.359375 98.007812 C 35.417969 97.96875 35.042969 95.761719 35.617188 94.300781 C 37.335938 89.878906 35.121094 83.882812 41.363281 80.171875 Z M 41.363281 80.179688 " fill-opacity="1" fill-rule="nonzero"/><path fill="#000000" d="M 97.511719 55.898438 C 104.550781 56.222656 110.515625 56.507812 116.730469 56.792969 C 113.15625 61.121094 106.128906 60.890625 97.511719 55.898438 Z M 97.511719 55.898438 " fill-opacity="1" fill-rule="nonzero"/><path fill="#000000" d="M 178.457031 39.507812 C 181.554688 43.808594 180.011719 49.117188 183.121094 54.117188 C 176.503906 50.398438 175.046875 45.039062 178.457031 39.507812 Z M 178.457031 39.507812 " fill-opacity="1" fill-rule="nonzero"/><path fill="#000000" d="M 72.523438 91.621094 C 66.066406 93.667969 61.429688 93.492188 56.476562 91.960938 C 59.914062 88.6875 63.527344 88.511719 72.523438 91.621094 Z M 72.523438 91.621094 " fill-opacity="1" fill-rule="nonzero"/></svg>