<svg xmlns="http://www.w3.org/2000/svg" xmlns:xlink="http://www.w3.org/1999/xlink" width="1920" zoomAndPan="magnify" viewBox="0 0 1440 809.999993" height="1080" preserveAspectRatio="xMidYMid meet" version="1.0"><defs><g/></defs><g fill="#000000" fill-opacity="1"><g transform="translate(48.089725, 345.434521)"><g><path d="M 187.40625 0 L 127.5625 0 L 57.3125 -80.875 L 57.3125 0 L 13.859375 0 L 13.859375 -190.640625 L 57.3125 -190.640625 L 57.3125 -112.765625 L 122.703125 -190.640625 L 175.390625 -190.640625 L 98.671875 -100.28125 Z M 187.40625 0 "/></g></g></g><g fill="#000000" fill-opacity="1"><g transform="translate(218.391255, 345.434521)"><g><path d="M 25.0625 -14.09375 C 11.894531 -25.800781 5.3125 -40.820312 5.3125 -59.15625 C 5.3125 -77.488281 12.164062 -92.546875 25.875 -104.328125 C 39.59375 -116.117188 56.539062 -122.015625 76.71875 -122.015625 C 96.59375 -122.015625 113.34375 -116.082031 126.96875 -104.21875 C 140.601562 -92.351562 147.421875 -77.332031 147.421875 -59.15625 C 147.421875 -40.976562 140.757812 -25.992188 127.4375 -14.203125 C 114.113281 -2.421875 97.207031 3.46875 76.71875 3.46875 C 55.457031 3.46875 38.238281 -2.382812 25.0625 -14.09375 Z M 56.71875 -79.25 C 51.40625 -74.019531 48.75 -67.320312 48.75 -59.15625 C 48.75 -50.988281 51.289062 -44.320312 56.375 -39.15625 C 61.46875 -34 68.171875 -31.421875 76.484375 -31.421875 C 84.492188 -31.421875 91.078125 -34.039062 96.234375 -39.28125 C 101.398438 -44.519531 103.984375 -51.144531 103.984375 -59.15625 C 103.984375 -67.320312 101.328125 -74.019531 96.015625 -79.25 C 90.703125 -84.488281 84.191406 -87.109375 76.484375 -87.109375 C 68.628906 -87.109375 62.039062 -84.488281 56.71875 -79.25 Z M 56.71875 -79.25 "/></g></g></g><g fill="#000000" fill-opacity="1"><g transform="translate(359.577463, 345.434521)"><g><path d="M 13.859375 0 L 13.859375 -118.546875 L 54.765625 -118.546875 L 54.765625 -106.0625 L 55.234375 -106.0625 C 65.859375 -116.695312 77.179688 -122.015625 89.203125 -122.015625 C 95.054688 -122.015625 100.867188 -121.242188 106.640625 -119.703125 C 112.421875 -118.160156 117.96875 -115.769531 123.28125 -112.53125 C 128.59375 -109.300781 132.90625 -104.71875 136.21875 -98.78125 C 139.53125 -92.851562 141.1875 -85.960938 141.1875 -78.109375 L 141.1875 0 L 100.28125 0 L 100.28125 -67.015625 C 100.28125 -73.171875 98.316406 -78.5625 94.390625 -83.1875 C 90.460938 -87.8125 85.34375 -90.125 79.03125 -90.125 C 72.863281 -90.125 67.273438 -87.734375 62.265625 -82.953125 C 57.265625 -78.179688 54.765625 -72.867188 54.765625 -67.015625 L 54.765625 0 Z M 13.859375 0 "/></g></g></g><g fill="#000000" fill-opacity="1"><g transform="translate(500.763671, 345.434521)"><g><path d="M 20.796875 -118.546875 L 20.796875 -162.671875 L 61.703125 -162.671875 L 61.703125 -118.546875 L 86.65625 -118.546875 L 86.65625 -87.34375 L 61.703125 -87.34375 L 61.703125 -49.6875 C 61.703125 -38.75 64.78125 -33.28125 70.9375 -33.28125 C 72.476562 -33.28125 74.09375 -33.585938 75.78125 -34.203125 C 77.476562 -34.816406 78.789062 -35.429688 79.71875 -36.046875 L 81.109375 -36.96875 L 91.28125 -3.921875 C 82.5 1.003906 72.484375 3.46875 61.234375 3.46875 C 53.535156 3.46875 46.910156 2.117188 41.359375 -0.578125 C 35.816406 -3.273438 31.617188 -6.894531 28.765625 -11.4375 C 25.921875 -15.976562 23.878906 -20.753906 22.640625 -25.765625 C 21.410156 -30.773438 20.796875 -36.128906 20.796875 -41.828125 L 20.796875 -87.34375 L 3.703125 -87.34375 L 3.703125 -118.546875 Z M 20.796875 -118.546875 "/></g></g></g><g fill="#000000" fill-opacity="1"><g transform="translate(580.484213, 345.434521)"><g><path d="M 21.953125 -14.671875 C 10.859375 -26.765625 5.3125 -41.59375 5.3125 -59.15625 C 5.3125 -76.71875 10.859375 -91.582031 21.953125 -103.75 C 33.046875 -115.925781 47.140625 -122.015625 64.234375 -122.015625 C 79.953125 -122.015625 92.894531 -117.082031 103.0625 -107.21875 L 103.0625 -118.546875 L 143.96875 -118.546875 L 143.96875 0 L 103.515625 0 L 103.515625 -13.40625 L 103.0625 -13.40625 C 92.894531 -2.15625 79.953125 3.46875 64.234375 3.46875 C 47.140625 3.46875 33.046875 -2.578125 21.953125 -14.671875 Z M 56.71875 -79.25 C 51.40625 -74.019531 48.75 -67.320312 48.75 -59.15625 C 48.75 -50.988281 51.289062 -44.320312 56.375 -39.15625 C 61.46875 -34 68.171875 -31.421875 76.484375 -31.421875 C 84.492188 -31.421875 91.078125 -34.039062 96.234375 -39.28125 C 101.398438 -44.519531 103.984375 -51.144531 103.984375 -59.15625 C 103.984375 -67.320312 101.328125 -74.019531 96.015625 -79.25 C 90.703125 -84.488281 84.191406 -87.109375 76.484375 -87.109375 C 68.628906 -87.109375 62.039062 -84.488281 56.71875 -79.25 Z M 56.71875 -79.25 "/></g></g></g><g fill="#000000" fill-opacity="1"><g transform="translate(726.754073, 345.434521)"><g><path d="M 149.28125 -118.546875 L 92.890625 -61.921875 L 154.828125 0 L 102.140625 0 L 54.765625 -47.375 L 54.765625 0 L 13.859375 0 L 13.859375 -198.734375 L 54.765625 -198.734375 L 54.765625 -77.1875 L 96.125 -118.546875 Z M 149.28125 -118.546875 "/></g></g></g><g fill="#000000" fill-opacity="1"><g transform="translate(864.474162, 345.434521)"><g><path d="M 20.796875 -118.546875 L 20.796875 -162.671875 L 61.703125 -162.671875 L 61.703125 -118.546875 L 86.65625 -118.546875 L 86.65625 -87.34375 L 61.703125 -87.34375 L 61.703125 -49.6875 C 61.703125 -38.75 64.78125 -33.28125 70.9375 -33.28125 C 72.476562 -33.28125 74.09375 -33.585938 75.78125 -34.203125 C 77.476562 -34.816406 78.789062 -35.429688 79.71875 -36.046875 L 81.109375 -36.96875 L 91.28125 -3.921875 C 82.5 1.003906 72.484375 3.46875 61.234375 3.46875 C 53.535156 3.46875 46.910156 2.117188 41.359375 -0.578125 C 35.816406 -3.273438 31.617188 -6.894531 28.765625 -11.4375 C 25.921875 -15.976562 23.878906 -20.753906 22.640625 -25.765625 C 21.410156 -30.773438 20.796875 -36.128906 20.796875 -41.828125 L 20.796875 -87.34375 L 3.703125 -87.34375 L 3.703125 -118.546875 Z M 20.796875 -118.546875 "/></g></g></g><g fill="#000000" fill-opacity="1"><g transform="translate(944.194704, 345.434521)"><g><path d="M 21.953125 -14.671875 C 10.859375 -26.765625 5.3125 -41.59375 5.3125 -59.15625 C 5.3125 -76.71875 10.859375 -91.582031 21.953125 -103.75 C 33.046875 -115.925781 47.140625 -122.015625 64.234375 -122.015625 C 79.953125 -122.015625 92.894531 -117.082031 103.0625 -107.21875 L 103.0625 -118.546875 L 143.96875 -118.546875 L 143.96875 0 L 103.515625 0 L 103.515625 -13.40625 L 103.0625 -13.40625 C 92.894531 -2.15625 79.953125 3.46875 64.234375 3.46875 C 47.140625 3.46875 33.046875 -2.578125 21.953125 -14.671875 Z M 56.71875 -79.25 C 51.40625 -74.019531 48.75 -67.320312 48.75 -59.15625 C 48.75 -50.988281 51.289062 -44.320312 56.375 -39.15625 C 61.46875 -34 68.171875 -31.421875 76.484375 -31.421875 C 84.492188 -31.421875 91.078125 -34.039062 96.234375 -39.28125 C 101.398438 -44.519531 103.984375 -51.144531 103.984375 -59.15625 C 103.984375 -67.320312 101.328125 -74.019531 96.015625 -79.25 C 90.703125 -84.488281 84.191406 -87.109375 76.484375 -87.109375 C 68.628906 -87.109375 62.039062 -84.488281 56.71875 -79.25 Z M 56.71875 -79.25 "/></g></g></g><g fill="#000000" fill-opacity="1"><g transform="translate(48.089725, 564.954632)"><g><path d="M 5.3125 -95.4375 C 5.3125 -123.007812 14.707031 -146.347656 33.5 -165.453125 C 52.300781 -184.554688 74.945312 -194.109375 101.4375 -194.109375 C 128.09375 -194.109375 150.738281 -184.59375 169.375 -165.5625 C 188.019531 -146.539062 197.34375 -123.164062 197.34375 -95.4375 C 197.34375 -67.550781 188.175781 -44.09375 169.84375 -25.0625 C 151.507812 -6.039062 128.707031 3.46875 101.4375 3.46875 C 73.5625 3.46875 50.570312 -5.960938 32.46875 -24.828125 C 14.363281 -43.703125 5.3125 -67.238281 5.3125 -95.4375 Z M 52.21875 -95.4375 C 52.21875 -85.425781 53.757812 -76.296875 56.84375 -68.046875 C 59.925781 -59.804688 65.316406 -52.835938 73.015625 -47.140625 C 80.722656 -41.441406 90.195312 -38.59375 101.4375 -38.59375 C 117.613281 -38.59375 129.820312 -44.132812 138.0625 -55.21875 C 146.3125 -66.3125 150.4375 -79.71875 150.4375 -95.4375 C 150.4375 -111 146.238281 -124.363281 137.84375 -135.53125 C 129.445312 -146.695312 117.3125 -152.28125 101.4375 -152.28125 C 85.726562 -152.28125 73.597656 -146.695312 65.046875 -135.53125 C 56.492188 -124.363281 52.21875 -111 52.21875 -95.4375 Z M 52.21875 -95.4375 "/></g></g></g><g fill="#000000" fill-opacity="1"><g transform="translate(239.187907, 564.954632)"><g><path d="M 65.390625 -122.015625 C 72.171875 -122.015625 78.875 -121.242188 85.5 -119.703125 C 92.125 -118.160156 97.050781 -116.617188 100.28125 -115.078125 L 105.140625 -112.765625 L 91.734375 -85.96875 C 82.492188 -90.894531 73.710938 -93.359375 65.390625 -93.359375 C 60.773438 -93.359375 57.503906 -92.851562 55.578125 -91.84375 C 53.648438 -90.84375 52.6875 -88.957031 52.6875 -86.1875 C 52.6875 -85.570312 52.757812 -84.957031 52.90625 -84.34375 C 53.0625 -83.726562 53.367188 -83.148438 53.828125 -82.609375 C 54.296875 -82.066406 54.722656 -81.601562 55.109375 -81.21875 C 55.492188 -80.832031 56.148438 -80.410156 57.078125 -79.953125 C 58.003906 -79.492188 58.734375 -79.144531 59.265625 -78.90625 C 59.804688 -78.675781 60.691406 -78.332031 61.921875 -77.875 C 63.160156 -77.414062 64.085938 -77.066406 64.703125 -76.828125 C 65.316406 -76.597656 66.351562 -76.25 67.8125 -75.78125 C 69.28125 -75.320312 70.398438 -75.019531 71.171875 -74.875 C 75.941406 -73.488281 80.097656 -71.945312 83.640625 -70.25 C 87.191406 -68.550781 90.929688 -66.238281 94.859375 -63.3125 C 98.785156 -60.382812 101.828125 -56.6875 103.984375 -52.21875 C 106.140625 -47.75 107.21875 -42.664062 107.21875 -36.96875 C 107.21875 -10.007812 88.5 3.46875 51.0625 3.46875 C 42.59375 3.46875 34.546875 2.160156 26.921875 -0.453125 C 19.296875 -3.078125 13.789062 -5.695312 10.40625 -8.3125 L 5.3125 -12.484375 L 21.953125 -40.4375 C 23.179688 -39.363281 24.796875 -38.09375 26.796875 -36.625 C 28.804688 -35.164062 32.425781 -33.164062 37.65625 -30.625 C 42.894531 -28.082031 47.441406 -26.8125 51.296875 -26.8125 C 59.773438 -26.8125 64.015625 -29.660156 64.015625 -35.359375 C 64.015625 -37.972656 62.929688 -40.007812 60.765625 -41.46875 C 58.609375 -42.9375 54.953125 -44.59375 49.796875 -46.4375 C 44.640625 -48.289062 40.597656 -49.988281 37.671875 -51.53125 C 30.273438 -55.382812 24.421875 -59.734375 20.109375 -64.578125 C 15.796875 -69.429688 13.640625 -75.863281 13.640625 -83.875 C 13.640625 -95.894531 18.296875 -105.253906 27.609375 -111.953125 C 36.929688 -118.660156 49.523438 -122.015625 65.390625 -122.015625 Z M 65.390625 -122.015625 "/></g></g></g><g fill="#000000" fill-opacity="1"><g transform="translate(341.322611, 564.954632)"><g><path d="M 65.390625 -122.015625 C 72.171875 -122.015625 78.875 -121.242188 85.5 -119.703125 C 92.125 -118.160156 97.050781 -116.617188 100.28125 -115.078125 L 105.140625 -112.765625 L 91.734375 -85.96875 C 82.492188 -90.894531 73.710938 -93.359375 65.390625 -93.359375 C 60.773438 -93.359375 57.503906 -92.851562 55.578125 -91.84375 C 53.648438 -90.84375 52.6875 -88.957031 52.6875 -86.1875 C 52.6875 -85.570312 52.757812 -84.957031 52.90625 -84.34375 C 53.0625 -83.726562 53.367188 -83.148438 53.828125 -82.609375 C 54.296875 -82.066406 54.722656 -81.601562 55.109375 -81.21875 C 55.492188 -80.832031 56.148438 -80.410156 57.078125 -79.953125 C 58.003906 -79.492188 58.734375 -79.144531 59.265625 -78.90625 C 59.804688 -78.675781 60.691406 -78.332031 61.921875 -77.875 C 63.160156 -77.414062 64.085938 -77.066406 64.703125 -76.828125 C 65.316406 -76.597656 66.351562 -76.25 67.8125 -75.78125 C 69.28125 -75.320312 70.398438 -75.019531 71.171875 -74.875 C 75.941406 -73.488281 80.097656 -71.945312 83.640625 -70.25 C 87.191406 -68.550781 90.929688 -66.238281 94.859375 -63.3125 C 98.785156 -60.382812 101.828125 -56.6875 103.984375 -52.21875 C 106.140625 -47.75 107.21875 -42.664062 107.21875 -36.96875 C 107.21875 -10.007812 88.5 3.46875 51.0625 3.46875 C 42.59375 3.46875 34.546875 2.160156 26.921875 -0.453125 C 19.296875 -3.078125 13.789062 -5.695312 10.40625 -8.3125 L 5.3125 -12.484375 L 21.953125 -40.4375 C 23.179688 -39.363281 24.796875 -38.09375 26.796875 -36.625 C 28.804688 -35.164062 32.425781 -33.164062 37.65625 -30.625 C 42.894531 -28.082031 47.441406 -26.8125 51.296875 -26.8125 C 59.773438 -26.8125 64.015625 -29.660156 64.015625 -35.359375 C 64.015625 -37.972656 62.929688 -40.007812 60.765625 -41.46875 C 58.609375 -42.9375 54.953125 -44.59375 49.796875 -46.4375 C 44.640625 -48.289062 40.597656 -49.988281 37.671875 -51.53125 C 30.273438 -55.382812 24.421875 -59.734375 20.109375 -64.578125 C 15.796875 -69.429688 13.640625 -75.863281 13.640625 -83.875 C 13.640625 -95.894531 18.296875 -105.253906 27.609375 -111.953125 C 36.929688 -118.660156 49.523438 -122.015625 65.390625 -122.015625 Z M 65.390625 -122.015625 "/></g></g></g><g fill="#000000" fill-opacity="1"><g transform="translate(443.457316, 564.954632)"><g><path d="M 40.203125 -49.453125 C 47.597656 -49.453125 53.875 -46.867188 59.03125 -41.703125 C 64.195312 -36.546875 66.78125 -30.269531 66.78125 -22.875 C 66.78125 -15.632812 64.195312 -9.429688 59.03125 -4.265625 C 53.875 0.890625 47.597656 3.46875 40.203125 3.46875 C 32.960938 3.46875 26.757812 0.890625 21.59375 -4.265625 C 16.4375 -9.429688 13.859375 -15.632812 13.859375 -22.875 C 13.859375 -30.269531 16.4375 -36.546875 21.59375 -41.703125 C 26.757812 -46.867188 32.960938 -49.453125 40.203125 -49.453125 Z M 40.203125 -49.453125 "/></g></g></g></svg>