<svg xmlns="http://www.w3.org/2000/svg" xmlns:xlink="http://www.w3.org/1999/xlink" width="500" zoomAndPan="magnify" viewBox="0 0 375 374.999991" height="500" preserveAspectRatio="xMidYMid meet" version="1.0"><path fill="#000000" d="M 89.183594 119.148438 L 146.824219 150.136719 C 170.066406 242.03125 169.152344 241.359375 170.351562 242.75 C 170.390625 243.25 170.464844 243.75 170.496094 244.246094 C 170.59375 245.777344 171.871094 247.050781 173.582031 246.972656 C 175.183594 246.875 176.40625 245.492188 176.304688 243.890625 C 176.261719 243.171875 176.160156 242.453125 176.097656 241.738281 L 233.539062 195.113281 L 291.140625 229.492188 C 292.6875 230.417969 294.753906 229.726562 295.375 227.953125 L 368.382812 19.351562 C 369.203125 17 366.894531 14.824219 364.660156 15.648438 L 286.984375 43.382812 L 265.382812 6.46875 C 265.914062 8.253906 267.101562 2.796875 231.132812 101.597656 C 230.730469 102.753906 229.628906 103.507812 228.414062 103.507812 C 227.832031 103.507812 201.15625 98.777344 129.203125 86.207031 C 128.277344 86.03125 127.523438 85.511719 127.175781 84.703125 C 127.175781 84.816406 127.234375 84.875 127.292969 84.992188 L 134.765625 97.71875 L 89.582031 113.84375 C 87.214844 114.6875 86.953125 117.953125 89.183594 119.148438 Z M 175.714844 167.449219 C 176.546875 168.875 178.441406 169.394531 179.878906 168.316406 L 181.910156 166.824219 L 171.957031 226.601562 L 152.753906 149.839844 L 162.707031 145.296875 Z M 304.199219 78.164062 C 305.472656 77.296875 305.875 75.617188 305.066406 74.285156 L 289.972656 48.492188 L 360.878906 23.179688 L 291.0625 222.664062 L 188.898438 161.695312 C 200.6875 153.15625 146.1875 192.636719 304.199219 78.164062 Z M 137.765625 102.828125 L 159.742188 140.253906 L 149.457031 144.941406 L 97.710938 117.125 Z M 137.765625 102.828125 " fill-opacity="1" fill-rule="nonzero"/><path fill="#000000" d="M 8.378906 373.664062 C 6.554688 374.101562 4.722656 374.480469 2.875 374.792969 C 1.289062 375.0625 0.222656 376.566406 0.488281 378.148438 C 0.761719 379.765625 2.300781 380.800781 3.84375 380.535156 C 5.824219 380.199219 7.792969 379.796875 9.742188 379.324219 C 11.304688 378.949219 12.265625 377.375 11.890625 375.8125 C 11.507812 374.253906 9.953125 373.300781 8.378906 373.664062 Z M 8.378906 373.664062 " fill-opacity="1" fill-rule="nonzero"/><path fill="#000000" d="M 46.5 272.761719 C 42.355469 273.660156 38.484375 275.667969 34.996094 278.742188 C 33.785156 279.804688 33.671875 281.640625 34.734375 282.847656 C 35.800781 284.0625 37.644531 284.164062 38.835938 283.109375 C 41.570312 280.703125 44.5625 279.132812 47.726562 278.457031 C 49.296875 278.117188 50.296875 276.570312 49.960938 274.996094 C 49.621094 273.421875 48.097656 272.464844 46.5 272.761719 Z M 46.5 272.761719 " fill-opacity="1" fill-rule="nonzero"/><path fill="#000000" d="M 159.976562 297.230469 C 158.59375 296.394531 156.808594 296.820312 155.972656 298.195312 C 154.03125 301.386719 151.882812 304.542969 149.589844 307.578125 C 148.625 308.855469 148.882812 310.683594 150.164062 311.652344 C 151.449219 312.617188 153.269531 312.371094 154.242188 311.078125 C 156.644531 307.894531 158.894531 304.582031 160.941406 301.234375 C 161.777344 299.855469 161.34375 298.066406 159.976562 297.230469 Z M 159.976562 297.230469 " fill-opacity="1" fill-rule="nonzero"/><path fill="#000000" d="M 106.265625 343.472656 C 102.769531 345.15625 99.261719 346.585938 95.84375 347.710938 C 92.703125 348.738281 93.472656 353.382812 96.753906 353.382812 C 98.5625 353.382812 107.148438 349.507812 108.789062 348.714844 C 110.238281 348.023438 110.84375 346.28125 110.144531 344.832031 C 109.453125 343.382812 107.714844 342.773438 106.265625 343.472656 Z M 106.265625 343.472656 " fill-opacity="1" fill-rule="nonzero"/><path fill="#000000" d="M 164.003906 292.398438 C 165.089844 292.398438 166.132812 291.789062 166.632812 290.742188 C 168.355469 287.140625 169.882812 283.421875 171.179688 279.6875 C 171.703125 278.167969 170.898438 276.507812 169.382812 275.980469 C 167.863281 275.460938 166.210938 276.261719 165.675781 277.777344 C 164.453125 281.304688 163.003906 284.824219 161.378906 288.230469 C 160.449219 290.179688 161.882812 292.398438 164.003906 292.398438 Z M 164.003906 292.398438 " fill-opacity="1" fill-rule="nonzero"/><path fill="#000000" d="M 73.847656 357.035156 C 74.433594 357.011719 79.421875 357.257812 85.972656 356.140625 C 87.558594 355.867188 88.621094 354.363281 88.347656 352.773438 C 88.074219 351.1875 86.585938 350.136719 84.984375 350.398438 C 79.179688 351.410156 74.527344 351.195312 73.929688 351.210938 C 72.261719 351.09375 71 352.480469 70.980469 354.082031 C 70.957031 355.691406 72.242188 357.011719 73.847656 357.035156 Z M 73.847656 357.035156 " fill-opacity="1" fill-rule="nonzero"/><path fill="#000000" d="M 31.367188 335.917969 C 33.761719 339.382812 36.570312 342.460938 39.707031 345.078125 C 40.253906 345.53125 40.910156 345.753906 41.570312 345.753906 C 44.277344 345.753906 45.527344 342.34375 43.433594 340.609375 C 40.695312 338.328125 38.25 335.640625 36.15625 332.609375 C 35.238281 331.285156 33.421875 330.957031 32.109375 331.871094 C 30.785156 332.785156 30.453125 334.601562 31.367188 335.917969 Z M 31.367188 335.917969 " fill-opacity="1" fill-rule="nonzero"/><path fill="#000000" d="M 75.84375 307.242188 C 77.453125 307.242188 78.753906 305.84375 78.753906 304.234375 C 78.753906 300.222656 78.144531 295.808594 76.738281 291.984375 C 76.179688 290.476562 74.507812 289.699219 72.996094 290.265625 C 71.492188 290.824219 70.722656 292.496094 71.28125 294.007812 C 73.3125 299.472656 72.941406 306.644531 72.941406 304.421875 C 72.941406 306.03125 74.242188 307.242188 75.84375 307.242188 Z M 75.84375 307.242188 " fill-opacity="1" fill-rule="nonzero"/><path fill="#000000" d="M 125.539062 331.597656 C 122.65625 333.792969 119.207031 336.128906 116.175781 338.011719 C 114.808594 338.851562 114.386719 340.648438 115.234375 342.011719 C 116.0625 343.371094 117.851562 343.8125 119.234375 342.957031 C 122.53125 340.925781 126.152344 338.4375 129.0625 336.238281 C 130.339844 335.265625 130.589844 333.441406 129.617188 332.15625 C 128.640625 330.875 126.816406 330.632812 125.539062 331.597656 Z M 125.539062 331.597656 " fill-opacity="1" fill-rule="nonzero"/><path fill="#000000" d="M 174.402344 268.144531 C 175.253906 264.203125 175.84375 260.207031 176.164062 256.269531 C 176.292969 254.664062 175.101562 253.261719 173.496094 253.128906 C 171.917969 253.003906 170.492188 254.195312 170.367188 255.796875 C 170.0625 259.484375 169.511719 263.222656 168.71875 266.917969 C 168.324219 268.71875 169.699219 270.441406 171.566406 270.441406 C 172.902344 270.441406 174.109375 269.507812 174.402344 268.144531 Z M 174.402344 268.144531 " fill-opacity="1" fill-rule="nonzero"/><path fill="#000000" d="M 70.25 329.738281 C 71.347656 329.738281 72.394531 329.113281 72.890625 328.054688 C 74.683594 324.203125 76.082031 320.363281 77.0625 316.652344 C 77.46875 315.097656 76.542969 313.507812 74.984375 313.097656 C 73.453125 312.671875 71.835938 313.617188 71.433594 315.171875 C 70.546875 318.550781 69.257812 322.058594 67.613281 325.601562 C 66.71875 327.527344 68.132812 329.738281 70.25 329.738281 Z M 70.25 329.738281 " fill-opacity="1" fill-rule="nonzero"/><path fill="#000000" d="M 25.695312 324.972656 C 26.257812 326.496094 27.949219 327.246094 29.4375 326.691406 C 30.941406 326.132812 31.710938 324.460938 31.152344 322.949219 C 29.890625 319.527344 29.0625 315.964844 28.691406 312.359375 C 28.53125 310.753906 27.089844 309.597656 25.503906 309.761719 C 23.90625 309.921875 22.742188 311.351562 22.90625 312.949219 C 23.320312 317.042969 24.257812 321.085938 25.695312 324.972656 Z M 25.695312 324.972656 " fill-opacity="1" fill-rule="nonzero"/><path fill="#000000" d="M 48.726562 347.8125 C 48.039062 349.261719 48.664062 350.996094 50.121094 351.683594 C 54.378906 353.695312 60.910156 355.6875 62.355469 355.6875 C 65.816406 355.6875 66.367188 350.679688 62.988281 349.933594 C 61.644531 349.636719 60.332031 349.289062 59.046875 348.898438 C 60.558594 348.117188 65.773438 340.558594 67.058594 338.5625 C 67.933594 337.214844 67.539062 335.414062 66.1875 334.542969 C 64.851562 333.660156 63.039062 334.058594 62.167969 335.414062 C 60.167969 338.515625 57.910156 341.550781 55.460938 344.445312 C 54.730469 345.316406 54.59375 346.492188 55.007812 347.472656 C 54.1875 347.140625 53.386719 346.789062 52.597656 346.417969 C 51.171875 345.75 49.414062 346.34375 48.726562 347.8125 Z M 48.726562 347.8125 " fill-opacity="1" fill-rule="nonzero"/><path fill="#000000" d="M 138.210938 328.648438 C 141.117188 325.996094 143.953125 323.167969 146.628906 320.246094 C 147.722656 319.054688 147.636719 317.21875 146.453125 316.132812 C 145.277344 315.042969 143.4375 315.121094 142.34375 316.308594 C 139.78125 319.105469 137.070312 321.808594 134.289062 324.335938 C 133.101562 325.421875 133.015625 327.265625 134.097656 328.453125 C 135.183594 329.644531 137.03125 329.722656 138.210938 328.648438 Z M 138.210938 328.648438 " fill-opacity="1" fill-rule="nonzero"/><path fill="#000000" d="M 31.1875 287.496094 C 29.78125 286.757812 28.007812 287.285156 27.253906 288.714844 C 25.199219 292.625 23.964844 296.496094 23.28125 300.574219 C 22.984375 302.324219 24.316406 303.972656 26.15625 303.972656 C 27.550781 303.972656 28.777344 302.96875 29.019531 301.550781 C 29.601562 298.15625 30.550781 294.9375 32.402344 291.429688 C 33.152344 290.011719 32.609375 288.246094 31.1875 287.496094 Z M 31.1875 287.496094 " fill-opacity="1" fill-rule="nonzero"/><path fill="#000000" d="M 47.667969 352.558594 C 44.894531 355.101562 41.945312 357.488281 38.90625 359.65625 C 36.605469 361.292969 37.769531 364.9375 40.59375 364.9375 C 41.179688 364.9375 41.769531 364.761719 42.28125 364.394531 C 45.511719 362.09375 48.648438 359.558594 51.601562 356.855469 C 52.785156 355.773438 52.871094 353.929688 51.785156 352.742188 C 50.695312 351.558594 48.863281 351.46875 47.667969 352.558594 Z M 47.667969 352.558594 " fill-opacity="1" fill-rule="nonzero"/><path fill="#000000" d="M 59.589844 273.824219 C 58.089844 273.257812 56.398438 273.984375 55.820312 275.488281 C 55.242188 276.992188 55.992188 278.679688 57.484375 279.257812 C 60.53125 280.4375 63.429688 282.453125 65.871094 285.09375 C 66.964844 286.289062 68.8125 286.339844 69.980469 285.257812 C 71.160156 284.164062 71.234375 282.324219 70.144531 281.148438 C 67.109375 277.855469 63.453125 275.324219 59.589844 273.824219 Z M 59.589844 273.824219 " fill-opacity="1" fill-rule="nonzero"/><path fill="#000000" d="M 20.160156 375.941406 C 21.902344 375.941406 30.125 371.796875 32.109375 370.722656 C 33.515625 369.960938 34.046875 368.195312 33.277344 366.777344 C 32.515625 365.363281 30.75 364.84375 29.335938 365.605469 C 26.042969 367.386719 22.605469 368.972656 19.113281 370.3125 C 16.132812 371.464844 16.9375 375.941406 20.160156 375.941406 Z M 20.160156 375.941406 " fill-opacity="1" fill-rule="nonzero"/><path fill="#000000" d="M 274.28125 242.050781 L 248.070312 261.585938 C 245.835938 263.25 247.003906 266.832031 249.808594 266.832031 C 251.644531 266.832031 250.453125 266.804688 277.761719 246.71875 C 279.050781 245.757812 279.316406 243.9375 278.355469 242.648438 C 277.386719 241.351562 275.5625 241.089844 274.28125 242.050781 Z M 274.28125 242.050781 " fill-opacity="1" fill-rule="nonzero"/><path fill="#000000" d="M 73.507812 158.554688 C 74.839844 158.554688 73.5 158.785156 104.730469 142.898438 C 106.15625 142.164062 106.722656 140.410156 105.992188 138.980469 C 105.257812 137.550781 103.507812 136.992188 102.070312 137.71875 L 72.179688 153.054688 C 69.484375 154.4375 70.449219 158.554688 73.507812 158.554688 Z M 73.507812 158.554688 " fill-opacity="1" fill-rule="nonzero"/><path fill="#000000" d="M 144.105469 175.832031 C 143.375 174.402344 141.617188 173.84375 140.183594 174.570312 L 117.882812 186.011719 C 116.453125 186.746094 115.886719 188.5 116.621094 189.929688 C 117.363281 191.375 119.125 191.917969 120.542969 191.191406 L 142.84375 179.75 C 144.269531 179.015625 144.839844 177.261719 144.105469 175.832031 Z M 144.105469 175.832031 " fill-opacity="1" fill-rule="nonzero"/><path fill="#000000" d="M 217.457031 236.894531 L 197.0625 251.46875 C 195.753906 252.402344 195.453125 254.21875 196.386719 255.527344 C 197.316406 256.828125 199.125 257.140625 200.449219 256.203125 L 220.84375 241.632812 C 222.152344 240.695312 222.453125 238.878906 221.519531 237.574219 C 220.585938 236.261719 218.769531 235.960938 217.457031 236.894531 Z M 217.457031 236.894531 " fill-opacity="1" fill-rule="nonzero"/><path fill="#000000" d="M 130.242188 80.535156 L 226.5625 97.316406 C 262.285156 0.324219 259.523438 6.183594 260.8125 5.078125 L 128.679688 80.652344 C 129.144531 80.476562 129.722656 80.417969 130.242188 80.535156 Z M 130.242188 80.535156 " fill-opacity="1" fill-rule="nonzero"/></svg>