<svg xmlns="http://www.w3.org/2000/svg" xmlns:xlink="http://www.w3.org/1999/xlink" width="1447" zoomAndPan="magnify" viewBox="0 0 1085.25 374.999991" height="500" preserveAspectRatio="xMidYMid meet" version="1.0"><path fill="#000000" d="M 148.191406 177.53125 L 141.207031 89.832031 L 140.308594 89.832031 L 110.007812 176.632812 L 89.929688 176.632812 L 59.628906 89.832031 L 58.730469 89.832031 L 51.734375 177.53125 L 18.035156 177.53125 L 31.300781 29.570312 L 67.15625 29.570312 L 99.96875 114.941406 L 132.78125 29.570312 L 168.636719 29.570312 L 181.898438 177.53125 Z M 148.191406 177.53125 " fill-opacity="1" fill-rule="nonzero"/><path fill="#000000" d="M 192.832031 166.140625 C 184.226562 156.75 179.929688 145.246094 179.929688 131.617188 C 179.929688 117.984375 184.226562 106.445312 192.832031 97 C 201.4375 87.554688 212.378906 82.832031 225.652344 82.832031 C 237.84375 82.832031 247.882812 86.660156 255.773438 94.308594 L 255.773438 85.523438 L 287.503906 85.523438 L 287.503906 177.53125 L 256.125 177.53125 L 256.125 167.121094 L 255.773438 167.121094 C 247.882812 175.855469 237.84375 180.222656 225.652344 180.222656 C 212.378906 180.222656 201.4375 175.527344 192.832031 166.140625 Z M 219.820312 116.019531 C 215.699219 120.078125 213.636719 125.28125 213.636719 131.617188 C 213.636719 137.949219 215.609375 143.125 219.554688 147.132812 C 223.5 151.136719 228.699219 153.136719 235.148438 153.136719 C 241.363281 153.136719 246.472656 151.109375 250.476562 147.046875 C 254.480469 142.980469 256.488281 137.839844 256.488281 131.617188 C 256.488281 125.28125 254.421875 120.078125 250.292969 116.019531 C 246.171875 111.953125 241.121094 109.917969 235.148438 109.917969 C 229.050781 109.917969 223.945312 111.953125 219.820312 116.019531 Z M 219.820312 116.019531 " fill-opacity="1" fill-rule="nonzero"/><path fill="#000000" d="M 305.433594 85.523438 L 305.433594 51.269531 L 337.167969 51.269531 L 337.167969 85.523438 L 356.53125 85.523438 L 356.53125 109.734375 L 337.167969 109.734375 L 337.167969 138.96875 C 337.167969 147.460938 339.554688 151.707031 344.332031 151.707031 C 345.527344 151.707031 346.78125 151.46875 348.09375 150.988281 C 349.40625 150.515625 350.425781 150.03125 351.148438 149.546875 L 352.226562 148.832031 L 360.109375 174.484375 C 353.300781 178.308594 345.535156 180.222656 336.804688 180.222656 C 330.828125 180.222656 325.6875 179.171875 321.378906 177.082031 C 317.078125 174.988281 313.820312 172.179688 311.605469 168.652344 C 309.398438 165.128906 307.816406 161.421875 306.867188 157.539062 C 305.910156 153.652344 305.433594 149.496094 305.433594 145.070312 L 305.433594 109.734375 L 292.167969 109.734375 L 292.167969 85.523438 Z M 305.433594 85.523438 " fill-opacity="1" fill-rule="nonzero"/><path fill="#000000" d="M 401.886719 111.882812 L 459.617188 111.882812 L 459.617188 139.332031 L 401.886719 139.332031 Z M 401.886719 111.882812 " fill-opacity="1" fill-rule="nonzero"/><path fill="#000000" d="M 159.675781 265.058594 L 159.675781 297.164062 C 155.84375 314.738281 147.46875 328.042969 134.5625 337.074219 C 121.660156 346.097656 107.257812 350.609375 91.359375 350.609375 C 71.402344 350.609375 54.394531 343.136719 40.347656 328.195312 C 26.304688 313.246094 19.285156 295.1875 19.285156 274.023438 C 19.285156 252.503906 26.15625 234.332031 39.898438 219.511719 C 53.648438 204.679688 70.800781 197.265625 91.359375 197.265625 C 115.382812 197.265625 134.386719 205.695312 148.375 222.554688 L 126.316406 246.765625 C 118.425781 234.085938 107.433594 227.746094 93.335938 227.746094 C 82.933594 227.746094 74.054688 232.265625 66.707031 241.296875 C 59.359375 250.320312 55.6875 261.230469 55.6875 274.023438 C 55.6875 286.582031 59.359375 297.316406 66.707031 306.226562 C 74.054688 315.128906 82.933594 319.582031 93.335938 319.582031 C 101.9375 319.582031 109.433594 316.984375 115.828125 311.78125 C 122.222656 306.574219 125.417969 299.671875 125.417969 291.066406 L 91.359375 291.066406 L 91.359375 265.058594 Z M 159.675781 265.058594 " fill-opacity="1" fill-rule="nonzero"/><path fill="#000000" d="M 258.636719 306.3125 L 191.945312 306.3125 C 191.945312 312.765625 194.035156 317.550781 198.214844 320.660156 C 202.402344 323.765625 206.945312 325.320312 211.84375 325.320312 C 216.984375 325.320312 221.046875 324.632812 224.027344 323.257812 C 227.019531 321.882812 230.425781 319.164062 234.25 315.09375 L 257.203125 326.570312 C 247.640625 342.597656 231.742188 350.609375 209.515625 350.609375 C 195.648438 350.609375 183.753906 345.863281 173.828125 336.359375 C 163.910156 326.847656 158.953125 315.398438 158.953125 302.003906 C 158.953125 288.613281 163.910156 277.136719 173.828125 267.570312 C 183.753906 258.003906 195.648438 253.21875 209.515625 253.21875 C 224.097656 253.21875 235.960938 257.4375 245.101562 265.871094 C 254.246094 274.296875 258.816406 286.34375 258.816406 302.003906 C 258.816406 304.160156 258.757812 305.59375 258.636719 306.3125 Z M 192.84375 288.734375 L 227.800781 288.734375 C 227.078125 283.949219 225.195312 280.269531 222.148438 277.699219 C 219.101562 275.125 215.191406 273.839844 210.414062 273.839844 C 205.148438 273.839844 200.960938 275.21875 197.851562 277.976562 C 194.746094 280.726562 193.074219 284.3125 192.84375 288.734375 Z M 192.84375 288.734375 " fill-opacity="1" fill-rule="nonzero"/><path fill="#000000" d="M 264.730469 347.917969 L 264.730469 255.910156 L 296.464844 255.910156 L 296.464844 265.589844 L 296.828125 265.589844 C 305.074219 257.34375 313.855469 253.21875 323.175781 253.21875 C 327.71875 253.21875 332.226562 253.820312 336.707031 255.015625 C 341.195312 256.210938 345.5 258.066406 349.621094 260.582031 C 353.746094 263.089844 357.089844 266.644531 359.660156 271.246094 C 362.230469 275.847656 363.515625 281.195312 363.515625 287.292969 L 363.515625 347.917969 L 331.785156 347.917969 L 331.785156 295.90625 C 331.785156 291.125 330.261719 286.941406 327.214844 283.351562 C 324.164062 279.757812 320.191406 277.964844 315.292969 277.964844 C 310.507812 277.964844 306.171875 279.820312 302.285156 283.53125 C 298.402344 287.238281 296.464844 291.363281 296.464844 295.90625 L 296.464844 347.917969 Z M 264.730469 347.917969 " fill-opacity="1" fill-rule="nonzero"/><path fill="#000000" d="M 467.328125 306.3125 L 400.636719 306.3125 C 400.636719 312.765625 402.726562 317.550781 406.90625 320.660156 C 411.09375 323.765625 415.636719 325.320312 420.535156 325.320312 C 425.675781 325.320312 429.738281 324.632812 432.722656 323.257812 C 435.710938 321.882812 439.117188 319.164062 442.945312 315.09375 L 465.898438 326.570312 C 456.332031 342.597656 440.4375 350.609375 418.207031 350.609375 C 404.34375 350.609375 392.445312 345.863281 382.523438 336.359375 C 372.605469 326.847656 367.644531 315.398438 367.644531 302.003906 C 367.644531 288.613281 372.605469 277.136719 382.523438 267.570312 C 392.445312 258.003906 404.34375 253.21875 418.207031 253.21875 C 432.789062 253.21875 444.652344 257.4375 453.796875 265.871094 C 462.9375 274.296875 467.507812 286.34375 467.507812 302.003906 C 467.507812 304.160156 467.449219 305.59375 467.328125 306.3125 Z M 401.535156 288.734375 L 436.492188 288.734375 C 435.769531 283.949219 433.890625 280.269531 430.84375 277.699219 C 427.792969 275.125 423.882812 273.839844 419.105469 273.839844 C 413.84375 273.839844 409.652344 275.21875 406.542969 277.976562 C 403.4375 280.726562 401.769531 284.3125 401.535156 288.734375 Z M 401.535156 288.734375 " fill-opacity="1" fill-rule="nonzero"/><path fill="#000000" d="M 473.425781 347.917969 L 473.425781 255.910156 L 505.15625 255.910156 L 505.15625 269.183594 L 505.519531 269.183594 C 505.753906 268.707031 506.136719 268.109375 506.671875 267.386719 C 507.210938 266.667969 508.382812 265.414062 510.175781 263.625 C 511.972656 261.832031 513.878906 260.21875 515.910156 258.785156 C 517.949219 257.347656 520.578125 256.0625 523.804688 254.929688 C 527.03125 253.789062 530.316406 253.21875 533.664062 253.21875 C 537.132812 253.21875 540.539062 253.703125 543.886719 254.664062 C 547.230469 255.617188 549.679688 256.574219 551.234375 257.523438 L 553.742188 258.957031 L 540.476562 285.859375 C 536.53125 282.511719 531.035156 280.839844 523.988281 280.839844 C 520.160156 280.839844 516.875 281.675781 514.128906 283.351562 C 511.378906 285.023438 509.4375 287.058594 508.296875 289.453125 C 507.164062 291.835938 506.355469 293.867188 505.871094 295.539062 C 505.394531 297.214844 505.15625 298.535156 505.15625 299.496094 L 505.15625 347.917969 Z M 473.425781 347.917969 " fill-opacity="1" fill-rule="nonzero"/><path fill="#000000" d="M 560.015625 336.527344 C 551.410156 327.140625 547.113281 315.632812 547.113281 302.003906 C 547.113281 288.371094 551.410156 276.832031 560.015625 267.386719 C 568.625 257.945312 579.5625 253.21875 592.839844 253.21875 C 605.027344 253.21875 615.066406 257.046875 622.957031 264.695312 L 622.957031 255.910156 L 654.691406 255.910156 L 654.691406 347.917969 L 623.308594 347.917969 L 623.308594 337.511719 L 622.957031 337.511719 C 615.066406 346.242188 605.027344 350.609375 592.839844 350.609375 C 579.5625 350.609375 568.625 345.917969 560.015625 336.527344 Z M 587.003906 286.40625 C 582.882812 290.46875 580.820312 295.667969 580.820312 302.003906 C 580.820312 308.335938 582.792969 313.511719 586.738281 317.519531 C 590.683594 321.523438 595.882812 323.523438 602.332031 323.523438 C 608.546875 323.523438 613.65625 321.496094 617.660156 317.433594 C 621.667969 313.367188 623.671875 308.226562 623.671875 302.003906 C 623.671875 295.667969 621.605469 290.46875 617.476562 286.40625 C 613.355469 282.339844 608.304688 280.304688 602.332031 280.304688 C 596.234375 280.304688 591.128906 282.339844 587.003906 286.40625 Z M 587.003906 286.40625 " fill-opacity="1" fill-rule="nonzero"/><path fill="#000000" d="M 672.621094 255.910156 L 672.621094 221.65625 L 704.351562 221.65625 L 704.351562 255.910156 L 723.714844 255.910156 L 723.714844 280.125 L 704.351562 280.125 L 704.351562 309.355469 C 704.351562 317.847656 706.742188 322.09375 711.519531 322.09375 C 712.710938 322.09375 713.96875 321.855469 715.277344 321.378906 C 716.59375 320.902344 717.609375 320.417969 718.332031 319.933594 L 719.410156 319.21875 L 727.292969 344.871094 C 720.484375 348.695312 712.71875 350.609375 703.988281 350.609375 C 698.011719 350.609375 692.871094 349.5625 688.5625 347.46875 C 684.261719 345.375 681.003906 342.566406 678.792969 339.039062 C 676.585938 335.515625 675 331.808594 674.050781 327.925781 C 673.09375 324.039062 672.621094 319.882812 672.621094 315.457031 L 672.621094 280.125 L 659.355469 280.125 L 659.355469 255.910156 Z M 672.621094 255.910156 " fill-opacity="1" fill-rule="nonzero"/><path fill="#000000" d="M 737.785156 336.976562 C 727.566406 327.886719 722.457031 316.230469 722.457031 302.003906 C 722.457031 287.773438 727.773438 276.085938 738.414062 266.9375 C 749.050781 257.792969 762.199219 253.21875 777.859375 253.21875 C 793.273438 253.21875 806.269531 257.824219 816.84375 267.035156 C 827.421875 276.238281 832.714844 287.894531 832.714844 302.003906 C 832.714844 316.117188 827.542969 327.746094 817.207031 336.890625 C 806.867188 346.039062 793.75 350.609375 777.859375 350.609375 C 761.359375 350.609375 748 346.066406 737.785156 336.976562 Z M 762.351562 286.40625 C 758.226562 290.46875 756.167969 295.667969 756.167969 302.003906 C 756.167969 308.335938 758.136719 313.511719 762.082031 317.519531 C 766.027344 321.523438 771.226562 323.523438 777.675781 323.523438 C 783.890625 323.523438 789.003906 321.496094 793.003906 317.433594 C 797.011719 313.367188 799.019531 308.226562 799.019531 302.003906 C 799.019531 295.667969 796.949219 290.46875 792.820312 286.40625 C 788.699219 282.339844 783.648438 280.304688 777.675781 280.304688 C 771.582031 280.304688 766.472656 282.339844 762.351562 286.40625 Z M 762.351562 286.40625 " fill-opacity="1" fill-rule="nonzero"/><path fill="#000000" d="M 838.636719 347.917969 L 838.636719 255.910156 L 870.367188 255.910156 L 870.367188 269.183594 L 870.730469 269.183594 C 870.964844 268.707031 871.351562 268.109375 871.882812 267.386719 C 872.421875 266.667969 873.59375 265.414062 875.386719 263.625 C 877.183594 261.832031 879.09375 260.21875 881.125 258.785156 C 883.160156 257.347656 885.792969 256.0625 889.015625 254.929688 C 892.242188 253.789062 895.527344 253.21875 898.875 253.21875 C 902.34375 253.21875 905.75 253.703125 909.097656 254.664062 C 912.445312 255.617188 914.894531 256.574219 916.445312 257.523438 L 918.953125 258.957031 L 905.691406 285.859375 C 901.742188 282.511719 896.246094 280.839844 889.199219 280.839844 C 885.375 280.839844 882.085938 281.675781 879.339844 283.351562 C 876.589844 285.023438 874.648438 287.058594 873.507812 289.453125 C 872.375 291.835938 871.570312 293.867188 871.082031 295.539062 C 870.605469 297.214844 870.367188 298.535156 870.367188 299.496094 L 870.367188 347.917969 Z M 838.636719 347.917969 " fill-opacity="1" fill-rule="nonzero"/><path fill="#000000" d="M 918.957031 347.917969 L 918.957031 255.910156 L 950.691406 255.910156 L 950.691406 265.589844 L 951.054688 265.589844 C 959.300781 257.34375 968.082031 253.21875 977.402344 253.21875 C 981.941406 253.21875 986.453125 253.820312 990.933594 255.015625 C 995.421875 256.210938 999.726562 258.066406 1003.847656 260.582031 C 1007.96875 263.089844 1011.316406 266.644531 1013.886719 271.246094 C 1016.457031 275.847656 1017.742188 281.195312 1017.742188 287.292969 L 1017.742188 347.917969 L 986.011719 347.917969 L 986.011719 295.90625 C 986.011719 291.125 984.488281 286.941406 981.441406 283.351562 C 978.390625 279.757812 974.417969 277.964844 969.519531 277.964844 C 964.734375 277.964844 960.394531 279.820312 956.511719 283.53125 C 952.628906 287.238281 950.691406 291.363281 950.691406 295.90625 L 950.691406 347.917969 Z M 918.957031 347.917969 " fill-opacity="1" fill-rule="nonzero"/><path fill="#000000" d="M 1048.945312 309.539062 C 1054.675781 309.539062 1059.542969 311.539062 1063.546875 315.542969 C 1067.554688 319.546875 1069.558594 324.417969 1069.558594 330.160156 C 1069.558594 335.78125 1067.554688 340.597656 1063.546875 344.605469 C 1059.542969 348.609375 1054.675781 350.609375 1048.945312 350.609375 C 1043.328125 350.609375 1038.511719 348.609375 1034.503906 344.605469 C 1030.503906 340.597656 1028.503906 335.78125 1028.503906 330.160156 C 1028.503906 324.417969 1030.503906 319.546875 1034.503906 315.542969 C 1038.511719 311.539062 1043.328125 309.539062 1048.945312 309.539062 Z M 1048.945312 309.539062 " fill-opacity="1" fill-rule="nonzero"/></svg>