<svg xmlns="http://www.w3.org/2000/svg" xmlns:xlink="http://www.w3.org/1999/xlink" width="1920" zoomAndPan="magnify" viewBox="0 0 1440 809.999993" height="1080" preserveAspectRatio="xMidYMid meet" version="1.0"><defs><g/></defs><g fill="#000000" fill-opacity="1"><g transform="translate(48.089725, 345.434521)"><g><path d="M 171.453125 0 L 162.453125 -113 L 161.296875 -113 L 122.234375 -1.15625 L 96.359375 -1.15625 L 57.3125 -113 L 56.15625 -113 L 47.140625 0 L 3.703125 0 L 20.796875 -190.640625 L 67.015625 -190.640625 L 109.296875 -80.640625 L 151.59375 -190.640625 L 197.796875 -190.640625 L 214.90625 0 Z M 171.453125 0 "/></g></g></g><g fill="#000000" fill-opacity="1"><g transform="translate(255.132006, 345.434521)"><g><path d="M 21.953125 -14.671875 C 10.859375 -26.765625 5.3125 -41.59375 5.3125 -59.15625 C 5.3125 -76.71875 10.859375 -91.582031 21.953125 -103.75 C 33.046875 -115.925781 47.140625 -122.015625 64.234375 -122.015625 C 79.953125 -122.015625 92.894531 -117.082031 103.0625 -107.21875 L 103.0625 -118.546875 L 143.96875 -118.546875 L 143.96875 0 L 103.515625 0 L 103.515625 -13.40625 L 103.0625 -13.40625 C 92.894531 -2.15625 79.953125 3.46875 64.234375 3.46875 C 47.140625 3.46875 33.046875 -2.578125 21.953125 -14.671875 Z M 56.71875 -79.25 C 51.40625 -74.019531 48.75 -67.320312 48.75 -59.15625 C 48.75 -50.988281 51.289062 -44.320312 56.375 -39.15625 C 61.46875 -34 68.171875 -31.421875 76.484375 -31.421875 C 84.492188 -31.421875 91.078125 -34.039062 96.234375 -39.28125 C 101.398438 -44.519531 103.984375 -51.144531 103.984375 -59.15625 C 103.984375 -67.320312 101.328125 -74.019531 96.015625 -79.25 C 90.703125 -84.488281 84.191406 -87.109375 76.484375 -87.109375 C 68.628906 -87.109375 62.039062 -84.488281 56.71875 -79.25 Z M 56.71875 -79.25 "/></g></g></g><g fill="#000000" fill-opacity="1"><g transform="translate(401.401839, 345.434521)"><g><path d="M 20.796875 -118.546875 L 20.796875 -162.671875 L 61.703125 -162.671875 L 61.703125 -118.546875 L 86.65625 -118.546875 L 86.65625 -87.34375 L 61.703125 -87.34375 L 61.703125 -49.6875 C 61.703125 -38.75 64.78125 -33.28125 70.9375 -33.28125 C 72.476562 -33.28125 74.09375 -33.585938 75.78125 -34.203125 C 77.476562 -34.816406 78.789062 -35.429688 79.71875 -36.046875 L 81.109375 -36.96875 L 91.28125 -3.921875 C 82.5 1.003906 72.484375 3.46875 61.234375 3.46875 C 53.535156 3.46875 46.910156 2.117188 41.359375 -0.578125 C 35.816406 -3.273438 31.617188 -6.894531 28.765625 -11.4375 C 25.921875 -15.976562 23.878906 -20.753906 22.640625 -25.765625 C 21.410156 -30.773438 20.796875 -36.128906 20.796875 -41.828125 L 20.796875 -87.34375 L 3.703125 -87.34375 L 3.703125 -118.546875 Z M 20.796875 -118.546875 "/></g></g></g><g fill="#000000" fill-opacity="1"><g transform="translate(481.122406, 345.434521)"><g/></g></g><g fill="#000000" fill-opacity="1"><g transform="translate(532.651917, 345.434521)"><g><path d="M 13.859375 -84.578125 L 88.265625 -84.578125 L 88.265625 -49.21875 L 13.859375 -49.21875 Z M 13.859375 -84.578125 "/></g></g></g><g fill="#000000" fill-opacity="1"><g transform="translate(48.089725, 564.954632)"><g><path d="M 186.25 -106.765625 L 186.25 -65.390625 C 181.320312 -42.742188 170.535156 -25.601562 153.890625 -13.96875 C 137.253906 -2.34375 118.691406 3.46875 98.203125 3.46875 C 72.484375 3.46875 50.570312 -6.15625 32.46875 -25.40625 C 14.363281 -44.664062 5.3125 -67.929688 5.3125 -95.203125 C 5.3125 -122.929688 14.171875 -146.347656 31.890625 -165.453125 C 49.609375 -184.554688 71.710938 -194.109375 98.203125 -194.109375 C 129.171875 -194.109375 153.664062 -183.25 171.6875 -161.53125 L 143.265625 -130.328125 C 133.097656 -146.660156 118.925781 -154.828125 100.75 -154.828125 C 87.34375 -154.828125 75.898438 -149.007812 66.421875 -137.375 C 56.953125 -125.738281 52.21875 -111.679688 52.21875 -95.203125 C 52.21875 -79.023438 56.953125 -65.195312 66.421875 -53.71875 C 75.898438 -42.25 87.34375 -36.515625 100.75 -36.515625 C 111.84375 -36.515625 121.507812 -39.863281 129.75 -46.5625 C 137.988281 -53.257812 142.109375 -62.15625 142.109375 -73.25 L 98.203125 -73.25 L 98.203125 -106.765625 Z M 186.25 -106.765625 "/></g></g></g><g fill="#000000" fill-opacity="1"><g transform="translate(228.096363, 564.954632)"><g><path d="M 133.796875 -53.609375 L 47.828125 -53.609375 C 47.828125 -45.285156 50.523438 -39.117188 55.921875 -35.109375 C 61.316406 -31.109375 67.171875 -29.109375 73.484375 -29.109375 C 80.109375 -29.109375 85.34375 -29.992188 89.1875 -31.765625 C 93.039062 -33.546875 97.4375 -37.050781 102.375 -42.28125 L 131.953125 -27.5 C 119.617188 -6.851562 99.128906 3.46875 70.484375 3.46875 C 52.609375 3.46875 37.273438 -2.65625 24.484375 -14.90625 C 11.703125 -27.15625 5.3125 -41.90625 5.3125 -59.15625 C 5.3125 -76.40625 11.703125 -91.191406 24.484375 -103.515625 C 37.273438 -115.847656 52.609375 -122.015625 70.484375 -122.015625 C 89.273438 -122.015625 104.5625 -116.582031 116.34375 -105.71875 C 128.132812 -94.851562 134.03125 -79.332031 134.03125 -59.15625 C 134.03125 -56.382812 133.953125 -54.535156 133.796875 -53.609375 Z M 48.984375 -76.25 L 94.046875 -76.25 C 93.117188 -82.414062 90.691406 -87.15625 86.765625 -90.46875 C 82.835938 -93.78125 77.796875 -95.4375 71.640625 -95.4375 C 64.859375 -95.4375 59.460938 -93.664062 55.453125 -90.125 C 51.453125 -86.582031 49.296875 -81.957031 48.984375 -76.25 Z M 48.984375 -76.25 "/></g></g></g><g fill="#000000" fill-opacity="1"><g transform="translate(355.880272, 564.954632)"><g><path d="M 13.859375 0 L 13.859375 -118.546875 L 54.765625 -118.546875 L 54.765625 -106.0625 L 55.234375 -106.0625 C 65.859375 -116.695312 77.179688 -122.015625 89.203125 -122.015625 C 95.054688 -122.015625 100.867188 -121.242188 106.640625 -119.703125 C 112.421875 -118.160156 117.96875 -115.769531 123.28125 -112.53125 C 128.59375 -109.300781 132.90625 -104.71875 136.21875 -98.78125 C 139.53125 -92.851562 141.1875 -85.960938 141.1875 -78.109375 L 141.1875 0 L 100.28125 0 L 100.28125 -67.015625 C 100.28125 -73.171875 98.316406 -78.5625 94.390625 -83.1875 C 90.460938 -87.8125 85.34375 -90.125 79.03125 -90.125 C 72.863281 -90.125 67.273438 -87.734375 62.265625 -82.953125 C 57.265625 -78.179688 54.765625 -72.867188 54.765625 -67.015625 L 54.765625 0 Z M 13.859375 0 "/></g></g></g><g fill="#000000" fill-opacity="1"><g transform="translate(497.066454, 564.954632)"><g><path d="M 133.796875 -53.609375 L 47.828125 -53.609375 C 47.828125 -45.285156 50.523438 -39.117188 55.921875 -35.109375 C 61.316406 -31.109375 67.171875 -29.109375 73.484375 -29.109375 C 80.109375 -29.109375 85.34375 -29.992188 89.1875 -31.765625 C 93.039062 -33.546875 97.4375 -37.050781 102.375 -42.28125 L 131.953125 -27.5 C 119.617188 -6.851562 99.128906 3.46875 70.484375 3.46875 C 52.609375 3.46875 37.273438 -2.65625 24.484375 -14.90625 C 11.703125 -27.15625 5.3125 -41.90625 5.3125 -59.15625 C 5.3125 -76.40625 11.703125 -91.191406 24.484375 -103.515625 C 37.273438 -115.847656 52.609375 -122.015625 70.484375 -122.015625 C 89.273438 -122.015625 104.5625 -116.582031 116.34375 -105.71875 C 128.132812 -94.851562 134.03125 -79.332031 134.03125 -59.15625 C 134.03125 -56.382812 133.953125 -54.535156 133.796875 -53.609375 Z M 48.984375 -76.25 L 94.046875 -76.25 C 93.117188 -82.414062 90.691406 -87.15625 86.765625 -90.46875 C 82.835938 -93.78125 77.796875 -95.4375 71.640625 -95.4375 C 64.859375 -95.4375 59.460938 -93.664062 55.453125 -90.125 C 51.453125 -86.582031 49.296875 -81.957031 48.984375 -76.25 Z M 48.984375 -76.25 "/></g></g></g><g fill="#000000" fill-opacity="1"><g transform="translate(624.850338, 564.954632)"><g><path d="M 13.859375 0 L 13.859375 -118.546875 L 54.765625 -118.546875 L 54.765625 -101.4375 L 55.234375 -101.4375 C 55.535156 -102.0625 56.03125 -102.832031 56.71875 -103.75 C 57.414062 -104.675781 58.921875 -106.296875 61.234375 -108.609375 C 63.546875 -110.921875 66.007812 -113 68.625 -114.84375 C 71.25 -116.695312 74.640625 -118.351562 78.796875 -119.8125 C 82.953125 -121.28125 87.1875 -122.015625 91.5 -122.015625 C 95.96875 -122.015625 100.359375 -121.394531 104.671875 -120.15625 C 108.992188 -118.925781 112.15625 -117.695312 114.15625 -116.46875 L 117.390625 -114.609375 L 100.28125 -79.953125 C 95.195312 -84.265625 88.113281 -86.421875 79.03125 -86.421875 C 74.101562 -86.421875 69.863281 -85.34375 66.3125 -83.1875 C 62.769531 -81.03125 60.265625 -78.410156 58.796875 -75.328125 C 57.335938 -72.242188 56.300781 -69.625 55.6875 -67.46875 C 55.070312 -65.3125 54.765625 -63.617188 54.765625 -62.390625 L 54.765625 0 Z M 13.859375 0 "/></g></g></g><g fill="#000000" fill-opacity="1"><g transform="translate(728.371454, 564.954632)"><g><path d="M 21.953125 -14.671875 C 10.859375 -26.765625 5.3125 -41.59375 5.3125 -59.15625 C 5.3125 -76.71875 10.859375 -91.582031 21.953125 -103.75 C 33.046875 -115.925781 47.140625 -122.015625 64.234375 -122.015625 C 79.953125 -122.015625 92.894531 -117.082031 103.0625 -107.21875 L 103.0625 -118.546875 L 143.96875 -118.546875 L 143.96875 0 L 103.515625 0 L 103.515625 -13.40625 L 103.0625 -13.40625 C 92.894531 -2.15625 79.953125 3.46875 64.234375 3.46875 C 47.140625 3.46875 33.046875 -2.578125 21.953125 -14.671875 Z M 56.71875 -79.25 C 51.40625 -74.019531 48.75 -67.320312 48.75 -59.15625 C 48.75 -50.988281 51.289062 -44.320312 56.375 -39.15625 C 61.46875 -34 68.171875 -31.421875 76.484375 -31.421875 C 84.492188 -31.421875 91.078125 -34.039062 96.234375 -39.28125 C 101.398438 -44.519531 103.984375 -51.144531 103.984375 -59.15625 C 103.984375 -67.320312 101.328125 -74.019531 96.015625 -79.25 C 90.703125 -84.488281 84.191406 -87.109375 76.484375 -87.109375 C 68.628906 -87.109375 62.039062 -84.488281 56.71875 -79.25 Z M 56.71875 -79.25 "/></g></g></g><g fill="#000000" fill-opacity="1"><g transform="translate(874.641262, 564.954632)"><g><path d="M 20.796875 -118.546875 L 20.796875 -162.671875 L 61.703125 -162.671875 L 61.703125 -118.546875 L 86.65625 -118.546875 L 86.65625 -87.34375 L 61.703125 -87.34375 L 61.703125 -49.6875 C 61.703125 -38.75 64.78125 -33.28125 70.9375 -33.28125 C 72.476562 -33.28125 74.09375 -33.585938 75.78125 -34.203125 C 77.476562 -34.816406 78.789062 -35.429688 79.71875 -36.046875 L 81.109375 -36.96875 L 91.28125 -3.921875 C 82.5 1.003906 72.484375 3.46875 61.234375 3.46875 C 53.535156 3.46875 46.910156 2.117188 41.359375 -0.578125 C 35.816406 -3.273438 31.617188 -6.894531 28.765625 -11.4375 C 25.921875 -15.976562 23.878906 -20.753906 22.640625 -25.765625 C 21.410156 -30.773438 20.796875 -36.128906 20.796875 -41.828125 L 20.796875 -87.34375 L 3.703125 -87.34375 L 3.703125 -118.546875 Z M 20.796875 -118.546875 "/></g></g></g><g fill="#000000" fill-opacity="1"><g transform="translate(954.361805, 564.954632)"><g><path d="M 25.0625 -14.09375 C 11.894531 -25.800781 5.3125 -40.820312 5.3125 -59.15625 C 5.3125 -77.488281 12.164062 -92.546875 25.875 -104.328125 C 39.59375 -116.117188 56.539062 -122.015625 76.71875 -122.015625 C 96.59375 -122.015625 113.34375 -116.082031 126.96875 -104.21875 C 140.601562 -92.351562 147.421875 -77.332031 147.421875 -59.15625 C 147.421875 -40.976562 140.757812 -25.992188 127.4375 -14.203125 C 114.113281 -2.421875 97.207031 3.46875 76.71875 3.46875 C 55.457031 3.46875 38.238281 -2.382812 25.0625 -14.09375 Z M 56.71875 -79.25 C 51.40625 -74.019531 48.75 -67.320312 48.75 -59.15625 C 48.75 -50.988281 51.289062 -44.320312 56.375 -39.15625 C 61.46875 -34 68.171875 -31.421875 76.484375 -31.421875 C 84.492188 -31.421875 91.078125 -34.039062 96.234375 -39.28125 C 101.398438 -44.519531 103.984375 -51.144531 103.984375 -59.15625 C 103.984375 -67.320312 101.328125 -74.019531 96.015625 -79.25 C 90.703125 -84.488281 84.191406 -87.109375 76.484375 -87.109375 C 68.628906 -87.109375 62.039062 -84.488281 56.71875 -79.25 Z M 56.71875 -79.25 "/></g></g></g><g fill="#000000" fill-opacity="1"><g transform="translate(1095.548062, 564.954632)"><g><path d="M 13.859375 0 L 13.859375 -118.546875 L 54.765625 -118.546875 L 54.765625 -101.4375 L 55.234375 -101.4375 C 55.535156 -102.0625 56.03125 -102.832031 56.71875 -103.75 C 57.414062 -104.675781 58.921875 -106.296875 61.234375 -108.609375 C 63.546875 -110.921875 66.007812 -113 68.625 -114.84375 C 71.25 -116.695312 74.640625 -118.351562 78.796875 -119.8125 C 82.953125 -121.28125 87.1875 -122.015625 91.5 -122.015625 C 95.96875 -122.015625 100.359375 -121.394531 104.671875 -120.15625 C 108.992188 -118.925781 112.15625 -117.695312 114.15625 -116.46875 L 117.390625 -114.609375 L 100.28125 -79.953125 C 95.195312 -84.265625 88.113281 -86.421875 79.03125 -86.421875 C 74.101562 -86.421875 69.863281 -85.34375 66.3125 -83.1875 C 62.769531 -81.03125 60.265625 -78.410156 58.796875 -75.328125 C 57.335938 -72.242188 56.300781 -69.625 55.6875 -67.46875 C 55.070312 -65.3125 54.765625 -63.617188 54.765625 -62.390625 L 54.765625 0 Z M 13.859375 0 "/></g></g></g><g fill="#000000" fill-opacity="1"><g transform="translate(1199.069177, 564.954632)"><g><path d="M 13.859375 0 L 13.859375 -118.546875 L 54.765625 -118.546875 L 54.765625 -106.0625 L 55.234375 -106.0625 C 65.859375 -116.695312 77.179688 -122.015625 89.203125 -122.015625 C 95.054688 -122.015625 100.867188 -121.242188 106.640625 -119.703125 C 112.421875 -118.160156 117.96875 -115.769531 123.28125 -112.53125 C 128.59375 -109.300781 132.90625 -104.71875 136.21875 -98.78125 C 139.53125 -92.851562 141.1875 -85.960938 141.1875 -78.109375 L 141.1875 0 L 100.28125 0 L 100.28125 -67.015625 C 100.28125 -73.171875 98.316406 -78.5625 94.390625 -83.1875 C 90.460938 -87.8125 85.34375 -90.125 79.03125 -90.125 C 72.863281 -90.125 67.273438 -87.734375 62.265625 -82.953125 C 57.265625 -78.179688 54.765625 -72.867188 54.765625 -67.015625 L 54.765625 0 Z M 13.859375 0 "/></g></g></g><g fill="#000000" fill-opacity="1"><g transform="translate(1340.255435, 564.954632)"><g><path d="M 40.203125 -49.453125 C 47.597656 -49.453125 53.875 -46.867188 59.03125 -41.703125 C 64.195312 -36.546875 66.78125 -30.269531 66.78125 -22.875 C 66.78125 -15.632812 64.195312 -9.429688 59.03125 -4.265625 C 53.875 0.890625 47.597656 3.46875 40.203125 3.46875 C 32.960938 3.46875 26.757812 0.890625 21.59375 -4.265625 C 16.4375 -9.429688 13.859375 -15.632812 13.859375 -22.875 C 13.859375 -30.269531 16.4375 -36.546875 21.59375 -41.703125 C 26.757812 -46.867188 32.960938 -49.453125 40.203125 -49.453125 Z M 40.203125 -49.453125 "/></g></g></g></svg>