<svg xmlns="http://www.w3.org/2000/svg" xmlns:xlink="http://www.w3.org/1999/xlink" width="1929" zoomAndPan="magnify" viewBox="0 0 1446.75 809.999993" height="1080" preserveAspectRatio="xMidYMid meet" version="1.0"><defs><g/></defs><g fill="#000000" fill-opacity="1"><g transform="translate(48.081411, 345.444812)"><g><path d="M 171.421875 0 L 162.421875 -112.96875 L 161.265625 -112.96875 L 122.21875 -1.15625 L 96.34375 -1.15625 L 57.296875 -112.96875 L 56.140625 -112.96875 L 47.125 0 L 3.703125 0 L 20.796875 -190.59375 L 67 -190.59375 L 109.28125 -80.625 L 151.5625 -190.59375 L 197.765625 -190.59375 L 214.859375 0 Z M 171.421875 0 "/></g></g></g><g fill="#000000" fill-opacity="1"><g transform="translate(255.087923, 345.444812)"><g><path d="M 21.9375 -14.671875 C 10.851562 -26.765625 5.3125 -41.585938 5.3125 -59.140625 C 5.3125 -76.703125 10.851562 -91.566406 21.9375 -103.734375 C 33.03125 -115.898438 47.128906 -121.984375 64.234375 -121.984375 C 79.941406 -121.984375 92.878906 -117.054688 103.046875 -107.203125 L 103.046875 -118.515625 L 143.9375 -118.515625 L 143.9375 0 L 103.5 0 L 103.5 -13.40625 L 103.046875 -13.40625 C 92.878906 -2.15625 79.941406 3.46875 64.234375 3.46875 C 47.128906 3.46875 33.03125 -2.578125 21.9375 -14.671875 Z M 56.71875 -79.234375 C 51.40625 -74.003906 48.75 -67.304688 48.75 -59.140625 C 48.75 -50.984375 51.289062 -44.320312 56.375 -39.15625 C 61.457031 -34 68.15625 -31.421875 76.46875 -31.421875 C 84.476562 -31.421875 91.0625 -34.035156 96.21875 -39.265625 C 101.382812 -44.503906 103.96875 -51.128906 103.96875 -59.140625 C 103.96875 -67.304688 101.304688 -74.003906 95.984375 -79.234375 C 90.671875 -84.472656 84.164062 -87.09375 76.46875 -87.09375 C 68.613281 -87.09375 62.03125 -84.472656 56.71875 -79.234375 Z M 56.71875 -79.234375 "/></g></g></g><g fill="#000000" fill-opacity="1"><g transform="translate(401.332486, 345.444812)"><g><path d="M 20.796875 -118.515625 L 20.796875 -162.640625 L 61.6875 -162.640625 L 61.6875 -118.515625 L 86.640625 -118.515625 L 86.640625 -87.328125 L 61.6875 -87.328125 L 61.6875 -49.671875 C 61.6875 -38.734375 64.765625 -33.265625 70.921875 -33.265625 C 72.460938 -33.265625 74.078125 -33.570312 75.765625 -34.1875 C 77.460938 -34.800781 78.773438 -35.421875 79.703125 -36.046875 L 81.09375 -36.96875 L 91.25 -3.921875 C 82.476562 1.003906 72.46875 3.46875 61.21875 3.46875 C 53.519531 3.46875 46.894531 2.117188 41.34375 -0.578125 C 35.800781 -3.273438 31.601562 -6.894531 28.75 -11.4375 C 25.90625 -15.976562 23.867188 -20.75 22.640625 -25.75 C 21.410156 -30.757812 20.796875 -36.113281 20.796875 -41.8125 L 20.796875 -87.328125 L 3.703125 -87.328125 L 3.703125 -118.515625 Z M 20.796875 -118.515625 "/></g></g></g><g fill="#000000" fill-opacity="1"><g transform="translate(481.03928, 345.444812)"><g><path d="M 149.25 -118.515625 L 92.875 -61.921875 L 154.796875 0 L 102.109375 0 L 54.75 -47.359375 L 54.75 0 L 13.859375 0 L 13.859375 -198.6875 L 54.75 -198.6875 L 54.75 -77.171875 L 96.109375 -118.515625 Z M 149.25 -118.515625 "/></g></g></g><g fill="#000000" fill-opacity="1"><g transform="translate(618.735576, 345.444812)"><g><path d="M 13.859375 0 L 13.859375 -118.515625 L 54.75 -118.515625 L 54.75 -101.421875 L 55.21875 -101.421875 C 55.519531 -102.035156 56.015625 -102.804688 56.703125 -103.734375 C 57.398438 -104.660156 58.90625 -106.273438 61.21875 -108.578125 C 63.53125 -110.890625 65.992188 -112.96875 68.609375 -114.8125 C 71.234375 -116.664062 74.625 -118.320312 78.78125 -119.78125 C 82.9375 -121.25 87.171875 -121.984375 91.484375 -121.984375 C 95.953125 -121.984375 100.34375 -121.363281 104.65625 -120.125 C 108.96875 -118.894531 112.125 -117.664062 114.125 -116.4375 L 117.359375 -114.59375 L 100.265625 -79.9375 C 95.179688 -84.25 88.097656 -86.40625 79.015625 -86.40625 C 74.085938 -86.40625 69.851562 -85.328125 66.3125 -83.171875 C 62.769531 -81.015625 60.265625 -78.394531 58.796875 -75.3125 C 57.335938 -72.238281 56.296875 -69.625 55.671875 -67.46875 C 55.054688 -65.3125 54.75 -63.613281 54.75 -62.375 L 54.75 0 Z M 13.859375 0 "/></g></g></g><g fill="#000000" fill-opacity="1"><g transform="translate(722.238807, 345.444812)"><g><path d="M 133.765625 -53.59375 L 47.828125 -53.59375 C 47.828125 -45.28125 50.519531 -39.117188 55.90625 -35.109375 C 61.300781 -31.109375 67.15625 -29.109375 73.46875 -29.109375 C 80.09375 -29.109375 85.328125 -29.992188 89.171875 -31.765625 C 93.023438 -33.535156 97.414062 -37.039062 102.34375 -42.28125 L 131.921875 -27.5 C 119.597656 -6.851562 99.113281 3.46875 70.46875 3.46875 C 52.601562 3.46875 37.273438 -2.648438 24.484375 -14.890625 C 11.703125 -27.140625 5.3125 -41.890625 5.3125 -59.140625 C 5.3125 -76.390625 11.703125 -91.175781 24.484375 -103.5 C 37.273438 -115.820312 52.601562 -121.984375 70.46875 -121.984375 C 89.257812 -121.984375 104.546875 -116.550781 116.328125 -105.6875 C 128.109375 -94.832031 134 -79.316406 134 -59.140625 C 134 -56.367188 133.921875 -54.519531 133.765625 -53.59375 Z M 48.984375 -76.234375 L 94.03125 -76.234375 C 93.101562 -82.398438 90.675781 -87.140625 86.75 -90.453125 C 82.820312 -93.765625 77.78125 -95.421875 71.625 -95.421875 C 64.84375 -95.421875 59.445312 -93.644531 55.4375 -90.09375 C 51.4375 -86.550781 49.285156 -81.929688 48.984375 -76.234375 Z M 48.984375 -76.234375 "/></g></g></g><g fill="#000000" fill-opacity="1"><g transform="translate(850.000616, 345.444812)"><g><path d="M 21.9375 -14.671875 C 10.851562 -26.765625 5.3125 -41.585938 5.3125 -59.140625 C 5.3125 -76.703125 10.851562 -91.566406 21.9375 -103.734375 C 33.03125 -115.898438 47.128906 -121.984375 64.234375 -121.984375 C 79.941406 -121.984375 92.878906 -117.054688 103.046875 -107.203125 L 103.046875 -118.515625 L 143.9375 -118.515625 L 143.9375 0 L 103.5 0 L 103.5 -13.40625 L 103.046875 -13.40625 C 92.878906 -2.15625 79.941406 3.46875 64.234375 3.46875 C 47.128906 3.46875 33.03125 -2.578125 21.9375 -14.671875 Z M 56.71875 -79.234375 C 51.40625 -74.003906 48.75 -67.304688 48.75 -59.140625 C 48.75 -50.984375 51.289062 -44.320312 56.375 -39.15625 C 61.457031 -34 68.15625 -31.421875 76.46875 -31.421875 C 84.476562 -31.421875 91.0625 -34.035156 96.21875 -39.265625 C 101.382812 -44.503906 103.96875 -51.128906 103.96875 -59.140625 C 103.96875 -67.304688 101.304688 -74.003906 95.984375 -79.234375 C 90.671875 -84.472656 84.164062 -87.09375 76.46875 -87.09375 C 68.613281 -87.09375 62.03125 -84.472656 56.71875 -79.234375 Z M 56.71875 -79.234375 "/></g></g></g><g fill="#000000" fill-opacity="1"><g transform="translate(996.245154, 345.444812)"><g><path d="M 20.796875 -118.515625 L 20.796875 -162.640625 L 61.6875 -162.640625 L 61.6875 -118.515625 L 86.640625 -118.515625 L 86.640625 -87.328125 L 61.6875 -87.328125 L 61.6875 -49.671875 C 61.6875 -38.734375 64.765625 -33.265625 70.921875 -33.265625 C 72.460938 -33.265625 74.078125 -33.570312 75.765625 -34.1875 C 77.460938 -34.800781 78.773438 -35.421875 79.703125 -36.046875 L 81.09375 -36.96875 L 91.25 -3.921875 C 82.476562 1.003906 72.46875 3.46875 61.21875 3.46875 C 53.519531 3.46875 46.894531 2.117188 41.34375 -0.578125 C 35.800781 -3.273438 31.601562 -6.894531 28.75 -11.4375 C 25.90625 -15.976562 23.867188 -20.75 22.640625 -25.75 C 21.410156 -30.757812 20.796875 -36.113281 20.796875 -41.8125 L 20.796875 -87.328125 L 3.703125 -87.328125 L 3.703125 -118.515625 Z M 20.796875 -118.515625 "/></g></g></g><g fill="#000000" fill-opacity="1"><g transform="translate(1075.951924, 345.444812)"><g><path d="M 33.953125 -176.5 C 38.117188 -180.664062 43.125 -182.75 48.96875 -182.75 C 54.820312 -182.75 59.828125 -180.664062 63.984375 -176.5 C 68.148438 -172.34375 70.234375 -167.335938 70.234375 -161.484375 C 70.234375 -155.640625 68.148438 -150.632812 63.984375 -146.46875 C 59.828125 -142.3125 54.820312 -140.234375 48.96875 -140.234375 C 43.125 -140.234375 38.117188 -142.3125 33.953125 -146.46875 C 29.796875 -150.632812 27.71875 -155.640625 27.71875 -161.484375 C 27.71875 -167.335938 29.796875 -172.34375 33.953125 -176.5 Z M 88.71875 -176.5 C 92.875 -180.664062 97.878906 -182.75 103.734375 -182.75 C 109.585938 -182.75 114.59375 -180.664062 118.75 -176.5 C 122.90625 -172.34375 124.984375 -167.335938 124.984375 -161.484375 C 124.984375 -155.640625 122.90625 -150.632812 118.75 -146.46875 C 114.59375 -142.3125 109.585938 -140.234375 103.734375 -140.234375 C 97.878906 -140.234375 92.875 -142.3125 88.71875 -146.46875 C 84.5625 -150.632812 82.484375 -155.640625 82.484375 -161.484375 C 82.484375 -167.335938 84.5625 -172.34375 88.71875 -176.5 Z M 25.875 -104.3125 C 12.164062 -92.53125 5.3125 -77.472656 5.3125 -59.140625 C 5.3125 -40.816406 11.894531 -25.800781 25.0625 -14.09375 C 38.226562 -2.382812 55.441406 3.46875 76.703125 3.46875 C 97.179688 3.46875 114.082031 -2.421875 127.40625 -14.203125 C 140.726562 -25.984375 147.390625 -40.960938 147.390625 -59.140625 C 147.390625 -77.316406 140.570312 -92.332031 126.9375 -104.1875 C 113.3125 -116.050781 96.566406 -121.984375 76.703125 -121.984375 C 56.523438 -121.984375 39.582031 -116.09375 25.875 -104.3125 Z M 56.375 -39.15625 C 51.289062 -44.320312 48.75 -50.984375 48.75 -59.140625 C 48.75 -67.304688 51.40625 -74.003906 56.71875 -79.234375 C 62.03125 -84.472656 68.613281 -87.09375 76.46875 -87.09375 C 84.164062 -87.09375 90.671875 -84.472656 95.984375 -79.234375 C 101.304688 -74.003906 103.96875 -67.304688 103.96875 -59.140625 C 103.96875 -51.128906 101.382812 -44.503906 96.21875 -39.265625 C 91.0625 -34.035156 84.476562 -31.421875 76.46875 -31.421875 C 68.15625 -31.421875 61.457031 -34 56.375 -39.15625 Z M 56.375 -39.15625 "/></g></g></g><g fill="#000000" fill-opacity="1"><g transform="translate(1217.113689, 345.444812)"><g><path d="M 13.859375 0 L 13.859375 -118.515625 L 54.75 -118.515625 L 54.75 -101.421875 L 55.21875 -101.421875 C 55.519531 -102.035156 56.015625 -102.804688 56.703125 -103.734375 C 57.398438 -104.660156 58.90625 -106.273438 61.21875 -108.578125 C 63.53125 -110.890625 65.992188 -112.96875 68.609375 -114.8125 C 71.234375 -116.664062 74.625 -118.320312 78.78125 -119.78125 C 82.9375 -121.25 87.171875 -121.984375 91.484375 -121.984375 C 95.953125 -121.984375 100.34375 -121.363281 104.65625 -120.125 C 108.96875 -118.894531 112.125 -117.664062 114.125 -116.4375 L 117.359375 -114.59375 L 100.265625 -79.9375 C 95.179688 -84.25 88.097656 -86.40625 79.015625 -86.40625 C 74.085938 -86.40625 69.851562 -85.328125 66.3125 -83.171875 C 62.769531 -81.015625 60.265625 -78.394531 58.796875 -75.3125 C 57.335938 -72.238281 56.296875 -69.625 55.671875 -67.46875 C 55.054688 -65.3125 54.75 -63.613281 54.75 -62.375 L 54.75 0 Z M 13.859375 0 "/></g></g></g><g fill="#000000" fill-opacity="1"><g transform="translate(48.081411, 564.926998)"><g><path d="M 133.765625 -53.59375 L 47.828125 -53.59375 C 47.828125 -45.28125 50.519531 -39.117188 55.90625 -35.109375 C 61.300781 -31.109375 67.15625 -29.109375 73.46875 -29.109375 C 80.09375 -29.109375 85.328125 -29.992188 89.171875 -31.765625 C 93.023438 -33.535156 97.414062 -37.039062 102.34375 -42.28125 L 131.921875 -27.5 C 119.597656 -6.851562 99.113281 3.46875 70.46875 3.46875 C 52.601562 3.46875 37.273438 -2.648438 24.484375 -14.890625 C 11.703125 -27.140625 5.3125 -41.890625 5.3125 -59.140625 C 5.3125 -76.390625 11.703125 -91.175781 24.484375 -103.5 C 37.273438 -115.820312 52.601562 -121.984375 70.46875 -121.984375 C 89.257812 -121.984375 104.546875 -116.550781 116.328125 -105.6875 C 128.109375 -94.832031 134 -79.316406 134 -59.140625 C 134 -56.367188 133.921875 -54.519531 133.765625 -53.59375 Z M 48.984375 -76.234375 L 94.03125 -76.234375 C 93.101562 -82.398438 90.675781 -87.140625 86.75 -90.453125 C 82.820312 -93.765625 77.78125 -95.421875 71.625 -95.421875 C 64.84375 -95.421875 59.445312 -93.644531 55.4375 -90.09375 C 51.4375 -86.550781 49.285156 -81.929688 48.984375 -76.234375 Z M 48.984375 -76.234375 "/></g></g></g><g fill="#000000" fill-opacity="1"><g transform="translate(175.843244, 564.926998)"><g><path d="M 13.859375 0 L 13.859375 -118.515625 L 54.75 -118.515625 L 54.75 -101.421875 L 55.21875 -101.421875 C 55.519531 -102.035156 56.015625 -102.804688 56.703125 -103.734375 C 57.398438 -104.660156 58.90625 -106.273438 61.21875 -108.578125 C 63.53125 -110.890625 65.992188 -112.96875 68.609375 -114.8125 C 71.234375 -116.664062 74.625 -118.320312 78.78125 -119.78125 C 82.9375 -121.25 87.171875 -121.984375 91.484375 -121.984375 C 95.953125 -121.984375 100.34375 -121.363281 104.65625 -120.125 C 108.96875 -118.894531 112.125 -117.664062 114.125 -116.4375 L 117.359375 -114.59375 L 100.265625 -79.9375 C 95.179688 -84.25 88.097656 -86.40625 79.015625 -86.40625 C 74.085938 -86.40625 69.851562 -85.328125 66.3125 -83.171875 C 62.769531 -81.015625 60.265625 -78.394531 58.796875 -75.3125 C 57.335938 -72.238281 56.296875 -69.625 55.671875 -67.46875 C 55.054688 -65.3125 54.75 -63.613281 54.75 -62.375 L 54.75 0 Z M 13.859375 0 "/></g></g></g><g fill="#000000" fill-opacity="1"><g transform="translate(279.3465, 564.926998)"><g><path d="M 40.203125 -49.4375 C 47.585938 -49.4375 53.859375 -46.859375 59.015625 -41.703125 C 64.179688 -36.546875 66.765625 -30.269531 66.765625 -22.875 C 66.765625 -15.632812 64.179688 -9.429688 59.015625 -4.265625 C 53.859375 0.890625 47.585938 3.46875 40.203125 3.46875 C 32.960938 3.46875 26.757812 0.890625 21.59375 -4.265625 C 16.4375 -9.429688 13.859375 -15.632812 13.859375 -22.875 C 13.859375 -30.269531 16.4375 -36.546875 21.59375 -41.703125 C 26.757812 -46.859375 32.960938 -49.4375 40.203125 -49.4375 Z M 40.203125 -49.4375 "/></g></g></g></svg>