<svg xmlns="http://www.w3.org/2000/svg" xmlns:xlink="http://www.w3.org/1999/xlink" width="500" zoomAndPan="magnify" viewBox="0 0 375 374.999991" height="500" preserveAspectRatio="xMidYMid meet" version="1.0"><path stroke-linecap="round" transform="matrix(1.917178, 0, 0, 1.917178, -4.217786, -4.217791)" fill="none" stroke-linejoin="miter" d="M 189.81505 100.000008 C 189.81505 101.469045 189.780412 102.938083 189.707062 104.40712 C 189.63575 105.876158 189.527762 107.341121 189.3831 108.804046 C 189.238437 110.266971 189.059137 111.723783 188.843162 113.178559 C 188.627187 114.633334 188.376575 116.079959 188.089287 117.522509 C 187.804037 118.963022 187.482112 120.397422 187.123512 121.823672 C 186.76695 123.249922 186.37575 124.665985 185.947875 126.07186 C 185.522037 127.479772 185.061562 128.873422 184.566449 130.258922 C 184.071337 131.642385 183.541587 133.013623 182.979237 134.370598 C 182.416887 135.72961 181.821937 137.072323 181.192349 138.400773 C 180.564799 139.729223 179.902612 141.043411 179.209861 142.339261 C 178.517111 143.635111 177.793799 144.914661 177.037886 146.173836 C 176.281974 147.435049 175.495499 148.675886 174.678461 149.898387 C 173.863461 151.120887 173.015861 152.323012 172.141773 153.502724 C 171.265648 154.684474 170.360998 155.841774 169.427823 156.9787 C 168.496686 158.115625 167.537023 159.2281 166.548835 160.316125 C 165.562685 161.406187 164.54801 162.469763 163.508885 163.508888 C 162.46976 164.548013 161.406185 165.562688 160.316122 166.548838 C 159.228097 167.537025 158.115622 168.496688 156.978697 169.427826 C 155.841772 170.361001 154.684472 171.265651 153.502722 172.141776 C 152.323009 173.015863 151.120884 173.863463 149.898384 174.678463 C 148.675884 175.495501 147.435046 176.281976 146.173834 177.037889 C 144.914659 177.793801 143.635109 178.517114 142.339259 179.209864 C 141.043408 179.902614 139.729221 180.564801 138.400771 181.192351 C 137.072321 181.821939 135.729608 182.416889 134.370595 182.979239 C 133.01362 183.541589 131.642383 184.071339 130.25892 184.566452 C 128.87342 185.061564 127.47977 185.522039 126.071857 185.947877 C 124.665982 186.375752 123.24992 186.766952 121.823669 187.123514 C 120.397419 187.482114 118.963019 187.80404 117.522507 188.08929 C 116.079956 188.376577 114.633331 188.62719 113.178556 188.843165 C 111.723781 189.05914 110.266969 189.23844 108.804043 189.383102 C 107.341118 189.527765 105.876156 189.635752 104.407118 189.707065 C 102.93808 189.780415 101.469043 189.815052 100.000005 189.815052 C 98.530968 189.815052 97.06193 189.780415 95.592892 189.707065 C 94.123855 189.635752 92.658892 189.527765 91.195967 189.383102 C 89.733042 189.23844 88.276229 189.05914 86.821454 188.843165 C 85.366679 188.62719 83.920054 188.376577 82.477504 188.08929 C 81.036991 187.80404 79.602591 187.482114 78.176341 187.123514 C 76.750091 186.766952 75.334028 186.375752 73.928153 185.947877 C 72.520241 185.522039 71.12659 185.061564 69.74109 184.566452 C 68.357628 184.071339 66.98639 183.541589 65.629415 182.979239 C 64.270402 182.416889 62.92769 181.821939 61.59924 181.192351 C 60.27079 180.564801 58.956602 179.902614 57.660752 179.209864 C 56.364902 178.517114 55.085352 177.793801 53.826177 177.037889 C 52.564964 176.281976 51.322089 175.495501 50.101626 174.678463 C 48.879126 173.863463 47.677001 173.015863 46.497288 172.141776 C 45.315538 171.265651 44.158238 170.361001 43.021313 169.427826 C 41.884388 168.496688 40.771913 167.537025 39.683888 166.548838 C 38.593825 165.562688 37.53025 164.548013 36.491125 163.508888 C 35.452 162.469763 34.437325 161.406187 33.451175 160.316125 C 32.462987 159.2281 31.503325 158.115625 30.572187 156.9787 C 29.639012 155.841774 28.734362 154.684474 27.858237 153.502724 C 26.984149 152.323012 26.136549 151.120887 25.321549 149.898387 C 24.504512 148.675886 23.718037 147.435049 22.962124 146.173836 C 22.206212 144.914661 21.482899 143.635111 20.790149 142.339261 C 20.097399 141.043411 19.435211 139.729223 18.807661 138.400773 C 18.178074 137.072323 17.583124 135.72961 17.020774 134.370598 C 16.458424 133.013623 15.928674 131.642385 15.433561 130.258922 C 14.938448 128.873422 14.477973 127.479772 14.052136 126.07186 C 13.624261 124.665985 13.233061 123.249922 12.876498 121.823672 C 12.517898 120.397422 12.195973 118.963022 11.910723 117.522509 C 11.623436 116.079959 11.370786 114.633334 11.156848 113.178559 C 10.940873 111.723783 10.761573 110.266971 10.616911 108.804046 C 10.472248 107.341121 10.364261 105.876158 10.292948 104.40712 C 10.219598 102.938083 10.184961 101.469045 10.184961 100.000008 C 10.184961 98.53097 10.219598 97.061932 10.292948 95.592895 C 10.364261 94.123857 10.472248 92.658894 10.616911 91.195969 C 10.761573 89.733044 10.940873 88.276232 11.156848 86.821457 C 11.370786 85.366681 11.623436 83.920056 11.910723 82.477506 C 12.195973 81.036994 12.517898 79.602593 12.876498 78.176343 C 13.233061 76.750093 13.624261 75.334031 14.052136 73.928155 C 14.477973 72.520243 14.938448 71.126593 15.433561 69.741093 C 15.928674 68.35763 16.458424 66.986392 17.020774 65.629417 C 17.583124 64.270405 18.178074 62.927692 18.807661 61.599242 C 19.435211 60.270792 20.097399 58.956604 20.790149 57.660754 C 21.482899 56.364904 22.206212 55.085354 22.962124 53.826179 C 23.718037 52.564966 24.504512 51.322091 25.321549 50.101629 C 26.136549 48.879128 26.984149 47.677003 27.858237 46.497291 C 28.734362 45.315541 29.639012 44.158241 30.572187 43.021316 C 31.503325 41.88439 32.462987 40.771915 33.451175 39.68389 C 34.437325 38.593828 35.452 37.530253 36.491125 36.491128 C 37.53025 35.452002 38.593825 34.437327 39.683888 33.451177 C 40.771913 32.46299 41.884388 31.503327 43.021313 30.57219 C 44.158238 29.639014 45.315538 28.734364 46.497288 27.858239 C 47.677001 26.984152 48.879126 26.136552 50.101626 25.321552 C 51.322089 24.504514 52.564964 23.718039 53.826177 22.962126 C 55.085352 22.206214 56.364902 21.482901 57.660752 20.790151 C 58.956602 20.097401 60.27079 19.435214 61.59924 18.807664 C 62.92769 18.178076 64.270402 17.583126 65.629415 17.020776 C 66.98639 16.458426 68.357628 15.928676 69.74109 15.433563 C 71.12659 14.938451 72.520241 14.477976 73.928153 14.052138 C 75.334028 13.624263 76.750091 13.233063 78.176341 12.876501 C 79.602591 12.517901 81.036991 12.195976 82.477504 11.910726 C 83.920054 11.623438 85.366679 11.370788 86.821454 11.156851 C 88.276229 10.940875 89.733042 10.761575 91.195967 10.616913 C 92.658892 10.47225 94.123855 10.364263 95.592892 10.29295 C 97.06193 10.2196 98.530968 10.184963 100.000005 10.184963 C 101.469043 10.184963 102.93808 10.2196 104.407118 10.29295 C 105.876156 10.364263 107.341118 10.47225 108.804043 10.616913 C 110.266969 10.761575 111.723781 10.940875 113.178556 11.156851 C 114.633331 11.370788 116.079956 11.623438 117.522507 11.910726 C 118.963019 12.195976 120.397419 12.517901 121.823669 12.876501 C 123.24992 13.233063 124.665982 13.624263 126.071857 14.052138 C 127.47977 14.477976 128.87342 14.938451 130.25892 15.433563 C 131.642383 15.928676 133.01362 16.458426 134.370595 17.020776 C 135.729608 17.583126 137.072321 18.178076 138.400771 18.807664 C 139.729221 19.435214 141.043408 20.097401 142.339259 20.790151 C 143.635109 21.482901 144.914659 22.206214 146.173834 22.962126 C 147.435046 23.718039 148.675884 24.504514 149.898384 25.321552 C 151.120884 26.136552 152.323009 26.984152 153.502722 27.858239 C 154.684472 28.734364 155.841772 29.639014 156.978697 30.57219 C 158.115622 31.503327 159.228097 32.46299 160.316122 33.451177 C 161.406185 34.437327 162.46976 35.452002 163.508885 36.491128 C 164.54801 37.530253 165.562685 38.593828 166.548835 39.68389 C 167.537023 40.771915 168.496686 41.88439 169.427823 43.021316 C 170.360998 44.158241 171.265648 45.315541 172.141773 46.497291 C 173.015861 47.677003 173.863461 48.879128 174.678461 50.101629 C 175.495499 51.322091 176.281974 52.564966 177.037886 53.826179 C 177.793799 55.085354 178.517111 56.364904 179.209861 57.660754 C 179.902612 58.956604 180.564799 60.270792 181.192349 61.599242 C 181.821937 62.927692 182.416887 64.270405 182.979237 65.629417 C 183.541587 66.986392 184.071337 68.35763 184.566449 69.741093 C 185.061562 71.126593 185.522037 72.520243 185.947875 73.928155 C 186.37575 75.334031 186.76695 76.750093 187.123512 78.176343 C 187.482112 79.602593 187.804037 81.036994 188.089287 82.477506 C 188.376575 83.920056 188.627187 85.366681 188.843162 86.821457 C 189.059137 88.276232 189.238437 89.733044 189.3831 91.195969 C 189.527762 92.658894 189.63575 94.123857 189.707062 95.592895 C 189.780412 97.061932 189.81505 98.53097 189.81505 100.000008 Z M 189.81505 100.000008 " stroke="#000000" stroke-width="16" stroke-opacity="1" stroke-miterlimit="10"/><path stroke-linecap="round" transform="matrix(1.917178, 0, 0, 1.917178, -4.217786, -4.217791)" fill="none" stroke-linejoin="round" d="M 143.537309 100.000008 L 56.462702 100.000008 " stroke="#000000" stroke-width="20" stroke-opacity="1" stroke-miterlimit="10"/><path stroke-linecap="round" transform="matrix(1.917178, 0, 0, 1.917178, -4.217786, -4.217791)" fill="none" stroke-linejoin="round" d="M 143.537309 100.000008 L 56.462702 100.000008 " stroke="#000000" stroke-width="20" stroke-opacity="1" stroke-miterlimit="10"/></svg>