<svg xmlns="http://www.w3.org/2000/svg" xmlns:xlink="http://www.w3.org/1999/xlink" width="500" zoomAndPan="magnify" viewBox="0 0 375 374.999991" height="500" preserveAspectRatio="xMidYMid meet" version="1.0"><defs><clipPath id="2679631696"><path d="M 10 137 L 367.84375 137 L 367.84375 238.753906 L 10 238.753906 Z M 10 137 " clip-rule="nonzero"/></clipPath><clipPath id="f51bdb7130"><path d="M 7.09375 196 L 15 196 L 15 201 L 7.09375 201 Z M 7.09375 196 " clip-rule="nonzero"/></clipPath><clipPath id="7492e52930"><path d="M 7.09375 177 L 10 177 L 10 180 L 7.09375 180 Z M 7.09375 177 " clip-rule="nonzero"/></clipPath><clipPath id="1838f21b1a"><path d="M 156 136.003906 L 158 136.003906 L 158 138 L 156 138 Z M 156 136.003906 " clip-rule="nonzero"/></clipPath></defs><path fill="#cbdfbd" d="M 135.558594 139.847656 C 135.558594 139.847656 135.523438 139.875 135.5 139.898438 Z M 135.558594 139.847656 " fill-opacity="1" fill-rule="nonzero"/><g clip-path="url(#2679631696)"><path fill="#cbdfbd" d="M 367.574219 229.316406 C 367.171875 229.011719 366.796875 228.746094 366.804688 228.160156 C 366.8125 227.714844 366.601562 227.398438 366.132812 227.273438 C 363.855469 226.667969 361.546875 226.140625 359.3125 225.414062 C 357.890625 224.953125 356.203125 224.902344 355.28125 223.402344 C 354.25 222.992188 353.246094 222.234375 352.105469 223.128906 C 351.78125 223.378906 351.4375 223.660156 351.011719 223.574219 C 349.171875 223.207031 347.339844 222.804688 345.507812 222.414062 C 344.597656 221.433594 343.34375 221.496094 342.167969 221.289062 C 340.648438 221.023438 339.183594 220.460938 337.605469 220.546875 C 337.378906 220.558594 337.070312 220.472656 336.925781 220.316406 C 336.292969 219.617188 335.441406 219.753906 334.648438 219.617188 C 332.722656 219.285156 330.808594 218.808594 328.847656 218.699219 C 328.53125 218.683594 328.183594 218.613281 327.917969 218.453125 C 326.886719 217.8125 325.71875 217.898438 324.59375 217.777344 C 323.945312 217.703125 323.289062 217.71875 322.640625 217.632812 C 320.230469 217.308594 317.894531 216.617188 315.472656 216.378906 C 315.261719 216.355469 314.957031 216.304688 315.109375 215.808594 C 317.988281 216.003906 320.910156 215.84375 323.800781 216.398438 C 324.355469 216.507812 325.046875 216.714844 325.488281 216.5 C 326.375 216.058594 327.160156 216.335938 327.996094 216.457031 C 328.640625 216.550781 329.296875 216.714844 329.902344 216.347656 C 330.011719 216.285156 330.105469 216.082031 330.089844 215.953125 C 330.074219 215.835938 329.878906 215.621094 329.816406 215.640625 C 328.929688 215.902344 328.214844 215.886719 327.925781 214.789062 C 327.808594 214.367188 327.398438 214.171875 326.980469 214.105469 C 326.09375 213.976562 325.199219 213.910156 324.3125 213.789062 C 323.460938 213.664062 322.761719 214.25 321.933594 214.257812 C 320.960938 214.257812 320.800781 213.101562 319.964844 212.929688 C 319.804688 212.894531 319.640625 212.867188 319.488281 212.808594 C 318.097656 212.289062 316.660156 212.070312 315.183594 212.253906 C 314.605469 212.324219 314.050781 212.339844 313.503906 212.078125 C 312.890625 211.785156 312.234375 211.847656 311.578125 211.882812 C 311.007812 211.921875 310.429688 211.933594 309.875 211.839844 C 308.027344 211.515625 306.195312 211.140625 304.359375 210.789062 C 303.476562 210.621094 302.582031 210.335938 301.703125 210.363281 C 299.886719 210.429688 298.207031 209.570312 296.394531 209.679688 C 296.257812 209.683594 296.085938 209.5625 295.976562 209.445312 C 295.875 209.339844 295.789062 209.171875 295.789062 209.027344 C 295.789062 208.761719 295.949219 208.566406 296.246094 208.589844 C 296.570312 208.609375 296.902344 208.625 297.210938 208.71875 C 299.1875 209.296875 301.234375 209.136719 303.246094 209.351562 C 305.671875 209.621094 308.144531 209.460938 310.574219 209.691406 C 312.175781 209.84375 313.789062 209.871094 315.382812 210.378906 C 316.464844 210.714844 317.496094 211.191406 318.59375 211.503906 C 319.222656 211.683594 319.796875 212.085938 320.46875 212.007812 C 321.558594 211.871094 322.574219 212.1875 323.613281 212.375 C 324.746094 212.578125 325.898438 212.777344 327.015625 212.578125 C 328.027344 212.390625 328.972656 212.800781 329.902344 212.707031 C 330.992188 212.597656 332 212.773438 333.054688 212.902344 C 334.992188 213.140625 336.875 213.847656 338.859375 213.644531 C 340.804688 213.441406 342.722656 213.59375 344.644531 213.917969 C 346.054688 214.15625 347.375 213.816406 348.769531 213.058594 C 347.136719 211.976562 345.535156 211.410156 343.863281 211.027344 C 341.074219 210.398438 338.28125 209.785156 335.492188 209.179688 C 334.769531 209.023438 333.867188 208.992188 333.464844 208.429688 C 332.835938 207.550781 331.929688 207.515625 331.097656 207.328125 C 329.1875 206.886719 327.285156 206.433594 325.445312 205.746094 C 324.761719 205.496094 324.03125 205.316406 323.308594 205.214844 C 321.457031 204.96875 319.617188 204.730469 317.945312 203.808594 C 317.820312 203.742188 317.605469 203.691406 317.503906 203.757812 C 316.242188 204.558594 315.363281 203.488281 314.347656 203.113281 C 314.101562 203.019531 314.078125 202.753906 314.136719 202.496094 C 314.179688 202.300781 314.273438 202.226562 314.46875 202.183594 C 315.945312 201.808594 317.410156 201.847656 318.738281 202.609375 C 319.539062 203.066406 320.375 203.382812 321.253906 203.488281 C 322.632812 203.664062 324.023438 203.699219 325.335938 204.226562 C 325.539062 204.304688 325.820312 204.234375 326.058594 204.175781 C 326.171875 204.144531 326.339844 203.972656 326.332031 203.886719 C 326.316406 203.757812 326.1875 203.5625 326.074219 203.527344 C 325.683594 203.410156 325.277344 203.367188 324.882812 203.289062 C 324.285156 203.171875 323.84375 202.804688 323.554688 202.292969 C 323.460938 202.121094 323.511719 201.832031 323.585938 201.621094 C 323.621094 201.519531 323.878906 201.390625 323.972656 201.425781 C 325.003906 201.824219 326.085938 201.332031 327.117188 201.613281 C 327.242188 201.652344 327.457031 201.550781 327.535156 201.441406 C 327.59375 201.355469 327.535156 201.125 327.457031 201.03125 C 327.203125 200.734375 326.511719 200.75 326.589844 200.308594 C 326.714844 199.667969 327.363281 199.90625 327.816406 199.914062 C 328.464844 199.921875 329.101562 200.042969 329.75 200.160156 C 331.546875 200.476562 333.363281 200.664062 335.246094 199.464844 C 333.992188 199.269531 332.960938 199.113281 331.929688 198.945312 C 331.445312 198.867188 330.960938 198.78125 330.484375 198.664062 C 330.089844 198.570312 329.699219 198.449219 329.324219 198.289062 C 328.761719 198.058594 330.058594 197.597656 329.1875 197.265625 C 328.605469 197.042969 328.128906 196.53125 327.636719 196.097656 C 327.492188 195.96875 327.378906 195.644531 327.433594 195.484375 C 327.507812 195.304688 327.773438 195.140625 327.992188 195.082031 C 328.292969 195 328.660156 194.929688 328.941406 195.03125 C 330.140625 195.425781 331.359375 195.082031 332.5625 195.226562 C 333.167969 195.296875 333.710938 195.117188 333.761719 194.339844 C 333.78125 193.933594 334.085938 193.78125 334.429688 193.769531 C 335.167969 193.734375 335.902344 193.683594 336.628906 193.734375 C 338.261719 193.855469 339.882812 194.050781 341.511719 194.1875 C 342.140625 194.238281 342.796875 194.4375 343.386719 193.992188 C 341.597656 192.449219 341.597656 192.433594 339.753906 192 C 339.242188 191.886719 338.835938 191.664062 338.535156 191.265625 C 338.449219 191.152344 338.382812 190.933594 338.433594 190.820312 C 338.484375 190.710938 338.699219 190.601562 338.828125 190.617188 C 339.710938 190.683594 340.515625 191.09375 341.457031 191.011719 C 342.746094 190.914062 344.035156 190.957031 345.335938 191.203125 C 346.042969 191.339844 346.800781 191.246094 347.535156 191.214844 C 347.894531 191.203125 348.148438 190.925781 348.210938 190.601562 C 348.300781 190.125 347.972656 189.824219 347.5625 189.722656 C 347.09375 189.605469 346.589844 189.636719 346.113281 189.550781 C 345.875 189.507812 345.730469 189.320312 345.695312 189.039062 C 345.582031 188.128906 345.816406 187.933594 346.804688 187.753906 C 347.785156 187.566406 348.753906 187.59375 349.726562 187.695312 C 350.554688 187.78125 351.300781 187.632812 351.960938 187.113281 C 351.839844 186.933594 351.789062 186.757812 351.675781 186.6875 C 350.226562 185.792969 348.304688 185.988281 347.03125 184.675781 C 346.988281 184.632812 346.863281 184.636719 346.792969 184.652344 C 345.253906 185 343.941406 184.113281 342.515625 183.84375 C 341.050781 183.570312 339.695312 182.835938 338.398438 182.035156 C 337.605469 181.550781 337.703125 180.765625 337.53125 180.117188 C 337.417969 179.675781 338.042969 179.332031 338.503906 179.15625 C 339.132812 178.925781 339.609375 178.488281 340.136719 178.105469 C 341.101562 177.40625 341.222656 177.117188 340.632812 176.28125 C 340.402344 175.949219 340.027344 175.703125 339.847656 175.351562 C 339.132812 173.949219 338.273438 172.746094 336.679688 172.234375 C 336.5 172.175781 336.507812 171.78125 336.789062 171.664062 C 337.085938 171.542969 337.429688 171.527344 337.515625 171.128906 C 337.1875 170.707031 336.628906 170.804688 336.203125 170.589844 C 335.742188 170.367188 335.117188 170.539062 334.421875 169.898438 C 336.523438 169.855469 338.289062 169.847656 340.046875 169.773438 C 341.261719 169.722656 342.457031 169.535156 343.402344 170.625 C 343.777344 171.058594 344.316406 170.75 344.78125 170.625 C 344.910156 170.589844 345.105469 170.417969 345.105469 170.316406 C 345.097656 170.097656 345.039062 169.753906 344.886719 169.679688 C 343.496094 169.019531 342.097656 168.355469 340.660156 167.785156 C 339.960938 167.511719 339.378906 166.96875 338.40625 167.300781 C 337.75 167.523438 336.859375 167.042969 336.066406 166.933594 C 335.757812 166.890625 335.359375 166.898438 335.117188 167.0625 C 333.917969 167.855469 332.699219 167.777344 331.378906 167.410156 C 330.773438 167.242188 330.082031 167.335938 329.433594 167.378906 C 328.90625 167.417969 328.480469 167.222656 328.035156 167.019531 C 327.621094 166.832031 327.371094 166.582031 327.429688 166.097656 C 327.457031 165.851562 327.515625 165.59375 327.457031 165.367188 C 327.398438 165.160156 327.242188 164.921875 327.058594 164.820312 C 326.742188 164.648438 326.671875 164.972656 326.589844 165.179688 C 326.292969 166.007812 325.765625 166.347656 325.003906 166.199219 C 323.355469 165.867188 321.796875 165.042969 320.023438 165.316406 C 319.90625 164.386719 320.210938 163.71875 320.859375 163.320312 C 321.621094 162.851562 322.503906 162.503906 323.402344 162.734375 C 323.964844 162.878906 324.515625 162.980469 325.085938 162.96875 C 327.765625 162.894531 330.386719 163.550781 333.039062 163.738281 C 333.585938 163.78125 333.960938 163.925781 334.191406 164.4375 C 334.34375 164.753906 334.65625 164.972656 334.949219 164.65625 C 335.613281 163.949219 336.464844 164.0625 337.242188 164.164062 C 339.191406 164.410156 341.160156 164.164062 343.097656 164.566406 C 343.804688 164.71875 344.5625 164.640625 345.300781 164.632812 C 345.71875 164.632812 346.121094 164.503906 346.285156 164.054688 C 346.46875 163.574219 346.46875 163.0625 346.085938 162.6875 C 345.628906 162.230469 345.207031 161.691406 344.476562 161.65625 C 343.8125 161.625 343.179688 161.574219 342.703125 161.003906 C 342.480469 160.738281 342.132812 160.730469 341.800781 160.832031 C 341.246094 161.003906 340.65625 161.09375 340.105469 160.910156 C 338.988281 160.535156 337.84375 160.671875 336.710938 160.617188 C 336.109375 160.585938 335.59375 160.578125 335.210938 161.15625 C 334.890625 161.632812 334.367188 161.597656 333.875 161.53125 C 333.578125 161.488281 333.167969 161.625 333.039062 161.242188 C 332.980469 161.054688 333.117188 160.789062 333.203125 160.574219 C 333.292969 160.34375 333.378906 160.082031 333.132812 159.945312 C 332.816406 159.773438 332.492188 159.910156 332.246094 160.148438 C 332.136719 160.25 332.085938 160.421875 332.050781 160.566406 C 331.972656 160.859375 332.152344 161.273438 331.761719 161.417969 C 331.472656 161.523438 331.128906 161.566406 330.816406 161.53125 C 330.335938 161.480469 329.851562 161.257812 329.375 161.265625 C 328.394531 161.285156 327.535156 161.265625 327.523438 159.953125 C 327.523438 159.824219 327.371094 159.628906 327.242188 159.585938 C 326.410156 159.296875 325.597656 158.796875 324.671875 159.253906 C 324.242188 159.46875 323.816406 159.699219 323.367188 159.886719 C 323.253906 159.929688 323.023438 159.867188 322.949219 159.773438 C 322.878906 159.679688 322.914062 159.46875 322.949219 159.332031 C 323.246094 158.378906 323.433594 158.234375 324.304688 158.273438 C 324.617188 158.285156 324.898438 158.648438 325.230469 158.417969 C 326.605469 157.457031 328.035156 157.832031 329.460938 158.234375 C 329.777344 158.328125 330.117188 158.472656 330.277344 158.09375 C 330.421875 157.753906 330.125 157.484375 329.929688 157.234375 C 329.496094 156.664062 328.929688 156.417969 328.222656 156.492188 C 327.816406 156.535156 327.40625 156.59375 327.011719 156.664062 C 324.761719 157.089844 322.53125 157.074219 320.253906 156.765625 C 318.558594 156.535156 317.066406 156.023438 315.832031 154.917969 C 315.195312 154.347656 314.535156 154.285156 313.820312 154.277344 C 313.257812 154.269531 312.6875 154.414062 312.132812 154.535156 C 310.351562 154.917969 308.582031 154.976562 306.800781 154.492188 C 306.101562 154.296875 305.359375 154.285156 304.617188 154.40625 C 303.066406 154.671875 301.582031 154.066406 300.046875 153.972656 C 299.351562 153.929688 298.695312 153.410156 298.890625 152.464844 C 298.898438 152.472656 298.941406 152.515625 298.941406 152.515625 C 298.941406 152.488281 298.925781 152.464844 298.921875 152.4375 C 298.921875 152.4375 298.90625 152.445312 298.898438 152.453125 C 298.515625 151.867188 298.164062 151.261719 297.730469 150.714844 C 297.46875 150.382812 297.109375 150.578125 296.914062 150.851562 C 296.539062 151.378906 296.613281 151.808594 297.269531 152.183594 C 297.59375 152.367188 297.738281 152.554688 297.84375 152.863281 C 298.011719 153.347656 297.773438 153.679688 297.277344 153.605469 C 296.164062 153.441406 295.820312 153.214844 295.875 152.085938 C 295.941406 150.75 295.703125 150.492188 294.46875 150.289062 C 290.785156 149.667969 287.179688 148.578125 283.445312 148.253906 C 282.875 148.203125 282.585938 148.015625 282.425781 147.441406 C 282.375 147.246094 281.894531 147.128906 281.589844 147.050781 C 281.121094 146.933594 280.625 146.898438 280.15625 146.785156 C 280.046875 146.761719 279.910156 146.558594 279.910156 146.453125 C 279.917969 146.320312 280.0625 146.183594 280.15625 146.070312 C 280.207031 146.011719 280.285156 145.960938 280.355469 145.945312 C 280.515625 145.910156 280.675781 145.875 280.832031 145.867188 C 281.121094 145.859375 281.5625 146.046875 281.523438 145.558594 C 281.503906 145.285156 281.230469 144.871094 280.984375 144.808594 C 279.960938 144.539062 278.914062 144.316406 277.867188 144.1875 C 275.035156 143.835938 272.1875 143.589844 269.359375 143.183594 C 267.339844 142.898438 265.3125 142.738281 263.277344 142.664062 C 261.816406 142.609375 260.316406 142.722656 258.894531 142.441406 C 257.316406 142.140625 255.871094 142.832031 254.328125 142.722656 C 253.132812 142.636719 251.890625 142.96875 250.714844 142.773438 C 248.828125 142.464844 246.988281 142.738281 245.121094 142.804688 C 244.289062 142.832031 243.714844 143.019531 243.410156 143.847656 C 243.207031 144.410156 242.644531 144.433594 242.171875 144.445312 C 239.496094 144.527344 236.820312 144.613281 234.136719 144.613281 C 232.679688 144.613281 231.214844 144.410156 229.757812 144.367188 C 225.683594 144.257812 221.609375 144.160156 217.527344 144.121094 C 216.460938 144.117188 215.421875 144.042969 214.363281 143.890625 C 213.238281 143.734375 212.082031 143.4375 210.957031 143.746094 C 209.234375 144.222656 207.65625 143.777344 205.917969 143.273438 C 208.367188 142.945312 210.726562 143.503906 213.429688 142.839844 C 212.738281 142.628906 212.4375 142.472656 212.132812 142.457031 C 211.238281 142.421875 210.335938 142.472656 209.441406 142.433594 C 207.980469 142.378906 206.507812 142.285156 205.042969 142.183594 C 204.632812 142.152344 204.554688 141.742188 204.84375 141.332031 C 204.972656 141.152344 205.101562 140.972656 205.28125 140.726562 C 204.75 140.566406 204.285156 140.414062 203.816406 140.300781 C 203.671875 140.265625 203.421875 140.285156 203.371094 140.371094 C 203.125 140.769531 202.800781 140.820312 202.355469 140.828125 C 201.179688 140.839844 199.945312 140.335938 198.835938 141.152344 C 198.734375 141.222656 198.511719 141.164062 198.359375 141.121094 C 196.359375 140.589844 194.285156 141.015625 192.273438 140.632812 C 191.960938 140.574219 191.628906 140.617188 191.304688 140.632812 C 189.632812 140.742188 187.972656 141.410156 186.277344 140.710938 C 186.089844 140.632812 185.808594 140.789062 185.578125 140.839844 C 182.910156 141.417969 180.234375 142.160156 177.550781 140.90625 C 177.011719 141.160156 176.320312 140.523438 175.828125 141.296875 C 175.539062 141.742188 174.914062 141.679688 174.472656 141.453125 C 173.910156 141.164062 173.472656 141.257812 172.894531 141.453125 C 172.136719 141.699219 171.328125 141.816406 170.542969 142.015625 C 169.332031 142.328125 168.089844 142.824219 166.742188 142.203125 C 166.113281 141.914062 165.300781 142.03125 164.5625 141.996094 C 163.589844 141.945312 162.566406 142.097656 161.652344 141.84375 C 160.757812 141.589844 160.230469 141.859375 159.753906 142.472656 C 159.472656 142.832031 159.175781 143.089844 158.757812 142.796875 C 158.289062 142.464844 157.707031 142.535156 157.375 142.730469 C 156.617188 143.171875 155.945312 142.6875 155.238281 142.753906 C 154.425781 142.824219 153.609375 142.832031 152.792969 142.851562 C 152.550781 142.851562 152.273438 142.816406 152.230469 142.523438 C 152.117188 141.808594 151.554688 141.945312 151.105469 141.921875 C 149.320312 141.835938 147.523438 141.808594 145.734375 141.691406 C 144.738281 141.628906 143.792969 141.535156 143.109375 142.484375 C 142.847656 142.847656 142.386719 142.839844 141.984375 142.851562 C 141.328125 142.875 140.679688 142.867188 140.023438 142.890625 C 139.429688 142.910156 138.796875 143.054688 138.535156 143.582031 C 138.066406 144.535156 137.425781 144.597656 136.523438 144.339844 C 136.0625 144.210938 135.558594 144.238281 135.054688 143.957031 C 136.753906 142.183594 139.257812 142.960938 141.523438 142.003906 C 139.90625 141.433594 139.863281 140.132812 139.480469 139.066406 C 139.332031 138.640625 139.972656 138.027344 140.390625 138.179688 C 141.160156 138.453125 141.925781 138.664062 142.75 138.714844 C 142.84375 138.714844 142.988281 138.945312 142.992188 139.066406 C 142.992188 139.167969 142.835938 139.347656 142.726562 139.363281 C 142.171875 139.464844 141.582031 139.175781 141.054688 139.515625 C 140.953125 139.578125 140.867188 139.789062 140.886719 139.902344 C 140.910156 140.027344 141.125 140.226562 141.175781 140.207031 C 142.121094 139.773438 143.296875 140.105469 144.132812 139.328125 C 144.398438 139.082031 144.675781 139.015625 145.011719 139.152344 C 147.0625 139.945312 149.007812 138.792969 151.019531 138.835938 C 151.085938 138.835938 151.164062 138.769531 151.222656 138.714844 C 151.410156 138.511719 151.410156 138.265625 151.300781 138.042969 C 151.199219 137.820312 151.007812 137.582031 150.761719 137.804688 C 150.320312 138.195312 149.875 138.632812 149.269531 138.453125 C 148.691406 138.28125 148.1875 138.425781 147.632812 138.488281 C 146.925781 138.578125 146.144531 138.664062 145.710938 137.804688 C 145.632812 137.644531 145.308594 137.523438 145.101562 137.515625 C 143.398438 137.457031 141.6875 137.402344 139.988281 137.414062 C 139.503906 137.414062 139.070312 137.464844 138.574219 137.316406 C 137.714844 137.054688 137.363281 137.421875 137.613281 138.308594 C 138.011719 139.671875 137.816406 139.996094 136.207031 139.902344 C 135.960938 139.890625 135.71875 139.882812 135.480469 139.867188 C 135.140625 140.257812 134.671875 140.300781 134.21875 140.257812 C 133.539062 140.191406 133.65625 139.570312 133.53125 139.140625 C 133.421875 138.742188 133.136719 138.671875 132.789062 138.675781 C 131.828125 138.691406 130.886719 138.886719 129.933594 138.402344 C 128.714844 137.785156 127.820312 138.316406 127.617188 139.679688 C 127.554688 140.132812 127.464844 140.460938 126.992188 140.558594 C 126.671875 140.625 126.335938 140.640625 126.03125 140.746094 C 125.410156 140.972656 125.023438 140.839844 124.582031 140.285156 C 124.089844 139.652344 123.378906 139.023438 122.503906 139.226562 C 121.410156 139.476562 120.203125 139.296875 119.214844 140.027344 C 118.34375 140.667969 117.363281 140.742188 116.460938 140.164062 C 115.667969 139.660156 114.976562 139.875 114.152344 140.039062 C 112.683594 140.34375 111.269531 140.8125 109.691406 140.789062 C 108.355469 140.777344 106.941406 141 105.578125 141.222656 C 105.144531 141.296875 104.894531 141.578125 104.648438 141.886719 C 103.828125 141.964844 103.027344 141.902344 102.3125 141.425781 C 101.28125 140.746094 100.265625 141.222656 99.253906 141.476562 C 99.117188 141.511719 98.988281 141.664062 98.90625 141.792969 C 98.546875 142.378906 98.792969 143.445312 99.40625 143.734375 C 99.824219 143.933594 100.3125 143.976562 100.839844 144.117188 C 100.0625 144.265625 99.347656 144.433594 98.621094 144.527344 C 98.207031 144.578125 97.804688 144.46875 97.660156 143.984375 C 97.589844 143.753906 97.589844 143.472656 97.453125 143.300781 C 97.257812 143.054688 96.757812 142.898438 96.746094 142.6875 C 96.722656 142.21875 97.34375 142.304688 97.589844 142.023438 C 97.675781 141.921875 97.761719 141.726562 97.726562 141.628906 C 97.683594 141.519531 97.488281 141.417969 97.359375 141.417969 C 97.03125 141.417969 96.695312 141.441406 96.382812 141.519531 C 95.671875 141.714844 94.933594 141.996094 94.21875 141.742188 C 92.851562 141.257812 91.488281 141.519531 90.117188 141.632812 C 89.574219 141.679688 88.871094 141.519531 88.652344 142.226562 C 88.5 142.722656 89.230469 142.710938 89.359375 143.070312 C 89.4375 143.277344 89.359375 143.546875 89.402344 143.777344 C 89.425781 143.914062 89.519531 144.128906 89.621094 144.152344 C 90.167969 144.28125 90.738281 144.484375 91.285156 144.179688 C 91.507812 144.058594 91.644531 143.8125 91.550781 143.566406 C 91.429688 143.242188 90.945312 142.746094 91.8125 142.933594 C 92.46875 143.070312 93.296875 143.003906 93.578125 143.933594 C 93.664062 144.210938 94.03125 144.390625 94.234375 144.640625 C 94.539062 145.023438 94.78125 144.765625 95.042969 144.597656 C 95.25 144.46875 95.53125 144.28125 95.691406 144.503906 C 95.972656 144.878906 95.578125 145.066406 95.339844 145.246094 C 95.152344 145.390625 94.933594 145.515625 94.710938 145.601562 C 93 146.285156 91.335938 146.640625 89.511719 145.796875 C 88.875 145.5 88.039062 145.472656 87.535156 144.960938 C 86.957031 144.382812 87.230469 143.597656 87.464844 142.890625 C 87.484375 142.816406 87.484375 142.730469 87.484375 142.644531 C 87.484375 142.097656 86.945312 141.398438 86.453125 141.484375 C 85.164062 141.707031 83.863281 141.339844 82.566406 141.671875 C 80.445312 142.203125 78.273438 142.476562 76.074219 142.355469 C 75.628906 142.328125 75.511719 142.671875 75.492188 142.976562 C 75.457031 143.464844 75.519531 143.941406 76.089844 144.1875 C 76.679688 144.441406 77.242188 144.773438 77.835938 145.039062 C 78.382812 145.285156 78.644531 145.054688 78.671875 144.339844 C 78.714844 143.140625 78.917969 142.976562 80.085938 143.308594 C 80.386719 143.394531 80.597656 143.601562 80.964844 143.410156 C 82.355469 142.664062 83.777344 143.183594 85.183594 143.378906 C 85.507812 143.421875 85.582031 143.695312 85.4375 143.921875 C 84.988281 144.640625 85.636719 144.726562 86.019531 144.921875 C 86.207031 145.015625 86.582031 144.851562 86.699219 144.972656 C 86.972656 145.269531 86.714844 145.527344 86.519531 145.808594 C 85.992188 146.574219 86.222656 147.316406 87.03125 147.332031 C 87.789062 147.347656 88.480469 147.496094 89.171875 147.734375 C 89.664062 147.910156 89.769531 148.542969 89.433594 148.949219 C 89.101562 149.351562 88.6875 149.617188 88.175781 149.609375 C 86.648438 149.597656 85.175781 150.441406 83.597656 149.898438 C 83.042969 149.703125 82.675781 150.621094 82.039062 150.390625 C 80.691406 149.890625 79.480469 150.273438 78.269531 150.859375 C 78.058594 150.960938 77.75 151.054688 77.5625 150.964844 C 76.804688 150.628906 76.34375 150.867188 75.664062 151.335938 C 75.015625 151.78125 73.960938 151.660156 73.082031 151.78125 C 70.019531 152.191406 66.96875 152.691406 63.851562 152.625 C 63.195312 152.609375 62.617188 152.351562 61.941406 152.421875 C 59.351562 152.703125 56.753906 152.886719 54.160156 153.121094 C 52.773438 153.253906 51.382812 153.339844 50.027344 153.589844 C 48.707031 153.835938 47.285156 153.605469 46.082031 154.40625 C 45.960938 154.484375 45.765625 154.441406 45.597656 154.464844 C 42.535156 154.898438 39.46875 155.324219 36.402344 155.769531 C 35.734375 155.871094 35.148438 155.914062 34.601562 155.367188 C 34.371094 155.136719 33.835938 155.335938 33.910156 155.691406 C 34.152344 156.945312 32.761719 157.40625 32.660156 158.503906 C 32.546875 159.765625 31.601562 160.261719 30.488281 160.449219 C 29.429688 160.628906 28.421875 161.46875 27.28125 160.746094 C 26.609375 161.15625 26.113281 160.992188 25.578125 160.421875 C 25.03125 159.84375 24.445312 159.691406 23.78125 160.5 C 23.320312 161.0625 22.980469 160.816406 22.867188 159.960938 C 22.839844 159.734375 22.800781 159.417969 22.65625 159.3125 C 21.769531 158.683594 22.882812 157.78125 22.324219 157.140625 C 22.671875 156.605469 23.261719 157.132812 23.660156 156.835938 C 23.78125 156.75 23.855469 156.597656 24.027344 156.390625 C 23.207031 156.222656 22.433594 155.984375 21.65625 155.929688 C 21.027344 155.878906 20.820312 156.664062 20.277344 156.859375 C 20.125 156.917969 19.960938 156.929688 19.800781 156.960938 C 19.46875 157.023438 19.101562 157.140625 19.152344 157.53125 C 19.21875 158.027344 19.585938 158.171875 20.054688 158.003906 C 20.335938 157.90625 20.507812 158.085938 20.703125 158.214844 C 21.664062 158.847656 21.742188 159.347656 20.882812 160.074219 C 20.105469 160.730469 19.679688 161.5625 19.375 162.492188 C 19.269531 162.816406 19.652344 163.269531 19.839844 163.082031 C 20.625 162.296875 21.367188 163.140625 22.132812 163.082031 C 22.671875 163.039062 23.074219 163.160156 23.589844 162.613281 C 24.4375 161.703125 25.796875 162.074219 26.457031 163.15625 C 26.71875 163.585938 26.496094 164.214844 26.003906 164.335938 C 25.695312 164.417969 25.363281 164.453125 25.046875 164.46875 C 23.90625 164.515625 22.746094 164.445312 21.625 164.632812 C 20.777344 164.777344 20.011719 164.769531 19.28125 164.351562 C 18.71875 164.027344 18.332031 164.242188 18.078125 164.726562 C 17.820312 165.222656 17.53125 165.535156 16.9375 165.289062 C 16.332031 165.035156 15.785156 165.171875 15.394531 165.664062 C 14.933594 166.242188 14.039062 166.304688 13.789062 167.09375 C 12.726562 167.164062 12.332031 168.492188 11.140625 168.425781 C 10.535156 168.398438 10.296875 169.046875 10.730469 169.441406 C 11.394531 170.054688 11.625 170.769531 11.625 171.621094 C 11.625 171.945312 11.617188 172.277344 11.667969 172.59375 C 11.738281 173.035156 11.992188 173.316406 12.488281 173.324219 C 13.082031 173.335938 13.40625 173.085938 13.441406 172.507812 C 13.460938 172.210938 13.132812 171.878906 13.484375 171.621094 C 13.789062 171.390625 14.097656 171.636719 14.40625 171.671875 C 15.5625 171.808594 16.636719 172.148438 17.5 172.960938 C 18.007812 173.4375 18.476562 173.460938 18.996094 172.960938 C 19.195312 172.769531 19.511719 172.855469 19.605469 173.070312 C 19.6875 173.25 19.605469 173.539062 19.507812 173.742188 C 19.210938 174.355469 18.621094 174.347656 18.042969 174.441406 C 17.386719 174.550781 17.355469 174.699219 17.71875 175.191406 C 18.597656 176.386719 18.527344 177.238281 17.464844 178.019531 C 17.226562 178.191406 16.839844 178.164062 16.738281 178.542969 C 17.15625 178.925781 17.8125 178.933594 18.128906 179.46875 C 18.714844 180.457031 19.226562 179.238281 19.78125 179.402344 C 19.933594 179.453125 20.097656 179.511719 20.214844 179.613281 C 20.636719 179.988281 21.070312 180.363281 21.453125 180.789062 C 21.667969 181.023438 21.757812 181.363281 21.574219 181.695312 C 21.273438 182.273438 21.417969 182.65625 22.089844 182.683594 C 22.613281 182.707031 22.988281 183.023438 23.445312 183.183594 C 24.367188 183.5 25.203125 183.40625 25.746094 182.433594 C 25.851562 182.238281 26.039062 182.078125 26.21875 181.941406 C 26.429688 181.78125 26.984375 182.0625 26.976562 182.316406 C 26.96875 182.5625 26.96875 182.8125 26.890625 183.042969 C 26.632812 183.816406 26.191406 184.457031 26.820312 185.382812 C 27.203125 185.945312 26.394531 186.578125 25.585938 186.382812 C 25.277344 186.3125 24.914062 186.09375 24.699219 186.425781 C 24.394531 186.886719 23.898438 186.9375 23.472656 187.167969 C 23.082031 187.386719 23.148438 187.746094 23.652344 188.058594 C 23.976562 188.25 24.453125 188.289062 24.324219 188.851562 C 22.933594 189.375 21.460938 189.125 20.054688 189.152344 C 20.019531 189.425781 19.980469 189.585938 19.976562 189.746094 C 19.933594 190.53125 19.832031 190.644531 19.230469 190.5 C 19.082031 190.464844 18.945312 190.34375 18.792969 190.300781 C 18.308594 190.164062 18.011719 190.34375 18.011719 190.832031 C 18.011719 191.222656 18.121094 191.605469 18.195312 191.996094 C 18.332031 191.996094 18.46875 191.996094 18.589844 191.953125 C 19.398438 191.65625 20.320312 191.511719 20.976562 191.011719 C 22 190.242188 22.746094 191.589844 23.652344 191.171875 C 23.761719 191.121094 23.90625 191.128906 24.035156 191.128906 C 23.496094 192.109375 22.253906 191.597656 21.539062 192.183594 C 21.769531 192.84375 22.679688 193.285156 22.414062 193.882812 C 21.878906 195.09375 22.226562 196.675781 20.871094 197.554688 C 20.566406 197.75 20.226562 198.082031 20.257812 198.671875 C 20.957031 199.539062 21.808594 200.1875 23.113281 199.914062 C 23.695312 199.789062 24.265625 199.871094 24.65625 200.394531 C 24.742188 200.511719 24.808594 200.707031 24.765625 200.816406 C 24.71875 200.921875 24.496094 201.046875 24.394531 201.015625 C 24.011719 200.914062 23.601562 200.503906 23.261719 200.808594 C 22.476562 201.519531 21.605469 201.585938 20.625 201.484375 C 20.328125 201.457031 20.011719 201.6875 19.707031 201.796875 C 19.457031 201.882812 19.296875 202.0625 19.320312 202.320312 C 19.355469 202.734375 19.699219 202.839844 20.027344 202.839844 C 20.429688 202.839844 20.839844 202.785156 21.230469 202.691406 C 22.101562 202.488281 22.960938 202.242188 23.824219 202.035156 C 24.0625 201.976562 24.332031 202.035156 24.402344 202.300781 C 24.488281 202.601562 24.222656 202.71875 24.011719 202.832031 C 23.871094 202.914062 23.726562 203.007812 23.566406 203.042969 C 22.375 203.289062 21.1875 203.578125 19.980469 203.734375 C 19.160156 203.835938 18.382812 204.023438 17.609375 204.304688 C 17.5 204.347656 17.449219 204.550781 17.371094 204.671875 C 17.5 204.753906 17.644531 204.910156 17.761719 204.890625 C 18.707031 204.738281 19.613281 204.296875 20.601562 204.832031 C 20.820312 204.945312 21.230469 204.773438 21.53125 204.671875 C 22.230469 204.441406 22.910156 204.160156 23.609375 203.9375 C 24.777344 203.554688 24.84375 203.582031 25.433594 204.800781 C 25.535156 205.003906 25.535156 205.25 25.609375 205.582031 C 24.589844 205.738281 23.730469 206.035156 23.011719 206.820312 C 22.261719 207.636719 21.085938 207.652344 20.039062 207.542969 C 19.519531 207.484375 19.03125 206.910156 18.453125 207.296875 C 17.617188 207.859375 18.527344 208.453125 18.480469 209.035156 C 18.460938 209.359375 18.480469 209.691406 18.511719 210.015625 C 18.546875 210.550781 18.921875 210.664062 19.363281 210.644531 C 19.6875 210.628906 20.011719 210.578125 20.328125 210.507812 C 22.78125 209.988281 25.21875 209.375 27.757812 209.410156 C 29.300781 209.433594 30.835938 209.398438 32.378906 209.390625 C 32.453125 209.390625 32.546875 209.417969 32.59375 209.46875 C 32.652344 209.519531 32.667969 209.613281 32.695312 209.691406 C 32.175781 210.78125 32.171875 210.839844 31.1875 210.714844 C 30.539062 210.636719 29.914062 210.6875 29.789062 211.320312 C 29.507812 212.726562 28.757812 213.832031 27.757812 214.796875 C 28.328125 215.390625 28.960938 215.671875 29.582031 215.445312 C 30.769531 215.015625 32.019531 215.28125 33.214844 215.007812 C 33.921875 214.847656 34.664062 214.667969 34.765625 215.859375 C 34.808594 216.390625 35.457031 216.023438 35.8125 216.160156 C 36.101562 216.277344 36.527344 216.253906 36.554688 216.652344 C 36.582031 217.054688 36.207031 217.097656 35.882812 217.179688 C 33.453125 217.761719 31.046875 218.433594 28.492188 218.117188 C 28.21875 218.078125 27.765625 218.238281 27.632812 218.453125 C 26.90625 219.628906 25.824219 219.910156 24.546875 219.910156 C 23.625 219.910156 22.882812 220.214844 22.910156 221.398438 C 23.335938 221.605469 23.847656 221.734375 24.195312 222.054688 C 25.023438 222.804688 25.902344 222.816406 26.882812 222.492188 C 27.34375 222.339844 27.828125 222.277344 28.296875 222.148438 C 29.105469 221.917969 29.890625 221.554688 30.195312 220.742188 C 30.527344 219.855469 31.183594 219.679688 31.933594 219.746094 C 33.425781 219.875 34.808594 219.152344 36.289062 219.246094 C 38.265625 218.367188 40.320312 218.953125 42.347656 218.945312 C 42.765625 218.945312 42.800781 219.304688 42.785156 219.652344 C 42.765625 220.078125 42.691406 220.453125 42.246094 220.652344 C 41.683594 220.898438 40.945312 220.785156 40.535156 221.390625 C 40.875 221.835938 41.300781 221.816406 41.675781 221.765625 C 42.640625 221.636719 43.636719 221.5625 44.546875 221.261719 C 45.953125 220.792969 47.285156 219.902344 48.773438 221.023438 C 50.078125 220.929688 51.375 220.828125 52.679688 220.746094 C 52.925781 220.734375 53.273438 220.394531 53.421875 220.984375 C 51.203125 221.867188 48.84375 222.011719 46.523438 222.296875 C 44.34375 222.574219 42.144531 222.695312 40.132812 223.710938 C 39.632812 223.964844 39.085938 224.347656 38.515625 224.152344 C 37.578125 223.820312 36.757812 224.316406 35.882812 224.402344 C 34.789062 224.511719 34.644531 224.816406 34.941406 225.832031 C 35.191406 226.710938 35.410156 226.777344 36.265625 226.972656 C 37.117188 227.167969 37.816406 226.460938 38.660156 226.734375 C 39.871094 227.128906 41.070312 226.734375 42.257812 226.523438 C 42.375 226.503906 42.460938 226.328125 42.570312 226.222656 C 42.445312 226.128906 42.339844 226 42.203125 225.949219 C 41.878906 225.832031 41.269531 226.15625 41.308594 225.53125 C 41.328125 225.199219 41.847656 225.292969 42.164062 225.253906 C 42.492188 225.21875 42.820312 225.203125 43.140625 225.148438 C 45.964844 224.613281 48.785156 224.308594 51.605469 225.183594 C 51.828125 225.253906 52.105469 225.261719 52.335938 225.210938 C 54.261719 224.824219 56.230469 225.003906 58.167969 224.621094 C 59.753906 224.308594 61.40625 224.347656 63.015625 224.765625 C 63.316406 224.84375 63.699219 224.96875 63.945312 224.859375 C 64.753906 224.503906 65.539062 224.714844 66.339844 224.773438 C 66.527344 224.785156 66.84375 224.613281 66.910156 224.453125 C 67.023438 224.167969 66.722656 224.09375 66.5 224.035156 C 66.179688 223.957031 65.835938 223.886719 65.914062 223.4375 C 65.972656 223.097656 66.21875 222.859375 66.527344 222.722656 C 66.671875 222.660156 66.835938 222.621094 66.996094 222.617188 C 69.109375 222.527344 71.238281 222.523438 73.34375 222.347656 C 75.109375 222.203125 76.847656 222.210938 78.910156 222.390625 C 77.699219 223.085938 76.695312 222.898438 75.730469 222.902344 C 74.171875 222.925781 72.621094 222.917969 71.105469 223.359375 C 70.796875 223.445312 70.4375 223.472656 70.199219 223.652344 C 69.953125 223.839844 69.503906 223.878906 69.441406 224.417969 C 72.28125 224.28125 75.050781 223.929688 77.785156 224.078125 C 80.613281 224.238281 83.445312 223.839844 86.265625 224.355469 C 84.585938 224.648438 82.898438 224.808594 81.210938 224.980469 C 77.640625 225.34375 74.019531 225.441406 70.523438 226.148438 C 65.554688 227.144531 60.5625 227.835938 55.515625 228.253906 C 54.785156 228.3125 54.035156 228.390625 53.34375 228.59375 C 50.691406 229.378906 47.992188 229.878906 45.230469 230.078125 C 44.472656 230.136719 43.847656 230.1875 43.148438 229.785156 C 42.164062 229.222656 40.953125 229.242188 40.125 229.871094 C 38.933594 230.773438 37.621094 230.679688 36.402344 230.5625 C 35.429688 230.46875 34.660156 230.75 33.820312 230.996094 C 33.425781 231.109375 33.445312 231.441406 33.671875 231.761719 C 33.914062 232.105469 34.191406 232.316406 34.664062 232.308594 C 35.8125 232.285156 36.910156 231.804688 38.070312 231.984375 C 38.726562 232.085938 39.347656 231.984375 39.980469 231.722656 C 40.492188 231.515625 41.089844 231.53125 41.652344 231.457031 C 45.050781 231.015625 48.453125 230.605469 51.851562 230.144531 C 52.976562 229.992188 54.085938 229.734375 55.226562 229.640625 C 57.742188 229.429688 60.261719 229.179688 62.753906 228.804688 C 68.164062 227.996094 73.574219 227.304688 79.03125 227 C 80.25 226.929688 81.476562 226.929688 82.695312 226.921875 C 84.902344 226.898438 87.007812 226.042969 89.230469 226.128906 C 89.527344 226.140625 89.90625 226.085938 90.023438 225.6875 C 90.226562 225.003906 90.78125 224.9375 91.363281 224.84375 C 92.667969 224.628906 93.96875 224.742188 95.273438 224.871094 C 96.238281 224.972656 97.234375 225.183594 98.179688 225.054688 C 100.804688 224.691406 103.386719 224.742188 105.960938 225.378906 C 107.339844 225.71875 108.707031 225.234375 110.078125 225.355469 C 110.734375 225.414062 111.082031 224.929688 111.558594 224.628906 C 112.046875 224.316406 112.648438 224.289062 113.222656 224.390625 C 113.734375 224.484375 113.929688 224.75 113.5625 225.21875 C 113.160156 225.738281 113.339844 226.113281 113.867188 226.378906 C 114.152344 226.53125 114.484375 226.792969 114.753906 226.75 C 116.238281 226.503906 117.628906 227.1875 119.101562 227.066406 C 122.84375 226.753906 126.59375 227.050781 130.34375 227.007812 C 133.351562 226.972656 136.375 227.425781 139.375 226.761719 C 140.007812 226.617188 140.664062 226.609375 141.3125 226.792969 C 143.707031 227.460938 146.082031 227.382812 148.503906 226.785156 C 149.894531 226.4375 151.375 226.078125 152.757812 227.074219 C 153.210938 227.40625 153.847656 227.398438 154.417969 227.167969 C 155.652344 226.660156 156.992188 227.238281 158.230469 226.785156 C 158.40625 226.71875 158.773438 226.84375 158.867188 227 C 159.601562 228.109375 160.667969 227.367188 161.570312 227.542969 C 162.59375 226.828125 163.699219 227.167969 164.789062 227.304688 C 165.734375 227.417969 166.714844 227.679688 167.464844 226.71875 C 167.609375 226.53125 168.078125 226.539062 168.394531 226.546875 C 170.332031 226.5625 172.28125 226.128906 174.222656 226.632812 C 174.597656 226.734375 175.027344 226.609375 175.433594 226.605469 C 176.414062 226.589844 177.386719 226.566406 178.367188 226.589844 C 178.851562 226.597656 179.398438 226.566406 179.746094 226.972656 C 180.351562 227.691406 180.667969 227.1875 181.066406 226.75 C 181.304688 226.488281 181.765625 226.375 181.851562 226.777344 C 182.007812 227.484375 182.398438 227.699219 183.035156 227.699219 C 184.332031 227.699219 185.636719 227.9375 186.921875 227.511719 C 187.210938 227.417969 187.605469 227.347656 187.859375 227.460938 C 188.960938 227.972656 190.109375 227.765625 191.242188 227.75 C 193.117188 227.730469 195.019531 227.484375 196.867188 227.691406 C 198.742188 227.910156 200.59375 227.886719 202.453125 227.824219 C 205.058594 227.734375 207.667969 227.78125 210.28125 227.628906 C 213.65625 227.433594 217.058594 228.15625 220.449219 227.535156 C 220.679688 227.492188 220.945312 227.535156 221.167969 227.597656 C 221.984375 227.851562 222.769531 227.722656 223.59375 227.597656 C 224.234375 227.503906 224.898438 227.578125 225.546875 227.585938 C 226.296875 227.59375 226.808594 227.824219 226.757812 228.722656 C 226.738281 229.042969 226.953125 229.359375 227.34375 229.386719 C 228.359375 229.46875 229.324219 229.324219 229.839844 228.320312 C 230.070312 227.875 230.378906 227.648438 230.769531 227.765625 C 232.5625 228.3125 234.332031 227.730469 236.105469 227.699219 C 237.8125 227.679688 239.523438 227.765625 241.238281 227.75 C 244.644531 227.722656 248.039062 227.6875 251.445312 227.585938 C 252.257812 227.5625 253.03125 227.816406 253.875 227.648438 C 255.144531 227.40625 256.527344 227.886719 257.753906 227.382812 C 259.039062 226.855469 260.324219 227.441406 261.589844 227.144531 C 262.390625 226.957031 263.214844 227.023438 263.839844 227.742188 C 264.171875 228.125 264.648438 228.285156 265.160156 228.304688 C 267.273438 228.386719 269.394531 228.4375 271.507812 228.558594 C 272.683594 228.625 273.679688 228.558594 273.65625 227.015625 C 273.65625 226.949219 273.722656 226.855469 273.78125 226.835938 C 273.921875 226.777344 274.089844 226.710938 274.242188 226.726562 C 274.386719 226.75 274.628906 226.847656 274.636719 226.941406 C 274.695312 227.410156 274.703125 227.894531 274.722656 228.429688 C 275.921875 228.796875 277.113281 228.933594 278.351562 228.839844 C 280.234375 228.703125 282.09375 228.796875 283.96875 229.054688 C 286.464844 229.402344 288.960938 229.71875 291.511719 229.683594 C 293.1875 229.660156 294.910156 229.914062 296.605469 230.28125 C 298.488281 230.691406 300.425781 231.109375 302.402344 230.828125 C 303.875 230.621094 305.316406 230.910156 306.746094 231.199219 C 307.132812 231.277344 307.539062 231.492188 307.925781 231.390625 C 309.890625 230.902344 311.707031 232.265625 313.660156 231.796875 C 315.660156 232.53125 317.773438 232.605469 319.847656 232.890625 C 322.835938 233.304688 325.828125 233.722656 328.828125 233.980469 C 330.78125 234.148438 332.730469 234.335938 334.65625 234.695312 C 335.9375 234.933594 337.234375 235.128906 338.527344 235.300781 C 341.671875 235.71875 344.816406 236.1875 347.96875 236.484375 C 350.972656 236.773438 353.789062 237.96875 356.789062 238.207031 C 357.726562 238.28125 358.597656 238.9375 359.59375 238.546875 C 359.109375 237.207031 357.78125 237.839844 356.925781 237.398438 C 356.414062 237.140625 355.921875 236.800781 355.335938 236.808594 C 352.359375 236.835938 349.667969 235.4375 346.75 235.097656 C 345.625 234.96875 344.519531 234.710938 343.367188 234.675781 C 342.484375 234.644531 341.597656 234.386719 340.742188 234.148438 C 339.253906 233.722656 337.785156 233.324219 336.226562 233.253906 C 334.4375 233.160156 332.628906 233.074219 330.867188 232.75 C 327.542969 232.136719 324.730469 231.8125 321.421875 231.925781 C 320.929688 231.941406 320.460938 231.890625 319.984375 231.695312 C 319.460938 231.484375 318.839844 231.167969 318.347656 231.285156 C 316.4375 231.738281 314.769531 230.050781 312.859375 230.742188 C 312.765625 230.78125 312.585938 230.585938 312.449219 230.5 C 311.785156 230.117188 311.050781 230.035156 310.316406 230.050781 C 309.476562 230.066406 308.726562 229.863281 307.957031 229.546875 C 306.910156 229.121094 305.777344 228.90625 304.695312 228.574219 C 304.464844 228.5 304.265625 228.292969 304.429688 228.011719 C 304.496094 227.894531 304.695312 227.757812 304.789062 227.785156 C 305.914062 228.074219 307.0625 228.03125 308.203125 228.054688 C 308.605469 228.054688 309.089844 228.148438 309.566406 227.570312 C 308.671875 227.332031 307.992188 227.035156 307.285156 226.972656 C 303.140625 226.582031 298.992188 226.222656 294.84375 225.898438 C 292.40625 225.703125 289.957031 225.585938 287.519531 225.421875 C 284.019531 225.183594 280.523438 224.765625 277.019531 224.734375 C 273.519531 224.707031 270.042969 224.152344 266.539062 224.441406 C 266.148438 224.46875 265.730469 224.339844 265.34375 224.238281 C 264.859375 224.117188 264.402344 224.085938 263.898438 224.210938 C 261.878906 224.691406 259.832031 224.238281 257.796875 224.375 C 257.214844 224.410156 256.925781 224.128906 256.773438 223.574219 C 256.679688 223.207031 256.296875 223.035156 256.023438 223.316406 C 254.574219 224.828125 252.996094 224.253906 251.546875 223.472656 C 250.859375 223.105469 250.21875 222.839844 249.492188 222.882812 C 248.367188 222.953125 247.203125 222.609375 246.109375 223.179688 C 245.753906 223.359375 245.316406 223.308594 244.917969 223.121094 C 244.226562 222.796875 243.460938 222.96875 242.761719 222.839844 C 239.804688 222.292969 236.828125 223.785156 233.882812 222.710938 C 233.8125 222.679688 233.71875 222.710938 233.640625 222.722656 C 231.75 223.035156 229.75 222.296875 227.917969 223.464844 C 227.402344 223.796875 226.484375 223.539062 225.757812 223.511719 C 224.308594 223.453125 222.84375 223.214844 221.414062 223.34375 C 219.699219 223.496094 218.003906 223.53125 216.289062 223.472656 C 214.621094 222.40625 212.976562 223.785156 211.289062 223.511719 C 209.105469 223.15625 206.875 223.292969 204.683594 223.566406 C 202.210938 223.871094 199.910156 222.722656 197.472656 222.839844 C 197.109375 222.855469 196.734375 222.542969 196.367188 222.386719 C 195.871094 222.167969 195.417969 222.175781 195.0625 222.660156 C 194.730469 223.105469 194.253906 223.105469 193.757812 223.164062 C 192.699219 223.285156 191.644531 223.273438 190.578125 223.191406 C 189.222656 223.089844 187.867188 222.617188 186.480469 223.148438 C 186.070312 223.308594 185.6875 222.992188 185.550781 222.558594 C 185.484375 222.355469 185.449219 222.015625 185.558594 221.894531 C 185.851562 221.570312 186.351562 221.441406 186.652344 221.742188 C 187.273438 222.371094 187.785156 222.140625 188.363281 221.730469 C 188.558594 221.589844 188.816406 221.410156 189.019531 221.433594 C 190.757812 221.671875 192.410156 220.964844 194.074219 220.957031 C 195.53125 220.949219 196.972656 220.878906 198.417969 220.792969 C 202.324219 220.554688 206.21875 221.09375 210.144531 220.785156 C 212.789062 220.574219 215.480469 220.605469 218.125 220.292969 C 219.792969 220.097656 221.328125 220.71875 222.945312 220.703125 C 223.109375 220.703125 223.324219 220.980469 223.433594 221.171875 C 223.679688 221.613281 224.089844 221.648438 224.480469 221.613281 C 225.289062 221.535156 226.261719 221.648438 226.867188 221.238281 C 228.351562 220.230469 230.054688 220.949219 231.554688 220.394531 C 232.796875 220.921875 234.15625 220.378906 235.414062 220.871094 C 236.601562 221.332031 237.921875 221.042969 239.140625 221.460938 C 240.316406 221.867188 241.507812 222.125 242.589844 221.128906 C 242.984375 220.761719 243.519531 220.933594 244.003906 220.949219 C 245.949219 220.992188 247.898438 221.015625 249.84375 221.058594 C 252.296875 221.109375 254.742188 221.128906 257.183594 221.222656 C 259.601562 221.316406 262.03125 220.566406 264.425781 221.410156 C 264.5625 221.460938 264.742188 221.355469 264.910156 221.355469 C 268.003906 221.347656 271.089844 221.289062 274.183594 221.355469 C 275.472656 221.382812 276.78125 221.402344 278.0625 221.773438 C 278.941406 222.023438 279.875 222.609375 280.863281 221.910156 C 281.042969 221.777344 281.496094 221.953125 281.785156 222.074219 C 282.492188 222.378906 283.210938 222.378906 283.957031 222.296875 C 285.015625 222.183594 286.070312 222.246094 287.128906 222.335938 C 289.074219 222.492188 291.03125 222.535156 292.96875 222.679688 C 294.917969 222.816406 296.871094 222.949219 298.804688 223.222656 C 299.9375 223.378906 301.019531 223.597656 302.195312 223.488281 C 303.3125 223.378906 304.5 223.472656 305.597656 223.746094 C 306.894531 224.066406 308.1875 224.074219 309.484375 224.109375 C 311.417969 224.160156 313.386719 223.726562 315.285156 224.460938 C 315.429688 224.519531 315.617188 224.519531 315.765625 224.492188 C 316.746094 224.3125 317.613281 224.265625 318.449219 225.109375 C 318.78125 225.441406 319.589844 225.722656 320.296875 225.429688 C 320.441406 224.945312 319.769531 224.261719 320.621094 223.964844 C 320.914062 223.863281 321.40625 223.839844 321.378906 223.511719 C 321.328125 222.917969 320.785156 223.164062 320.410156 223.140625 C 320.253906 223.136719 320.078125 223.128906 319.933594 223.0625 C 319.691406 222.953125 319.566406 222.722656 319.632812 222.480469 C 319.660156 222.363281 319.890625 222.210938 320.007812 222.226562 C 321.992188 222.5 324.011719 222.40625 325.980469 222.765625 C 329.347656 223.386719 332.84375 223.113281 336.15625 224.1875 C 336.515625 224.304688 336.96875 224.253906 337.359375 224.171875 C 337.785156 224.085938 338.152344 224.160156 338.542969 224.324219 C 340.445312 225.15625 342.507812 225.226562 344.519531 225.515625 C 345.472656 225.652344 346.472656 225.363281 347.269531 226.207031 C 347.441406 226.386719 347.886719 226.359375 348.207031 226.34375 C 349.53125 226.265625 350.808594 226.367188 351.941406 227.195312 C 352.1875 227.367188 352.554688 227.441406 352.863281 227.441406 C 355.09375 227.46875 357.207031 228.097656 359.355469 228.550781 C 361.589844 229.019531 363.832031 229.46875 366.070312 229.914062 C 366.386719 229.980469 366.710938 230.074219 367.027344 230.078125 C 367.257812 230.078125 367.5625 230.035156 367.691406 229.886719 C 367.777344 229.785156 367.691406 229.367188 367.546875 229.265625 Z M 296.171875 227.75 C 296.15625 227.707031 296.351562 227.527344 296.453125 227.527344 C 297.023438 227.511719 297.585938 227.527344 298.15625 227.527344 C 298.875 227.527344 299.621094 227.382812 300.296875 227.722656 C 300.414062 227.78125 300.519531 227.972656 300.519531 228.105469 C 300.519531 228.199219 300.363281 228.355469 300.246094 228.386719 C 298.949219 228.722656 297.6875 228.390625 296.425781 228.109375 C 296.308594 228.082031 296.207031 227.878906 296.164062 227.734375 Z M 277.738281 226.90625 C 277.710938 226.65625 277.855469 226.394531 278.113281 226.394531 C 279.644531 226.386719 281.164062 226.417969 282.679688 226.429688 C 284.640625 226.292969 286.550781 226.9375 288.511719 226.675781 C 288.738281 226.648438 288.988281 226.769531 289.210938 226.863281 C 289.34375 226.921875 289.515625 227.058594 289.53125 227.179688 C 289.542969 227.289062 289.394531 227.519531 289.292969 227.535156 C 287.625 227.824219 285.945312 228.25 284.25 227.859375 C 283.363281 227.648438 282.484375 227.546875 281.605469 227.628906 C 280.371094 227.742188 279.210938 227.332031 278.003906 227.28125 C 277.90625 227.28125 277.753906 227.050781 277.738281 226.914062 Z M 21.667969 170.359375 C 21.667969 170.503906 21.5625 170.75 21.476562 170.769531 C 20.539062 170.949219 19.570312 171.289062 18.664062 171.195312 C 17.660156 171.085938 16.535156 171.203125 15.394531 170.273438 C 16.511719 170.121094 17.4375 169.910156 18.417969 170.316406 C 19.375 170.707031 20.300781 170.085938 21.246094 169.933594 C 21.496094 169.890625 21.691406 170.09375 21.683594 170.367188 Z M 24.621094 181.492188 C 24.589844 181.992188 24.035156 181.832031 23.675781 181.992188 C 23.488281 181.890625 23.261719 181.804688 23.089844 181.660156 C 22.980469 181.574219 22.886719 181.386719 22.902344 181.257812 C 22.917969 181.140625 23.074219 180.96875 23.183594 180.945312 C 23.414062 180.910156 23.660156 180.945312 23.890625 180.988281 C 24.199219 181.054688 24.640625 181.167969 24.625 181.492188 Z M 30.042969 163.4375 C 29.558594 164.410156 28.851562 164.324219 28.238281 164.410156 C 27.914062 164.453125 27.605469 164.402344 27.460938 164.019531 C 27.332031 163.679688 27.699219 163.296875 28.210938 163.3125 C 28.773438 163.328125 29.335938 163.386719 30.050781 163.4375 Z M 32.363281 187.925781 C 32.242188 188.121094 32.089844 188.402344 31.910156 188.4375 C 31.269531 188.5625 30.683594 188.0625 30 188.25 C 29.539062 188.382812 28.917969 188.332031 28.917969 188.980469 C 28.917969 189.808594 27.367188 189.449219 27.785156 190.550781 C 27.792969 190.582031 27.121094 190.964844 26.746094 191.007812 C 25.875 191.113281 24.996094 191.121094 24.121094 191.164062 C 24.019531 190.457031 24.171875 189.933594 25.023438 189.808594 C 25.585938 189.730469 26.148438 189.605469 26.683594 189.417969 C 27.230469 189.226562 27.152344 188.878906 26.769531 188.53125 C 26.589844 188.359375 26.488281 188.058594 26.726562 187.933594 C 27.859375 187.355469 29.335938 187.777344 30.308594 186.707031 C 30.84375 187.226562 31.515625 187.402344 32.214844 187.53125 C 32.402344 187.566406 32.464844 187.769531 32.359375 187.933594 Z M 41.15625 217.605469 C 40.722656 217.871094 40.285156 217.855469 39.84375 217.617188 C 40.277344 217.488281 40.714844 217.242188 41.15625 217.605469 Z M 94.226562 220.804688 C 94.226562 220.703125 94.378906 220.554688 94.496094 220.523438 C 94.710938 220.464844 94.949219 220.464844 95.144531 220.453125 C 95.375 220.511719 95.671875 220.464844 95.632812 220.785156 C 95.605469 221.042969 95.359375 221.128906 95.121094 221.152344 C 94.890625 221.171875 94.652344 221.195312 94.4375 221.144531 C 94.335938 221.121094 94.21875 220.921875 94.21875 220.8125 Z M 97.820312 148.953125 C 96.339844 149.207031 94.804688 149.140625 93.363281 149.609375 C 92.90625 149.753906 92.316406 149.71875 92.007812 149.300781 C 91.636719 148.808594 91.039062 148.722656 90.652344 148.3125 C 90.605469 148.261719 90.621094 148.152344 90.613281 148.066406 C 90.859375 147.589844 91.335938 147.460938 91.789062 147.351562 C 92.417969 147.203125 93.09375 147.1875 93.6875 146.957031 C 95.050781 146.429688 96.21875 147.050781 97.386719 147.527344 C 97.855469 147.722656 97.71875 148.378906 97.828125 148.949219 Z M 109.777344 147.484375 C 109.921875 146.992188 110.367188 146.753906 110.859375 146.753906 C 111.242188 146.753906 111.347656 147.109375 111.339844 147.433594 C 111.335938 147.871094 110.871094 148.148438 110.300781 148.097656 C 109.984375 148.007812 109.667969 147.84375 109.769531 147.484375 Z M 111.808594 142.433594 C 111.796875 142.558594 111.628906 142.664062 111.527344 142.773438 C 111.074219 142.847656 110.683594 142.527344 110.742188 142.097656 C 110.757812 141.972656 110.902344 141.800781 111.015625 141.773438 C 111.449219 141.65625 111.859375 142.003906 111.808594 142.433594 Z M 133.523438 144.996094 C 133.488281 145.414062 133.042969 145.371094 132.761719 145.304688 C 131.9375 145.125 131.136719 145.277344 130.335938 145.414062 C 130.011719 145.464844 129.644531 145.652344 129.378906 145.550781 C 127.300781 144.777344 125.203125 145.867188 123.117188 145.449219 C 122.296875 145.285156 121.445312 145.609375 120.722656 144.726562 C 120.199219 144.085938 119.164062 144.632812 118.371094 144.476562 C 118.035156 145.089844 117.695312 145.703125 117.378906 146.320312 C 117.363281 146.359375 117.570312 146.589844 117.695312 146.601562 C 118.179688 146.648438 118.667969 146.617188 119.152344 146.660156 C 119.253906 146.667969 119.425781 146.871094 119.410156 146.941406 C 119.382812 147.078125 119.253906 147.28125 119.136719 147.304688 C 118.070312 147.535156 117.007812 147.628906 116.351562 146.488281 C 116.085938 146.027344 115.691406 145.816406 115.226562 145.621094 C 114.796875 145.441406 113.835938 145.839844 114.152344 144.734375 C 113.757812 144.699219 113.164062 144.484375 113.007812 144.65625 C 111.816406 145.96875 110.265625 145.789062 108.902344 145.449219 C 107.179688 145.015625 105.703125 145.585938 104.152344 146.003906 C 104.050781 146.035156 103.941406 146.25 103.933594 146.386719 C 103.933594 146.515625 104.042969 146.734375 104.144531 146.753906 C 104.765625 146.914062 105.441406 146.683594 106.046875 147.023438 C 106.222656 147.117188 106.320312 147.1875 106.257812 147.390625 C 106.234375 147.453125 106.199219 147.5625 106.148438 147.570312 C 104.238281 147.894531 102.363281 148.484375 100.394531 148.296875 C 100.039062 148.261719 99.796875 148.074219 99.695312 147.722656 C 99.585938 147.332031 99.515625 146.933594 99.375 146.558594 C 99.234375 146.171875 98.308594 146.097656 98.765625 145.523438 C 99.074219 145.140625 99.671875 145.484375 100.132812 145.636719 C 101.445312 146.078125 102.515625 145.40625 103.558594 144.792969 C 103.804688 144.648438 104.019531 144.289062 104.058594 144.007812 C 104.152344 143.285156 104.367188 142.617188 104.671875 141.960938 C 105.03125 142.285156 105.40625 142.550781 105.941406 142.527344 C 106.507812 142.507812 107.078125 142.578125 107.640625 142.527344 C 108.339844 142.472656 108.644531 142.789062 108.859375 143.421875 C 109.214844 144.445312 109.265625 144.441406 110.179688 144.214844 C 110.339844 144.179688 110.488281 144.042969 110.632812 144.058594 C 112.675781 144.257812 114.628906 143.472656 116.664062 143.523438 C 117.796875 143.554688 117.796875 143.488281 118.011719 142.152344 C 118.027344 142.074219 118.011719 141.988281 118.035156 141.910156 C 118.113281 141.671875 118.273438 141.476562 118.539062 141.496094 C 118.675781 141.511719 118.90625 141.65625 118.90625 141.742188 C 118.933594 142.609375 119.382812 142.703125 120.160156 142.664062 C 122.023438 142.585938 123.890625 142.644531 125.75 142.644531 C 125.996094 142.644531 126.242188 142.617188 126.484375 142.636719 C 127.53125 142.710938 127.566406 142.804688 126.976562 143.890625 C 126.859375 144.101562 126.714844 144.359375 127.042969 144.484375 C 127.242188 144.554688 127.511719 144.519531 127.726562 144.460938 C 127.863281 144.425781 128.015625 144.28125 128.078125 144.152344 C 128.179688 143.933594 128.195312 143.683594 128.28125 143.460938 C 128.65625 142.507812 128.683594 142.472656 129.789062 143.039062 C 130.265625 143.285156 130.710938 143.328125 131.195312 143.265625 C 132.023438 143.15625 132.59375 143.648438 133.136719 144.128906 C 133.351562 144.324219 133.539062 144.699219 133.515625 144.972656 Z M 163.691406 222.292969 C 163.589844 222.585938 163.425781 222.839844 163.019531 222.847656 C 162.589844 222.636719 162.726562 222.226562 162.746094 221.871094 C 162.761719 221.628906 162.914062 221.453125 163.1875 221.449219 C 163.546875 221.449219 163.820312 221.894531 163.691406 222.292969 Z M 182.984375 222.292969 C 182.917969 222.765625 181.828125 223.316406 181.289062 222.925781 C 180.632812 222.449219 180.078125 222.066406 179.390625 222.816406 C 179.347656 222.859375 179.210938 222.882812 179.160156 222.855469 C 177.734375 221.9375 176.363281 222.679688 174.972656 222.96875 C 174.414062 223.085938 173.847656 223.164062 173.3125 222.882812 C 173.261719 222.855469 173.226562 222.765625 173.203125 222.703125 C 173.183594 222.621094 173.175781 222.472656 173.195312 222.464844 C 174.039062 222.203125 174.878906 221.867188 175.742188 221.714844 C 177.097656 221.484375 178.460938 221.261719 179.867188 221.535156 C 180.734375 221.699219 181.640625 221.597656 182.527344 221.664062 C 182.757812 221.679688 182.984375 221.851562 182.984375 222.285156 Z M 275.742188 146.582031 C 275.726562 146.695312 275.566406 146.878906 275.46875 146.882812 C 273.375 146.949219 271.347656 146.597656 268.804688 145.898438 C 271.234375 145.5 273.109375 145.746094 274.976562 145.808594 C 275.1875 145.816406 275.402344 146.019531 275.582031 146.179688 C 275.683594 146.273438 275.761719 146.460938 275.75 146.589844 Z M 278.28125 146.625 C 277.941406 146.8125 277.585938 146.972656 277.269531 147.128906 C 277.160156 147.078125 277.039062 147.058594 277.039062 147.023438 C 277.019531 146.890625 277.003906 146.652344 277.054688 146.632812 C 277.40625 146.480469 277.773438 146.371094 278.144531 146.273438 C 278.1875 146.257812 278.292969 146.34375 278.324219 146.410156 C 278.34375 146.464844 278.324219 146.601562 278.285156 146.625 Z M 322.703125 176.929688 C 322.703125 176.929688 322.8125 176.820312 322.878906 176.804688 C 323.109375 176.761719 323.339844 176.75 323.648438 176.707031 C 323.960938 176.777344 324.339844 176.855469 324.714844 176.957031 C 324.746094 176.964844 324.765625 177.085938 324.765625 177.152344 C 324.765625 177.21875 324.738281 177.320312 324.6875 177.347656 C 324.089844 177.695312 323.476562 177.59375 322.890625 177.324219 C 322.789062 177.273438 322.746094 177.074219 322.703125 176.929688 Z M 319.777344 158.445312 C 319.785156 158.335938 319.964844 158.148438 320.066406 158.148438 C 320.375 158.15625 320.691406 158.214844 320.988281 158.316406 C 321.109375 158.359375 321.21875 158.546875 321.246094 158.683594 C 321.261719 158.742188 321.058594 158.886719 320.9375 158.921875 C 320.785156 158.964844 320.621094 158.921875 320.476562 158.921875 C 320.304688 158.886719 320.117188 158.898438 319.992188 158.8125 C 319.878906 158.742188 319.769531 158.5625 319.777344 158.445312 Z M 318.335938 162.101562 C 318.738281 162.066406 319.488281 162.511719 319.453125 162.816406 C 319.371094 163.4375 319.226562 164.046875 319.097656 164.742188 C 318.117188 164.386719 317.886719 163.679688 317.9375 162.835938 C 317.953125 162.5625 317.84375 162.152344 318.335938 162.109375 Z M 300.851562 198.476562 C 301.464844 198.246094 302.09375 198.132812 302.757812 198.261719 C 303.542969 198.414062 304.34375 198.527344 305.136719 198.671875 C 306.039062 198.832031 306.261719 199.429688 306.132812 200.441406 C 305.402344 199.839844 304.59375 199.992188 303.808594 199.957031 C 302.757812 199.90625 301.71875 199.734375 300.746094 199.308594 C 300.621094 199.257812 300.5 199.097656 300.464844 198.960938 C 300.371094 198.636719 300.652344 198.5625 300.859375 198.484375 Z M 295.582031 159.503906 C 295.582031 159.449219 295.589844 159.398438 295.59375 159.339844 C 297.578125 159.527344 299.570312 159.699219 301.550781 159.910156 C 301.644531 159.917969 301.789062 160.140625 301.78125 160.253906 C 301.78125 160.363281 301.601562 160.535156 301.496094 160.542969 C 299.945312 160.59375 298.472656 160.089844 296.964844 159.828125 C 296.496094 159.75 296.042969 159.621094 295.574219 159.511719 Z M 312.238281 215.632812 C 312.101562 215.683594 311.953125 215.800781 311.820312 215.777344 C 311.382812 215.714844 310.882812 215.964844 310.199219 215.238281 C 311.035156 215.304688 311.488281 215.324219 311.9375 215.382812 C 312.046875 215.398438 312.140625 215.539062 312.238281 215.628906 Z M 312.628906 222.152344 C 312.628906 222.277344 312.515625 222.484375 312.421875 222.5 C 312.039062 222.578125 311.648438 222.59375 311.332031 222.621094 C 311.109375 222.585938 310.949219 222.578125 310.796875 222.542969 C 310.507812 222.464844 310.472656 222.226562 310.523438 221.988281 C 310.550781 221.859375 310.695312 221.648438 310.785156 221.648438 C 311.324219 221.664062 311.863281 221.722656 312.40625 221.800781 C 312.5 221.816406 312.621094 222.023438 312.628906 222.148438 Z M 312.628906 222.152344 " fill-opacity="1" fill-rule="nonzero"/></g><path fill="#cbdfbd" d="M 153.59375 229.691406 C 155.050781 229.675781 156.507812 229.710938 158.535156 229.734375 C 160.246094 229.886719 162.515625 229.667969 164.796875 229.53125 C 168.285156 229.324219 171.789062 229.421875 175.289062 229.410156 C 175.929688 229.410156 176.59375 229.429688 177.222656 229.554688 C 179.953125 230.066406 182.714844 230.035156 185.472656 229.980469 C 187.332031 229.941406 189.164062 229.992188 190.953125 230.578125 C 191.808594 230.851562 192.691406 230.84375 193.589844 230.808594 C 195.054688 230.742188 196.519531 230.75 197.984375 230.757812 C 198.207031 230.757812 198.46875 230.875 198.503906 231.183594 C 198.53125 231.441406 198.472656 231.660156 198.222656 231.78125 C 197.703125 232.035156 197.199219 232.25 196.589844 231.976562 C 196.230469 231.8125 195.785156 231.652344 195.421875 231.722656 C 193.707031 232.070312 192.019531 231.765625 190.308594 231.710938 C 189.257812 231.671875 188.195312 231.625 187.144531 231.882812 C 185.6875 232.242188 184.222656 231.660156 182.757812 231.789062 C 182.441406 231.816406 182.109375 231.710938 181.785156 231.71875 C 180.652344 231.746094 179.515625 231.765625 178.382812 231.839844 C 177.199219 231.917969 176.109375 231.96875 174.925781 231.421875 C 173.945312 230.96875 172.691406 231.082031 171.558594 231.011719 C 170.332031 230.929688 169.109375 230.9375 167.882812 230.902344 C 166.742188 230.867188 165.59375 230.808594 164.457031 230.792969 C 161.519531 230.765625 158.59375 230.757812 155.65625 230.722656 C 154.929688 230.714844 154.199219 230.613281 153.464844 230.585938 C 153.167969 230.570312 152.742188 230.75 152.835938 230.210938 C 152.894531 229.855469 153.277344 229.703125 153.585938 229.699219 Z M 153.59375 229.691406 " fill-opacity="1" fill-rule="nonzero"/><path fill="#cbdfbd" d="M 237.65625 231.226562 C 241.984375 231.253906 246.300781 231.304688 251.890625 231.363281 C 253.476562 231.429688 256.328125 231.535156 259.175781 231.652344 C 261.117188 231.730469 263.0625 231.558594 265.003906 231.824219 C 265.875 231.941406 266.792969 231.765625 267.6875 231.71875 C 268.089844 231.695312 268.523438 231.542969 268.882812 231.644531 C 272.070312 232.546875 275.367188 232.097656 278.589844 232.488281 C 280.609375 232.734375 282.648438 232.847656 284.683594 232.980469 C 286.632812 233.101562 288.585938 233.171875 290.539062 233.265625 C 291.109375 233.296875 291.695312 233.210938 292.214844 233.5 C 292.335938 233.570312 292.457031 233.722656 292.488281 233.867188 C 292.5 233.945312 292.335938 234.148438 292.242188 234.148438 C 291.507812 234.167969 290.757812 234.261719 290.042969 234.148438 C 286.59375 233.59375 283.117188 233.691406 279.648438 233.527344 C 277.210938 233.410156 274.773438 233.210938 272.328125 233.101562 C 267.859375 232.90625 263.378906 232.660156 258.902344 232.605469 C 252.382812 232.515625 245.871094 232.070312 239.34375 232.25 C 238.703125 232.265625 238.023438 232.410156 237.484375 231.898438 C 237.375 231.796875 237.28125 231.609375 237.300781 231.480469 C 237.316406 231.371094 237.519531 231.21875 237.632812 231.21875 Z M 237.65625 231.226562 " fill-opacity="1" fill-rule="nonzero"/><path fill="#cbdfbd" d="M 328.046875 154.550781 C 327.105469 154.824219 326.179688 154.902344 325.179688 154.765625 C 323.734375 154.574219 322.273438 154.617188 320.972656 153.777344 C 320.546875 153.503906 320.042969 153.585938 319.566406 153.792969 C 318.796875 154.140625 318.03125 154.074219 317.195312 153.878906 C 316.265625 153.664062 315.261719 153.734375 314.289062 153.65625 C 313.972656 153.628906 313.597656 153.542969 313.640625 153.109375 C 313.667969 152.8125 313.675781 152.417969 314.058594 152.324219 C 314.382812 152.242188 314.691406 152.164062 314.878906 151.867188 C 315.289062 151.226562 315.601562 151.355469 315.839844 151.992188 C 315.976562 152.34375 316.269531 152.574219 316.589844 152.417969 C 317.613281 151.898438 318.601562 151.925781 319.632812 152.386719 C 319.820312 152.472656 320.128906 152.402344 320.339844 152.308594 C 320.546875 152.214844 320.785156 152.019531 320.84375 151.816406 C 320.902344 151.621094 320.816406 151.253906 320.664062 151.152344 C 320.210938 150.851562 319.691406 150.648438 319.179688 150.398438 C 319.941406 149.460938 320.886719 149.617188 321.847656 149.804688 C 322.257812 149.886719 322.394531 150.171875 322.273438 150.503906 C 321.859375 151.660156 323.109375 151.953125 323.410156 152.742188 C 323.597656 153.214844 324.167969 153.355469 324.652344 153.390625 C 325.691406 153.460938 326.734375 153.492188 327.773438 153.492188 C 328.148438 153.492188 328.4375 153.597656 328.558594 153.910156 C 328.726562 154.339844 328.367188 154.433594 328.046875 154.527344 Z M 328.046875 154.550781 " fill-opacity="1" fill-rule="nonzero"/><path fill="#cbdfbd" d="M 200.039062 231.226562 C 201.84375 231.660156 203.667969 230.222656 205.46875 231.269531 C 205.648438 231.378906 205.953125 231.320312 206.191406 231.292969 C 209.515625 230.953125 212.855469 231.472656 216.179688 231.183594 C 216.929688 231.117188 217.605469 231.269531 218.71875 231.839844 C 218.054688 231.90625 217.816406 231.96875 217.585938 231.949219 C 216.523438 231.855469 215.480469 231.746094 214.585938 232.523438 C 214.484375 232.617188 214.230469 232.699219 214.160156 232.640625 C 212.949219 231.71875 211.867188 232.625 210.734375 232.84375 C 210.257812 232.929688 209.769531 232.957031 209.277344 232.972656 C 208.960938 232.980469 208.535156 233.007812 208.410156 232.675781 C 208.058594 231.722656 207.351562 231.917969 206.636719 232.042969 C 204.402344 232.4375 202.160156 232.429688 199.902344 232.265625 C 199.785156 232.257812 199.636719 232.085938 199.59375 231.960938 C 199.503906 231.71875 199.613281 231.5 199.828125 231.347656 C 199.894531 231.304688 199.972656 231.210938 200.03125 231.226562 Z M 200.039062 231.226562 " fill-opacity="1" fill-rule="nonzero"/><path fill="#cbdfbd" d="M 297.980469 233.902344 C 300.261719 234.023438 302.53125 234.261719 304.8125 234.292969 C 306.535156 234.3125 308.222656 234.492188 309.925781 234.730469 C 311.050781 234.890625 312.160156 235.164062 313.320312 235.15625 C 313.738281 235.15625 314.308594 235.148438 314.632812 235.820312 C 313.984375 236.1875 313.257812 236.324219 312.566406 236.230469 C 311.351562 236.074219 310.113281 236.09375 308.921875 235.894531 C 305.546875 235.324219 302.136719 235.273438 298.738281 235.011719 C 298.496094 234.992188 298.25 234.992188 298.003906 234.976562 C 296.664062 234.910156 295.976562 234.628906 296.214844 234.269531 C 296.667969 233.59375 297.371094 233.859375 297.980469 233.894531 Z M 297.980469 233.902344 " fill-opacity="1" fill-rule="nonzero"/><path fill="#cbdfbd" d="M 109.199219 228.253906 C 112.789062 228.363281 116.382812 228.523438 119.972656 228.628906 C 120.867188 228.660156 121.761719 228.609375 122.65625 228.558594 C 123.3125 228.523438 123.976562 228.5 124.582031 228.773438 C 124.855469 228.898438 125.117188 229.140625 125.289062 229.394531 C 125.410156 229.574219 125.460938 229.871094 125.410156 230.09375 C 125.359375 230.347656 125.078125 230.390625 124.835938 230.367188 C 124.183594 230.3125 123.535156 230.265625 122.886719 230.195312 C 118.027344 229.65625 113.160156 229.242188 108.277344 228.953125 C 108.058594 228.941406 107.851562 228.78125 107.621094 228.679688 C 108.058594 228.074219 108.671875 228.242188 109.199219 228.253906 Z M 109.199219 228.253906 " fill-opacity="1" fill-rule="nonzero"/><g clip-path="url(#f51bdb7130)"><path fill="#cbdfbd" d="M 10.03125 197.058594 C 9.496094 196.820312 9.128906 197.085938 8.746094 197.445312 C 8.199219 197.964844 7.917969 198.636719 7.59375 199.285156 C 7.457031 199.558594 7.722656 199.878906 8.039062 199.941406 C 8.769531 200.09375 9.425781 199.464844 10.152344 199.769531 C 10.550781 200.519531 11.125 200.945312 12.035156 200.914062 C 12.914062 200.894531 13.621094 200.613281 14.074219 199.839844 C 14.183594 199.652344 14.257812 199.34375 14.167969 199.175781 C 14.089844 199.019531 13.789062 198.917969 13.578125 198.902344 C 13.273438 198.882812 12.898438 199.140625 12.683594 198.832031 C 12.460938 198.515625 12.289062 198.125 12.222656 197.742188 C 12.164062 197.402344 12.410156 197.113281 12.800781 197.15625 C 13.023438 197.179688 13.230469 197.359375 13.457031 197.445312 C 13.664062 197.527344 13.9375 197.742188 14.0625 197.410156 C 14.125 197.230469 14.003906 196.964844 13.917969 196.753906 C 13.765625 196.371094 13.585938 196.0625 13.039062 196.214844 C 12.292969 196.414062 11.414062 196.207031 10.894531 197.050781 C 10.699219 197.367188 10.324219 197.1875 10.03125 197.050781 Z M 10.210938 199.746094 C 10.6875 199.457031 11.207031 199.277344 11.761719 199.351562 C 12.007812 199.378906 12.15625 199.625 12.070312 199.890625 C 12.027344 200.015625 11.832031 200.195312 11.746094 200.171875 C 11.226562 200.058594 10.722656 199.898438 10.203125 199.746094 Z M 10.210938 199.746094 " fill-opacity="1" fill-rule="nonzero"/></g><path fill="#cbdfbd" d="M 14.710938 195.023438 C 14.710938 195.023438 14.710938 195 14.710938 194.988281 C 14.726562 194.988281 14.730469 194.988281 14.746094 194.988281 C 14.746094 195 14.738281 195.007812 14.738281 195.023438 C 14.730469 195.023438 14.71875 195.023438 14.710938 195.023438 Z M 14.710938 195.023438 " fill-opacity="1" fill-rule="nonzero"/><path fill="#cbdfbd" d="M 18.199219 192.109375 C 18.199219 192.109375 18.199219 192.109375 18.195312 192.117188 C 18.179688 192.101562 18.15625 192.09375 18.136719 192.082031 C 18.15625 192.082031 18.171875 192.082031 18.195312 192.082031 C 18.195312 192.09375 18.195312 192.101562 18.195312 192.117188 Z M 18.199219 192.109375 " fill-opacity="1" fill-rule="nonzero"/><path fill="#cbdfbd" d="M 20.3125 193.640625 C 20.964844 193.839844 21.214844 195.730469 20.746094 196.171875 C 20.582031 196.328125 20.351562 196.5 20.132812 196.523438 C 19.65625 196.574219 19.175781 196.523438 18.71875 196.523438 C 18.605469 195.902344 19.042969 195.703125 19.238281 195.371094 C 19.371094 195.152344 19.425781 194.878906 19.210938 194.734375 C 19.03125 194.621094 18.707031 194.546875 18.527344 194.632812 C 17.285156 195.21875 16.132812 196.003906 14.773438 196.320312 C 14.285156 195.875 14.625 195.449219 14.730469 195.023438 C 15.238281 194.894531 15.761719 194.9375 16.160156 194.390625 C 16.75 193.574219 17.5 192.867188 18.1875 192.117188 C 18.539062 192.433594 18.914062 192.664062 19.425781 192.65625 C 20.027344 192.65625 19.714844 193.457031 20.308594 193.640625 Z M 20.3125 193.640625 " fill-opacity="1" fill-rule="nonzero"/><path fill="#cbdfbd" d="M 36.273438 152.445312 C 35.820312 152.554688 35.257812 152.445312 34.945312 152.914062 C 34.730469 153.246094 34.535156 153.398438 34.21875 153.066406 C 33.988281 152.820312 33.84375 152.523438 33.921875 152.183594 C 34.117188 151.335938 33.765625 150.851562 32.769531 150.640625 C 32.5 150.585938 32.359375 150.382812 32.359375 150.117188 C 32.359375 149.828125 32.566406 149.710938 32.832031 149.703125 C 32.914062 149.703125 33 149.691406 33.078125 149.691406 C 33.246094 149.683594 33.402344 149.675781 33.808594 149.660156 C 33.894531 149.691406 34.203125 149.761719 34.484375 149.890625 C 35.035156 150.136719 35.550781 150.261719 36.066406 149.796875 C 36.324219 149.558594 36.671875 149.632812 36.996094 149.667969 C 37.730469 149.742188 37.984375 150.101562 37.832031 150.777344 C 37.636719 151.660156 37.167969 152.230469 36.265625 152.453125 Z M 36.273438 152.445312 " fill-opacity="1" fill-rule="nonzero"/><path fill="#cbdfbd" d="M 78.976562 146.140625 C 80.199219 146.410156 81.507812 146.214844 82.675781 146.769531 C 82.789062 146.828125 82.90625 147.015625 82.914062 147.152344 C 82.914062 147.265625 82.78125 147.484375 82.679688 147.496094 C 81.417969 147.699219 80.148438 147.878906 78.835938 148.066406 C 78.722656 148.046875 78.542969 148.066406 78.417969 147.980469 C 78.160156 147.808594 77.878906 147.621094 77.726562 147.359375 C 77.664062 147.246094 77.851562 146.90625 78.007812 146.761719 C 78.296875 146.503906 78.699219 146.085938 78.976562 146.140625 Z M 78.976562 146.140625 " fill-opacity="1" fill-rule="nonzero"/><path fill="#cbdfbd" d="M 11.117188 205.300781 C 10.621094 204.289062 11.445312 203.835938 12 203.308594 C 12.101562 203.214844 12.46875 203.332031 12.664062 203.433594 C 12.886719 203.554688 13.007812 203.835938 12.878906 204.058594 C 12.71875 204.328125 12.453125 204.535156 12.238281 204.765625 C 12.972656 205.34375 13.527344 205.277344 13.910156 204.355469 C 13.988281 204.167969 14.292969 204.046875 14.515625 204.191406 C 14.59375 204.238281 14.609375 204.527344 14.542969 204.621094 C 13.925781 205.421875 14.125 206.042969 14.847656 206.664062 C 15.179688 206.945312 15.007812 207.3125 14.59375 207.320312 C 14.199219 207.320312 13.792969 207.285156 13.390625 207.269531 C 12.667969 207.234375 12.964844 206.859375 13.101562 206.484375 C 13.246094 206.066406 12.980469 205.890625 12.605469 205.878906 C 11.660156 205.839844 10.773438 206.582031 9.761719 206.085938 C 9.957031 205.359375 10.738281 205.660156 11.125 205.300781 Z M 11.117188 205.300781 " fill-opacity="1" fill-rule="nonzero"/><path fill="#cbdfbd" d="M 31.21875 215.945312 C 31.917969 215.632812 32.667969 215.835938 33.394531 215.773438 C 33.632812 215.75 33.863281 215.835938 33.910156 216.132812 C 33.953125 216.429688 33.742188 216.644531 33.527344 216.671875 C 32.566406 216.808594 31.601562 216.890625 30.671875 216.984375 C 29.957031 216.398438 29.40625 217.121094 28.796875 217.105469 C 28.59375 217.105469 28.3125 216.910156 28.234375 216.730469 C 28.125 216.492188 28.339844 216.269531 28.601562 216.304688 C 29.515625 216.433594 30.382812 216.320312 31.226562 215.945312 Z M 31.21875 215.945312 " fill-opacity="1" fill-rule="nonzero"/><path fill="#cbdfbd" d="M 299.324219 151.046875 C 299.949219 151.515625 300.773438 151.378906 301.363281 151.816406 C 302.019531 152.300781 302.578125 151.347656 303.210938 151.746094 C 303.40625 151.867188 303.703125 151.898438 303.679688 152.199219 C 303.671875 152.324219 303.527344 152.472656 303.40625 152.539062 C 302.417969 153.042969 301.453125 153.417969 300.5625 152.308594 C 299.988281 151.585938 299.4375 152.019531 298.933594 152.453125 C 298.863281 152.164062 298.777344 151.875 298.753906 151.578125 C 298.730469 151.203125 299.042969 150.84375 299.316406 151.046875 Z M 299.324219 151.046875 " fill-opacity="1" fill-rule="nonzero"/><path fill="#cbdfbd" d="M 17.769531 162.417969 C 17.097656 162.425781 16.707031 162.144531 16.746094 161.683594 C 16.789062 161.054688 17.277344 160.414062 17.675781 160.449219 C 18.292969 160.515625 19 161.121094 19.015625 161.609375 C 19.039062 162.117188 18.582031 162.40625 17.761719 162.417969 Z M 17.769531 162.417969 " fill-opacity="1" fill-rule="nonzero"/><path fill="#cbdfbd" d="M 12.8125 195.03125 C 12.46875 194.964844 12.199219 194.757812 12.121094 194.433594 C 12.078125 194.238281 12.15625 193.933594 12.292969 193.789062 C 12.554688 193.515625 12.921875 193.59375 13.160156 193.839844 C 13.835938 194.539062 13.59375 193.796875 13.648438 193.539062 C 13.757812 193.054688 14.097656 192.875 14.542969 192.917969 C 14.820312 192.945312 15.382812 193.003906 15.078125 193.40625 C 14.6875 193.925781 14.824219 194.46875 14.71875 194.988281 C 14.089844 195.144531 13.457031 195.140625 12.820312 195.03125 Z M 12.8125 195.03125 " fill-opacity="1" fill-rule="nonzero"/><path fill="#cbdfbd" d="M 317.828125 150.691406 C 316.964844 150.773438 316.164062 150.542969 315.449219 150.050781 C 315.398438 150.015625 315.398438 149.90625 315.378906 149.828125 C 315.492188 149.726562 315.585938 149.566406 315.722656 149.53125 C 316.089844 149.429688 316.597656 149.511719 316.828125 149.285156 C 317.304688 148.832031 317.492188 149.097656 317.699219 149.472656 C 317.851562 149.746094 317.996094 150.035156 318.082031 150.339844 C 318.109375 150.433594 317.929688 150.679688 317.828125 150.691406 Z M 317.828125 150.691406 " fill-opacity="1" fill-rule="nonzero"/><path fill="#cbdfbd" d="M 27.683594 154.226562 C 27.675781 154.371094 27.339844 154.59375 27.144531 154.601562 C 26.957031 154.609375 26.683594 154.433594 26.574219 154.261719 C 26.207031 153.691406 26.269531 153.238281 26.71875 152.835938 C 27.015625 152.566406 27.332031 152.324219 27.648438 152.078125 C 27.683594 152.046875 27.800781 152.121094 27.90625 152.15625 C 28.203125 152.871094 27.734375 153.535156 27.683594 154.226562 Z M 27.683594 154.226562 " fill-opacity="1" fill-rule="nonzero"/><path fill="#cbdfbd" d="M 29.644531 148.390625 C 29.429688 148.480469 29.265625 148.6875 29.054688 148.816406 C 28.722656 149.019531 28.398438 149.328125 27.972656 149.085938 C 27.707031 148.933594 27.972656 147.886719 28.375 147.871094 C 29.21875 147.84375 29.421875 146.976562 30.078125 146.734375 C 30.179688 147.402344 30.53125 148.058594 29.644531 148.398438 Z M 29.644531 148.390625 " fill-opacity="1" fill-rule="nonzero"/><path fill="#cbdfbd" d="M 327.523438 225.386719 C 327.074219 225.261719 326.511719 225.152344 325.992188 224.953125 C 325.839844 224.894531 325.734375 224.542969 325.742188 224.332031 C 325.746094 224.066406 326 223.933594 326.261719 224.027344 C 326.867188 224.246094 327.472656 224.476562 328.0625 224.734375 C 328.164062 224.777344 328.242188 225.015625 328.214844 225.140625 C 328.191406 225.242188 328.003906 225.320312 327.875 225.386719 C 327.808594 225.414062 327.714844 225.386719 327.523438 225.386719 Z M 327.523438 225.386719 " fill-opacity="1" fill-rule="nonzero"/><path fill="#cbdfbd" d="M 337.25 228.277344 C 338.261719 228.480469 339.320312 228.320312 340.511719 228.847656 C 339.015625 229.597656 337.871094 228.746094 336.660156 228.730469 C 336.601562 228.125 336.976562 228.21875 337.257812 228.277344 Z M 337.25 228.277344 " fill-opacity="1" fill-rule="nonzero"/><path fill="#cbdfbd" d="M 70.703125 146.539062 C 70.472656 146.121094 70.167969 145.738281 69.902344 145.335938 C 71.28125 144.691406 71.4375 144.734375 71.660156 145.933594 C 71.734375 146.335938 71.886719 146.667969 72.117188 146.984375 C 71.582031 147.070312 71.050781 147.171875 70.703125 146.539062 Z M 70.703125 146.539062 " fill-opacity="1" fill-rule="nonzero"/><path fill="#cbdfbd" d="M 72.195312 146.972656 L 72.136719 147.027344 C 72.136719 147.027344 72.125 147 72.117188 146.984375 C 72.144531 146.984375 72.175781 146.976562 72.195312 146.972656 Z M 72.195312 146.972656 " fill-opacity="1" fill-rule="nonzero"/><path fill="#cbdfbd" d="M 45.5625 150.828125 C 45.410156 150.792969 45.160156 150.785156 44.976562 150.671875 C 44.582031 150.417969 44.214844 150.121094 43.859375 149.8125 C 43.773438 149.734375 43.730469 149.511719 43.773438 149.394531 C 43.816406 149.285156 43.996094 149.183594 44.132812 149.164062 C 44.804688 149.085938 45.351562 149.472656 45.945312 149.675781 C 46.175781 149.753906 46.382812 149.914062 46.304688 150.171875 C 46.210938 150.492188 45.953125 150.683594 45.554688 150.828125 Z M 45.5625 150.828125 " fill-opacity="1" fill-rule="nonzero"/><path fill="#cbdfbd" d="M 14.488281 181.113281 C 14.539062 180.980469 14.6875 180.886719 14.789062 180.773438 C 14.867188 180.757812 14.984375 180.707031 15.011719 180.742188 C 15.410156 181.234375 15.828125 181.6875 16.425781 181.949219 C 16.449219 181.957031 16.363281 182.453125 16.210938 182.5625 C 15.597656 183 15.207031 182.34375 14.746094 182.148438 C 14.328125 181.976562 14.328125 181.515625 14.488281 181.113281 Z M 14.488281 181.113281 " fill-opacity="1" fill-rule="nonzero"/><path fill="#cbdfbd" d="M 30.484375 153.816406 C 30.203125 153.800781 29.925781 153.492188 29.90625 153.144531 C 29.890625 152.886719 30.085938 152.652344 30.339844 152.703125 C 31.160156 152.886719 31.824219 152.300781 32.777344 152.199219 C 32.335938 153.542969 31.492188 153.867188 30.476562 153.808594 Z M 30.484375 153.816406 " fill-opacity="1" fill-rule="nonzero"/><g clip-path="url(#7492e52930)"><path fill="#cbdfbd" d="M 7.179688 178.082031 C 7.136719 177.976562 7.222656 177.773438 7.3125 177.65625 C 7.476562 177.433594 7.707031 177.457031 7.945312 177.550781 C 8.820312 177.886719 8.730469 178.898438 9.230469 179.511719 C 8.097656 179.539062 7.535156 178.933594 7.179688 178.082031 Z M 7.179688 178.082031 " fill-opacity="1" fill-rule="nonzero"/></g><path fill="#cbdfbd" d="M 245.269531 229.34375 C 245.15625 229 245.464844 228.753906 246.085938 228.746094 C 246.648438 228.738281 247.21875 228.6875 247.707031 229.070312 C 247.507812 229.878906 246.878906 230.007812 246.203125 229.972656 C 245.804688 229.949219 245.414062 229.804688 245.265625 229.34375 Z M 245.269531 229.34375 " fill-opacity="1" fill-rule="nonzero"/><path fill="#cbdfbd" d="M 320.679688 236.859375 C 319.601562 236.988281 318.507812 237.226562 317.253906 236.707031 C 318.277344 236.476562 319.417969 236.527344 320.679688 236.859375 Z M 320.679688 236.859375 " fill-opacity="1" fill-rule="nonzero"/><path fill="#cbdfbd" d="M 73.066406 148.449219 C 72.3125 148.261719 72.058594 147.75 72.1875 147.023438 C 72.570312 147.023438 72.953125 147.007812 73.335938 147.023438 C 73.652344 147.035156 74.027344 147.050781 74.070312 147.46875 C 74.09375 147.683594 74.019531 147.945312 73.910156 148.140625 C 73.730469 148.464844 73.398438 148.527344 73.0625 148.441406 Z M 73.066406 148.449219 " fill-opacity="1" fill-rule="nonzero"/><path fill="#cbdfbd" d="M 72.195312 146.972656 C 72.195312 146.972656 72.195312 147.007812 72.195312 147.027344 C 72.179688 147.027344 72.160156 147.027344 72.144531 147.027344 C 72.144531 147.027344 72.203125 146.972656 72.203125 146.972656 Z M 72.195312 146.972656 " fill-opacity="1" fill-rule="nonzero"/><path fill="#cbdfbd" d="M 134.304688 138.410156 C 134.265625 138.113281 134.5 137.976562 134.730469 137.933594 C 135.039062 137.871094 135.371094 137.855469 135.53125 138.238281 C 135.746094 138.769531 135.617188 139.304688 135.507812 139.832031 C 134.570312 139.832031 134.398438 139.140625 134.304688 138.410156 Z M 134.304688 138.410156 " fill-opacity="1" fill-rule="nonzero"/><path fill="#cbdfbd" d="M 135.515625 139.839844 C 135.515625 139.839844 135.542969 139.847656 135.558594 139.847656 C 135.558594 139.847656 135.5 139.898438 135.5 139.898438 C 135.5 139.875 135.507812 139.851562 135.515625 139.839844 Z M 135.515625 139.839844 " fill-opacity="1" fill-rule="nonzero"/><path fill="#cbdfbd" d="M 323.308594 151.046875 C 323.203125 150.980469 323.101562 150.773438 323.117188 150.640625 C 323.1875 149.949219 323.9375 149.539062 324.523438 149.871094 C 324.636719 149.933594 324.679688 150.128906 324.753906 150.261719 C 324.679688 150.816406 323.765625 151.328125 323.308594 151.046875 Z M 323.308594 151.046875 " fill-opacity="1" fill-rule="nonzero"/><path fill="#cbdfbd" d="M 310.71875 149.386719 C 310.292969 149.300781 309.816406 149.035156 309.6875 148.507812 C 309.621094 148.246094 309.746094 148.054688 309.996094 147.953125 C 310.394531 147.792969 310.777344 147.914062 311.144531 148.054688 C 311.375 148.140625 311.535156 148.304688 311.351562 148.667969 C 311.171875 148.859375 311.1875 149.480469 310.710938 149.378906 Z M 310.71875 149.386719 " fill-opacity="1" fill-rule="nonzero"/><path fill="#cbdfbd" d="M 16.261719 188.011719 C 16.382812 187.558594 16.757812 187.234375 17.21875 187.140625 C 17.464844 187.089844 17.632812 187.3125 17.625 187.59375 C 17.609375 188.230469 17.363281 188.453125 16.773438 188.386719 C 16.535156 188.34375 16.195312 188.238281 16.261719 188.011719 Z M 16.261719 188.011719 " fill-opacity="1" fill-rule="nonzero"/><path fill="#cbdfbd" d="M 332.28125 155.558594 C 332.078125 155.472656 331.855469 155.386719 331.632812 155.292969 C 331.273438 155.128906 330.78125 154.933594 331.070312 154.472656 C 331.277344 154.132812 331.796875 154.167969 332.179688 154.378906 C 332.382812 154.484375 332.554688 154.679688 332.679688 154.875 C 332.75 154.984375 332.734375 155.199219 332.671875 155.324219 C 332.613281 155.429688 332.441406 155.480469 332.289062 155.566406 Z M 332.28125 155.558594 " fill-opacity="1" fill-rule="nonzero"/><path fill="#cbdfbd" d="M 362.109375 231.636719 C 362.347656 231.679688 362.511719 231.917969 362.441406 232.164062 C 362.355469 232.460938 362.066406 232.429688 361.84375 232.351562 C 361.402344 232.191406 360.96875 231.992188 360.496094 231.789062 C 361.050781 231.34375 361.597656 231.542969 362.109375 231.636719 Z M 362.109375 231.636719 " fill-opacity="1" fill-rule="nonzero"/><path fill="#cbdfbd" d="M 153.261719 138.351562 C 152.902344 138.503906 152.679688 138.230469 152.46875 138.015625 C 152.296875 137.832031 152.226562 137.507812 152.457031 137.414062 C 152.851562 137.25 153.300781 137.214844 153.730469 137.15625 C 153.796875 137.148438 153.890625 137.359375 153.96875 137.472656 C 153.832031 137.839844 153.652344 138.195312 153.269531 138.351562 Z M 153.261719 138.351562 " fill-opacity="1" fill-rule="nonzero"/><path fill="#cbdfbd" d="M 20.328125 205.898438 C 20.34375 205.964844 20.3125 206.101562 20.261719 206.121094 C 19.6875 206.390625 19.109375 206.632812 18.574219 206.871094 C 18.433594 206.777344 18.316406 206.742188 18.308594 206.691406 C 18.292969 206.5625 18.28125 206.382812 18.351562 206.296875 C 18.828125 205.703125 19.570312 205.964844 20.167969 205.746094 C 20.207031 205.734375 20.3125 205.839844 20.328125 205.90625 Z M 20.328125 205.898438 " fill-opacity="1" fill-rule="nonzero"/><path fill="#cbdfbd" d="M 325.683594 149.046875 C 325.320312 148.953125 324.859375 148.867188 324.824219 148.390625 C 324.808594 148.152344 325.070312 147.980469 325.335938 147.988281 C 325.769531 147.996094 326.109375 148.152344 326.164062 148.621094 C 326.109375 148.910156 325.933594 149.113281 325.683594 149.046875 Z M 325.683594 149.046875 " fill-opacity="1" fill-rule="nonzero"/><path fill="#cbdfbd" d="M 15.128906 162.347656 C 14.941406 162.433594 14.789062 162.390625 14.738281 162.1875 C 14.679688 161.964844 14.617188 161.726562 14.617188 161.496094 C 14.617188 161.179688 14.644531 160.816406 15.054688 160.765625 C 15.503906 160.710938 15.574219 161.097656 15.625 161.394531 C 15.71875 161.898438 15.511719 162.238281 15.128906 162.355469 Z M 15.128906 162.347656 " fill-opacity="1" fill-rule="nonzero"/><path fill="#cbdfbd" d="M 16.425781 191.410156 C 16.101562 191.519531 15.8125 191.476562 15.691406 191.09375 C 15.667969 191.019531 15.664062 190.90625 15.699219 190.863281 C 16.085938 190.488281 16.527344 190.5 16.988281 190.710938 C 17.039062 190.730469 17.070312 190.820312 17.105469 190.875 C 17.0625 191.296875 16.707031 191.308594 16.417969 191.402344 Z M 16.425781 191.410156 " fill-opacity="1" fill-rule="nonzero"/><path fill="#cbdfbd" d="M 242.925781 229.285156 C 242.914062 228.910156 243.160156 228.71875 243.496094 228.652344 C 243.851562 228.578125 244.21875 228.710938 244.238281 229.054688 C 244.277344 229.574219 243.742188 229.554688 243.425781 229.699219 C 243.128906 229.699219 242.941406 229.5625 242.925781 229.285156 Z M 242.925781 229.285156 " fill-opacity="1" fill-rule="nonzero"/><g clip-path="url(#1838f21b1a)"><path fill="#cbdfbd" d="M 156.652344 136.839844 C 156.550781 136.730469 156.464844 136.558594 156.464844 136.421875 C 156.472656 136.152344 156.675781 136.046875 156.933594 136.015625 C 157.265625 135.980469 157.574219 136.039062 157.820312 136.269531 C 157.921875 136.363281 157.945312 136.535156 158 136.664062 C 157.921875 136.789062 157.863281 136.988281 157.75 137.035156 C 157.359375 137.183594 156.964844 137.183594 156.652344 136.839844 Z M 156.652344 136.839844 " fill-opacity="1" fill-rule="nonzero"/></g><path fill="#cbdfbd" d="M 342.4375 229.199219 C 342.492188 228.867188 342.730469 228.628906 343.078125 228.617188 C 343.429688 228.601562 343.65625 228.8125 343.710938 229.171875 C 343.777344 229.53125 343.582031 229.820312 343.257812 229.847656 C 342.867188 229.886719 342.378906 229.523438 342.429688 229.199219 Z M 342.4375 229.199219 " fill-opacity="1" fill-rule="nonzero"/><path fill="#cbdfbd" d="M 330.644531 225.292969 C 330.679688 225.226562 330.761719 225.160156 330.832031 225.148438 C 330.992188 225.117188 331.15625 225.097656 331.308594 225.125 C 331.558594 225.175781 331.769531 225.335938 331.683594 225.617188 C 331.652344 225.714844 331.417969 225.746094 331.273438 225.8125 C 331.113281 225.765625 330.953125 225.730469 330.804688 225.679688 C 330.609375 225.617188 330.542969 225.472656 330.652344 225.296875 Z M 330.644531 225.292969 " fill-opacity="1" fill-rule="nonzero"/><path fill="#cbdfbd" d="M 225.238281 231.25 C 225.394531 231.363281 225.582031 231.429688 225.621094 231.542969 C 225.648438 231.644531 225.539062 231.882812 225.4375 231.917969 C 225.222656 232 224.96875 232.027344 224.738281 232.011719 C 224.59375 232.003906 224.449219 231.882812 224.3125 231.816406 C 224.402344 231.6875 224.464844 231.515625 224.589844 231.449219 C 224.796875 231.34375 225.035156 231.304688 225.246094 231.25 Z M 225.238281 231.25 " fill-opacity="1" fill-rule="nonzero"/><path fill="#cbdfbd" d="M 25.421875 216.464844 C 25.484375 216.757812 25.507812 217.070312 25.476562 217.371094 C 25.46875 217.464844 25.261719 217.597656 25.140625 217.609375 C 25.039062 217.617188 24.855469 217.488281 24.828125 217.386719 C 24.75 217.089844 24.734375 216.78125 24.699219 216.476562 C 24.777344 216.355469 24.828125 216.183594 24.9375 216.132812 C 25.234375 216.003906 25.371094 216.242188 25.414062 216.464844 Z M 25.421875 216.464844 " fill-opacity="1" fill-rule="nonzero"/><path fill="#cbdfbd" d="M 28.519531 211.804688 C 28.585938 212.058594 28.382812 212.195312 28.015625 212.203125 C 27.914062 212.136719 27.691406 212.058594 27.589844 211.898438 C 27.460938 211.691406 27.863281 211.25 28.117188 211.351562 C 28.289062 211.421875 28.476562 211.625 28.527344 211.804688 Z M 28.519531 211.804688 " fill-opacity="1" fill-rule="nonzero"/><path fill="#cbdfbd" d="M 344.339844 229.609375 C 344.304688 229.566406 344.316406 229.480469 344.3125 229.410156 C 344.410156 229.054688 344.679688 228.90625 345.011719 228.898438 C 345.148438 228.898438 345.347656 228.96875 345.40625 229.070312 C 345.535156 229.292969 345.4375 229.53125 345.191406 229.609375 C 344.917969 229.699219 344.613281 229.949219 344.339844 229.609375 Z M 344.339844 229.609375 " fill-opacity="1" fill-rule="nonzero"/></svg>