<svg xmlns="http://www.w3.org/2000/svg" xmlns:xlink="http://www.w3.org/1999/xlink" width="500" zoomAndPan="magnify" viewBox="0 0 375 374.999991" height="500" preserveAspectRatio="xMidYMid meet" version="1.0"><defs><clipPath id="f5b44ba793"><path d="M 23.875 23.875 L 360.625 23.875 L 360.625 360.625 L 23.875 360.625 Z M 23.875 23.875 " clip-rule="nonzero"/></clipPath><clipPath id="a527ae06cc"><path d="M 14.28125 14.28125 L 352.53125 14.28125 L 352.53125 352.53125 L 14.28125 352.53125 Z M 14.28125 14.28125 " clip-rule="nonzero"/></clipPath></defs><g clip-path="url(#f5b44ba793)"><path fill="#191919" d="M 322.820312 154.410156 L 230.175781 154.410156 L 230.175781 61.765625 C 230.175781 40.871094 213.179688 23.871094 192.285156 23.871094 C 171.390625 23.871094 154.390625 40.871094 154.390625 61.765625 L 154.390625 154.410156 L 61.746094 154.410156 C 40.851562 154.410156 23.855469 171.410156 23.855469 192.300781 C 23.855469 213.199219 40.851562 230.195312 61.746094 230.195312 L 154.390625 230.195312 L 154.390625 322.839844 C 154.390625 343.734375 171.390625 360.738281 192.285156 360.738281 C 213.179688 360.738281 230.175781 343.734375 230.175781 322.839844 L 230.175781 230.195312 L 322.820312 230.195312 C 343.714844 230.195312 360.714844 213.199219 360.714844 192.300781 C 360.714844 171.410156 343.714844 154.410156 322.820312 154.410156 " fill-opacity="1" fill-rule="nonzero"/></g><g clip-path="url(#a527ae06cc)"><path fill="#cfff00" d="M 314.777344 145.496094 L 221.652344 145.496094 L 221.652344 52.367188 C 221.652344 31.367188 204.570312 14.277344 183.566406 14.277344 C 162.5625 14.277344 145.472656 31.367188 145.472656 52.367188 L 145.472656 145.496094 L 52.347656 145.496094 C 31.347656 145.496094 14.261719 162.582031 14.261719 183.582031 C 14.261719 204.585938 31.347656 221.671875 52.347656 221.671875 L 145.472656 221.671875 L 145.472656 314.796875 C 145.472656 335.800781 162.5625 352.890625 183.566406 352.890625 C 204.570312 352.890625 221.652344 335.800781 221.652344 314.796875 L 221.652344 221.671875 L 314.777344 221.671875 C 335.777344 221.671875 352.867188 204.585938 352.867188 183.582031 C 352.867188 162.582031 335.777344 145.496094 314.777344 145.496094 " fill-opacity="1" fill-rule="nonzero"/></g></svg>