<svg xmlns="http://www.w3.org/2000/svg" xmlns:xlink="http://www.w3.org/1999/xlink" width="500" zoomAndPan="magnify" viewBox="0 0 375 112.499997" height="150" preserveAspectRatio="xMidYMid meet" version="1.0"><defs><g/></defs><g fill="#000000" fill-opacity="1"><g transform="translate(7.457942, 45.371312)"><g><path d="M 7.96875 0 L -0.703125 -20.671875 L 4.609375 -20.671875 L 9.828125 -7.09375 L 15.03125 -20.671875 L 20.34375 -20.671875 L 11.671875 0 Z M 7.96875 0 "/></g></g></g><g fill="#000000" fill-opacity="1"><g transform="translate(27.109599, 45.371312)"><g><path d="M 3.953125 -19.140625 C 4.410156 -19.597656 4.957031 -19.828125 5.59375 -19.828125 C 6.226562 -19.828125 6.769531 -19.597656 7.21875 -19.140625 C 7.664062 -18.691406 7.890625 -18.148438 7.890625 -17.515625 C 7.890625 -16.878906 7.664062 -16.335938 7.21875 -15.890625 C 6.769531 -15.441406 6.226562 -15.21875 5.59375 -15.21875 C 4.957031 -15.21875 4.410156 -15.441406 3.953125 -15.890625 C 3.503906 -16.335938 3.28125 -16.878906 3.28125 -17.515625 C 3.28125 -18.148438 3.503906 -18.691406 3.953125 -19.140625 Z M 9.890625 -19.140625 C 10.347656 -19.597656 10.894531 -19.828125 11.53125 -19.828125 C 12.164062 -19.828125 12.707031 -19.597656 13.15625 -19.140625 C 13.601562 -18.691406 13.828125 -18.148438 13.828125 -17.515625 C 13.828125 -16.878906 13.601562 -16.335938 13.15625 -15.890625 C 12.707031 -15.441406 12.164062 -15.21875 11.53125 -15.21875 C 10.894531 -15.21875 10.347656 -15.441406 9.890625 -15.890625 C 9.441406 -16.335938 9.21875 -16.878906 9.21875 -17.515625 C 9.21875 -18.148438 9.441406 -18.691406 9.890625 -19.140625 Z M 2.375 -11.25 C 1.175781 -9.925781 0.578125 -8.3125 0.578125 -6.40625 C 0.578125 -4.507812 1.175781 -2.90625 2.375 -1.59375 C 3.582031 -0.28125 5.113281 0.375 6.96875 0.375 C 8.675781 0.375 10.078125 -0.234375 11.171875 -1.453125 L 11.234375 -1.453125 L 11.234375 0 L 15.609375 0 L 15.609375 -12.859375 L 11.171875 -12.859375 L 11.171875 -11.625 C 10.078125 -12.695312 8.675781 -13.234375 6.96875 -13.234375 C 5.113281 -13.234375 3.582031 -12.570312 2.375 -11.25 Z M 6.109375 -4.25 C 5.554688 -4.8125 5.28125 -5.535156 5.28125 -6.421875 C 5.28125 -7.304688 5.566406 -8.03125 6.140625 -8.59375 C 6.722656 -9.164062 7.441406 -9.453125 8.296875 -9.453125 C 9.128906 -9.453125 9.832031 -9.164062 10.40625 -8.59375 C 10.988281 -8.03125 11.28125 -7.304688 11.28125 -6.421875 C 11.28125 -5.546875 11 -4.820312 10.4375 -4.25 C 9.875 -3.6875 9.160156 -3.40625 8.296875 -3.40625 C 7.390625 -3.40625 6.660156 -3.6875 6.109375 -4.25 Z M 6.109375 -4.25 "/></g></g></g><g fill="#000000" fill-opacity="1"><g transform="translate(44.229593, 45.371312)"><g><path d="M 1.5 0 L 1.5 -21.546875 L 5.9375 -21.546875 L 5.9375 0 Z M 1.5 0 "/></g></g></g><g fill="#000000" fill-opacity="1"><g transform="translate(51.674156, 45.371312)"><g><path d="M 1.921875 -20.015625 C 2.441406 -20.535156 3.0625 -20.796875 3.78125 -20.796875 C 4.5 -20.796875 5.117188 -20.535156 5.640625 -20.015625 C 6.160156 -19.503906 6.421875 -18.890625 6.421875 -18.171875 C 6.421875 -17.453125 6.160156 -16.832031 5.640625 -16.3125 C 5.117188 -15.789062 4.5 -15.53125 3.78125 -15.53125 C 3.0625 -15.53125 2.441406 -15.789062 1.921875 -16.3125 C 1.410156 -16.832031 1.15625 -17.453125 1.15625 -18.171875 C 1.15625 -18.890625 1.410156 -19.503906 1.921875 -20.015625 Z M 1.5 -12.859375 L 1.5 1.125 C 1.5 2.289062 1.09375 2.875 0.28125 2.875 C 0.113281 2.875 -0.0625 2.84375 -0.25 2.78125 C -0.4375 2.726562 -0.585938 2.671875 -0.703125 2.609375 L -0.859375 2.5 L -2.234375 6.09375 C -2.203125 6.101562 -2.09375 6.148438 -1.90625 6.234375 C -1.71875 6.316406 -1.578125 6.378906 -1.484375 6.421875 C -1.398438 6.460938 -1.25 6.515625 -1.03125 6.578125 C -0.8125 6.648438 -0.597656 6.703125 -0.390625 6.734375 C -0.191406 6.773438 0.0507812 6.8125 0.34375 6.84375 C 0.644531 6.875 0.960938 6.890625 1.296875 6.890625 C 2.140625 6.890625 2.878906 6.742188 3.515625 6.453125 C 4.148438 6.160156 4.632812 5.765625 4.96875 5.265625 C 5.300781 4.773438 5.546875 4.257812 5.703125 3.71875 C 5.859375 3.175781 5.9375 2.597656 5.9375 1.984375 L 5.9375 -12.859375 Z M 1.5 -12.859375 "/></g></g></g><g fill="#000000" fill-opacity="1"><g transform="translate(59.11872, 45.371312)"><g/></g></g><g fill="#000000" fill-opacity="1"><g transform="translate(65.961706, 45.371312)"><g><path d="M 14.515625 -5.8125 L 5.1875 -5.8125 C 5.1875 -4.914062 5.476562 -4.25 6.0625 -3.8125 C 6.644531 -3.375 7.28125 -3.15625 7.96875 -3.15625 C 8.6875 -3.15625 9.253906 -3.25 9.671875 -3.4375 C 10.085938 -3.632812 10.566406 -4.019531 11.109375 -4.59375 L 14.3125 -2.984375 C 12.976562 -0.742188 10.753906 0.375 7.640625 0.375 C 5.703125 0.375 4.039062 -0.285156 2.65625 -1.609375 C 1.269531 -2.941406 0.578125 -4.539062 0.578125 -6.40625 C 0.578125 -8.28125 1.269531 -9.882812 2.65625 -11.21875 C 4.039062 -12.5625 5.703125 -13.234375 7.640625 -13.234375 C 9.679688 -13.234375 11.335938 -12.644531 12.609375 -11.46875 C 13.890625 -10.289062 14.53125 -8.609375 14.53125 -6.421875 C 14.53125 -6.117188 14.523438 -5.914062 14.515625 -5.8125 Z M 5.3125 -8.265625 L 10.203125 -8.265625 C 10.097656 -8.929688 9.832031 -9.441406 9.40625 -9.796875 C 8.976562 -10.160156 8.429688 -10.34375 7.765625 -10.34375 C 7.035156 -10.34375 6.453125 -10.148438 6.015625 -9.765625 C 5.578125 -9.390625 5.34375 -8.890625 5.3125 -8.265625 Z M 5.3125 -8.265625 "/></g></g></g><g fill="#000000" fill-opacity="1"><g transform="translate(81.076436, 45.371312)"><g><path d="M 1.5 0 L 1.5 -12.859375 L 5.9375 -12.859375 L 5.9375 -11.5 L 5.984375 -11.5 C 7.140625 -12.65625 8.367188 -13.234375 9.671875 -13.234375 C 10.304688 -13.234375 10.9375 -13.148438 11.5625 -12.984375 C 12.1875 -12.816406 12.785156 -12.554688 13.359375 -12.203125 C 13.941406 -11.847656 14.410156 -11.347656 14.765625 -10.703125 C 15.128906 -10.066406 15.3125 -9.320312 15.3125 -8.46875 L 15.3125 0 L 10.875 0 L 10.875 -7.265625 C 10.875 -7.929688 10.660156 -8.515625 10.234375 -9.015625 C 9.804688 -9.523438 9.253906 -9.78125 8.578125 -9.78125 C 7.898438 -9.78125 7.289062 -9.519531 6.75 -9 C 6.207031 -8.476562 5.9375 -7.898438 5.9375 -7.265625 L 5.9375 0 Z M 1.5 0 "/></g></g></g><g fill="#000000" fill-opacity="1"><g transform="translate(97.644986, 45.371312)"><g/></g></g><g fill="#000000" fill-opacity="1"><g transform="translate(104.487971, 45.371312)"><g><path d="M 2.375 -1.59375 C 1.175781 -2.90625 0.578125 -4.507812 0.578125 -6.40625 C 0.578125 -8.3125 1.175781 -9.925781 2.375 -11.25 C 3.582031 -12.570312 5.113281 -13.234375 6.96875 -13.234375 C 8.675781 -13.234375 10.078125 -12.695312 11.171875 -11.625 L 11.171875 -12.859375 L 15.609375 -12.859375 L 15.609375 0 L 11.234375 0 L 11.234375 -1.453125 L 11.171875 -1.453125 C 10.078125 -0.234375 8.675781 0.375 6.96875 0.375 C 5.113281 0.375 3.582031 -0.28125 2.375 -1.59375 Z M 6.140625 -8.59375 C 5.566406 -8.03125 5.28125 -7.304688 5.28125 -6.421875 C 5.28125 -5.535156 5.554688 -4.8125 6.109375 -4.25 C 6.660156 -3.6875 7.390625 -3.40625 8.296875 -3.40625 C 9.160156 -3.40625 9.875 -3.6875 10.4375 -4.25 C 11 -4.820312 11.28125 -5.546875 11.28125 -6.421875 C 11.28125 -7.304688 10.988281 -8.03125 10.40625 -8.59375 C 9.832031 -9.164062 9.128906 -9.453125 8.296875 -9.453125 C 7.441406 -9.453125 6.722656 -9.164062 6.140625 -8.59375 Z M 6.140625 -8.59375 "/></g></g></g><g fill="#000000" fill-opacity="1"><g transform="translate(121.607966, 45.371312)"><g><path d="M 4.765625 -12.859375 L 7.890625 -5.859375 L 11.03125 -12.859375 L 16.296875 -12.859375 L 9.40625 0 L 6.390625 0 L -0.5 -12.859375 Z M 4.765625 -12.859375 "/></g></g></g><g fill="#000000" fill-opacity="1"><g transform="translate(137.399466, 45.371312)"><g/></g></g><g fill="#000000" fill-opacity="1"><g transform="translate(144.242452, 45.371312)"><g><path d="M 2.375 -1.59375 C 1.175781 -2.90625 0.578125 -4.507812 0.578125 -6.40625 C 0.578125 -8.3125 1.175781 -9.925781 2.375 -11.25 C 3.582031 -12.570312 5.113281 -13.234375 6.96875 -13.234375 C 8.675781 -13.234375 10.078125 -12.695312 11.171875 -11.625 L 11.171875 -21.546875 L 15.609375 -21.546875 L 15.609375 0 L 11.234375 0 L 11.234375 -1.453125 L 11.171875 -1.453125 C 10.078125 -0.234375 8.675781 0.375 6.96875 0.375 C 5.113281 0.375 3.582031 -0.28125 2.375 -1.59375 Z M 6.140625 -8.59375 C 5.566406 -8.03125 5.28125 -7.304688 5.28125 -6.421875 C 5.28125 -5.535156 5.554688 -4.8125 6.109375 -4.25 C 6.660156 -3.6875 7.390625 -3.40625 8.296875 -3.40625 C 9.160156 -3.40625 9.875 -3.6875 10.4375 -4.25 C 11 -4.820312 11.28125 -5.546875 11.28125 -6.421875 C 11.28125 -7.304688 10.988281 -8.03125 10.40625 -8.59375 C 9.832031 -9.164062 9.128906 -9.453125 8.296875 -9.453125 C 7.441406 -9.453125 6.722656 -9.164062 6.140625 -8.59375 Z M 6.140625 -8.59375 "/></g></g></g><g fill="#000000" fill-opacity="1"><g transform="translate(161.362446, 45.371312)"><g><path d="M 14.515625 -5.8125 L 5.1875 -5.8125 C 5.1875 -4.914062 5.476562 -4.25 6.0625 -3.8125 C 6.644531 -3.375 7.28125 -3.15625 7.96875 -3.15625 C 8.6875 -3.15625 9.253906 -3.25 9.671875 -3.4375 C 10.085938 -3.632812 10.566406 -4.019531 11.109375 -4.59375 L 14.3125 -2.984375 C 12.976562 -0.742188 10.753906 0.375 7.640625 0.375 C 5.703125 0.375 4.039062 -0.285156 2.65625 -1.609375 C 1.269531 -2.941406 0.578125 -4.539062 0.578125 -6.40625 C 0.578125 -8.28125 1.269531 -9.882812 2.65625 -11.21875 C 4.039062 -12.5625 5.703125 -13.234375 7.640625 -13.234375 C 9.679688 -13.234375 11.335938 -12.644531 12.609375 -11.46875 C 13.890625 -10.289062 14.53125 -8.609375 14.53125 -6.421875 C 14.53125 -6.117188 14.523438 -5.914062 14.515625 -5.8125 Z M 5.3125 -8.265625 L 10.203125 -8.265625 C 10.097656 -8.929688 9.832031 -9.441406 9.40625 -9.796875 C 8.976562 -10.160156 8.429688 -10.34375 7.765625 -10.34375 C 7.035156 -10.34375 6.453125 -10.148438 6.015625 -9.765625 C 5.578125 -9.390625 5.34375 -8.890625 5.3125 -8.265625 Z M 5.3125 -8.265625 "/></g></g></g><g fill="#000000" fill-opacity="1"><g transform="translate(176.477177, 45.371312)"><g/></g></g><g fill="#000000" fill-opacity="1"><g transform="translate(183.320163, 45.371312)"><g><path d="M 5.140625 -14.71875 L 1.421875 -16.515625 C 1.460938 -16.628906 1.515625 -16.789062 1.578125 -17 C 1.640625 -17.207031 1.835938 -17.570312 2.171875 -18.09375 C 2.515625 -18.613281 2.910156 -19.070312 3.359375 -19.46875 C 3.804688 -19.875 4.460938 -20.238281 5.328125 -20.5625 C 6.203125 -20.882812 7.179688 -21.046875 8.265625 -21.046875 C 10.242188 -21.046875 11.867188 -20.484375 13.140625 -19.359375 C 14.421875 -18.234375 15.0625 -16.789062 15.0625 -15.03125 C 15.0625 -13.394531 14.453125 -12.101562 13.234375 -11.15625 C 14.984375 -10.082031 15.859375 -8.503906 15.859375 -6.421875 C 15.859375 -4.441406 15.132812 -2.8125 13.6875 -1.53125 C 12.25 -0.257812 10.421875 0.375 8.203125 0.375 C 7.015625 0.375 5.9375 0.203125 4.96875 -0.140625 C 4 -0.492188 3.238281 -0.914062 2.6875 -1.40625 C 2.144531 -1.90625 1.691406 -2.40625 1.328125 -2.90625 C 0.972656 -3.40625 0.726562 -3.832031 0.59375 -4.1875 L 0.421875 -4.71875 L 4.78125 -6.84375 C 4.78125 -6.757812 4.789062 -6.644531 4.8125 -6.5 C 4.84375 -6.363281 4.929688 -6.109375 5.078125 -5.734375 C 5.234375 -5.367188 5.421875 -5.046875 5.640625 -4.765625 C 5.859375 -4.492188 6.1875 -4.242188 6.625 -4.015625 C 7.070312 -3.796875 7.585938 -3.6875 8.171875 -3.6875 C 9.054688 -3.6875 9.773438 -3.925781 10.328125 -4.40625 C 10.878906 -4.894531 11.15625 -5.566406 11.15625 -6.421875 C 11.15625 -7.304688 10.863281 -8.03125 10.28125 -8.59375 C 9.707031 -9.164062 9.003906 -9.453125 8.171875 -9.453125 L 7.265625 -9.296875 L 7.265625 -12.375 L 8.296875 -12.375 C 8.941406 -12.375 9.515625 -12.625 10.015625 -13.125 C 10.523438 -13.632812 10.78125 -14.253906 10.78125 -14.984375 C 10.78125 -15.640625 10.523438 -16.179688 10.015625 -16.609375 C 9.503906 -17.046875 8.90625 -17.265625 8.21875 -17.265625 C 7.738281 -17.265625 7.300781 -17.175781 6.90625 -17 C 6.507812 -16.820312 6.207031 -16.609375 6 -16.359375 C 5.789062 -16.109375 5.613281 -15.859375 5.46875 -15.609375 C 5.332031 -15.359375 5.25 -15.148438 5.21875 -14.984375 Z M 5.140625 -14.71875 "/></g></g></g><g fill="#000000" fill-opacity="1"><g transform="translate(199.988976, 45.371312)"><g/></g></g><g fill="#000000" fill-opacity="1"><g transform="translate(206.831962, 45.371312)"><g><path d="M 2.375 -1.59375 C 1.175781 -2.90625 0.578125 -4.507812 0.578125 -6.40625 C 0.578125 -8.3125 1.175781 -9.925781 2.375 -11.25 C 3.582031 -12.570312 5.113281 -13.234375 6.96875 -13.234375 C 8.675781 -13.234375 10.078125 -12.695312 11.171875 -11.625 L 11.171875 -12.859375 L 15.609375 -12.859375 L 15.609375 0 L 11.234375 0 L 11.234375 -1.453125 L 11.171875 -1.453125 C 10.078125 -0.234375 8.675781 0.375 6.96875 0.375 C 5.113281 0.375 3.582031 -0.28125 2.375 -1.59375 Z M 6.140625 -8.59375 C 5.566406 -8.03125 5.28125 -7.304688 5.28125 -6.421875 C 5.28125 -5.535156 5.554688 -4.8125 6.109375 -4.25 C 6.660156 -3.6875 7.390625 -3.40625 8.296875 -3.40625 C 9.160156 -3.40625 9.875 -3.6875 10.4375 -4.25 C 11 -4.820312 11.28125 -5.546875 11.28125 -6.421875 C 11.28125 -7.304688 10.988281 -8.03125 10.40625 -8.59375 C 9.832031 -9.164062 9.128906 -9.453125 8.296875 -9.453125 C 7.441406 -9.453125 6.722656 -9.164062 6.140625 -8.59375 Z M 6.140625 -8.59375 "/></g></g></g><g fill="#000000" fill-opacity="1"><g transform="translate(223.951957, 45.371312)"><g><path d="M 1.5 0 L 1.5 -21.546875 L 5.9375 -21.546875 L 5.9375 0 Z M 1.5 0 "/></g></g></g><g fill="#000000" fill-opacity="1"><g transform="translate(231.39652, 45.371312)"><g><path d="M 2.25 -12.859375 L 2.25 -17.640625 L 6.6875 -17.640625 L 6.6875 -12.859375 L 9.40625 -12.859375 L 9.40625 -9.46875 L 6.6875 -9.46875 L 6.6875 -5.390625 C 6.6875 -4.203125 7.019531 -3.609375 7.6875 -3.609375 C 7.851562 -3.609375 8.03125 -3.640625 8.21875 -3.703125 C 8.40625 -3.773438 8.546875 -3.84375 8.640625 -3.90625 L 8.796875 -4.015625 L 9.90625 -0.421875 C 8.945312 0.109375 7.859375 0.375 6.640625 0.375 C 5.804688 0.375 5.085938 0.226562 4.484375 -0.0625 C 3.878906 -0.351562 3.421875 -0.742188 3.109375 -1.234375 C 2.804688 -1.734375 2.585938 -2.253906 2.453125 -2.796875 C 2.316406 -3.335938 2.25 -3.914062 2.25 -4.53125 L 2.25 -9.46875 L 0.40625 -9.46875 L 0.40625 -12.859375 Z M 2.25 -12.859375 "/></g></g></g><g fill="#000000" fill-opacity="1"><g transform="translate(241.297554, 45.371312)"><g><path d="M 14.515625 -5.8125 L 5.1875 -5.8125 C 5.1875 -4.914062 5.476562 -4.25 6.0625 -3.8125 C 6.644531 -3.375 7.28125 -3.15625 7.96875 -3.15625 C 8.6875 -3.15625 9.253906 -3.25 9.671875 -3.4375 C 10.085938 -3.632812 10.566406 -4.019531 11.109375 -4.59375 L 14.3125 -2.984375 C 12.976562 -0.742188 10.753906 0.375 7.640625 0.375 C 5.703125 0.375 4.039062 -0.285156 2.65625 -1.609375 C 1.269531 -2.941406 0.578125 -4.539062 0.578125 -6.40625 C 0.578125 -8.28125 1.269531 -9.882812 2.65625 -11.21875 C 4.039062 -12.5625 5.703125 -13.234375 7.640625 -13.234375 C 9.679688 -13.234375 11.335938 -12.644531 12.609375 -11.46875 C 13.890625 -10.289062 14.53125 -8.609375 14.53125 -6.421875 C 14.53125 -6.117188 14.523438 -5.914062 14.515625 -5.8125 Z M 5.3125 -8.265625 L 10.203125 -8.265625 C 10.097656 -8.929688 9.832031 -9.441406 9.40625 -9.796875 C 8.976562 -10.160156 8.429688 -10.34375 7.765625 -10.34375 C 7.035156 -10.34375 6.453125 -10.148438 6.015625 -9.765625 C 5.578125 -9.390625 5.34375 -8.890625 5.3125 -8.265625 Z M 5.3125 -8.265625 "/></g></g></g><g fill="#000000" fill-opacity="1"><g transform="translate(256.412271, 45.371312)"><g><path d="M 1.5 0 L 1.5 -12.859375 L 5.9375 -12.859375 L 5.9375 -11 L 5.984375 -11 C 6.023438 -11.070312 6.082031 -11.15625 6.15625 -11.25 C 6.226562 -11.351562 6.390625 -11.53125 6.640625 -11.78125 C 6.890625 -12.03125 7.15625 -12.253906 7.4375 -12.453125 C 7.726562 -12.648438 8.097656 -12.828125 8.546875 -12.984375 C 8.992188 -13.148438 9.453125 -13.234375 9.921875 -13.234375 C 10.410156 -13.234375 10.890625 -13.164062 11.359375 -13.03125 C 11.828125 -12.894531 12.164062 -12.757812 12.375 -12.625 L 12.734375 -12.4375 L 10.875 -8.671875 C 10.320312 -9.140625 9.554688 -9.375 8.578125 -9.375 C 8.035156 -9.375 7.570312 -9.253906 7.1875 -9.015625 C 6.800781 -8.785156 6.53125 -8.503906 6.375 -8.171875 C 6.21875 -7.835938 6.101562 -7.550781 6.03125 -7.3125 C 5.96875 -7.082031 5.9375 -6.898438 5.9375 -6.765625 L 5.9375 0 Z M 1.5 0 "/></g></g></g><g fill="#000000" fill-opacity="1"><g transform="translate(268.89506, 45.371312)"><g><path d="M 1.5 0 L 1.5 -12.859375 L 5.9375 -12.859375 L 5.9375 -11.5 L 5.984375 -11.5 C 7.140625 -12.65625 8.367188 -13.234375 9.671875 -13.234375 C 10.304688 -13.234375 10.9375 -13.148438 11.5625 -12.984375 C 12.1875 -12.816406 12.785156 -12.554688 13.359375 -12.203125 C 13.941406 -11.847656 14.410156 -11.347656 14.765625 -10.703125 C 15.128906 -10.066406 15.3125 -9.320312 15.3125 -8.46875 L 15.3125 0 L 10.875 0 L 10.875 -7.265625 C 10.875 -7.929688 10.660156 -8.515625 10.234375 -9.015625 C 9.804688 -9.523438 9.253906 -9.78125 8.578125 -9.78125 C 7.898438 -9.78125 7.289062 -9.519531 6.75 -9 C 6.207031 -8.476562 5.9375 -7.898438 5.9375 -7.265625 L 5.9375 0 Z M 1.5 0 "/></g></g></g><g fill="#000000" fill-opacity="1"><g transform="translate(285.463609, 45.371312)"><g><path d="M 2.375 -1.59375 C 1.175781 -2.90625 0.578125 -4.507812 0.578125 -6.40625 C 0.578125 -8.3125 1.175781 -9.925781 2.375 -11.25 C 3.582031 -12.570312 5.113281 -13.234375 6.96875 -13.234375 C 8.675781 -13.234375 10.078125 -12.695312 11.171875 -11.625 L 11.171875 -12.859375 L 15.609375 -12.859375 L 15.609375 0 L 11.234375 0 L 11.234375 -1.453125 L 11.171875 -1.453125 C 10.078125 -0.234375 8.675781 0.375 6.96875 0.375 C 5.113281 0.375 3.582031 -0.28125 2.375 -1.59375 Z M 6.140625 -8.59375 C 5.566406 -8.03125 5.28125 -7.304688 5.28125 -6.421875 C 5.28125 -5.535156 5.554688 -4.8125 6.109375 -4.25 C 6.660156 -3.6875 7.390625 -3.40625 8.296875 -3.40625 C 9.160156 -3.40625 9.875 -3.6875 10.4375 -4.25 C 11 -4.820312 11.28125 -5.546875 11.28125 -6.421875 C 11.28125 -7.304688 10.988281 -8.03125 10.40625 -8.59375 C 9.832031 -9.164062 9.128906 -9.453125 8.296875 -9.453125 C 7.441406 -9.453125 6.722656 -9.164062 6.140625 -8.59375 Z M 6.140625 -8.59375 "/></g></g></g><g fill="#000000" fill-opacity="1"><g transform="translate(302.583603, 45.371312)"><g><path d="M 2.25 -12.859375 L 2.25 -17.640625 L 6.6875 -17.640625 L 6.6875 -12.859375 L 9.40625 -12.859375 L 9.40625 -9.46875 L 6.6875 -9.46875 L 6.6875 -5.390625 C 6.6875 -4.203125 7.019531 -3.609375 7.6875 -3.609375 C 7.851562 -3.609375 8.03125 -3.640625 8.21875 -3.703125 C 8.40625 -3.773438 8.546875 -3.84375 8.640625 -3.90625 L 8.796875 -4.015625 L 9.90625 -0.421875 C 8.945312 0.109375 7.859375 0.375 6.640625 0.375 C 5.804688 0.375 5.085938 0.226562 4.484375 -0.0625 C 3.878906 -0.351562 3.421875 -0.742188 3.109375 -1.234375 C 2.804688 -1.734375 2.585938 -2.253906 2.453125 -2.796875 C 2.316406 -3.335938 2.25 -3.914062 2.25 -4.53125 L 2.25 -9.46875 L 0.40625 -9.46875 L 0.40625 -12.859375 Z M 2.25 -12.859375 "/></g></g></g><g fill="#000000" fill-opacity="1"><g transform="translate(312.48461, 45.371312)"><g><path d="M 1.921875 -20.015625 C 2.441406 -20.535156 3.0625 -20.796875 3.78125 -20.796875 C 4.5 -20.796875 5.117188 -20.535156 5.640625 -20.015625 C 6.160156 -19.503906 6.421875 -18.890625 6.421875 -18.171875 C 6.421875 -17.453125 6.160156 -16.832031 5.640625 -16.3125 C 5.117188 -15.789062 4.5 -15.53125 3.78125 -15.53125 C 3.0625 -15.53125 2.441406 -15.789062 1.921875 -16.3125 C 1.410156 -16.832031 1.15625 -17.453125 1.15625 -18.171875 C 1.15625 -18.890625 1.410156 -19.503906 1.921875 -20.015625 Z M 1.5 -12.859375 L 1.5 0 L 5.9375 0 L 5.9375 -12.859375 Z M 1.5 -12.859375 "/></g></g></g><g fill="#000000" fill-opacity="1"><g transform="translate(320.054512, 45.371312)"><g><path d="M 4.765625 -12.859375 L 7.890625 -5.859375 L 11.03125 -12.859375 L 16.296875 -12.859375 L 9.40625 0 L 6.390625 0 L -0.5 -12.859375 Z M 4.765625 -12.859375 "/></g></g></g><g fill="#000000" fill-opacity="1"><g transform="translate(335.845999, 45.371312)"><g><path d="M 14.515625 -5.8125 L 5.1875 -5.8125 C 5.1875 -4.914062 5.476562 -4.25 6.0625 -3.8125 C 6.644531 -3.375 7.28125 -3.15625 7.96875 -3.15625 C 8.6875 -3.15625 9.253906 -3.25 9.671875 -3.4375 C 10.085938 -3.632812 10.566406 -4.019531 11.109375 -4.59375 L 14.3125 -2.984375 C 12.976562 -0.742188 10.753906 0.375 7.640625 0.375 C 5.703125 0.375 4.039062 -0.285156 2.65625 -1.609375 C 1.269531 -2.941406 0.578125 -4.539062 0.578125 -6.40625 C 0.578125 -8.28125 1.269531 -9.882812 2.65625 -11.21875 C 4.039062 -12.5625 5.703125 -13.234375 7.640625 -13.234375 C 9.679688 -13.234375 11.335938 -12.644531 12.609375 -11.46875 C 13.890625 -10.289062 14.53125 -8.609375 14.53125 -6.421875 C 14.53125 -6.117188 14.523438 -5.914062 14.515625 -5.8125 Z M 5.3125 -8.265625 L 10.203125 -8.265625 C 10.097656 -8.929688 9.832031 -9.441406 9.40625 -9.796875 C 8.976562 -10.160156 8.429688 -10.34375 7.765625 -10.34375 C 7.035156 -10.34375 6.453125 -10.148438 6.015625 -9.765625 C 5.578125 -9.390625 5.34375 -8.890625 5.3125 -8.265625 Z M 5.3125 -8.265625 "/></g></g></g><g fill="#000000" fill-opacity="1"><g transform="translate(350.960716, 45.371312)"><g><path d="M 1.5 0 L 1.5 -12.859375 L 5.9375 -12.859375 L 5.9375 -11.5 L 5.984375 -11.5 C 7.140625 -12.65625 8.367188 -13.234375 9.671875 -13.234375 C 10.304688 -13.234375 10.9375 -13.148438 11.5625 -12.984375 C 12.1875 -12.816406 12.785156 -12.554688 13.359375 -12.203125 C 13.941406 -11.847656 14.410156 -11.347656 14.765625 -10.703125 C 15.128906 -10.066406 15.3125 -9.320312 15.3125 -8.46875 L 15.3125 0 L 10.875 0 L 10.875 -7.265625 C 10.875 -7.929688 10.660156 -8.515625 10.234375 -9.015625 C 9.804688 -9.523438 9.253906 -9.78125 8.578125 -9.78125 C 7.898438 -9.78125 7.289062 -9.519531 6.75 -9 C 6.207031 -8.476562 5.9375 -7.898438 5.9375 -7.265625 L 5.9375 0 Z M 1.5 0 "/></g></g></g><g fill="#000000" fill-opacity="1"><g transform="translate(141.340685, 79.918124)"><g><path d="M 2.71875 -1.53125 C 1.289062 -2.800781 0.578125 -4.429688 0.578125 -6.421875 C 0.578125 -8.410156 1.316406 -10.039062 2.796875 -11.3125 C 4.285156 -12.59375 6.128906 -13.234375 8.328125 -13.234375 C 10.472656 -13.234375 12.285156 -12.585938 13.765625 -11.296875 C 15.242188 -10.015625 15.984375 -8.382812 15.984375 -6.40625 C 15.984375 -4.4375 15.257812 -2.8125 13.8125 -1.53125 C 12.375 -0.257812 10.546875 0.375 8.328125 0.375 C 6.015625 0.375 4.144531 -0.257812 2.71875 -1.53125 Z M 6.140625 -8.59375 C 5.566406 -8.03125 5.28125 -7.304688 5.28125 -6.421875 C 5.28125 -5.535156 5.554688 -4.8125 6.109375 -4.25 C 6.660156 -3.6875 7.390625 -3.40625 8.296875 -3.40625 C 9.160156 -3.40625 9.875 -3.6875 10.4375 -4.25 C 11 -4.820312 11.28125 -5.546875 11.28125 -6.421875 C 11.28125 -7.304688 10.988281 -8.03125 10.40625 -8.59375 C 9.832031 -9.164062 9.128906 -9.453125 8.296875 -9.453125 C 7.441406 -9.453125 6.722656 -9.164062 6.140625 -8.59375 Z M 6.140625 -8.59375 "/></g></g></g><g fill="#000000" fill-opacity="1"><g transform="translate(157.909234, 79.918124)"><g><path d="M 4.765625 -12.859375 L 7.890625 -5.859375 L 11.03125 -12.859375 L 16.296875 -12.859375 L 9.40625 0 L 6.390625 0 L -0.5 -12.859375 Z M 4.765625 -12.859375 "/></g></g></g><g fill="#000000" fill-opacity="1"><g transform="translate(173.700734, 79.918124)"><g><path d="M 2.375 -1.59375 C 1.175781 -2.90625 0.578125 -4.507812 0.578125 -6.40625 C 0.578125 -8.3125 1.175781 -9.925781 2.375 -11.25 C 3.582031 -12.570312 5.113281 -13.234375 6.96875 -13.234375 C 8.675781 -13.234375 10.078125 -12.695312 11.171875 -11.625 L 11.171875 -12.859375 L 15.609375 -12.859375 L 15.609375 0 L 11.234375 0 L 11.234375 -1.453125 L 11.171875 -1.453125 C 10.078125 -0.234375 8.675781 0.375 6.96875 0.375 C 5.113281 0.375 3.582031 -0.28125 2.375 -1.59375 Z M 6.140625 -8.59375 C 5.566406 -8.03125 5.28125 -7.304688 5.28125 -6.421875 C 5.28125 -5.535156 5.554688 -4.8125 6.109375 -4.25 C 6.660156 -3.6875 7.390625 -3.40625 8.296875 -3.40625 C 9.160156 -3.40625 9.875 -3.6875 10.4375 -4.25 C 11 -4.820312 11.28125 -5.546875 11.28125 -6.421875 C 11.28125 -7.304688 10.988281 -8.03125 10.40625 -8.59375 C 9.832031 -9.164062 9.128906 -9.453125 8.296875 -9.453125 C 7.441406 -9.453125 6.722656 -9.164062 6.140625 -8.59375 Z M 6.140625 -8.59375 "/></g></g></g><g fill="#000000" fill-opacity="1"><g transform="translate(190.820729, 79.918124)"><g><path d="M 1.5 0 L 1.5 -12.859375 L 5.9375 -12.859375 L 5.9375 -11.5 L 5.984375 -11.5 C 7.140625 -12.65625 8.367188 -13.234375 9.671875 -13.234375 C 10.304688 -13.234375 10.9375 -13.148438 11.5625 -12.984375 C 12.1875 -12.816406 12.785156 -12.554688 13.359375 -12.203125 C 13.941406 -11.847656 14.410156 -11.347656 14.765625 -10.703125 C 15.128906 -10.066406 15.3125 -9.320312 15.3125 -8.46875 L 15.3125 0 L 10.875 0 L 10.875 -7.265625 C 10.875 -7.929688 10.660156 -8.515625 10.234375 -9.015625 C 9.804688 -9.523438 9.253906 -9.78125 8.578125 -9.78125 C 7.898438 -9.78125 7.289062 -9.519531 6.75 -9 C 6.207031 -8.476562 5.9375 -7.898438 5.9375 -7.265625 L 5.9375 0 Z M 1.5 0 "/></g></g></g><g fill="#000000" fill-opacity="1"><g transform="translate(207.389278, 79.918124)"><g><path d="M 4.359375 -5.359375 C 5.160156 -5.359375 5.84375 -5.078125 6.40625 -4.515625 C 6.96875 -3.960938 7.25 -3.285156 7.25 -2.484375 C 7.25 -1.691406 6.96875 -1.015625 6.40625 -0.453125 C 5.84375 0.0976562 5.160156 0.375 4.359375 0.375 C 3.578125 0.375 2.90625 0.0976562 2.34375 -0.453125 C 1.78125 -1.015625 1.5 -1.691406 1.5 -2.484375 C 1.5 -3.285156 1.78125 -3.960938 2.34375 -4.515625 C 2.90625 -5.078125 3.578125 -5.359375 4.359375 -5.359375 Z M 4.359375 -5.359375 "/></g></g></g><g fill="#000000" fill-opacity="1"><g transform="translate(216.137276, 79.918124)"><g><path d="M 4.359375 -5.359375 C 5.160156 -5.359375 5.84375 -5.078125 6.40625 -4.515625 C 6.96875 -3.960938 7.25 -3.285156 7.25 -2.484375 C 7.25 -1.691406 6.96875 -1.015625 6.40625 -0.453125 C 5.84375 0.0976562 5.160156 0.375 4.359375 0.375 C 3.578125 0.375 2.90625 0.0976562 2.34375 -0.453125 C 1.78125 -1.015625 1.5 -1.691406 1.5 -2.484375 C 1.5 -3.285156 1.78125 -3.960938 2.34375 -4.515625 C 2.90625 -5.078125 3.578125 -5.359375 4.359375 -5.359375 Z M 4.359375 -5.359375 "/></g></g></g><g fill="#000000" fill-opacity="1"><g transform="translate(224.885273, 79.918124)"><g><path d="M 4.359375 -5.359375 C 5.160156 -5.359375 5.84375 -5.078125 6.40625 -4.515625 C 6.96875 -3.960938 7.25 -3.285156 7.25 -2.484375 C 7.25 -1.691406 6.96875 -1.015625 6.40625 -0.453125 C 5.84375 0.0976562 5.160156 0.375 4.359375 0.375 C 3.578125 0.375 2.90625 0.0976562 2.34375 -0.453125 C 1.78125 -1.015625 1.5 -1.691406 1.5 -2.484375 C 1.5 -3.285156 1.78125 -3.960938 2.34375 -4.515625 C 2.90625 -5.078125 3.578125 -5.359375 4.359375 -5.359375 Z M 4.359375 -5.359375 "/></g></g></g></svg>