<svg xmlns="http://www.w3.org/2000/svg" xmlns:xlink="http://www.w3.org/1999/xlink" width="500" zoomAndPan="magnify" viewBox="0 0 375 112.499997" height="150" preserveAspectRatio="xMidYMid meet" version="1.0"><defs><g/></defs><g fill="#000000" fill-opacity="1"><g transform="translate(6.311412, 42.834837)"><g><path d="M 9.875 0 L -0.875 -25.609375 L 5.71875 -25.609375 L 12.171875 -8.78125 L 18.625 -25.609375 L 25.203125 -25.609375 L 14.46875 0 Z M 9.875 0 "/></g></g></g><g fill="#000000" fill-opacity="1"><g transform="translate(30.652338, 42.834837)"><g><path d="M 4.90625 -23.71875 C 5.46875 -24.28125 6.140625 -24.5625 6.921875 -24.5625 C 7.710938 -24.5625 8.382812 -24.28125 8.9375 -23.71875 C 9.5 -23.15625 9.78125 -22.476562 9.78125 -21.6875 C 9.78125 -20.90625 9.5 -20.234375 8.9375 -19.671875 C 8.382812 -19.117188 7.710938 -18.84375 6.921875 -18.84375 C 6.140625 -18.84375 5.46875 -19.117188 4.90625 -19.671875 C 4.34375 -20.234375 4.0625 -20.90625 4.0625 -21.6875 C 4.0625 -22.476562 4.34375 -23.15625 4.90625 -23.71875 Z M 12.265625 -23.71875 C 12.828125 -24.28125 13.5 -24.5625 14.28125 -24.5625 C 15.070312 -24.5625 15.742188 -24.28125 16.296875 -23.71875 C 16.859375 -23.15625 17.140625 -22.476562 17.140625 -21.6875 C 17.140625 -20.90625 16.859375 -20.234375 16.296875 -19.671875 C 15.742188 -19.117188 15.070312 -18.84375 14.28125 -18.84375 C 13.5 -18.84375 12.828125 -19.117188 12.265625 -19.671875 C 11.703125 -20.234375 11.421875 -20.90625 11.421875 -21.6875 C 11.421875 -22.476562 11.703125 -23.15625 12.265625 -23.71875 Z M 2.953125 -13.9375 C 1.460938 -12.300781 0.71875 -10.300781 0.71875 -7.9375 C 0.71875 -5.582031 1.460938 -3.59375 2.953125 -1.96875 C 4.441406 -0.34375 6.332031 0.46875 8.625 0.46875 C 10.738281 0.46875 12.476562 -0.285156 13.84375 -1.796875 L 13.90625 -1.796875 L 13.90625 0 L 19.34375 0 L 19.34375 -15.921875 L 13.84375 -15.921875 L 13.84375 -14.40625 C 12.476562 -15.726562 10.738281 -16.390625 8.625 -16.390625 C 6.332031 -16.390625 4.441406 -15.570312 2.953125 -13.9375 Z M 7.5625 -5.25 C 6.882812 -5.945312 6.546875 -6.84375 6.546875 -7.9375 C 6.546875 -9.039062 6.898438 -9.941406 7.609375 -10.640625 C 8.328125 -11.347656 9.21875 -11.703125 10.28125 -11.703125 C 11.3125 -11.703125 12.179688 -11.347656 12.890625 -10.640625 C 13.609375 -9.941406 13.96875 -9.046875 13.96875 -7.953125 C 13.96875 -6.867188 13.617188 -5.972656 12.921875 -5.265625 C 12.234375 -4.566406 11.351562 -4.21875 10.28125 -4.21875 C 9.15625 -4.21875 8.25 -4.5625 7.5625 -5.25 Z M 7.5625 -5.25 "/></g></g></g><g fill="#000000" fill-opacity="1"><g transform="translate(51.857498, 42.834837)"><g><path d="M 1.859375 0 L 1.859375 -26.703125 L 7.359375 -26.703125 L 7.359375 0 Z M 1.859375 0 "/></g></g></g><g fill="#000000" fill-opacity="1"><g transform="translate(61.07848, 42.834837)"><g><path d="M 2.390625 -24.796875 C 3.035156 -25.441406 3.800781 -25.765625 4.6875 -25.765625 C 5.570312 -25.765625 6.335938 -25.441406 6.984375 -24.796875 C 7.628906 -24.160156 7.953125 -23.394531 7.953125 -22.5 C 7.953125 -21.613281 7.628906 -20.847656 6.984375 -20.203125 C 6.335938 -19.566406 5.570312 -19.25 4.6875 -19.25 C 3.800781 -19.25 3.035156 -19.566406 2.390625 -20.203125 C 1.742188 -20.847656 1.421875 -21.613281 1.421875 -22.5 C 1.421875 -23.394531 1.742188 -24.160156 2.390625 -24.796875 Z M 1.859375 -15.921875 L 1.859375 1.390625 C 1.859375 2.847656 1.351562 3.578125 0.34375 3.578125 C 0.132812 3.578125 -0.0820312 3.539062 -0.3125 3.46875 C -0.539062 3.394531 -0.726562 3.316406 -0.875 3.234375 L -1.0625 3.109375 L -2.765625 7.546875 C -2.722656 7.566406 -2.585938 7.628906 -2.359375 7.734375 C -2.128906 7.835938 -1.957031 7.914062 -1.84375 7.96875 C -1.726562 8.019531 -1.535156 8.085938 -1.265625 8.171875 C -1.003906 8.253906 -0.75 8.3125 -0.5 8.34375 C -0.25 8.382812 0.0625 8.425781 0.4375 8.46875 C 0.8125 8.507812 1.203125 8.53125 1.609375 8.53125 C 2.648438 8.53125 3.5625 8.347656 4.34375 7.984375 C 5.132812 7.628906 5.734375 7.144531 6.140625 6.53125 C 6.554688 5.925781 6.863281 5.285156 7.0625 4.609375 C 7.257812 3.929688 7.359375 3.210938 7.359375 2.453125 L 7.359375 -15.921875 Z M 1.859375 -15.921875 "/></g></g></g><g fill="#000000" fill-opacity="1"><g transform="translate(70.299462, 42.834837)"><g/></g></g><g fill="#000000" fill-opacity="1"><g transform="translate(78.775317, 42.834837)"><g><path d="M 17.96875 -7.203125 L 6.421875 -7.203125 C 6.421875 -6.085938 6.78125 -5.257812 7.5 -4.71875 C 8.226562 -4.175781 9.019531 -3.90625 9.875 -3.90625 C 10.757812 -3.90625 11.460938 -4.023438 11.984375 -4.265625 C 12.503906 -4.503906 13.09375 -4.976562 13.75 -5.6875 L 17.734375 -3.6875 C 16.078125 -0.914062 13.320312 0.46875 9.46875 0.46875 C 7.070312 0.46875 5.015625 -0.351562 3.296875 -2 C 1.578125 -3.644531 0.71875 -5.625 0.71875 -7.9375 C 0.71875 -10.257812 1.578125 -12.25 3.296875 -13.90625 C 5.015625 -15.5625 7.070312 -16.390625 9.46875 -16.390625 C 11.988281 -16.390625 14.039062 -15.660156 15.625 -14.203125 C 17.207031 -12.742188 18 -10.660156 18 -7.953125 C 18 -7.578125 17.988281 -7.328125 17.96875 -7.203125 Z M 6.578125 -10.25 L 12.640625 -10.25 C 12.515625 -11.070312 12.1875 -11.707031 11.65625 -12.15625 C 11.125 -12.601562 10.445312 -12.828125 9.625 -12.828125 C 8.71875 -12.828125 7.992188 -12.585938 7.453125 -12.109375 C 6.910156 -11.628906 6.617188 -11.007812 6.578125 -10.25 Z M 6.578125 -10.25 "/></g></g></g><g fill="#000000" fill-opacity="1"><g transform="translate(97.496719, 42.834837)"><g><path d="M 2.796875 -15.921875 L 2.796875 -21.859375 L 8.296875 -21.859375 L 8.296875 -15.921875 L 11.640625 -15.921875 L 11.640625 -11.734375 L 8.296875 -11.734375 L 8.296875 -6.671875 C 8.296875 -5.203125 8.707031 -4.46875 9.53125 -4.46875 C 9.738281 -4.46875 9.957031 -4.507812 10.1875 -4.59375 C 10.414062 -4.675781 10.59375 -4.757812 10.71875 -4.84375 L 10.890625 -4.96875 L 12.265625 -0.53125 C 11.085938 0.132812 9.742188 0.46875 8.234375 0.46875 C 7.191406 0.46875 6.296875 0.285156 5.546875 -0.078125 C 4.804688 -0.441406 4.242188 -0.925781 3.859375 -1.53125 C 3.484375 -2.144531 3.210938 -2.785156 3.046875 -3.453125 C 2.878906 -4.128906 2.796875 -4.851562 2.796875 -5.625 L 2.796875 -11.734375 L 0.5 -11.734375 L 0.5 -15.921875 Z M 2.796875 -15.921875 "/></g></g></g><g fill="#000000" fill-opacity="1"><g transform="translate(109.760316, 42.834837)"><g><path d="M 2.796875 -15.921875 L 2.796875 -21.859375 L 8.296875 -21.859375 L 8.296875 -15.921875 L 11.640625 -15.921875 L 11.640625 -11.734375 L 8.296875 -11.734375 L 8.296875 -6.671875 C 8.296875 -5.203125 8.707031 -4.46875 9.53125 -4.46875 C 9.738281 -4.46875 9.957031 -4.507812 10.1875 -4.59375 C 10.414062 -4.675781 10.59375 -4.757812 10.71875 -4.84375 L 10.890625 -4.96875 L 12.265625 -0.53125 C 11.085938 0.132812 9.742188 0.46875 8.234375 0.46875 C 7.191406 0.46875 6.296875 0.285156 5.546875 -0.078125 C 4.804688 -0.441406 4.242188 -0.925781 3.859375 -1.53125 C 3.484375 -2.144531 3.210938 -2.785156 3.046875 -3.453125 C 2.878906 -4.128906 2.796875 -4.851562 2.796875 -5.625 L 2.796875 -11.734375 L 0.5 -11.734375 L 0.5 -15.921875 Z M 2.796875 -15.921875 "/></g></g></g><g fill="#000000" fill-opacity="1"><g transform="translate(122.023914, 42.834837)"><g/></g></g><g fill="#000000" fill-opacity="1"><g transform="translate(130.49977, 42.834837)"><g><path d="M 2.953125 -1.96875 C 1.460938 -3.59375 0.71875 -5.582031 0.71875 -7.9375 C 0.71875 -10.300781 1.460938 -12.300781 2.953125 -13.9375 C 4.441406 -15.570312 6.332031 -16.390625 8.625 -16.390625 C 10.738281 -16.390625 12.476562 -15.726562 13.84375 -14.40625 L 13.84375 -15.921875 L 19.34375 -15.921875 L 19.34375 0 L 13.90625 0 L 13.90625 -1.796875 L 13.84375 -1.796875 C 12.476562 -0.285156 10.738281 0.46875 8.625 0.46875 C 6.332031 0.46875 4.441406 -0.34375 2.953125 -1.96875 Z M 7.609375 -10.640625 C 6.898438 -9.941406 6.546875 -9.039062 6.546875 -7.9375 C 6.546875 -6.84375 6.882812 -5.945312 7.5625 -5.25 C 8.25 -4.5625 9.15625 -4.21875 10.28125 -4.21875 C 11.351562 -4.21875 12.234375 -4.566406 12.921875 -5.265625 C 13.617188 -5.972656 13.96875 -6.867188 13.96875 -7.953125 C 13.96875 -9.046875 13.609375 -9.941406 12.890625 -10.640625 C 12.179688 -11.347656 11.3125 -11.703125 10.28125 -11.703125 C 9.21875 -11.703125 8.328125 -11.347656 7.609375 -10.640625 Z M 7.609375 -10.640625 "/></g></g></g><g fill="#000000" fill-opacity="1"><g transform="translate(151.70493, 42.834837)"><g><path d="M 5.90625 -15.921875 L 9.78125 -7.265625 L 13.65625 -15.921875 L 20.1875 -15.921875 L 11.640625 0 L 7.921875 0 L -0.625 -15.921875 Z M 5.90625 -15.921875 "/></g></g></g><g fill="#000000" fill-opacity="1"><g transform="translate(171.264591, 42.834837)"><g/></g></g><g fill="#000000" fill-opacity="1"><g transform="translate(179.740447, 42.834837)"><g><path d="M 6.359375 -18.21875 L 1.765625 -20.453125 C 1.804688 -20.597656 1.867188 -20.800781 1.953125 -21.0625 C 2.035156 -21.320312 2.285156 -21.769531 2.703125 -22.40625 C 3.117188 -23.050781 3.601562 -23.625 4.15625 -24.125 C 4.71875 -24.625 5.535156 -25.070312 6.609375 -25.46875 C 7.691406 -25.875 8.90625 -26.078125 10.25 -26.078125 C 12.6875 -26.078125 14.695312 -25.378906 16.28125 -23.984375 C 17.863281 -22.585938 18.65625 -20.800781 18.65625 -18.625 C 18.65625 -16.59375 17.898438 -14.988281 16.390625 -13.8125 C 18.566406 -12.488281 19.65625 -10.535156 19.65625 -7.953125 C 19.65625 -5.503906 18.757812 -3.488281 16.96875 -1.90625 C 15.175781 -0.320312 12.90625 0.46875 10.15625 0.46875 C 8.6875 0.46875 7.347656 0.25 6.140625 -0.1875 C 4.941406 -0.625 4.003906 -1.144531 3.328125 -1.75 C 2.660156 -2.363281 2.101562 -2.976562 1.65625 -3.59375 C 1.21875 -4.21875 0.914062 -4.75 0.75 -5.1875 L 0.53125 -5.84375 L 5.9375 -8.46875 C 5.9375 -8.375 5.945312 -8.238281 5.96875 -8.0625 C 6 -7.882812 6.109375 -7.566406 6.296875 -7.109375 C 6.484375 -6.648438 6.710938 -6.25 6.984375 -5.90625 C 7.253906 -5.570312 7.660156 -5.265625 8.203125 -4.984375 C 8.753906 -4.703125 9.394531 -4.5625 10.125 -4.5625 C 11.21875 -4.5625 12.101562 -4.859375 12.78125 -5.453125 C 13.46875 -6.054688 13.8125 -6.890625 13.8125 -7.953125 C 13.8125 -9.046875 13.453125 -9.941406 12.734375 -10.640625 C 12.023438 -11.347656 11.15625 -11.703125 10.125 -11.703125 L 9 -11.515625 L 9 -15.34375 L 10.28125 -15.34375 C 11.082031 -15.34375 11.789062 -15.648438 12.40625 -16.265625 C 13.03125 -16.890625 13.34375 -17.65625 13.34375 -18.5625 C 13.34375 -19.375 13.023438 -20.046875 12.390625 -20.578125 C 11.765625 -21.117188 11.03125 -21.390625 10.1875 -21.390625 C 9.582031 -21.390625 9.035156 -21.28125 8.546875 -21.0625 C 8.066406 -20.84375 7.695312 -20.578125 7.4375 -20.265625 C 7.175781 -19.960938 6.957031 -19.65625 6.78125 -19.34375 C 6.601562 -19.03125 6.492188 -18.769531 6.453125 -18.5625 Z M 6.359375 -18.21875 "/></g></g></g><g fill="#000000" fill-opacity="1"><g transform="translate(200.386766, 42.834837)"><g/></g></g><g fill="#000000" fill-opacity="1"><g transform="translate(208.862622, 42.834837)"><g><path d="M 2.953125 -1.96875 C 1.460938 -3.59375 0.71875 -5.582031 0.71875 -7.9375 C 0.71875 -10.300781 1.460938 -12.300781 2.953125 -13.9375 C 4.441406 -15.570312 6.332031 -16.390625 8.625 -16.390625 C 10.738281 -16.390625 12.476562 -15.726562 13.84375 -14.40625 L 13.84375 -15.921875 L 19.34375 -15.921875 L 19.34375 0 L 13.90625 0 L 13.90625 -1.796875 L 13.84375 -1.796875 C 12.476562 -0.285156 10.738281 0.46875 8.625 0.46875 C 6.332031 0.46875 4.441406 -0.34375 2.953125 -1.96875 Z M 7.609375 -10.640625 C 6.898438 -9.941406 6.546875 -9.039062 6.546875 -7.9375 C 6.546875 -6.84375 6.882812 -5.945312 7.5625 -5.25 C 8.25 -4.5625 9.15625 -4.21875 10.28125 -4.21875 C 11.351562 -4.21875 12.234375 -4.566406 12.921875 -5.265625 C 13.617188 -5.972656 13.96875 -6.867188 13.96875 -7.953125 C 13.96875 -9.046875 13.609375 -9.941406 12.890625 -10.640625 C 12.179688 -11.347656 11.3125 -11.703125 10.28125 -11.703125 C 9.21875 -11.703125 8.328125 -11.347656 7.609375 -10.640625 Z M 7.609375 -10.640625 "/></g></g></g><g fill="#000000" fill-opacity="1"><g transform="translate(230.067782, 42.834837)"><g><path d="M 1.859375 0 L 1.859375 -26.703125 L 7.359375 -26.703125 L 7.359375 0 Z M 1.859375 0 "/></g></g></g><g fill="#000000" fill-opacity="1"><g transform="translate(239.288763, 42.834837)"><g><path d="M 2.796875 -15.921875 L 2.796875 -21.859375 L 8.296875 -21.859375 L 8.296875 -15.921875 L 11.640625 -15.921875 L 11.640625 -11.734375 L 8.296875 -11.734375 L 8.296875 -6.671875 C 8.296875 -5.203125 8.707031 -4.46875 9.53125 -4.46875 C 9.738281 -4.46875 9.957031 -4.507812 10.1875 -4.59375 C 10.414062 -4.675781 10.59375 -4.757812 10.71875 -4.84375 L 10.890625 -4.96875 L 12.265625 -0.53125 C 11.085938 0.132812 9.742188 0.46875 8.234375 0.46875 C 7.191406 0.46875 6.296875 0.285156 5.546875 -0.078125 C 4.804688 -0.441406 4.242188 -0.925781 3.859375 -1.53125 C 3.484375 -2.144531 3.210938 -2.785156 3.046875 -3.453125 C 2.878906 -4.128906 2.796875 -4.851562 2.796875 -5.625 L 2.796875 -11.734375 L 0.5 -11.734375 L 0.5 -15.921875 Z M 2.796875 -15.921875 "/></g></g></g><g fill="#000000" fill-opacity="1"><g transform="translate(251.552361, 42.834837)"><g><path d="M 17.96875 -7.203125 L 6.421875 -7.203125 C 6.421875 -6.085938 6.78125 -5.257812 7.5 -4.71875 C 8.226562 -4.175781 9.019531 -3.90625 9.875 -3.90625 C 10.757812 -3.90625 11.460938 -4.023438 11.984375 -4.265625 C 12.503906 -4.503906 13.09375 -4.976562 13.75 -5.6875 L 17.734375 -3.6875 C 16.078125 -0.914062 13.320312 0.46875 9.46875 0.46875 C 7.070312 0.46875 5.015625 -0.351562 3.296875 -2 C 1.578125 -3.644531 0.71875 -5.625 0.71875 -7.9375 C 0.71875 -10.257812 1.578125 -12.25 3.296875 -13.90625 C 5.015625 -15.5625 7.070312 -16.390625 9.46875 -16.390625 C 11.988281 -16.390625 14.039062 -15.660156 15.625 -14.203125 C 17.207031 -12.742188 18 -10.660156 18 -7.953125 C 18 -7.578125 17.988281 -7.328125 17.96875 -7.203125 Z M 6.578125 -10.25 L 12.640625 -10.25 C 12.515625 -11.070312 12.1875 -11.707031 11.65625 -12.15625 C 11.125 -12.601562 10.445312 -12.828125 9.625 -12.828125 C 8.71875 -12.828125 7.992188 -12.585938 7.453125 -12.109375 C 6.910156 -11.628906 6.617188 -11.007812 6.578125 -10.25 Z M 6.578125 -10.25 "/></g></g></g><g fill="#000000" fill-opacity="1"><g transform="translate(270.273762, 42.834837)"><g><path d="M 1.859375 0 L 1.859375 -15.921875 L 7.359375 -15.921875 L 7.359375 -13.625 L 7.421875 -13.625 C 7.460938 -13.707031 7.53125 -13.8125 7.625 -13.9375 C 7.71875 -14.0625 7.914062 -14.28125 8.21875 -14.59375 C 8.53125 -14.90625 8.863281 -15.179688 9.21875 -15.421875 C 9.570312 -15.671875 10.023438 -15.894531 10.578125 -16.09375 C 11.140625 -16.289062 11.710938 -16.390625 12.296875 -16.390625 C 12.890625 -16.390625 13.476562 -16.304688 14.0625 -16.140625 C 14.644531 -15.972656 15.070312 -15.804688 15.34375 -15.640625 L 15.765625 -15.40625 L 13.46875 -10.75 C 12.789062 -11.320312 11.84375 -11.609375 10.625 -11.609375 C 9.957031 -11.609375 9.382812 -11.460938 8.90625 -11.171875 C 8.4375 -10.890625 8.101562 -10.539062 7.90625 -10.125 C 7.707031 -9.707031 7.566406 -9.351562 7.484375 -9.0625 C 7.398438 -8.769531 7.359375 -8.539062 7.359375 -8.375 L 7.359375 0 Z M 1.859375 0 "/></g></g></g><g fill="#000000" fill-opacity="1"><g transform="translate(285.735206, 42.834837)"><g><path d="M 1.859375 0 L 1.859375 -15.921875 L 7.359375 -15.921875 L 7.359375 -14.25 L 7.421875 -14.25 C 8.847656 -15.675781 10.367188 -16.390625 11.984375 -16.390625 C 12.765625 -16.390625 13.546875 -16.285156 14.328125 -16.078125 C 15.109375 -15.867188 15.851562 -15.546875 16.5625 -15.109375 C 17.28125 -14.679688 17.859375 -14.066406 18.296875 -13.265625 C 18.742188 -12.472656 18.96875 -11.550781 18.96875 -10.5 L 18.96875 0 L 13.46875 0 L 13.46875 -9 C 13.46875 -9.832031 13.203125 -10.554688 12.671875 -11.171875 C 12.148438 -11.796875 11.46875 -12.109375 10.625 -12.109375 C 9.789062 -12.109375 9.035156 -11.785156 8.359375 -11.140625 C 7.691406 -10.503906 7.359375 -9.789062 7.359375 -9 L 7.359375 0 Z M 1.859375 0 "/></g></g></g><g fill="#000000" fill-opacity="1"><g transform="translate(306.257335, 42.834837)"><g><path d="M 2.953125 -1.96875 C 1.460938 -3.59375 0.71875 -5.582031 0.71875 -7.9375 C 0.71875 -10.300781 1.460938 -12.300781 2.953125 -13.9375 C 4.441406 -15.570312 6.332031 -16.390625 8.625 -16.390625 C 10.738281 -16.390625 12.476562 -15.726562 13.84375 -14.40625 L 13.84375 -15.921875 L 19.34375 -15.921875 L 19.34375 0 L 13.90625 0 L 13.90625 -1.796875 L 13.84375 -1.796875 C 12.476562 -0.285156 10.738281 0.46875 8.625 0.46875 C 6.332031 0.46875 4.441406 -0.34375 2.953125 -1.96875 Z M 7.609375 -10.640625 C 6.898438 -9.941406 6.546875 -9.039062 6.546875 -7.9375 C 6.546875 -6.84375 6.882812 -5.945312 7.5625 -5.25 C 8.25 -4.5625 9.15625 -4.21875 10.28125 -4.21875 C 11.351562 -4.21875 12.234375 -4.566406 12.921875 -5.265625 C 13.617188 -5.972656 13.96875 -6.867188 13.96875 -7.953125 C 13.96875 -9.046875 13.609375 -9.941406 12.890625 -10.640625 C 12.179688 -11.347656 11.3125 -11.703125 10.28125 -11.703125 C 9.21875 -11.703125 8.328125 -11.347656 7.609375 -10.640625 Z M 7.609375 -10.640625 "/></g></g></g><g fill="#000000" fill-opacity="1"><g transform="translate(327.462495, 42.834837)"><g><path d="M 2.796875 -15.921875 L 2.796875 -21.859375 L 8.296875 -21.859375 L 8.296875 -15.921875 L 11.640625 -15.921875 L 11.640625 -11.734375 L 8.296875 -11.734375 L 8.296875 -6.671875 C 8.296875 -5.203125 8.707031 -4.46875 9.53125 -4.46875 C 9.738281 -4.46875 9.957031 -4.507812 10.1875 -4.59375 C 10.414062 -4.675781 10.59375 -4.757812 10.71875 -4.84375 L 10.890625 -4.96875 L 12.265625 -0.53125 C 11.085938 0.132812 9.742188 0.46875 8.234375 0.46875 C 7.191406 0.46875 6.296875 0.285156 5.546875 -0.078125 C 4.804688 -0.441406 4.242188 -0.925781 3.859375 -1.53125 C 3.484375 -2.144531 3.210938 -2.785156 3.046875 -3.453125 C 2.878906 -4.128906 2.796875 -4.851562 2.796875 -5.625 L 2.796875 -11.734375 L 0.5 -11.734375 L 0.5 -15.921875 Z M 2.796875 -15.921875 "/></g></g></g><g fill="#000000" fill-opacity="1"><g transform="translate(339.726109, 42.834837)"><g><path d="M 2.390625 -24.796875 C 3.035156 -25.441406 3.800781 -25.765625 4.6875 -25.765625 C 5.570312 -25.765625 6.335938 -25.441406 6.984375 -24.796875 C 7.628906 -24.160156 7.953125 -23.394531 7.953125 -22.5 C 7.953125 -21.613281 7.628906 -20.847656 6.984375 -20.203125 C 6.335938 -19.566406 5.570312 -19.25 4.6875 -19.25 C 3.800781 -19.25 3.035156 -19.566406 2.390625 -20.203125 C 1.742188 -20.847656 1.421875 -21.613281 1.421875 -22.5 C 1.421875 -23.394531 1.742188 -24.160156 2.390625 -24.796875 Z M 1.859375 -15.921875 L 1.859375 0 L 7.359375 0 L 7.359375 -15.921875 Z M 1.859375 -15.921875 "/></g></g></g><g fill="#000000" fill-opacity="1"><g transform="translate(349.102338, 42.834837)"><g><path d="M 5.90625 -15.921875 L 9.78125 -7.265625 L 13.65625 -15.921875 L 20.1875 -15.921875 L 11.640625 0 L 7.921875 0 L -0.625 -15.921875 Z M 5.90625 -15.921875 "/></g></g></g><g fill="#000000" fill-opacity="1"><g transform="translate(130.328016, 85.625195)"><g><path d="M 3.359375 -1.890625 C 1.597656 -3.460938 0.71875 -5.476562 0.71875 -7.9375 C 0.71875 -10.40625 1.632812 -12.429688 3.46875 -14.015625 C 5.3125 -15.597656 7.59375 -16.390625 10.3125 -16.390625 C 12.976562 -16.390625 15.226562 -15.59375 17.0625 -14 C 18.894531 -12.40625 19.8125 -10.382812 19.8125 -7.9375 C 19.8125 -5.5 18.914062 -3.488281 17.125 -1.90625 C 15.332031 -0.320312 13.0625 0.46875 10.3125 0.46875 C 7.445312 0.46875 5.128906 -0.316406 3.359375 -1.890625 Z M 7.609375 -10.640625 C 6.898438 -9.941406 6.546875 -9.039062 6.546875 -7.9375 C 6.546875 -6.84375 6.882812 -5.945312 7.5625 -5.25 C 8.25 -4.5625 9.15625 -4.21875 10.28125 -4.21875 C 11.351562 -4.21875 12.234375 -4.566406 12.921875 -5.265625 C 13.617188 -5.972656 13.96875 -6.867188 13.96875 -7.953125 C 13.96875 -9.046875 13.609375 -9.941406 12.890625 -10.640625 C 12.179688 -11.347656 11.3125 -11.703125 10.28125 -11.703125 C 9.21875 -11.703125 8.328125 -11.347656 7.609375 -10.640625 Z M 7.609375 -10.640625 "/></g></g></g><g fill="#000000" fill-opacity="1"><g transform="translate(150.850145, 85.625195)"><g><path d="M 5.90625 -15.921875 L 9.78125 -7.265625 L 13.65625 -15.921875 L 20.1875 -15.921875 L 11.640625 0 L 7.921875 0 L -0.625 -15.921875 Z M 5.90625 -15.921875 "/></g></g></g><g fill="#000000" fill-opacity="1"><g transform="translate(170.409806, 85.625195)"><g><path d="M 2.953125 -1.96875 C 1.460938 -3.59375 0.71875 -5.582031 0.71875 -7.9375 C 0.71875 -10.300781 1.460938 -12.300781 2.953125 -13.9375 C 4.441406 -15.570312 6.332031 -16.390625 8.625 -16.390625 C 10.738281 -16.390625 12.476562 -15.726562 13.84375 -14.40625 L 13.84375 -15.921875 L 19.34375 -15.921875 L 19.34375 0 L 13.90625 0 L 13.90625 -1.796875 L 13.84375 -1.796875 C 12.476562 -0.285156 10.738281 0.46875 8.625 0.46875 C 6.332031 0.46875 4.441406 -0.34375 2.953125 -1.96875 Z M 7.609375 -10.640625 C 6.898438 -9.941406 6.546875 -9.039062 6.546875 -7.9375 C 6.546875 -6.84375 6.882812 -5.945312 7.5625 -5.25 C 8.25 -4.5625 9.15625 -4.21875 10.28125 -4.21875 C 11.351562 -4.21875 12.234375 -4.566406 12.921875 -5.265625 C 13.617188 -5.972656 13.96875 -6.867188 13.96875 -7.953125 C 13.96875 -9.046875 13.609375 -9.941406 12.890625 -10.640625 C 12.179688 -11.347656 11.3125 -11.703125 10.28125 -11.703125 C 9.21875 -11.703125 8.328125 -11.347656 7.609375 -10.640625 Z M 7.609375 -10.640625 "/></g></g></g><g fill="#000000" fill-opacity="1"><g transform="translate(191.614966, 85.625195)"><g><path d="M 1.859375 0 L 1.859375 -15.921875 L 7.359375 -15.921875 L 7.359375 -14.25 L 7.421875 -14.25 C 8.847656 -15.675781 10.367188 -16.390625 11.984375 -16.390625 C 12.765625 -16.390625 13.546875 -16.285156 14.328125 -16.078125 C 15.109375 -15.867188 15.851562 -15.546875 16.5625 -15.109375 C 17.28125 -14.679688 17.859375 -14.066406 18.296875 -13.265625 C 18.742188 -12.472656 18.96875 -11.550781 18.96875 -10.5 L 18.96875 0 L 13.46875 0 L 13.46875 -9 C 13.46875 -9.832031 13.203125 -10.554688 12.671875 -11.171875 C 12.148438 -11.796875 11.46875 -12.109375 10.625 -12.109375 C 9.789062 -12.109375 9.035156 -11.785156 8.359375 -11.140625 C 7.691406 -10.503906 7.359375 -9.789062 7.359375 -9 L 7.359375 0 Z M 1.859375 0 "/></g></g></g><g fill="#000000" fill-opacity="1"><g transform="translate(212.137095, 85.625195)"><g><path d="M 5.40625 -6.640625 C 6.394531 -6.640625 7.234375 -6.289062 7.921875 -5.59375 C 8.617188 -4.90625 8.96875 -4.066406 8.96875 -3.078125 C 8.96875 -2.097656 8.617188 -1.257812 7.921875 -0.5625 C 7.234375 0.125 6.394531 0.46875 5.40625 0.46875 C 4.425781 0.46875 3.585938 0.125 2.890625 -0.5625 C 2.203125 -1.257812 1.859375 -2.097656 1.859375 -3.078125 C 1.859375 -4.066406 2.203125 -4.90625 2.890625 -5.59375 C 3.585938 -6.289062 4.425781 -6.640625 5.40625 -6.640625 Z M 5.40625 -6.640625 "/></g></g></g><g fill="#000000" fill-opacity="1"><g transform="translate(222.972536, 85.625195)"><g><path d="M 5.40625 -6.640625 C 6.394531 -6.640625 7.234375 -6.289062 7.921875 -5.59375 C 8.617188 -4.90625 8.96875 -4.066406 8.96875 -3.078125 C 8.96875 -2.097656 8.617188 -1.257812 7.921875 -0.5625 C 7.234375 0.125 6.394531 0.46875 5.40625 0.46875 C 4.425781 0.46875 3.585938 0.125 2.890625 -0.5625 C 2.203125 -1.257812 1.859375 -2.097656 1.859375 -3.078125 C 1.859375 -4.066406 2.203125 -4.90625 2.890625 -5.59375 C 3.585938 -6.289062 4.425781 -6.640625 5.40625 -6.640625 Z M 5.40625 -6.640625 "/></g></g></g><g fill="#000000" fill-opacity="1"><g transform="translate(233.807977, 85.625195)"><g><path d="M 5.40625 -6.640625 C 6.394531 -6.640625 7.234375 -6.289062 7.921875 -5.59375 C 8.617188 -4.90625 8.96875 -4.066406 8.96875 -3.078125 C 8.96875 -2.097656 8.617188 -1.257812 7.921875 -0.5625 C 7.234375 0.125 6.394531 0.46875 5.40625 0.46875 C 4.425781 0.46875 3.585938 0.125 2.890625 -0.5625 C 2.203125 -1.257812 1.859375 -2.097656 1.859375 -3.078125 C 1.859375 -4.066406 2.203125 -4.90625 2.890625 -5.59375 C 3.585938 -6.289062 4.425781 -6.640625 5.40625 -6.640625 Z M 5.40625 -6.640625 "/></g></g></g></svg>