<svg xmlns="http://www.w3.org/2000/svg" xmlns:xlink="http://www.w3.org/1999/xlink" width="1920" zoomAndPan="magnify" viewBox="0 0 1440 318.749988" height="425" preserveAspectRatio="xMidYMid meet" version="1.0"><defs><g/></defs><g fill="#000000" fill-opacity="1"><g transform="translate(59.487687, 234.994661)"><g><path d="M 162.09375 0 L 110.328125 0 L 49.5625 -69.953125 L 49.5625 0 L 12 0 L 12 -164.890625 L 49.5625 -164.890625 L 49.5625 -97.53125 L 106.140625 -164.890625 L 151.703125 -164.890625 L 85.34375 -86.75 Z M 162.09375 0 "/></g></g></g><g fill="#000000" fill-opacity="1"><g transform="translate(206.798854, 234.994661)"><g><path d="M 29.375 -152.703125 C 32.976562 -156.296875 37.3125 -158.09375 42.375 -158.09375 C 47.4375 -158.09375 51.765625 -156.296875 55.359375 -152.703125 C 58.960938 -149.109375 60.765625 -144.78125 60.765625 -139.71875 C 60.765625 -134.65625 58.960938 -130.320312 55.359375 -126.71875 C 51.765625 -123.125 47.4375 -121.328125 42.375 -121.328125 C 37.3125 -121.328125 32.976562 -123.125 29.375 -126.71875 C 25.78125 -130.320312 23.984375 -134.65625 23.984375 -139.71875 C 23.984375 -144.78125 25.78125 -149.109375 29.375 -152.703125 Z M 76.75 -152.703125 C 80.351562 -156.296875 84.6875 -158.09375 89.75 -158.09375 C 94.8125 -158.09375 99.140625 -156.296875 102.734375 -152.703125 C 106.328125 -149.109375 108.125 -144.78125 108.125 -139.71875 C 108.125 -134.65625 106.328125 -130.320312 102.734375 -126.71875 C 99.140625 -123.125 94.8125 -121.328125 89.75 -121.328125 C 84.6875 -121.328125 80.351562 -123.125 76.75 -126.71875 C 73.15625 -130.320312 71.359375 -134.65625 71.359375 -139.71875 C 71.359375 -144.78125 73.15625 -149.109375 76.75 -152.703125 Z M 22.375 -90.234375 C 10.519531 -80.046875 4.59375 -67.023438 4.59375 -51.171875 C 4.59375 -35.316406 10.289062 -22.320312 21.6875 -12.1875 C 33.082031 -2.0625 47.972656 3 66.359375 3 C 84.078125 3 98.695312 -2.09375 110.21875 -12.28125 C 121.75 -22.476562 127.515625 -35.4375 127.515625 -51.15625 C 127.515625 -66.882812 121.617188 -79.878906 109.828125 -90.140625 C 98.035156 -100.398438 83.546875 -105.53125 66.359375 -105.53125 C 48.898438 -105.53125 34.238281 -100.429688 22.375 -90.234375 Z M 48.765625 -33.875 C 44.367188 -38.34375 42.171875 -44.109375 42.171875 -51.171875 C 42.171875 -58.234375 44.46875 -64.03125 49.0625 -68.5625 C 53.664062 -73.09375 59.363281 -75.359375 66.15625 -75.359375 C 72.820312 -75.359375 78.453125 -73.09375 83.046875 -68.5625 C 87.640625 -64.03125 89.9375 -58.234375 89.9375 -51.171875 C 89.9375 -44.242188 87.703125 -38.515625 83.234375 -33.984375 C 78.773438 -29.453125 73.082031 -27.1875 66.15625 -27.1875 C 58.957031 -27.1875 53.160156 -29.414062 48.765625 -33.875 Z M 48.765625 -33.875 "/></g></g></g><g fill="#000000" fill-opacity="1"><g transform="translate(328.925209, 234.994661)"><g><path d="M 129.125 -102.53125 L 80.34375 -53.5625 L 133.921875 0 L 88.34375 0 L 47.375 -40.96875 L 47.375 0 L 12 0 L 12 -171.890625 L 47.375 -171.890625 L 47.375 -66.765625 L 83.140625 -102.53125 Z M 129.125 -102.53125 "/></g></g></g><g fill="#000000" fill-opacity="1"><g transform="translate(448.053364, 234.994661)"><g><path d="M 56.5625 -105.53125 C 62.425781 -105.53125 68.222656 -104.863281 73.953125 -103.53125 C 79.679688 -102.195312 83.945312 -100.863281 86.75 -99.53125 L 90.9375 -97.53125 L 79.34375 -74.359375 C 71.351562 -78.617188 63.757812 -80.75 56.5625 -80.75 C 52.5625 -80.75 49.726562 -80.316406 48.0625 -79.453125 C 46.40625 -78.585938 45.578125 -76.953125 45.578125 -74.546875 C 45.578125 -74.015625 45.640625 -73.484375 45.765625 -72.953125 C 45.898438 -72.421875 46.164062 -71.921875 46.5625 -71.453125 C 46.96875 -70.984375 47.335938 -70.582031 47.671875 -70.25 C 48.003906 -69.914062 48.566406 -69.550781 49.359375 -69.15625 C 50.160156 -68.757812 50.796875 -68.457031 51.265625 -68.25 C 51.734375 -68.050781 52.5 -67.753906 53.5625 -67.359375 C 54.632812 -66.960938 55.4375 -66.660156 55.96875 -66.453125 C 56.5 -66.253906 57.394531 -65.953125 58.65625 -65.546875 C 59.925781 -65.148438 60.894531 -64.890625 61.5625 -64.765625 C 65.6875 -63.554688 69.28125 -62.21875 72.34375 -60.75 C 75.414062 -59.289062 78.648438 -57.296875 82.046875 -54.765625 C 85.441406 -52.234375 88.070312 -49.035156 89.9375 -45.171875 C 91.800781 -41.304688 92.734375 -36.910156 92.734375 -31.984375 C 92.734375 -8.660156 76.546875 3 44.171875 3 C 36.835938 3 29.875 1.867188 23.28125 -0.390625 C 16.6875 -2.660156 11.925781 -4.929688 9 -7.203125 L 4.59375 -10.796875 L 18.984375 -34.984375 C 20.054688 -34.046875 21.457031 -32.941406 23.1875 -31.671875 C 24.914062 -30.410156 28.046875 -28.679688 32.578125 -26.484375 C 37.109375 -24.285156 41.039062 -23.1875 44.375 -23.1875 C 51.695312 -23.1875 55.359375 -25.648438 55.359375 -30.578125 C 55.359375 -32.847656 54.425781 -34.613281 52.5625 -35.875 C 50.695312 -37.144531 47.53125 -38.578125 43.0625 -40.171875 C 38.601562 -41.773438 35.109375 -43.242188 32.578125 -44.578125 C 26.179688 -47.898438 21.117188 -51.660156 17.390625 -55.859375 C 13.660156 -60.054688 11.796875 -65.617188 11.796875 -72.546875 C 11.796875 -82.941406 15.828125 -91.035156 23.890625 -96.828125 C 31.953125 -102.628906 42.84375 -105.53125 56.5625 -105.53125 Z M 56.5625 -105.53125 "/></g></g></g><g fill="#000000" fill-opacity="1"><g transform="translate(536.40011, 234.994661)"><g><path d="M 12 0 L 12 -102.53125 L 47.375 -102.53125 L 47.375 -87.75 L 47.765625 -87.75 C 48.035156 -88.28125 48.46875 -88.941406 49.0625 -89.734375 C 49.664062 -90.535156 50.96875 -91.9375 52.96875 -93.9375 C 54.96875 -95.9375 57.097656 -97.734375 59.359375 -99.328125 C 61.628906 -100.929688 64.5625 -102.363281 68.15625 -103.625 C 71.75 -104.894531 75.414062 -105.53125 79.15625 -105.53125 C 83.019531 -105.53125 86.816406 -105 90.546875 -103.9375 C 94.273438 -102.875 97.003906 -101.804688 98.734375 -100.734375 L 101.53125 -99.140625 L 86.75 -69.15625 C 82.351562 -72.882812 76.222656 -74.75 68.359375 -74.75 C 64.097656 -74.75 60.429688 -73.816406 57.359375 -71.953125 C 54.296875 -70.085938 52.128906 -67.820312 50.859375 -65.15625 C 49.597656 -62.488281 48.703125 -60.222656 48.171875 -58.359375 C 47.640625 -56.492188 47.375 -55.03125 47.375 -53.96875 L 47.375 0 Z M 12 0 "/></g></g></g><g fill="#000000" fill-opacity="1"><g transform="translate(625.946084, 234.994661)"><g><path d="M 115.734375 -46.375 L 41.375 -46.375 C 41.375 -39.175781 43.703125 -33.84375 48.359375 -30.375 C 53.023438 -26.914062 58.09375 -25.1875 63.5625 -25.1875 C 69.289062 -25.1875 73.820312 -25.953125 77.15625 -27.484375 C 80.488281 -29.015625 84.285156 -32.046875 88.546875 -36.578125 L 114.125 -23.78125 C 103.46875 -5.925781 85.75 3 60.96875 3 C 45.507812 3 32.25 -2.296875 21.1875 -12.890625 C 10.125 -23.484375 4.59375 -36.238281 4.59375 -51.15625 C 4.59375 -66.082031 10.125 -78.875 21.1875 -89.53125 C 32.25 -100.195312 45.507812 -105.53125 60.96875 -105.53125 C 77.21875 -105.53125 90.4375 -100.832031 100.625 -91.4375 C 110.820312 -82.050781 115.921875 -68.628906 115.921875 -51.171875 C 115.921875 -48.765625 115.859375 -47.164062 115.734375 -46.375 Z M 42.375 -65.953125 L 81.34375 -65.953125 C 80.550781 -71.285156 78.453125 -75.382812 75.046875 -78.25 C 71.648438 -81.113281 67.289062 -82.546875 61.96875 -82.546875 C 56.101562 -82.546875 51.4375 -81.015625 47.96875 -77.953125 C 44.5 -74.890625 42.632812 -70.890625 42.375 -65.953125 Z M 42.375 -65.953125 "/></g></g></g><g fill="#000000" fill-opacity="1"><g transform="translate(736.479402, 234.994661)"><g><path d="M 18.984375 -12.6875 C 9.390625 -23.144531 4.59375 -35.96875 4.59375 -51.15625 C 4.59375 -66.351562 9.390625 -79.210938 18.984375 -89.734375 C 28.578125 -100.265625 40.769531 -105.53125 55.5625 -105.53125 C 69.15625 -105.53125 80.347656 -101.265625 89.140625 -92.734375 L 89.140625 -171.890625 L 124.515625 -171.890625 L 124.515625 0 L 89.546875 0 L 89.546875 -11.59375 L 89.140625 -11.59375 C 80.347656 -1.863281 69.15625 3 55.5625 3 C 40.769531 3 28.578125 -2.226562 18.984375 -12.6875 Z M 49.0625 -68.5625 C 44.46875 -64.03125 42.171875 -58.234375 42.171875 -51.171875 C 42.171875 -44.109375 44.367188 -38.34375 48.765625 -33.875 C 53.160156 -29.414062 58.957031 -27.1875 66.15625 -27.1875 C 73.082031 -27.1875 78.773438 -29.453125 83.234375 -33.984375 C 87.703125 -38.515625 89.9375 -44.242188 89.9375 -51.171875 C 89.9375 -58.234375 87.640625 -64.03125 83.046875 -68.5625 C 78.453125 -73.09375 72.820312 -75.359375 66.15625 -75.359375 C 59.363281 -75.359375 53.664062 -73.09375 49.0625 -68.5625 Z M 49.0625 -68.5625 "/></g></g></g><g fill="#000000" fill-opacity="1"><g transform="translate(863.003081, 234.994661)"><g><path d="M 56.5625 -105.53125 C 62.425781 -105.53125 68.222656 -104.863281 73.953125 -103.53125 C 79.679688 -102.195312 83.945312 -100.863281 86.75 -99.53125 L 90.9375 -97.53125 L 79.34375 -74.359375 C 71.351562 -78.617188 63.757812 -80.75 56.5625 -80.75 C 52.5625 -80.75 49.726562 -80.316406 48.0625 -79.453125 C 46.40625 -78.585938 45.578125 -76.953125 45.578125 -74.546875 C 45.578125 -74.015625 45.640625 -73.484375 45.765625 -72.953125 C 45.898438 -72.421875 46.164062 -71.921875 46.5625 -71.453125 C 46.96875 -70.984375 47.335938 -70.582031 47.671875 -70.25 C 48.003906 -69.914062 48.566406 -69.550781 49.359375 -69.15625 C 50.160156 -68.757812 50.796875 -68.457031 51.265625 -68.25 C 51.734375 -68.050781 52.5 -67.753906 53.5625 -67.359375 C 54.632812 -66.960938 55.4375 -66.660156 55.96875 -66.453125 C 56.5 -66.253906 57.394531 -65.953125 58.65625 -65.546875 C 59.925781 -65.148438 60.894531 -64.890625 61.5625 -64.765625 C 65.6875 -63.554688 69.28125 -62.21875 72.34375 -60.75 C 75.414062 -59.289062 78.648438 -57.296875 82.046875 -54.765625 C 85.441406 -52.234375 88.070312 -49.035156 89.9375 -45.171875 C 91.800781 -41.304688 92.734375 -36.910156 92.734375 -31.984375 C 92.734375 -8.660156 76.546875 3 44.171875 3 C 36.835938 3 29.875 1.867188 23.28125 -0.390625 C 16.6875 -2.660156 11.925781 -4.929688 9 -7.203125 L 4.59375 -10.796875 L 18.984375 -34.984375 C 20.054688 -34.046875 21.457031 -32.941406 23.1875 -31.671875 C 24.914062 -30.410156 28.046875 -28.679688 32.578125 -26.484375 C 37.109375 -24.285156 41.039062 -23.1875 44.375 -23.1875 C 51.695312 -23.1875 55.359375 -25.648438 55.359375 -30.578125 C 55.359375 -32.847656 54.425781 -34.613281 52.5625 -35.875 C 50.695312 -37.144531 47.53125 -38.578125 43.0625 -40.171875 C 38.601562 -41.773438 35.109375 -43.242188 32.578125 -44.578125 C 26.179688 -47.898438 21.117188 -51.660156 17.390625 -55.859375 C 13.660156 -60.054688 11.796875 -65.617188 11.796875 -72.546875 C 11.796875 -82.941406 15.828125 -91.035156 23.890625 -96.828125 C 31.953125 -102.628906 42.84375 -105.53125 56.5625 -105.53125 Z M 56.5625 -105.53125 "/></g></g></g><g fill="#000000" fill-opacity="1"><g transform="translate(951.349828, 234.994661)"><g><path d="M 129.125 -102.53125 L 80.34375 -53.5625 L 133.921875 0 L 88.34375 0 L 47.375 -40.96875 L 47.375 0 L 12 0 L 12 -171.890625 L 47.375 -171.890625 L 47.375 -66.765625 L 83.140625 -102.53125 Z M 129.125 -102.53125 "/></g></g></g><g fill="#000000" fill-opacity="1"><g transform="translate(1070.477983, 234.994661)"><g><path d="M 18.984375 -12.6875 C 9.390625 -23.144531 4.59375 -35.96875 4.59375 -51.15625 C 4.59375 -66.351562 9.390625 -79.210938 18.984375 -89.734375 C 28.578125 -100.265625 40.769531 -105.53125 55.5625 -105.53125 C 69.15625 -105.53125 80.347656 -101.265625 89.140625 -92.734375 L 89.140625 -102.53125 L 124.515625 -102.53125 L 124.515625 0 L 89.546875 0 L 89.546875 -11.59375 L 89.140625 -11.59375 C 80.347656 -1.863281 69.15625 3 55.5625 3 C 40.769531 3 28.578125 -2.226562 18.984375 -12.6875 Z M 49.0625 -68.5625 C 44.46875 -64.03125 42.171875 -58.234375 42.171875 -51.171875 C 42.171875 -44.109375 44.367188 -38.34375 48.765625 -33.875 C 53.160156 -29.414062 58.957031 -27.1875 66.15625 -27.1875 C 73.082031 -27.1875 78.773438 -29.453125 83.234375 -33.984375 C 87.703125 -38.515625 89.9375 -44.242188 89.9375 -51.171875 C 89.9375 -58.234375 87.640625 -64.03125 83.046875 -68.5625 C 78.453125 -73.09375 72.820312 -75.359375 66.15625 -75.359375 C 59.363281 -75.359375 53.664062 -73.09375 49.0625 -68.5625 Z M 49.0625 -68.5625 "/></g></g></g><g fill="#000000" fill-opacity="1"><g transform="translate(1197.001662, 234.994661)"><g><path d="M 117.53125 -89.84375 C 127.125 -79.382812 131.921875 -66.554688 131.921875 -51.359375 C 131.921875 -36.171875 127.125 -23.3125 117.53125 -12.78125 C 107.9375 -2.257812 95.742188 3 80.953125 3 C 67.359375 3 56.164062 -1.265625 47.375 -9.796875 L 47.375 51.96875 L 12 51.96875 L 12 -102.53125 L 46.96875 -102.53125 L 46.96875 -90.9375 L 47.375 -90.9375 C 56.164062 -100.664062 67.359375 -105.53125 80.953125 -105.53125 C 95.742188 -105.53125 107.9375 -100.300781 117.53125 -89.84375 Z M 87.4375 -33.984375 C 92.039062 -38.515625 94.34375 -44.3125 94.34375 -51.375 C 94.34375 -58.4375 92.144531 -64.195312 87.75 -68.65625 C 83.351562 -73.125 77.554688 -75.359375 70.359375 -75.359375 C 63.429688 -75.359375 57.734375 -73.09375 53.265625 -68.5625 C 48.804688 -64.03125 46.578125 -58.300781 46.578125 -51.375 C 46.578125 -44.3125 48.875 -38.515625 53.46875 -33.984375 C 58.0625 -29.453125 63.691406 -27.1875 70.359375 -27.1875 C 77.148438 -27.1875 82.84375 -29.453125 87.4375 -33.984375 Z M 87.4375 -33.984375 "/></g></g></g><g fill="#000000" fill-opacity="1"><g transform="translate(1323.525341, 234.994661)"><g><path d="M 34.78125 -42.765625 C 41.175781 -42.765625 46.601562 -40.53125 51.0625 -36.0625 C 55.53125 -31.601562 57.765625 -26.175781 57.765625 -19.78125 C 57.765625 -13.519531 55.53125 -8.15625 51.0625 -3.6875 C 46.601562 0.769531 41.175781 3 34.78125 3 C 28.519531 3 23.15625 0.769531 18.6875 -3.6875 C 14.226562 -8.15625 12 -13.519531 12 -19.78125 C 12 -26.175781 14.226562 -31.601562 18.6875 -36.0625 C 23.15625 -40.53125 28.519531 -42.765625 34.78125 -42.765625 Z M 34.78125 -42.765625 "/></g></g></g></svg>