<svg xmlns="http://www.w3.org/2000/svg" xmlns:xlink="http://www.w3.org/1999/xlink" width="500" zoomAndPan="magnify" viewBox="0 0 375 30.000001" height="40" preserveAspectRatio="xMidYMid meet" version="1.0"><defs><clipPath id="6d9c1f70cc"><path d="M 32.804688 8.125 L 342 8.125 L 342 20 L 32.804688 20 Z M 32.804688 8.125 " clip-rule="nonzero"/></clipPath></defs><g clip-path="url(#6d9c1f70cc)"><path fill="#000000" d="M 319.253906 14.980469 C 320.800781 15.417969 322.28125 15.972656 323.890625 16.21875 C 329.269531 17.148438 334.648438 17.953125 340.027344 18.816406 C 339.96875 19.183594 339.96875 19.496094 339.90625 19.867188 C 335.761719 19.496094 331.683594 19.128906 327.535156 18.628906 C 320.925781 17.890625 314.308594 17.023438 307.628906 16.28125 C 306.761719 16.160156 305.464844 16.035156 305.09375 16.527344 C 303.113281 18.753906 300.765625 17.953125 298.480469 17.703125 C 273.75 15.355469 248.894531 14.980469 224.101562 14.980469 C 207.285156 14.980469 190.527344 15.660156 173.710938 16.21875 C 160.664062 16.652344 147.621094 17.453125 134.574219 17.890625 C 131.171875 18.011719 127.773438 17.148438 124.4375 17.148438 C 117.140625 17.148438 109.90625 17.390625 102.609375 17.515625 C 97.105469 17.640625 91.605469 17.828125 86.101562 17.953125 C 74.789062 18.257812 63.535156 18.566406 52.222656 18.878906 C 51.480469 18.878906 50.734375 19.003906 49.992188 19.066406 C 48.261719 19.246094 46.46875 20.421875 44.988281 18.074219 C 44.550781 17.453125 42.515625 17.828125 41.152344 17.515625 C 51.542969 14.859375 62.300781 14.734375 72.808594 12.878906 C 66.75 12.695312 60.6875 12.449219 54.628906 12.261719 C 49.867188 12.074219 45.109375 11.769531 40.410156 11.832031 C 37.9375 11.832031 35.402344 12.386719 32.804688 12.695312 C 33.054688 10.53125 34.847656 9.976562 36.824219 9.914062 C 41.585938 9.726562 46.34375 9.601562 51.105469 9.664062 C 56.734375 9.664062 62.425781 9.976562 68.046875 9.976562 C 74.914062 10.039062 81.710938 10.039062 88.574219 9.976562 C 129.195312 9.542969 169.753906 9.109375 210.3125 8.675781 C 223.109375 8.550781 235.910156 8.183594 248.648438 8.246094 C 263.667969 8.308594 278.695312 8.675781 293.65625 9.109375 C 306.699219 9.542969 319.75 10.21875 332.796875 10.902344 C 335.636719 11.023438 338.667969 11.023438 341.941406 13.625 C 337.121094 13.804688 333.535156 15.910156 329.390625 15.417969 C 325.992188 14.980469 322.59375 15.167969 319.195312 15.105469 C 317.519531 14.859375 315.789062 14.671875 314.121094 14.425781 C 314.121094 14.734375 314.121094 15.105469 314.058594 15.417969 C 315.789062 15.292969 317.519531 15.105469 319.253906 14.980469 Z M 78.929688 15.042969 C 78.929688 15.355469 78.929688 15.597656 78.929688 15.910156 C 97.542969 15.230469 116.148438 14.550781 134.757812 13.867188 C 134.757812 13.625 134.757812 13.4375 134.757812 13.1875 C 116.089844 13.804688 97.542969 14.425781 78.929688 15.042969 Z M 151.332031 13.25 C 151.332031 13.128906 151.332031 13.003906 151.332031 12.878906 C 148.050781 12.878906 144.777344 12.878906 141.5 12.878906 C 141.5 13.003906 141.5 13.128906 141.5 13.25 C 144.777344 13.25 148.050781 13.25 151.332031 13.25 Z M 158.8125 12.757812 C 158.75 12.816406 158.6875 12.878906 158.625 12.941406 C 161.285156 12.941406 163.941406 12.941406 166.664062 12.941406 C 166.664062 12.878906 166.664062 12.816406 166.664062 12.757812 C 164.003906 12.757812 161.410156 12.757812 158.8125 12.757812 Z M 136.308594 16.898438 C 136.367188 16.773438 136.367188 16.589844 136.425781 16.464844 C 134.757812 16.464844 133.027344 16.464844 131.359375 16.464844 C 131.359375 16.589844 131.359375 16.773438 131.359375 16.898438 C 132.964844 16.898438 134.632812 16.898438 136.308594 16.898438 Z M 73.179688 16.035156 C 73.121094 15.847656 73.121094 15.597656 73.058594 15.417969 C 72.003906 15.480469 70.890625 15.535156 69.839844 15.535156 C 69.839844 15.722656 69.839844 15.847656 69.839844 16.035156 C 71.015625 16.035156 72.128906 16.035156 73.179688 16.035156 Z M 73.179688 16.035156 " fill-opacity="1" fill-rule="nonzero"/></g></svg>