<svg xmlns="http://www.w3.org/2000/svg" xmlns:xlink="http://www.w3.org/1999/xlink" width="500" zoomAndPan="magnify" viewBox="0 0 375 374.999991" height="500" preserveAspectRatio="xMidYMid meet" version="1.0"><defs><clipPath id="fad467d759"><path d="M 51.449219 182.058594 L 323.699219 182.058594 L 323.699219 193 L 51.449219 193 Z M 51.449219 182.058594 " clip-rule="nonzero"/></clipPath></defs><g clip-path="url(#fad467d759)"><path fill="#000000" d="M 303.578125 188.09375 C 304.9375 188.476562 306.242188 188.964844 307.65625 189.183594 C 312.390625 190 317.125 190.707031 321.859375 191.46875 C 321.808594 191.792969 321.808594 192.066406 321.753906 192.394531 C 318.105469 192.066406 314.515625 191.742188 310.867188 191.304688 C 305.046875 190.652344 299.222656 189.890625 293.34375 189.238281 C 292.582031 189.128906 291.441406 189.019531 291.113281 189.453125 C 289.371094 191.414062 287.304688 190.707031 285.292969 190.488281 C 263.523438 188.421875 241.648438 188.09375 219.824219 188.09375 C 205.023438 188.09375 190.273438 188.691406 175.472656 189.183594 C 163.988281 189.5625 152.507812 190.269531 141.023438 190.652344 C 138.03125 190.761719 135.039062 190 132.101562 190 C 125.679688 190 119.3125 190.214844 112.890625 190.324219 C 108.046875 190.433594 103.203125 190.597656 98.359375 190.707031 C 88.402344 190.976562 78.496094 191.25 68.539062 191.523438 C 67.886719 191.523438 67.230469 191.632812 66.578125 191.6875 C 65.054688 191.847656 63.476562 192.882812 62.171875 190.816406 C 61.789062 190.269531 59.996094 190.597656 58.796875 190.324219 C 67.941406 187.984375 77.410156 187.875 86.660156 186.242188 C 81.328125 186.082031 75.992188 185.863281 70.660156 185.699219 C 66.46875 185.535156 62.28125 185.265625 58.144531 185.320312 C 55.96875 185.320312 53.734375 185.808594 51.449219 186.082031 C 51.667969 184.175781 53.246094 183.6875 54.988281 183.632812 C 59.179688 183.46875 63.367188 183.359375 67.558594 183.414062 C 72.511719 183.414062 77.519531 183.6875 82.46875 183.6875 C 88.511719 183.742188 94.496094 183.742188 100.535156 183.6875 C 136.289062 183.304688 171.988281 182.925781 207.6875 182.542969 C 218.953125 182.433594 230.21875 182.109375 241.429688 182.164062 C 254.652344 182.21875 267.878906 182.542969 281.046875 182.925781 C 292.527344 183.304688 304.011719 183.902344 315.496094 184.503906 C 317.996094 184.609375 320.664062 184.609375 323.546875 186.898438 C 319.304688 187.058594 316.148438 188.910156 312.5 188.476562 C 309.507812 188.09375 306.515625 188.257812 303.523438 188.203125 C 302.050781 187.984375 300.527344 187.820312 299.058594 187.605469 C 299.058594 187.875 299.058594 188.203125 299.003906 188.476562 C 300.527344 188.367188 302.050781 188.203125 303.578125 188.09375 Z M 92.046875 188.148438 C 92.046875 188.421875 92.046875 188.636719 92.046875 188.910156 C 108.429688 188.3125 124.808594 187.714844 141.1875 187.113281 C 141.1875 186.898438 141.1875 186.734375 141.1875 186.515625 C 124.753906 187.058594 108.429688 187.605469 92.046875 188.148438 Z M 155.773438 186.570312 C 155.773438 186.460938 155.773438 186.351562 155.773438 186.242188 C 152.886719 186.242188 150.003906 186.242188 147.121094 186.242188 C 147.121094 186.351562 147.121094 186.460938 147.121094 186.570312 C 150.003906 186.570312 152.886719 186.570312 155.773438 186.570312 Z M 162.359375 186.136719 C 162.304688 186.191406 162.25 186.242188 162.195312 186.296875 C 164.535156 186.296875 166.875 186.296875 169.269531 186.296875 C 169.269531 186.242188 169.269531 186.191406 169.269531 186.136719 C 166.929688 186.136719 164.644531 186.136719 162.359375 186.136719 Z M 142.550781 189.78125 C 142.601562 189.671875 142.601562 189.507812 142.65625 189.398438 C 141.1875 189.398438 139.664062 189.398438 138.195312 189.398438 C 138.195312 189.507812 138.195312 189.671875 138.195312 189.78125 C 139.609375 189.78125 141.078125 189.78125 142.550781 189.78125 Z M 86.988281 189.019531 C 86.933594 188.855469 86.933594 188.636719 86.878906 188.476562 C 85.953125 188.53125 84.972656 188.582031 84.046875 188.582031 C 84.046875 188.746094 84.046875 188.855469 84.046875 189.019531 C 85.082031 189.019531 86.0625 189.019531 86.988281 189.019531 Z M 86.988281 189.019531 " fill-opacity="1" fill-rule="nonzero"/></g></svg>