<svg xmlns="http://www.w3.org/2000/svg" xmlns:xlink="http://www.w3.org/1999/xlink" width="1920" zoomAndPan="magnify" viewBox="0 0 1440 52.499999" height="70" preserveAspectRatio="xMidYMid meet" version="1.0"><defs><clipPath id="9bd6fe7e59"><path d="M 8 3.652344 L 60 3.652344 L 60 51 L 8 51 Z M 8 3.652344 " clip-rule="nonzero"/></clipPath></defs><g clip-path="url(#9bd6fe7e59)"><path fill="#000000" d="M 36.972656 3.65625 C 46.75 4.390625 54.949219 9.636719 57.980469 17.503906 C 61.277344 25.910156 59.234375 34.457031 51.222656 41.054688 C 46.675781 44.726562 41.632812 47.503906 36.09375 49.382812 C 35.296875 49.6875 34.476562 49.921875 33.640625 50.09375 C 32.804688 50.261719 31.957031 50.363281 31.105469 50.390625 C 30.25 50.421875 29.398438 50.382812 28.550781 50.273438 C 27.707031 50.164062 26.871094 49.988281 26.054688 49.738281 C 25.238281 49.492188 24.445312 49.183594 23.679688 48.804688 C 22.910156 48.429688 22.179688 47.992188 21.488281 47.492188 C 20.792969 46.996094 20.144531 46.445312 19.539062 45.84375 C 18.9375 45.238281 18.386719 44.589844 17.890625 43.894531 C 14.59375 39.648438 10.671875 35.191406 9.453125 30.234375 C 6.824219 19.589844 13.539062 10.03125 25.21875 6.089844 C 28.984375 4.753906 33.050781 4.433594 36.972656 3.65625 Z M 36.972656 3.65625 " fill-opacity="1" fill-rule="nonzero"/></g><path fill="#000000" d="M 1012.644531 6.101562 C 1024.476562 6.035156 1032.421875 10.722656 1035.53125 18.929688 C 1038.640625 27.136719 1036.144531 36.378906 1029.15625 42.875 C 1028.402344 43.605469 1027.589844 44.265625 1026.71875 44.851562 C 1025.847656 45.4375 1024.933594 45.945312 1023.972656 46.371094 C 1023.011719 46.796875 1022.023438 47.136719 1021.003906 47.386719 C 1019.980469 47.636719 1018.949219 47.796875 1017.898438 47.867188 C 1016.851562 47.933594 1015.804688 47.910156 1014.761719 47.796875 C 1013.714844 47.679688 1012.691406 47.472656 1011.683594 47.175781 C 1010.675781 46.878906 1009.699219 46.5 1008.761719 46.03125 C 1007.820312 45.5625 1006.929688 45.015625 1006.085938 44.390625 C 1004.777344 43.410156 1003.414062 42.515625 1001.996094 41.699219 C 993.933594 37.3125 990.265625 30.933594 991.363281 23.046875 C 992.59375 14.265625 998.351562 8.363281 1007.390625 6.585938 C 1009.132812 6.324219 1010.882812 6.160156 1012.644531 6.101562 Z M 1012.644531 6.101562 " fill-opacity="1" fill-rule="nonzero"/><path fill="#000000" d="M 1314.859375 5.332031 C 1327.292969 5.269531 1337.183594 14.417969 1337.183594 25.964844 C 1337.183594 37.015625 1325.472656 48.679688 1314 48.691406 C 1301.015625 48.691406 1294.402344 38.96875 1293.71875 25.644531 C 1293.136719 14.078125 1302.71875 5.398438 1314.859375 5.332031 Z M 1314.859375 5.332031 " fill-opacity="1" fill-rule="nonzero"/><path fill="#000000" d="M 1222.625 6.167969 C 1234.941406 6.167969 1244.101562 14.75 1244.046875 26.28125 C 1244.046875 37.574219 1232.578125 47.824219 1220.007812 47.855469 C 1208.59375 47.855469 1200.59375 38.824219 1200.605469 25.910156 C 1200.617188 14.761719 1210.21875 6.179688 1222.625 6.167969 Z M 1222.625 6.167969 " fill-opacity="1" fill-rule="nonzero"/><path fill="#000000" d="M 113.550781 26.5 C 113.417969 15.101562 123.144531 5.761719 135.226562 5.847656 C 147.3125 5.9375 156.210938 14.363281 156.257812 25.601562 C 156.257812 38.957031 147.886719 48.097656 135.480469 48.1875 C 124.460938 48.285156 113.671875 37.605469 113.550781 26.5 Z M 113.550781 26.5 " fill-opacity="1" fill-rule="nonzero"/><path fill="#000000" d="M 929.683594 6.945312 C 930.34375 6.933594 931.007812 6.949219 931.667969 6.992188 C 932.332031 7.039062 932.988281 7.117188 933.640625 7.222656 C 934.296875 7.332031 934.945312 7.46875 935.585938 7.632812 C 936.226562 7.800781 936.859375 7.996094 937.484375 8.222656 C 938.105469 8.445312 938.71875 8.699219 939.320312 8.980469 C 939.917969 9.261719 940.503906 9.570312 941.078125 9.90625 C 941.648438 10.242188 942.203125 10.605469 942.742188 10.992188 C 943.277344 11.378906 943.796875 11.789062 944.296875 12.222656 C 944.796875 12.65625 945.277344 13.113281 945.734375 13.59375 C 946.191406 14.074219 946.628906 14.570312 947.039062 15.089844 C 947.449219 15.609375 947.835938 16.144531 948.199219 16.699219 C 948.5625 17.257812 948.898438 17.824219 949.207031 18.410156 C 949.515625 18.996094 949.796875 19.597656 950.050781 20.207031 C 950.304688 20.820312 950.53125 21.441406 950.726562 22.074219 C 950.921875 22.707031 951.089844 23.347656 951.226562 23.996094 C 951.363281 24.644531 951.46875 25.296875 951.546875 25.953125 C 952.558594 35.183594 945.304688 43.839844 934.527344 46.289062 C 921.167969 49.304688 909.917969 43.707031 907.28125 32.734375 C 904.304688 20.53125 916.046875 7.011719 929.683594 6.945312 Z M 929.683594 6.945312 " fill-opacity="1" fill-rule="nonzero"/><path fill="#000000" d="M 215.597656 27.304688 C 215.542969 15.726562 225.429688 5.949219 237.40625 5.847656 C 248.667969 5.707031 257.839844 14.277344 257.929688 25.007812 C 258.015625 36.53125 247.402344 48.1875 236.734375 48.261719 C 225.605469 48.304688 215.664062 38.464844 215.597656 27.304688 Z M 215.597656 27.304688 " fill-opacity="1" fill-rule="nonzero"/><path fill="#000000" d="M 715.792969 46.867188 C 701.949219 46.539062 693.996094 39.328125 694.378906 27.488281 C 694.761719 15.648438 704.894531 6.78125 717.671875 7.15625 C 729.921875 7.515625 738.4375 15.703125 738.050781 26.777344 C 737.710938 36.96875 726.460938 47.132812 715.792969 46.867188 Z M 715.792969 46.867188 " fill-opacity="1" fill-rule="nonzero"/><path fill="#000000" d="M 420.257812 7.40625 C 430.222656 7.40625 437.199219 10.164062 440.816406 18.007812 C 444.21875 25.394531 443.164062 32.539062 437.804688 38.925781 C 432.191406 45.597656 425.289062 48.417969 416.929688 45.429688 C 412.414062 43.828125 407.25 42.25 404.074219 39.011719 C 394.515625 29.300781 398.988281 13.882812 412.304688 9.140625 C 414.90625 8.335938 417.558594 7.757812 420.257812 7.40625 Z M 420.257812 7.40625 " fill-opacity="1" fill-rule="nonzero"/><path fill="#000000" d="M 1123.886719 6.210938 C 1135.148438 6.210938 1144.003906 14.363281 1144.132812 24.867188 C 1144.265625 36.09375 1132.597656 47.746094 1121.183594 47.769531 C 1110.195312 47.769531 1103.714844 40.085938 1103.605469 26.65625 C 1103.492188 14.980469 1112.152344 6.246094 1123.886719 6.210938 Z M 1123.886719 6.210938 " fill-opacity="1" fill-rule="nonzero"/><path fill="#000000" d="M 1406.9375 7.746094 C 1422.550781 7.921875 1433.207031 20.917969 1428.253906 34.085938 C 1424.363281 44.390625 1416.59375 47.152344 1403.367188 46.035156 C 1392.050781 45.070312 1385.46875 37.355469 1386.097656 27.378906 C 1386.722656 17.40625 1397.0625 7.628906 1406.9375 7.746094 Z M 1406.9375 7.746094 " fill-opacity="1" fill-rule="nonzero"/><path fill="#000000" d="M 630.578125 6.355469 C 641.972656 6.355469 650.816406 14.914062 650.738281 25.746094 C 650.664062 36.203125 639.039062 47.691406 628.589844 47.691406 C 618.140625 47.691406 609.503906 37.816406 609.648438 25.667969 C 609.769531 14.628906 618.8125 6.300781 630.578125 6.355469 Z M 630.578125 6.355469 " fill-opacity="1" fill-rule="nonzero"/><path fill="#000000" d="M 331.648438 6.835938 C 342.910156 6.835938 352.523438 15.210938 351.855469 25.492188 C 351.128906 36.464844 344.953125 47.441406 328.714844 47.21875 C 318.09375 47.097656 311.082031 39.121094 311.136719 27.136719 C 311.179688 15.332031 319.804688 6.804688 331.648438 6.835938 Z M 331.648438 6.835938 " fill-opacity="1" fill-rule="nonzero"/><path fill="#000000" d="M 820.914062 6.519531 C 831.84375 6.519531 840.886719 15.167969 840.800781 25.570312 C 840.699219 37.199219 831.195312 47.515625 820.648438 47.515625 C 810.421875 47.515625 800.875 36.882812 801.105469 25.734375 C 801.117188 25.097656 801.164062 24.460938 801.238281 23.828125 C 801.316406 23.195312 801.421875 22.566406 801.558594 21.945312 C 801.695312 21.320312 801.863281 20.707031 802.058594 20.101562 C 802.257812 19.496094 802.480469 18.898438 802.738281 18.316406 C 802.992188 17.730469 803.273438 17.160156 803.585938 16.601562 C 803.894531 16.046875 804.234375 15.503906 804.597656 14.980469 C 804.957031 14.457031 805.347656 13.953125 805.757812 13.464844 C 806.171875 12.980469 806.605469 12.515625 807.066406 12.070312 C 807.523438 11.625 808 11.203125 808.5 10.808594 C 809 10.410156 809.515625 10.039062 810.050781 9.691406 C 810.585938 9.34375 811.136719 9.023438 811.703125 8.726562 C 812.269531 8.433594 812.847656 8.167969 813.441406 7.929688 C 814.035156 7.695312 814.636719 7.484375 815.25 7.308594 C 815.863281 7.128906 816.480469 6.980469 817.109375 6.859375 C 817.734375 6.742188 818.367188 6.65625 819.003906 6.597656 C 819.636719 6.539062 820.273438 6.515625 820.914062 6.519531 Z M 820.914062 6.519531 " fill-opacity="1" fill-rule="nonzero"/><path fill="#000000" d="M 525.015625 8.042969 C 536.828125 8.164062 545.441406 16.285156 545.34375 27.203125 C 545.253906 37.246094 536.246094 46.1875 526.359375 46.011719 C 513.710938 45.78125 504.242188 37.234375 504.460938 26.261719 C 504.636719 15.726562 513.460938 7.890625 525.015625 8.042969 Z M 525.015625 8.042969 " fill-opacity="1" fill-rule="nonzero"/></svg>