<svg xmlns="http://www.w3.org/2000/svg" xmlns:xlink="http://www.w3.org/1999/xlink" width="1920" zoomAndPan="magnify" viewBox="0 0 1440 112.499997" height="150" preserveAspectRatio="xMidYMid meet" version="1.0"><defs><clipPath id="4a5d161d8f"><path d="M 30 32.082031 L 80 32.082031 L 80 78 L 30 78 Z M 30 32.082031 " clip-rule="nonzero"/></clipPath></defs><g clip-path="url(#4a5d161d8f)"><path fill="#000000" d="M 57.820312 32.085938 C 67.398438 32.804688 75.425781 37.914062 78.394531 45.578125 C 81.625 53.765625 79.621094 62.089844 71.777344 68.515625 C 67.324219 72.09375 62.382812 74.796875 56.960938 76.628906 C 56.179688 76.921875 55.378906 77.152344 54.558594 77.320312 C 53.738281 77.484375 52.910156 77.582031 52.074219 77.613281 C 51.238281 77.640625 50.402344 77.601562 49.574219 77.496094 C 48.742188 77.390625 47.929688 77.214844 47.128906 76.976562 C 46.324219 76.734375 45.550781 76.433594 44.800781 76.066406 C 44.046875 75.699219 43.332031 75.273438 42.652344 74.789062 C 41.972656 74.304688 41.335938 73.769531 40.746094 73.179688 C 40.15625 72.589844 39.617188 71.960938 39.128906 71.28125 C 35.902344 67.144531 32.058594 62.804688 30.867188 57.976562 C 28.292969 47.605469 34.867188 38.296875 46.308594 34.460938 C 49.996094 33.15625 53.980469 32.847656 57.820312 32.085938 Z M 57.820312 32.085938 " fill-opacity="1" fill-rule="nonzero"/></g><path fill="#000000" d="M 1013.398438 34.472656 C 1024.988281 34.40625 1032.769531 38.972656 1035.8125 46.964844 C 1038.859375 54.960938 1036.417969 63.960938 1029.574219 70.289062 C 1028.835938 71 1028.039062 71.640625 1027.183594 72.214844 C 1026.332031 72.785156 1025.4375 73.28125 1024.496094 73.695312 C 1023.554688 74.109375 1022.585938 74.4375 1021.585938 74.683594 C 1020.585938 74.929688 1019.574219 75.082031 1018.546875 75.152344 C 1017.519531 75.21875 1016.496094 75.195312 1015.472656 75.082031 C 1014.449219 74.96875 1013.445312 74.769531 1012.457031 74.480469 C 1011.472656 74.191406 1010.515625 73.816406 1009.597656 73.363281 C 1008.675781 72.90625 1007.800781 72.375 1006.976562 71.765625 C 1005.695312 70.8125 1004.359375 69.9375 1002.972656 69.144531 C 995.074219 64.871094 991.480469 58.660156 992.554688 50.972656 C 993.761719 42.421875 999.398438 36.671875 1008.257812 34.941406 C 1009.960938 34.6875 1011.675781 34.53125 1013.398438 34.472656 Z M 1013.398438 34.472656 " fill-opacity="1" fill-rule="nonzero"/><path fill="#000000" d="M 1309.390625 33.722656 C 1321.570312 33.660156 1331.253906 42.574219 1331.253906 53.816406 C 1331.253906 64.582031 1319.785156 75.941406 1308.550781 75.953125 C 1295.832031 75.953125 1289.355469 66.484375 1288.6875 53.507812 C 1288.117188 42.242188 1297.5 33.785156 1309.390625 33.722656 Z M 1309.390625 33.722656 " fill-opacity="1" fill-rule="nonzero"/><path fill="#000000" d="M 1219.054688 34.535156 C 1231.117188 34.535156 1240.09375 42.894531 1240.039062 54.128906 C 1240.039062 65.125 1228.804688 75.109375 1216.492188 75.140625 C 1205.3125 75.140625 1197.480469 66.34375 1197.492188 53.765625 C 1197.5 42.90625 1206.90625 34.546875 1219.054688 34.535156 Z M 1219.054688 34.535156 " fill-opacity="1" fill-rule="nonzero"/><path fill="#000000" d="M 132.820312 54.339844 C 132.691406 43.234375 142.214844 34.140625 154.050781 34.226562 C 165.890625 34.3125 174.605469 42.519531 174.648438 53.464844 C 174.648438 66.472656 166.449219 75.375 154.300781 75.460938 C 143.507812 75.558594 132.941406 65.15625 132.820312 54.339844 Z M 132.820312 54.339844 " fill-opacity="1" fill-rule="nonzero"/><path fill="#000000" d="M 932.148438 35.292969 C 932.796875 35.28125 933.445312 35.292969 934.09375 35.339844 C 934.738281 35.382812 935.382812 35.460938 936.023438 35.5625 C 936.664062 35.667969 937.300781 35.800781 937.929688 35.964844 C 938.558594 36.125 939.175781 36.316406 939.789062 36.535156 C 940.398438 36.753906 940.996094 37 941.585938 37.277344 C 942.171875 37.550781 942.746094 37.851562 943.304688 38.175781 C 943.867188 38.503906 944.410156 38.855469 944.9375 39.234375 C 945.464844 39.609375 945.972656 40.011719 946.460938 40.433594 C 946.949219 40.855469 947.421875 41.300781 947.867188 41.769531 C 948.316406 42.234375 948.742188 42.71875 949.144531 43.226562 C 949.546875 43.730469 949.925781 44.253906 950.28125 44.796875 C 950.636719 45.335938 950.964844 45.890625 951.269531 46.460938 C 951.570312 47.03125 951.847656 47.613281 952.09375 48.210938 C 952.34375 48.808594 952.5625 49.414062 952.757812 50.027344 C 952.949219 50.644531 953.113281 51.269531 953.246094 51.898438 C 953.378906 52.53125 953.484375 53.167969 953.558594 53.808594 C 954.550781 62.796875 947.449219 71.230469 936.890625 73.613281 C 923.808594 76.550781 912.789062 71.101562 910.207031 60.414062 C 907.289062 48.527344 918.792969 35.359375 932.148438 35.292969 Z M 932.148438 35.292969 " fill-opacity="1" fill-rule="nonzero"/><path fill="#000000" d="M 232.765625 55.121094 C 232.710938 43.84375 242.394531 34.320312 254.125 34.226562 C 265.15625 34.085938 274.140625 42.433594 274.226562 52.886719 C 274.3125 64.109375 263.917969 75.460938 253.46875 75.535156 C 242.570312 75.578125 232.832031 65.992188 232.765625 55.121094 Z M 232.765625 55.121094 " fill-opacity="1" fill-rule="nonzero"/><path fill="#000000" d="M 722.660156 74.179688 C 709.101562 73.859375 701.3125 66.835938 701.6875 55.304688 C 702.066406 43.769531 711.984375 35.132812 724.5 35.496094 C 736.5 35.851562 744.839844 43.824219 744.460938 54.609375 C 744.128906 64.539062 733.109375 74.4375 722.660156 74.179688 Z M 722.660156 74.179688 " fill-opacity="1" fill-rule="nonzero"/><path fill="#000000" d="M 433.214844 35.742188 C 442.972656 35.742188 449.804688 38.425781 453.347656 46.066406 C 456.683594 53.261719 455.648438 60.21875 450.398438 66.441406 C 444.898438 72.941406 438.140625 75.6875 429.953125 72.777344 C 425.53125 71.21875 420.472656 69.679688 417.363281 66.527344 C 408 57.066406 412.378906 42.050781 425.421875 37.433594 C 427.96875 36.644531 430.566406 36.082031 433.214844 35.742188 Z M 433.214844 35.742188 " fill-opacity="1" fill-rule="nonzero"/><path fill="#000000" d="M 1122.351562 34.578125 C 1133.378906 34.578125 1142.050781 42.519531 1142.183594 52.75 C 1142.3125 63.683594 1130.882812 75.035156 1119.703125 75.054688 C 1108.941406 75.054688 1102.59375 67.574219 1102.484375 54.492188 C 1102.378906 43.117188 1110.859375 34.609375 1122.351562 34.578125 Z M 1122.351562 34.578125 " fill-opacity="1" fill-rule="nonzero"/><path fill="#000000" d="M 1399.574219 36.074219 C 1414.863281 36.246094 1425.300781 48.902344 1420.449219 61.726562 C 1416.640625 71.765625 1409.03125 74.457031 1396.078125 73.367188 C 1384.992188 72.425781 1378.546875 64.914062 1379.160156 55.195312 C 1379.773438 45.480469 1389.898438 35.957031 1399.574219 36.074219 Z M 1399.574219 36.074219 " fill-opacity="1" fill-rule="nonzero"/><path fill="#000000" d="M 639.203125 34.71875 C 650.359375 34.71875 659.023438 43.054688 658.949219 53.605469 C 658.871094 63.789062 647.488281 74.980469 637.253906 74.980469 C 627.019531 74.980469 618.5625 65.359375 618.703125 53.527344 C 618.820312 42.777344 627.675781 34.664062 639.203125 34.71875 Z M 639.203125 34.71875 " fill-opacity="1" fill-rule="nonzero"/><path fill="#000000" d="M 346.429688 35.1875 C 357.457031 35.1875 366.875 43.34375 366.21875 53.359375 C 365.507812 64.046875 359.460938 74.734375 343.554688 74.519531 C 333.152344 74.402344 326.285156 66.632812 326.339844 54.960938 C 326.382812 43.460938 334.828125 35.15625 346.429688 35.1875 Z M 346.429688 35.1875 " fill-opacity="1" fill-rule="nonzero"/><path fill="#000000" d="M 825.617188 34.878906 C 836.324219 34.878906 845.179688 43.300781 845.09375 53.433594 C 844.996094 64.761719 835.6875 74.808594 825.359375 74.808594 C 815.339844 74.808594 805.988281 64.453125 806.214844 53.59375 C 806.230469 52.972656 806.273438 52.355469 806.347656 51.738281 C 806.421875 51.121094 806.527344 50.507812 806.660156 49.902344 C 806.792969 49.296875 806.957031 48.699219 807.152344 48.105469 C 807.34375 47.515625 807.566406 46.9375 807.816406 46.367188 C 808.066406 45.796875 808.339844 45.242188 808.644531 44.699219 C 808.949219 44.15625 809.28125 43.628906 809.636719 43.121094 C 809.992188 42.609375 810.371094 42.117188 810.773438 41.644531 C 811.179688 41.167969 811.605469 40.714844 812.054688 40.285156 C 812.503906 39.851562 812.972656 39.441406 813.460938 39.054688 C 813.949219 38.667969 814.453125 38.304688 814.980469 37.964844 C 815.503906 37.628906 816.042969 37.316406 816.597656 37.027344 C 817.152344 36.742188 817.71875 36.484375 818.300781 36.253906 C 818.878906 36.023438 819.46875 35.820312 820.070312 35.644531 C 820.667969 35.472656 821.277344 35.324219 821.890625 35.210938 C 822.503906 35.09375 823.125 35.007812 823.746094 34.953125 C 824.367188 34.898438 824.992188 34.871094 825.617188 34.878906 Z M 825.617188 34.878906 " fill-opacity="1" fill-rule="nonzero"/><path fill="#000000" d="M 535.816406 36.363281 C 547.382812 36.480469 555.820312 44.390625 555.722656 55.023438 C 555.636719 64.804688 546.8125 73.515625 537.128906 73.34375 C 524.742188 73.121094 515.464844 64.792969 515.683594 54.105469 C 515.855469 43.84375 524.496094 36.214844 535.816406 36.363281 Z M 535.816406 36.363281 " fill-opacity="1" fill-rule="nonzero"/></svg>