<svg xmlns="http://www.w3.org/2000/svg" xmlns:xlink="http://www.w3.org/1999/xlink" width="1920" zoomAndPan="magnify" viewBox="0 0 1440 809.999993" height="1080" preserveAspectRatio="xMidYMid meet" version="1.0"><defs><clipPath id="6410a199fa"><path d="M 23.242188 27 L 332 27 L 332 336 L 23.242188 336 Z M 23.242188 27 " clip-rule="nonzero"/></clipPath><clipPath id="3b01e4aa51"><path d="M 35 24 L 350.992188 24 L 350.992188 340 L 35 340 Z M 35 24 " clip-rule="nonzero"/></clipPath><clipPath id="22236d49d8"><path d="M 47 16.324219 L 350.992188 16.324219 L 350.992188 321 L 47 321 Z M 47 16.324219 " clip-rule="nonzero"/></clipPath></defs><g clip-path="url(#6410a199fa)"><path fill="#ffffff" d="M 331.269531 181.871094 C 331.269531 266.929688 262.316406 335.878906 177.261719 335.878906 C 92.207031 335.878906 23.253906 266.929688 23.253906 181.871094 C 23.253906 96.816406 92.207031 27.863281 177.261719 27.863281 C 262.316406 27.863281 331.269531 96.816406 331.269531 181.871094 M 328.136719 181.871094 C 328.136719 98.546875 260.585938 31 177.261719 31 C 93.9375 31 26.386719 98.546875 26.386719 181.871094 C 26.386719 265.199219 93.9375 332.746094 177.261719 332.746094 C 260.585938 332.746094 328.136719 265.199219 328.136719 181.871094 Z M 328.136719 181.871094 " fill-opacity="1" fill-rule="nonzero"/></g><g clip-path="url(#3b01e4aa51)"><path fill="#ffffff" d="M 350.472656 182.375 C 350.472656 269.382812 279.9375 339.917969 192.929688 339.917969 C 105.921875 339.917969 35.386719 269.382812 35.386719 182.375 C 35.386719 95.367188 105.921875 24.832031 192.929688 24.832031 C 279.9375 24.832031 350.472656 95.367188 350.472656 182.375 M 347.339844 182.375 C 347.339844 97.097656 278.207031 27.964844 192.929688 27.964844 C 107.652344 27.964844 38.519531 97.097656 38.519531 182.375 C 38.519531 267.652344 107.652344 336.785156 192.929688 336.785156 C 278.207031 336.785156 347.339844 267.652344 347.339844 182.375 Z M 347.339844 182.375 " fill-opacity="1" fill-rule="nonzero"/></g><g clip-path="url(#22236d49d8)"><path fill="#ffffff" d="M 350.828125 168.65625 C 350.828125 252.550781 282.816406 320.5625 198.921875 320.5625 C 115.027344 320.5625 47.015625 252.550781 47.015625 168.65625 C 47.015625 84.757812 115.027344 16.746094 198.921875 16.746094 C 282.816406 16.746094 350.828125 84.757812 350.828125 168.65625 M 347.695312 168.65625 C 347.695312 86.488281 281.085938 19.878906 198.921875 19.878906 C 116.757812 19.878906 50.148438 86.488281 50.148438 168.65625 C 50.148438 250.820312 116.757812 317.429688 198.921875 317.429688 C 281.085938 317.429688 347.695312 250.820312 347.695312 168.65625 Z M 347.695312 168.65625 " fill-opacity="1" fill-rule="nonzero"/></g><path fill="#000000" d="M 64.8125 875.507812 C 69.757812 882.566406 57.292969 998.261719 44.914062 965.703125 C 74.097656 888.8125 43.179688 831.382812 29.558594 757.84375 C 26.433594 725.632812 38.554688 695.789062 43.46875 664.585938 C 52.871094 602.878906 33.203125 542.125 25.015625 481.457031 C 16.3125 433.683594 24.871094 386.550781 33.085938 339.472656 C 38.699219 288.492188 29.269531 237.539062 22.675781 187.136719 C 15.011719 128.492188 11.425781 65.628906 37.65625 11.320312 C 40.203125 6.03125 47.691406 10.714844 45.148438 15.976562 C -0.144531 112.703125 47.578125 219.148438 43.179688 320.070312 C 41.820312 353.613281 31.640625 385.769531 30.050781 419.226562 C 27.128906 480.90625 47.375 540.246094 53.128906 601.058594 C 60.589844 647.902344 44.019531 692.433594 37.886719 738.152344 C 35.34375 785.78125 62.441406 828.375 64.8125 875.507812 Z M 105.476562 759.292969 C 90.816406 647.152344 102.992188 534.054688 93.070312 421.367188 C 84.855469 291.902344 70.425781 162.5 75.050781 32.605469 C 75.339844 24.449219 75.71875 16.296875 76.152344 8.140625 C 76.46875 2.039062 67.792969 2.066406 67.476562 8.140625 C 58.828125 234.675781 97.785156 460 89.167969 686.652344 C 97.726562 733.121094 97.554688 779.273438 90.640625 825.945312 C 85.753906 875.277344 120.285156 921.515625 107.386719 970.648438 C 105.738281 976.488281 114.097656 978.976562 115.746094 973.164062 C 123.324219 946.441406 116.292969 919.144531 109.324219 893.234375 C 92.695312 849.511719 102.382812 804.257812 105.476562 759.292969 Z M 167.109375 817.992188 C 165.492188 752.8125 185.476562 689.28125 181.167969 623.960938 C 178.273438 556.988281 163.699219 491.316406 159.675781 424.429688 C 155.65625 357.113281 159.128906 289.15625 148.253906 222.417969 C 136.917969 153.390625 107.242188 79.046875 137.234375 10.628906 C 139.636719 5.277344 132.144531 0.5625 129.742188 5.941406 C 102.671875 66.4375 121.152344 133.351562 134.199219 194.914062 C 149.265625 262.8125 147.589844 332.707031 149.929688 401.816406 C 152.9375 504.386719 183.972656 605.855469 168.410156 708.6875 C 164.132812 741.449219 158.261719 774.210938 158.230469 807.410156 C 154.933594 840.347656 172.375 870.332031 173.53125 902.257812 C 169.625 926.113281 142.382812 945.691406 155.453125 971.457031 C 157.828125 976.199219 154.328125 974.492188 158.984375 976.429688 C 164.1875 978.570312 173.761719 974.519531 168.613281 972.382812 C 146.488281 955.089844 176.105469 929.09375 180.90625 909.863281 C 186.515625 878.515625 165.230469 849.773438 167.109375 817.992188 Z M 213.386719 738.183594 C 219.488281 692.464844 236.058594 647.929688 228.628906 601.085938 C 222.871094 540.273438 202.625 480.90625 205.546875 419.253906 C 207.136719 385.796875 217.320312 353.640625 218.679688 320.097656 C 223.074219 219.148438 175.351562 112.734375 220.644531 16.003906 C 223.191406 10.742188 215.699219 6.058594 213.152344 11.351562 C 186.921875 65.65625 190.507812 128.523438 198.144531 187.167969 C 204.738281 237.570312 214.136719 288.519531 208.554688 339.5 C 200.371094 386.578125 191.78125 433.714844 200.488281 481.484375 C 208.671875 542.152344 228.367188 602.90625 218.9375 664.617188 C 214.023438 695.847656 201.933594 725.660156 205.027344 757.875 C 218.679688 831.410156 249.59375 888.839844 220.382812 965.730469 C 232.761719 998.292969 245.226562 882.59375 240.28125 875.539062 C 237.96875 828.375 210.839844 785.78125 213.386719 738.183594 Z M 280.976562 759.292969 C 266.3125 647.152344 278.488281 534.054688 268.570312 421.367188 C 260.355469 291.902344 245.921875 162.5 250.550781 32.605469 C 250.839844 24.449219 251.214844 16.296875 251.648438 8.140625 C 251.96875 2.039062 243.289062 2.066406 242.972656 8.140625 C 234.324219 234.675781 273.28125 460 264.664062 686.652344 C 273.226562 733.121094 273.050781 779.273438 266.140625 825.945312 C 261.25 875.277344 295.785156 921.515625 282.882812 970.648438 C 281.234375 976.488281 289.59375 978.976562 291.242188 973.164062 C 298.820312 946.441406 291.792969 919.144531 284.824219 893.234375 C 268.191406 849.511719 277.882812 804.257812 280.976562 759.292969 Z M 342.609375 817.992188 C 340.988281 752.8125 360.972656 689.28125 356.664062 623.960938 C 353.773438 556.988281 339.195312 491.316406 335.175781 424.429688 C 331.15625 357.113281 334.625 289.15625 323.75 222.417969 C 312.414062 153.449219 282.738281 79.074219 312.730469 10.65625 C 315.132812 5.304688 307.640625 0.59375 305.242188 5.972656 C 278.171875 66.464844 296.652344 133.378906 309.695312 194.945312 C 324.761719 262.84375 323.085938 332.734375 325.429688 401.847656 C 328.4375 504.414062 359.46875 605.886719 343.910156 708.714844 C 339.628906 741.476562 333.757812 774.242188 333.730469 807.4375 C 330.433594 840.375 347.871094 870.363281 349.027344 902.285156 C 345.125 926.144531 317.878906 945.71875 330.953125 971.484375 C 333.324219 976.226562 329.824219 974.519531 334.480469 976.457031 C 339.6875 978.597656 349.261719 974.550781 344.113281 972.410156 C 321.988281 955.117188 351.601562 929.121094 356.402344 909.890625 C 362.015625 878.515625 340.726562 849.773438 342.609375 817.992188 Z M 398.804688 738.183594 C 404.90625 692.464844 421.476562 647.929688 414.046875 601.085938 C 408.289062 540.273438 388.042969 480.90625 390.964844 419.253906 C 392.554688 385.796875 402.738281 353.640625 404.097656 320.097656 C 408.492188 219.148438 360.769531 112.734375 406.0625 16.003906 C 408.609375 10.742188 401.117188 6.058594 398.570312 11.351562 C 372.339844 65.65625 375.925781 128.523438 383.5625 187.167969 C 390.15625 237.570312 399.554688 288.519531 393.972656 339.5 C 385.789062 386.578125 377.199219 433.714844 385.90625 481.484375 C 394.089844 542.152344 413.785156 602.90625 404.355469 664.617188 C 399.441406 695.847656 387.351562 725.660156 390.445312 757.875 C 404.097656 831.410156 435.015625 888.839844 405.800781 965.730469 C 418.179688 998.292969 430.648438 882.59375 425.699219 875.539062 C 423.359375 828.375 396.230469 785.78125 398.804688 738.183594 Z M 466.394531 759.292969 C 451.730469 647.152344 463.90625 534.054688 453.988281 421.367188 C 445.773438 291.902344 431.339844 162.5 435.96875 32.605469 C 436.257812 24.449219 436.632812 16.296875 437.066406 8.140625 C 437.386719 2.039062 428.707031 2.066406 428.390625 8.140625 C 419.742188 234.675781 458.699219 460 450.082031 686.652344 C 458.644531 733.121094 458.46875 779.273438 451.558594 825.945312 C 446.667969 875.277344 481.203125 921.515625 468.304688 970.648438 C 466.652344 976.488281 475.011719 978.976562 476.660156 973.164062 C 484.238281 946.441406 477.210938 919.144531 470.242188 893.234375 C 453.582031 849.511719 463.269531 804.257812 466.394531 759.292969 Z M 528.027344 817.992188 C 526.40625 752.8125 546.390625 689.28125 542.082031 623.960938 C 539.191406 556.988281 524.613281 491.316406 520.59375 424.429688 C 516.574219 357.113281 520.042969 289.15625 509.167969 222.417969 C 497.832031 153.449219 468.160156 79.074219 498.148438 10.65625 C 500.550781 5.304688 493.058594 0.59375 490.660156 5.972656 C 463.589844 66.464844 482.070312 133.378906 495.113281 194.945312 C 510.183594 262.84375 508.503906 332.734375 510.847656 401.847656 C 513.855469 504.414062 544.886719 605.886719 529.328125 708.714844 C 525.046875 741.476562 519.175781 774.242188 519.148438 807.4375 C 515.851562 840.375 533.289062 870.363281 534.445312 902.285156 C 530.542969 926.144531 503.296875 945.71875 516.371094 971.484375 C 518.742188 976.226562 515.242188 974.519531 519.898438 976.457031 C 525.105469 978.597656 534.679688 974.550781 529.53125 972.410156 C 507.40625 955.117188 537.019531 929.121094 541.820312 909.890625 C 547.433594 878.515625 526.148438 849.773438 528.027344 817.992188 Z M 574.300781 738.183594 C 580.402344 692.464844 596.976562 647.929688 589.542969 601.085938 C 583.789062 540.273438 563.542969 480.90625 566.464844 419.253906 C 568.054688 385.796875 578.234375 353.640625 579.59375 320.097656 C 583.992188 219.148438 536.269531 112.734375 581.5625 16.003906 C 584.105469 10.742188 576.613281 6.058594 574.070312 11.351562 C 547.839844 65.65625 551.425781 128.523438 559.058594 187.167969 C 565.652344 237.570312 575.054688 288.519531 569.472656 339.5 C 561.285156 386.578125 552.695312 433.714844 561.402344 481.484375 C 569.585938 542.152344 589.28125 602.90625 579.855469 664.617188 C 574.9375 695.847656 562.847656 725.660156 565.941406 757.875 C 579.59375 831.410156 610.511719 888.839844 581.300781 965.730469 C 593.679688 998.292969 606.144531 882.59375 601.199219 875.539062 C 598.855469 828.375 571.726562 785.78125 574.300781 738.183594 Z M 641.890625 759.292969 C 627.226562 647.152344 639.40625 534.054688 629.484375 421.367188 C 621.269531 291.902344 606.839844 162.5 611.464844 32.605469 C 611.753906 24.449219 612.132812 16.296875 612.566406 8.140625 C 612.882812 2.039062 604.207031 2.066406 603.886719 8.140625 C 595.242188 234.675781 634.167969 460 625.578125 686.652344 C 634.140625 733.121094 633.96875 779.273438 627.054688 825.945312 C 622.167969 875.277344 656.699219 921.515625 643.800781 970.648438 C 642.152344 976.488281 650.511719 978.976562 652.160156 973.164062 C 659.738281 946.441406 652.707031 919.144531 645.738281 893.234375 C 629.078125 849.511719 638.769531 804.257812 641.890625 759.292969 Z M 703.523438 817.992188 C 701.90625 752.8125 721.890625 689.28125 717.582031 623.960938 C 714.6875 556.988281 700.113281 491.316406 696.089844 424.429688 C 692.070312 357.113281 695.542969 289.15625 684.667969 222.417969 C 673.328125 153.449219 643.65625 79.074219 673.648438 10.65625 C 676.046875 5.304688 668.558594 0.59375 666.15625 5.972656 C 639.085938 66.464844 657.566406 133.378906 670.613281 194.945312 C 685.679688 262.84375 684.003906 332.734375 686.34375 401.847656 C 689.351562 504.414062 720.386719 605.886719 704.824219 708.714844 C 700.546875 741.476562 694.675781 774.242188 694.644531 807.4375 C 691.347656 840.375 708.789062 870.363281 709.945312 902.285156 C 706.039062 926.144531 678.796875 945.71875 691.867188 971.484375 C 694.242188 976.226562 690.742188 974.519531 695.398438 976.457031 C 700.601562 978.597656 710.175781 974.550781 705.027344 972.410156 C 682.902344 955.117188 712.519531 929.121094 717.320312 909.890625 C 722.929688 878.515625 701.644531 849.773438 703.523438 817.992188 Z M 747.253906 738.183594 C 753.355469 692.464844 769.929688 647.929688 762.496094 601.085938 C 756.742188 540.273438 736.496094 480.90625 739.417969 419.253906 C 741.007812 385.796875 751.1875 353.640625 752.546875 320.097656 C 756.941406 219.148438 709.222656 112.734375 754.511719 16.003906 C 757.058594 10.742188 749.566406 6.058594 747.023438 11.351562 C 720.789062 65.65625 724.378906 128.523438 732.011719 187.167969 C 738.605469 237.570312 748.007812 288.519531 742.425781 339.5 C 734.238281 386.578125 725.648438 433.714844 734.355469 481.484375 C 742.570312 542.152344 762.234375 602.90625 752.808594 664.617188 C 747.890625 695.847656 735.800781 725.660156 738.894531 757.875 C 752.546875 831.410156 783.464844 888.839844 754.253906 965.730469 C 766.632812 998.292969 779.097656 882.59375 774.152344 875.539062 C 771.808594 828.375 744.679688 785.78125 747.253906 738.183594 Z M 814.84375 759.292969 C 800.179688 647.152344 812.355469 534.054688 802.4375 421.367188 C 794.222656 291.902344 779.792969 162.5 784.417969 32.605469 C 784.707031 24.449219 785.085938 16.296875 785.519531 8.140625 C 785.835938 2.039062 777.160156 2.066406 776.839844 8.140625 C 768.195312 234.675781 807.121094 460 798.53125 686.652344 C 807.09375 733.121094 806.921875 779.273438 800.007812 825.945312 C 795.148438 875.277344 829.652344 921.515625 816.753906 970.648438 C 815.105469 976.488281 823.464844 978.976562 825.113281 973.164062 C 832.6875 946.441406 825.660156 919.144531 818.691406 893.234375 C 802.03125 849.511719 811.722656 804.257812 814.84375 759.292969 Z M 876.476562 817.992188 C 874.859375 752.8125 894.84375 689.28125 890.53125 623.960938 C 887.640625 556.988281 873.0625 491.316406 869.042969 424.429688 C 865.023438 357.113281 868.496094 289.15625 857.621094 222.417969 C 846.28125 153.449219 816.609375 79.074219 846.601562 10.65625 C 849 5.304688 841.511719 0.59375 839.109375 5.972656 C 812.039062 66.464844 830.519531 133.378906 843.5625 194.945312 C 858.632812 262.84375 856.953125 332.734375 859.296875 401.847656 C 862.304688 504.414062 893.308594 605.886719 877.777344 708.714844 C 873.5 741.476562 867.628906 774.242188 867.597656 807.4375 C 864.300781 840.375 881.742188 870.363281 882.898438 902.285156 C 878.992188 926.144531 851.75 945.71875 864.820312 971.484375 C 867.191406 976.226562 863.695312 974.519531 868.351562 976.457031 C 873.554688 978.597656 883.128906 974.550781 877.980469 972.410156 C 855.855469 955.117188 885.472656 929.121094 890.273438 909.890625 C 895.882812 878.515625 874.597656 849.773438 876.476562 817.992188 Z M 922.753906 738.183594 C 928.855469 692.464844 945.425781 647.929688 937.992188 601.085938 C 932.238281 540.273438 911.992188 480.90625 914.914062 419.253906 C 916.503906 385.796875 926.683594 353.640625 928.042969 320.097656 C 932.441406 219.148438 884.71875 112.734375 930.011719 16.003906 C 932.554688 10.742188 925.066406 6.058594 922.519531 11.351562 C 896.289062 65.65625 899.875 128.523438 907.511719 187.167969 C 914.105469 237.570312 923.503906 288.519531 917.921875 339.5 C 909.738281 386.578125 901.148438 433.714844 909.851562 481.484375 C 918.066406 542.152344 937.734375 602.90625 928.304688 664.617188 C 923.386719 695.847656 911.300781 725.660156 914.394531 757.875 C 928.042969 831.410156 958.960938 888.839844 929.75 965.730469 C 942.128906 998.292969 954.59375 882.59375 949.648438 875.539062 C 947.308594 828.375 920.179688 785.78125 922.753906 738.183594 Z M 990.34375 759.292969 C 975.679688 647.152344 987.855469 534.054688 977.933594 421.367188 C 969.722656 291.902344 955.289062 162.5 959.917969 32.605469 C 960.207031 24.449219 960.582031 16.296875 961.015625 8.140625 C 961.332031 2.039062 952.65625 2.066406 952.339844 8.140625 C 943.691406 234.675781 982.621094 460 974.03125 686.652344 C 982.589844 733.121094 982.417969 779.273438 975.503906 825.945312 C 970.648438 875.277344 1005.152344 921.515625 992.25 970.648438 C 990.601562 976.488281 998.960938 978.976562 1000.609375 973.164062 C 1008.1875 946.441406 1001.160156 919.144531 994.1875 893.234375 C 977.53125 849.511719 987.21875 804.257812 990.34375 759.292969 Z M 1051.976562 817.992188 C 1050.355469 752.8125 1070.339844 689.28125 1066.03125 623.960938 C 1063.140625 556.988281 1048.5625 491.316406 1044.542969 424.429688 C 1040.523438 357.113281 1043.992188 289.15625 1033.117188 222.417969 C 1021.78125 153.449219 992.105469 79.074219 1022.097656 10.65625 C 1024.5 5.304688 1017.007812 0.59375 1014.609375 5.972656 C 987.535156 66.464844 1006.019531 133.378906 1019.0625 194.945312 C 1034.128906 262.84375 1032.453125 332.734375 1034.796875 401.847656 C 1037.804688 504.414062 1068.835938 605.886719 1053.277344 708.714844 C 1048.996094 741.476562 1043.125 774.242188 1043.097656 807.4375 C 1039.800781 840.375 1057.238281 870.363281 1058.394531 902.285156 C 1054.492188 926.144531 1027.246094 945.71875 1040.320312 971.484375 C 1042.691406 976.226562 1039.191406 974.519531 1043.847656 976.457031 C 1049.054688 978.597656 1058.628906 974.550781 1053.480469 972.410156 C 1031.355469 955.117188 1060.96875 929.121094 1065.769531 909.890625 C 1071.382812 878.515625 1050.09375 849.773438 1051.976562 817.992188 Z M 1108.140625 738.183594 C 1114.242188 692.464844 1130.816406 647.929688 1123.382812 601.085938 C 1117.628906 540.273438 1097.382812 480.90625 1100.304688 419.253906 C 1101.894531 385.796875 1112.074219 353.640625 1113.433594 320.097656 C 1117.828125 219.148438 1070.109375 112.734375 1115.402344 16.003906 C 1117.945312 10.742188 1110.453125 6.058594 1107.910156 11.351562 C 1081.675781 65.65625 1085.265625 128.523438 1092.898438 187.167969 C 1099.492188 237.570312 1108.894531 288.519531 1103.3125 339.5 C 1095.125 386.578125 1086.535156 433.714844 1095.242188 481.484375 C 1103.425781 542.152344 1123.121094 602.90625 1113.695312 664.617188 C 1108.777344 695.847656 1096.6875 725.660156 1099.78125 757.875 C 1113.433594 831.410156 1144.351562 888.839844 1115.140625 965.730469 C 1127.519531 998.292969 1139.984375 882.59375 1135.039062 875.539062 C 1132.695312 828.375 1105.597656 785.78125 1108.140625 738.183594 Z M 1175.730469 759.292969 C 1161.066406 647.152344 1173.246094 534.054688 1163.324219 421.367188 C 1155.109375 291.902344 1140.679688 162.5 1145.304688 32.605469 C 1145.59375 24.449219 1145.972656 16.296875 1146.40625 8.140625 C 1146.722656 2.039062 1138.046875 2.066406 1137.726562 8.140625 C 1129.082031 234.675781 1168.039062 460 1159.417969 686.652344 C 1167.980469 733.121094 1167.808594 779.273438 1160.894531 825.945312 C 1156.035156 875.277344 1190.539062 921.515625 1177.640625 970.648438 C 1175.992188 976.488281 1184.351562 978.976562 1186 973.164062 C 1193.578125 946.441406 1186.546875 919.144531 1179.578125 893.234375 C 1162.949219 849.511719 1172.636719 804.257812 1175.730469 759.292969 Z M 1237.363281 817.992188 C 1235.746094 752.8125 1255.730469 689.28125 1251.421875 623.960938 C 1248.527344 556.988281 1233.953125 491.316406 1229.929688 424.429688 C 1225.910156 357.113281 1229.382812 289.15625 1218.507812 222.417969 C 1207.167969 153.449219 1177.496094 79.074219 1207.488281 10.65625 C 1209.886719 5.304688 1202.398438 0.59375 1199.996094 5.972656 C 1172.925781 66.464844 1191.40625 133.378906 1204.449219 194.945312 C 1219.519531 262.84375 1217.84375 332.734375 1220.183594 401.847656 C 1223.191406 504.414062 1254.226562 605.886719 1238.664062 708.714844 C 1234.386719 741.476562 1228.515625 774.242188 1228.484375 807.4375 C 1225.1875 840.375 1242.65625 870.363281 1243.785156 902.285156 C 1239.878906 926.144531 1212.636719 945.71875 1225.707031 971.484375 C 1228.082031 976.226562 1224.582031 974.519531 1229.238281 976.457031 C 1234.441406 978.597656 1244.015625 974.550781 1238.867188 972.410156 C 1216.742188 955.117188 1246.359375 929.121094 1251.160156 909.890625 C 1256.769531 878.515625 1235.484375 849.773438 1237.363281 817.992188 Z M 1283.640625 738.183594 C 1289.742188 692.464844 1306.3125 647.929688 1298.882812 601.085938 C 1293.125 540.273438 1272.878906 480.90625 1275.800781 419.253906 C 1277.390625 385.796875 1287.574219 353.640625 1288.933594 320.097656 C 1293.328125 219.148438 1245.605469 112.734375 1290.898438 16.003906 C 1293.445312 10.742188 1285.953125 6.058594 1283.40625 11.351562 C 1257.175781 65.65625 1260.761719 128.523438 1268.398438 187.167969 C 1274.992188 237.570312 1284.390625 288.519531 1278.808594 339.5 C 1270.625 386.578125 1262.035156 433.714844 1270.738281 481.484375 C 1278.925781 542.152344 1298.621094 602.90625 1289.191406 664.617188 C 1284.273438 695.847656 1272.1875 725.660156 1275.28125 757.875 C 1288.933594 831.410156 1319.847656 888.839844 1290.636719 965.730469 C 1303.015625 998.292969 1315.480469 882.59375 1310.535156 875.539062 C 1308.195312 828.375 1281.09375 785.78125 1283.640625 738.183594 Z M 1351.230469 759.292969 C 1336.566406 647.152344 1348.742188 534.054688 1338.820312 421.367188 C 1330.609375 291.902344 1316.175781 162.5 1320.804688 32.605469 C 1321.09375 24.449219 1321.46875 16.296875 1321.902344 8.140625 C 1322.222656 2.039062 1313.542969 2.066406 1313.226562 8.140625 C 1304.578125 234.675781 1343.535156 460 1334.917969 686.652344 C 1343.476562 733.121094 1343.304688 779.273438 1336.390625 825.945312 C 1331.535156 875.277344 1366.039062 921.515625 1353.136719 970.648438 C 1351.488281 976.488281 1359.847656 978.976562 1361.496094 973.164062 C 1369.074219 946.441406 1362.046875 919.144531 1355.074219 893.234375 C 1338.445312 849.511719 1348.136719 804.257812 1351.230469 759.292969 Z M 1412.863281 817.992188 C 1411.242188 752.8125 1431.226562 689.28125 1426.917969 623.960938 C 1424.027344 556.988281 1409.449219 491.316406 1405.429688 424.429688 C 1401.410156 357.113281 1404.878906 289.15625 1394.003906 222.417969 C 1382.667969 153.449219 1352.992188 79.074219 1382.984375 10.65625 C 1385.386719 5.304688 1377.894531 0.59375 1375.496094 5.972656 C 1348.425781 66.464844 1366.90625 133.378906 1379.949219 194.945312 C 1395.015625 262.84375 1393.339844 332.734375 1395.683594 401.847656 C 1398.691406 504.414062 1429.722656 605.886719 1414.164062 708.714844 C 1409.882812 741.476562 1404.011719 774.242188 1403.984375 807.4375 C 1400.6875 840.375 1418.125 870.363281 1419.28125 902.285156 C 1415.378906 926.144531 1388.132812 945.71875 1401.207031 971.484375 C 1403.578125 976.226562 1400.078125 974.519531 1404.734375 976.457031 C 1409.941406 978.597656 1419.515625 974.550781 1414.367188 972.410156 C 1392.242188 955.117188 1421.855469 929.121094 1426.65625 909.890625 C 1432.269531 878.515625 1410.980469 849.773438 1412.863281 817.992188 Z M 1412.863281 817.992188 " fill-opacity="1" fill-rule="nonzero"/></svg>