<svg xmlns="http://www.w3.org/2000/svg" xmlns:xlink="http://www.w3.org/1999/xlink" width="500" zoomAndPan="magnify" viewBox="0 0 375 374.999991" height="500" preserveAspectRatio="xMidYMid meet" version="1.0"><path fill="#000000" d="M 21.375 283.582031 C 22.636719 285.382812 19.460938 314.917969 16.304688 306.605469 C 23.742188 286.976562 15.859375 272.316406 12.386719 253.546875 C 11.589844 245.324219 14.679688 237.707031 15.933594 229.742188 C 18.332031 213.992188 13.316406 198.484375 11.230469 182.996094 C 9.011719 170.800781 11.191406 158.769531 13.289062 146.753906 C 14.71875 133.742188 12.3125 120.734375 10.632812 107.867188 C 8.679688 92.898438 7.765625 76.851562 14.453125 62.988281 C 15.101562 61.640625 17.011719 62.835938 16.363281 64.179688 C 4.8125 88.867188 16.980469 116.039062 15.859375 141.800781 C 15.515625 150.363281 12.917969 158.570312 12.511719 167.113281 C 11.769531 182.855469 16.929688 198.003906 18.398438 213.527344 C 20.300781 225.484375 16.074219 236.851562 14.511719 248.519531 C 13.863281 260.679688 20.773438 271.550781 21.375 283.582031 Z M 31.746094 253.917969 C 28.007812 225.292969 31.109375 196.421875 28.582031 167.65625 C 26.488281 134.613281 22.808594 101.578125 23.988281 68.421875 C 24.0625 66.339844 24.15625 64.257812 24.269531 62.179688 C 24.347656 60.621094 22.136719 60.628906 22.054688 62.179688 C 19.851562 120.003906 29.785156 177.519531 27.585938 235.375 C 29.769531 247.238281 29.726562 259.015625 27.960938 270.929688 C 26.714844 283.523438 35.519531 295.324219 32.230469 307.867188 C 31.8125 309.359375 33.941406 309.992188 34.363281 308.507812 C 36.296875 301.6875 34.503906 294.722656 32.726562 288.105469 C 28.484375 276.945312 30.957031 265.394531 31.746094 253.917969 Z M 47.460938 268.902344 C 47.046875 252.261719 52.140625 236.046875 51.042969 219.371094 C 50.304688 202.277344 46.589844 185.511719 45.566406 168.441406 C 44.539062 151.257812 45.425781 133.910156 42.652344 116.875 C 39.761719 99.253906 32.195312 80.277344 39.84375 62.8125 C 40.453125 61.449219 38.542969 60.246094 37.933594 61.617188 C 31.03125 77.058594 35.742188 94.140625 39.066406 109.855469 C 42.910156 127.1875 42.480469 145.027344 43.078125 162.667969 C 43.847656 188.851562 51.757812 214.75 47.792969 241 C 46.699219 249.363281 45.203125 257.726562 45.195312 266.199219 C 44.355469 274.605469 48.800781 282.261719 49.097656 290.410156 C 48.101562 296.5 41.15625 301.496094 44.488281 308.074219 C 45.09375 309.285156 44.199219 308.847656 45.386719 309.34375 C 46.714844 309.890625 49.15625 308.855469 47.84375 308.308594 C 42.203125 303.894531 49.753906 297.261719 50.976562 292.351562 C 52.40625 284.351562 46.980469 277.011719 47.460938 268.902344 Z M 59.257812 248.527344 C 60.816406 236.859375 65.039062 225.492188 63.144531 213.53125 C 61.675781 198.011719 56.515625 182.855469 57.261719 167.117188 C 57.664062 158.578125 60.261719 150.371094 60.609375 141.808594 C 61.730469 116.039062 49.5625 88.875 61.109375 64.1875 C 61.757812 62.84375 59.847656 61.648438 59.199219 62.996094 C 52.511719 76.859375 53.425781 92.90625 55.371094 107.875 C 57.054688 120.742188 59.449219 133.746094 58.027344 146.761719 C 55.941406 158.777344 53.75 170.808594 55.96875 183.003906 C 58.058594 198.488281 63.078125 214 60.675781 229.75 C 59.421875 237.722656 56.339844 245.332031 57.128906 253.554688 C 60.609375 272.324219 68.492188 286.984375 61.042969 306.613281 C 64.199219 314.921875 67.378906 285.390625 66.117188 283.589844 C 65.527344 271.550781 58.609375 260.679688 59.257812 248.527344 Z M 76.492188 253.917969 C 72.753906 225.292969 75.859375 196.421875 73.328125 167.65625 C 71.234375 134.613281 67.554688 101.578125 68.734375 68.421875 C 68.808594 66.339844 68.90625 64.257812 69.015625 62.179688 C 69.097656 60.621094 66.882812 60.628906 66.800781 62.179688 C 64.597656 120.003906 74.53125 177.519531 72.332031 235.375 C 74.515625 247.238281 74.472656 259.015625 72.710938 270.929688 C 71.464844 283.523438 80.269531 295.324219 76.980469 307.867188 C 76.558594 309.359375 78.691406 309.992188 79.109375 308.507812 C 81.042969 301.6875 79.25 294.722656 77.472656 288.105469 C 73.234375 276.945312 75.703125 265.394531 76.492188 253.917969 Z M 92.207031 268.902344 C 91.792969 252.261719 96.890625 236.046875 95.792969 219.371094 C 95.054688 202.277344 91.335938 185.511719 90.3125 168.441406 C 89.285156 151.257812 90.171875 133.910156 87.398438 116.875 C 84.507812 99.269531 76.941406 80.285156 84.589844 62.820312 C 85.203125 61.453125 83.292969 60.25 82.679688 61.625 C 75.777344 77.066406 80.488281 94.148438 83.816406 109.863281 C 87.65625 127.191406 87.230469 145.035156 87.828125 162.675781 C 88.59375 188.855469 96.507812 214.757812 92.539062 241.007812 C 91.449219 249.371094 89.949219 257.734375 89.941406 266.207031 C 89.101562 274.613281 93.550781 282.269531 93.84375 290.417969 C 92.847656 296.507812 85.902344 301.503906 89.234375 308.082031 C 89.839844 309.292969 88.949219 308.855469 90.136719 309.351562 C 91.460938 309.898438 93.902344 308.863281 92.589844 308.316406 C 86.949219 303.902344 94.5 297.265625 95.726562 292.359375 C 97.15625 284.351562 91.726562 277.011719 92.207031 268.902344 Z M 106.535156 248.527344 C 108.089844 236.859375 112.316406 225.492188 110.421875 213.53125 C 108.953125 198.011719 103.792969 182.855469 104.535156 167.117188 C 104.941406 158.578125 107.539062 150.371094 107.886719 141.808594 C 109.007812 116.039062 96.839844 88.875 108.386719 64.1875 C 109.035156 62.84375 107.125 61.648438 106.476562 62.996094 C 99.789062 76.859375 100.703125 92.90625 102.648438 107.875 C 104.332031 120.742188 106.726562 133.746094 105.304688 146.761719 C 103.21875 158.777344 101.027344 170.808594 103.246094 183.003906 C 105.332031 198.488281 110.355469 214 107.953125 229.75 C 106.699219 237.722656 103.617188 245.332031 104.40625 253.554688 C 107.886719 272.324219 115.769531 286.984375 108.320312 306.613281 C 111.476562 314.921875 114.65625 285.390625 113.394531 283.589844 C 112.796875 271.550781 105.878906 260.679688 106.535156 248.527344 Z M 123.769531 253.917969 C 120.03125 225.292969 123.136719 196.421875 120.605469 167.65625 C 118.511719 134.613281 114.832031 101.578125 116.011719 68.421875 C 116.085938 66.339844 116.179688 64.257812 116.292969 62.179688 C 116.371094 60.621094 114.160156 60.628906 114.078125 62.179688 C 111.875 120.003906 121.808594 177.519531 119.609375 235.375 C 121.792969 247.238281 121.75 259.015625 119.984375 270.929688 C 118.738281 283.523438 127.546875 295.324219 124.257812 307.867188 C 123.835938 309.359375 125.96875 309.992188 126.386719 308.507812 C 128.320312 301.6875 126.527344 294.722656 124.75 288.105469 C 120.503906 276.945312 122.972656 265.394531 123.769531 253.917969 Z M 139.484375 268.902344 C 139.070312 252.261719 144.167969 236.046875 143.066406 219.371094 C 142.332031 202.277344 138.613281 185.511719 137.589844 168.441406 C 136.5625 151.257812 137.449219 133.910156 134.675781 116.875 C 131.785156 99.269531 124.21875 80.285156 131.867188 62.820312 C 132.476562 61.453125 130.570312 60.25 129.957031 61.625 C 123.054688 77.066406 127.765625 94.148438 131.09375 109.863281 C 134.933594 127.191406 134.507812 145.035156 135.105469 162.675781 C 135.871094 188.855469 143.785156 214.757812 139.816406 241.007812 C 138.722656 249.371094 137.226562 257.734375 137.21875 266.207031 C 136.378906 274.613281 140.824219 282.269531 141.121094 290.417969 C 140.125 296.507812 133.179688 301.503906 136.511719 308.082031 C 137.117188 309.292969 136.222656 308.855469 137.410156 309.351562 C 138.738281 309.898438 141.179688 308.863281 139.867188 308.316406 C 134.226562 303.902344 141.777344 297.265625 143 292.359375 C 144.433594 284.351562 139.003906 277.011719 139.484375 268.902344 Z M 151.28125 248.527344 C 152.839844 236.859375 157.0625 225.492188 155.167969 213.53125 C 153.703125 198.011719 148.539062 182.855469 149.285156 167.117188 C 149.691406 158.578125 152.285156 150.371094 152.632812 141.808594 C 153.753906 116.039062 141.585938 88.875 153.132812 64.1875 C 153.78125 62.84375 151.871094 61.648438 151.222656 62.996094 C 144.535156 76.859375 145.449219 92.90625 147.398438 107.875 C 149.078125 120.742188 151.472656 133.746094 150.050781 146.761719 C 147.964844 158.777344 145.773438 170.808594 147.992188 183.003906 C 150.082031 198.488281 155.101562 214 152.699219 229.75 C 151.445312 237.722656 148.363281 245.332031 149.152344 253.554688 C 152.632812 272.324219 160.515625 286.984375 153.066406 306.613281 C 156.222656 314.921875 159.402344 285.390625 158.140625 283.589844 C 157.542969 271.550781 150.625 260.679688 151.28125 248.527344 Z M 168.515625 253.917969 C 164.777344 225.292969 167.882812 196.421875 165.351562 167.65625 C 163.257812 134.613281 159.578125 101.578125 160.757812 68.421875 C 160.832031 66.339844 160.929688 64.257812 161.039062 62.179688 C 161.121094 60.621094 158.90625 60.628906 158.828125 62.179688 C 156.621094 120.003906 166.546875 177.519531 164.359375 235.375 C 166.539062 247.238281 166.496094 259.015625 164.734375 270.929688 C 163.488281 283.523438 172.292969 295.324219 169.003906 307.867188 C 168.582031 309.359375 170.714844 309.992188 171.132812 308.507812 C 173.066406 301.6875 171.273438 294.722656 169.496094 288.105469 C 165.25 276.945312 167.71875 265.394531 168.515625 253.917969 Z M 184.230469 268.902344 C 183.820312 252.261719 188.914062 236.046875 187.816406 219.371094 C 187.078125 202.277344 183.359375 185.511719 182.335938 168.441406 C 181.3125 151.257812 182.195312 133.910156 179.421875 116.875 C 176.53125 99.269531 168.964844 80.285156 176.613281 62.820312 C 177.226562 61.453125 175.316406 60.25 174.703125 61.625 C 167.800781 77.066406 172.511719 94.148438 175.839844 109.863281 C 179.679688 127.191406 179.253906 145.035156 179.851562 162.675781 C 180.617188 188.855469 188.53125 214.757812 184.5625 241.007812 C 183.472656 249.371094 181.976562 257.734375 181.96875 266.207031 C 181.125 274.613281 185.574219 282.269531 185.867188 290.417969 C 184.871094 296.507812 177.925781 301.503906 181.257812 308.082031 C 181.863281 309.292969 180.972656 308.855469 182.160156 309.351562 C 183.488281 309.898438 185.925781 308.863281 184.613281 308.316406 C 178.972656 303.902344 186.523438 297.265625 187.75 292.359375 C 189.179688 284.351562 183.753906 277.011719 184.230469 268.902344 Z M 195.382812 248.527344 C 196.9375 236.859375 201.164062 225.492188 199.265625 213.53125 C 197.800781 198.011719 192.636719 182.855469 193.382812 167.117188 C 193.789062 158.578125 196.382812 150.371094 196.730469 141.808594 C 197.851562 116.039062 185.683594 88.875 197.230469 64.1875 C 197.882812 62.84375 195.972656 61.648438 195.324219 62.996094 C 188.632812 76.859375 189.546875 92.90625 191.496094 107.875 C 193.175781 120.742188 195.574219 133.746094 194.148438 146.761719 C 192.0625 158.777344 189.871094 170.808594 192.09375 183.003906 C 194.1875 198.488281 199.203125 214 196.796875 229.75 C 195.542969 237.722656 192.460938 245.332031 193.25 253.554688 C 196.730469 272.324219 204.613281 286.984375 197.164062 306.613281 C 200.320312 314.921875 203.5 285.390625 202.238281 283.589844 C 201.640625 271.550781 194.726562 260.679688 195.382812 248.527344 Z M 212.613281 253.917969 C 208.875 225.292969 211.980469 196.421875 209.453125 167.65625 C 207.355469 134.613281 203.675781 101.578125 204.855469 68.421875 C 204.929688 66.339844 205.027344 64.257812 205.136719 62.179688 C 205.21875 60.621094 203.007812 60.628906 202.925781 62.179688 C 200.71875 120.003906 210.644531 177.519531 208.457031 235.375 C 210.640625 247.238281 210.59375 259.015625 208.832031 270.929688 C 207.59375 283.523438 216.390625 295.324219 213.101562 307.867188 C 212.679688 309.359375 214.8125 309.992188 215.234375 308.507812 C 217.164062 301.6875 215.375 294.722656 213.597656 288.105469 C 209.347656 276.945312 211.820312 265.394531 212.613281 253.917969 Z M 228.328125 268.902344 C 227.917969 252.261719 233.011719 236.046875 231.914062 219.371094 C 231.175781 202.277344 227.460938 185.511719 226.433594 168.441406 C 225.410156 151.257812 226.292969 133.910156 223.523438 116.875 C 220.632812 99.269531 213.066406 80.285156 220.710938 62.820312 C 221.324219 61.453125 219.414062 60.25 218.800781 61.625 C 211.898438 77.066406 216.613281 94.148438 219.9375 109.863281 C 223.78125 127.191406 223.351562 145.035156 223.949219 162.675781 C 224.714844 188.855469 232.621094 214.757812 228.660156 241.007812 C 227.570312 249.371094 226.074219 257.734375 226.066406 266.207031 C 225.226562 274.613281 229.671875 282.269531 229.96875 290.417969 C 228.972656 296.507812 222.023438 301.503906 225.359375 308.082031 C 225.960938 309.292969 225.070312 308.855469 226.257812 309.351562 C 227.585938 309.898438 230.027344 308.863281 228.714844 308.316406 C 223.070312 303.902344 230.625 297.265625 231.847656 292.359375 C 233.277344 284.351562 227.851562 277.011719 228.328125 268.902344 Z M 240.128906 248.527344 C 241.683594 236.859375 245.910156 225.492188 244.015625 213.53125 C 242.546875 198.011719 237.386719 182.855469 238.128906 167.117188 C 238.535156 158.578125 241.132812 150.371094 241.476562 141.808594 C 242.597656 116.039062 230.429688 88.875 241.980469 64.1875 C 242.628906 62.84375 240.71875 61.648438 240.070312 62.996094 C 233.382812 76.859375 234.296875 92.90625 236.242188 107.875 C 237.921875 120.742188 240.320312 133.746094 238.898438 146.761719 C 236.808594 158.777344 234.621094 170.808594 236.839844 183.003906 C 238.933594 198.488281 243.949219 214 241.542969 229.75 C 240.289062 237.722656 237.207031 245.332031 237.996094 253.554688 C 241.476562 272.324219 249.359375 286.984375 241.914062 306.613281 C 245.070312 314.921875 248.246094 285.390625 246.988281 283.589844 C 246.390625 271.550781 239.472656 260.679688 240.128906 248.527344 Z M 257.363281 253.917969 C 253.625 225.292969 256.726562 196.421875 254.199219 167.65625 C 252.105469 134.613281 248.425781 101.578125 249.605469 68.421875 C 249.679688 66.339844 249.773438 64.257812 249.886719 62.179688 C 249.964844 60.621094 247.753906 60.628906 247.671875 62.179688 C 245.46875 120.003906 255.394531 177.519531 253.203125 235.375 C 255.386719 247.238281 255.34375 259.015625 253.578125 270.929688 C 252.339844 283.523438 261.136719 295.324219 257.847656 307.867188 C 257.429688 309.359375 259.558594 309.992188 259.980469 308.507812 C 261.914062 301.6875 260.121094 294.722656 258.34375 288.105469 C 254.09375 276.945312 256.566406 265.394531 257.363281 253.917969 Z M 273.078125 268.902344 C 272.664062 252.261719 277.761719 236.046875 276.660156 219.371094 C 275.921875 202.277344 272.207031 185.511719 271.183594 168.441406 C 270.15625 151.257812 271.042969 133.910156 268.269531 116.875 C 265.378906 99.269531 257.8125 80.285156 265.460938 62.820312 C 266.070312 61.453125 264.160156 60.25 263.550781 61.625 C 256.648438 77.066406 261.359375 94.148438 264.683594 109.863281 C 268.527344 127.191406 268.097656 145.035156 268.695312 162.675781 C 269.464844 188.855469 277.375 214.757812 273.410156 241.007812 C 272.316406 249.371094 270.820312 257.734375 270.8125 266.207031 C 269.972656 274.613281 274.417969 282.269531 274.714844 290.417969 C 273.71875 296.507812 266.773438 301.503906 270.105469 308.082031 C 270.710938 309.292969 269.816406 308.855469 271.003906 309.351562 C 272.332031 309.898438 274.773438 308.863281 273.460938 308.316406 C 267.820312 303.902344 275.371094 297.265625 276.59375 292.359375 C 278.023438 284.351562 272.597656 277.011719 273.078125 268.902344 Z M 287.398438 248.527344 C 288.953125 236.859375 293.179688 225.492188 291.285156 213.53125 C 289.816406 198.011719 284.65625 182.855469 285.398438 167.117188 C 285.804688 158.578125 288.402344 150.371094 288.746094 141.808594 C 289.867188 116.039062 277.699219 88.875 289.25 64.1875 C 289.898438 62.84375 287.988281 61.648438 287.339844 62.996094 C 280.652344 76.859375 281.566406 92.90625 283.511719 107.875 C 285.191406 120.742188 287.589844 133.746094 286.167969 146.761719 C 284.078125 158.777344 281.890625 170.808594 284.109375 183.003906 C 286.195312 198.488281 291.21875 214 288.8125 229.75 C 287.558594 237.722656 284.476562 245.332031 285.265625 253.554688 C 288.746094 272.324219 296.628906 286.984375 289.183594 306.613281 C 292.339844 314.921875 295.515625 285.390625 294.257812 283.589844 C 293.660156 271.550781 286.75 260.679688 287.398438 248.527344 Z M 304.632812 253.917969 C 300.894531 225.292969 303.996094 196.421875 301.46875 167.65625 C 299.375 134.613281 295.695312 101.578125 296.875 68.421875 C 296.949219 66.339844 297.042969 64.257812 297.152344 62.179688 C 297.234375 60.621094 295.023438 60.628906 294.941406 62.179688 C 292.738281 120.003906 302.671875 177.519531 300.472656 235.375 C 302.65625 247.238281 302.609375 259.015625 300.847656 270.929688 C 299.609375 283.523438 308.40625 295.324219 305.117188 307.867188 C 304.699219 309.359375 306.828125 309.992188 307.25 308.507812 C 309.183594 301.6875 307.390625 294.722656 305.613281 288.105469 C 301.371094 276.945312 303.84375 265.394531 304.632812 253.917969 Z M 320.347656 268.902344 C 319.933594 252.261719 325.027344 236.046875 323.929688 219.371094 C 323.191406 202.277344 319.476562 185.511719 318.453125 168.441406 C 317.425781 151.257812 318.3125 133.910156 315.539062 116.875 C 312.648438 99.269531 305.082031 80.285156 312.730469 62.820312 C 313.339844 61.453125 311.429688 60.25 310.820312 61.625 C 303.917969 77.066406 308.628906 94.148438 311.953125 109.863281 C 315.796875 127.191406 315.367188 145.035156 315.964844 162.675781 C 316.734375 188.855469 324.644531 214.757812 320.679688 241.007812 C 319.585938 249.371094 318.089844 257.734375 318.082031 266.207031 C 317.242188 274.613281 321.695312 282.269531 321.984375 290.417969 C 320.988281 296.507812 314.042969 301.503906 317.375 308.082031 C 317.980469 309.292969 317.085938 308.855469 318.273438 309.351562 C 319.601562 309.898438 322.042969 308.863281 320.730469 308.316406 C 315.089844 303.902344 322.640625 297.265625 323.863281 292.359375 C 325.292969 284.351562 319.867188 277.011719 320.347656 268.902344 Z M 332.144531 248.527344 C 333.703125 236.859375 337.925781 225.492188 336.03125 213.53125 C 334.5625 198.011719 329.402344 182.855469 330.148438 167.117188 C 330.550781 158.578125 333.148438 150.371094 333.496094 141.808594 C 334.617188 116.039062 322.449219 88.875 333.996094 64.1875 C 334.644531 62.84375 332.734375 61.648438 332.085938 62.996094 C 325.398438 76.859375 326.3125 92.90625 328.257812 107.875 C 329.941406 120.742188 332.335938 133.746094 330.914062 146.761719 C 328.828125 158.777344 326.636719 170.808594 328.855469 183.003906 C 330.945312 198.488281 335.964844 214 333.5625 229.75 C 332.308594 237.722656 329.226562 245.332031 330.015625 253.554688 C 333.496094 272.324219 341.378906 286.984375 333.929688 306.613281 C 337.085938 314.921875 340.265625 285.390625 339.003906 283.589844 C 338.40625 271.550781 331.496094 260.679688 332.144531 248.527344 Z M 349.378906 253.917969 C 345.640625 225.292969 348.746094 196.421875 346.214844 167.65625 C 344.121094 134.613281 340.441406 101.578125 341.621094 68.421875 C 341.695312 66.339844 341.789062 64.257812 341.902344 62.179688 C 341.984375 60.621094 339.769531 60.628906 339.6875 62.179688 C 337.484375 120.003906 347.417969 177.519531 345.21875 235.375 C 347.402344 247.238281 347.359375 259.015625 345.597656 270.929688 C 344.355469 283.523438 353.15625 295.324219 349.867188 307.867188 C 349.445312 309.359375 351.578125 309.992188 351.996094 308.507812 C 353.929688 301.6875 352.136719 294.722656 350.359375 288.105469 C 346.121094 276.945312 348.589844 265.394531 349.378906 253.917969 Z M 365.09375 268.902344 C 364.679688 252.261719 369.777344 236.046875 368.679688 219.371094 C 367.941406 202.277344 364.222656 185.511719 363.199219 168.441406 C 362.171875 151.257812 363.058594 133.910156 360.285156 116.875 C 357.394531 99.269531 349.828125 80.285156 357.476562 62.820312 C 358.089844 61.453125 356.179688 60.25 355.566406 61.625 C 348.664062 77.066406 353.375 94.148438 356.703125 109.863281 C 360.542969 127.191406 360.117188 145.035156 360.714844 162.675781 C 361.480469 188.855469 369.394531 214.757812 365.425781 241.007812 C 364.335938 249.371094 362.835938 257.734375 362.828125 266.207031 C 361.988281 274.613281 366.4375 282.269531 366.730469 290.417969 C 365.734375 296.507812 358.789062 301.503906 362.121094 308.082031 C 362.726562 309.292969 361.835938 308.855469 363.023438 309.351562 C 364.347656 309.898438 366.789062 308.863281 365.476562 308.316406 C 359.835938 303.902344 367.386719 297.265625 368.613281 292.359375 C 370.042969 284.351562 364.613281 277.011719 365.09375 268.902344 Z M 365.09375 268.902344 " fill-opacity="1" fill-rule="nonzero"/></svg>