<svg xmlns="http://www.w3.org/2000/svg" xmlns:xlink="http://www.w3.org/1999/xlink" width="1920" zoomAndPan="magnify" viewBox="0 0 1440 112.499997" height="150" preserveAspectRatio="xMidYMid meet" version="1.0"><path stroke-linecap="butt" transform="matrix(0.746681, 0, 0, 0.746681, 14.386082, 54.507739)" fill="none" stroke-linejoin="miter" d="M 14.999511 1.998524 L 1875.000569 1.998524 " stroke="#000000" stroke-width="4" stroke-opacity="1" stroke-miterlimit="4"/><path stroke-linecap="round" transform="matrix(0.746681, 0, 0, 0.746681, 14.386082, 54.507739)" fill-opacity="1" fill="#000000" fill-rule="nonzero" stroke-linejoin="round" d="M 1.999279 1.998524 C 1.999279 -1.313004 4.68826 -4.001986 7.999788 -4.001986 C 11.311316 -4.001986 14.000298 -1.313004 14.000298 1.998524 C 14.000298 5.315283 11.311316 7.999034 7.999788 7.999034 C 4.68826 7.999034 1.999279 5.315283 1.999279 1.998524 " stroke="#000000" stroke-width="4" stroke-opacity="1" stroke-miterlimit="4"/><path stroke-linecap="round" transform="matrix(0.746681, 0, 0, 0.746681, 14.386082, 54.507739)" fill-opacity="1" fill="#000000" fill-rule="nonzero" stroke-linejoin="round" d="M 1888.000801 1.998524 C 1888.000801 5.315283 1885.31182 7.999034 1882.000292 7.999034 C 1878.688764 7.999034 1875.999782 5.315283 1875.999782 1.998524 C 1875.999782 -1.313004 1878.688764 -4.001986 1882.000292 -4.001986 C 1885.31182 -4.001986 1888.000801 -1.313004 1888.000801 1.998524 " stroke="#000000" stroke-width="4" stroke-opacity="1" stroke-miterlimit="4"/></svg>