<svg xmlns="http://www.w3.org/2000/svg" xmlns:xlink="http://www.w3.org/1999/xlink" width="1920" zoomAndPan="magnify" viewBox="0 0 1440 809.999993" height="1080" preserveAspectRatio="xMidYMid meet" version="1.0"><defs><clipPath id="35aaea9b84"><path d="M 23.242188 27 L 332 27 L 332 336 L 23.242188 336 Z M 23.242188 27 " clip-rule="nonzero"/></clipPath><clipPath id="638f9398da"><path d="M 35 24 L 350.992188 24 L 350.992188 340 L 35 340 Z M 35 24 " clip-rule="nonzero"/></clipPath><clipPath id="76b5055fb4"><path d="M 47 16.324219 L 350.992188 16.324219 L 350.992188 321 L 47 321 Z M 47 16.324219 " clip-rule="nonzero"/></clipPath></defs><g clip-path="url(#35aaea9b84)"><path fill="#ffffff" d="M 331.269531 181.871094 C 331.269531 266.929688 262.316406 335.878906 177.261719 335.878906 C 92.207031 335.878906 23.253906 266.929688 23.253906 181.871094 C 23.253906 96.816406 92.207031 27.863281 177.261719 27.863281 C 262.316406 27.863281 331.269531 96.816406 331.269531 181.871094 M 328.136719 181.871094 C 328.136719 98.546875 260.585938 31 177.261719 31 C 93.9375 31 26.386719 98.546875 26.386719 181.871094 C 26.386719 265.199219 93.9375 332.746094 177.261719 332.746094 C 260.585938 332.746094 328.136719 265.199219 328.136719 181.871094 Z M 328.136719 181.871094 " fill-opacity="1" fill-rule="nonzero"/></g><g clip-path="url(#638f9398da)"><path fill="#ffffff" d="M 350.472656 182.375 C 350.472656 269.382812 279.9375 339.917969 192.929688 339.917969 C 105.921875 339.917969 35.386719 269.382812 35.386719 182.375 C 35.386719 95.367188 105.921875 24.832031 192.929688 24.832031 C 279.9375 24.832031 350.472656 95.367188 350.472656 182.375 M 347.339844 182.375 C 347.339844 97.097656 278.207031 27.964844 192.929688 27.964844 C 107.652344 27.964844 38.519531 97.097656 38.519531 182.375 C 38.519531 267.652344 107.652344 336.785156 192.929688 336.785156 C 278.207031 336.785156 347.339844 267.652344 347.339844 182.375 Z M 347.339844 182.375 " fill-opacity="1" fill-rule="nonzero"/></g><g clip-path="url(#76b5055fb4)"><path fill="#ffffff" d="M 350.828125 168.65625 C 350.828125 252.550781 282.816406 320.5625 198.921875 320.5625 C 115.027344 320.5625 47.015625 252.550781 47.015625 168.65625 C 47.015625 84.757812 115.027344 16.746094 198.921875 16.746094 C 282.816406 16.746094 350.828125 84.757812 350.828125 168.65625 M 347.695312 168.65625 C 347.695312 86.488281 281.085938 19.878906 198.921875 19.878906 C 116.757812 19.878906 50.148438 86.488281 50.148438 168.65625 C 50.148438 250.820312 116.757812 317.429688 198.921875 317.429688 C 281.085938 317.429688 347.695312 250.820312 347.695312 168.65625 Z M 347.695312 168.65625 " fill-opacity="1" fill-rule="nonzero"/></g><path fill="#171717" d="M 629.816406 725.902344 C 685.464844 716.269531 737.851562 689.78125 778.480469 650.503906 C 786.917969 642.351562 795.3125 633.332031 799.214844 622.039062 C 802.988281 611.136719 800.394531 599.902344 792.660156 591.433594 C 784.101562 582.066406 771.664062 576.78125 760.222656 571.910156 C 748.359375 566.855469 736.175781 562.542969 723.757812 559.039062 C 673.523438 544.835938 619.726562 543.5625 568.851562 555.222656 C 542.996094 561.144531 516.996094 570.164062 494.179688 583.859375 C 471.992188 597.160156 452.957031 616.550781 445.984375 642.046875 C 439.691406 665.058594 445.476562 688.925781 462.539062 705.75 C 479.542969 722.523438 503.675781 730.957031 526.707031 735.277344 C 581.488281 745.542969 639.492188 739.664062 691.578125 720.132812 C 736.191406 703.398438 785.738281 675.339844 806.71875 630.226562 C 817.574219 606.886719 817.539062 581.210938 808.085938 557.367188 C 798.75 533.796875 782.464844 512.984375 763.707031 496.132812 C 727.890625 463.960938 681.535156 445.558594 634.804688 436.273438 C 581.71875 425.726562 524.578125 424.550781 471.890625 437.800781 C 444.425781 444.699219 417.339844 456.078125 394.636719 473.226562 C 375.246094 487.871094 361.378906 508.761719 367.6875 533.859375 C 381.402344 588.449219 450.597656 595.132812 496.832031 596.804688 C 553.171875 598.84375 609.609375 589.152344 662.957031 571.234375 C 716.167969 553.363281 767.109375 527.492188 813.25 495.515625 C 850.757812 469.519531 888.808594 435.105469 899.636719 388.863281 C 911.617188 337.664062 883.957031 286.105469 843.074219 256.253906 C 799.894531 224.71875 744.367188 213.40625 691.867188 211.292969 C 635.015625 209.011719 575.570312 218.53125 523.5625 242.136719 C 500.632812 252.546875 478.589844 266.851562 463.402344 287.308594 C 449.046875 306.644531 442.320312 330.105469 442.355469 354.066406 C 442.425781 402.066406 466.898438 447.636719 500.851562 480.414062 C 534.761719 513.128906 579.242188 534.808594 625.703125 542.273438 C 677.703125 550.625 731.28125 540.519531 778.507812 517.882812 C 802.980469 506.15625 825.75 491.019531 846.226562 473.226562 C 865.230469 456.722656 883.734375 437.691406 894.792969 414.78125 C 905.257812 393.128906 906.910156 368.582031 894.488281 347.328125 C 881.496094 325.101562 857.992188 310.871094 834.585938 301.792969 C 781.550781 281.21875 721.078125 281.320312 665.519531 289.539062 C 607.863281 298.074219 549.816406 317.148438 500.539062 348.738281 C 478.023438 363.164062 457.253906 380.84375 441.253906 402.394531 C 426.726562 421.96875 416.566406 444.410156 411.132812 468.175781 C 400.242188 515.769531 407.699219 566.761719 429.832031 610.074219 C 453.414062 656.242188 492.371094 693.378906 536.933594 719.179688 C 581.25 744.847656 631.621094 759.371094 682.699219 762.207031 C 733.359375 765.023438 784.839844 756.199219 831.089844 735.132812 C 874.984375 715.132812 916.757812 683.375 938.761719 639.457031 C 950.082031 616.871094 954.917969 591.742188 952.128906 566.582031 C 949.015625 538.472656 937.839844 511.738281 923.050781 487.835938 C 896.769531 445.355469 858.09375 411.296875 814.214844 387.835938 C 767.109375 362.644531 714.246094 350.214844 661.007812 348.59375 C 604.34375 346.871094 546.507812 356.664062 493.253906 376.035156 C 443.171875 394.25 395.0625 425.339844 372.175781 475.320312 C 361.515625 498.585938 357.886719 523.980469 362.007812 549.273438 C 366.417969 576.316406 378.636719 601.855469 394.722656 623.863281 C 422.519531 661.875 462.453125 689.433594 506.203125 706.046875 C 554.742188 724.484375 607.234375 728.828125 658.503906 721.75 C 717.621094 713.597656 774.003906 691.597656 826.105469 662.996094 C 880.15625 633.332031 929.75 596.347656 978.398438 558.675781 C 1002.882812 539.71875 1027.183594 520.527344 1051.863281 501.820312 C 1061.816406 494.269531 1072.070312 485.332031 1084.476562 482.21875 C 1090.277344 480.769531 1096.550781 481.167969 1101.417969 484.960938 C 1107.007812 489.3125 1109.085938 496.71875 1109.96875 503.449219 C 1111.824219 517.726562 1111.070312 532.695312 1110.441406 547.042969 C 1109.753906 562.511719 1108.269531 577.9375 1105.972656 593.242188 C 1101.988281 619.800781 1095.679688 646.167969 1085.65625 671.125 C 1075.902344 695.382812 1062.648438 718.367188 1044.984375 737.738281 C 1026.210938 758.3125 1002.585938 774.289062 976.617188 784.316406 C 927.101562 803.441406 871.558594 799.648438 824.996094 774.246094 C 801.894531 761.65625 781.898438 744.144531 766.183594 723.03125 C 748.707031 699.5625 736.410156 672.710938 726.523438 645.289062 C 704.949219 585.425781 692.59375 522.691406 673.210938 462.136719 C 656.402344 409.640625 634.414062 353.703125 588.222656 320.152344 C 549.179688 291.796875 499.011719 282.253906 451.582031 287.105469 C 400.488281 292.324219 351.644531 314.246094 312.230469 346.9375 C 272.449219 379.929688 240.070312 425.542969 227.960938 476.289062 C 221.925781 501.566406 221.6875 528.035156 229.132812 553.050781 C 236.503906 577.832031 250.585938 600.300781 268.378906 618.933594 C 305.539062 657.871094 357.757812 677.402344 410.148438 684.699219 C 467.550781 692.691406 526.621094 688.363281 583.007812 675.613281 C 640.933594 662.511719 696.613281 640.070312 748.199219 610.746094 C 798.375 582.210938 844.746094 547.246094 887.238281 508.242188 C 908.660156 488.574219 929.105469 467.855469 948.640625 446.3125 C 965.550781 427.65625 982.34375 402.675781 1007.164062 394.019531 C 1019.738281 389.632812 1032.257812 392.453125 1041.644531 401.953125 C 1051.269531 411.695312 1058.128906 424.949219 1064.257812 437.074219 C 1077.183594 462.601562 1085.636719 490.832031 1086.578125 519.550781 C 1088.242188 569.96875 1063.023438 622.675781 1015.675781 644.371094 C 964.789062 667.6875 907.429688 642.972656 871.777344 604.433594 C 831.539062 560.949219 811.316406 501.914062 799.613281 444.878906 C 787.367188 385.214844 783.644531 324.234375 774.488281 264.085938 C 770.28125 236.460938 765.566406 208.324219 756.890625 181.691406 C 750.335938 161.53125 740.761719 141.195312 725.34375 126.261719 C 709.078125 110.503906 687.117188 104.300781 665.050781 110.011719 C 638.703125 116.824219 616.453125 136.058594 596 153.125 C 554.410156 187.808594 517.445312 227.925781 486.027344 272.035156 C 470.238281 294.207031 455.875 317.402344 443.09375 341.441406 C 430.253906 365.570312 418.085938 390.667969 410.726562 417.082031 C 403.578125 442.757812 401.695312 470.246094 409.953125 495.914062 C 417.332031 518.832031 432.789062 538.320312 454.609375 548.882812 C 495.925781 568.882812 545.855469 556.996094 586.609375 541.707031 C 636.992188 522.800781 683.988281 495.292969 725.386719 460.929688 C 766.617188 426.722656 803.503906 385.324219 830.4375 338.84375 C 842.996094 317.175781 851.605469 292.289062 843.226562 267.496094 C 835.230469 243.859375 815.546875 225.507812 793.042969 215.664062 C 768.441406 204.898438 741.074219 202.808594 714.53125 203.4375 C 686.464844 204.097656 658.445312 207.960938 631.199219 214.738281 C 576.417969 228.355469 524.460938 253.929688 480.550781 289.472656 C 459.742188 306.324219 440.285156 325.234375 425.109375 347.414062 C 409.96875 369.527344 400.457031 394.632812 397.5625 421.300781 C 391.976562 472.996094 408.84375 525.585938 438.242188 567.839844 C 466.929688 609.066406 507.667969 641.792969 553.742188 661.636719 C 602.351562 682.578125 656.511719 688.914062 708.917969 683.050781 C 762.605469 677.054688 814.222656 658.515625 860.28125 630.414062 C 907.328125 601.710938 948.40625 563.664062 982.628906 520.585938 C 1014.804688 480.097656 1047.222656 432.472656 1050.871094 379.308594 C 1052.742188 352.054688 1045.941406 324.820312 1048.929688 297.609375 C 1051.363281 275.480469 1061.171875 252.140625 1082.425781 242.304688 C 1084.746094 241.226562 1083.570312 238.011719 1081.628906 237.375 C 1037.675781 222.96875 993.027344 210.691406 947.871094 200.6875 C 925.433594 195.714844 902.882812 191.296875 880.234375 187.445312 C 858.515625 183.746094 836.585938 180.679688 814.519531 180.597656 C 793.542969 180.519531 772.09375 183.152344 752.652344 191.378906 C 734.613281 199.015625 719.230469 211.234375 707.636719 227.015625 C 684.265625 258.792969 675.269531 300.15625 671.003906 338.660156 C 666.238281 381.617188 668.960938 425.535156 679.484375 467.480469 C 687.914062 501.082031 704.679688 538.089844 739.445312 550.953125 C 775.03125 564.121094 814.003906 547.347656 844.269531 528.707031 C 878.875 507.402344 909.261719 479.183594 933.105469 446.269531 C 955.519531 415.34375 977.710938 376.578125 972.523438 336.886719 C 967.425781 297.839844 938.332031 266.089844 904.222656 248.769531 C 868.371094 230.5625 826.664062 225.148438 786.917969 223.785156 C 747.476562 222.433594 706.839844 226.558594 669.886719 241.074219 C 633.363281 255.414062 602.722656 280.34375 583.515625 314.816406 C 563.289062 351.121094 554.597656 393.96875 552.945312 435.179688 C 551.230469 477.765625 557.683594 521.519531 573.261719 561.28125 C 587.007812 596.355469 609.617188 629.894531 644.335938 646.832031 C 707.054688 677.4375 784.308594 646.527344 829.066406 598.535156 C 841.792969 584.902344 853.046875 568.847656 856.871094 550.277344 C 860.761719 531.355469 856.53125 512.121094 848.128906 495.015625 C 830.894531 459.894531 798.179688 432.992188 765.558594 412.679688 C 732.449219 392.085938 695.359375 377.738281 656.96875 370.882812 C 617.199219 363.78125 574.171875 364.035156 536.65625 380.617188 C 501.496094 396.152344 477.125 425.949219 466.320312 462.578125 C 455.984375 497.621094 457.714844 535.683594 467.941406 570.535156 C 488.632812 641.019531 543.804688 699.285156 609.863281 729.796875 C 681.722656 762.988281 765.269531 762.910156 840.480469 741.714844 C 860.167969 736.167969 879.4375 729.148438 898.117188 720.808594 C 914.773438 713.367188 931.234375 705.15625 946.039062 694.414062 C 959.589844 684.578125 972.074219 672.515625 979.765625 657.453125 C 988.347656 640.644531 989.3125 621.640625 984.214844 603.601562 C 978.78125 584.332031 967.730469 567.023438 955.800781 551.167969 C 944.886719 536.667969 932.714844 523.097656 919.503906 510.660156 C 893.25 485.9375 862.867188 465.539062 830.140625 450.402344 C 797.289062 435.207031 762.054688 425.246094 726.046875 421.375 C 685.851562 417.066406 640.179688 417.972656 604.613281 439.492188 C 573.761719 458.164062 553.675781 493.097656 563.441406 529.351562 C 573.261719 565.8125 605.46875 590.714844 640.550781 600.675781 C 680.136719 611.917969 723.675781 608.320312 763.785156 602.015625 C 807.136719 595.203125 849.46875 582.542969 889.46875 564.503906 C 928.902344 546.730469 965.957031 523.828125 999.3125 496.269531 C 1027.949219 472.605469 1056.527344 442.875 1061.242188 404.269531 C 1066.191406 363.6875 1044.324219 325.582031 1018.449219 296.167969 C 993.578125 267.886719 963 244.070312 930.316406 225.507812 C 866.757812 189.402344 789.410156 172.324219 717.535156 190.667969 C 679.644531 200.332031 642.945312 222.867188 630.859375 262.09375 C 625.652344 279.019531 625.957031 297.625 633.648438 313.746094 C 641.476562 330.148438 656.128906 342.585938 672.515625 349.976562 C 710.453125 367.125 755.507812 357.613281 793.378906 345.140625 C 835.136719 331.378906 874.042969 309.367188 907.335938 280.640625 C 935.109375 256.6875 961.117188 225.507812 963.839844 187.382812 C 966.59375 148.789062 943.902344 113.882812 916.351562 88.945312 C 887.535156 62.863281 851.308594 44.867188 814.460938 33.183594 C 776.9375 21.289062 737.183594 16.238281 697.878906 18.539062 C 657.4375 20.90625 616.503906 30.722656 581.335938 51.339844 C 548.644531 70.5 523.347656 99.347656 509.136719 134.507812 C 495.957031 167.105469 491.878906 202.707031 492.734375 237.664062 C 493.675781 276.492188 500.402344 315.300781 510.164062 352.828125 C 521.171875 395.140625 538.003906 436.726562 566.121094 470.664062 C 590.925781 500.597656 623.929688 523.683594 662.234375 532.09375 C 699.734375 540.332031 738.914062 534.867188 775.0625 523.167969 C 810.59375 511.671875 845.203125 494.640625 875.808594 473.191406 C 903.714844 453.625 929.792969 428.691406 943.773438 397.050781 C 951.144531 380.371094 954.46875 362.609375 954.15625 344.394531 C 953.773438 322.25 949.144531 300.144531 951.371094 277.976562 C 955.078125 241.195312 978.152344 204.683594 1014.753906 193.636719 C 1031.925781 188.453125 1051.105469 188.75 1067.746094 195.75 C 1086.445312 203.617188 1099.289062 219.59375 1107.421875 237.773438 C 1116.023438 256.992188 1120.355469 278.085938 1124.46875 298.628906 C 1128.757812 320.078125 1132.015625 341.730469 1134.253906 363.492188 C 1138.757812 407.214844 1139.171875 451.351562 1135.5 495.148438 C 1131.828125 538.929688 1124.28125 582.761719 1112.003906 624.976562 C 1100.222656 665.429688 1080.617188 706.503906 1042.5 728.082031 C 1025.015625 737.984375 1004.78125 741.988281 984.878906 739.027344 C 967.289062 736.414062 950.789062 729.074219 935.929688 719.476562 C 901.867188 697.460938 876.5625 664.164062 854.996094 630.40625 C 807.253906 555.664062 777.683594 470.707031 726.929688 397.746094 C 704.171875 365.039062 676.226562 332.464844 637.21875 319.507812 C 619.023438 313.46875 598.890625 312.015625 580.386719 317.582031 C 562.460938 322.96875 547.304688 334.773438 535.519531 349.078125 C 523.222656 364.011719 514.164062 381.335938 506.6875 399.085938 C 498.628906 418.195312 492 437.894531 486.859375 457.988281 C 476.640625 497.925781 472.273438 539.40625 473.917969 580.609375 C 476.792969 652.457031 495.96875 746.636719 577.128906 766.371094 C 610.863281 774.578125 646.777344 768.832031 679.375 758.480469 C 696.988281 752.882812 714.066406 745.679688 730.671875 737.574219 C 749.554688 728.371094 767.753906 717.601562 783.855469 704.019531 C 812.308594 680.015625 833.832031 644.855469 832.796875 606.597656 C 831.746094 567.660156 805.058594 537.335938 773.546875 517.523438 C 740.3125 496.617188 701.015625 484.308594 662.53125 477.628906 C 623.601562 470.867188 583.59375 470.308594 544.480469 475.957031 C 505.617188 481.582031 467.710938 493.214844 432.59375 510.847656 C 416.457031 518.949219 400.03125 528.632812 388.753906 543.097656 C 378.296875 556.511719 373.949219 573.210938 377.730469 589.917969 C 386.082031 626.808594 423.097656 649.300781 456.59375 659.839844 C 496.121094 672.269531 538.722656 672.160156 579.5625 668.070312 C 666.941406 659.3125 751.980469 628.367188 824.621094 579.003906 C 856.03125 557.65625 888.882812 532.882812 908.480469 499.605469 C 917.199219 484.800781 922.746094 468.042969 922.609375 450.75 C 922.457031 429.75 913.898438 409.996094 902.070312 392.996094 C 889.308594 374.660156 873.085938 359.105469 856.691406 344.070312 C 839.597656 328.382812 822 313.238281 804.140625 298.433594 C 767.195312 267.792969 729.238281 238.394531 691.558594 208.679688 C 652.992188 178.273438 614.484375 147.785156 575.859375 117.453125 C 561.289062 106.015625 545.355469 94.316406 526.105469 93.601562 C 506.269531 92.875 488.410156 103.996094 474.207031 116.84375 C 459.621094 130.035156 447.28125 145.988281 435.953125 162.007812 C 425.015625 177.484375 415.246094 193.78125 406.714844 210.699219 C 389.441406 244.96875 377.179688 281.820312 370.605469 319.644531 C 367.359375 338.292969 365.476562 357.199219 365.035156 376.125 C 364.535156 397.246094 365.144531 419.722656 375.066406 438.886719 C 391.109375 469.867188 427.542969 478.207031 459.730469 477.019531 C 479.21875 476.289062 498.5625 472.34375 517.40625 467.488281 C 539.078125 461.898438 560.28125 454.464844 580.71875 445.320312 C 618.292969 428.511719 655.503906 406.238281 684.445312 376.609375 C 708.597656 351.878906 727.941406 318.828125 723.335938 283.050781 C 718.144531 242.679688 686.515625 211.929688 653.136719 192.027344 C 634.371094 180.824219 614.332031 172 594.597656 162.675781 C 584.992188 158.128906 575.339844 153.539062 566.070312 148.3125 C 560.550781 145.207031 558.429688 141.261719 562.664062 135.875 C 565.917969 131.734375 570.847656 128.90625 575.246094 126.160156 C 595.082031 113.761719 617.367188 105.964844 639.855469 99.941406 C 661.261719 94.195312 683.0625 89.929688 705.050781 87.1875 C 748.945312 81.714844 793.609375 82.105469 837.375 88.519531 C 877.445312 94.382812 918.285156 104.320312 954.171875 123.605469 C 990.414062 143.078125 1018.6875 173.171875 1030.847656 213.023438 C 1043.414062 254.210938 1038.742188 298.59375 1023.003906 338.234375 C 1007.75 376.644531 983.199219 412.289062 953.992188 441.417969 C 925.078125 470.246094 888.121094 492.519531 846.355469 493.496094 C 827.335938 493.9375 808.085938 489.941406 791.480469 480.4375 C 774.792969 470.875 761.9375 456.054688 753.066406 439.125 C 734.75 404.167969 731.816406 361.246094 737.242188 322.707031 C 742.695312 283.972656 758.824219 246.464844 789.046875 220.703125 C 818.683594 195.4375 857.878906 183.796875 896.292969 182.234375 C 935.039062 180.648438 974.253906 188.878906 1008.96875 206.1875 C 1042.542969 222.925781 1073.25 248.914062 1088.742188 283.769531 C 1104.277344 318.710938 1101.496094 358.851562 1084.832031 392.867188 C 1066.921875 429.417969 1034.222656 455.933594 996.097656 469.296875 C 921.914062 495.304688 818.863281 473.777344 789.054688 392.800781 C 782.078125 373.863281 780.132812 353.226562 784.847656 333.515625 C 788.9375 316.378906 797.746094 300.75 809.265625 287.503906 C 832.777344 260.453125 865.902344 242.839844 899.492188 231.625 C 941.746094 217.503906 986.507812 211.261719 1031.007812 213.042969 C 1052.878906 213.925781 1075.113281 216.375 1096.355469 221.796875 C 1114.75 226.480469 1133.984375 234.964844 1142.835938 252.886719 C 1152.265625 271.984375 1146.601562 294.800781 1137.933594 313.050781 C 1129.257812 331.3125 1116.574219 347.820312 1102.828125 362.535156 C 1075.808594 391.449219 1041.847656 413.839844 1004.710938 427.460938 C 969.273438 440.464844 929.808594 446.550781 892.402344 439.515625 C 858.21875 433.078125 822.816406 414.535156 810.628906 379.816406 C 798.238281 344.546875 813.980469 302.769531 846.195312 284.101562 C 879.402344 264.867188 923.074219 270.382812 950.625 296.886719 C 978.570312 323.777344 986.9375 364.730469 974.03125 400.910156 C 960.269531 439.492188 927.585938 467.601562 891.078125 484.078125 C 849.128906 503.023438 802.074219 509.574219 756.59375 513.453125 C 711.300781 517.304688 665.816406 517.609375 620.402344 519.007812 C 575.460938 520.390625 530.414062 522.894531 486.097656 530.914062 C 465.601562 534.613281 442.914062 539.109375 427.683594 554.542969 C 415.820312 566.566406 409.683594 584.730469 417.1875 600.667969 C 425.546875 618.449219 446.136719 629.648438 463.183594 637.507812 C 482.347656 646.347656 502.792969 652.125 523.195312 657.308594 C 564.394531 667.789062 607.003906 674.855469 649.632812 673.863281 C 690.550781 672.90625 731.773438 663.960938 766.949219 642.351562 C 797.953125 623.304688 822.433594 594.921875 837.925781 562.070312 C 853.308594 529.472656 860.042969 492.765625 856.421875 456.859375 C 852.488281 417.878906 837.144531 380.371094 813.757812 349.035156 C 766.660156 285.925781 689.558594 252.726562 611.601562 254.480469 C 571.355469 255.390625 527.445312 264.230469 495.832031 290.6875 C 467.890625 314.070312 453.871094 349.347656 449.0625 384.722656 C 444.113281 421.113281 447.503906 458.648438 456.222656 494.207031 C 465.132812 530.523438 480.355469 565.625 502.15625 596.058594 C 523.707031 626.136719 551.78125 651.445312 585 667.96875 C 621.632812 686.183594 662.523438 693.820312 703.066406 696.484375 C 792.8125 702.371094 885.050781 686.683594 967.527344 650.667969 C 1000.53125 636.25 1033.136719 617.21875 1056.515625 589.261719 C 1080.101562 561.050781 1090.15625 525.398438 1084.308594 489.015625 C 1078.109375 450.570312 1057.347656 415.46875 1031.992188 386.527344 C 1008.230469 359.4375 979.816406 336.503906 948.691406 318.398438 C 886.058594 281.953125 811.851562 264.78125 739.609375 271.578125 C 721.382812 273.292969 703.085938 276.328125 685.488281 281.429688 C 667.164062 286.730469 648.972656 294.84375 635.347656 308.546875 C 625.535156 318.40625 613.816406 337.4375 629.578125 347.832031 C 642.171875 356.128906 659.625 351.335938 672.539062 346.652344 C 746.316406 319.882812 812.222656 272.554688 861.316406 211.304688 C 863.476562 208.605469 859.542969 204.886719 857.355469 207.613281 C 831.03125 240.457031 799.945312 269.3125 765.191406 293.042969 C 748.078125 304.738281 730.128906 315.199219 711.503906 324.285156 C 701.789062 329.035156 691.890625 333.390625 681.832031 337.359375 C 673.351562 340.710938 664.609375 344.511719 655.5625 346.007812 C 648.347656 347.203125 639.476562 347.542969 632.988281 343.597656 C 624.585938 338.480469 626.890625 328.535156 631.539062 321.5625 C 642.691406 304.8125 661.726562 294.859375 680.324219 288.691406 C 714.683594 277.289062 752.394531 274.132812 788.394531 276.007812 C 859.847656 279.714844 930.324219 306.027344 986.371094 350.605469 C 1015.296875 373.605469 1041.109375 401.480469 1058.992188 434 C 1077.582031 467.8125 1087.425781 508.113281 1075.089844 545.777344 C 1063.792969 580.269531 1036.039062 606.097656 1005.925781 624.730469 C 971.53125 646.007812 932.503906 660.167969 893.71875 671.011719 C 850.078125 683.207031 805.03125 690.222656 759.757812 691.859375 C 717.585938 693.378906 674.4375 691.128906 633.496094 680.261719 C 595.980469 670.308594 561.644531 652.042969 533.804688 624.8125 C 507.550781 599.15625 487.734375 567.269531 474.292969 533.210938 C 460.628906 498.605469 453.039062 461.371094 452.285156 424.167969 C 451.558594 388.496094 457.347656 350.910156 476.886719 320.390625 C 499.816406 284.558594 540.140625 268.21875 580.828125 262.421875 C 618.800781 257.019531 657.917969 260.046875 694.535156 271.535156 C 769.8125 295.140625 830.378906 357.054688 847.464844 434.839844 C 863.085938 505.984375 836.128906 585.257812 777.066406 629.003906 C 708.503906 679.777344 616.105469 673.566406 537.390625 655.199219 C 516.785156 650.394531 496.019531 645.058594 476.308594 637.253906 C 466.667969 633.433594 457.273438 628.960938 448.429688 623.539062 C 439.652344 618.152344 430.695312 611.824219 424.835938 603.1875 C 413.050781 585.808594 421.960938 564.410156 437.734375 553.042969 C 456.042969 539.839844 480.871094 536.910156 502.597656 533.601562 C 590.511719 520.222656 679.847656 526.578125 768.144531 517.804688 C 845.296875 510.144531 939.875 490.457031 975.335938 412.007812 C 990.035156 379.511719 988.914062 342.195312 969.65625 311.777344 C 950.535156 281.554688 916.535156 264.136719 880.769531 267.667969 C 846.085938 271.085938 816.734375 293.367188 805.609375 326.628906 C 794.820312 358.851562 803.945312 393.929688 829.371094 416.496094 C 854.53125 438.820312 889.859375 447.535156 922.8125 447.847656 C 959.972656 448.203125 997.402344 438.414062 1030.710938 422.242188 C 1064.617188 405.773438 1095.085938 381.855469 1118.726562 352.453125 C 1140.34375 325.582031 1164.84375 284.957031 1147.414062 250.011719 C 1139.511719 234.160156 1123.746094 224.871094 1107.5 219.414062 C 1088.496094 213.042969 1067.957031 210.453125 1048.0625 208.722656 C 1005.527344 205.03125 962.335938 208.742188 921.03125 219.558594 C 858.152344 236.035156 781.515625 276.101562 777.003906 349.714844 C 774.65625 388.023438 794.125 425.746094 823.570312 449.503906 C 852.148438 472.574219 888.875 483.796875 925.253906 485.214844 C 965.128906 486.757812 1006.136719 476.324219 1039.148438 453.566406 C 1069.09375 432.921875 1091.175781 402.054688 1100.199219 366.71875 C 1108.949219 332.480469 1104.03125 296.40625 1085.570312 266.191406 C 1066.785156 235.449219 1036.683594 212.695312 1004.230469 197.9375 C 939.066406 168.328125 853.148438 166.292969 793.625 210.21875 C 763.929688 232.132812 744.925781 264.492188 736.113281 300.011719 C 727.203125 335.953125 726.855469 375.550781 736.597656 411.355469 C 746.105469 446.296875 767.59375 478.171875 802.371094 491.5625 C 836.136719 504.558594 874.457031 499.46875 906.277344 483.476562 C 942.519531 465.25 971.140625 434.265625 994.28125 401.53125 C 1016.949219 369.464844 1034.621094 333 1040.980469 293.996094 C 1047.375 254.726562 1041.890625 212.652344 1021.410156 178.136719 C 1002.203125 145.765625 970.503906 123.5625 936.363281 109.121094 C 899.398438 93.484375 859.1875 85.09375 819.40625 80.824219 C 777.148438 76.285156 734.332031 77.167969 692.296875 83.515625 C 650.820312 89.785156 606.640625 99.609375 570.878906 122.519531 C 564.570312 126.558594 556.148438 131.757812 554.871094 139.894531 C 553.445312 148.914062 562.925781 152.84375 569.421875 156.261719 C 588.035156 166.046875 607.394531 174.308594 626.222656 183.652344 C 662.59375 201.707031 700.515625 226.789062 714.167969 267.21875 C 726.363281 303.328125 710.851562 339.066406 686.769531 366.175781 C 659.851562 396.480469 623.625 419.035156 587.324219 436.351562 C 567.074219 446.015625 545.972656 453.914062 524.375 460 C 505.023438 465.453125 485.0625 469.976562 464.957031 471.324219 C 431.621094 473.558594 392.359375 466.199219 377.773438 432.03125 C 369.34375 412.289062 369.773438 389.59375 370.691406 368.53125 C 371.503906 349.824219 373.753906 331.199219 377.355469 312.824219 C 384.65625 275.582031 397.460938 239.472656 415.261719 205.957031 C 424.15625 189.207031 434.273438 173.085938 445.585938 157.875 C 457.46875 141.882812 470.425781 125.683594 486.453125 113.667969 C 503.335938 101.011719 523.730469 94.554688 543.964844 103.183594 C 552.902344 107 560.890625 112.683594 568.546875 118.589844 C 577.707031 125.65625 586.738281 132.894531 595.820312 140.066406 C 633.488281 169.761719 671.15625 199.457031 708.824219 229.164062 C 745.273438 257.910156 781.933594 286.425781 817.285156 316.53125 C 834.535156 331.207031 851.640625 346.175781 867.859375 361.992188 C 883.371094 377.101562 898.21875 393.664062 907.828125 413.257812 C 916.917969 431.777344 919.777344 452.539062 914.304688 472.5625 C 909.640625 489.617188 899.832031 504.875 888.390625 518.167969 C 875.890625 532.695312 861.261719 545.167969 846.109375 556.808594 C 828.851562 570.0625 810.757812 582.230469 791.980469 593.214844 C 717.730469 636.675781 632.234375 662.257812 546.144531 664.871094 C 505.992188 666.089844 463.148438 661.773438 427.515625 641.742188 C 397.089844 624.636719 367.636719 586.863281 389.195312 551.84375 C 398.710938 536.386719 414.972656 526.109375 430.703125 517.882812 C 448.097656 508.777344 466.304688 501.25 484.976562 495.21875 C 522.40625 483.152344 561.722656 477.238281 601.027344 477.519531 C 640.324219 477.800781 679.570312 484.324219 716.746094 497.128906 C 752.488281 509.429688 790.242188 528.003906 812.046875 560.226562 C 834.136719 592.867188 830.292969 633.296875 810.222656 665.914062 C 788.113281 701.835938 749.554688 723.796875 711.972656 740.324219 C 650.796875 767.238281 565.902344 783.714844 519.042969 722.507812 C 494.753906 690.800781 485.96875 649.234375 481.601562 610.339844 C 477.015625 569.542969 478.472656 528.089844 485.875 487.71875 C 493.03125 448.695312 505.039062 408.714844 524.875 374.167969 C 534.535156 357.339844 546.976562 341.425781 563.636719 331.082031 C 580.386719 320.6875 600.238281 317.539062 619.574219 320.714844 C 661.472656 327.578125 692.398438 359.371094 716.371094 392.230469 C 741.738281 427.007812 761.9375 465.175781 781.175781 503.585938 C 800.453125 542.046875 818.871094 581.023438 840.972656 617.992188 C 861.179688 651.796875 884.421875 685.367188 914.96875 710.6875 C 941 732.265625 974.058594 748.84375 1008.742188 744.804688 C 1048.222656 740.214844 1079.21875 710.78125 1097.359375 676.96875 C 1116.828125 640.671875 1125.75 598.390625 1132.789062 558.132812 C 1140.105469 516.292969 1143.640625 473.777344 1143.371094 431.292969 C 1143.097656 389.082031 1139.035156 346.914062 1131.261719 305.421875 C 1124.433594 268.980469 1117.039062 223.605469 1085.410156 199.722656 C 1058.714844 179.578125 1019.875 180.332031 992.179688 198.101562 C 962.3125 217.269531 946.148438 252.707031 945.417969 287.519531 C 944.96875 309.175781 949.414062 330.613281 948.691406 352.269531 C 948.097656 369.96875 943.257812 387.148438 934.988281 402.769531 C 918.613281 433.679688 890.953125 457.375 861.898438 476 C 830.242188 496.289062 795.117188 512.601562 758.765625 522.351562 C 722.011719 532.203125 682.578125 534.519531 646.167969 521.960938 C 609.378906 509.277344 579.070312 482.042969 557.488281 450.179688 C 531.683594 412.078125 517.972656 367.261719 508.671875 322.597656 C 494.636719 255.167969 488.808594 177.269531 524.503906 115.246094 C 565.5625 43.882812 654.570312 20.023438 731.96875 23.78125 C 771.101562 25.683594 809.949219 34.878906 845.753906 50.804688 C 881.308594 66.636719 915.578125 89.070312 938.128906 121.457031 C 948.863281 136.882812 956.714844 154.652344 958.335938 173.527344 C 959.964844 192.679688 954.925781 211.378906 945.582031 228.027344 C 936.550781 244.128906 924.085938 258.097656 910.558594 270.558594 C 894.320312 285.519531 876.402344 298.695312 857.449219 310.003906 C 820.433594 332.082031 777.589844 348.558594 734.488281 352.878906 C 696.980469 356.636719 650.015625 345.480469 636.082031 305.550781 C 629.859375 287.707031 632.734375 267.878906 640.992188 251.191406 C 650.035156 232.90625 665.367188 219.066406 683.15625 209.46875 C 716.839844 191.304688 757.941406 186.867188 795.652344 189.292969 C 868.945312 194.003906 939 228.28125 992.628906 277.652344 C 1021.613281 304.335938 1049.816406 338.609375 1055.566406 378.894531 C 1058.410156 398.722656 1054.726562 418.484375 1045.390625 436.15625 C 1036.65625 452.703125 1024.003906 466.863281 1010.359375 479.511719 C 947.660156 537.675781 865.808594 576.585938 782.304688 593.257812 C 761.046875 597.5 739.5 600.285156 717.855469 601.558594 C 698.0625 602.726562 678.027344 602.601562 658.445312 599.179688 C 620.777344 592.613281 583.980469 571.5625 570.515625 533.847656 C 564.222656 516.210938 564.917969 497.109375 573.261719 480.257812 C 581.609375 463.402344 596.007812 449.996094 612.507812 441.238281 C 633.054688 430.328125 656.570312 426.304688 679.59375 425.269531 C 698.0625 424.4375 716.636719 425.347656 734.945312 427.882812 C 805.992188 437.734375 873.449219 471.527344 923.914062 522.523438 C 936.414062 535.140625 947.863281 548.800781 957.980469 563.402344 C 969.925781 580.640625 980.6875 600.402344 981.933594 621.785156 C 984.148438 659.769531 952.847656 686.054688 922.601562 702.78125 C 854.183594 740.621094 771.050781 758.726562 693.324219 748.113281 C 618.972656 737.957031 550.300781 699.15625 506.667969 637.480469 C 465.761719 579.667969 446.933594 495.574219 485.636719 431.667969 C 530.117188 358.222656 632.707031 363.789062 703.425781 388.761719 C 739.777344 401.597656 773.742188 421.445312 802.65625 446.964844 C 831.132812 472.097656 860.578125 509.964844 851.28125 550.511719 C 846.8125 569.96875 833.921875 586.277344 820.058594 600.070312 C 807.871094 612.179688 793.992188 622.546875 779.023438 630.957031 C 749.597656 647.511719 714.644531 657.0625 680.816406 652.289062 C 597.371094 640.511719 564.902344 546.667969 559.101562 473.53125 C 555.761719 431.320312 560.398438 387.699219 574.636719 347.710938 C 588.136719 309.792969 612.347656 277.695312 647.574219 257.628906 C 681.679688 238.199219 721.496094 230.597656 760.351562 229.207031 C 799.996094 227.773438 841.886719 231.214844 879.570312 244.214844 C 917.191406 257.1875 952.449219 284.152344 964.21875 323.648438 C 976.050781 363.332031 956.070312 403.082031 934.242188 435.300781 C 911.390625 469.035156 881.632812 498.121094 847.464844 520.289062 C 817.109375 539.984375 776.511719 559.785156 740.015625 545.421875 C 704.695312 531.515625 690.179688 491.324219 682.613281 457.214844 C 673.25 414.96875 671.613281 370.925781 677.761719 328.085938 C 683.242188 289.921875 693.59375 248.117188 721.011719 219.441406 C 751.453125 187.589844 797.144531 183.5 838.699219 187.179688 C 879.367188 190.785156 919.972656 199.710938 959.691406 208.910156 C 1000.386719 218.34375 1040.652344 229.621094 1080.347656 242.636719 C 1080.082031 241 1079.8125 239.351562 1079.550781 237.714844 C 1058.789062 247.320312 1047.953125 269.484375 1044.382812 291.128906 C 1039.886719 318.429688 1046.492188 345.964844 1045.757812 373.371094 C 1044.296875 427.078125 1011.394531 475.59375 979.179688 516.25 C 912.746094 600.105469 819.101562 664.539062 711.167969 677.367188 C 659.71875 683.484375 606.320312 677.9375 558.355469 657.75 C 512.75 638.550781 472.222656 606.699219 443.679688 566.167969 C 414.609375 524.914062 397.589844 473.53125 402.804688 422.785156 C 405.5625 395.921875 415.355469 370.765625 430.773438 348.671875 C 446.527344 326.074219 467.03125 306.78125 488.65625 289.90625 C 531.972656 256.09375 582.589844 231.921875 636 219.125 C 662.847656 212.695312 690.382812 209.183594 717.992188 208.78125 C 745.078125 208.402344 773.34375 211.023438 797.679688 223.886719 C 819.652344 235.507812 838.5625 257.144531 841.03125 282.652344 C 843.558594 308.773438 828.65625 332.710938 814.84375 353.582031 C 785.390625 398.085938 748.164062 437.472656 705.6875 469.714844 C 664.28125 501.164062 617.527344 526.511719 567.996094 542.519531 C 528.046875 555.441406 476.207031 562.902344 441.160156 533.910156 C 420.800781 517.066406 411.097656 490.875 409.960938 464.980469 C 408.75 437.515625 417.050781 410.550781 427.761719 385.5625 C 448.714844 336.664062 477.082031 290.566406 510.121094 248.933594 C 542.785156 207.765625 580.617188 170.277344 622.710938 138.777344 C 644.03125 122.808594 670.605469 107.035156 698.097656 115.664062 C 718.214844 121.984375 732.0625 139.785156 741.320312 157.859375 C 752.414062 179.492188 757.839844 203.582031 762.605469 227.253906 C 768.421875 256.160156 772.28125 285.417969 775.792969 314.671875 C 782.695312 372.214844 788.0625 430.464844 804.175781 486.359375 C 819.007812 537.828125 843.703125 590.425781 885.78125 625.171875 C 923.03125 655.9375 976.109375 669.960938 1021.085938 647.746094 C 1063.554688 626.773438 1089.089844 580.472656 1091.8125 534.179688 C 1093.371094 507.605469 1088.15625 480.84375 1078.609375 456.105469 C 1073.933594 443.996094 1068.246094 432.269531 1061.691406 421.078125 C 1055.535156 410.550781 1048.773438 399.121094 1038.386719 392.246094 C 1018.59375 379.148438 996.121094 390.882812 980.296875 404.492188 C 970.511719 412.898438 962.3125 422.785156 953.808594 432.421875 C 944.367188 443.105469 934.71875 453.601562 924.847656 463.875 C 885.941406 504.355469 843.507812 541.542969 797.289062 573.472656 C 702.550781 638.933594 590.375 681.976562 474.34375 683.1875 C 420.945312 683.738281 365.40625 676.164062 318.011719 650.113281 C 273.007812 625.363281 235.484375 581.160156 229.640625 528.757812 C 223.800781 476.347656 248.824219 423.980469 281.8125 384.730469 C 314.796875 345.464844 359.242188 315.867188 408.410156 301.199219 C 454.566406 287.425781 506.195312 287.089844 551.121094 305.644531 C 573.710938 314.96875 593.851562 329.070312 610.074219 347.390625 C 628.535156 368.234375 641.636719 393.375 652.070312 419.027344 C 675.253906 476.042969 688.117188 536.632812 705.085938 595.617188 C 720.289062 648.460938 738.394531 703.722656 777.117188 744.398438 C 809.636719 778.554688 855.566406 799.394531 902.613281 801.8125 C 953.984375 804.460938 1005.941406 784.292969 1042.484375 748.15625 C 1078.25 712.78125 1097.707031 664.175781 1107.535156 615.597656 C 1113.105469 588.058594 1115.972656 559.898438 1116.257812 531.804688 C 1116.453125 512.953125 1118.734375 477.113281 1091.660156 476.015625 C 1081.066406 475.585938 1070.796875 481.363281 1062.394531 487.226562 C 1050.371094 495.609375 1038.894531 504.882812 1027.304688 513.84375 C 1003.761719 532.035156 980.410156 550.46875 956.765625 568.527344 C 909.878906 604.324219 861.601562 638.796875 809.101562 665.949219 C 756.761719 693.015625 699.878906 713.113281 640.910156 718.316406 C 591.707031 722.667969 541.808594 715.949219 496.339844 696.246094 C 453.871094 677.84375 415.804688 648.351562 391.078125 608.835938 C 376.109375 584.925781 365.804688 557.300781 365.636719 528.84375 C 365.492188 503.59375 374.066406 479.207031 387.835938 458.257812 C 418.652344 411.371094 471.808594 386.648438 524.09375 371.808594 C 577.308594 356.707031 633.351562 350.1875 688.515625 355.796875 C 788.460938 365.96875 888.695312 421.597656 931.902344 515.605469 C 943.765625 541.410156 950.566406 570.460938 946.25 598.867188 C 942.699219 622.261719 932.132812 644.03125 917.734375 662.648438 C 887.671875 701.53125 842.914062 727.886719 796.59375 742.65625 C 700.429688 773.328125 589.910156 755.273438 509.203125 694.378906 C 469.289062 664.257812 436.488281 623.355469 421.308594 575.253906 C 406.808594 529.300781 407.910156 477.433594 428.753906 433.550781 C 451.445312 385.75 496.09375 353.632812 542.871094 331.761719 C 597.175781 306.347656 656.875 292.289062 716.773438 290.347656 C 744.164062 289.464844 771.796875 290.90625 798.648438 296.710938 C 824.332031 302.265625 850.628906 311.558594 871.082031 328.578125 C 891.425781 345.515625 902.714844 369.796875 895.972656 396.210938 C 889.867188 420.101562 873.109375 440.042969 855.894531 456.953125 C 818 494.183594 769.984375 521.554688 718.113281 533.441406 C 669.273438 544.632812 617.9375 540.882812 571.828125 520.960938 C 529.609375 502.710938 492.472656 471.875 469.59375 431.667969 C 446.0625 390.304688 437.074219 334.816406 465.582031 293.476562 C 479.949219 272.65625 501.75 258.164062 524.382812 247.660156 C 549.179688 236.15625 576.035156 228.527344 602.824219 223.359375 C 657.9375 212.746094 716.679688 213.542969 770.933594 228.519531 C 821.085938 242.367188 869.167969 272.46875 888.949219 322.75 C 898.125 346.074219 899.730469 371.460938 892.222656 395.472656 C 885.328125 417.488281 871.660156 436.742188 855.769531 453.195312 C 839.324219 470.214844 820.332031 484.527344 800.613281 497.515625 C 777.21875 512.925781 752.835938 526.839844 727.609375 539.015625 C 677.855469 563.035156 624.457031 580.371094 569.625 587.726562 C 542.734375 591.332031 515.503906 592.546875 488.402344 591.011719 C 461.699219 589.5 432.730469 586.757812 408.5625 574.363281 C 386.863281 563.230469 367.738281 540 371.964844 514.128906 C 376.203125 488.132812 403.695312 471.691406 425.117188 460.789062 C 476.046875 434.847656 535.949219 430.597656 592.039062 435.605469 C 639.019531 439.796875 686.496094 451.792969 727.269531 476.109375 C 747.324219 488.074219 765.632812 503.195312 780.320312 521.402344 C 797.757812 543.011719 811.65625 569.96875 809.6875 598.46875 C 806.328125 647.265625 760.5625 681.1875 720.628906 701.488281 C 671.011719 726.722656 614.417969 737.964844 558.921875 733.945312 C 515.242188 730.777344 447.105469 715.21875 448.808594 659 C 450.53125 602.058594 514.613281 574.882812 561.367188 562.628906 C 610.949219 549.640625 663.789062 549.488281 713.5 561.90625 C 725.804688 564.980469 737.945312 568.804688 749.757812 573.4375 C 761.257812 577.945312 773.648438 582.722656 783.476562 590.355469 C 793.617188 598.25 798.460938 609.625 793.480469 622.039062 C 788.972656 633.316406 779.582031 642.164062 770.875 650.277344 C 731.433594 687.015625 681.316406 711.535156 628.265625 720.726562 C 624.839844 721.308594 626.425781 726.496094 629.816406 725.902344 " fill-opacity="1" fill-rule="nonzero"/></svg>