<svg xmlns="http://www.w3.org/2000/svg" xmlns:xlink="http://www.w3.org/1999/xlink" width="500" zoomAndPan="magnify" viewBox="0 0 375 374.999991" height="500" preserveAspectRatio="xMidYMid meet" version="1.0"><path fill="#000000" d="M 35.023438 191.402344 C 30.390625 188.777344 29.394531 179.558594 25.835938 175.941406 C 21.132812 179.488281 20.492188 187.359375 15.292969 190.695312 C 5.035156 197.148438 22.414062 170.976562 26.117188 167.640625 C 32.671875 165.015625 30.535156 187.714844 36.445312 183.105469 C 51.972656 145.082031 51.6875 195.023438 62.585938 179.839844 C 65.859375 176.507812 69.066406 161.894531 75.050781 167.996094 C 91.289062 201.902344 86.445312 156.929688 100.121094 170.832031 C 114.933594 197.71875 114.007812 154.730469 125.757812 169.273438 C 144.777344 196.15625 145.273438 164.164062 153.109375 164.234375 C 158.378906 164.308594 161.300781 181.472656 167.351562 177.144531 C 174.40625 172.75 176.824219 156.078125 184.660156 168.703125 C 198.90625 191.902344 197.765625 160.476562 208.589844 165.085938 C 223.476562 182.75 221.769531 183.742188 234.089844 163.808594 C 235.371094 161.964844 236.652344 161.824219 238.078125 163.527344 C 248.546875 176.011719 249.332031 185.515625 260.085938 166.222656 C 261.367188 164.308594 262.4375 164.023438 264.074219 165.582031 C 275.183594 175.871094 274.613281 183.386719 286.652344 167.996094 C 293.347656 161.113281 296.480469 188.140625 301.75 174.945312 C 315.140625 142.035156 312.007812 181.613281 325.039062 178.28125 C 330.453125 176.011719 335.226562 159.484375 340.496094 164.804688 C 345.910156 173.527344 348.472656 189.773438 355.453125 168.703125 C 358.871094 158.5625 369.980469 179.34375 368.058594 184.453125 C 366.492188 188.707031 362.929688 175.941406 360.222656 172.535156 C 359.796875 171.753906 359.085938 170.902344 358.300781 172.464844 C 348.898438 191.050781 347.902344 185.65625 339.640625 171.753906 C 337.363281 167.855469 335.867188 172.464844 331.449219 177.714844 C 318.773438 192.824219 316.066406 178.566406 310.796875 168.703125 C 308.375 164.09375 305.097656 180.125 302.390625 185.160156 C 295.269531 189.773438 293.417969 163.882812 284.726562 176.71875 C 280.457031 179.488281 278.390625 187.503906 273.402344 180.550781 C 255.101562 153.171875 262.078125 203.535156 243.777344 176.367188 C 234.230469 156.292969 232.09375 186.933594 223.335938 184.167969 C 217.496094 181.613281 211.226562 166.222656 205.171875 172.109375 C 200.472656 174.449219 198.761719 186.507812 193.421875 183.742188 C 188.507812 181.828125 181.597656 166.082031 177.324219 172.109375 C 167.710938 185.730469 162.4375 187.503906 155.175781 172.675781 C 153.039062 168.277344 148.550781 178.777344 143.136719 183.671875 C 135.660156 190.410156 129.746094 175.585938 124.621094 172.605469 C 118.78125 169.980469 116.5 182.183594 112.65625 185.445312 C 107.8125 190.480469 102.257812 181.757812 98.480469 176.367188 C 92.925781 168.351562 88.867188 196.511719 81.175781 186.296875 C 69.28125 170.335938 72.34375 170.976562 62.796875 188.070312 C 57.597656 191.476562 52.257812 178.28125 47.699219 175.371094 C 41.859375 174.59375 40.71875 189.203125 35.023438 191.402344 Z M 35.023438 191.402344 " fill-opacity="1" fill-rule="nonzero"/></svg>