<svg xmlns="http://www.w3.org/2000/svg" xmlns:xlink="http://www.w3.org/1999/xlink" width="1920" zoomAndPan="magnify" viewBox="0 0 1440 112.499997" height="150" preserveAspectRatio="xMidYMid meet" version="1.0"><path fill="#000000" d="M 227.675781 102.503906 C 212.726562 93.996094 209.507812 64.101562 198.011719 52.375 C 182.835938 63.875 180.769531 89.398438 163.984375 100.203125 C 130.871094 121.128906 186.976562 36.28125 198.933594 25.472656 C 220.085938 16.964844 213.1875 90.546875 232.273438 75.601562 C 282.398438 -47.652344 281.476562 114.230469 316.65625 65.023438 C 327.234375 54.214844 337.582031 6.847656 356.894531 26.621094 C 409.320312 136.535156 393.6875 -9.25 437.832031 35.820312 C 485.660156 122.96875 482.667969 -16.378906 520.609375 30.761719 C 582 117.910156 583.609375 14.203125 608.902344 14.433594 C 625.917969 14.664062 635.34375 70.3125 654.890625 56.285156 C 677.652344 42.027344 685.472656 -12.007812 710.761719 28.921875 C 756.75 104.113281 753.070312 2.246094 788.019531 17.195312 C 836.078125 74.449219 830.558594 77.671875 870.335938 13.054688 C 874.476562 7.078125 878.613281 6.617188 883.214844 12.136719 C 917.015625 52.605469 919.542969 83.417969 954.261719 20.875 C 958.402344 14.664062 961.851562 13.746094 967.140625 18.804688 C 1003.007812 52.144531 1001.167969 76.519531 1040.027344 26.621094 C 1061.640625 4.316406 1071.757812 91.925781 1088.773438 49.15625 C 1132 -57.539062 1121.882812 70.773438 1163.960938 59.964844 C 1181.4375 52.605469 1196.84375 -0.972656 1213.859375 16.273438 C 1231.332031 44.558594 1239.609375 97.214844 1262.144531 28.921875 C 1273.179688 -3.960938 1309.050781 63.414062 1302.839844 79.96875 C 1297.78125 93.765625 1286.285156 52.375 1277.550781 41.339844 C 1276.167969 38.808594 1273.871094 36.050781 1271.339844 41.109375 C 1240.988281 101.355469 1237.769531 83.878906 1211.097656 38.808594 C 1203.742188 26.160156 1198.910156 41.109375 1184.65625 58.125 C 1143.726562 107.101562 1134.992188 60.882812 1117.976562 28.921875 C 1110.15625 13.976562 1099.582031 65.941406 1090.84375 82.269531 C 1067.851562 97.214844 1061.871094 13.285156 1033.820312 54.90625 C 1020.023438 63.875 1013.355469 89.855469 997.261719 67.324219 C 938.167969 -21.4375 960.699219 141.824219 901.609375 53.753906 C 870.796875 -11.320312 863.898438 88.019531 835.617188 79.050781 C 816.761719 70.773438 796.527344 20.875 776.984375 39.957031 C 761.808594 47.546875 756.289062 86.636719 739.046875 77.671875 C 723.179688 71.460938 700.875 20.414062 687.082031 39.957031 C 656.039062 84.109375 639.023438 89.855469 615.570312 41.796875 C 608.671875 27.542969 594.1875 61.574219 576.710938 77.441406 C 552.570312 99.285156 533.484375 51.226562 516.929688 41.570312 C 498.074219 33.058594 490.71875 72.609375 478.300781 83.1875 C 462.664062 99.515625 444.730469 71.230469 432.542969 53.753906 C 414.609375 27.773438 401.503906 119.0625 376.671875 85.949219 C 338.273438 34.210938 348.160156 36.28125 317.347656 91.695312 C 300.5625 102.734375 283.316406 59.964844 268.601562 50.535156 C 249.746094 48.007812 246.070312 95.375 227.675781 102.503906 Z M 227.675781 102.503906 " fill-opacity="1" fill-rule="nonzero"/></svg>