<svg xmlns="http://www.w3.org/2000/svg" xmlns:xlink="http://www.w3.org/1999/xlink" width="500" zoomAndPan="magnify" viewBox="0 0 375 374.999991" height="500" preserveAspectRatio="xMidYMid meet" version="1.0"><defs><g/><clipPath id="5fe2412838"><path d="M 45.238281 45.238281 L 329.761719 45.238281 L 329.761719 329.761719 L 45.238281 329.761719 Z M 45.238281 45.238281 " clip-rule="nonzero"/></clipPath><clipPath id="3d5e9ddef9"><path d="M 187.5 45.238281 C 108.929688 45.238281 45.238281 108.929688 45.238281 187.5 C 45.238281 266.070312 108.929688 329.761719 187.5 329.761719 C 266.070312 329.761719 329.761719 266.070312 329.761719 187.5 C 329.761719 108.929688 266.070312 45.238281 187.5 45.238281 Z M 187.5 45.238281 " clip-rule="nonzero"/></clipPath><clipPath id="ae4686645d"><path d="M 116.257812 133 L 258.757812 133 L 258.757812 287.476562 L 116.257812 287.476562 Z M 116.257812 133 " clip-rule="nonzero"/></clipPath></defs><g clip-path="url(#5fe2412838)"><g clip-path="url(#3d5e9ddef9)"><path fill="#f2f2f0" d="M 45.238281 45.238281 L 329.761719 45.238281 L 329.761719 329.761719 L 45.238281 329.761719 Z M 45.238281 45.238281 " fill-opacity="1" fill-rule="nonzero"/></g></g><g clip-path="url(#ae4686645d)"><path fill="#000000" d="M 219.292969 144.847656 L 221.550781 148.398438 L 221.550781 152.207031 L 220.550781 152.207031 L 217.535156 148.652344 L 217.035156 148.652344 L 218.039062 150.429688 L 219.292969 152.207031 L 220.296875 153.984375 L 222.308594 156.777344 L 224.0625 159.824219 L 224.566406 159.824219 L 224.566406 162.109375 L 226.824219 163.632812 L 227.828125 166.171875 L 228.835938 170.742188 L 231.34375 172.773438 L 232.597656 174.042969 L 233.855469 178.359375 L 235.863281 179.121094 L 238.125 180.644531 L 240.132812 183.4375 L 241.890625 184.453125 L 242.640625 185.214844 L 242.640625 186.484375 L 243.394531 188.007812 L 245.152344 189.023438 L 246.910156 188.769531 L 247.410156 188.261719 L 249.167969 188.261719 L 251.179688 187.246094 L 253.4375 187.246094 L 254.191406 186.484375 L 254.941406 186.738281 L 255.949219 185.976562 L 256.953125 185.214844 L 257.453125 184.707031 L 258.710938 184.960938 L 258.710938 185.722656 L 258.457031 188.261719 L 258.710938 189.785156 L 258.457031 191.308594 L 257.453125 192.832031 L 256.449219 195.117188 L 255.949219 197.65625 L 254.691406 199.179688 L 252.9375 202.226562 L 250.550781 205.652344 L 249.042969 206.667969 L 247.789062 207.9375 L 246.28125 208.699219 L 245.027344 209.714844 L 243.519531 211.238281 L 242.265625 213.269531 L 240.257812 215.808594 L 239.753906 216.824219 L 239 217.332031 L 238.25 218.347656 L 237.246094 218.347656 L 236.992188 219.871094 L 236.238281 220.632812 L 236.238281 221.648438 L 235.738281 222.664062 L 235.238281 223.171875 L 234.734375 224.1875 L 234.230469 225.457031 L 234.480469 226.472656 L 234.984375 226.980469 L 235.738281 227.742188 L 235.238281 228.503906 L 235.238281 229.519531 L 235.488281 230.28125 L 235.238281 231.042969 L 235.488281 232.566406 L 235.988281 232.820312 L 235.988281 234.597656 L 236.742188 235.105469 L 236.992188 235.359375 L 237.746094 236.121094 L 237.246094 237.136719 L 237.246094 238.660156 L 237.496094 240.4375 L 237.246094 240.945312 L 237.246094 243.230469 L 237.496094 243.992188 L 237.496094 245.769531 L 236.742188 247.039062 L 235.488281 248.308594 L 233.980469 249.578125 L 230.464844 251.101562 L 229.210938 251.863281 L 227.953125 253.132812 L 227.203125 253.894531 L 225.949219 254.402344 L 224.691406 255.925781 L 224.191406 256.433594 L 223.9375 257.445312 L 224.691406 258.464844 L 224.691406 260.492188 L 225.195312 261.765625 L 224.941406 264.046875 L 224.691406 265.066406 L 224.191406 266.082031 L 222.683594 266.589844 L 220.675781 267.097656 L 219.667969 267.859375 L 219.167969 268.617188 L 219.167969 270.394531 L 218.667969 271.664062 L 218.414062 273.699219 L 217.664062 274.460938 L 216.40625 275.21875 L 215.652344 276.488281 L 214.398438 278.265625 L 213.144531 279.539062 L 211.886719 280.808594 L 208.625 283.34375 L 206.867188 284.363281 L 205.609375 285.121094 L 203.851562 285.121094 L 203.851562 285.628906 L 197.324219 285.628906 L 196.324219 286.390625 L 194.0625 286.390625 L 193.308594 287.410156 L 191.804688 286.898438 L 191.300781 286.136719 L 190.046875 285.886719 L 190.046875 284.613281 L 188.792969 283.089844 L 189.792969 282.332031 L 189.792969 280.808594 L 188.289062 278.265625 L 187.785156 277 L 186.53125 274.460938 L 185.527344 273.191406 L 184.019531 271.917969 L 184.019531 270.140625 L 183.265625 268.871094 L 183.015625 267.351562 L 182.515625 265.316406 L 182.261719 262.273438 L 182.765625 261.511719 L 181.511719 259.734375 L 179.25 257.195312 L 179.25 256.179688 L 178.496094 254.65625 L 176.738281 252.625 L 176.488281 250.59375 L 176.238281 249.324219 L 176.738281 246.53125 L 177.746094 242.722656 L 178.496094 241.199219 L 180.003906 240.183594 L 181.007812 239.167969 L 180.757812 237.390625 L 179.753906 235.105469 L 178.246094 232.058594 L 179.25 232.3125 L 179.503906 231.804688 L 179.753906 231.042969 L 178.496094 229.519531 L 177.492188 227.234375 L 176.738281 225.710938 L 175.734375 222.410156 L 174.230469 221.394531 L 172.472656 219.617188 L 170.714844 217.078125 L 169.960938 214.792969 L 170.210938 213.777344 L 170.964844 212.507812 L 170.964844 210.476562 L 171.46875 209.460938 L 171.96875 207.429688 L 171.71875 205.90625 L 171.71875 204.382812 L 170.714844 204.636719 L 169.960938 203.621094 L 169.207031 203.113281 L 167.449219 203.113281 L 166.195312 203.367188 L 164.4375 203.875 L 162.933594 203.367188 L 162.429688 202.097656 L 161.925781 199.8125 L 160.171875 199.050781 L 157.410156 198.542969 L 155.402344 199.050781 L 153.394531 200.066406 L 150.882812 200.066406 L 149.625 200.828125 L 147.367188 201.335938 L 146.109375 201.589844 L 144.351562 201.335938 L 141.339844 200.828125 L 138.578125 200.828125 L 137.324219 201.589844 L 135.820312 202.605469 L 134.3125 202.859375 L 132.804688 202.097656 L 129.792969 199.558594 L 126.78125 196.511719 L 124.269531 194.988281 L 123.515625 192.960938 L 123.515625 191.941406 L 122.511719 190.164062 L 120.503906 187.625 L 119.25 186.101562 L 116.738281 183.3125 L 116.988281 182.546875 L 117.238281 180.011719 L 116.738281 178.738281 L 116.234375 177.722656 L 117.492188 177.46875 L 118.996094 175.1875 L 119.5 173.664062 L 120.003906 170.613281 L 119.75 168.839844 L 120.003906 167.316406 L 120.003906 166.042969 L 119.25 164.015625 L 119.5 162.238281 L 121.007812 160.964844 L 122.261719 159.191406 L 124.019531 156.90625 L 125.023438 156.90625 L 125.023438 155.382812 L 126.027344 154.113281 L 126.53125 153.347656 L 127.785156 153.09375 L 128.535156 151.316406 L 129.542969 150.558594 L 131.050781 150.050781 L 133.308594 149.035156 L 135.316406 147.765625 L 136.820312 146.242188 L 136.820312 143.445312 L 137.578125 142.6875 L 138.578125 140.910156 L 140.085938 139.640625 L 142.347656 138.625 L 143.601562 137.863281 L 145.105469 136.339844 L 145.859375 134.5625 L 146.863281 134.308594 L 147.367188 135.324219 L 148.875 135.832031 L 151.132812 136.085938 L 152.136719 136.847656 L 153.394531 136.847656 L 154.648438 135.578125 L 156.65625 135.070312 L 158.164062 134.308594 L 160.421875 133.546875 L 165.695312 133.546875 L 166.695312 134.054688 L 168.203125 133.546875 L 171.96875 133.546875 L 172.472656 133.800781 L 173.226562 133.039062 L 175.484375 133.039062 L 176.238281 133.546875 L 176.992188 133.546875 L 176.488281 134.308594 L 175.734375 135.070312 L 175.988281 136.085938 L 176.738281 136.085938 L 176.488281 137.355469 L 175.234375 138.625 L 174.980469 140.148438 L 175.484375 140.910156 L 176.738281 140.402344 L 176.738281 141.164062 L 177.746094 141.925781 L 179 142.433594 L 180.507812 142.433594 L 182.515625 142.941406 L 183.769531 143.195312 L 184.273438 143.957031 L 184.523438 145.226562 L 186.28125 145.734375 L 187.785156 145.734375 L 188.792969 146.242188 L 190.296875 147.257812 L 191.550781 147.511719 L 192.304688 147.511719 L 193.5625 146.242188 L 192.808594 144.972656 L 193.308594 143.445312 L 195.320312 142.433594 L 197.324219 141.925781 L 198.582031 142.6875 L 199.335938 143.703125 L 202.09375 144.210938 L 202.347656 144.972656 L 204.105469 144.972656 L 207.117188 145.480469 L 209.378906 145.988281 L 210.632812 146.242188 L 211.636719 145.480469 L 213.644531 144.464844 L 214.898438 144.464844 L 216.15625 144.972656 L 216.65625 145.226562 L 217.664062 145.226562 L 218.917969 144.972656 L 219.292969 144.847656 " fill-opacity="1" fill-rule="nonzero"/></g><path fill="#000000" d="M 247.285156 267.605469 L 250.050781 262.527344 L 252.054688 257.957031 L 253.3125 255.164062 L 254.566406 253.640625 L 254.566406 251.355469 L 255.320312 250.085938 L 255.320312 246.785156 L 255.824219 246.785156 L 255.824219 248.054688 L 257.078125 248.054688 L 257.078125 245.769531 L 256.324219 244.246094 L 256.324219 240.945312 L 255.824219 240.4375 L 255.570312 238.914062 L 254.820312 238.914062 L 254.316406 239.675781 L 254.066406 241.199219 L 252.808594 241.960938 L 252.054688 242.214844 L 252.308594 243.738281 L 251.554688 243.738281 L 251.304688 244.5 L 250.800781 245.007812 L 250.050781 246.53125 L 249.796875 245.261719 L 249.296875 246.277344 L 248.292969 246.785156 L 248.292969 247.546875 L 247.539062 247.292969 L 246.785156 247.800781 L 245.527344 247.800781 L 244.273438 248.308594 L 244.273438 249.070312 L 244.023438 250.085938 L 243.269531 250.847656 L 243.269531 253.132812 L 243.769531 253.640625 L 243.769531 256.179688 L 243.519531 257.195312 L 242.515625 258.71875 L 241.511719 259.734375 L 241.007812 260.492188 L 241.007812 262.273438 L 241.261719 263.035156 L 241.007812 264.046875 L 241.261719 265.316406 L 241.007812 266.589844 L 241.511719 267.351562 L 242.265625 268.113281 L 243.019531 268.367188 L 244.023438 268.871094 L 244.777344 268.871094 L 245.527344 268.113281 L 247.035156 268.113281 L 247.285156 267.605469 " fill-opacity="1" fill-rule="nonzero"/><g fill="#000000" fill-opacity="1"><g transform="translate(117.552374, 131.692083)"><g><path d="M 12.703125 -17.4375 L 3.640625 -11.828125 L 6 -3.71875 L 0.046875 -0.03125 L -7.734375 -29.609375 C -7.921875 -30.128906 -7.910156 -30.644531 -7.703125 -31.15625 C -7.492188 -31.675781 -7.144531 -32.085938 -6.65625 -32.390625 L -1.15625 -35.796875 C -0.0625 -36.472656 0.929688 -36.382812 1.828125 -35.53125 L 24.828125 -15.375 L 18.90625 -11.703125 Z M 8.65625 -21.171875 L 1.4375 -27.875 C 0.332031 -28.957031 -0.363281 -29.675781 -0.65625 -30.03125 L -1.6875 -29.390625 C -1.570312 -29.097656 -1.40625 -28.628906 -1.1875 -27.984375 C -0.96875 -27.347656 -0.8125 -26.867188 -0.71875 -26.546875 L 2.0625 -17.09375 Z M 8.65625 -21.171875 "/></g></g></g><g fill="#000000" fill-opacity="1"><g transform="translate(141.650082, 116.939834)"><g><path d="M 14.359375 -31.671875 L 3.796875 -28.234375 C 2.960938 -27.960938 2.425781 -27.59375 2.1875 -27.125 C 1.945312 -26.65625 1.953125 -26.039062 2.203125 -25.28125 L 3.859375 -20.234375 L 15.15625 -23.9375 L 16.703125 -19.1875 L 5.40625 -15.484375 L 9.453125 -3.078125 L 2.90625 -0.953125 L -4.78125 -24.484375 C -5.394531 -26.359375 -5.285156 -28.035156 -4.453125 -29.515625 C -3.617188 -31.003906 -2.21875 -32.070312 -0.25 -32.71875 C 6.007812 -34.757812 10.472656 -36.046875 13.140625 -36.578125 Z M 14.359375 -31.671875 "/></g></g></g><g fill="#000000" fill-opacity="1"><g transform="translate(164.369617, 109.155352)"><g><path d="M 27.546875 -2.15625 L 20.328125 -1.59375 L 17.25 -10.875 C 16.875 -11.84375 16.425781 -12.492188 15.90625 -12.828125 C 15.382812 -13.160156 14.660156 -13.289062 13.734375 -13.21875 L 8.921875 -12.890625 L 9.875 -0.765625 L 3.140625 -0.25 L 0.71875 -31.203125 C 3.476562 -31.691406 7.398438 -32.132812 12.484375 -32.53125 C 16.640625 -32.851562 19.632812 -32.425781 21.46875 -31.25 C 23.3125 -30.070312 24.367188 -27.75 24.640625 -24.28125 C 24.816406 -22 24.5 -20.175781 23.6875 -18.8125 C 22.875 -17.457031 21.414062 -16.5625 19.3125 -16.125 L 19.328125 -15.90625 C 21.734375 -15.550781 23.328125 -14.109375 24.109375 -11.578125 Z M 8.515625 -18.140625 L 13.4375 -18.53125 C 15.238281 -18.675781 16.441406 -19.078125 17.046875 -19.734375 C 17.660156 -20.390625 17.898438 -21.566406 17.765625 -23.265625 C 17.628906 -24.972656 17.21875 -26.101562 16.53125 -26.65625 C 15.84375 -27.207031 14.582031 -27.410156 12.75 -27.265625 L 7.84375 -26.828125 Z M 8.515625 -18.140625 "/></g></g></g><g fill="#000000" fill-opacity="1"><g transform="translate(193.023973, 107.64847)"><g><path d="M 9.921875 1.125 L 3.140625 0.359375 L 6.640625 -30.484375 L 13.421875 -29.71875 Z M 9.921875 1.125 "/></g></g></g><g fill="#000000" fill-opacity="1"><g transform="translate(206.088284, 108.395297)"><g><path d="M 15.828125 -9.390625 L 13.296875 -10.1875 C 13.140625 -8.976562 12.945312 -8 12.71875 -7.25 L 9.53125 2.96875 L 3.015625 0.9375 L 12.25 -28.703125 L 18.765625 -26.671875 L 16.15625 -18.296875 C 15.757812 -17.035156 15.296875 -15.890625 14.765625 -14.859375 L 17.296875 -14.0625 L 28.53125 -23.640625 L 35.609375 -21.421875 L 24.28125 -12 C 23.53125 -11.289062 22.570312 -10.722656 21.40625 -10.296875 L 21.359375 -10.125 C 22.148438 -9.09375 22.707031 -7.96875 23.03125 -6.75 L 26.890625 8.375 L 19.59375 6.09375 Z M 15.828125 -9.390625 "/></g></g></g><g fill="#000000" fill-opacity="1"><g transform="translate(232.136643, 116.295991)"><g><path d="M 21.265625 3.59375 L 12.203125 -2.015625 L 6 3.71875 L 0.046875 0.03125 L 23.046875 -20.140625 C 23.441406 -20.535156 23.914062 -20.75 24.46875 -20.78125 C 25.019531 -20.820312 25.539062 -20.691406 26.03125 -20.390625 L 31.53125 -16.984375 C 32.625 -16.304688 32.984375 -15.382812 32.609375 -14.21875 L 24.828125 15.375 L 18.90625 11.703125 Z M 22.8125 -1.703125 L 25.59375 -11.15625 C 26.070312 -12.613281 26.40625 -13.550781 26.59375 -13.96875 L 25.5625 -14.609375 C 25.34375 -14.378906 25 -14.019531 24.53125 -13.53125 C 24.0625 -13.050781 23.695312 -12.703125 23.4375 -12.484375 L 16.21875 -5.78125 Z M 22.8125 -1.703125 "/></g></g></g></svg>