<svg xmlns="http://www.w3.org/2000/svg" xmlns:xlink="http://www.w3.org/1999/xlink" width="500" zoomAndPan="magnify" viewBox="0 0 375 374.999991" height="500" preserveAspectRatio="xMidYMid meet" version="1.0"><defs><g/><clipPath id="25f313b523"><path d="M 45.238281 45.238281 L 329.761719 45.238281 L 329.761719 329.761719 L 45.238281 329.761719 Z M 45.238281 45.238281 " clip-rule="nonzero"/></clipPath><clipPath id="591795e789"><path d="M 187.5 45.238281 C 108.929688 45.238281 45.238281 108.929688 45.238281 187.5 C 45.238281 266.070312 108.929688 329.761719 187.5 329.761719 C 266.070312 329.761719 329.761719 266.070312 329.761719 187.5 C 329.761719 108.929688 266.070312 45.238281 187.5 45.238281 Z M 187.5 45.238281 " clip-rule="nonzero"/></clipPath><clipPath id="c0d6b0b067"><path d="M 90 137 L 285.328125 137 L 285.328125 260 L 90 260 Z M 90 137 " clip-rule="nonzero"/></clipPath></defs><g clip-path="url(#25f313b523)"><g clip-path="url(#591795e789)"><path fill="#f2f2f0" d="M 45.238281 45.238281 L 329.761719 45.238281 L 329.761719 329.761719 L 45.238281 329.761719 Z M 45.238281 45.238281 " fill-opacity="1" fill-rule="nonzero"/></g></g><path fill="#000000" d="M 175.21875 254.1875 C 174.734375 254.324219 174.140625 254.410156 173.726562 254.289062 C 173.4375 254.203125 173.421875 253.578125 172.953125 253.804688 C 172.734375 253.910156 172.71875 254.476562 172.734375 254.683594 C 172.8125 255.554688 174.507812 256.9375 175.246094 257.449219 C 175.4375 257.582031 175.742188 257.6875 175.917969 257.855469 C 176.125 258.050781 176.1875 258.304688 176.382812 258.496094 C 176.644531 258.753906 177.042969 258.757812 177.191406 259.164062 C 177.328125 259.542969 176.847656 259.722656 176.980469 260.085938 C 177.128906 260.476562 177.59375 260.445312 177.8125 260.738281 C 178.039062 261.042969 178.03125 261.402344 178.203125 261.738281 C 178.394531 262.113281 178.929688 263.230469 179.28125 263.363281 C 179.246094 264.152344 180.523438 265.390625 181.183594 265.945312 C 182.210938 266.800781 183.144531 267.613281 184.058594 268.527344 C 184.035156 268.316406 184.160156 268.109375 184.171875 267.945312 C 184.5 268.007812 184.796875 268.164062 184.996094 268.398438 C 185.164062 267.730469 185.328125 266.167969 185.109375 265.515625 C 185.757812 264.988281 185.1875 264.378906 184.570312 264.261719 C 184.429688 264.480469 184.152344 264.558594 184 264.730469 C 183.257812 264.214844 183.867188 264.054688 183.683594 263.574219 C 183.527344 263.164062 182.949219 263.164062 183.273438 262.554688 C 182.816406 262.261719 182.320312 261.925781 182.300781 261.378906 C 182.496094 261.34375 182.65625 261.164062 182.871094 261.144531 C 183.121094 259.976562 181.4375 260.835938 180.910156 260.824219 C 180.882812 260.671875 180.886719 260.53125 180.910156 260.378906 C 181.15625 260.375 181.363281 260.246094 181.578125 260.242188 C 181.496094 260.183594 180.925781 259.957031 180.894531 259.898438 C 180.777344 259.664062 180.816406 259.195312 180.679688 258.96875 C 180.285156 258.328125 179.554688 258.382812 179.125 257.90625 C 179.183594 258.027344 179.230469 258.328125 179.292969 258.453125 C 178.503906 258.558594 178.785156 257.933594 178.492188 257.46875 C 178.226562 257.050781 177.703125 256.6875 177.339844 256.355469 C 176.589844 255.660156 176.214844 254.632812 175.242188 254.472656 C 175.152344 254.28125 175.289062 254.277344 175.324219 254.1875 " fill-opacity="1" fill-rule="nonzero"/><path fill="#000000" d="M 190.835938 264.746094 C 190.78125 264.785156 190.171875 263.648438 190.152344 263.167969 C 191.34375 262.777344 189.289062 261.929688 189.15625 261.4375 C 189.101562 261.207031 189.332031 260.699219 189.320312 260.660156 C 189.359375 260.804688 189.082031 259.914062 189.066406 260.136719 C 189.089844 259.789062 189.226562 259.320312 189.257812 258.882812 C 189.839844 258.621094 190.421875 259.011719 190.808594 258.679688 C 191.007812 258.960938 191.253906 259.082031 191.535156 259.234375 C 191.882812 258.648438 191.3125 258.171875 191.855469 257.570312 C 192.183594 257.210938 192.59375 257.34375 193.125 257.171875 C 194.351562 256.773438 194.652344 255.523438 195.203125 254.492188 C 195.480469 254.5 195.734375 254.496094 196.011719 254.496094 C 196.519531 255.667969 197.292969 252.75 197.597656 252.382812 C 198.121094 252.59375 199.527344 252.117188 199.003906 253.375 C 200.082031 253.398438 200.554688 253.886719 201.472656 254.101562 C 201.109375 254.597656 200.417969 254.742188 199.800781 254.699219 C 200.453125 255.417969 200.359375 255.78125 199.105469 255.695312 C 199.101562 256.128906 199.480469 256.472656 199.585938 256.976562 C 199.6875 257.449219 199.664062 258.085938 199.671875 258.554688 C 199.578125 258.585938 199.496094 258.558594 199.402344 258.589844 C 199.613281 259.019531 200.695312 259.574219 201.09375 259.960938 C 200.671875 260.699219 199.761719 259.707031 199.1875 260.558594 C 198.789062 261.152344 199.304688 262.0625 198.617188 262.445312 C 198.550781 262.324219 198.492188 262.257812 198.421875 262.167969 C 198.199219 262.453125 198.148438 262.746094 197.992188 263.054688 C 197.960938 263.121094 197.609375 263.8125 197.621094 263.746094 C 197.511719 264.335938 197.847656 264.800781 197.476562 265.445312 C 197.277344 265.785156 196.523438 266.523438 196.101562 266.429688 C 196.015625 266.410156 195.929688 265.855469 195.710938 265.722656 C 195.410156 265.539062 195.140625 265.558594 194.832031 265.730469 C 194.792969 265.480469 194.609375 265.339844 194.601562 265.0625 C 194.253906 265.035156 193.882812 265.035156 193.535156 265.0625 C 193.550781 265.152344 193.566406 265.269531 193.585938 265.351562 C 193.191406 265.300781 192.796875 265.441406 192.441406 265.53125 C 192.332031 265.203125 192.320312 264.875 192.414062 264.558594 C 191.898438 264.636719 191.585938 265.066406 191.035156 264.84375 " fill-opacity="1" fill-rule="nonzero"/><path fill="#000000" d="M 186.757812 269.03125 C 186.414062 269.238281 185.265625 268.859375 185.378906 269.710938 C 186.0625 269.789062 186.382812 270.441406 185.972656 271.007812 C 186.964844 270.640625 187.542969 270.730469 188.550781 270.824219 C 189.804688 270.941406 190.042969 271.078125 190.988281 271.730469 C 191.9375 272.382812 192.613281 272.105469 193.617188 272.019531 C 194.191406 271.972656 196.058594 272.507812 195.328125 271.421875 C 195.050781 271.003906 193.636719 270.816406 193.117188 270.554688 C 192.199219 270.09375 191.765625 269.796875 190.851562 269.960938 C 190.050781 270.101562 189.632812 270.28125 188.820312 269.855469 C 188.5 269.6875 188.296875 269.359375 187.972656 269.210938 C 187.632812 269.054688 186.980469 269.136719 187.050781 269.035156 " fill-opacity="1" fill-rule="nonzero"/><path fill="#000000" d="M 207.050781 251.894531 C 206.667969 252.703125 207.417969 254.09375 208.71875 253.304688 C 208.789062 253.417969 208.886719 253.503906 208.941406 253.582031 C 209.113281 253.164062 208.777344 250.933594 209.71875 251.789062 C 209.742188 251.132812 209.375 250.125 209.027344 249.605469 C 209.640625 249.324219 209.453125 248.574219 208.816406 248.339844 C 208.492188 248.644531 208.433594 249.046875 208.703125 249.386719 C 208.21875 249.554688 207.53125 249.347656 207.53125 250.082031 C 207.25 250.40625 206.867188 250.75 206.359375 250.582031 C 206.492188 250.390625 206.453125 250.082031 206.535156 249.914062 C 206.027344 249.8125 205.527344 250.070312 205.441406 250.585938 C 204.316406 250.40625 204.460938 251.703125 204.457031 252.410156 C 205.03125 251.925781 204.796875 251.210938 205.558594 250.917969 C 206.175781 250.683594 206.628906 251.097656 207.035156 251.410156 C 207.074219 251.601562 207.070312 252.046875 207.042969 252.171875 C 206.949219 252.207031 206.851562 252.214844 206.75 252.195312 " fill-opacity="1" fill-rule="nonzero"/><path fill="#000000" d="M 190.335938 236.652344 C 190.207031 236.515625 188.023438 236.984375 188.820312 235.554688 C 189.203125 234.863281 190.664062 234.949219 191.324219 234.695312 C 190.949219 235.34375 190.292969 236.046875 190.460938 236.859375 C 190.554688 236.789062 190.582031 236.6875 190.535156 236.554688 " fill-opacity="1" fill-rule="nonzero"/><path fill="#000000" d="M 203.167969 231.574219 C 203.199219 231.394531 204.941406 227.507812 203.566406 228.078125 C 202.457031 228.539062 202.191406 231.765625 203.367188 231.671875 " fill-opacity="1" fill-rule="nonzero"/><path fill="#000000" d="M 203.964844 240.9375 C 203.941406 240.949219 204.121094 241.101562 203.886719 241.027344 C 203.664062 240.289062 204.652344 239.726562 204.882812 239.167969 C 205.199219 238.414062 204.558594 237.8125 204.871094 237.253906 C 202.503906 234.832031 203.152344 239.628906 202.46875 240.253906 C 202.375 240.097656 202.144531 239.960938 202.046875 239.773438 C 201.195312 241.050781 203.816406 241.722656 202.753906 242.535156 C 203.128906 242.730469 203.652344 242.832031 204.046875 243.019531 C 204.082031 242.367188 203.988281 241.664062 204.164062 241.039062 " fill-opacity="1" fill-rule="nonzero"/><path fill="#000000" d="M 227.042969 264.746094 C 226.234375 264.703125 225.617188 263.820312 224.855469 263.351562 C 224.347656 263.03125 222.023438 263.007812 222.734375 263.949219 C 221.472656 264.378906 220.585938 266.066406 219.410156 264.546875 C 218.933594 263.933594 219.695312 260.839844 217.695312 261.867188 C 216.933594 261.144531 215.851562 262.082031 215.261719 262.558594 C 215.578125 262.789062 215.996094 262.808594 216.386719 262.769531 C 216.550781 263.132812 216.53125 263.605469 216.414062 263.957031 C 217.15625 264.308594 217.9375 263.628906 218.773438 263.765625 C 218.832031 264.070312 218.867188 264.4375 218.871094 264.734375 C 218.113281 264.742188 217.21875 264.90625 216.519531 264.761719 C 216.582031 265.4375 218.257812 264.980469 217.308594 266.148438 C 217.894531 266.476562 218.25 265.894531 218.410156 265.355469 C 218.734375 265.960938 219.402344 265.777344 219.863281 266.15625 C 220.175781 266.414062 220.039062 266.714844 220.378906 266.9375 C 220.574219 267.0625 221.050781 267.105469 221.273438 267.144531 C 222.195312 267.289062 222.308594 267.285156 223.046875 267.933594 C 223.507812 268.339844 223.765625 268.804688 224.441406 268.75 C 224.578125 269.097656 224.691406 269.457031 224.773438 269.8125 C 225.164062 269.886719 225.40625 270.492188 225.035156 270.832031 C 224.753906 271.089844 224.3125 270.597656 223.835938 270.898438 C 222.480469 271.75 224.195312 273.164062 224.675781 271.433594 C 225.128906 271.796875 227.25 272.476562 227.144531 272.917969 Z M 227.042969 264.746094 " fill-opacity="1" fill-rule="nonzero"/><path fill="#000000" d="M 214.011719 216.332031 C 215.773438 216.277344 213.4375 219.019531 215.089844 218.804688 C 215.125 218.710938 215.089844 218.628906 215.121094 218.535156 C 215.226562 218.605469 215.601562 218.640625 215.710938 218.707031 C 215.816406 217.988281 216.207031 217.167969 216.179688 216.550781 C 216.136719 215.527344 215.242188 215.867188 214.988281 215.242188 C 214.628906 215.59375 213.738281 216.082031 213.898438 216.601562 C 214.011719 216.5625 214.117188 216.503906 214.210938 216.429688 " fill-opacity="1" fill-rule="nonzero"/><path fill="#000000" d="M 215.402344 214.539062 C 215.394531 214.601562 215.273438 214.765625 215.398438 214.667969 C 215.863281 214.59375 215.976562 214.316406 216.296875 214.054688 C 216.550781 213.847656 216.578125 213.636719 216.902344 213.441406 C 216.972656 213.398438 217.476562 213.335938 217.574219 213.316406 C 218.25 213.195312 219.648438 213.292969 219.800781 212.355469 C 220.390625 212.835938 221.007812 213.117188 221.5 212.472656 C 221.710938 212.199219 221.730469 211.5 221.890625 211.144531 C 222.070312 210.742188 222.574219 210.933594 222.382812 210.167969 C 222.878906 210.167969 222.925781 210.621094 222.78125 211.035156 C 223.089844 211.035156 224.148438 210.308594 224.4375 210.054688 C 224.734375 209.796875 224.890625 209.460938 225.152344 209.234375 C 225.488281 208.949219 225.851562 208.851562 226.125 208.460938 C 226.613281 207.742188 226.609375 206.890625 226.539062 206.269531 C 226.46875 205.648438 226.007812 204.511719 227.222656 204.886719 C 227.371094 205.636719 227.898438 205.058594 228.21875 205.472656 C 228.476562 205.804688 228.285156 206.304688 228.230469 206.667969 C 228.140625 207.3125 227.753906 208.132812 227.625 208.84375 C 226.558594 208.777344 227.292969 210.210938 227.023438 210.734375 C 226.152344 210.878906 226.769531 211.769531 226.722656 212.167969 C 226.652344 212.722656 226.222656 213.222656 225.945312 213.460938 C 226.019531 213.320312 226.039062 213.011719 226.105469 212.839844 C 225.410156 212.5 225.347656 213.511719 224.671875 213.460938 C 224.65625 213.628906 224.5625 213.753906 224.539062 213.929688 C 224.039062 213.726562 223.726562 214.121094 223.253906 214.046875 C 222.757812 213.964844 222.714844 213.398438 222.082031 213.558594 C 221.804688 214.140625 222.503906 214.464844 222.195312 214.945312 C 222.175781 214.980469 221.144531 215.300781 221.070312 215.332031 C 220.84375 215.421875 220.472656 216.316406 220.394531 215.238281 C 220.355469 214.742188 221.132812 214.476562 220.574219 214.035156 C 219.527344 213.207031 216.691406 215.019531 215.519531 214.921875 C 215.472656 214.703125 215.605469 214.636719 215.601562 214.640625 " fill-opacity="1" fill-rule="nonzero"/><path fill="#000000" d="M 226.246094 203.578125 C 225.949219 203.632812 225.203125 203.277344 225.519531 202.75 C 225.753906 202.363281 227.019531 202.78125 226.582031 201.777344 C 226.925781 201.792969 227.28125 201.789062 227.625 201.769531 C 227.789062 200.757812 228.757812 199.34375 227.925781 198.496094 C 228.585938 197.757812 228.867188 199.03125 229.234375 199.371094 C 229.640625 199.757812 230.3125 199.84375 230.820312 199.964844 C 231.394531 200.105469 232.503906 200.0625 232.617188 200.6875 C 232.800781 201.757812 231.550781 201.292969 231.015625 201.484375 C 230.296875 201.738281 230.546875 202.355469 230 202.753906 C 229.105469 203.414062 229.164062 202.449219 228.636719 202.175781 C 227.242188 201.457031 227.042969 203.160156 226.347656 203.773438 " fill-opacity="1" fill-rule="nonzero"/><g clip-path="url(#c0d6b0b067)"><path fill="#000000" d="M 141.601562 158 C 141.46875 158.398438 141.164062 158.664062 140.707031 158.761719 C 138.992188 156.847656 137.078125 158.152344 135.277344 159.339844 C 134.445312 159.886719 134.09375 160.4375 133.394531 160.835938 C 132.542969 161.320312 131.355469 161.460938 130.558594 162.144531 C 130 162.632812 129.496094 163.355469 128.949219 163.964844 C 128.074219 164.945312 127.515625 164.777344 126.523438 165.359375 C 123.960938 166.863281 123.898438 170.1875 124.742188 172.792969 C 125.191406 174.191406 126.277344 175.46875 126.53125 176.828125 C 126.785156 178.210938 125.789062 178.886719 125.636719 180.113281 C 125.394531 182.027344 126.328125 184.183594 126.53125 185.945312 C 126.65625 187.007812 126.128906 188.363281 125.90625 189.367188 L 126.007812 189.308594 C 125.597656 189.292969 125.21875 189.023438 124.8125 189.285156 C 124.605469 189.417969 124.671875 189.703125 124.496094 189.855469 C 124.355469 189.988281 124.214844 189.949219 124.050781 190.070312 C 123.570312 190.425781 123.285156 190.417969 122.742188 190.503906 C 122.1875 190.59375 121.839844 190.722656 121.320312 190.875 C 120.304688 191.179688 119.292969 191.210938 118.234375 191.03125 C 117.632812 190.929688 116.878906 190.519531 116.449219 191.175781 C 116.046875 191.792969 116.527344 193.375 116.535156 194.089844 L 116.460938 194.183594 C 116.929688 194.464844 117.113281 195.402344 117.421875 195.808594 C 117.246094 195.855469 117.023438 196.0625 116.84375 196.105469 C 116.878906 196.199219 116.929688 196.277344 116.953125 196.386719 C 118.316406 196.347656 119.722656 194.210938 120.742188 195.996094 C 121.335938 195.488281 122.011719 195.246094 122.304688 196.203125 C 122.433594 196.617188 122.367188 198.152344 122.183594 198.488281 C 121.515625 197.59375 120.769531 198.1875 120.019531 198.695312 C 120.269531 199.007812 120.425781 199.433594 120.402344 199.882812 C 120.0625 199.832031 119.851562 199.574219 119.808594 199.207031 C 119.417969 199.234375 119.023438 199.332031 118.628906 199.414062 C 119.386719 200.023438 119.8125 201.039062 120.511719 201.609375 C 120.878906 201.90625 121.683594 202.03125 121.816406 202.378906 C 121.964844 202.765625 120.976562 203.15625 121.816406 203.464844 C 121.945312 202.6875 122.660156 202.835938 123.183594 203.09375 C 123.265625 203.699219 123.445312 203.808594 123.695312 204.167969 C 123.960938 204.550781 124.53125 204.335938 124.199219 205.074219 C 123.707031 206.164062 122.414062 205.078125 121.722656 205.386719 C 121.773438 206.292969 122.792969 206.316406 122.789062 207.046875 C 122.59375 206.996094 122.304688 207.050781 122.117188 206.972656 C 122.378906 207.527344 122.949219 207.761719 123.203125 208.257812 C 123.421875 208.679688 123.394531 209.449219 123.394531 209.953125 C 123.394531 210.949219 123.40625 210.722656 122.59375 210.964844 C 122.097656 211.109375 121.367188 211.574219 120.804688 211.453125 C 120.53125 211.390625 120.410156 211.050781 120.1875 210.972656 C 120.050781 210.929688 119.484375 210.921875 119.394531 210.855469 C 118.960938 210.53125 118.898438 210.019531 118.402344 209.578125 L 118.546875 209.628906 C 118.21875 209.425781 117.5625 209.460938 117.292969 209.238281 C 117.066406 209.050781 117.039062 208.144531 117.066406 207.847656 C 117.75 207.585938 117.363281 206.890625 117.707031 206.347656 C 118.007812 205.867188 118.757812 206.167969 118.488281 205.496094 C 118.46875 205.449219 118.09375 205.339844 118.003906 205.234375 C 117.875 205.085938 117.882812 204.847656 117.78125 204.710938 C 117.445312 204.246094 117.335938 204.203125 116.753906 204.320312 L 116.65625 204.449219 C 115.273438 204.730469 112.769531 202.980469 112.332031 201.65625 C 111.121094 201.582031 110.730469 201.5 109.75 201.074219 C 108.863281 200.691406 108.175781 200.25 107.152344 200.308594 C 107.121094 201.355469 108.222656 201.21875 108.511719 202.039062 C 108.636719 202.390625 108.140625 203.894531 108 204.445312 C 107.503906 204.738281 106.949219 204.96875 106.382812 204.769531 L 106.480469 204.847656 C 104.429688 205.296875 102.375 204.203125 100.363281 203.976562 C 98.128906 203.722656 95.769531 203.925781 93.664062 204.746094 C 93.773438 204.636719 93.867188 204.515625 93.988281 204.417969 C 93.847656 204.496094 93.765625 204.632812 93.664062 204.746094 C 93.96875 204.890625 94.234375 205.109375 94.445312 205.367188 C 93.410156 205.664062 90.921875 204.527344 90.40625 205.964844 C 90.089844 206.855469 91.570312 207.847656 90.601562 208.632812 C 90.84375 208.75 90.984375 208.664062 91.007812 208.390625 C 89.671875 210.152344 92.355469 211.34375 93.546875 211.945312 C 93.847656 211.945312 94.144531 211.945312 94.445312 211.945312 C 95.039062 211.945312 95.636719 211.347656 96.234375 211.046875 C 98.320312 210.75 100.113281 211.945312 102.203125 211.046875 C 102.03125 211.242188 101.800781 211.308594 101.554688 211.226562 C 101.757812 211.125 101.980469 211.066406 102.203125 211.046875 C 102.085938 211.378906 101.984375 211.722656 101.980469 212.074219 L 101.523438 212.355469 C 102.0625 213.257812 101.207031 214.144531 102.585938 214.652344 C 102.867188 215.691406 101.9375 215.703125 101.527344 216.347656 C 101.058594 217.089844 101.457031 218.007812 101.414062 218.816406 C 101.371094 219.546875 101.03125 220.152344 101.109375 220.929688 C 101.191406 221.722656 101.375 222.089844 101.207031 222.878906 C 100.992188 223.875 100.9375 223.867188 101.507812 224.792969 C 101.980469 225.570312 102.617188 226.359375 103.121094 227.183594 C 103.925781 228.503906 104.832031 229.625 106.070312 230.589844 C 105.566406 232.046875 105.296875 232.3125 105.800781 233.746094 C 107 233.9375 107.65625 234.808594 108.148438 235.851562 C 108.570312 236.738281 109.683594 238.089844 109.839844 239.0625 C 109.945312 239.6875 109.816406 239.992188 109.941406 240.625 C 110.058594 241.25 110.234375 241.824219 110.382812 242.425781 C 110.597656 243.316406 110.578125 243.941406 111.628906 243.910156 C 112.183594 243.894531 113.480469 243.691406 114.039062 243.523438 C 114.746094 243.308594 115.578125 242.707031 116.320312 242.324219 C 116.828125 242.066406 117.1875 241.957031 117.714844 241.847656 C 117.921875 241.804688 118.148438 241.902344 118.414062 241.828125 C 118.550781 241.792969 118.738281 241.570312 118.890625 241.507812 C 119.492188 241.253906 120.25 240.960938 120.886719 240.816406 C 120.867188 240.738281 120.957031 240.613281 120.988281 240.558594 C 120.921875 240.480469 120.855469 240.40625 120.792969 240.335938 C 121.570312 239.335938 123.589844 238.253906 124.867188 238.328125 C 124.867188 238.03125 125.199219 237.265625 125.449219 237.117188 C 125.738281 236.953125 126.121094 237.261719 126.476562 237.027344 C 126.714844 236.871094 126.691406 236.3125 126.992188 236.070312 C 127.191406 235.910156 127.683594 236.011719 127.949219 235.832031 C 128.042969 235.152344 127.988281 234.398438 128.285156 233.765625 C 128.902344 235.039062 130.160156 233.410156 130.34375 232.664062 C 130.292969 232.863281 130.226562 231.917969 130.226562 231.9375 C 130.21875 231.8125 130.503906 231.574219 130.460938 231.363281 C 130.375 230.917969 129.648438 230.675781 129.355469 230.441406 C 128.980469 230.136719 128.671875 229.679688 128.269531 229.394531 C 127.789062 229.054688 127.152344 229.273438 126.746094 228.796875 C 126.460938 228.464844 126.492188 228.015625 126.382812 227.597656 C 126.261719 227.148438 126.011719 226.683594 125.960938 226.019531 C 125.828125 226.097656 125.507812 226.308594 125.398438 226.402344 C 125.398438 226.695312 125.238281 226.957031 125.269531 227.265625 C 125.023438 227.285156 124.847656 227.480469 124.601562 227.5 C 124.722656 230.003906 122.070312 228.710938 120.625 229.164062 C 120.605469 228.558594 120.609375 226.875 120.320312 226.382812 C 119.394531 224.839844 119.714844 227.855469 119.636719 228.054688 C 119.628906 227.511719 118.847656 226.785156 118.539062 226.46875 C 118.664062 225.761719 118.753906 225.722656 118.324219 225.164062 C 118.144531 224.933594 117.753906 225.101562 117.597656 224.925781 C 117.433594 224.738281 117.511719 224.335938 117.402344 224.09375 C 116.894531 222.964844 116.875 222.191406 115.648438 221.78125 C 115.738281 221.707031 115.792969 221.65625 115.917969 221.589844 C 115.828125 221.273438 115.941406 221.03125 116.027344 220.722656 C 116.207031 220.824219 116.625 220.8125 116.8125 220.902344 C 116.832031 220.738281 116.941406 220.5625 116.953125 220.421875 C 117.308594 220.695312 117.644531 220.554688 118.042969 220.710938 C 118.675781 220.960938 118.546875 220.820312 118.992188 221.414062 C 119.554688 222.164062 119.605469 222.789062 119.328125 223.6875 C 120.210938 223.8125 120.777344 223.652344 121.605469 223.90625 C 122.347656 224.132812 122.414062 224.183594 123.039062 224.699219 C 123.507812 225.089844 124.085938 225.515625 124.628906 225.382812 C 125.277344 225.222656 125.636719 224.402344 126.378906 224.320312 C 128.335938 224.105469 126.914062 226.136719 127.746094 226.917969 C 128.339844 227.476562 129.660156 227.058594 130.367188 227.121094 C 131.4375 227.214844 132.421875 228.097656 133.542969 227.863281 C 134.089844 227.746094 134.328125 227.488281 134.839844 227.414062 C 135.226562 227.359375 135.796875 227.511719 136.230469 227.484375 C 137.273438 227.421875 138.253906 226.808594 138.917969 227.582031 C 139.644531 228.433594 139.46875 228.996094 140.691406 229.496094 C 139.5 231.035156 142.425781 230.308594 142.875 230.289062 C 143.019531 231.476562 141.796875 231.121094 141.210938 231.542969 C 141.613281 232.140625 141.914062 233.234375 142.699219 233.507812 C 143.320312 233.726562 143.589844 232.890625 144.261719 233.246094 C 144.523438 232.960938 144.886719 232.839844 145.273438 232.839844 C 145.15625 232.503906 145.171875 232.105469 145.179688 231.714844 C 145.226562 232.136719 145.640625 232.367188 146.066406 232.378906 C 145.976562 232.441406 145.929688 232.519531 145.792969 232.578125 C 145.769531 232.972656 145.835938 233.433594 145.707031 233.785156 C 145.601562 234.058594 145.105469 234.070312 145.070312 234.453125 C 145.027344 234.898438 145.699219 235.222656 145.851562 235.574219 C 145.996094 235.902344 145.957031 236.1875 146 236.546875 C 146.09375 237.382812 146.003906 238.265625 146.078125 239.121094 C 146.175781 240.265625 146.675781 240.726562 147.269531 241.601562 C 147.792969 242.371094 147.757812 243.089844 148.066406 243.917969 C 148.382812 244.753906 149.042969 245.335938 149.339844 246.191406 C 149.75 247.378906 149.929688 248.945312 150.695312 249.96875 C 151.78125 251.421875 152.363281 249.074219 153.136719 248.300781 C 153.710938 247.730469 154.132812 247.710938 154.050781 246.722656 C 154.8125 246.472656 154.726562 242.953125 154.730469 242.21875 C 154.734375 241.550781 155.070312 240.628906 155.554688 240.152344 C 155.957031 239.761719 157.234375 239.640625 156.894531 238.9375 C 157.765625 238.214844 158.601562 237.390625 159.480469 236.644531 C 160.175781 236.058594 160.5 235.320312 161.097656 234.640625 C 161.949219 235.96875 162.414062 233.734375 162.507812 233.4375 C 162.746094 232.707031 162.839844 233.082031 163.289062 232.535156 C 163.5 232.277344 163.5625 231.933594 163.703125 231.574219 C 163.820312 231.796875 164.125 232.058594 164.277344 232.277344 C 164.324219 232.152344 164.59375 231.941406 164.648438 231.804688 C 165.21875 232.238281 165.828125 232.128906 165.867188 231.300781 C 166.214844 231.53125 166.679688 231.570312 167.074219 231.628906 C 166.953125 231.230469 166.203125 229.167969 167.21875 229.691406 C 167.109375 229.992188 167.101562 230.355469 167.074219 230.664062 C 167.203125 230.601562 167.515625 230.632812 167.648438 230.582031 C 167.730469 231.199219 168.34375 231.847656 168.550781 232.566406 C 168.863281 233.675781 169.027344 233.5625 169.84375 234.179688 C 171.460938 235.402344 171.675781 237.53125 171.929688 239.378906 C 172.582031 239.539062 172.929688 239.863281 173.347656 239.054688 C 173.617188 239.292969 173.972656 239.382812 174.308594 239.121094 C 174.308594 238.65625 174.332031 238.113281 174.523438 237.722656 C 174.675781 238.285156 174.847656 238.597656 175.125 239.136719 C 175.3125 239.503906 175.492188 239.832031 175.59375 240.226562 C 175.8125 241.09375 175.835938 241.769531 176.140625 242.625 C 176.398438 243.339844 176.757812 244.253906 176.839844 245.011719 C 176.894531 245.570312 176.488281 246.835938 177.09375 247.125 C 177.113281 248.199219 175.738281 249.039062 176.210938 250.320312 C 176.863281 249.878906 177.246094 250.667969 177.53125 251.191406 C 177.710938 251.515625 177.808594 252.015625 178.003906 252.296875 C 178.128906 252.46875 178.421875 252.4375 178.5 252.582031 C 178.730469 253.015625 178.726562 253.738281 179 254.28125 C 179.289062 254.847656 179.730469 255.277344 180.019531 255.867188 C 180.53125 256.917969 181.277344 258.90625 182.582031 259.246094 C 183.957031 259.605469 183.691406 257.707031 182.597656 257.550781 C 182.34375 256.066406 182.9375 254.460938 181.785156 253.347656 C 180.851562 252.449219 179.519531 252.085938 178.589844 251.1875 C 178.855469 250.941406 178.820312 250.726562 178.882812 250.410156 C 178.109375 250.257812 178.484375 249.195312 177.617188 249.28125 C 177.507812 248.375 177.886719 247.316406 178.003906 246.40625 C 178.140625 245.320312 178.210938 244.214844 178.519531 243.136719 C 179.542969 242.804688 179.0625 243.765625 179.417969 244.203125 C 179.695312 244.546875 180.277344 244.574219 180.691406 244.890625 C 181.285156 245.347656 181.871094 247.210938 182.757812 246.515625 C 183.027344 247.378906 183.605469 247.089844 183.945312 247.605469 C 184.21875 248.019531 184.125 248.792969 184.296875 249.285156 C 185.039062 249.1875 185.269531 248.933594 185.847656 248.519531 C 185.816406 248.488281 185.683594 248.433594 185.648438 248.40625 C 185.695312 248.269531 185.851562 247.738281 185.933594 247.675781 C 186.335938 247.351562 186.390625 247.765625 186.855469 247.703125 C 187.449219 247.621094 188.144531 247.355469 188.574219 246.902344 C 189.246094 246.1875 189.222656 245.058594 189.339844 243.988281 C 189.441406 243.019531 189.699219 241.507812 189.046875 240.71875 C 188.804688 240.425781 188.339844 240.378906 188.027344 239.9375 C 187.726562 239.519531 187.492188 239.121094 187.195312 238.738281 C 186.648438 238.027344 185.894531 237.414062 185.464844 236.644531 C 185.054688 235.90625 185.417969 234.859375 185.78125 234.054688 C 186.347656 232.796875 188.316406 231.523438 189.421875 232.550781 C 189.421875 232.429688 189.460938 232.289062 189.460938 232.171875 C 189.507812 232.179688 189.65625 232.351562 189.664062 232.347656 C 190.832031 232.058594 189.894531 233.160156 190.152344 233.539062 C 190.179688 233.582031 190.472656 233.886719 190.53125 233.929688 C 190.839844 233.601562 190.894531 233.113281 190.84375 232.675781 C 192.09375 232.625 193.128906 232.21875 194.203125 231.5625 C 194.007812 231.070312 194.34375 230.464844 194.789062 230.179688 C 194.9375 231.671875 196.3125 230.757812 197.097656 230.46875 C 197.9375 230.15625 198.695312 230 199.011719 228.988281 C 199.03125 228.984375 199.234375 229.050781 199.265625 229.058594 C 199.601562 228.574219 200.390625 228.800781 200.195312 227.894531 C 200.890625 227.765625 200.28125 227.027344 200.679688 226.566406 C 200.859375 226.796875 201.164062 226.847656 201.359375 226.96875 C 201.335938 226.796875 201.414062 226.566406 201.394531 226.398438 C 202.046875 226.351562 202.183594 225.640625 202.1875 225.101562 C 203.246094 225.328125 202.660156 224.335938 203.332031 224.195312 C 203.339844 223.824219 203.382812 223.917969 203.53125 223.597656 C 203.347656 223.050781 203.644531 222.554688 203.761719 222.027344 C 203.796875 222.144531 203.859375 222.25 203.882812 222.371094 C 204.328125 221.855469 204.0625 221.398438 204.152344 220.816406 C 203.769531 220.921875 203.3125 221.066406 202.886719 220.984375 C 202.910156 220.324219 204.199219 219.847656 204.753906 219.613281 C 204.355469 218.363281 202.445312 219.082031 201.886719 218.027344 C 202.707031 217.957031 203.496094 218.417969 204.351562 218.394531 C 204.210938 217.871094 203.625 218.105469 203.289062 217.71875 C 203.109375 217.507812 203.019531 216.535156 202.894531 216.21875 C 202.71875 215.765625 202.578125 215.414062 202.351562 215 C 202.179688 214.695312 202.308594 214.589844 202.078125 214.351562 C 201.878906 214.144531 201.542969 214.3125 201.375 214.046875 C 200.988281 213.4375 202.445312 212.503906 202.976562 212.058594 C 203.492188 211.628906 204.992188 211.375 204.945312 210.527344 C 204.707031 210.554688 204.125 210.757812 203.863281 210.640625 C 203.433594 210.449219 203.765625 210.226562 203.46875 209.9375 C 203.058594 209.542969 202.703125 209.265625 202.089844 209.460938 C 201.972656 210.078125 201.554688 210.925781 200.792969 210.722656 C 200.761719 210.179688 200.925781 209.566406 200.503906 209.179688 C 200.441406 209.230469 200.46875 209.300781 200.390625 209.359375 C 200.117188 209.203125 199.128906 208.359375 199.109375 208.046875 C 199.070312 207.457031 199.703125 207.199219 200.15625 207.535156 C 200.898438 206.90625 201.972656 206.4375 202.894531 205.863281 C 203.371094 205.570312 203.816406 204.558594 204.535156 205.183594 C 205.335938 205.878906 203.988281 206.398438 204.078125 207.039062 C 204.136719 207.039062 204.28125 207.03125 204.332031 207.046875 C 203.324219 207.890625 205.132812 207.269531 205.507812 207.050781 C 206.226562 206.636719 206.632812 206.496094 207.449219 206.535156 C 208.066406 206.5625 208.449219 206.4375 208.71875 207.050781 C 208.761719 207.15625 208.511719 208.4375 208.421875 208.636719 C 208.023438 208.523438 207.90625 208.597656 207.753906 209.03125 C 208.324219 208.972656 208.902344 209.125 209.15625 209.625 C 209.71875 209.679688 209.9375 210.128906 210.523438 210.0625 C 210.363281 210.21875 210.289062 210.554688 210.136719 210.71875 C 210.265625 210.742188 210.394531 210.820312 210.523438 210.851562 C 210.507812 211.082031 210.511719 211.214844 210.351562 211.414062 C 210.210938 210.957031 210.097656 211.144531 209.847656 210.949219 C 209.832031 211.367188 209.828125 211.800781 209.847656 212.214844 C 211.15625 212.175781 208.660156 214.464844 210.414062 214.308594 C 210.457031 213.664062 211.632812 213.65625 212.128906 213.523438 C 213.109375 213.265625 213.210938 213.421875 213.210938 212.53125 C 213.214844 211.820312 213.101562 211.242188 212.9375 210.613281 C 212.730469 209.828125 212.429688 209.691406 211.945312 209.039062 C 211.699219 208.703125 211.140625 207.824219 211.125 207.429688 C 211.085938 206.582031 212.117188 206.234375 212.722656 205.78125 C 213.75 205.015625 213.574219 203.660156 214.765625 203.144531 C 214.003906 201.910156 215.398438 201.972656 215.597656 201.070312 C 215.601562 201.046875 215.605469 201.023438 215.609375 201 L 216.875 201.21875 C 217.09375 201.46875 217.691406 202.367188 217.988281 202.070312 C 220.675781 200.875 222.167969 198.484375 224.257812 196.09375 C 225.75 194.296875 226.941406 192.207031 226.644531 189.816406 C 226.644531 189.21875 227.242188 188.621094 227.476562 188.039062 C 228 187.039062 227.710938 186.625 226.964844 185.851562 C 227.976562 186.40625 226.628906 184.410156 226.417969 184.191406 C 225.84375 183.605469 225.125 183.191406 224.472656 183.878906 C 224.019531 184.371094 223.964844 185.058594 223.148438 185.097656 C 223.230469 184.867188 223.230469 184.617188 223.144531 184.390625 C 222.882812 184.511719 222.628906 184.652344 222.386719 184.800781 C 222.46875 184.136719 222.46875 183.839844 222.46875 183.242188 C 222.167969 182.644531 220.976562 182.941406 221.273438 182.644531 C 223.0625 179.65625 226.050781 177.261719 229.03125 175.769531 C 231.121094 174.574219 233.804688 175.46875 236.191406 175.171875 C 236.492188 175.171875 236.789062 174.574219 237.085938 174.273438 C 237.984375 173.976562 237.984375 174.574219 238.058594 174.769531 C 238.300781 174.480469 238.226562 174.488281 238.058594 174.769531 C 238.964844 174.589844 239.75 175.453125 240.667969 175.171875 C 240.390625 175.46875 240.054688 175.761719 239.628906 175.757812 C 239.691406 175.730469 239.8125 175.726562 239.886719 175.703125 C 239.796875 175.710938 239.734375 175.726562 239.628906 175.757812 C 240.96875 176.667969 242.160156 175.171875 243.652344 175.472656 C 243.652344 174.875 243.351562 174.574219 243.054688 174.277344 C 244.988281 172.609375 247.554688 168.601562 250.421875 170.984375 C 250.476562 170.847656 250.574219 170.714844 250.59375 170.5625 C 250.488281 171.078125 250.316406 171.582031 250.074219 172.046875 C 250.359375 172.050781 250.566406 172.246094 250.585938 172.535156 C 251.109375 171.289062 252.902344 171.585938 253.199219 170.691406 C 253.796875 169.496094 254.097656 169.195312 254.691406 168.898438 C 255.289062 168.597656 256.183594 168.898438 256.183594 169.492188 C 256.183594 169.792969 254.992188 169.792969 254.992188 170.390625 C 254.992188 171.585938 254.097656 173.082031 252.601562 173.011719 C 252.554688 173.15625 252.511719 173.257812 252.539062 173.394531 C 252.679688 173.214844 252.640625 173.226562 252.601562 173.011719 C 250.8125 174.578125 249.320312 177.265625 246.933594 177.566406 C 243.652344 180.550781 244.84375 185.335938 246.039062 188.921875 C 247.53125 188.621094 248.125 187.425781 248.425781 185.933594 C 248.425781 185.632812 249.617188 185.632812 249.617188 185.335938 C 249.917969 183.542969 250.8125 183.246094 252.304688 182.945312 C 252.601562 182.046875 252.304688 180.554688 253.273438 179.945312 C 253.378906 180.207031 253.402344 180.492188 253.414062 180.773438 C 254.507812 180.726562 253.363281 179.402344 253.351562 178.96875 C 253.339844 178.65625 254.785156 177.203125 253.664062 177.207031 C 253.261719 177.207031 252.546875 178.605469 252.40625 177.351562 C 252.300781 176.417969 253.335938 175.207031 253.859375 174.570312 C 252.957031 174.109375 254.925781 173.933594 255.191406 173.9375 C 256.222656 173.945312 256.398438 173.007812 257.4375 172.867188 C 257.417969 173.160156 257.363281 173.453125 257.3125 173.742188 C 258.179688 173.464844 258.882812 172.6875 259.839844 172.707031 C 259.746094 172.761719 259.65625 172.820312 259.566406 172.882812 C 260.101562 172.945312 260.738281 172.496094 261.238281 172.777344 C 261.640625 173 261.632812 173.554688 261.933594 173.867188 C 262.128906 172.78125 263.40625 172.371094 264.289062 171.996094 C 265.710938 171.394531 267.046875 170.617188 268.445312 169.957031 C 269.152344 169.621094 269.9375 169.1875 270.710938 169.035156 C 271.480469 168.886719 271.859375 169.511719 272.507812 169.492188 C 273.753906 169.460938 272.96875 167.464844 271.910156 167.585938 C 272.964844 166.570312 270.648438 166.621094 270.789062 165.722656 C 270.070312 165.699219 269.410156 165.460938 268.855469 165.035156 C 269.773438 164.828125 270.539062 164.878906 271.480469 164.957031 C 271.910156 164.992188 274.292969 164.957031 273.605469 164.132812 C 273.925781 164.273438 274.292969 164.210938 274.5 163.914062 C 274.25 163.738281 274 163.570312 273.722656 163.4375 C 274.082031 163.316406 274.125 162.957031 274 162.636719 C 274.21875 162.605469 274.4375 162.5625 274.652344 162.5 C 274.558594 162.359375 274.574219 162.179688 274.484375 162.039062 C 274.953125 161.964844 275.855469 161.96875 275.972656 162.585938 C 276.082031 163.171875 275.253906 163.308594 275.402344 163.902344 C 276.234375 163.464844 277.441406 163.433594 278.3125 163.773438 C 279.109375 164.085938 279.089844 164.804688 279.683594 165.308594 C 280.644531 166.128906 282.636719 166.03125 283.132812 164.726562 C 282.828125 164.789062 282.53125 164.6875 282.355469 164.429688 C 283.042969 164.613281 282.597656 164 282.355469 163.792969 C 282.125 163.59375 281.390625 163.316406 282.132812 163.136719 C 282.996094 162.933594 284.085938 164.730469 284.335938 163.027344 C 284.335938 163.167969 284.347656 163.246094 284.304688 163.382812 C 284.195312 162.742188 284.796875 163.15625 285.132812 163.214844 C 285.445312 160.914062 282.625 161.363281 281.203125 160.914062 C 281.316406 161.105469 281.496094 161.242188 281.695312 161.265625 C 281.558594 161.125 281.382812 161 281.203125 160.914062 C 281.835938 161.410156 281.917969 162.679688 280.917969 162.546875 C 279.855469 162.40625 279.621094 160.929688 279.199219 160.160156 C 278.140625 158.214844 275.652344 158.222656 273.761719 157.628906 C 272.652344 157.277344 271.757812 156.578125 270.683594 156.171875 C 269.609375 155.769531 268.476562 155.621094 267.347656 155.503906 C 266.234375 155.386719 265.113281 155.316406 264.023438 155.042969 C 263.519531 154.917969 263.367188 154.796875 262.945312 155.089844 C 262.707031 155.257812 262.695312 155.507812 262.449219 155.746094 C 264.011719 156.773438 262.210938 158.648438 260.960938 157.539062 C 260.691406 157.304688 260.527344 156.890625 260.238281 156.628906 C 260.101562 156.5 259.878906 156.429688 259.765625 156.3125 C 259.6875 156.230469 259.789062 155.933594 259.648438 155.859375 C 258.933594 155.503906 259.3125 156.59375 259.648438 155.859375 C 258.929688 156.28125 259.3125 156.59375 259.648438 155.859375 C 258.871094 156.34375 257.972656 156.046875 257.078125 156.34375 C 254.691406 156.644531 252.304688 156.046875 249.917969 156.046875 C 249.617188 156.046875 249.320312 155.746094 249.320312 155.449219 C 249.019531 153.953125 247.828125 152.757812 246.335938 152.757812 C 244.25 152.757812 242.160156 153.65625 240.082031 153.4375 C 240.378906 153.300781 240.746094 153.289062 241.050781 153.390625 C 240.753906 153.480469 240.398438 153.449219 240.082031 153.4375 C 240.429688 153.121094 240.328125 152.585938 239.8125 152.46875 C 239.414062 152.378906 239.339844 152.78125 239.023438 152.824219 C 238.476562 152.902344 238.605469 152.492188 238.226562 152.167969 C 237.816406 151.820312 237.195312 151.894531 236.695312 151.945312 C 236.847656 151.679688 237.085938 151.46875 237.378906 151.363281 C 236.769531 150.601562 235.367188 150.304688 234.457031 150.554688 C 233.503906 150.820312 232.902344 151.859375 231.8125 151.644531 C 232.128906 151.410156 232.445312 151.171875 232.710938 150.875 C 232.046875 150.832031 231.390625 150.992188 230.726562 150.941406 C 231.457031 149.847656 233.171875 150.5625 233.902344 149.464844 C 231.792969 148.710938 229.589844 149.894531 227.453125 149.382812 C 227.75 150.292969 225.722656 149.917969 225.261719 150.058594 C 225.300781 150.148438 225.335938 150.238281 225.367188 150.328125 C 225.816406 150.039062 226.683594 149.75 226.925781 150.441406 C 226.503906 150.617188 226.113281 150.882812 225.664062 150.976562 C 225.882812 151.425781 226.292969 151.761719 225.808594 152.136719 C 225.34375 152.496094 224.367188 152.058594 223.871094 151.972656 C 223.898438 152.367188 223.875 152.769531 223.738281 153.144531 C 223.355469 152.457031 222.761719 151.859375 222.164062 151.859375 C 220.375 151.859375 218.878906 151.859375 217.125 151.285156 C 216.722656 151.429688 216.777344 152.046875 216.300781 152.183594 C 217.125 153.617188 215.046875 153.101562 214.433594 152.820312 C 213.730469 152.496094 212.0625 151.5625 211.9375 150.675781 C 212.296875 150.769531 213.28125 150.992188 213.382812 150.417969 C 213.484375 149.859375 212.789062 150.132812 212.480469 149.964844 C 211.628906 149.5 212.558594 149.730469 212.660156 149.496094 C 212.800781 149.183594 212.210938 148.726562 212.910156 148.746094 C 212.011719 147.742188 210.597656 148.304688 209.492188 147.828125 C 208.933594 147.585938 208.585938 146.988281 207.921875 147.03125 C 207.335938 147.066406 206.945312 147.632812 206.355469 147.691406 C 206.957031 148.6875 205.265625 149.09375 204.65625 148.574219 L 205.042969 148.546875 C 205.191406 148.601562 205.335938 148.679688 205.472656 148.761719 C 205.304688 148.75 205.140625 148.757812 204.972656 148.726562 C 205.140625 148.746094 205.304688 148.75 205.472656 148.761719 C 203.738281 148.316406 201.90625 148.558594 200.175781 148.074219 C 200.265625 148.140625 200.355469 148.203125 200.449219 148.261719 C 200.394531 147.804688 200.632812 147.371094 200.976562 147.078125 C 198.886719 146.78125 197.09375 147.675781 194.859375 148.03125 C 194.585938 147.902344 194.113281 147.210938 194.285156 146.96875 C 193.335938 147.847656 192.480469 146.429688 191.511719 146.605469 C 190.640625 146.765625 191.375 147.261719 191.917969 147.273438 C 190.585938 147.59375 189.207031 147.851562 187.949219 148.40625 C 187.015625 148.8125 185.90625 149.757812 184.839844 149.242188 C 186.257812 147.476562 188.703125 147.476562 190.414062 146.152344 C 190.265625 146.015625 190.101562 145.890625 189.933594 145.785156 C 191.253906 145.203125 192.667969 144.855469 193.953125 144.183594 C 194.28125 144.011719 194.898438 143.789062 194.914062 143.34375 C 194.933594 142.769531 194.015625 142.515625 193.609375 142.386719 C 194.171875 142.488281 194.722656 142.691406 195.296875 142.65625 C 192.929688 140.816406 189.617188 139.917969 186.753906 141.0625 C 186.878906 141.0625 187.007812 141.0625 187.136719 141.0625 C 186.601562 140.769531 187.527344 139.917969 186.6875 139.722656 C 186.046875 139.574219 185.636719 140.636719 184.945312 140.566406 C 185.125 140.347656 185.285156 140.117188 185.4375 139.875 C 184.980469 139.855469 183.917969 139.964844 183.691406 139.429688 C 183.335938 138.574219 184.75 138.515625 185.242188 138.5625 C 184.632812 137.148438 181.09375 138.304688 180.472656 139.308594 C 179.921875 140.195312 181.179688 140.085938 181.144531 140.769531 C 181.09375 141.757812 178.628906 141.167969 178.117188 141.179688 C 179.101562 140.839844 178.023438 141.933594 177.671875 142.082031 C 176.484375 142.59375 174.960938 142.230469 173.71875 142.15625 C 173.878906 141.761719 174.261719 141.523438 174.671875 141.46875 C 173.605469 141.480469 172.527344 141.542969 171.484375 141.785156 C 171.808594 141.585938 172.21875 141.648438 172.429688 141.976562 C 170.535156 143.496094 168.449219 142.894531 166.65625 143.195312 C 164.269531 143.496094 163.671875 145.886719 162.179688 147.082031 C 160.984375 148.574219 158.894531 147.082031 157.109375 147.382812 C 155.914062 147.679688 155.316406 149.175781 155.820312 150.011719 C 155.742188 149.597656 155.578125 149.199219 155.363281 148.832031 C 155.496094 149.234375 155.652344 149.625 155.820312 150.011719 C 155.859375 149.832031 155.910156 149.65625 155.914062 149.472656 C 155.726562 150.398438 157.332031 150.160156 157.828125 150.269531 C 158.246094 150.363281 158.742188 150.617188 158.257812 150.832031 C 158.125 150.890625 157.941406 150.402344 158.273438 150.429688 C 158.519531 150.449219 158.621094 150.578125 158.5625 150.84375 C 158.402344 151.542969 156.714844 151.300781 156.234375 151.21875 C 154.992188 151.011719 153.734375 149.964844 152.449219 150.554688 C 152.597656 150.757812 152.773438 150.773438 152.945312 150.589844 C 152.625 150.507812 152.421875 150.671875 152.628906 150.964844 C 152.511719 150.960938 152.398438 150.945312 152.285156 150.917969 C 152.402344 150.921875 152.515625 150.9375 152.628906 150.964844 C 151.988281 150.964844 149.589844 150.816406 150.542969 151.863281 C 151.332031 152.734375 153.261719 152.234375 153.523438 153.65625 C 152.394531 153.535156 153.363281 153.074219 153.523438 153.65625 C 152.03125 153.058594 149.941406 153.355469 148.75 151.863281 C 148.75 151.5625 149.644531 150.667969 149.34375 150.070312 L 148.75 149.769531 C 146.363281 151.265625 147.257812 154.550781 147.851562 156.644531 C 149.34375 156.644531 151.433594 156.046875 152.328125 157.839844 C 152.328125 158.136719 152.328125 158.4375 152.382812 158.589844 C 152.527344 159.6875 153.078125 159.824219 154.117188 159.632812 C 152.980469 160.816406 151.695312 159.722656 151.0625 158.652344 C 150.375 157.492188 149.65625 157.050781 148.347656 157.730469 C 148.910156 158.964844 149.113281 157.738281 148.347656 157.730469 C 148.75 158.4375 149.046875 158.734375 148.75 159.335938 C 147.554688 161.425781 144.867188 164.117188 142.183594 162.320312 C 142.183594 162.023438 141.886719 162.023438 141.886719 161.726562 C 141.886719 161.425781 142.183594 161.128906 142.183594 161.128906 C 144.570312 161.425781 146.957031 160.230469 147.554688 157.839844 C 147.554688 157.542969 147.257812 157.242188 147.257812 157.242188 C 146.660156 157.242188 146.363281 157.242188 145.640625 157.023438 C 145.726562 157.0625 145.808594 157.097656 145.894531 157.121094 C 146.363281 155.449219 146.0625 153.65625 145.167969 152.160156 C 144.871094 151.5625 145.464844 150.964844 145.464844 150.367188 C 145.464844 149.769531 144.871094 149.46875 144.570312 149.171875 C 141.886719 148.273438 140.992188 151.5625 138.953125 152.847656 C 138.929688 153.171875 139.28125 153.1875 139.496094 153.054688 C 139.449219 153.992188 139.207031 154.933594 139.832031 155.742188 C 140.273438 156.308594 141.058594 156.609375 140.789062 157.472656 C 141.132812 157.238281 141.546875 157.105469 141.964844 157.125 C 141.882812 157.535156 141.882812 157.835938 141.882812 158.132812 L 141.285156 158.429688 " fill-opacity="1" fill-rule="nonzero"/></g><g fill="#000000" fill-opacity="1"><g transform="translate(127.682837, 124.033869)"><g><path d="M 14.6875 -15.8125 L 5 -11.3125 L 6.40625 -2.984375 L 0.046875 -0.015625 L -4.1875 -30.3125 C -4.300781 -30.851562 -4.222656 -31.363281 -3.953125 -31.84375 C -3.679688 -32.332031 -3.285156 -32.703125 -2.765625 -32.953125 L 3.09375 -35.671875 C 4.269531 -36.222656 5.242188 -36.019531 6.015625 -35.0625 L 26.46875 -12.328125 L 20.15625 -9.375 Z M 11.09375 -20.015625 L 4.71875 -27.515625 C 3.75 -28.710938 3.144531 -29.503906 2.90625 -29.890625 L 1.8125 -29.375 C 1.882812 -29.082031 1.988281 -28.601562 2.125 -27.9375 C 2.269531 -27.28125 2.367188 -26.785156 2.421875 -26.453125 L 4.078125 -16.734375 Z M 11.09375 -20.015625 "/></g></g></g><g fill="#000000" fill-opacity="1"><g transform="translate(153.257567, 112.192056)"><g><path d="M 12.125 -14.328125 L 5.5625 -15.296875 C 3.125 -15.671875 1.285156 -16.472656 0.046875 -17.703125 C -1.191406 -18.929688 -2.035156 -20.695312 -2.484375 -23 C -3.140625 -26.351562 -2.757812 -28.753906 -1.34375 -30.203125 C 0.0703125 -31.660156 2.835938 -32.789062 6.953125 -33.59375 C 10.835938 -34.34375 14.253906 -34.585938 17.203125 -34.328125 L 17.671875 -29.65625 C 15.085938 -29.25 11.894531 -28.675781 8.09375 -27.9375 C 6.332031 -27.59375 5.1875 -27.207031 4.65625 -26.78125 C 4.132812 -26.363281 3.992188 -25.535156 4.234375 -24.296875 C 4.421875 -23.296875 4.773438 -22.613281 5.296875 -22.25 C 5.828125 -21.894531 6.753906 -21.632812 8.078125 -21.46875 L 14.234375 -20.59375 C 16.765625 -20.238281 18.648438 -19.4375 19.890625 -18.1875 C 21.140625 -16.945312 21.988281 -15.179688 22.4375 -12.890625 C 23.09375 -9.472656 22.710938 -6.992188 21.296875 -5.453125 C 19.890625 -3.910156 17.066406 -2.726562 12.828125 -1.90625 C 9.378906 -1.238281 5.816406 -0.9375 2.140625 -1 L 1.59375 -5.9375 C 7.894531 -7.019531 11.265625 -7.601562 11.703125 -7.6875 C 13.503906 -8.039062 14.664062 -8.460938 15.1875 -8.953125 C 15.71875 -9.453125 15.863281 -10.304688 15.625 -11.515625 C 15.425781 -12.546875 15.082031 -13.234375 14.59375 -13.578125 C 14.101562 -13.929688 13.28125 -14.179688 12.125 -14.328125 Z M 12.125 -14.328125 "/></g></g></g><g fill="#000000" fill-opacity="1"><g transform="translate(179.030609, 107.780113)"><g><path d="M 9.984375 -0.109375 L 3.15625 -0.03125 L 2.796875 -31.078125 L 9.625 -31.15625 Z M 9.984375 -0.109375 "/></g></g></g><g fill="#000000" fill-opacity="1"><g transform="translate(192.236575, 107.057828)"><g><path d="M 24.375 -1.3125 L 23.828125 3.703125 C 21.003906 3.535156 16.25 2.890625 9.5625 1.765625 C 7.519531 1.410156 5.984375 0.578125 4.953125 -0.734375 C 3.921875 -2.046875 3.550781 -3.65625 3.84375 -5.5625 L 6.984375 -24.109375 C 7.335938 -25.992188 8.210938 -27.390625 9.609375 -28.296875 C 11.015625 -29.203125 12.738281 -29.476562 14.78125 -29.125 C 21.46875 -28 26.175781 -27.050781 28.90625 -26.28125 L 27.765625 -21.328125 L 15.984375 -23.3125 C 15.242188 -23.4375 14.679688 -23.347656 14.296875 -23.046875 C 13.910156 -22.742188 13.648438 -22.195312 13.515625 -21.40625 L 12.734375 -16.734375 L 24.9375 -14.671875 L 24.109375 -9.8125 L 11.90625 -11.875 L 10.90625 -5.953125 C 10.769531 -5.128906 10.832031 -4.507812 11.09375 -4.09375 C 11.351562 -3.6875 11.851562 -3.421875 12.59375 -3.296875 Z M 24.375 -1.3125 "/></g></g></g><g fill="#000000" fill-opacity="1"><g transform="translate(216.729257, 110.615562)"><g><path d="M 39.5 -16.265625 L 27.78125 9.796875 C 27.101562 11.296875 26.019531 11.710938 24.53125 11.046875 L 20.640625 9.296875 C 20.003906 9.003906 19.578125 8.632812 19.359375 8.1875 C 19.140625 7.75 19.007812 7.117188 18.96875 6.296875 L 18.34375 -12.109375 C 18.3125 -14.546875 18.394531 -16.273438 18.59375 -17.296875 L 18.140625 -17.5 C 17.710938 -16.050781 17.128906 -14.503906 16.390625 -12.859375 L 8.8125 3.96875 L 2.875 1.296875 L 14.609375 -24.765625 C 15.273438 -26.265625 16.359375 -26.675781 17.859375 -26 L 21.6875 -24.28125 C 22.3125 -24 22.738281 -23.632812 22.96875 -23.1875 C 23.195312 -22.738281 23.328125 -22.113281 23.359375 -21.3125 L 23.953125 -3.421875 C 24.015625 -1.753906 24.015625 0.0664062 23.953125 2.046875 L 24.359375 2.21875 C 25.148438 0.0195312 25.78125 -1.601562 26.25 -2.65625 L 33.578125 -18.9375 Z M 39.5 -16.265625 "/></g></g></g></svg>