<svg xmlns="http://www.w3.org/2000/svg" xmlns:xlink="http://www.w3.org/1999/xlink" width="500" zoomAndPan="magnify" viewBox="0 0 375 374.999991" height="500" preserveAspectRatio="xMidYMid meet" version="1.0"><defs><g/><clipPath id="f7d6bf673f"><path d="M 45.238281 45.238281 L 329.761719 45.238281 L 329.761719 329.761719 L 45.238281 329.761719 Z M 45.238281 45.238281 " clip-rule="nonzero"/></clipPath><clipPath id="a3be74db80"><path d="M 187.5 45.238281 C 108.929688 45.238281 45.238281 108.929688 45.238281 187.5 C 45.238281 266.070312 108.929688 329.761719 187.5 329.761719 C 266.070312 329.761719 329.761719 266.070312 329.761719 187.5 C 329.761719 108.929688 266.070312 45.238281 187.5 45.238281 Z M 187.5 45.238281 " clip-rule="nonzero"/></clipPath><clipPath id="893dcd5f27"><path d="M 113.738281 176.289062 L 259.988281 176.289062 L 259.988281 276 L 113.738281 276 Z M 113.738281 176.289062 " clip-rule="nonzero"/></clipPath></defs><g clip-path="url(#f7d6bf673f)"><g clip-path="url(#a3be74db80)"><path fill="#cfff00" d="M 45.238281 45.238281 L 329.761719 45.238281 L 329.761719 329.761719 L 45.238281 329.761719 Z M 45.238281 45.238281 " fill-opacity="1" fill-rule="nonzero"/></g></g><g clip-path="url(#893dcd5f27)"><path fill="#000000" d="M 178.921875 275.851562 C 175 275.851562 171.078125 275.851562 167.15625 275.851562 C 164.207031 275.851562 161.203125 276.007812 158.289062 275.492188 C 155.679688 275.027344 153.199219 273.949219 150.898438 272.652344 C 144.917969 269.273438 139.808594 264.167969 135.796875 258.621094 C 134.9375 257.429688 134.128906 256.195312 133.382812 254.929688 C 133.078125 254.40625 132.816406 253.851562 132.492188 253.34375 C 132.421875 253.21875 132.320312 253.125 132.191406 253.066406 L 125.660156 249.71875 C 123.851562 248.714844 122.152344 247.550781 120.5625 246.222656 C 117.792969 243.921875 115.339844 241.183594 114.265625 237.671875 C 113.738281 235.976562 113.757812 234.289062 114.320312 232.605469 C 114.714844 231.578125 115.285156 230.65625 116.03125 229.847656 C 116.773438 229.039062 117.640625 228.394531 118.628906 227.914062 C 120.386719 227.128906 123.039062 227.105469 124.828125 227.824219 L 124.890625 227.851562 C 124.789062 226.796875 124.699219 225.570312 124.964844 224.539062 C 125.511719 222.429688 127.875 221.066406 129.703125 220.203125 C 130.15625 219.988281 130.609375 219.773438 131.070312 219.582031 C 131.261719 219.527344 131.441406 219.457031 131.617188 219.363281 C 131.683594 219.308594 131.875 218.292969 131.933594 218.101562 C 132.304688 216.902344 132.746094 215.734375 133.257812 214.589844 C 137.109375 206.015625 145.765625 200.046875 155.199219 199.929688 C 156.621094 199.898438 158.03125 200.011719 159.425781 200.273438 C 159.871094 200.359375 160.316406 200.449219 160.753906 200.5625 C 160.875 200.605469 160.996094 200.636719 161.125 200.660156 C 161.402344 200.363281 161.667969 200.050781 161.914062 199.726562 C 162.667969 198.839844 163.476562 198.003906 164.347656 197.230469 C 166.917969 195.035156 169.789062 193.355469 172.957031 192.1875 C 173.042969 192.078125 173.023438 192.125 173.058594 192.003906 C 173.722656 189.4375 175.25 186.792969 176.960938 184.789062 C 180.257812 180.921875 184.71875 177.972656 189.726562 176.945312 C 191.113281 176.695312 192.507812 176.535156 193.914062 176.457031 C 194.550781 176.316406 195.441406 176.441406 196.09375 176.496094 C 199.011719 176.753906 201.875 177.3125 204.546875 178.578125 C 206.628906 179.570312 208.527344 180.839844 210.238281 182.394531 C 211.945312 183.949219 213.394531 185.714844 214.585938 187.699219 C 215.238281 188.703125 215.78125 189.761719 216.214844 190.878906 L 217.191406 193.8125 C 217.300781 194.117188 217.378906 194.433594 217.429688 194.753906 C 217.441406 194.847656 217.460938 194.941406 217.484375 195.035156 C 217.941406 196.511719 217.898438 198.152344 218.054688 199.675781 C 219.078125 199.910156 220.140625 199.996094 221.171875 200.214844 C 223.964844 200.847656 226.554688 201.953125 228.945312 203.535156 C 230.746094 204.6875 232.367188 206.058594 233.800781 207.644531 C 235.238281 209.234375 236.4375 210.984375 237.40625 212.894531 C 237.644531 213.378906 237.851562 213.878906 238.050781 214.378906 C 238.445312 215.375 239.226562 217.074219 239.527344 218.550781 C 239.558594 218.710938 239.523438 218.664062 239.628906 218.769531 C 239.851562 218.921875 240.09375 219.019531 240.359375 219.058594 C 240.992188 219.230469 241.632812 219.390625 242.261719 219.582031 C 244.253906 220.183594 246.453125 221.1875 247.824219 222.804688 C 248.21875 223.257812 248.523438 223.761719 248.738281 224.324219 C 249.03125 225.246094 248.855469 226.355469 248.777344 227.296875 C 249.398438 227.328125 250.015625 227.324219 250.636719 227.28125 C 251.480469 227.234375 252.324219 227.246094 253.167969 227.324219 C 254.46875 227.5 255.640625 227.988281 256.6875 228.785156 C 258.035156 229.804688 258.96875 231.117188 259.492188 232.730469 C 259.609375 233.019531 259.699219 233.316406 259.761719 233.625 C 259.796875 233.886719 259.890625 234.128906 259.921875 234.386719 C 259.988281 235.15625 259.941406 235.917969 259.78125 236.671875 C 258.601562 243.371094 250.96875 248.261719 245.417969 251.1875 C 244.542969 251.648438 243.667969 252.109375 242.773438 252.535156 C 242.433594 252.699219 241.65625 252.90625 241.402344 253.128906 C 241.308594 253.265625 241.230469 253.40625 241.164062 253.558594 C 240.929688 253.996094 240.714844 254.441406 240.464844 254.871094 C 239.824219 255.984375 239.085938 257.0625 238.351562 258.121094 C 236.921875 260.191406 235.351562 262.144531 233.632812 263.980469 C 230.574219 267.300781 227.109375 270.121094 223.238281 272.441406 C 221.710938 273.375 220.101562 274.136719 218.414062 274.730469 C 217.402344 275.082031 216.363281 275.347656 215.308594 275.535156 C 212.421875 275.992188 209.46875 275.855469 206.558594 275.855469 C 203.789062 275.855469 201.019531 275.855469 198.246094 275.855469 C 191.804688 275.855469 185.363281 275.855469 178.921875 275.851562 Z M 193.519531 180.828125 C 189.746094 181.148438 186.175781 182.3125 183.183594 184.695312 C 182.035156 185.636719 180.988281 186.683594 180.050781 187.835938 C 179.328125 188.714844 178.710938 189.664062 178.195312 190.679688 C 180.519531 190.492188 182.84375 190.492188 185.164062 190.671875 C 190.214844 191.164062 195.8125 193.398438 199.621094 196.796875 C 203.15625 199.953125 206.085938 203.875 207.550781 208.433594 L 208.175781 210.5625 L 208.453125 211.820312 C 208.554688 212.269531 208.625 212.722656 208.664062 213.179688 C 208.878906 214.773438 208.8125 216.335938 208.886719 217.9375 C 211.898438 216.019531 216.183594 215.300781 219.6875 215.898438 C 220.070312 215.964844 220.457031 215.976562 220.835938 216.0625 C 222.699219 216.484375 224.453125 217.175781 226.105469 218.136719 C 228.128906 219.386719 229.859375 220.960938 231.296875 222.859375 C 231.84375 223.519531 232.3125 224.230469 232.699219 224.996094 C 232.8125 225.292969 232.964844 225.5625 233.160156 225.8125 L 235.988281 225.117188 C 235.90625 223.515625 235.730469 221.925781 235.464844 220.34375 C 234.835938 217.230469 233.578125 214.394531 231.699219 211.835938 C 230.652344 210.527344 229.480469 209.34375 228.183594 208.285156 C 227.582031 207.800781 226.945312 207.363281 226.28125 206.96875 C 223.671875 205.351562 220.847656 204.347656 217.804688 203.960938 C 217.226562 203.875 216.660156 203.84375 216.078125 203.8125 C 215.710938 203.824219 215.347656 203.777344 214.996094 203.671875 C 214.628906 203.535156 214.324219 203.320312 214.078125 203.015625 C 213.832031 202.714844 213.679688 202.371094 213.621094 201.988281 C 213.523438 200.769531 213.714844 199.527344 213.613281 198.300781 C 213.378906 195.816406 212.699219 193.460938 211.582031 191.234375 C 210.460938 189.003906 208.980469 187.054688 207.132812 185.386719 C 203.492188 182.113281 198.425781 180.511719 193.582031 180.824219 Z M 181.203125 194.824219 C 176.621094 195.019531 172 196.546875 168.371094 199.421875 C 167.34375 200.238281 166.507812 201.253906 165.488281 202.066406 C 165.828125 202.210938 166.160156 202.375 166.480469 202.558594 C 167.113281 202.933594 167.746094 203.355469 168.355469 203.765625 C 168.542969 203.914062 168.742188 204.050781 168.949219 204.171875 C 169 204.164062 169.046875 204.152344 169.09375 204.128906 C 170.007812 203.917969 170.9375 203.828125 171.878906 203.855469 C 175.59375 203.792969 179.0625 204.695312 182.277344 206.5625 C 183.910156 207.539062 185.371094 208.726562 186.65625 210.128906 C 187.941406 211.53125 189 213.085938 189.828125 214.800781 C 190.214844 215.667969 190.546875 216.554688 190.824219 217.464844 L 191.121094 218.601562 C 191.222656 219.039062 191.292969 219.480469 191.339844 219.925781 C 191.71875 222.480469 191.621094 225.015625 191.039062 227.535156 C 190.886719 228.335938 190.660156 229.113281 190.355469 229.867188 L 199.320312 229.730469 C 200.492188 227.710938 201.558594 225.636719 202.511719 223.503906 C 202.78125 222.910156 203.105469 222.34375 203.480469 221.8125 C 203.65625 221.574219 203.808594 221.320312 203.933594 221.050781 C 204.425781 219.925781 204.519531 218.535156 204.542969 217.328125 C 204.59375 215.375 204.394531 213.445312 203.945312 211.542969 C 202.605469 205.9375 198.71875 200.898438 193.824219 197.953125 C 190.550781 196.019531 187.019531 194.984375 183.226562 194.84375 C 182.550781 194.800781 181.875 194.792969 181.203125 194.824219 Z M 154.730469 204.261719 C 153.269531 204.371094 151.824219 204.597656 150.398438 204.953125 C 146.710938 205.941406 142.882812 208.285156 140.4375 211.246094 C 137.917969 214.277344 136.277344 217.730469 135.511719 221.605469 C 135.414062 222.113281 135.382812 222.640625 135.320312 223.15625 C 135.257812 223.640625 135.15625 224.101562 135.121094 224.59375 L 138.539062 225.507812 C 139.089844 224.292969 139.800781 223.1875 140.675781 222.1875 C 143.941406 218.449219 148.421875 215.441406 153.503906 215.101562 L 153.714844 215.089844 C 155.273438 212.089844 157.453125 209.648438 160.25 207.765625 C 160.78125 207.410156 161.335938 207.074219 161.894531 206.757812 C 162.226562 206.570312 163.191406 206.234375 163.367188 205.957031 C 161.480469 204.953125 159.25 204.46875 157.136719 204.300781 C 156.335938 204.214844 155.535156 204.199219 154.730469 204.261719 Z M 171.605469 208.414062 C 168.105469 208.734375 164.71875 209.765625 161.941406 212 C 161.082031 212.722656 160.300781 213.523438 159.597656 214.398438 C 159.300781 214.714844 159.039062 215.058594 158.820312 215.429688 C 163.730469 216.296875 168.058594 219.234375 170.972656 223.246094 C 171.601562 224.121094 172.136719 225.046875 172.582031 226.027344 C 172.941406 226.8125 173.285156 227.636719 173.574219 228.464844 C 173.707031 228.855469 173.824219 229.570312 174.089844 229.867188 L 174.570312 229.871094 L 185.550781 230.097656 C 185.957031 228.9375 186.46875 227.847656 186.78125 226.65625 C 186.902344 226.121094 186.988281 225.582031 187.042969 225.039062 C 187.445312 222.195312 187.050781 219.464844 185.855469 216.851562 C 185 215.046875 183.832031 213.480469 182.34375 212.148438 C 180.859375 210.820312 179.171875 209.832031 177.289062 209.183594 C 176.054688 208.769531 174.785156 208.527344 173.484375 208.453125 C 172.859375 208.367188 172.234375 208.355469 171.605469 208.414062 Z M 154.324219 219.519531 C 153.324219 219.617188 152.335938 219.792969 151.363281 220.054688 C 149.929688 220.484375 148.597656 221.121094 147.367188 221.96875 C 146.132812 222.8125 145.058594 223.824219 144.140625 225.007812 L 143.113281 226.527344 L 159.179688 228.765625 C 160.328125 228.898438 161.464844 228.929688 162.613281 229.019531 C 163.972656 229.128906 165.34375 229.253906 166.699219 229.378906 C 167.457031 229.453125 168.5 229.660156 169.253906 229.515625 C 167.761719 225.640625 165.132812 222.449219 161.296875 220.738281 C 159.1875 219.804688 156.632812 219.246094 154.324219 219.519531 Z M 216.253906 220.105469 C 215.15625 220.226562 214.078125 220.464844 213.03125 220.816406 C 208.992188 222.1875 206.5 225.898438 204.617188 229.511719 L 216.007812 228.589844 L 228.617188 226.789062 C 226.714844 223.738281 223.785156 221.234375 220.238281 220.421875 C 219.027344 220.144531 217.496094 219.933594 216.253906 220.105469 Z M 244.242188 227.191406 C 241.527344 228.203125 238.757812 229.039062 235.9375 229.699219 C 233.582031 230.292969 231.234375 230.890625 228.839844 231.339844 C 222.347656 232.558594 215.75 233.144531 209.171875 233.660156 C 206.953125 233.835938 204.730469 234.03125 202.507812 234.152344 C 198.933594 234.347656 195.34375 234.410156 191.765625 234.480469 C 189.796875 234.523438 187.832031 234.613281 185.863281 234.601562 C 184.214844 234.59375 182.566406 234.511719 180.921875 234.464844 C 177.726562 234.378906 174.519531 234.304688 171.324219 234.132812 C 169.125 234.011719 166.929688 233.820312 164.734375 233.65625 C 160.046875 233.3125 155.332031 232.960938 150.671875 232.300781 C 145.945312 231.632812 141.175781 230.914062 136.574219 229.605469 C 134.808594 229.105469 133.019531 228.628906 131.285156 228.03125 C 130.816406 227.867188 130.355469 227.6875 129.894531 227.492188 C 129.695312 227.371094 129.480469 227.292969 129.25 227.257812 L 129.308594 227.839844 C 129.324219 228.21875 129.429688 228.582031 129.46875 228.957031 C 129.75 232.011719 130.328125 235.011719 131.203125 237.949219 C 131.410156 238.636719 131.523438 239.359375 131.765625 240.039062 C 132.09375 240.960938 132.300781 241.945312 132.675781 242.851562 L 133.703125 245.550781 C 133.957031 246.238281 134.246094 246.910156 134.574219 247.566406 C 135.679688 250.0625 137.003906 252.433594 138.546875 254.683594 C 141.160156 258.664062 144.300781 262.167969 147.976562 265.1875 C 148.964844 265.988281 150.03125 266.695312 151.085938 267.40625 C 153.339844 268.921875 155.820312 270.296875 158.511719 270.839844 C 160.636719 271.269531 162.804688 271.277344 164.96875 271.28125 C 166.90625 271.289062 168.839844 271.292969 170.777344 271.292969 C 177.242188 271.300781 183.707031 271.300781 190.171875 271.292969 C 195.097656 271.292969 200.027344 271.296875 204.953125 271.296875 C 208.066406 271.300781 211.328125 271.523438 214.410156 271.050781 C 217.285156 270.605469 220.15625 269.175781 222.554688 267.5625 C 231.773438 261.359375 238.195312 251.96875 241.601562 241.445312 C 242.394531 238.898438 243.035156 236.316406 243.519531 233.691406 L 244.449219 227.1875 C 244.300781 227.167969 244.367188 227.164062 244.242188 227.191406 Z M 250.574219 231.535156 L 248.242188 231.671875 C 247.933594 234.304688 247.4375 236.898438 246.761719 239.460938 C 246.109375 241.871094 245.285156 244.179688 244.476562 246.535156 L 247.664062 244.636719 C 250.738281 242.710938 254.511719 239.804688 255.339844 236.058594 C 255.535156 235.183594 255.5 234.035156 255.011719 233.257812 C 254.417969 232.367188 253.59375 231.828125 252.542969 231.640625 C 251.890625 231.535156 251.234375 231.503906 250.574219 231.535156 Z M 121.464844 231.667969 C 120.953125 231.734375 120.46875 231.890625 120.011719 232.140625 L 119.917969 232.195312 C 119.300781 232.597656 118.847656 233.140625 118.558594 233.824219 L 118.519531 233.914062 C 118.234375 234.742188 118.230469 235.574219 118.503906 236.402344 L 118.53125 236.472656 C 118.691406 236.914062 118.871094 237.34375 119.074219 237.765625 C 120.9375 241.324219 124.320312 243.695312 127.722656 245.625 L 129.558594 246.742188 C 128.144531 243.691406 127.226562 240.359375 126.441406 237.09375 C 126.230469 236.207031 126.019531 235.300781 125.855469 234.402344 C 125.785156 234 125.722656 233.597656 125.628906 233.199219 C 125.613281 233.101562 125.59375 233.007812 125.5625 232.917969 C 125.472656 232.847656 125.378906 232.78125 125.277344 232.726562 C 124.863281 232.453125 124.425781 232.230469 123.964844 232.058594 C 123.160156 231.75 122.324219 231.621094 121.464844 231.667969 Z M 121.464844 231.667969 " fill-opacity="1" fill-rule="nonzero"/></g><path fill="#000000" d="M 209.941406 263.839844 C 209.582031 263.914062 209.230469 263.898438 208.878906 263.789062 C 208.25 263.554688 207.804688 263.128906 207.535156 262.511719 C 207.257812 261.890625 207.261719 261.269531 207.550781 260.648438 C 207.753906 260.238281 208.050781 259.914062 208.441406 259.671875 C 208.976562 259.363281 209.636719 259.296875 210.222656 259.109375 C 211.035156 258.847656 211.832031 258.546875 212.625 258.230469 C 213.578125 257.816406 214.488281 257.328125 215.359375 256.761719 C 217.691406 255.3125 219.734375 253.527344 221.484375 251.40625 C 223.234375 249.289062 224.605469 246.945312 225.589844 244.375 C 225.953125 243.457031 226.257812 242.519531 226.496094 241.558594 C 226.664062 240.875 226.722656 240.089844 227.019531 239.453125 C 227.367188 238.707031 227.925781 238.394531 228.664062 238.140625 C 229.109375 238.085938 229.542969 238.132812 229.964844 238.273438 C 230.492188 238.5 230.851562 238.882812 231.046875 239.421875 C 231.085938 239.496094 231.125 239.574219 231.15625 239.652344 C 231.363281 240.324219 231.046875 241.4375 230.878906 242.101562 C 230.253906 244.738281 229.289062 247.246094 227.980469 249.617188 C 226.195312 252.824219 223.914062 255.628906 221.136719 258.023438 C 217.820312 260.769531 214.089844 262.710938 209.941406 263.839844 Z M 209.941406 263.839844 " fill-opacity="1" fill-rule="nonzero"/><path stroke-linecap="butt" transform="matrix(0.214056, -0.718805, 0.718805, 0.214056, 42.805677, 181.093817)" fill="none" stroke-linejoin="miter" d="M 27.111817 38.394179 L 27.115304 38.643121 C 30.201257 38.914269 32.400137 39.965848 33.720442 41.789891 C 35.03926 43.608943 35.695944 46.233825 35.698459 49.673032 C 35.697523 53.830604 34.636659 56.673505 32.520858 58.20025 C 30.398578 59.723489 26.78323 60.484926 21.663343 60.482541 C 13.979264 60.482945 8.160778 60.324496 4.204912 59.99721 L 4.20342 18.604058 C 7.758519 18.279009 12.939591 18.12188 19.748654 18.1212 C 25.264151 18.119897 29.080966 18.874432 31.201117 20.373336 C 33.321268 21.87224 34.379601 24.714444 34.380574 28.914922 C 34.382483 31.914126 33.808181 34.182817 32.665633 35.729491 C 31.533068 37.273193 29.68346 38.160926 27.111817 38.394179 Z M 13.138325 35.523329 L 19.805712 35.521365 C 22.04014 35.524393 23.567912 35.161815 24.390514 34.438624 C 25.208125 33.71692 25.621574 32.294983 25.620876 30.175786 C 25.6206 28.094505 25.17889 26.720723 24.304241 26.046477 C 23.421628 25.363734 21.765081 25.020151 19.319626 25.020188 L 13.138764 24.958783 Z M 13.141172 53.580893 L 20.09839 53.585003 C 22.619675 53.584122 24.319073 53.21391 25.195098 52.469376 C 26.072609 51.729834 26.513677 50.218156 26.516283 47.945814 C 26.515824 45.462443 26.057248 43.794794 25.137582 42.932882 C 24.219403 42.075961 22.460801 41.62691 19.861778 41.585729 L 13.140014 41.587583 Z M 13.141172 53.580893 " stroke="#fff7b3" stroke-width="0.825" stroke-opacity="1" stroke-miterlimit="4"/><path stroke-linecap="butt" transform="matrix(0.397492, -0.636003, 0.636003, 0.397492, 55.310427, 143.933779)" fill="none" stroke-linejoin="miter" d="M 26.645168 49.148321 L 12.419112 49.145954 L 9.418976 60.00041 L 0.057317 59.998097 L 11.997083 21.003556 C 12.162716 20.285851 12.542555 19.704512 13.139361 19.263957 C 13.736167 18.823402 14.414679 18.602025 15.177656 18.604242 L 23.818296 18.602682 C 25.538032 18.602701 26.596917 19.40268 26.997711 21.007036 L 38.93495 59.997427 L 29.632364 60.001188 Z M 24.652782 42.05901 L 21.182534 29.401382 C 20.703901 27.397318 20.425667 26.097161 20.34783 25.500911 L 18.721947 25.503653 C 18.640787 25.904464 18.500551 26.544878 18.294062 27.423239 C 18.099167 28.300495 17.946785 28.960784 17.826978 29.398032 L 14.338781 42.056135 Z M 24.652782 42.05901 " stroke="#fff7b3" stroke-width="0.825" stroke-opacity="1" stroke-miterlimit="4"/><path stroke-linecap="butt" transform="matrix(0.552878, -0.506779, 0.506779, 0.552878, 77.632075, 110.967883)" fill="none" stroke-linejoin="miter" d="M 36.841264 59.99738 L 27.172195 60.001466 L 24.052085 47.341946 C 23.662998 46.02442 23.136984 45.118348 22.470205 44.62021 C 21.806626 44.110874 20.851902 43.857502 19.613394 43.859773 L 13.196567 43.799786 L 13.197299 60.001182 L 4.202674 60.00173 L 4.20418 18.600476 C 7.922897 18.243322 13.182794 18.062419 19.980354 18.061606 C 25.535566 18.059545 29.474116 18.942494 31.788006 20.696056 C 34.109575 22.456656 35.273618 25.657361 35.272456 30.29113 C 35.276053 33.339569 34.660858 35.721899 33.44543 37.440996 C 32.230001 39.160094 30.203493 40.199328 27.362387 40.562538 L 27.363994 40.853689 C 30.517715 41.575405 32.473594 43.65788 33.238671 47.093434 Z M 13.197348 36.784664 L 19.80678 36.780976 C 22.199332 36.783795 23.832963 36.373583 24.711512 35.553861 C 25.600939 34.729978 26.042425 33.184631 26.046526 30.9063 C 26.046788 28.624449 25.618342 27.080084 24.754149 26.280882 C 23.897315 25.48136 22.246706 25.077631 19.802643 25.077053 L 13.199292 25.135772 Z M 13.197348 36.784664 " stroke="#fff7b3" stroke-width="0.825" stroke-opacity="1" stroke-miterlimit="4"/><path stroke-linecap="butt" transform="matrix(0.672679, -0.331666, 0.331666, 0.672679, 107.921124, 84.979682)" fill="none" stroke-linejoin="miter" d="M 39.126427 18.601517 L 39.124511 56.706118 C 39.127436 58.902607 38.041116 59.998762 35.874894 59.999189 L 30.177498 60.000663 C 29.259767 60.001119 28.53885 59.790844 28.02172 59.367469 C 27.506959 58.951069 27.004655 58.262074 26.512503 57.305157 L 15.658401 35.211929 C 14.302818 32.296246 13.459337 30.155686 13.141971 28.797159 L 12.480452 28.796187 C 12.764146 30.800111 12.90452 33.000492 12.903942 35.404306 L 12.908254 59.999084 L 4.203755 59.998684 L 4.203368 21.898755 C 4.205114 19.704569 5.305383 18.603678 7.499569 18.605424 L 13.080504 18.604599 C 13.998236 18.604143 14.719153 18.814418 15.233914 19.230818 C 15.762689 19.654128 16.264994 20.343123 16.740828 21.297802 L 27.24876 42.71514 C 28.24286 44.715105 29.238194 46.936343 30.234761 49.378855 L 30.833379 49.377848 C 30.601749 46.267229 30.481649 43.943283 30.482489 42.422263 L 30.48483 18.603096 Z M 39.126427 18.601517 " stroke="#fff7b3" stroke-width="0.825" stroke-opacity="1" stroke-miterlimit="4"/><path stroke-linecap="butt" transform="matrix(0.738474, -0.130983, 0.130983, 0.738474, 147.589418, 67.446442)" fill="none" stroke-linejoin="miter" d="M 37.732529 18.603352 L 26.515087 57.481369 C 26.317106 58.239697 25.927967 58.853037 25.344361 59.310223 C 24.765884 59.768319 24.079288 60.000942 23.275229 60.001145 L 14.939264 59.998397 C 14.140333 59.99951 13.445693 59.770508 12.860472 59.312302 C 12.286417 58.850787 11.897138 58.242199 11.70471 57.478099 L 0.424782 18.603379 L 9.845702 18.602851 L 17.346101 48.48661 C 17.745683 50.080896 18.081656 51.616294 18.353109 53.097931 L 19.86528 53.101664 C 19.979389 52.339039 20.31563 50.801211 20.874003 48.48818 L 28.316737 18.60479 Z M 37.732529 18.603352 " stroke="#fff7b3" stroke-width="0.825" stroke-opacity="1" stroke-miterlimit="4"/><path stroke-linecap="butt" transform="matrix(0.746729, 0.0699653, -0.0699653, 0.746729, 186.358571, 61.970036)" fill="none" stroke-linejoin="miter" d="M 15.484166 14.22522 L 12.596438 14.223769 C 11.278001 14.221753 10.620276 13.566712 10.622291 12.248275 L 10.619883 8.816869 C 10.621899 7.498432 11.276939 6.840706 12.595377 6.842722 L 15.482619 6.838988 C 16.801057 6.841004 17.459268 7.50123 17.462438 8.819182 L 17.459174 12.245888 C 17.462344 13.563839 16.802118 14.22205 15.484166 14.22522 Z M 26.396117 14.222891 L 23.524432 14.225167 C 22.195623 14.224123 21.532226 13.564382 21.534242 12.245945 L 21.53232 8.819725 C 21.534335 7.501287 22.199747 6.842591 23.522885 6.838935 L 26.395056 6.841844 C 27.713008 6.838674 28.376404 7.498415 28.374389 8.816852 L 28.376797 12.248258 C 28.374781 13.566695 27.714555 14.224906 26.396117 14.222891 Z M 26.644443 49.143674 L 12.421327 49.147608 L 9.420715 60.000898 L 0.0568262 59.999422 L 11.997461 21.007143 C 12.165221 20.28522 12.544612 19.700403 13.141789 19.262576 C 13.73378 18.825235 14.414078 18.60456 15.177495 18.601036 L 23.819451 18.602149 C 25.535397 18.603538 26.599049 19.403635 26.994851 21.003899 L 38.93453 59.997624 L 29.633841 60.000689 Z M 24.651449 42.053886 L 21.179888 29.400685 C 20.704704 27.39983 20.425724 26.097258 20.349106 25.502855 L 18.722288 25.503578 C 18.644644 25.903189 18.50071 26.544412 18.295183 27.421577 C 18.100514 28.302956 17.94248 28.961194 17.826753 29.400991 L 14.34119 42.057383 Z M 24.651449 42.053886 " stroke="#fff7b3" stroke-width="0.825" stroke-opacity="1" stroke-miterlimit="4"/><path stroke-linecap="butt" transform="matrix(0.69689, 0.277207, -0.277207, 0.69689, 226.294662, 67.061247)" fill="none" stroke-linejoin="miter" d="M 39.123371 18.603443 L 39.126737 56.701048 C 39.126393 58.898447 38.041051 60.002803 35.87654 60.000587 L 30.175106 59.998361 C 29.256297 59.999501 28.540027 59.791154 28.024371 59.368482 C 27.505801 58.952574 27.001298 58.262018 26.514711 57.306493 L 15.658085 35.213038 C 14.300945 32.294434 13.461676 30.156357 13.140279 28.798808 L 12.478738 28.798507 C 12.764087 30.798184 12.905906 33.000691 12.904196 35.406027 L 12.906369 60.001039 L 4.205758 59.997899 L 4.202392 21.900294 C 4.202736 19.702895 5.301607 18.604368 7.499006 18.604712 L 13.081484 18.603809 C 14.000293 18.602669 14.716563 18.811015 15.232219 19.233688 C 15.762393 19.650585 16.266896 20.341141 16.743804 21.300516 L 27.246779 42.716278 C 28.244924 44.718288 29.240714 46.939841 30.234148 49.380936 L 30.832829 49.378215 C 30.602812 46.263503 30.482491 43.945945 30.481544 42.421691 L 30.48562 18.603325 Z M 39.123371 18.603443 " stroke="#fff7b3" stroke-width="0.825" stroke-opacity="1" stroke-miterlimit="4"/><path stroke-linecap="butt" transform="matrix(0.600886, 0.448816, -0.448816, 0.600886, 265.310056, 84.650385)" fill="none" stroke-linejoin="miter" d="M 13.198773 18.605358 L 13.200377 49.496048 C 13.199277 50.582506 13.447747 51.359039 13.943674 51.840226 C 14.451064 52.319352 15.283934 52.55537 16.437055 52.558685 L 30.660002 52.557556 L 31.08483 59.514658 C 27.039161 59.955642 21.202259 60.174344 13.56578 60.176998 C 10.361605 60.177973 7.976718 59.378478 6.417353 57.78686 C 4.863216 56.184834 4.087233 54.040592 4.085231 51.357249 L 4.089385 18.603025 Z M 13.198773 18.605358 " stroke="#fff7b3" stroke-width="0.825" stroke-opacity="1" stroke-miterlimit="4"/><path stroke-linecap="butt" transform="matrix(0.509755, 0.550136, -0.550136, 0.509755, 290.221185, 104.78718)" fill="none" stroke-linejoin="miter" d="M 4.202114 18.603273 L 13.316514 18.606149 L 13.316243 60.001917 L 4.201843 59.999041 Z M 4.202114 18.603273 " stroke="#fff7b3" stroke-width="0.825" stroke-opacity="1" stroke-miterlimit="4"/><path stroke-linecap="butt" transform="matrix(0.388227, 0.641701, -0.641701, 0.388227, 305.054077, 120.923195)" fill="none" stroke-linejoin="miter" d="M 35.522366 36.123898 L 35.523282 59.998987 L 28.798178 59.996667 L 27.963912 55.851712 C 24.759477 59.135977 20.783059 60.778339 16.02305 60.777862 C 11.377366 60.779592 8.011667 59.078161 5.934867 55.678962 C 3.862523 52.28246 2.826897 46.779953 2.827054 39.183051 C 2.828991 31.10024 4.192876 25.51542 6.929383 22.441135 C 9.673042 19.365089 14.482467 17.824929 21.359417 17.827805 C 26.357925 17.826476 30.602571 18.306513 34.084441 19.262525 L 33.353257 25.984957 C 28.843198 25.782634 24.949105 25.679037 21.663824 25.675928 C 19.817511 25.678986 18.363683 25.828185 17.301403 26.135134 C 16.244515 26.433171 15.315857 27.082717 14.518124 28.079315 C 13.71324 29.077673 13.175775 30.469138 12.891427 32.257231 C 12.615167 34.031956 12.479504 36.439601 12.479981 39.47747 C 12.481578 44.646585 12.958095 48.185514 13.917508 50.111257 C 14.882314 52.028088 16.665262 52.985017 19.263656 52.986503 C 21.66377 52.983688 24.145943 52.281777 26.70396 50.870921 L 26.703538 36.121049 Z M 35.522366 36.123898 " stroke="#fff7b3" stroke-width="0.825" stroke-opacity="1" stroke-miterlimit="4"/><path stroke-linecap="butt" transform="matrix(0.209177, 0.720239, -0.720239, 0.209177, 324.131556, 155.318311)" fill="none" stroke-linejoin="miter" d="M 34.981364 26.043345 L 22.615937 26.042477 L 22.619123 60.000207 L 13.448073 59.999647 L 13.44989 26.04337 L 1.084463 26.042502 L 1.086793 18.602077 L 34.978692 18.601467 Z M 34.981364 26.043345 " stroke="#fff7b3" stroke-width="0.825" stroke-opacity="1" stroke-miterlimit="4"/><g fill="#000000" fill-opacity="1"><g transform="translate(85.933951, 193.937169)"><g><path d="M -9.71875 -24.125 L -9.53125 -24.078125 C -8.675781 -26.234375 -7.453125 -27.585938 -5.859375 -28.140625 C -4.273438 -28.703125 -2.242188 -28.613281 0.234375 -27.875 C 3.210938 -26.988281 5.019531 -25.613281 5.65625 -23.75 C 6.300781 -21.894531 6.078125 -19.132812 4.984375 -15.46875 C 3.335938 -9.945312 1.976562 -5.800781 0.90625 -3.03125 L -28.84375 -11.890625 C -28.3125 -14.515625 -27.316406 -18.273438 -25.859375 -23.171875 C -24.679688 -27.128906 -23.328125 -29.707031 -21.796875 -30.90625 C -20.265625 -32.101562 -17.992188 -32.253906 -14.984375 -31.359375 C -12.828125 -30.710938 -11.316406 -29.816406 -10.453125 -28.671875 C -9.585938 -27.523438 -9.34375 -26.007812 -9.71875 -24.125 Z M -14.78125 -14.6875 L -13.359375 -19.453125 C -12.878906 -21.078125 -12.8125 -22.257812 -13.15625 -23 C -13.5 -23.75 -14.425781 -24.347656 -15.9375 -24.796875 C -17.4375 -25.242188 -18.523438 -25.222656 -19.203125 -24.734375 C -19.878906 -24.242188 -20.476562 -23.117188 -21 -21.359375 L -22.375 -16.953125 Z M -1.796875 -10.828125 L -0.3125 -15.828125 C 0.226562 -17.628906 0.328125 -18.925781 -0.015625 -19.71875 C -0.367188 -20.507812 -1.363281 -21.148438 -3 -21.640625 C -4.78125 -22.171875 -6.078125 -22.195312 -6.890625 -21.71875 C -7.703125 -21.238281 -8.398438 -20.066406 -8.984375 -18.203125 L -10.421875 -13.390625 Z M -1.796875 -10.828125 "/></g></g></g><g fill="#000000" fill-opacity="1"><g transform="translate(93.470615, 167.783304)"><g><path d="M 3.6875 -21.265625 L -1.96875 -12.203125 L 3.75 -5.984375 L 0.03125 -0.046875 L -20.03125 -23.125 C -20.425781 -23.53125 -20.644531 -24.007812 -20.6875 -24.5625 C -20.726562 -25.113281 -20.597656 -25.628906 -20.296875 -26.109375 L -16.859375 -31.59375 C -16.179688 -32.6875 -15.25 -33.046875 -14.0625 -32.671875 L 15.484375 -24.765625 L 11.78125 -18.859375 Z M -1.59375 -22.8125 L -11.046875 -25.640625 C -12.515625 -26.128906 -13.453125 -26.46875 -13.859375 -26.65625 L -14.5 -25.625 C -14.28125 -25.40625 -13.925781 -25.054688 -13.4375 -24.578125 C -12.957031 -24.109375 -12.609375 -23.75 -12.390625 -23.5 L -5.703125 -16.234375 Z M -1.59375 -22.8125 "/></g></g></g><g fill="#000000" fill-opacity="1"><g transform="translate(108.038836, 144.140591)"><g><path d="M 20.359375 -18.671875 L 15.03125 -13.78125 L 6.875 -19.1875 C 5.988281 -19.71875 5.234375 -19.953125 4.609375 -19.890625 C 3.992188 -19.835938 3.34375 -19.5 2.65625 -18.875 L -0.921875 -15.65625 L 7.296875 -6.6875 L 2.328125 -2.125 L -18.65625 -25.015625 C -16.78125 -27.097656 -13.960938 -29.863281 -10.203125 -33.3125 C -7.128906 -36.125 -4.503906 -37.628906 -2.328125 -37.828125 C -0.160156 -38.035156 2.09375 -36.859375 4.4375 -34.296875 C 5.976562 -32.617188 6.847656 -30.992188 7.046875 -29.421875 C 7.253906 -27.859375 6.664062 -26.253906 5.28125 -24.609375 L 5.421875 -24.4375 C 7.535156 -25.644531 9.679688 -25.488281 11.859375 -23.96875 Z M -4.46875 -19.53125 L -0.828125 -22.875 C 0.503906 -24.09375 1.203125 -25.148438 1.265625 -26.046875 C 1.335938 -26.953125 0.796875 -28.035156 -0.359375 -29.296875 C -1.515625 -30.554688 -2.53125 -31.1875 -3.40625 -31.1875 C -4.28125 -31.1875 -5.394531 -30.566406 -6.75 -29.328125 L -10.359375 -25.953125 Z M -4.46875 -19.53125 "/></g></g></g><g fill="#000000" fill-opacity="1"><g transform="translate(127.821095, 125.340441)"><g><path d="M 12.578125 -40.8125 L 25.21875 -15.1875 C 25.945312 -13.707031 25.582031 -12.609375 24.125 -11.890625 L 20.3125 -10.015625 C 19.6875 -9.703125 19.128906 -9.597656 18.640625 -9.703125 C 18.148438 -9.816406 17.585938 -10.125 16.953125 -10.625 L 2.3125 -21.859375 C 0.4375 -23.378906 -0.832031 -24.546875 -1.5 -25.359375 L -1.953125 -25.140625 C -1.109375 -23.878906 -0.285156 -22.441406 0.515625 -20.828125 L 8.671875 -4.28125 L 2.828125 -1.390625 L -9.8125 -27.015625 C -10.539062 -28.492188 -10.164062 -29.597656 -8.6875 -30.328125 L -4.9375 -32.1875 C -4.320312 -32.488281 -3.765625 -32.582031 -3.265625 -32.46875 C -2.773438 -32.363281 -2.210938 -32.070312 -1.578125 -31.59375 L 12.59375 -20.65625 C 13.9375 -19.632812 15.34375 -18.472656 16.8125 -17.171875 L 17.203125 -17.359375 C 16.015625 -19.378906 15.171875 -20.90625 14.671875 -21.9375 L 6.765625 -37.953125 Z M 12.578125 -40.8125 "/></g></g></g><g fill="#000000" fill-opacity="1"><g transform="translate(155.448427, 111.754856)"><g><path d="M 22.453125 -35.5 L 19.25 -5.328125 C 19.207031 -4.742188 19 -4.242188 18.625 -3.828125 C 18.257812 -3.410156 17.78125 -3.148438 17.1875 -3.046875 L 11.03125 -1.953125 C 10.445312 -1.847656 9.90625 -1.925781 9.40625 -2.1875 C 8.914062 -2.457031 8.550781 -2.859375 8.3125 -3.390625 L -5.109375 -30.609375 L 1.84375 -31.84375 L 11.28125 -10.765625 C 11.800781 -9.640625 12.253906 -8.550781 12.640625 -7.5 L 13.75 -7.6875 C 13.75 -8.269531 13.800781 -9.453125 13.90625 -11.234375 L 15.484375 -34.265625 Z M 22.453125 -35.5 "/></g></g></g><g fill="#000000" fill-opacity="1"><g transform="translate(182.160651, 106.7738)"><g><path d="M 14.765625 -33.09375 L 12.609375 -33.296875 C 11.628906 -33.378906 11.1875 -33.914062 11.28125 -34.90625 L 11.515625 -37.46875 C 11.609375 -38.457031 12.144531 -38.910156 13.125 -38.828125 L 15.28125 -38.625 C 16.257812 -38.53125 16.703125 -37.988281 16.609375 -37 L 16.375 -34.4375 C 16.28125 -33.445312 15.742188 -33 14.765625 -33.09375 Z M 22.90625 -32.328125 L 20.765625 -32.53125 C 19.773438 -32.625 19.328125 -33.164062 19.421875 -34.15625 L 19.65625 -36.71875 C 19.75 -37.707031 20.289062 -38.15625 21.28125 -38.0625 L 23.421875 -37.859375 C 24.410156 -37.765625 24.859375 -37.222656 24.765625 -36.234375 L 24.53125 -33.671875 C 24.4375 -32.679688 23.894531 -32.234375 22.90625 -32.328125 Z M 20.65625 -6.25 L 10.03125 -7.234375 L 7.03125 0.65625 L 0.046875 0 L 11.6875 -28.28125 C 11.851562 -28.8125 12.175781 -29.21875 12.65625 -29.5 C 13.132812 -29.78125 13.660156 -29.894531 14.234375 -29.84375 L 20.671875 -29.234375 C 21.953125 -29.117188 22.691406 -28.453125 22.890625 -27.234375 L 29.078125 2.71875 L 22.140625 2.078125 Z M 19.671875 -11.671875 L 17.96875 -21.375 C 17.738281 -22.894531 17.613281 -23.882812 17.59375 -24.34375 L 16.390625 -24.453125 C 16.304688 -24.160156 16.15625 -23.6875 15.9375 -23.03125 C 15.726562 -22.382812 15.5625 -21.910156 15.4375 -21.609375 L 11.953125 -12.390625 Z M 19.671875 -11.671875 "/></g></g></g><g fill="#000000" fill-opacity="1"><g transform="translate(209.662216, 108.874659)"><g><path d="M 38.734375 -18 L 28.171875 8.546875 C 27.566406 10.078125 26.507812 10.539062 25 9.9375 L 21.03125 8.375 C 20.382812 8.113281 19.9375 7.765625 19.6875 7.328125 C 19.445312 6.890625 19.296875 6.265625 19.234375 5.453125 L 17.78125 -12.921875 C 17.644531 -15.335938 17.65625 -17.066406 17.8125 -18.109375 L 17.359375 -18.296875 C 16.984375 -16.816406 16.460938 -15.238281 15.796875 -13.5625 L 8.984375 3.578125 L 2.9375 1.171875 L 13.5 -25.375 C 14.101562 -26.90625 15.171875 -27.367188 16.703125 -26.765625 L 20.59375 -25.21875 C 21.226562 -24.957031 21.671875 -24.613281 21.921875 -24.1875 C 22.171875 -23.757812 22.332031 -23.140625 22.40625 -22.328125 L 23.765625 -4.484375 C 23.910156 -2.804688 23.992188 -0.984375 24.015625 0.984375 L 24.421875 1.140625 C 25.117188 -1.085938 25.679688 -2.734375 26.109375 -3.796875 L 32.703125 -20.390625 Z M 38.734375 -18 "/></g></g></g><g fill="#000000" fill-opacity="1"><g transform="translate(238.381078, 120.703539)"><g><path d="M 26.515625 -18.953125 L 12.65625 -0.390625 C 12.164062 0.265625 11.960938 0.847656 12.046875 1.359375 C 12.140625 1.867188 12.53125 2.382812 13.21875 2.90625 L 21.765625 9.296875 L 18.890625 13.671875 C 16.265625 12.117188 12.660156 9.628906 8.078125 6.203125 C 6.140625 4.753906 5.0625 3.195312 4.84375 1.53125 C 4.632812 -0.125 5.128906 -1.753906 6.328125 -3.359375 L 21.03125 -23.046875 Z M 26.515625 -18.953125 "/></g></g></g><g fill="#000000" fill-opacity="1"><g transform="translate(257.21303, 135.372498)"><g><path d="M 6.78125 7.328125 L 2.140625 2.3125 L 24.90625 -18.796875 L 29.546875 -13.78125 Z M 6.78125 7.328125 "/></g></g></g><g fill="#000000" fill-opacity="1"><g transform="translate(266.552019, 144.216788)"><g><path d="M 29.125 13.53125 L 13.796875 22.796875 L 11.171875 18.46875 L 13.515625 16.328125 C 10.171875 15.546875 7.570312 13.628906 5.71875 10.578125 C 3.914062 7.597656 3.703125 4.78125 5.078125 2.125 C 6.453125 -0.519531 9.578125 -3.316406 14.453125 -6.265625 C 19.640625 -9.398438 23.753906 -10.6875 26.796875 -10.125 C 29.835938 -9.570312 32.695312 -7.085938 35.375 -2.671875 C 37.3125 0.535156 38.648438 3.445312 39.390625 6.0625 L 34.78125 8.203125 C 33.144531 5.222656 31.691406 2.679688 30.421875 0.578125 C 29.703125 -0.609375 29.039062 -1.476562 28.4375 -2.03125 C 27.84375 -2.59375 27.066406 -2.9375 26.109375 -3.0625 C 25.160156 -3.195312 24.0625 -3.007812 22.8125 -2.5 C 21.5625 -1.988281 19.960938 -1.144531 18.015625 0.03125 C 14.691406 2.039062 12.597656 3.726562 11.734375 5.09375 C 10.878906 6.457031 10.957031 7.972656 11.96875 9.640625 C 12.90625 11.179688 14.328125 12.5 16.234375 13.59375 L 25.703125 7.875 Z M 29.125 13.53125 "/></g></g></g><g fill="#000000" fill-opacity="1"><g transform="translate(280.917188, 167.868928)"><g><path d="M 31.765625 18.078125 L 29.1875 9.1875 L 4.734375 16.296875 L 2.8125 9.671875 L 27.265625 2.5625 L 24.6875 -6.328125 L 30.046875 -7.875 L 37.125 16.53125 Z M 31.765625 18.078125 "/></g></g></g></svg>