<svg xmlns="http://www.w3.org/2000/svg" xmlns:xlink="http://www.w3.org/1999/xlink" width="500" zoomAndPan="magnify" viewBox="0 0 375 374.999991" height="500" preserveAspectRatio="xMidYMid meet" version="1.0"><defs><g/><clipPath id="824dbb1dda"><path d="M 45.238281 45.238281 L 329.761719 45.238281 L 329.761719 329.761719 L 45.238281 329.761719 Z M 45.238281 45.238281 " clip-rule="nonzero"/></clipPath><clipPath id="6acc24f5ab"><path d="M 187.5 45.238281 C 108.929688 45.238281 45.238281 108.929688 45.238281 187.5 C 45.238281 266.070312 108.929688 329.761719 187.5 329.761719 C 266.070312 329.761719 329.761719 266.070312 329.761719 187.5 C 329.761719 108.929688 266.070312 45.238281 187.5 45.238281 Z M 187.5 45.238281 " clip-rule="nonzero"/></clipPath><clipPath id="4479211e15"><path d="M 118.132812 174 L 255.382812 174 L 255.382812 284.8125 L 118.132812 284.8125 Z M 118.132812 174 " clip-rule="nonzero"/></clipPath></defs><g clip-path="url(#824dbb1dda)"><g clip-path="url(#6acc24f5ab)"><path fill="#cfff00" d="M 45.238281 45.238281 L 329.761719 45.238281 L 329.761719 329.761719 L 45.238281 329.761719 Z M 45.238281 45.238281 " fill-opacity="1" fill-rule="nonzero"/></g></g><g clip-path="url(#4479211e15)"><path fill="#000000" d="M 248.671875 240.863281 C 244.894531 237.339844 239.6875 234.230469 233.175781 231.609375 L 233.175781 214.175781 C 233.175781 213.746094 233.054688 213.328125 232.824219 212.972656 L 220.199219 193.351562 C 220.410156 192.207031 220.527344 190.886719 220.527344 189.371094 C 220.527344 183.507812 215.769531 178.738281 209.921875 178.738281 C 209.226562 178.738281 208.546875 178.804688 207.890625 178.933594 C 205.488281 175.21875 201.902344 173.820312 197.632812 174.984375 C 196.453125 175.304688 195.753906 176.527344 196.078125 177.710938 C 196.398438 178.890625 197.613281 179.589844 198.792969 179.269531 C 200.382812 178.835938 202.164062 178.730469 203.746094 180.734375 C 201.066406 182.667969 199.320312 185.820312 199.320312 189.371094 C 199.320312 189.6875 199.34375 190 199.382812 190.308594 L 141.769531 212.097656 C 140.90625 212.421875 140.335938 213.25 140.335938 214.175781 L 140.335938 231.609375 C 133.828125 234.230469 128.621094 237.339844 124.84375 240.863281 C 120.398438 245.003906 118.148438 249.515625 118.148438 254.265625 C 118.148438 262.78125 125.53125 270.621094 138.941406 276.34375 C 151.75 281.808594 168.730469 284.820312 186.757812 284.820312 C 204.78125 284.820312 221.765625 281.808594 234.574219 276.34375 C 247.980469 270.621094 255.367188 262.78125 255.367188 254.265625 C 255.367188 249.515625 253.113281 245.003906 248.671875 240.863281 Z M 228.75 216.394531 L 228.75 218.316406 C 227.558594 218.914062 226.691406 219.664062 225.953125 220.304688 C 224.699219 221.394531 223.867188 222.117188 221.65625 222.117188 C 219.542969 222.117188 218.570312 221.316406 217.222656 220.207031 C 215.644531 218.90625 213.679688 217.289062 209.984375 217.289062 C 206.289062 217.289062 204.320312 218.90625 202.742188 220.207031 C 201.394531 221.316406 200.421875 222.117188 198.308594 222.117188 C 196.199219 222.117188 195.226562 221.316406 193.878906 220.207031 C 192.296875 218.90625 190.332031 217.289062 186.636719 217.289062 C 182.941406 217.289062 180.976562 218.90625 179.398438 220.207031 C 178.050781 221.316406 177.078125 222.117188 174.964844 222.117188 C 172.851562 222.117188 171.878906 221.316406 170.53125 220.207031 C 168.953125 218.90625 166.988281 217.289062 163.292969 217.289062 C 159.597656 217.289062 157.632812 218.90625 156.050781 220.207031 C 154.707031 221.316406 153.730469 222.117188 151.621094 222.117188 C 149.441406 222.117188 148.613281 221.402344 147.363281 220.320312 C 146.667969 219.71875 145.855469 219.015625 144.765625 218.4375 L 144.765625 216.394531 Z M 228.75 239.773438 C 227.558594 240.367188 226.691406 241.121094 225.953125 241.761719 C 224.699219 242.851562 223.867188 243.570312 221.65625 243.570312 C 219.542969 243.570312 218.570312 242.769531 217.222656 241.664062 C 215.644531 240.363281 213.679688 238.746094 209.984375 238.746094 C 206.289062 238.746094 204.320312 240.363281 202.742188 241.664062 C 201.394531 242.769531 200.421875 243.570312 198.308594 243.570312 C 196.199219 243.570312 195.226562 242.769531 193.878906 241.664062 C 192.296875 240.363281 190.332031 238.746094 186.636719 238.746094 C 182.941406 238.746094 180.976562 240.363281 179.398438 241.664062 C 178.050781 242.769531 177.078125 243.570312 174.964844 243.570312 C 172.851562 243.570312 171.878906 242.769531 170.53125 241.664062 C 168.953125 240.363281 166.988281 238.746094 163.292969 238.746094 C 159.597656 238.746094 157.632812 240.363281 156.050781 241.664062 C 154.707031 242.769531 153.730469 243.570312 151.621094 243.570312 C 149.394531 243.570312 148.585938 242.863281 147.359375 241.789062 C 146.671875 241.183594 145.863281 240.476562 144.765625 239.894531 L 144.765625 237.566406 L 228.75 237.566406 Z M 144.761719 245.40625 C 146.179688 246.632812 148.007812 248.011719 151.621094 248.011719 C 155.316406 248.011719 157.28125 246.394531 158.859375 245.09375 C 160.207031 243.988281 161.179688 243.1875 163.292969 243.1875 C 165.402344 243.1875 166.378906 243.988281 167.726562 245.09375 C 169.304688 246.394531 171.269531 248.011719 174.964844 248.011719 C 178.660156 248.011719 180.625 246.394531 182.203125 245.09375 C 183.550781 243.988281 184.527344 243.1875 186.636719 243.1875 C 188.75 243.1875 189.722656 243.988281 191.070312 245.09375 C 192.648438 246.394531 194.613281 248.011719 198.308594 248.011719 C 202.003906 248.011719 203.972656 246.394531 205.550781 245.09375 C 206.898438 243.988281 207.871094 243.1875 209.984375 243.1875 C 212.09375 243.1875 213.066406 243.988281 214.414062 245.09375 C 215.996094 246.394531 217.960938 248.011719 221.65625 248.011719 C 225.433594 248.011719 227.28125 246.476562 228.75 245.203125 L 228.75 254.296875 L 144.761719 254.296875 Z M 144.761719 223.933594 C 146.199219 225.160156 148.042969 226.554688 151.621094 226.554688 C 155.316406 226.554688 157.28125 224.9375 158.859375 223.640625 C 160.207031 222.53125 161.179688 221.730469 163.292969 221.730469 C 165.402344 221.730469 166.378906 222.53125 167.726562 223.640625 C 169.304688 224.9375 171.269531 226.554688 174.964844 226.554688 C 178.660156 226.554688 180.625 224.9375 182.203125 223.640625 C 183.550781 222.53125 184.527344 221.730469 186.636719 221.730469 C 188.75 221.730469 189.722656 222.53125 191.070312 223.640625 C 192.648438 224.9375 194.613281 226.554688 198.308594 226.554688 C 202.003906 226.554688 203.972656 224.9375 205.550781 223.640625 C 206.898438 222.53125 207.871094 221.730469 209.984375 221.730469 C 212.09375 221.730469 213.066406 222.53125 214.414062 223.640625 C 215.996094 224.9375 217.960938 226.554688 221.65625 226.554688 C 225.433594 226.554688 227.28125 225.023438 228.75 223.75 L 228.75 233.125 L 144.761719 233.125 Z M 142.550781 258.734375 L 230.964844 258.734375 C 232.1875 258.734375 233.175781 257.742188 233.175781 256.515625 L 233.175781 244.683594 C 239.234375 247.621094 242.640625 251.035156 242.640625 254.265625 C 242.640625 262.679688 219.691406 272.054688 186.757812 272.054688 C 153.824219 272.054688 130.875 262.679688 130.875 254.265625 C 130.875 251.035156 134.28125 247.621094 140.335938 244.683594 L 140.335938 256.515625 C 140.335938 257.742188 141.328125 258.734375 142.550781 258.734375 Z M 209.921875 183.175781 C 213.328125 183.175781 216.101562 185.957031 216.101562 189.375 C 216.101562 196.324219 213.523438 196.324219 212.550781 196.324219 C 208.996094 196.324219 203.746094 192.664062 203.746094 189.375 C 203.746094 185.957031 206.515625 183.175781 209.921875 183.175781 Z M 212.550781 200.761719 C 214.183594 200.761719 216.417969 200.316406 218.105469 198.285156 L 226.902344 211.953125 L 154.695312 211.953125 L 201.039062 194.429688 C 203.570312 198.105469 208.445312 200.761719 212.550781 200.761719 Z M 232.839844 272.257812 C 220.566406 277.496094 204.203125 280.378906 186.757812 280.378906 C 169.3125 280.378906 152.945312 277.496094 140.675781 272.257812 C 129.171875 267.347656 122.574219 260.789062 122.574219 254.265625 C 122.574219 247.730469 129.003906 241.320312 140.335938 236.417969 L 140.335938 239.804688 C 131.242188 243.75 126.445312 248.730469 126.445312 254.265625 C 126.445312 260.632812 133.019531 266.402344 144.957031 270.511719 C 156.15625 274.371094 171 276.492188 186.757812 276.492188 C 202.511719 276.492188 217.359375 274.371094 228.554688 270.511719 C 240.492188 266.402344 247.066406 260.632812 247.066406 254.265625 C 247.066406 248.730469 242.269531 243.75 233.175781 239.804688 L 233.175781 236.417969 C 244.511719 241.320312 250.941406 247.730469 250.941406 254.265625 C 250.941406 260.789062 244.34375 267.347656 232.839844 272.257812 Z M 232.839844 272.257812 " fill-opacity="1" fill-rule="nonzero"/></g><g fill="#000000" fill-opacity="1"><g transform="translate(140.849817, 167.203188)"><g><path d="M 14.3125 -31.6875 L 3.765625 -28.234375 C 2.929688 -27.960938 2.390625 -27.59375 2.140625 -27.125 C 1.898438 -26.664062 1.90625 -26.054688 2.15625 -25.296875 L 3.8125 -20.25 L 15.109375 -23.953125 L 16.671875 -19.1875 L 5.375 -15.484375 L 9.4375 -3.09375 L 2.90625 -0.953125 L -4.796875 -24.46875 C -5.421875 -26.351562 -5.320312 -28.039062 -4.5 -29.53125 C -3.675781 -31.019531 -2.28125 -32.085938 -0.3125 -32.734375 C 5.957031 -34.785156 10.425781 -36.066406 13.09375 -36.578125 Z M 14.3125 -31.6875 "/></g></g></g><g fill="#000000" fill-opacity="1"><g transform="translate(164.743013, 159.918373)"><g><path d="M 9.890625 -1.40625 L 3.125 -0.4375 L -1.25 -31.171875 L 5.515625 -32.140625 Z M 9.890625 -1.40625 "/></g></g></g><g fill="#000000" fill-opacity="1"><g transform="translate(177.57447, 157.351914)"><g><path d="M 12.953125 -13.09375 L 10.296875 -13.21875 C 10.453125 -12 10.507812 -11 10.46875 -10.21875 L 9.96875 0.46875 L 3.15625 0.15625 L 4.625 -30.859375 L 11.4375 -30.546875 L 11.015625 -21.78125 C 10.953125 -20.46875 10.789062 -19.242188 10.53125 -18.109375 L 13.1875 -17.984375 L 21.65625 -30.0625 L 29.0625 -29.703125 L 20.5 -17.734375 C 19.9375 -16.859375 19.144531 -16.066406 18.125 -15.359375 L 18.125 -15.171875 C 19.15625 -14.367188 19.976562 -13.414062 20.59375 -12.3125 L 28.140625 1.328125 L 20.5 0.96875 Z M 12.953125 -13.09375 "/></g></g></g><g fill="#000000" fill-opacity="1"><g transform="translate(204.77274, 158.43761)"><g><path d="M 21.5 -1.875 L 11.296875 -5.03125 L 6.75 2.078125 L 0.046875 0.015625 L 17.234375 -25.296875 C 17.515625 -25.765625 17.914062 -26.085938 18.4375 -26.265625 C 18.96875 -26.453125 19.503906 -26.460938 20.046875 -26.296875 L 26.234375 -24.375 C 27.460938 -24 28.046875 -23.195312 27.984375 -21.96875 L 27.90625 8.625 L 21.25 6.5625 Z M 21.640625 -7.390625 L 21.96875 -17.234375 C 22.050781 -18.773438 22.128906 -19.769531 22.203125 -20.21875 L 21.0625 -20.578125 C 20.90625 -20.296875 20.65625 -19.863281 20.3125 -19.28125 C 19.976562 -18.695312 19.722656 -18.265625 19.546875 -17.984375 L 14.234375 -9.6875 Z M 21.640625 -7.390625 "/></g></g></g><g fill="#000000" fill-opacity="1"><g transform="translate(90.380294, 161.339859)"><g><path d="M 9.171875 -22.609375 L 13.5 -20 C 12.125 -17.507812 9.503906 -13.476562 5.640625 -7.90625 C 4.460938 -6.207031 3.0625 -5.171875 1.4375 -4.796875 C -0.175781 -4.429688 -1.785156 -4.78125 -3.390625 -5.84375 L -18.84375 -16.578125 C -20.40625 -17.691406 -21.296875 -19.070312 -21.515625 -20.71875 C -21.742188 -22.375 -21.269531 -24.050781 -20.09375 -25.75 C -16.226562 -31.320312 -13.363281 -35.1875 -11.5 -37.34375 L -7.5 -34.1875 L -14.3125 -24.390625 C -14.738281 -23.765625 -14.894531 -23.210938 -14.78125 -22.734375 C -14.675781 -22.265625 -14.289062 -21.800781 -13.625 -21.34375 L -9.734375 -18.640625 L -2.671875 -28.796875 L 1.375 -25.984375 L -5.6875 -15.828125 L -0.75 -12.40625 C -0.0703125 -11.9375 0.503906 -11.726562 0.984375 -11.78125 C 1.472656 -11.84375 1.929688 -12.1875 2.359375 -12.8125 Z M 9.171875 -22.609375 "/></g></g></g><g fill="#000000" fill-opacity="1"><g transform="translate(104.69595, 140.648757)"><g><path d="M 0.078125 -34.78125 L -8.125 -27.296875 C -8.78125 -26.710938 -9.125 -26.15625 -9.15625 -25.625 C -9.1875 -25.101562 -8.929688 -24.546875 -8.390625 -23.953125 L -4.8125 -20.03125 L 3.984375 -28.046875 L 7.359375 -24.34375 L -1.4375 -16.328125 L 7.34375 -6.6875 L 2.265625 -2.0625 L -14.40625 -20.359375 C -15.738281 -21.816406 -16.332031 -23.394531 -16.1875 -25.09375 C -16.039062 -26.789062 -15.203125 -28.335938 -13.671875 -29.734375 C -8.796875 -34.171875 -5.253906 -37.175781 -3.046875 -38.75 Z M 0.078125 -34.78125 "/></g></g></g><g fill="#000000" fill-opacity="1"><g transform="translate(122.381182, 124.245026)"><g><path d="M 10.5 -35.03125 L 2.40625 -30.515625 L 14.8125 -8.265625 L 8.796875 -4.90625 L -3.609375 -27.15625 L -11.703125 -22.640625 L -14.421875 -27.5 L 7.78125 -39.890625 Z M 10.5 -35.03125 "/></g></g></g><g fill="#000000" fill-opacity="1"><g transform="translate(145.200573, 111.473918)"><g><path d="M 21.46875 -11.609375 L 23.140625 -6.84375 C 20.492188 -5.78125 15.910156 -4.332031 9.390625 -2.5 C 7.390625 -1.9375 5.644531 -2.03125 4.15625 -2.78125 C 2.675781 -3.53125 1.660156 -4.828125 1.109375 -6.671875 L -4 -24.78125 C -4.488281 -26.632812 -4.296875 -28.269531 -3.421875 -29.6875 C -2.546875 -31.101562 -1.109375 -32.09375 0.890625 -32.65625 C 7.410156 -34.488281 12.070312 -35.644531 14.875 -36.125 L 15.953125 -31.140625 L 4.453125 -27.90625 C 3.734375 -27.707031 3.265625 -27.390625 3.046875 -26.953125 C 2.835938 -26.515625 2.84375 -25.910156 3.0625 -25.140625 L 4.359375 -20.578125 L 16.265625 -23.921875 L 17.59375 -19.171875 L 5.6875 -15.828125 L 7.328125 -10.0625 C 7.546875 -9.257812 7.859375 -8.726562 8.265625 -8.46875 C 8.679688 -8.207031 9.25 -8.175781 9.96875 -8.375 Z M 21.46875 -11.609375 "/></g></g></g><g fill="#000000" fill-opacity="1"><g transform="translate(169.117735, 104.417591)"><g><path d="M 27.609375 -0.921875 L 20.375 -0.6875 L 17.71875 -10.109375 C 17.382812 -11.085938 16.960938 -11.753906 16.453125 -12.109375 C 15.941406 -12.460938 15.222656 -12.625 14.296875 -12.59375 L 9.5 -12.484375 L 9.90625 -0.328125 L 3.15625 -0.109375 L 2.125 -31.140625 C 4.894531 -31.503906 8.828125 -31.769531 13.921875 -31.9375 C 18.085938 -32.070312 21.0625 -31.507812 22.84375 -30.25 C 24.625 -28.988281 25.570312 -26.617188 25.6875 -23.140625 C 25.769531 -20.859375 25.375 -19.054688 24.5 -17.734375 C 23.632812 -16.421875 22.140625 -15.59375 20.015625 -15.25 L 20.015625 -15.03125 C 22.410156 -14.570312 23.9375 -13.0625 24.59375 -10.5 Z M 9.328125 -17.734375 L 14.25 -17.90625 C 16.050781 -17.957031 17.269531 -18.300781 17.90625 -18.9375 C 18.550781 -19.582031 18.84375 -20.757812 18.78125 -22.46875 C 18.726562 -24.175781 18.367188 -25.316406 17.703125 -25.890625 C 17.035156 -26.472656 15.785156 -26.734375 13.953125 -26.671875 L 9.03125 -26.453125 Z M 9.328125 -17.734375 "/></g></g></g><g fill="#000000" fill-opacity="1"><g transform="translate(196.835708, 103.33918)"><g><path d="M 26.953125 6.03125 L 19.90625 4.453125 L 19.6875 -5.328125 C 19.601562 -6.359375 19.359375 -7.109375 18.953125 -7.578125 C 18.554688 -8.054688 17.90625 -8.394531 17 -8.59375 L 12.328125 -9.703125 L 9.671875 2.15625 L 3.078125 0.6875 L 9.859375 -29.609375 C 12.628906 -29.265625 16.503906 -28.535156 21.484375 -27.421875 C 25.546875 -26.515625 28.28125 -25.226562 29.6875 -23.5625 C 31.101562 -21.90625 31.429688 -19.378906 30.671875 -15.984375 C 30.171875 -13.753906 29.332031 -12.109375 28.15625 -11.046875 C 26.988281 -9.984375 25.335938 -9.554688 23.203125 -9.765625 L 23.140625 -9.546875 C 25.347656 -8.492188 26.453125 -6.644531 26.453125 -4 Z M 13.46875 -14.84375 L 18.28125 -13.765625 C 20.039062 -13.367188 21.3125 -13.394531 22.09375 -13.84375 C 22.875 -14.300781 23.453125 -15.363281 23.828125 -17.03125 C 24.203125 -18.695312 24.140625 -19.894531 23.640625 -20.625 C 23.140625 -21.351562 21.992188 -21.921875 20.203125 -22.328125 L 15.375 -23.359375 Z M 13.46875 -14.84375 "/></g></g></g><g fill="#000000" fill-opacity="1"><g transform="translate(223.927245, 109.217353)"><g><path d="M 26.015625 -25.234375 L 24.09375 -26.21875 C 23.21875 -26.664062 23.003906 -27.332031 23.453125 -28.21875 L 24.640625 -30.515625 C 25.085938 -31.390625 25.75 -31.601562 26.625 -31.15625 L 28.546875 -30.171875 C 29.421875 -29.710938 29.632812 -29.046875 29.1875 -28.171875 L 28 -25.875 C 27.550781 -24.988281 26.890625 -24.773438 26.015625 -25.234375 Z M 33.296875 -21.484375 L 31.375 -22.46875 C 30.5 -22.925781 30.285156 -23.597656 30.734375 -24.484375 L 31.921875 -26.78125 C 32.367188 -27.65625 33.03125 -27.863281 33.90625 -27.40625 L 35.828125 -26.421875 C 36.710938 -25.972656 36.929688 -25.3125 36.484375 -24.4375 L 35.296875 -22.140625 C 34.847656 -21.253906 34.179688 -21.035156 33.296875 -21.484375 Z M 21.5 1.890625 L 12 -2.984375 L 6.28125 3.234375 L 0.046875 0.015625 L 21.359375 -21.90625 C 21.722656 -22.320312 22.179688 -22.570312 22.734375 -22.65625 C 23.285156 -22.75 23.8125 -22.664062 24.3125 -22.40625 L 30.078125 -19.453125 C 31.222656 -18.859375 31.65625 -17.960938 31.375 -16.765625 L 25.96875 13.34375 L 19.78125 10.15625 Z M 22.59375 -3.515625 L 24.625 -13.15625 C 24.976562 -14.65625 25.234375 -15.617188 25.390625 -16.046875 L 24.328125 -16.59375 C 24.117188 -16.351562 23.796875 -15.972656 23.359375 -15.453125 C 22.929688 -14.929688 22.601562 -14.550781 22.375 -14.3125 L 15.703125 -7.0625 Z M 22.59375 -3.515625 "/></g></g></g><g fill="#000000" fill-opacity="1"><g transform="translate(248.955152, 122.069996)"><g><path d="M 36.53125 -1.796875 L 29.5625 -7.921875 L 12.734375 11.203125 L 7.5625 6.65625 L 24.390625 -12.46875 L 17.4375 -18.59375 L 21.125 -22.78125 L 40.21875 -5.984375 Z M 36.53125 -1.796875 "/></g></g></g><g fill="#000000" fill-opacity="1"><g transform="translate(268.615614, 139.215469)"><g><path d="M 35.90625 6.875 L 30.59375 -0.703125 L 9.734375 13.90625 L 5.78125 8.25 L 26.640625 -6.359375 L 21.328125 -13.9375 L 25.90625 -17.140625 L 40.484375 3.671875 Z M 35.90625 6.875 "/></g></g></g></svg>