<svg xmlns="http://www.w3.org/2000/svg" xmlns:xlink="http://www.w3.org/1999/xlink" width="500" zoomAndPan="magnify" viewBox="0 0 375 374.999991" height="500" preserveAspectRatio="xMidYMid meet" version="1.0"><defs><g/><clipPath id="2d57bb4ffc"><path d="M 45.238281 45.238281 L 329.761719 45.238281 L 329.761719 329.761719 L 45.238281 329.761719 Z M 45.238281 45.238281 " clip-rule="nonzero"/></clipPath><clipPath id="601aae9c12"><path d="M 187.5 45.238281 C 108.929688 45.238281 45.238281 108.929688 45.238281 187.5 C 45.238281 266.070312 108.929688 329.761719 187.5 329.761719 C 266.070312 329.761719 329.761719 266.070312 329.761719 187.5 C 329.761719 108.929688 266.070312 45.238281 187.5 45.238281 Z M 187.5 45.238281 " clip-rule="nonzero"/></clipPath><clipPath id="f223ae1d93"><path d="M 108.792969 151 L 266.292969 151 L 266.292969 247.597656 L 108.792969 247.597656 Z M 108.792969 151 " clip-rule="nonzero"/></clipPath></defs><g clip-path="url(#2d57bb4ffc)"><g clip-path="url(#601aae9c12)"><path fill="#cfff00" d="M 45.238281 45.238281 L 329.761719 45.238281 L 329.761719 329.761719 L 45.238281 329.761719 Z M 45.238281 45.238281 " fill-opacity="1" fill-rule="nonzero"/></g></g><g clip-path="url(#f223ae1d93)"><path fill="#000000" d="M 265.125 177.683594 C 263.761719 176.519531 261.617188 176.90625 256.945312 179.234375 C 254.027344 180.789062 250.328125 182.921875 245.65625 185.832031 C 239.621094 189.714844 233.777344 193.59375 231.441406 195.339844 C 229.300781 193.207031 223.851562 188.355469 215.480469 182.921875 C 213.726562 181.757812 211.78125 180.789062 209.832031 179.625 C 209.832031 176.519531 209.636719 167.203125 206.328125 164.097656 C 203.992188 161.964844 201.65625 161.769531 198.929688 161.382812 C 197.179688 161.1875 195.425781 160.996094 193.089844 160.414062 C 188.808594 159.246094 186.859375 157.113281 184.914062 155.367188 C 182.773438 153.230469 180.628906 151.097656 176.152344 151.097656 C 170.117188 151.097656 165.445312 156.726562 159.410156 166.234375 C 154.347656 166.816406 149.285156 168.175781 144.222656 170.308594 C 142.667969 170.890625 141.304688 171.667969 139.746094 172.445312 C 139.746094 172.445312 139.550781 172.445312 139.550781 172.445312 C 134.101562 175.160156 128.84375 178.847656 123.976562 183.117188 C 115.019531 191.074219 108.792969 200.191406 108.792969 205.433594 C 108.792969 208.730469 112.878906 213 116.191406 216.105469 C 122.417969 221.734375 130.984375 227.167969 139.550781 230.851562 C 141.886719 231.824219 144.222656 232.792969 146.753906 233.570312 C 149.675781 234.539062 152.402344 235.316406 155.125 235.898438 C 156.101562 238.03125 158.242188 242.109375 161.160156 244.242188 C 163.886719 246.183594 167.195312 247.347656 170.703125 247.347656 C 173.621094 247.347656 176.542969 246.378906 178.683594 244.242188 C 181.214844 241.914062 182.382812 237.257812 182.773438 234.734375 C 191.335938 232.988281 198.734375 230.851562 204.964844 228.71875 C 206.328125 232.210938 208.46875 234.734375 211 235.703125 C 212.363281 236.09375 213.53125 236.09375 214.699219 236.09375 C 216.839844 236.09375 219.179688 235.511719 221.125 234.347656 C 223.265625 232.988281 224.824219 231.046875 225.019531 228.914062 C 225.214844 226.390625 222.875 223.285156 221.125 221.34375 C 226.574219 218.433594 229.886719 215.71875 231.441406 214.550781 C 233.585938 215.71875 239.035156 218.820312 244.488281 221.539062 C 258.113281 228.136719 261.230469 227.75 262.789062 226.390625 C 264.734375 224.644531 263.566406 221.925781 262.007812 218.628906 C 260.449219 214.941406 258.308594 210.089844 258.308594 203.492188 C 258.308594 195.339844 261.617188 189.132812 263.957031 184.863281 C 264.734375 183.308594 265.316406 182.144531 265.707031 181.175781 C 266.292969 179.625 266.097656 178.460938 265.125 177.683594 Z M 176.152344 154.398438 C 179.265625 154.398438 180.628906 155.753906 182.578125 157.695312 C 184.523438 159.636719 187.054688 162.160156 192.117188 163.515625 C 194.648438 164.292969 196.789062 164.488281 198.542969 164.679688 C 201.070312 164.875 202.433594 165.070312 203.992188 166.429688 C 205.746094 167.980469 206.328125 173.609375 206.523438 177.875 C 196.789062 172.832031 183.941406 167.980469 168.558594 166.234375 C 166.808594 166.039062 165.054688 166.039062 163.304688 166.039062 C 168.171875 158.859375 172.0625 154.398438 176.152344 154.398438 Z M 118.527344 213.582031 C 113.464844 209.121094 112.101562 206.207031 112.101562 205.433594 C 112.101562 201.9375 116.96875 193.789062 126.117188 185.640625 C 128.84375 183.117188 133.710938 179.234375 139.941406 175.9375 C 143.054688 178.652344 153.570312 188.9375 155.320312 201.355469 C 157.074219 213.777344 150.257812 225.03125 146.558594 230.078125 C 135.269531 226 124.753906 219.210938 118.527344 213.582031 Z M 176.738281 241.914062 C 173.425781 245.210938 167.390625 244.242188 163.496094 241.527344 C 161.941406 240.363281 160.382812 238.226562 159.410156 236.480469 C 161.355469 236.675781 163.304688 236.867188 165.25 236.867188 C 166.808594 236.867188 168.171875 236.867188 169.53125 236.675781 C 173.039062 236.285156 176.347656 235.898438 179.460938 235.316406 C 179.074219 237.449219 178.097656 240.554688 176.738281 241.914062 Z M 221.707031 228.523438 C 221.515625 229.496094 220.734375 230.660156 219.371094 231.433594 C 217.230469 232.792969 214.503906 233.183594 212.363281 232.40625 C 210.613281 231.824219 209.25 230.078125 208.277344 227.359375 C 211.585938 226 214.503906 224.835938 216.839844 223.480469 C 217.230469 223.285156 217.621094 223.089844 218.007812 222.898438 C 219.761719 224.644531 221.902344 227.554688 221.707031 228.523438 Z M 260.839844 183.308594 C 258.503906 187.773438 254.804688 194.566406 254.804688 203.492188 C 254.804688 210.671875 257.140625 216.300781 258.894531 219.984375 C 259.476562 221.34375 260.257812 223.285156 260.257812 223.867188 C 259.476562 223.867188 256.363281 223.671875 245.070312 218.046875 C 238.257812 214.746094 232.027344 211.058594 232.027344 211.058594 C 231.441406 210.671875 230.664062 210.867188 230.082031 211.253906 C 230.082031 211.253906 225.214844 215.71875 215.285156 220.566406 C 206.132812 225.03125 190.753906 231.046875 169.339844 233.183594 C 167.976562 233.375 166.613281 233.375 165.25 233.375 C 162.523438 233.375 159.800781 233.183594 157.074219 232.597656 C 157.074219 232.597656 157.074219 232.597656 156.878906 232.597656 C 154.738281 232.210938 152.402344 231.628906 150.257812 231.046875 C 154.347656 225.226562 160.773438 213.582031 159.019531 200.773438 C 158.046875 194.566406 155.125 188.160156 150.257812 181.757812 C 147.921875 178.652344 145.199219 175.9375 143.445312 174.191406 C 148.507812 171.859375 154.347656 169.921875 160.382812 169.339844 C 160.382812 169.339844 160.578125 169.339844 160.578125 169.339844 C 161.550781 169.339844 162.71875 169.144531 163.886719 169.144531 C 165.445312 169.144531 166.808594 169.144531 168.363281 169.339844 C 188.417969 171.667969 204.1875 179.429688 213.726562 185.445312 C 224.238281 192.042969 230.082031 198.253906 230.082031 198.253906 C 230.664062 198.835938 231.636719 199.027344 232.222656 198.445312 C 232.222656 198.445312 239.035156 193.59375 246.433594 188.9375 C 256.558594 182.339844 260.644531 180.59375 262.398438 180.011719 C 262.007812 181.175781 261.425781 182.339844 260.839844 183.308594 Z M 260.839844 183.308594 " fill-opacity="1" fill-rule="nonzero"/></g><path fill="#000000" d="M 192.117188 205.042969 C 191.53125 205.625 191.335938 206.789062 191.921875 207.371094 C 194.257812 209.894531 194.84375 212.222656 194.257812 213.386719 C 193.480469 214.746094 190.167969 214.550781 188.222656 214.550781 C 182.578125 214.359375 176.738281 212.03125 171.285156 207.953125 C 170.507812 207.371094 169.53125 207.566406 168.949219 208.34375 C 168.363281 209.121094 168.558594 210.089844 169.339844 210.671875 C 175.375 215.136719 181.796875 217.65625 188.027344 217.851562 C 188.613281 217.851562 189.195312 217.851562 189.976562 217.851562 C 192.699219 217.851562 195.816406 217.464844 197.179688 214.941406 C 198.734375 212.417969 197.566406 208.535156 194.453125 205.042969 C 193.867188 204.460938 192.699219 204.460938 192.117188 205.042969 Z M 192.117188 205.042969 " fill-opacity="1" fill-rule="nonzero"/><path fill="#000000" d="M 134.683594 195.148438 C 130.984375 195.148438 127.871094 198.253906 127.871094 201.9375 C 127.871094 205.625 130.984375 208.730469 134.683594 208.730469 C 138.382812 208.730469 141.5 205.625 141.5 201.9375 C 141.5 198.253906 138.382812 195.148438 134.683594 195.148438 Z M 134.683594 205.238281 C 132.738281 205.238281 131.179688 203.6875 131.179688 201.746094 C 131.179688 199.804688 132.738281 198.253906 134.683594 198.253906 C 136.632812 198.253906 138.1875 199.804688 138.1875 201.746094 C 138.1875 203.6875 136.4375 205.238281 134.683594 205.238281 Z M 134.683594 205.238281 " fill-opacity="1" fill-rule="nonzero"/><g fill="#000000" fill-opacity="1"><g transform="translate(142.236643, 116.451934)"><g><path d="M 14.703125 -31.515625 L 4.109375 -28.1875 C 3.265625 -27.914062 2.71875 -27.550781 2.46875 -27.09375 C 2.226562 -26.644531 2.226562 -26.035156 2.46875 -25.265625 L 4.0625 -20.203125 L 15.40625 -23.765625 L 16.90625 -19 L 5.5625 -15.4375 L 9.484375 -2.984375 L 2.921875 -0.921875 L -4.5 -24.53125 C -5.09375 -26.414062 -4.96875 -28.097656 -4.125 -29.578125 C -3.289062 -31.054688 -1.882812 -32.101562 0.09375 -32.71875 C 6.382812 -34.695312 10.867188 -35.929688 13.546875 -36.421875 Z M 14.703125 -31.515625 "/></g></g></g><g fill="#000000" fill-opacity="1"><g transform="translate(166.21597, 109.455839)"><g><path d="M 9.90625 -1.296875 L 3.125 -0.40625 L -0.890625 -31.1875 L 5.890625 -32.078125 Z M 9.90625 -1.296875 "/></g></g></g><g fill="#000000" fill-opacity="1"><g transform="translate(179.227108, 107.171594)"><g><path d="M 15.203125 -11 L 9.0625 -13.515625 C 6.800781 -14.460938 5.210938 -15.679688 4.296875 -17.171875 C 3.378906 -18.660156 2.984375 -20.578125 3.109375 -22.921875 C 3.273438 -26.335938 4.21875 -28.578125 5.9375 -29.640625 C 7.664062 -30.703125 10.628906 -31.128906 14.828125 -30.921875 C 18.773438 -30.722656 22.148438 -30.144531 24.953125 -29.1875 L 24.28125 -24.53125 C 21.664062 -24.757812 18.429688 -24.972656 14.578125 -25.171875 C 12.773438 -25.265625 11.566406 -25.171875 10.953125 -24.890625 C 10.335938 -24.609375 10 -23.835938 9.9375 -22.578125 C 9.882812 -21.554688 10.066406 -20.804688 10.484375 -20.328125 C 10.910156 -19.847656 11.742188 -19.367188 12.984375 -18.890625 L 18.78125 -16.578125 C 21.132812 -15.617188 22.769531 -14.382812 23.6875 -12.875 C 24.601562 -11.375 25 -9.457031 24.875 -7.125 C 24.695312 -3.65625 23.734375 -1.335938 21.984375 -0.171875 C 20.242188 0.984375 17.21875 1.453125 12.90625 1.234375 C 9.394531 1.054688 5.867188 0.488281 2.328125 -0.46875 L 2.984375 -5.390625 C 9.347656 -4.921875 12.753906 -4.675781 13.203125 -4.65625 C 15.035156 -4.5625 16.269531 -4.691406 16.90625 -5.046875 C 17.539062 -5.398438 17.890625 -6.191406 17.953125 -7.421875 C 18.003906 -8.472656 17.832031 -9.222656 17.4375 -9.671875 C 17.039062 -10.128906 16.296875 -10.570312 15.203125 -11 Z M 15.203125 -11 "/></g></g></g><g fill="#000000" fill-opacity="1"><g transform="translate(204.423242, 108.198239)"><g><path d="M 15.734375 -9.578125 L 13.1875 -10.328125 C 13.039062 -9.117188 12.859375 -8.140625 12.640625 -7.390625 L 9.5625 2.859375 L 3.03125 0.90625 L 11.9375 -28.828125 L 18.46875 -26.875 L 15.953125 -18.484375 C 15.578125 -17.210938 15.125 -16.054688 14.59375 -15.015625 L 17.140625 -14.265625 L 28.265625 -23.9375 L 35.375 -21.8125 L 24.15625 -12.265625 C 23.40625 -11.546875 22.453125 -10.96875 21.296875 -10.53125 L 21.234375 -10.359375 C 22.046875 -9.328125 22.617188 -8.203125 22.953125 -6.984375 L 26.984375 8.078125 L 19.65625 5.890625 Z M 15.734375 -9.578125 "/></g></g></g></svg>