<svg xmlns="http://www.w3.org/2000/svg" xmlns:xlink="http://www.w3.org/1999/xlink" width="500" zoomAndPan="magnify" viewBox="0 0 375 374.999991" height="500" preserveAspectRatio="xMidYMid meet" version="1.0"><defs><g/><clipPath id="fdd1f7d425"><path d="M 45.238281 45.238281 L 329.761719 45.238281 L 329.761719 329.761719 L 45.238281 329.761719 Z M 45.238281 45.238281 " clip-rule="nonzero"/></clipPath><clipPath id="b491d96241"><path d="M 187.5 45.238281 C 108.929688 45.238281 45.238281 108.929688 45.238281 187.5 C 45.238281 266.070312 108.929688 329.761719 187.5 329.761719 C 266.070312 329.761719 329.761719 266.070312 329.761719 187.5 C 329.761719 108.929688 266.070312 45.238281 187.5 45.238281 Z M 187.5 45.238281 " clip-rule="nonzero"/></clipPath><clipPath id="e7144a911a"><path d="M 217.9375 226.277344 L 232.363281 226.277344 L 232.363281 244.800781 L 217.9375 244.800781 Z M 217.9375 226.277344 " clip-rule="nonzero"/></clipPath><clipPath id="66b0d5b478"><path d="M 119.703125 164.550781 L 255.296875 164.550781 L 255.296875 244.800781 L 119.703125 244.800781 Z M 119.703125 164.550781 " clip-rule="nonzero"/></clipPath><clipPath id="b8ab9c2c53"><path d="M 174.78125 226.277344 L 186.820312 226.277344 L 186.820312 244.800781 L 174.78125 244.800781 Z M 174.78125 226.277344 " clip-rule="nonzero"/></clipPath></defs><g clip-path="url(#fdd1f7d425)"><g clip-path="url(#b491d96241)"><path fill="#cfff00" d="M 45.238281 45.238281 L 329.761719 45.238281 L 329.761719 329.761719 L 45.238281 329.761719 Z M 45.238281 45.238281 " fill-opacity="1" fill-rule="nonzero"/></g></g><g clip-path="url(#e7144a911a)"><path fill="#000000" d="M 231.171875 230.097656 C 230.277344 229.800781 229.316406 230.289062 229.023438 231.183594 C 227.1875 236.777344 225.207031 240.171875 224.335938 241.511719 L 221.957031 241.511719 C 222.976562 238.039062 224.773438 231.386719 224.695312 227.992188 C 224.671875 227.050781 223.894531 226.308594 222.953125 226.328125 C 222.011719 226.347656 221.265625 227.128906 221.289062 228.070312 C 221.363281 231.4375 218.96875 239.773438 218.039062 242.699219 C 217.875 243.21875 217.964844 243.785156 218.285156 244.222656 C 218.609375 244.660156 219.117188 244.917969 219.660156 244.917969 L 225.230469 244.917969 C 225.757812 244.917969 226.253906 244.675781 226.578125 244.261719 C 226.699219 244.101562 229.625 240.273438 232.261719 232.246094 C 232.554688 231.351562 232.066406 230.390625 231.171875 230.097656 " fill-opacity="1" fill-rule="nonzero"/></g><g clip-path="url(#66b0d5b478)"><path fill="#000000" d="M 250.703125 183.886719 C 249.183594 185.40625 246.9375 184.980469 246.765625 184.945312 C 246.132812 184.789062 245.480469 185.011719 245.0625 185.515625 C 244.648438 186.019531 244.566406 186.71875 244.839844 187.3125 C 244.867188 187.371094 247.472656 193.203125 246.308594 201.027344 C 245.550781 206.101562 244.085938 208.921875 242.90625 211.1875 C 241.90625 213.113281 241.039062 214.777344 240.953125 217.027344 C 240.859375 219.46875 241.664062 221.007812 242.511719 222.636719 C 242.898438 223.375 243.300781 224.140625 243.664062 225.078125 C 245.015625 228.574219 244.132812 237.117188 243.476562 241.511719 L 240.90625 241.511719 C 240.800781 239.742188 240.566406 236.640625 240.0625 232.617188 C 239.707031 229.78125 238.105469 227.378906 235.429688 225.671875 C 233.777344 224.617188 232.1875 224.140625 231.714844 224.015625 C 231.195312 223.804688 228.167969 222.527344 224.554688 219.933594 C 220.914062 217.320312 215.972656 212.828125 213.101562 206.246094 C 212.726562 205.382812 211.71875 204.988281 210.859375 205.363281 C 209.996094 205.742188 209.601562 206.746094 209.980469 207.609375 C 211.386719 210.835938 213.347656 213.875 215.808594 216.644531 C 215.980469 216.84375 216.160156 217.039062 216.339844 217.230469 C 213.109375 218.703125 206.648438 221.003906 197.828125 221.003906 C 191.488281 221.003906 184.109375 219.957031 179.699219 219.328125 C 179.152344 219.25 178.648438 219.179688 178.1875 219.117188 C 178.109375 216.363281 177.789062 210.617188 176.53125 207.089844 C 176.21875 206.203125 175.242188 205.742188 174.355469 206.054688 C 173.46875 206.371094 173.007812 207.347656 173.324219 208.234375 C 174.785156 212.332031 174.808594 220.535156 174.808594 220.667969 C 174.804688 221.664062 174.566406 224.59375 173.515625 226.148438 C 170.945312 229.953125 168.777344 234.339844 166.480469 238.988281 C 166.074219 239.816406 165.65625 240.664062 165.230469 241.511719 L 162.578125 241.511719 C 162.734375 241.148438 162.914062 240.753906 163.070312 240.417969 C 164.9375 236.34375 168.414062 228.765625 163.328125 218.132812 C 163.226562 217.898438 162.105469 215.25 161.429688 212.101562 C 161.230469 211.183594 160.324219 210.597656 159.402344 210.796875 C 158.484375 210.996094 157.898438 211.902344 158.097656 212.820312 C 158.5 214.695312 159.042969 216.394531 159.476562 217.609375 C 156.800781 218.117188 151.492188 218.730469 145.863281 217.1875 C 145.839844 217.179688 145.816406 217.175781 145.789062 217.167969 C 139.238281 215.683594 134.589844 215.839844 131.199219 215.953125 C 126.796875 216.101562 126.117188 215.984375 125.421875 213.902344 C 124.710938 211.765625 123.429688 207.121094 123.113281 205.078125 C 123.40625 204.925781 124.191406 204.800781 124.871094 204.855469 C 125.15625 204.882812 125.433594 204.835938 125.695312 204.722656 C 129.136719 203.234375 132.269531 199.46875 135 193.535156 C 136.960938 189.273438 137.984375 185.464844 138.027344 185.304688 C 138.160156 184.808594 138.058594 184.277344 137.757812 183.863281 C 137.742188 183.839844 136.125 181.621094 134.519531 179.105469 C 133.589844 177.648438 132.851562 176.382812 132.324219 175.347656 C 132.15625 175.019531 132.023438 174.734375 131.914062 174.488281 C 135.589844 175.101562 138.390625 176.203125 140.191406 177.089844 C 142.464844 178.207031 143.675781 179.226562 143.726562 179.273438 C 144.222656 179.710938 144.917969 179.816406 145.523438 179.554688 C 159.585938 173.496094 166.683594 173.386719 177.429688 173.226562 L 178.085938 173.214844 C 183.878906 173.125 189.515625 171.945312 195.488281 170.695312 C 201.007812 169.539062 206.714844 168.34375 212.734375 168.027344 C 221.664062 167.554688 229.171875 169.488281 235.042969 173.78125 C 239.359375 176.933594 241.160156 180.277344 241.226562 180.402344 C 241.300781 180.550781 241.390625 180.675781 241.503906 180.792969 C 241.761719 181.070312 244.121094 183.496094 246.796875 183.355469 C 247.691406 183.304688 248.980469 182.949219 250.046875 181.53125 C 250.089844 181.476562 250.128906 181.417969 250.164062 181.359375 C 250.253906 181.199219 250.875 180.066406 250.824219 178.671875 C 251.101562 178.914062 251.335938 179.207031 251.515625 179.550781 C 252.117188 180.703125 252.101562 182.492188 250.703125 183.886719 Z M 254.53125 177.972656 C 253.855469 176.679688 252.785156 175.675781 251.441406 175.074219 C 250.011719 174.429688 248.367188 174.269531 246.554688 174.597656 C 245.785156 174.738281 245.207031 175.382812 245.15625 176.164062 C 245.105469 176.941406 245.589844 177.65625 246.335938 177.898438 C 246.664062 178.003906 247.234375 178.230469 247.375 178.578125 C 247.492188 178.871094 247.355469 179.335938 247.246094 179.585938 C 246.949219 179.933594 246.726562 179.945312 246.617188 179.953125 C 245.886719 179.992188 244.761719 179.214844 244.125 178.597656 C 243.589844 177.660156 241.511719 174.335938 237.226562 171.15625 C 234.347656 169.023438 231.050781 167.378906 227.425781 166.269531 C 222.9375 164.890625 217.933594 164.339844 212.554688 164.625 C 206.273438 164.957031 200.433594 166.179688 194.789062 167.359375 C 188.984375 168.574219 183.5 169.722656 178.03125 169.808594 L 177.378906 169.816406 C 166.851562 169.976562 159.1875 170.09375 145.097656 176.03125 C 143.175781 174.660156 138.132812 171.636719 130.160156 170.820312 C 129.742188 170.773438 129.320312 170.890625 128.980469 171.136719 C 128.558594 171.445312 127.882812 172.179688 128.082031 173.632812 C 128.160156 174.195312 128.359375 174.847656 128.695312 175.640625 C 129.191406 176.792969 129.996094 178.28125 131.09375 180.054688 C 132.398438 182.167969 133.796875 184.175781 134.515625 185.1875 C 134.128906 186.476562 133.234375 189.234375 131.886719 192.15625 C 129.65625 196.988281 127.171875 200.183594 124.679688 201.4375 C 123.707031 201.417969 121.722656 201.550781 120.554688 202.792969 C 119.871094 203.527344 119.582031 204.523438 119.746094 205.597656 C 120.105469 207.917969 121.433594 212.707031 122.191406 214.980469 C 122.910156 217.140625 124.074219 218.417969 125.855469 219.003906 C 127.335938 219.492188 129.089844 219.433594 131.3125 219.355469 C 134.511719 219.25 138.894531 219.101562 145 220.484375 C 148.015625 221.304688 150.929688 221.578125 153.476562 221.578125 C 156.660156 221.578125 159.273438 221.148438 160.800781 220.824219 C 164.390625 229.363281 161.644531 235.351562 159.972656 238.996094 C 159.027344 241.054688 158.28125 242.679688 159.160156 244.109375 C 159.46875 244.613281 160.019531 244.917969 160.609375 244.917969 L 166.285156 244.917969 C 166.925781 244.917969 167.515625 244.554688 167.804688 243.980469 C 168.394531 242.808594 168.976562 241.632812 169.535156 240.496094 C 171.777344 235.957031 173.898438 231.667969 176.339844 228.058594 C 177.46875 226.386719 177.917969 224.128906 178.097656 222.542969 C 178.449219 222.59375 178.824219 222.644531 179.21875 222.703125 C 183.71875 223.339844 191.246094 224.410156 197.828125 224.410156 C 208.453125 224.410156 215.964844 221.261719 218.921875 219.773438 C 220.066406 220.800781 221.285156 221.78125 222.566406 222.703125 C 226.71875 225.679688 230.164062 227.066406 230.546875 227.214844 C 230.546875 227.21875 230.550781 227.21875 230.554688 227.21875 C 230.566406 227.222656 230.574219 227.226562 230.578125 227.230469 C 230.582031 227.230469 230.589844 227.234375 230.597656 227.234375 C 230.613281 227.242188 230.628906 227.246094 230.644531 227.253906 C 230.65625 227.257812 230.671875 227.261719 230.6875 227.265625 C 230.699219 227.269531 230.707031 227.273438 230.71875 227.277344 C 230.746094 227.285156 230.777344 227.292969 230.808594 227.296875 C 230.925781 227.328125 232.234375 227.675781 233.597656 228.542969 C 235.414062 229.703125 236.453125 231.214844 236.679688 233.039062 C 237.449219 239.195312 237.578125 243.226562 237.578125 243.265625 C 237.605469 244.1875 238.359375 244.917969 239.28125 244.917969 L 244.929688 244.917969 C 245.757812 244.917969 246.46875 244.324219 246.609375 243.507812 C 246.632812 243.367188 247.210938 240.003906 247.546875 235.941406 C 248.011719 230.328125 247.773438 226.257812 246.839844 223.851562 C 246.40625 222.734375 245.941406 221.84375 245.53125 221.058594 C 244.789062 219.636719 244.296875 218.695312 244.359375 217.160156 C 244.414062 215.671875 245.050781 214.449219 245.929688 212.757812 C 247.15625 210.398438 248.839844 207.167969 249.679688 201.53125 C 250.527344 195.828125 249.601562 191.070312 248.808594 188.351562 C 250.148438 188.179688 251.757812 187.652344 253.113281 186.296875 C 254.242188 185.167969 254.96875 183.761719 255.210938 182.230469 C 255.441406 180.761719 255.203125 179.25 254.53125 177.972656 " fill-opacity="1" fill-rule="nonzero"/></g><g clip-path="url(#b8ab9c2c53)"><path fill="#000000" d="M 182.21875 227.382812 C 181.863281 226.511719 180.867188 226.097656 179.996094 226.457031 C 179.125 226.8125 178.710938 227.808594 179.070312 228.679688 C 181.101562 233.613281 182.382812 238.769531 182.984375 241.511719 L 181.195312 241.511719 C 180.589844 240.085938 179.609375 237.546875 177.871094 235.246094 C 177.300781 234.496094 176.234375 234.347656 175.484375 234.917969 C 174.734375 235.484375 174.585938 236.554688 175.152344 237.304688 C 177.371094 240.234375 178.425781 243.757812 178.4375 243.789062 C 178.679688 244.46875 179.324219 244.917969 180.042969 244.917969 L 185.070312 244.917969 C 185.574219 244.917969 186.050781 244.695312 186.375 244.3125 C 186.699219 243.925781 186.835938 243.414062 186.746094 242.921875 C 186.691406 242.59375 185.308594 234.882812 182.21875 227.382812 " fill-opacity="1" fill-rule="nonzero"/></g><g fill="#000000" fill-opacity="1"><g transform="translate(125.707669, 125.460448)"><g><path d="M 9.140625 -33.5625 L -0.734375 -28.46875 C -1.503906 -28.070312 -1.972656 -27.625 -2.140625 -27.125 C -2.304688 -26.632812 -2.207031 -26.03125 -1.84375 -25.3125 L 0.59375 -20.59375 L 11.15625 -26.03125 L 13.4375 -21.578125 L 2.875 -16.140625 L 8.84375 -4.546875 L 2.71875 -1.40625 L -8.609375 -23.40625 C -9.515625 -25.164062 -9.675781 -26.84375 -9.09375 -28.4375 C -8.507812 -30.039062 -7.296875 -31.316406 -5.453125 -32.265625 C 0.410156 -35.285156 4.613281 -37.257812 7.15625 -38.1875 Z M 9.140625 -33.5625 "/></g></g></g><g fill="#000000" fill-opacity="1"><g transform="translate(147.308049, 114.328084)"><g><path d="M 1.671875 -32.546875 L 7.578125 -10.125 C 7.785156 -9.34375 8.113281 -8.828125 8.5625 -8.578125 C 9.019531 -8.328125 9.664062 -8.3125 10.5 -8.53125 L 20.828125 -11.25 L 22.453125 -6.28125 C 19.597656 -5.1875 15.40625 -3.910156 9.875 -2.453125 C 7.539062 -1.835938 5.65625 -1.960938 4.21875 -2.828125 C 2.789062 -3.703125 1.820312 -5.109375 1.3125 -7.046875 L -4.9375 -30.8125 Z M 1.671875 -32.546875 "/></g></g></g><g fill="#000000" fill-opacity="1"><g transform="translate(169.51703, 108.052704)"><g><path d="M 10.84375 -34.578125 L 8.6875 -34.53125 C 7.695312 -34.5 7.1875 -34.976562 7.15625 -35.96875 L 7.109375 -38.546875 C 7.085938 -39.535156 7.570312 -40.046875 8.5625 -40.078125 L 10.71875 -40.125 C 11.707031 -40.144531 12.210938 -39.660156 12.234375 -38.671875 L 12.28125 -36.09375 C 12.3125 -35.101562 11.832031 -34.597656 10.84375 -34.578125 Z M 19.03125 -34.765625 L 16.875 -34.703125 C 15.882812 -34.679688 15.375 -35.164062 15.34375 -36.15625 L 15.296875 -38.734375 C 15.273438 -39.722656 15.757812 -40.226562 16.75 -40.25 L 18.90625 -40.3125 C 19.894531 -40.332031 20.398438 -39.847656 20.421875 -38.859375 L 20.46875 -36.28125 C 20.5 -35.289062 20.019531 -34.785156 19.03125 -34.765625 Z M 19.796875 -8.59375 L 9.125 -8.34375 L 7.0625 -0.15625 L 0.046875 0 L 8.34375 -29.453125 C 8.457031 -29.992188 8.734375 -30.429688 9.171875 -30.765625 C 9.609375 -31.097656 10.113281 -31.269531 10.6875 -31.28125 L 17.15625 -31.4375 C 18.445312 -31.46875 19.257812 -30.890625 19.59375 -29.703125 L 29.203125 -0.65625 L 22.234375 -0.5 Z M 18.203125 -13.875 L 15.375 -23.3125 C 14.976562 -24.800781 14.742188 -25.769531 14.671875 -26.21875 L 13.46875 -26.1875 C 13.40625 -25.882812 13.304688 -25.398438 13.171875 -24.734375 C 13.035156 -24.066406 12.925781 -23.570312 12.84375 -23.25 L 10.453125 -13.6875 Z M 18.203125 -13.875 "/></g></g></g><g fill="#000000" fill-opacity="1"><g transform="translate(197.694324, 107.474418)"><g><path d="M 16.84375 -8.265625 L 11.234375 -11.765625 C 9.148438 -13.085938 7.785156 -14.5625 7.140625 -16.1875 C 6.492188 -17.820312 6.429688 -19.78125 6.953125 -22.0625 C 7.703125 -25.394531 9.015625 -27.441406 10.890625 -28.203125 C 12.765625 -28.972656 15.75 -28.894531 19.84375 -27.96875 C 23.707031 -27.101562 26.9375 -25.960938 29.53125 -24.546875 L 28.078125 -20.0625 C 25.546875 -20.726562 22.394531 -21.488281 18.625 -22.34375 C 16.875 -22.726562 15.671875 -22.832031 15.015625 -22.65625 C 14.359375 -22.488281 13.894531 -21.789062 13.625 -20.5625 C 13.394531 -19.5625 13.445312 -18.789062 13.78125 -18.25 C 14.125 -17.71875 14.863281 -17.109375 16 -16.421875 L 21.3125 -13.15625 C 23.46875 -11.8125 24.867188 -10.316406 25.515625 -8.671875 C 26.171875 -7.023438 26.242188 -5.066406 25.734375 -2.796875 C 24.960938 0.597656 23.617188 2.71875 21.703125 3.5625 C 19.796875 4.40625 16.734375 4.351562 12.515625 3.40625 C 9.085938 2.632812 5.703125 1.476562 2.359375 -0.0625 L 3.859375 -4.796875 C 10.054688 -3.265625 13.375 -2.445312 13.8125 -2.34375 C 15.601562 -1.945312 16.835938 -1.867188 17.515625 -2.109375 C 18.203125 -2.359375 18.679688 -3.082031 18.953125 -4.28125 C 19.179688 -5.3125 19.140625 -6.082031 18.828125 -6.59375 C 18.515625 -7.101562 17.851562 -7.660156 16.84375 -8.265625 Z M 16.84375 -8.265625 "/></g></g></g><g fill="#000000" fill-opacity="1"><g transform="translate(222.351199, 112.759539)"><g><path d="M 17.125 -6.765625 L 14.75 -7.9375 C 14.394531 -6.757812 14.046875 -5.820312 13.703125 -5.125 L 8.9375 4.453125 L 2.828125 1.40625 L 16.65625 -26.390625 L 22.765625 -23.34375 L 18.859375 -15.5 C 18.265625 -14.3125 17.617188 -13.253906 16.921875 -12.328125 L 19.296875 -11.15625 L 31.921875 -18.796875 L 38.5625 -15.5 L 25.890625 -7.984375 C 25.035156 -7.398438 24 -6.992188 22.78125 -6.765625 L 22.6875 -6.609375 C 23.3125 -5.453125 23.6875 -4.242188 23.8125 -2.984375 L 25.21875 12.546875 L 18.375 9.140625 Z M 17.125 -6.765625 "/></g></g></g></svg>