<svg xmlns="http://www.w3.org/2000/svg" xmlns:xlink="http://www.w3.org/1999/xlink" width="500" zoomAndPan="magnify" viewBox="0 0 375 374.999991" height="500" preserveAspectRatio="xMidYMid meet" version="1.0"><defs><g/><clipPath id="4700f063f3"><path d="M 45.238281 45.238281 L 329.761719 45.238281 L 329.761719 329.761719 L 45.238281 329.761719 Z M 45.238281 45.238281 " clip-rule="nonzero"/></clipPath><clipPath id="9be25d6bb8"><path d="M 187.5 45.238281 C 108.929688 45.238281 45.238281 108.929688 45.238281 187.5 C 45.238281 266.070312 108.929688 329.761719 187.5 329.761719 C 266.070312 329.761719 329.761719 266.070312 329.761719 187.5 C 329.761719 108.929688 266.070312 45.238281 187.5 45.238281 Z M 187.5 45.238281 " clip-rule="nonzero"/></clipPath><clipPath id="d83c6995e9"><path d="M 135.277344 241 L 239.527344 241 L 239.527344 279 L 135.277344 279 Z M 135.277344 241 " clip-rule="nonzero"/></clipPath><clipPath id="0f170abdae"><path d="M 137 242 L 239.527344 242 L 239.527344 253 L 137 253 Z M 137 242 " clip-rule="nonzero"/></clipPath><clipPath id="51009879d9"><path d="M 176 187.5 L 204 187.5 L 204 226 L 176 226 Z M 176 187.5 " clip-rule="nonzero"/></clipPath><clipPath id="c21ed74031"><path d="M 135.277344 223 L 239.527344 223 L 239.527344 262 L 135.277344 262 Z M 135.277344 223 " clip-rule="nonzero"/></clipPath></defs><g clip-path="url(#4700f063f3)"><g clip-path="url(#9be25d6bb8)"><path fill="#cfff00" d="M 45.238281 45.238281 L 329.761719 45.238281 L 329.761719 329.761719 L 45.238281 329.761719 Z M 45.238281 45.238281 " fill-opacity="1" fill-rule="nonzero"/></g></g><g clip-path="url(#d83c6995e9)"><path fill="#000000" d="M 158.488281 278.945312 C 151.457031 278.945312 144.714844 276.128906 139.96875 270.984375 C 136.855469 267.613281 135.277344 263.984375 135.277344 260.203125 L 135.277344 243.253906 C 135.277344 242.515625 135.878906 241.914062 136.617188 241.914062 C 137.359375 241.914062 137.957031 242.515625 137.957031 243.253906 C 137.957031 246.339844 139.296875 249.359375 141.9375 252.222656 C 147.4375 258.179688 155.953125 260.636719 164.15625 258.636719 C 171.394531 256.871094 179.199219 255.976562 187.359375 255.976562 C 195.515625 255.976562 203.320312 256.871094 210.558594 258.636719 C 218.769531 260.640625 227.277344 258.179688 232.773438 252.222656 C 235.417969 249.359375 236.757812 246.34375 236.757812 243.253906 C 236.757812 242.515625 237.355469 241.914062 238.097656 241.914062 C 238.835938 241.914062 239.4375 242.515625 239.4375 243.253906 L 239.4375 260.203125 C 239.4375 263.988281 237.859375 267.613281 234.746094 270.984375 C 228.585938 277.660156 219.066406 280.417969 209.925781 278.1875 C 202.894531 276.472656 195.300781 275.601562 187.359375 275.601562 C 179.414062 275.601562 171.820312 276.472656 164.792969 278.1875 C 162.695312 278.699219 160.578125 278.945312 158.488281 278.945312 Z M 137.957031 251.511719 L 137.957031 260.203125 C 137.957031 263.292969 139.296875 266.3125 141.9375 269.175781 C 147.4375 275.132812 155.953125 277.585938 164.15625 275.589844 C 171.394531 273.824219 179.199219 272.929688 187.359375 272.929688 C 195.515625 272.929688 203.320312 273.824219 210.558594 275.589844 C 218.769531 277.589844 227.277344 275.132812 232.773438 269.175781 C 235.417969 266.3125 236.757812 263.296875 236.757812 260.203125 L 236.757812 251.511719 C 236.179688 252.367188 235.507812 253.207031 234.746094 254.035156 C 228.585938 260.707031 219.066406 263.46875 209.925781 261.234375 C 202.894531 259.519531 195.300781 258.652344 187.359375 258.652344 C 179.414062 258.652344 171.820312 259.519531 164.792969 261.234375 C 155.640625 263.46875 146.125 260.707031 139.96875 254.035156 C 139.207031 253.207031 138.535156 252.367188 137.957031 251.511719 Z M 137.957031 251.511719 " fill-opacity="1" fill-rule="nonzero"/></g><g clip-path="url(#0f170abdae)"><path fill="#000000" d="M 139.097656 252.136719 C 138.847656 252.136719 138.589844 252.066406 138.367188 251.917969 C 137.753906 251.515625 137.578125 250.695312 137.976562 250.078125 C 138.1875 249.746094 143.394531 242.046875 158.046875 244.867188 C 164.304688 246.074219 169.246094 244.933594 174.023438 243.828125 C 179.550781 242.546875 184.769531 241.34375 190.808594 244.289062 C 196.308594 246.96875 201.648438 246.28125 207.300781 245.546875 C 211.921875 244.953125 216.703125 244.328125 221.644531 245.648438 C 232.933594 248.660156 236.800781 243.953125 236.960938 243.75 C 237.414062 243.171875 238.253906 243.0625 238.832031 243.507812 C 239.414062 243.953125 239.535156 244.777344 239.097656 245.363281 C 238.898438 245.625 234.125 251.742188 220.957031 248.230469 C 216.527344 247.050781 212.210938 247.609375 207.644531 248.199219 C 201.855469 248.949219 195.859375 249.726562 189.632812 246.691406 C 184.449219 244.164062 179.894531 245.214844 174.628906 246.433594 C 169.8125 247.542969 164.355469 248.808594 157.542969 247.492188 C 144.761719 245.03125 140.398438 251.273438 140.21875 251.542969 C 139.960938 251.925781 139.535156 252.136719 139.097656 252.136719 Z M 139.097656 252.136719 " fill-opacity="1" fill-rule="nonzero"/></g><path fill="#000000" d="M 156.289062 228.25 C 156.007812 228.25 155.722656 228.164062 155.476562 227.976562 C 154.890625 227.527344 154.777344 226.6875 155.226562 226.101562 L 156.210938 224.820312 C 156.65625 224.238281 157.496094 224.117188 158.089844 224.570312 C 158.675781 225.019531 158.789062 225.859375 158.335938 226.445312 L 157.355469 227.726562 C 157.09375 228.070312 156.691406 228.25 156.289062 228.25 Z M 156.289062 228.25 " fill-opacity="1" fill-rule="nonzero"/><path fill="#000000" d="M 150.875 222.089844 C 150.371094 222.089844 149.886719 221.800781 149.660156 221.316406 C 149.351562 220.644531 149.640625 219.851562 150.3125 219.539062 L 151.363281 219.054688 C 152.03125 218.746094 152.828125 219.03125 153.144531 219.703125 C 153.453125 220.375 153.160156 221.167969 152.492188 221.480469 L 151.441406 221.964844 C 151.257812 222.050781 151.066406 222.089844 150.875 222.089844 Z M 150.875 222.089844 " fill-opacity="1" fill-rule="nonzero"/><path fill="#000000" d="M 163.671875 231.847656 C 163.597656 231.847656 163.523438 231.84375 163.445312 231.828125 C 162.714844 231.707031 162.226562 231.015625 162.347656 230.285156 L 162.542969 229.148438 C 162.664062 228.421875 163.355469 227.921875 164.089844 228.054688 C 164.816406 228.179688 165.308594 228.867188 165.183594 229.597656 L 164.988281 230.734375 C 164.878906 231.386719 164.3125 231.847656 163.671875 231.847656 Z M 163.671875 231.847656 " fill-opacity="1" fill-rule="nonzero"/><path fill="#000000" d="M 215.34375 228.171875 C 214.941406 228.171875 214.542969 227.992188 214.277344 227.648438 L 213.296875 226.367188 C 212.84375 225.777344 212.957031 224.941406 213.546875 224.492188 C 214.136719 224.039062 214.976562 224.15625 215.425781 224.738281 L 216.40625 226.019531 C 216.855469 226.609375 216.746094 227.445312 216.15625 227.894531 C 215.914062 228.082031 215.625 228.171875 215.34375 228.171875 Z M 215.34375 228.171875 " fill-opacity="1" fill-rule="nonzero"/><path fill="#000000" d="M 220.757812 222.007812 C 220.566406 222.007812 220.375 221.96875 220.191406 221.886719 L 219.144531 221.398438 C 218.472656 221.089844 218.179688 220.292969 218.492188 219.625 C 218.804688 218.953125 219.601562 218.667969 220.269531 218.972656 L 221.320312 219.460938 C 221.992188 219.769531 222.28125 220.566406 221.972656 221.234375 C 221.746094 221.722656 221.261719 222.007812 220.757812 222.007812 Z M 220.757812 222.007812 " fill-opacity="1" fill-rule="nonzero"/><path fill="#000000" d="M 207.960938 231.769531 C 207.320312 231.769531 206.753906 231.308594 206.644531 230.65625 L 206.449219 229.515625 C 206.324219 228.789062 206.816406 228.097656 207.542969 227.976562 C 208.273438 227.839844 208.964844 228.339844 209.089844 229.066406 L 209.285156 230.207031 C 209.40625 230.9375 208.917969 231.625 208.1875 231.75 C 208.113281 231.761719 208.035156 231.769531 207.960938 231.769531 Z M 207.960938 231.769531 " fill-opacity="1" fill-rule="nonzero"/><path fill="#000000" d="M 193.152344 210.832031 C 192.957031 210.832031 192.757812 210.789062 192.570312 210.699219 L 191.113281 209.996094 C 190.449219 209.675781 190.167969 208.875 190.492188 208.210938 C 190.8125 207.546875 191.613281 207.261719 192.28125 207.589844 L 193.734375 208.289062 C 194.402344 208.613281 194.679688 209.410156 194.359375 210.074219 C 194.128906 210.554688 193.648438 210.832031 193.152344 210.832031 Z M 193.152344 210.832031 " fill-opacity="1" fill-rule="nonzero"/><path fill="#000000" d="M 194.042969 202.933594 C 193.324219 202.933594 192.726562 202.363281 192.703125 201.644531 C 192.679688 200.90625 193.257812 200.285156 193.996094 200.257812 L 195.152344 200.21875 C 195.972656 200.207031 196.515625 200.773438 196.539062 201.511719 C 196.5625 202.25 195.984375 202.867188 195.246094 202.894531 L 194.089844 202.933594 C 194.074219 202.933594 194.054688 202.933594 194.042969 202.933594 Z M 194.042969 202.933594 " fill-opacity="1" fill-rule="nonzero"/><path fill="#000000" d="M 188.195312 217.363281 C 187.785156 217.363281 187.378906 217.175781 187.117188 216.820312 L 186.429688 215.890625 C 185.988281 215.296875 186.117188 214.460938 186.710938 214.019531 C 187.308594 213.582031 188.144531 213.710938 188.585938 214.304688 L 189.273438 215.234375 C 189.710938 215.828125 189.585938 216.664062 188.988281 217.101562 C 188.75 217.277344 188.472656 217.363281 188.195312 217.363281 Z M 188.195312 217.363281 " fill-opacity="1" fill-rule="nonzero"/><path fill="#000000" d="M 164.105469 239.019531 C 159.410156 239.019531 154.660156 237.359375 150.640625 234.292969 C 141.742188 227.503906 139.207031 215.835938 144.988281 208.285156 C 145.203125 208.003906 145.523438 207.816406 145.875 207.769531 C 146.226562 207.71875 146.585938 207.816406 146.863281 208.035156 L 177.015625 231.039062 C 177.605469 231.484375 177.71875 232.324219 177.269531 232.910156 C 174.441406 236.605469 170.085938 238.769531 165.011719 239 C 164.710938 239.011719 164.40625 239.019531 164.105469 239.019531 Z M 146.359375 211.015625 C 142.507812 217.398438 144.976562 226.605469 152.265625 232.167969 C 156.042969 235.050781 160.550781 236.539062 164.886719 236.328125 C 168.664062 236.15625 171.941406 234.738281 174.269531 232.304688 Z M 146.359375 211.015625 " fill-opacity="1" fill-rule="nonzero"/><path fill="#000000" d="M 207.523438 238.925781 C 202.3125 238.925781 197.457031 236.871094 194.363281 232.832031 C 194.148438 232.550781 194.054688 232.195312 194.101562 231.839844 C 194.148438 231.488281 194.332031 231.171875 194.617188 230.957031 L 224.769531 207.953125 C 225.050781 207.738281 225.40625 207.640625 225.761719 207.691406 C 226.113281 207.738281 226.433594 207.921875 226.648438 208.203125 C 232.429688 215.757812 229.890625 227.425781 220.992188 234.214844 C 216.851562 237.371094 212.054688 238.925781 207.523438 238.925781 Z M 197.363281 232.226562 C 202.523438 237.613281 212.070312 237.65625 219.367188 232.089844 C 226.65625 226.527344 229.125 217.316406 225.273438 210.933594 Z M 197.363281 232.226562 " fill-opacity="1" fill-rule="nonzero"/><g clip-path="url(#51009879d9)"><path fill="#000000" d="M 183.691406 225.773438 C 181.449219 225.773438 179.226562 225.296875 177.144531 224.296875 C 176.824219 224.140625 176.578125 223.867188 176.460938 223.53125 C 176.34375 223.195312 176.363281 222.828125 176.519531 222.507812 L 193.03125 188.398438 C 193.1875 188.078125 193.460938 187.835938 193.796875 187.71875 C 194.132812 187.601562 194.503906 187.625 194.820312 187.777344 C 203.394531 191.914062 206.402344 203.46875 201.53125 213.535156 C 197.839844 221.15625 190.671875 225.773438 183.691406 225.773438 Z M 179.546875 222.402344 C 186.582031 224.890625 195.125 220.621094 199.121094 212.371094 C 203.113281 204.125 201.152344 194.792969 194.828125 190.832031 Z M 179.546875 222.402344 " fill-opacity="1" fill-rule="nonzero"/></g><g clip-path="url(#c21ed74031)"><path fill="#000000" d="M 158.488281 261.996094 C 151.457031 261.996094 144.714844 259.175781 139.96875 254.035156 C 136.855469 250.664062 135.277344 247.035156 135.277344 243.253906 C 135.277344 237.710938 138.703125 231.550781 144.925781 225.898438 C 145.472656 225.402344 146.324219 225.441406 146.820312 225.988281 C 147.320312 226.535156 147.277344 227.382812 146.730469 227.878906 C 141.15625 232.9375 137.957031 238.542969 137.957031 243.253906 C 137.957031 246.339844 139.296875 249.359375 141.9375 252.222656 C 147.4375 258.179688 155.953125 260.636719 164.15625 258.636719 C 171.394531 256.871094 179.199219 255.976562 187.359375 255.976562 C 195.515625 255.976562 203.320312 256.871094 210.558594 258.636719 C 218.769531 260.640625 227.277344 258.179688 232.773438 252.222656 C 235.417969 249.359375 236.757812 246.34375 236.757812 243.253906 C 236.757812 237.960938 232.695312 231.542969 225.886719 226.085938 C 225.3125 225.621094 225.21875 224.78125 225.683594 224.207031 C 226.148438 223.628906 226.992188 223.539062 227.566406 224 C 235.109375 230.050781 239.4375 237.070312 239.4375 243.253906 C 239.4375 247.035156 237.859375 250.664062 234.746094 254.035156 C 228.585938 260.707031 219.066406 263.46875 209.925781 261.234375 C 202.894531 259.519531 195.300781 258.652344 187.359375 258.652344 C 179.414062 258.652344 171.820312 259.519531 164.792969 261.234375 C 162.695312 261.746094 160.578125 261.996094 158.488281 261.996094 Z M 158.488281 261.996094 " fill-opacity="1" fill-rule="nonzero"/></g><path fill="#000000" d="M 195.429688 233.355469 C 195.332031 233.355469 195.230469 233.347656 195.132812 233.324219 C 187.433594 231.582031 183.480469 225.390625 183.316406 225.128906 C 182.921875 224.503906 183.113281 223.679688 183.738281 223.289062 C 184.371094 222.894531 185.191406 223.085938 185.585938 223.707031 C 185.621094 223.761719 189.144531 229.226562 195.726562 230.714844 C 196.445312 230.878906 196.898438 231.59375 196.734375 232.316406 C 196.59375 232.933594 196.039062 233.355469 195.429688 233.355469 Z M 195.429688 233.355469 " fill-opacity="1" fill-rule="nonzero"/><path fill="#000000" d="M 172.527344 230.628906 C 172.46875 230.628906 172.410156 230.625 172.351562 230.617188 C 171.617188 230.523438 171.101562 229.851562 171.199219 229.117188 C 171.824219 224.371094 176.949219 221.976562 177.167969 221.875 C 177.835938 221.566406 178.632812 221.859375 178.941406 222.535156 C 179.25 223.203125 178.957031 223.996094 178.289062 224.304688 C 178.246094 224.324219 174.285156 226.199219 173.851562 229.46875 C 173.765625 230.140625 173.191406 230.628906 172.527344 230.628906 Z M 172.527344 230.628906 " fill-opacity="1" fill-rule="nonzero"/><path fill="#000000" d="M 151.925781 214.917969 C 151.703125 214.917969 151.476562 214.859375 151.269531 214.742188 C 150.621094 214.378906 150.398438 213.5625 150.761719 212.921875 C 152.363281 210.09375 157.007812 205.175781 163.167969 206.808594 C 165.34375 207.375 167.953125 205.496094 170.972656 203.308594 C 175.734375 199.863281 181.660156 195.578125 189.429688 198.714844 C 190.113281 198.992188 190.445312 199.769531 190.167969 200.453125 C 189.890625 201.140625 189.105469 201.464844 188.421875 201.191406 C 182.035156 198.609375 177.210938 202.097656 172.546875 205.472656 C 169.121094 207.953125 165.894531 210.304688 162.480469 209.394531 C 156.761719 207.890625 153.128906 214.175781 153.09375 214.238281 C 152.847656 214.671875 152.394531 214.917969 151.925781 214.917969 Z M 151.925781 214.917969 " fill-opacity="1" fill-rule="nonzero"/><path fill="#000000" d="M 218.972656 215.394531 C 218.570312 215.394531 218.167969 215.210938 217.90625 214.867188 C 216.785156 213.394531 216.429688 211.839844 216.117188 210.464844 C 215.65625 208.457031 215.261719 206.722656 212.675781 204.976562 C 207.953125 201.785156 203.546875 205.308594 203.363281 205.460938 C 202.792969 205.925781 201.949219 205.847656 201.480469 205.28125 C 201.011719 204.710938 201.085938 203.871094 201.65625 203.402344 C 203.742188 201.667969 209.046875 199.296875 214.175781 202.761719 C 217.640625 205.097656 218.21875 207.632812 218.730469 209.871094 C 219.019531 211.140625 219.269531 212.238281 220.039062 213.25 C 220.484375 213.839844 220.371094 214.675781 219.78125 215.125 C 219.539062 215.304688 219.253906 215.394531 218.972656 215.394531 Z M 218.972656 215.394531 " fill-opacity="1" fill-rule="nonzero"/><path stroke-linecap="butt" transform="matrix(0.408423, -0.629039, 0.629039, 0.408423, 50.805452, 143.220341)" fill="none" stroke-linejoin="miter" d="M 31.319989 25.796416 L 16.496565 25.795686 C 15.340867 25.794665 14.512997 26.040321 14.002916 26.526753 C 13.50594 27.004677 13.253795 27.783166 13.255217 28.85655 L 13.257307 35.94686 L 29.104987 35.947016 L 29.106645 42.596706 L 13.258965 42.59655 L 13.255839 59.998624 L 4.086668 60.002938 L 4.086989 26.997292 C 4.087232 24.357941 4.911448 22.270327 6.561168 20.727246 C 8.222461 19.18286 10.434902 18.410821 13.198491 18.411127 C 21.997784 18.410993 28.199752 18.637934 31.801558 19.087581 Z M 31.319989 25.796416 " stroke="#fff7b3" stroke-width="0.825" stroke-opacity="1" stroke-miterlimit="4"/><path stroke-linecap="butt" transform="matrix(0.548694, -0.511307, 0.511307, 0.548694, 70.483425, 114.482805)" fill="none" stroke-linejoin="miter" d="M 13.503518 6.841096 L 16.436878 6.840818 C 17.71572 6.843619 18.354389 7.502843 18.352887 8.81849 L 18.355838 12.245564 C 18.354335 13.561212 17.714422 14.224996 16.435581 14.222195 L 13.506031 14.226024 C 12.227189 14.223223 11.58852 13.563999 11.586212 12.244801 L 11.587071 8.821277 C 11.588314 7.498269 12.228487 6.841845 13.503518 6.841096 Z M 24.418836 6.839358 L 27.363368 6.842371 C 28.682566 6.840063 29.339768 7.502319 29.338265 8.817966 L 29.341216 12.245041 C 29.343524 13.564239 28.681268 14.221441 27.36207 14.223748 L 24.421349 14.224286 C 23.09834 14.223043 22.444949 13.564338 22.442641 12.24514 L 22.43969 8.818066 C 22.441193 7.502418 23.099638 6.841665 24.418836 6.839358 Z M 6.697158 22.411336 C 9.272232 19.35766 13.879978 17.827955 20.524205 17.825771 C 27.164882 17.827398 31.78468 19.355932 34.380051 22.415185 C 36.978972 25.470627 38.275696 31.100003 38.277584 39.303054 C 38.275661 47.502554 36.978155 53.134987 34.380997 56.189442 C 31.780288 59.247708 27.165181 60.777673 20.524505 60.776046 C 13.880278 60.778229 9.271391 59.245625 6.694553 56.189404 C 4.117715 53.133184 2.828352 47.503548 2.826465 39.300497 C 2.828387 31.100997 4.118532 25.468823 6.697158 22.411336 Z M 26.909514 28.140051 C 25.764171 26.175733 23.632675 25.193278 20.507666 25.192946 C 17.393829 25.195904 15.261595 26.177654 14.122135 28.141486 C 12.986227 30.101507 12.421066 33.825005 12.422584 39.301066 C 12.420552 44.780939 12.990302 48.501258 14.120923 50.466095 C 15.265747 52.415691 17.393432 53.394595 20.50727 53.391637 C 23.632279 53.391969 25.764772 52.417581 26.908302 50.464661 C 28.055122 48.50057 28.624093 44.780623 28.622575 39.304561 C 28.624608 33.824689 28.051047 30.100819 26.909514 28.140051 Z M 26.909514 28.140051 " stroke="#fff7b3" stroke-width="0.825" stroke-opacity="1" stroke-miterlimit="4"/><path stroke-linecap="butt" transform="matrix(0.661901, -0.352685, 0.352685, 0.661901, 101.51227, 87.572925)" fill="none" stroke-linejoin="miter" d="M 36.841635 59.999169 L 27.174355 60.000156 L 24.051805 47.341744 C 23.661895 46.024493 23.135503 45.118446 22.47048 44.616559 C 21.807906 44.110076 20.856827 43.857074 19.612648 43.855105 L 13.197185 43.800604 L 13.198864 60.001279 L 4.20499 60.001086 L 4.204274 18.601266 C 7.925336 18.241063 13.184152 18.062861 19.978576 18.059617 C 25.538013 18.059302 29.471565 18.939519 31.786278 20.69812 C 34.112633 22.457023 35.271654 25.653572 35.272531 30.292666 C 35.272792 33.338009 34.663421 35.72213 33.439822 37.44258 C 32.230315 39.158734 30.206515 40.199041 27.363824 40.561048 L 27.360874 40.854555 C 30.518016 41.574839 32.477156 43.657414 33.236147 47.095233 Z M 13.199676 36.784978 L 19.805374 36.7815 C 22.195999 36.780574 23.83524 36.373383 24.70931 35.552578 C 25.602067 34.729929 26.042951 33.182576 26.046052 30.906227 C 26.047006 28.622832 25.616263 27.08317 24.75872 26.278049 C 23.898729 25.477524 22.245388 25.080492 19.803598 25.077762 L 13.19884 25.134854 Z M 13.199676 36.784978 " stroke="#fff7b3" stroke-width="0.825" stroke-opacity="1" stroke-miterlimit="4"/><path stroke-linecap="butt" transform="matrix(0.729163, -0.175559, 0.175559, 0.729163, 136.54778, 70.357495)" fill="none" stroke-linejoin="miter" d="M 36.841812 60.001708 L 27.172838 59.998742 L 24.053568 47.344095 C 23.664356 46.023594 23.132225 45.118685 22.470961 44.616615 C 21.804633 44.113326 20.853702 43.857586 19.615729 43.859524 L 13.196598 43.79794 L 13.196185 59.997917 L 4.205648 60.002939 L 4.20389 18.602321 C 7.922317 18.244021 13.184689 18.059238 19.982284 18.061943 C 25.538062 18.060303 29.473163 18.938105 31.786369 20.700413 C 34.112141 22.455032 35.275671 25.654829 35.273114 30.293521 C 35.27313 33.341754 34.662242 35.723255 33.444293 37.444307 C 32.232627 39.161515 30.20404 40.19989 27.363596 40.56065 L 27.362369 40.854999 C 30.51542 41.576652 32.47388 43.655336 33.23653 47.096116 Z M 13.198652 36.780545 L 19.804203 36.779869 C 22.198098 36.783025 23.834234 36.373378 24.712614 35.55093 C 25.60112 34.730921 26.043668 33.182107 26.04532 30.905708 C 26.043128 28.623027 25.6166 27.079255 24.754391 26.277017 C 23.896026 25.481062 22.246501 25.078552 19.803376 25.079615 L 13.199606 25.139648 Z M 13.198652 36.780545 " stroke="#fff7b3" stroke-width="0.825" stroke-opacity="1" stroke-miterlimit="4"/><path stroke-linecap="butt" transform="matrix(0.749875, 0.0137019, -0.0137019, 0.749875, 174.813288, 62.454137)" fill="none" stroke-linejoin="miter" d="M 15.485342 14.22333 L 12.599455 14.223969 C 11.281491 14.222005 10.618283 13.562136 10.620247 12.244172 L 10.620126 8.816518 C 10.62209 7.498554 11.276847 6.840649 12.600019 6.842518 L 15.485906 6.841878 C 16.803775 6.838635 17.461775 7.498599 17.459811 8.816563 L 17.459932 12.244217 C 17.463175 13.562086 16.803306 14.225293 15.485342 14.22333 Z M 26.398596 14.22187 L 23.523124 14.222319 C 22.19484 14.225753 21.531632 13.565884 21.533596 12.24792 L 21.533476 8.820266 C 21.53544 7.502302 22.195309 6.839094 23.523688 6.840868 L 26.393953 6.840514 C 27.717124 6.842382 28.375125 7.502347 28.373161 8.820311 L 28.373281 12.247964 C 28.376525 13.565834 27.716561 14.223834 26.398596 14.22187 Z M 26.64603 49.145057 L 12.419686 49.144544 L 9.419553 59.998041 L 0.058694 60.00239 L 11.999315 21.006899 C 12.163238 20.285034 12.543236 19.699869 13.139499 19.261819 C 13.735763 18.82377 14.414134 18.603006 15.17471 18.604736 L 23.816748 18.603103 C 25.535782 18.602948 26.597517 19.406602 26.996554 21.003745 L 38.934944 60.000487 L 29.631272 59.998582 Z M 24.65159 42.05531 L 21.180186 29.397865 C 20.700823 27.395872 20.427076 26.098573 20.348437 25.500952 L 18.723232 25.504602 C 18.641937 25.901987 18.502624 26.545264 18.294688 27.42421 C 18.102375 28.30287 17.942518 28.96215 17.825532 29.401861 L 14.342592 42.056147 Z M 24.65159 42.05531 " stroke="#fff7b3" stroke-width="0.825" stroke-opacity="1" stroke-miterlimit="4"/><path stroke-linecap="butt" transform="matrix(0.723748, 0.196693, -0.196693, 0.723748, 213.92334, 64.533862)" fill="none" stroke-linejoin="miter" d="M 34.980502 26.046802 L 22.614894 26.044922 L 22.61845 59.998049 L 13.449532 60.001758 L 13.44461 26.043605 L 1.085394 26.045385 L 1.081517 18.603632 L 34.981652 18.603684 Z M 34.980502 26.046802 " stroke="#fff7b3" stroke-width="0.825" stroke-opacity="1" stroke-miterlimit="4"/><path stroke-linecap="butt" transform="matrix(0.65683, 0.362042, -0.362042, 0.65683, 249.047537, 75.279252)" fill="none" stroke-linejoin="miter" d="M 34.97973 26.04541 L 22.615495 26.045114 L 22.616982 60.002375 L 13.446373 60.002116 L 13.444887 26.044856 L 1.085214 26.042046 L 1.082726 18.603565 L 34.981803 18.604414 Z M 34.97973 26.04541 " stroke="#fff7b3" stroke-width="0.825" stroke-opacity="1" stroke-miterlimit="4"/><path stroke-linecap="butt" transform="matrix(0.555, 0.504455, -0.504455, 0.555, 280.512788, 93.977924)" fill="none" stroke-linejoin="miter" d="M 31.742788 52.867189 L 32.152796 59.575035 C 28.391398 59.974447 21.995733 60.178128 12.962648 60.174865 C 10.197333 60.175668 7.9986 59.429224 6.359094 57.935183 C 4.716436 56.42993 3.876828 54.398874 3.840271 51.842013 L 3.834813 26.762528 C 3.875683 24.205674 4.717407 22.173717 6.356131 20.67016 C 7.998709 19.1631 10.202481 18.412847 12.963943 18.415547 C 21.997378 18.411453 28.39581 18.613478 32.152231 19.013915 L 31.743815 25.797013 L 15.834402 25.793834 C 14.838706 25.797949 14.122918 26.040327 13.679331 26.527975 C 13.243452 27.008617 13.025815 27.783573 13.022565 28.856345 L 13.020599 35.157397 L 29.516498 35.155374 L 29.518358 41.762633 L 13.022458 41.764656 L 13.021392 49.74704 C 13.023745 50.856951 13.239839 51.659973 13.681237 52.145599 C 14.119132 52.62737 14.837679 52.868125 15.836878 52.867864 Z M 31.742788 52.867189 " stroke="#fff7b3" stroke-width="0.825" stroke-opacity="1" stroke-miterlimit="4"/><path stroke-linecap="butt" transform="matrix(0.418302, 0.622514, -0.622514, 0.418302, 306.253314, 118.723586)" fill="none" stroke-linejoin="miter" d="M 36.838459 59.999383 L 27.174473 60.000188 L 24.052843 47.341822 C 23.663291 46.025866 23.132132 45.116753 22.468012 44.620293 C 21.805379 44.112283 20.854363 43.856013 19.616381 43.858713 L 13.198495 43.800595 L 13.198525 60.002573 L 4.20193 60.000038 L 4.2015 18.603811 C 7.925395 18.244725 13.181306 18.061692 19.982201 18.063428 C 25.536468 18.062053 29.472535 18.93738 31.784591 20.698057 C 34.111103 22.455897 35.275275 25.654031 35.272784 30.289556 C 35.274638 33.340434 34.665003 35.723145 33.440975 37.442011 C 32.231402 39.15804 30.206678 40.200824 27.361063 40.56023 L 27.36287 40.856368 C 30.518004 41.577165 32.47642 43.658682 33.236699 47.093691 Z M 13.195244 36.783001 L 19.804028 36.781145 C 22.199067 36.784118 23.832913 36.369726 24.708402 35.552425 C 25.598347 34.732288 26.0446 33.181036 26.045674 30.910221 C 26.043912 28.62495 25.613303 27.080606 24.75817 26.280095 C 23.895809 25.481002 22.247622 25.076286 19.804892 25.078918 L 13.195902 25.13711 Z M 13.195244 36.783001 " stroke="#fff7b3" stroke-width="0.825" stroke-opacity="1" stroke-miterlimit="4"/><g fill="#000000" fill-opacity="1"><g transform="translate(85.010049, 177.237489)"><g/></g></g><g fill="#000000" fill-opacity="1"><g transform="translate(88.547812, 167.725725)"><g><path d="M -8.734375 -33.671875 L -14.78125 -24.34375 C -15.25 -23.613281 -15.429688 -22.988281 -15.328125 -22.46875 C -15.234375 -21.957031 -14.851562 -21.484375 -14.1875 -21.046875 L -9.734375 -18.15625 L -3.25 -28.140625 L 0.953125 -25.421875 L -5.53125 -15.4375 L 5.40625 -8.328125 L 1.671875 -2.5625 L -19.09375 -16.046875 C -20.75 -17.117188 -21.722656 -18.492188 -22.015625 -20.171875 C -22.304688 -21.847656 -21.890625 -23.554688 -20.765625 -25.296875 C -17.171875 -30.828125 -14.5 -34.632812 -12.75 -36.71875 Z M -8.734375 -33.671875 "/></g></g></g><g fill="#000000" fill-opacity="1"><g transform="translate(101.161842, 147.404447)"><g><path d="M -19.78125 -36.078125 L -18.171875 -37.578125 C -17.460938 -38.234375 -16.769531 -38.195312 -16.09375 -37.46875 L -14.34375 -35.59375 C -13.664062 -34.863281 -13.679688 -34.171875 -14.390625 -33.515625 L -16 -32.015625 C -16.695312 -31.359375 -17.382812 -31.394531 -18.0625 -32.125 L -19.8125 -34 C -20.488281 -34.726562 -20.476562 -35.421875 -19.78125 -36.078125 Z M -13.796875 -41.65625 L -12.171875 -43.15625 C -11.453125 -43.832031 -10.753906 -43.804688 -10.078125 -43.078125 L -8.328125 -41.203125 C -7.648438 -40.472656 -7.671875 -39.769531 -8.390625 -39.09375 L -10.015625 -37.59375 C -10.734375 -36.914062 -11.429688 -36.941406 -12.109375 -37.671875 L -13.859375 -39.546875 C -14.535156 -40.273438 -14.515625 -40.976562 -13.796875 -41.65625 Z M -15.546875 -24.046875 C -15.703125 -27.046875 -13.957031 -30.238281 -10.3125 -33.625 C -6.675781 -37.019531 -3.359375 -38.539062 -0.359375 -38.1875 C 2.628906 -37.84375 6.21875 -35.421875 10.40625 -30.921875 C 14.601562 -26.421875 16.769531 -22.664062 16.90625 -19.65625 C 17.039062 -16.65625 15.285156 -13.457031 11.640625 -10.0625 C 8.003906 -6.675781 4.695312 -5.160156 1.71875 -5.515625 C -1.257812 -5.867188 -4.84375 -8.296875 -9.03125 -12.796875 C -13.226562 -17.296875 -15.398438 -21.046875 -15.546875 -24.046875 Z M -1.515625 -31.234375 C -3.140625 -31.734375 -4.804688 -31.179688 -6.515625 -29.578125 C -8.234375 -27.984375 -8.90625 -26.351562 -8.53125 -24.6875 C -8.15625 -23.03125 -6.566406 -20.695312 -3.765625 -17.6875 C -0.960938 -14.6875 1.25 -12.941406 2.875 -12.453125 C 4.5 -11.960938 6.164062 -12.515625 7.875 -14.109375 C 9.59375 -15.710938 10.265625 -17.34375 9.890625 -19 C 9.515625 -20.65625 7.925781 -22.984375 5.125 -25.984375 C 2.320312 -28.992188 0.109375 -30.742188 -1.515625 -31.234375 Z M -1.515625 -31.234375 "/></g></g></g><g fill="#000000" fill-opacity="1"><g transform="translate(122.673359, 127.287005)"><g><path d="M 24.375 -12.984375 L 18 -9.59375 L 11.453125 -16.875 C 10.722656 -17.59375 10.050781 -18.003906 9.4375 -18.109375 C 8.832031 -18.210938 8.117188 -18.046875 7.296875 -17.609375 L 3.03125 -15.390625 L 8.75 -4.65625 L 2.78125 -1.484375 L -11.8125 -28.890625 C -9.488281 -30.441406 -6.078125 -32.414062 -1.578125 -34.8125 C 2.097656 -36.769531 5.015625 -37.570312 7.171875 -37.21875 C 9.328125 -36.875 11.222656 -35.164062 12.859375 -32.09375 C 13.929688 -30.082031 14.367188 -28.289062 14.171875 -26.71875 C 13.984375 -25.15625 13.007812 -23.75 11.25 -22.5 L 11.359375 -22.3125 C 13.703125 -22.957031 15.738281 -22.273438 17.46875 -20.265625 Z M 0.5625 -20.03125 L 4.90625 -22.359375 C 6.5 -23.203125 7.441406 -24.050781 7.734375 -24.90625 C 8.023438 -25.757812 7.769531 -26.941406 6.96875 -28.453125 C 6.164062 -29.960938 5.335938 -30.828125 4.484375 -31.046875 C 3.640625 -31.265625 2.40625 -30.945312 0.78125 -30.09375 L -3.546875 -27.71875 Z M 0.5625 -20.03125 "/></g></g></g><g fill="#000000" fill-opacity="1"><g transform="translate(147.081317, 114.10729)"><g><path d="M 26.859375 -6.46875 L 19.828125 -4.765625 L 15.328125 -13.453125 C 14.796875 -14.347656 14.242188 -14.914062 13.671875 -15.15625 C 13.109375 -15.40625 12.378906 -15.421875 11.484375 -15.203125 L 6.78125 -14.125 L 9.625 -2.3125 L 3.0625 -0.734375 L -4.203125 -30.921875 C -1.554688 -31.835938 2.242188 -32.890625 7.203125 -34.078125 C 11.253906 -35.054688 14.28125 -35.109375 16.28125 -34.234375 C 18.28125 -33.359375 19.6875 -31.226562 20.5 -27.84375 C 21.03125 -25.625 21.003906 -23.78125 20.421875 -22.3125 C 19.847656 -20.84375 18.554688 -19.726562 16.546875 -18.96875 L 16.59375 -18.75 C 19.019531 -18.789062 20.816406 -17.625 21.984375 -15.25 Z M 5.546875 -19.25 L 10.359375 -20.40625 C 12.109375 -20.832031 13.226562 -21.421875 13.71875 -22.171875 C 14.21875 -22.929688 14.269531 -24.140625 13.875 -25.796875 C 13.476562 -27.460938 12.894531 -28.507812 12.125 -28.9375 C 11.363281 -29.363281 10.09375 -29.359375 8.3125 -28.921875 L 3.5 -27.734375 Z M 5.546875 -19.25 "/></g></g></g><g fill="#000000" fill-opacity="1"><g transform="translate(173.991176, 107.446622)"><g><path d="M 12.234375 -34.109375 L 10.078125 -34.15625 C 9.085938 -34.175781 8.601562 -34.679688 8.625 -35.671875 L 8.671875 -38.25 C 8.691406 -39.238281 9.195312 -39.722656 10.1875 -39.703125 L 12.34375 -39.65625 C 13.332031 -39.644531 13.816406 -39.144531 13.796875 -38.15625 L 13.75 -35.578125 C 13.726562 -34.585938 13.222656 -34.097656 12.234375 -34.109375 Z M 20.421875 -33.96875 L 18.265625 -34 C 17.273438 -34.019531 16.789062 -34.523438 16.8125 -35.515625 L 16.859375 -38.09375 C 16.878906 -39.082031 17.382812 -39.566406 18.375 -39.546875 L 20.53125 -39.515625 C 21.519531 -39.492188 22.003906 -38.988281 21.984375 -38 L 21.9375 -35.421875 C 21.914062 -34.429688 21.410156 -33.945312 20.421875 -33.96875 Z M 20.140625 -7.78125 L 9.46875 -7.96875 L 7.0625 0.125 L 0.046875 0 L 9.53125 -29.078125 C 9.664062 -29.617188 9.957031 -30.050781 10.40625 -30.375 C 10.863281 -30.695312 11.378906 -30.851562 11.953125 -30.84375 L 18.421875 -30.71875 C 19.710938 -30.695312 20.5 -30.082031 20.78125 -28.875 L 29.203125 0.53125 L 22.234375 0.40625 Z M 18.75 -13.109375 L 16.3125 -22.65625 C 15.96875 -24.164062 15.769531 -25.144531 15.71875 -25.59375 L 14.515625 -25.625 C 14.453125 -25.320312 14.335938 -24.835938 14.171875 -24.171875 C 14.003906 -23.515625 13.875 -23.023438 13.78125 -22.703125 L 11 -13.25 Z M 18.75 -13.109375 "/></g></g></g><g fill="#000000" fill-opacity="1"><g transform="translate(202.121738, 107.958763)"><g><path d="M 31.984375 -17.703125 L 23.046875 -20.125 L 16.375 4.453125 L 9.71875 2.640625 L 16.390625 -21.9375 L 7.453125 -24.359375 L 8.921875 -29.734375 L 33.453125 -23.078125 Z M 31.984375 -17.703125 "/></g></g></g><g fill="#000000" fill-opacity="1"><g transform="translate(227.325034, 114.689056)"><g><path d="M 35.265625 -9.640625 L 27.15625 -14.109375 L 14.859375 8.1875 L 8.828125 4.859375 L 21.125 -17.4375 L 13.015625 -21.90625 L 15.703125 -26.796875 L 37.953125 -14.53125 Z M 35.265625 -9.640625 "/></g></g></g><g fill="#000000" fill-opacity="1"><g transform="translate(250.2455, 127.277942)"><g><path d="M 21.234375 12.046875 L 18.0625 15.984375 C 15.769531 14.316406 12.113281 11.203125 7.09375 6.640625 C 5.5625 5.253906 4.71875 3.726562 4.5625 2.0625 C 4.40625 0.40625 4.96875 -1.144531 6.25 -2.59375 L 18.890625 -16.515625 C 20.203125 -17.910156 21.691406 -18.609375 23.359375 -18.609375 C 25.023438 -18.617188 26.625 -17.929688 28.15625 -16.546875 C 33.175781 -11.984375 36.632812 -8.644531 38.53125 -6.53125 L 34.875 -2.96875 L 26.03125 -11 C 25.476562 -11.5 24.957031 -11.722656 24.46875 -11.671875 C 23.976562 -11.628906 23.46875 -11.3125 22.9375 -10.71875 L 19.75 -7.21875 L 28.921875 1.109375 L 25.59375 4.765625 L 16.421875 -3.5625 L 12.390625 0.875 C 11.828125 1.488281 11.546875 2.039062 11.546875 2.53125 C 11.554688 3.019531 11.835938 3.515625 12.390625 4.015625 Z M 21.234375 12.046875 "/></g></g></g><g fill="#000000" fill-opacity="1"><g transform="translate(268.902503, 143.821726)"><g><path d="M 15.40625 22.921875 L 11.375 16.921875 L 17.953125 9.6875 C 18.609375 8.882812 18.953125 8.171875 18.984375 7.546875 C 19.015625 6.929688 18.769531 6.238281 18.25 5.46875 L 15.625 1.4375 L 5.53125 8.21875 L 1.765625 2.625 L 27.53125 -14.6875 C 29.3125 -12.539062 31.625 -9.347656 34.46875 -5.109375 C 36.789062 -1.648438 37.890625 1.164062 37.765625 3.34375 C 37.640625 5.519531 36.132812 7.582031 33.25 9.53125 C 31.351562 10.800781 29.613281 11.414062 28.03125 11.375 C 26.457031 11.34375 24.957031 10.519531 23.53125 8.90625 L 23.359375 9.015625 C 24.234375 11.285156 23.757812 13.382812 21.9375 15.3125 Z M 19.984375 -1.5 L 22.734375 2.609375 C 23.734375 4.097656 24.671875 4.945312 25.546875 5.15625 C 26.429688 5.363281 27.582031 4.988281 29 4.03125 C 30.425781 3.082031 31.207031 2.171875 31.34375 1.296875 C 31.476562 0.429688 31.035156 -0.757812 30.015625 -2.28125 L 27.234375 -6.359375 Z M 19.984375 -1.5 "/></g></g></g><g fill="#000000" fill-opacity="1"><g transform="translate(284.317922, 168.289286)"><g/></g></g><path stroke-linecap="butt" transform="matrix(0.461563, -0.591151, 0.591151, 0.461563, 78.793936, 181.23444)" fill="none" stroke-linejoin="miter" d="M 34.975123 26.048803 L 22.614528 26.052305 L 22.614135 59.997253 L 13.444757 60.000261 L 13.446049 26.048002 L 1.085454 26.051505 L 1.08477 18.611574 L 34.974439 18.608872 Z M 34.975123 26.048803 " stroke="#fff7b3" stroke-width="1.049998" stroke-opacity="1" stroke-miterlimit="4"/><path stroke-linecap="butt" transform="matrix(0.573496, -0.483324, 0.483324, 0.573496, 100.287456, 155.917255)" fill="none" stroke-linejoin="miter" d="M 4.201864 18.609032 L 13.313282 18.611519 L 13.314626 59.998086 L 4.203834 60.002938 Z M 4.201864 18.609032 " stroke="#fff7b3" stroke-width="1.049998" stroke-opacity="1" stroke-miterlimit="4"/><path stroke-linecap="butt" transform="matrix(0.655191, -0.364999, 0.364999, 0.655191, 114.826147, 143.722255)" fill="none" stroke-linejoin="miter" d="M 13.197875 18.609228 L 13.196658 49.497658 C 13.194884 50.581754 13.444378 51.36464 13.940591 51.843781 C 14.450972 52.318892 15.281847 52.561168 16.433735 52.558973 L 30.65398 52.557392 L 31.079882 59.519789 C 27.038413 59.957201 21.199816 60.174477 13.561555 60.176167 C 10.360357 60.175459 7.978095 59.37895 6.414769 57.78664 C 4.861063 56.187764 4.087045 54.045476 4.088165 51.357239 L 4.085989 18.612736 Z M 13.197875 18.609228 " stroke="#fff7b3" stroke-width="1.049998" stroke-opacity="1" stroke-miterlimit="4"/><path stroke-linecap="butt" transform="matrix(0.724398, -0.194289, 0.194289, 0.724398, 142.532309, 129.317687)" fill="none" stroke-linejoin="miter" d="M 13.196002 18.609284 L 13.194542 49.496628 C 13.194997 50.580624 13.443146 51.364371 13.940338 51.842835 C 14.44894 52.318968 15.279962 52.558031 16.433404 52.560025 L 30.65284 52.561343 L 31.078651 59.518519 C 27.035937 59.954895 21.196604 60.173633 13.560654 60.174733 C 10.357986 60.173149 7.977424 59.378285 6.413937 57.788794 C 4.864559 56.186909 4.086265 54.042289 4.089118 51.357633 L 4.088221 18.609276 Z M 13.196002 18.609284 " stroke="#fff7b3" stroke-width="1.049998" stroke-opacity="1" stroke-miterlimit="4"/><path stroke-linecap="butt" transform="matrix(0.75, -0.000168856, 0.000168856, 0.75, 173.333196, 121.898781)" fill="none" stroke-linejoin="miter" d="M 34.976959 26.049085 L 22.612374 26.05151 L 22.615148 59.999429 L 13.443272 60.002573 L 13.445708 26.049446 L 1.086331 26.051872 L 1.082799 18.609162 L 34.973425 18.611584 Z M 34.976959 26.049085 " stroke="#fff7b3" stroke-width="1.049998" stroke-opacity="1" stroke-miterlimit="4"/><path stroke-linecap="butt" transform="matrix(0.717547, 0.218233, -0.218233, 0.717547, 209.056354, 122.914329)" fill="none" stroke-linejoin="miter" d="M 37.008759 18.60907 L 37.009378 43.509239 C 37.008378 49.824457 35.801061 54.285454 33.377897 56.878795 C 30.967731 59.479071 26.794597 60.775497 20.871494 60.775005 C 14.633616 60.777703 10.242611 59.478328 7.704979 56.880348 C 5.167348 54.282368 3.893291 49.824793 3.894291 43.509576 L 3.893672 18.609406 L 13.018036 18.61073 L 13.018655 43.5109 C 13.018574 47.305317 13.547754 49.904426 14.603163 51.298263 C 15.66507 52.695567 17.620311 53.396551 20.460871 53.392766 C 23.253553 53.392654 25.18155 52.6974 26.248328 51.300506 C 27.310124 49.905128 27.842038 47.30449 27.842119 43.510073 L 27.8415 18.609903 Z M 37.008759 18.60907 " stroke="#fff7b3" stroke-width="1.049998" stroke-opacity="1" stroke-miterlimit="4"/><path stroke-linecap="butt" transform="matrix(0.618722, 0.423891, -0.423891, 0.618722, 246.452508, 135.848662)" fill="none" stroke-linejoin="miter" d="M 35.517446 36.128736 L 35.514831 60.001571 L 28.794274 59.997078 L 27.957387 55.85431 C 24.755667 59.133741 20.777637 60.773211 16.023295 60.772721 C 11.373025 60.776692 8.011483 59.077 5.930077 55.679534 C 3.860207 52.280477 2.827025 46.782225 2.826233 39.187723 C 2.826501 31.106361 4.191818 25.524294 6.92807 22.450118 C 9.672916 19.370054 14.478578 17.832789 21.353652 17.832436 C 26.355044 17.834133 30.596801 18.312067 34.081867 19.270535 L 33.350705 25.990179 C 28.836502 25.787288 24.940436 25.68492 21.662507 25.683076 C 19.814843 25.68624 18.363406 25.834632 17.295306 26.137083 C 16.241687 26.442239 15.315195 27.089613 14.514477 28.086443 C 13.713759 29.083274 13.16938 30.472693 12.891523 32.26035 C 12.612076 34.03647 12.480746 36.443471 12.478755 39.48159 C 12.480551 44.644738 12.957357 48.188201 13.916414 50.113333 C 14.881121 52.028281 16.661502 52.986659 19.261853 52.985523 C 21.65995 52.984059 24.140194 52.282345 26.699644 50.876085 L 26.702174 36.126201 Z M 35.517446 36.128736 " stroke="#fff7b3" stroke-width="1.049998" stroke-opacity="1" stroke-miterlimit="4"/><path stroke-linecap="butt" transform="matrix(0.467416, 0.586534, -0.586534, 0.467416, 276.829849, 158.237217)" fill="none" stroke-linejoin="miter" d="M 35.519316 36.127406 L 35.515533 60.000081 L 28.795981 59.999739 L 27.956862 55.854575 C 24.754977 59.137015 20.77807 60.776209 16.022895 60.776229 C 11.375088 60.775234 8.010896 59.079932 5.932735 55.678931 C 3.858648 52.281176 2.825827 46.782869 2.823706 39.18891 C 2.825543 31.105272 4.192109 25.521099 6.928305 22.446956 C 9.67182 19.371986 14.479408 17.835342 21.354316 17.832951 C 26.354329 17.834909 30.59633 18.311699 34.081146 19.270641 L 33.347113 25.991577 C 28.835573 25.786159 24.939979 25.685323 21.663577 25.684994 C 19.81796 25.686035 18.359805 25.836011 17.297258 26.141416 C 16.241204 26.438674 15.314339 27.091961 14.515009 28.086637 C 13.71568 29.081314 13.172509 30.473264 12.888743 32.258413 C 12.615542 34.038662 12.476107 36.444981 12.478585 39.483863 C 12.480187 44.646551 12.958648 48.191288 13.91314 50.110754 C 14.88227 52.028566 16.662185 52.987469 19.260204 52.986637 C 21.661372 52.982108 24.143383 52.282778 26.697265 50.874836 L 26.701988 36.126953 Z M 35.519316 36.127406 " stroke="#fff7b3" stroke-width="1.049998" stroke-opacity="1" stroke-miterlimit="4"/><g fill="#000000" fill-opacity="1"><g transform="translate(114.262991, 208.928229)"><g><path d="M -3.9375 -36.34375 L -9.640625 -29.046875 L 10.4375 -13.375 L 6.203125 -7.9375 L -13.875 -23.609375 L -19.578125 -16.3125 L -23.96875 -19.75 L -8.328125 -39.78125 Z M -3.9375 -36.34375 "/></g></g></g><g fill="#000000" fill-opacity="1"><g transform="translate(129.286917, 190.327006)"><g><path d="M 7.640625 -6.4375 L 2.40625 -2.03125 L -17.59375 -25.765625 L -12.359375 -30.171875 Z M 7.640625 -6.4375 "/></g></g></g><g fill="#000000" fill-opacity="1"><g transform="translate(136.726065, 183.033744)"><g><path d="M -6.453125 -31.953125 L 4.828125 -11.703125 C 5.222656 -10.992188 5.671875 -10.570312 6.171875 -10.4375 C 6.671875 -10.3125 7.296875 -10.457031 8.046875 -10.875 L 17.375 -16.0625 L 20.1875 -11.65625 C 17.695312 -9.882812 13.953125 -7.609375 8.953125 -4.828125 C 6.847656 -3.648438 4.992188 -3.300781 3.390625 -3.78125 C 1.785156 -4.269531 0.492188 -5.394531 -0.484375 -7.15625 L -12.4375 -28.609375 Z M -6.453125 -31.953125 "/></g></g></g><g fill="#000000" fill-opacity="1"><g transform="translate(154.189622, 172.781541)"><g><path d="M 1.515625 -32.546875 L 7.515625 -10.171875 C 7.734375 -9.378906 8.070312 -8.859375 8.53125 -8.609375 C 8.988281 -8.367188 9.632812 -8.359375 10.46875 -8.578125 L 20.78125 -11.34375 L 22.421875 -6.390625 C 19.578125 -5.273438 15.390625 -3.976562 9.859375 -2.5 C 7.535156 -1.875 5.648438 -1.988281 4.203125 -2.84375 C 2.765625 -3.707031 1.785156 -5.113281 1.265625 -7.0625 L -5.09375 -30.78125 Z M 1.515625 -32.546875 "/></g></g></g><g fill="#000000" fill-opacity="1"><g transform="translate(173.343328, 166.898778)"><g><path d="M 26.234375 -25.46875 L 16.96875 -25.46875 L 16.96875 0 L 10.078125 0 L 10.078125 -25.46875 L 0.8125 -25.46875 L 0.8125 -31.046875 L 26.234375 -31.046875 Z M 26.234375 -25.46875 "/></g></g></g><g fill="#000000" fill-opacity="1"><g transform="translate(195.962376, 165.967174)"><g><path d="M 35.59375 -21.625 L 30.15625 -3.765625 C 28.78125 0.773438 26.9375 3.710938 24.625 5.046875 C 22.320312 6.378906 19.050781 6.398438 14.8125 5.109375 C 10.332031 3.742188 7.460938 1.851562 6.203125 -0.5625 C 4.953125 -2.976562 5.015625 -6.457031 6.390625 -11 L 11.828125 -28.859375 L 18.375 -26.859375 L 12.9375 -9 C 12.113281 -6.269531 11.925781 -4.285156 12.375 -3.046875 C 12.832031 -1.816406 14.082031 -0.890625 16.125 -0.265625 C 18.132812 0.347656 19.671875 0.269531 20.734375 -0.5 C 21.796875 -1.28125 22.738281 -3.035156 23.5625 -5.765625 L 29 -23.625 Z M 35.59375 -21.625 "/></g></g></g><g fill="#000000" fill-opacity="1"><g transform="translate(221.019059, 172.971961)"><g><path d="M 32.109375 0.296875 L 21.984375 15.0625 L 17.8125 12.203125 L 19.046875 9.28125 C 15.679688 9.957031 12.523438 9.289062 9.578125 7.28125 C 6.710938 5.3125 5.351562 2.832031 5.5 -0.15625 C 5.644531 -3.144531 7.332031 -6.988281 10.5625 -11.6875 C 13.988281 -16.6875 17.203125 -19.554688 20.203125 -20.296875 C 23.210938 -21.046875 26.847656 -19.96875 31.109375 -17.0625 C 34.203125 -14.9375 36.625 -12.835938 38.375 -10.765625 L 35.0625 -6.90625 C 32.351562 -8.945312 29.984375 -10.660156 27.953125 -12.046875 C 26.804688 -12.828125 25.84375 -13.347656 25.0625 -13.609375 C 24.289062 -13.867188 23.441406 -13.859375 22.515625 -13.578125 C 21.585938 -13.304688 20.660156 -12.675781 19.734375 -11.6875 C 18.804688 -10.707031 17.703125 -9.28125 16.421875 -7.40625 C 14.222656 -4.207031 13.015625 -1.8125 12.796875 -0.21875 C 12.578125 1.375 13.269531 2.71875 14.875 3.8125 C 16.363281 4.832031 18.207031 5.457031 20.40625 5.6875 L 26.65625 -3.4375 Z M 32.109375 0.296875 "/></g></g></g><g fill="#000000" fill-opacity="1"><g transform="translate(241.637803, 186.282173)"><g><path d="M 30.609375 9.671875 L 16.609375 20.828125 L 13.453125 16.890625 L 15.5 14.46875 C 12.082031 14.125 9.257812 12.550781 7.03125 9.75 C 4.863281 7.03125 4.285156 4.265625 5.296875 1.453125 C 6.316406 -1.347656 9.054688 -4.523438 13.515625 -8.078125 C 18.253906 -11.847656 22.171875 -13.648438 25.265625 -13.484375 C 28.359375 -13.328125 31.515625 -11.226562 34.734375 -7.1875 C 37.066406 -4.257812 38.769531 -1.550781 39.84375 0.9375 L 35.546875 3.65625 C 33.546875 0.925781 31.78125 -1.398438 30.25 -3.328125 C 29.382812 -4.410156 28.617188 -5.191406 27.953125 -5.671875 C 27.285156 -6.160156 26.46875 -6.40625 25.5 -6.40625 C 24.539062 -6.40625 23.472656 -6.070312 22.296875 -5.40625 C 21.128906 -4.738281 19.648438 -3.695312 17.859375 -2.28125 C 14.828125 0.132812 12.972656 2.070312 12.296875 3.53125 C 11.628906 4.988281 11.90625 6.484375 13.125 8.015625 C 14.25 9.421875 15.820312 10.550781 17.84375 11.40625 L 26.484375 4.515625 Z M 30.609375 9.671875 "/></g></g></g></svg>