<svg xmlns="http://www.w3.org/2000/svg" xmlns:xlink="http://www.w3.org/1999/xlink" width="500" zoomAndPan="magnify" viewBox="0 0 375 374.999991" height="500" preserveAspectRatio="xMidYMid meet" version="1.0"><defs><g/><clipPath id="0027722692"><path d="M 45.238281 45.238281 L 329.761719 45.238281 L 329.761719 329.761719 L 45.238281 329.761719 Z M 45.238281 45.238281 " clip-rule="nonzero"/></clipPath><clipPath id="5e28bb6186"><path d="M 187.5 45.238281 C 108.929688 45.238281 45.238281 108.929688 45.238281 187.5 C 45.238281 266.070312 108.929688 329.761719 187.5 329.761719 C 266.070312 329.761719 329.761719 266.070312 329.761719 187.5 C 329.761719 108.929688 266.070312 45.238281 187.5 45.238281 Z M 187.5 45.238281 " clip-rule="nonzero"/></clipPath><clipPath id="b76db8ffff"><path d="M 150 206 L 250.476562 206 L 250.476562 285 L 150 285 Z M 150 206 " clip-rule="nonzero"/></clipPath><clipPath id="d16d04684f"><path d="M 124.476562 253 L 204 253 L 204 298.683594 L 124.476562 298.683594 Z M 124.476562 253 " clip-rule="nonzero"/></clipPath><clipPath id="08eacfa585"><path d="M 176 172.683594 L 184 172.683594 L 184 197 L 176 197 Z M 176 172.683594 " clip-rule="nonzero"/></clipPath></defs><g clip-path="url(#0027722692)"><g clip-path="url(#5e28bb6186)"><path fill="#cfff00" d="M 45.238281 45.238281 L 329.761719 45.238281 L 329.761719 329.761719 L 45.238281 329.761719 Z M 45.238281 45.238281 " fill-opacity="1" fill-rule="nonzero"/></g></g><g clip-path="url(#b76db8ffff)"><path fill="#000000" d="M 240.609375 210.21875 L 224.863281 210.21875 L 224.863281 208.253906 C 224.863281 207.167969 223.984375 206.289062 222.898438 206.289062 L 152.054688 206.289062 C 150.96875 206.289062 150.085938 207.167969 150.085938 208.253906 L 150.085938 236.5 C 150.085938 241.238281 150.792969 245.941406 152.179688 250.476562 C 152.5 251.515625 153.605469 252.097656 154.636719 251.78125 C 155.675781 251.464844 156.261719 250.367188 155.945312 249.328125 C 154.667969 245.164062 154.023438 240.847656 154.023438 236.5 L 154.023438 220.046875 L 220.929688 220.046875 L 220.929688 236.5 C 220.929688 241.386719 220.105469 246.183594 218.554688 250.714844 C 218.550781 250.730469 218.546875 250.746094 218.539062 250.765625 C 216.140625 257.757812 212.003906 264.117188 206.40625 269.183594 L 197.691406 269.183594 C 196.601562 269.183594 195.722656 270.0625 195.722656 271.148438 C 195.722656 272.234375 196.601562 273.113281 197.691406 273.113281 L 224.25 273.113281 C 222.492188 275.40625 221.390625 278.105469 221.046875 280.976562 L 205.460938 280.976562 C 204.375 280.976562 203.492188 281.855469 203.492188 282.941406 C 203.492188 284.027344 204.375 284.90625 205.460938 284.90625 L 222.898438 284.90625 C 223.984375 284.90625 224.863281 284.027344 224.863281 282.941406 C 224.863281 279.664062 226.140625 276.582031 228.460938 274.269531 L 230.191406 272.539062 C 230.753906 271.976562 230.925781 271.132812 230.617188 270.398438 C 230.316406 269.664062 229.597656 269.183594 228.800781 269.183594 L 211.996094 269.183594 C 216.265625 264.59375 219.5625 259.246094 221.75 253.460938 L 232.738281 253.460938 C 242.503906 253.460938 250.445312 245.523438 250.445312 235.769531 L 250.445312 220.046875 C 250.445312 214.628906 246.03125 210.21875 240.609375 210.21875 Z M 154.023438 216.117188 L 154.023438 210.21875 L 220.929688 210.21875 L 220.929688 216.117188 Z M 224.863281 223.976562 L 236.671875 223.976562 L 236.671875 235.769531 C 236.671875 237.9375 234.90625 239.703125 232.738281 239.703125 L 224.746094 239.703125 C 224.816406 238.636719 224.863281 237.570312 224.863281 236.5 Z M 246.511719 235.769531 C 246.511719 243.355469 240.332031 249.527344 232.738281 249.527344 L 223.050781 249.527344 C 223.597656 247.597656 224.019531 245.628906 224.320312 243.632812 L 232.738281 243.632812 C 237.078125 243.632812 240.609375 240.105469 240.609375 235.769531 L 240.609375 222.011719 C 240.609375 220.925781 239.726562 220.046875 238.640625 220.046875 L 224.863281 220.046875 L 224.863281 214.152344 L 240.609375 214.152344 C 243.863281 214.152344 246.511719 216.796875 246.511719 220.046875 Z M 246.511719 235.769531 " fill-opacity="1" fill-rule="nonzero"/></g><g clip-path="url(#d16d04684f)"><path fill="#000000" d="M 193.183594 272.535156 L 193.199219 272.460938 C 193.894531 269.742188 193.390625 266.855469 191.824219 264.539062 C 190.253906 262.21875 187.753906 260.671875 184.960938 260.296875 L 179.578125 259.578125 C 179.179688 258.605469 178.625 257.691406 177.921875 256.875 C 176.050781 254.703125 173.332031 253.460938 170.464844 253.460938 L 157.257812 253.460938 C 154.390625 253.460938 151.675781 254.703125 149.804688 256.875 C 149.101562 257.691406 148.546875 258.605469 148.148438 259.578125 L 142.761719 260.296875 C 139.972656 260.671875 137.472656 262.21875 135.902344 264.539062 C 134.335938 266.855469 133.832031 269.742188 134.523438 272.460938 L 134.542969 272.535156 C 128.253906 277.359375 124.503906 284.808594 124.503906 292.789062 C 124.503906 296.039062 127.152344 298.683594 130.410156 298.683594 C 131.183594 298.683594 131.953125 298.527344 132.679688 298.222656 L 142.835938 294.015625 C 145.078125 295.765625 147.875 296.78125 150.832031 296.78125 C 151.410156 296.78125 151.992188 296.742188 152.574219 296.664062 C 154.273438 296.433594 155.894531 295.867188 157.347656 295.023438 C 159.28125 296.089844 161.5 296.699219 163.863281 296.699219 C 166.226562 296.699219 168.445312 296.089844 170.375 295.023438 C 171.828125 295.867188 173.453125 296.433594 175.152344 296.664062 C 175.734375 296.742188 176.316406 296.78125 176.890625 296.78125 C 179.847656 296.78125 182.648438 295.765625 184.890625 294.015625 L 195.035156 298.214844 C 195.773438 298.527344 196.539062 298.683594 197.316406 298.683594 C 200.570312 298.683594 203.21875 296.039062 203.21875 292.789062 C 203.21875 284.808594 199.472656 277.359375 193.183594 272.535156 Z M 131.160156 294.59375 C 129.945312 295.105469 128.441406 294.316406 128.441406 292.789062 C 128.441406 286.609375 131.082031 280.789062 135.605469 276.714844 L 138.226562 286.988281 C 138.597656 288.429688 139.199219 289.757812 139.984375 290.941406 Z M 152.046875 292.765625 C 149.257812 293.144531 146.570312 292.191406 144.632812 290.378906 C 144.589844 290.332031 144.539062 290.296875 144.492188 290.253906 C 143.335938 289.125 142.464844 287.679688 142.039062 286.015625 L 138.339844 271.488281 C 137.917969 269.835938 138.210938 268.148438 139.164062 266.738281 C 140.121094 265.328125 141.582031 264.421875 143.285156 264.195312 L 147.429688 263.640625 C 147.441406 264.007812 147.472656 264.378906 147.53125 264.746094 L 150.617188 285.308594 C 151.023438 288.015625 152.210938 290.40625 153.917969 292.300781 C 153.320312 292.515625 152.699219 292.679688 152.046875 292.765625 Z M 154.507812 284.722656 L 151.421875 264.160156 C 151.304688 263.398438 151.363281 262.632812 151.542969 261.898438 C 151.550781 261.875 151.550781 261.851562 151.554688 261.824219 C 151.78125 260.957031 152.183594 260.136719 152.785156 259.441406 C 153.910156 258.136719 155.539062 257.390625 157.257812 257.390625 L 170.464844 257.390625 C 172.183594 257.390625 173.816406 258.136719 174.9375 259.441406 C 175.539062 260.136719 175.945312 260.957031 176.167969 261.824219 C 176.175781 261.851562 176.175781 261.875 176.179688 261.898438 C 176.359375 262.632812 176.417969 263.398438 176.304688 264.160156 L 173.214844 284.722656 C 172.515625 289.386719 168.582031 292.769531 163.863281 292.769531 C 159.140625 292.769531 155.210938 289.386719 154.507812 284.722656 Z M 175.679688 292.769531 C 175.027344 292.679688 174.40625 292.515625 173.808594 292.300781 C 175.515625 290.40625 176.699219 288.015625 177.105469 285.308594 L 180.195312 264.746094 C 180.25 264.378906 180.28125 264.007812 180.296875 263.640625 L 184.4375 264.195312 C 186.140625 264.421875 187.605469 265.328125 188.5625 266.742188 C 189.515625 268.148438 189.808594 269.835938 189.386719 271.488281 L 185.6875 286.011719 C 185.257812 287.675781 184.386719 289.125 183.230469 290.257812 C 183.183594 290.296875 183.132812 290.328125 183.089844 290.375 C 181.15625 292.1875 178.46875 293.144531 175.679688 292.769531 Z M 196.554688 294.589844 L 187.742188 290.941406 C 188.523438 289.757812 189.128906 288.429688 189.5 286.984375 L 192.117188 276.714844 C 196.640625 280.789062 199.285156 286.609375 199.285156 292.789062 C 199.28125 294.320312 197.8125 295.121094 196.554688 294.589844 Z M 196.554688 294.589844 " fill-opacity="1" fill-rule="nonzero"/></g><path fill="#000000" d="M 192.898438 197.574219 L 191.742188 199.300781 C 191.140625 200.203125 191.382812 201.425781 192.289062 202.027344 C 192.621094 202.25 193.003906 202.359375 193.378906 202.359375 C 194.015625 202.359375 194.636719 202.050781 195.015625 201.484375 L 196.171875 199.753906 C 198.300781 196.5625 197.875 192.277344 195.160156 189.566406 C 193.546875 187.949219 193.546875 185.320312 195.160156 183.703125 L 196.738281 182.128906 C 197.507812 181.359375 197.507812 180.117188 196.738281 179.347656 C 195.96875 178.582031 194.726562 178.582031 193.957031 179.347656 L 192.378906 180.925781 C 189.226562 184.074219 189.226562 189.195312 192.378906 192.34375 C 193.773438 193.734375 193.992188 195.933594 192.898438 197.574219 Z M 192.898438 197.574219 " fill-opacity="1" fill-rule="nonzero"/><g clip-path="url(#08eacfa585)"><path fill="#000000" d="M 179.121094 191.675781 L 177.96875 193.40625 C 177.363281 194.308594 177.609375 195.53125 178.511719 196.132812 C 178.847656 196.355469 179.226562 196.460938 179.601562 196.460938 C 180.238281 196.460938 180.863281 196.15625 181.242188 195.585938 L 182.394531 193.855469 C 184.527344 190.667969 184.101562 186.382812 181.386719 183.667969 C 179.769531 182.054688 179.769531 179.421875 181.386719 177.808594 L 182.964844 176.230469 C 183.734375 175.464844 183.734375 174.21875 182.964844 173.453125 C 182.195312 172.683594 180.949219 172.683594 180.179688 173.453125 L 178.605469 175.027344 C 175.449219 178.175781 175.449219 183.300781 178.605469 186.449219 C 179.996094 187.839844 180.214844 190.039062 179.121094 191.675781 Z M 179.121094 191.675781 " fill-opacity="1" fill-rule="nonzero"/></g><g fill="#000000" fill-opacity="1"><g transform="translate(110.400677, 188.0044)"><g><path d="M 6.34375 -25.21875 L 6.453125 -25.078125 C 8.410156 -26.316406 10.195312 -26.691406 11.8125 -26.203125 C 13.4375 -25.722656 15.035156 -24.453125 16.609375 -22.390625 C 18.492188 -19.921875 19.144531 -17.75 18.5625 -15.875 C 17.988281 -14 16.179688 -11.898438 13.140625 -9.578125 C 8.554688 -6.078125 5.015625 -3.523438 2.515625 -1.921875 L -16.3125 -26.609375 C -14.34375 -28.410156 -11.328125 -30.859375 -7.265625 -33.953125 C -3.984375 -36.460938 -1.367188 -37.75 0.578125 -37.8125 C 2.523438 -37.882812 4.453125 -36.671875 6.359375 -34.171875 C 7.722656 -32.378906 8.414062 -30.765625 8.4375 -29.328125 C 8.457031 -27.898438 7.757812 -26.53125 6.34375 -25.21875 Z M -3.296875 -20.578125 L 0.65625 -23.59375 C 2 -24.625 2.75 -25.539062 2.90625 -26.34375 C 3.070312 -27.144531 2.675781 -28.175781 1.71875 -29.4375 C 0.769531 -30.675781 -0.117188 -31.296875 -0.953125 -31.296875 C -1.796875 -31.304688 -2.945312 -30.753906 -4.40625 -29.640625 L -8.09375 -26.875 Z M 4.921875 -9.8125 L 9.0625 -12.96875 C 10.5625 -14.113281 11.40625 -15.109375 11.59375 -15.953125 C 11.78125 -16.796875 11.359375 -17.894531 10.328125 -19.25 C 9.203125 -20.726562 8.164062 -21.515625 7.21875 -21.609375 C 6.28125 -21.703125 5.03125 -21.171875 3.46875 -20.015625 L -0.53125 -16.96875 Z M 4.921875 -9.8125 "/></g></g></g><g fill="#000000" fill-opacity="1"><g transform="translate(132.150036, 171.194815)"><g><path d="M 25.453125 -10.75 L 18.78125 -7.9375 L 12.921875 -15.765625 C 12.253906 -16.566406 11.617188 -17.039062 11.015625 -17.1875 C 10.421875 -17.34375 9.695312 -17.242188 8.84375 -16.890625 L 4.390625 -15.0625 L 9.125 -3.859375 L 2.90625 -1.234375 L -9.171875 -29.828125 C -6.710938 -31.148438 -3.132812 -32.804688 1.5625 -34.796875 C 5.40625 -36.421875 8.382812 -36.960938 10.5 -36.421875 C 12.613281 -35.890625 14.347656 -34.023438 15.703125 -30.828125 C 16.585938 -28.722656 16.859375 -26.894531 16.515625 -25.34375 C 16.179688 -23.800781 15.085938 -22.488281 13.234375 -21.40625 L 13.3125 -21.21875 C 15.71875 -21.644531 17.679688 -20.773438 19.203125 -18.609375 Z M 2.34375 -19.90625 L 6.890625 -21.828125 C 8.546875 -22.523438 9.554688 -23.285156 9.921875 -24.109375 C 10.296875 -24.929688 10.148438 -26.128906 9.484375 -27.703125 C 8.828125 -29.273438 8.082031 -30.210938 7.25 -30.515625 C 6.425781 -30.816406 5.171875 -30.613281 3.484375 -29.90625 L -1.046875 -27.9375 Z M 2.34375 -19.90625 "/></g></g></g><g fill="#000000" fill-opacity="1"><g transform="translate(157.508623, 160.178592)"><g><path d="M 23.1875 -34.609375 L 25.78125 -16.109375 C 26.4375 -11.421875 26 -7.984375 24.46875 -5.796875 C 22.9375 -3.617188 19.972656 -2.21875 15.578125 -1.59375 C 10.953125 -0.945312 7.554688 -1.457031 5.390625 -3.125 C 3.234375 -4.789062 1.828125 -7.96875 1.171875 -12.65625 L -1.421875 -31.15625 L 5.359375 -32.109375 L 7.953125 -13.609375 C 8.347656 -10.785156 9.007812 -8.910156 9.9375 -7.984375 C 10.875 -7.054688 12.394531 -6.742188 14.5 -7.046875 C 16.582031 -7.335938 17.941406 -8.054688 18.578125 -9.203125 C 19.222656 -10.347656 19.347656 -12.332031 18.953125 -15.15625 L 16.359375 -33.65625 Z M 23.1875 -34.609375 "/></g></g></g><g fill="#000000" fill-opacity="1"><g transform="translate(186.319808, 155.791191)"><g><path d="M 33.234375 -26.828125 L 29.40625 1.484375 C 29.1875 3.117188 28.269531 3.828125 26.65625 3.609375 L 22.4375 3.03125 C 21.75 2.9375 21.234375 2.707031 20.890625 2.34375 C 20.546875 1.988281 20.242188 1.425781 19.984375 0.65625 L 14.125 -16.828125 C 13.414062 -19.140625 13.007812 -20.816406 12.90625 -21.859375 L 12.421875 -21.9375 C 12.421875 -20.425781 12.296875 -18.773438 12.046875 -16.984375 L 9.578125 1.296875 L 3.125 0.421875 L 6.953125 -27.890625 C 7.171875 -29.523438 8.097656 -30.234375 9.734375 -30.015625 L 13.875 -29.453125 C 14.5625 -29.359375 15.078125 -29.128906 15.421875 -28.765625 C 15.765625 -28.410156 16.070312 -27.847656 16.34375 -27.078125 L 21.984375 -10.109375 C 22.535156 -8.515625 23.054688 -6.757812 23.546875 -4.84375 L 23.984375 -4.796875 C 24.117188 -7.128906 24.265625 -8.863281 24.421875 -10 L 26.8125 -27.703125 Z M 33.234375 -26.828125 "/></g></g></g><g fill="#000000" fill-opacity="1"><g transform="translate(217.189729, 160.194227)"><g><path d="M 24.890625 3.984375 L 23.484375 8.90625 C 20.671875 8.664062 17.445312 7.796875 13.8125 6.296875 C 9.375 4.460938 6.710938 2.066406 5.828125 -0.890625 C 4.941406 -3.859375 5.625 -8.070312 7.875 -13.53125 C 10.132812 -19 12.625 -22.46875 15.34375 -23.9375 C 18.0625 -25.414062 21.640625 -25.238281 26.078125 -23.40625 C 29.296875 -22.082031 32.035156 -20.582031 34.296875 -18.90625 L 31.78125 -14.375 C 29.601562 -15.445312 26.945312 -16.628906 23.8125 -17.921875 C 21.738281 -18.785156 20.046875 -18.710938 18.734375 -17.703125 C 17.421875 -16.691406 16.019531 -14.382812 14.53125 -10.78125 C 13.039062 -7.175781 12.40625 -4.5625 12.625 -2.9375 C 12.851562 -1.3125 14.003906 -0.0664062 16.078125 0.796875 C 19.929688 2.378906 22.867188 3.441406 24.890625 3.984375 Z M 24.890625 3.984375 "/></g></g></g><g fill="#000000" fill-opacity="1"><g transform="translate(240.686027, 169.432173)"><g><path d="M 40.875 -8.171875 L 22.265625 16.671875 L 16.78125 12.5625 L 25.09375 1.46875 L 16.296875 -5.109375 L 7.984375 5.984375 L 2.53125 1.890625 L 21.140625 -22.953125 L 26.59375 -18.859375 L 19.484375 -9.359375 L 28.28125 -2.78125 L 35.390625 -12.28125 Z M 40.875 -8.171875 "/></g></g></g><g fill="#000000" fill-opacity="1"><g transform="translate(103.630332, 138.838055)"><g><path d="M -0.421875 -34.765625 L -8.515625 -27.171875 C -9.160156 -26.566406 -9.492188 -26.003906 -9.515625 -25.484375 C -9.546875 -24.960938 -9.285156 -24.410156 -8.734375 -23.828125 L -5.09375 -19.953125 L 3.578125 -28.09375 L 7 -24.453125 L -1.671875 -16.3125 L 7.25 -6.796875 L 2.234375 -2.09375 L -14.703125 -20.140625 C -16.054688 -21.585938 -16.675781 -23.160156 -16.5625 -24.859375 C -16.445312 -26.554688 -15.632812 -28.113281 -14.125 -29.53125 C -9.3125 -34.039062 -5.804688 -37.09375 -3.609375 -38.6875 Z M -0.421875 -34.765625 "/></g></g></g><g fill="#000000" fill-opacity="1"><g transform="translate(120.904525, 122.153917)"><g><path d="M 24.03125 -13.625 L 17.734375 -10.0625 L 11.015625 -17.171875 C 10.253906 -17.878906 9.566406 -18.273438 8.953125 -18.359375 C 8.347656 -18.441406 7.640625 -18.253906 6.828125 -17.796875 L 2.609375 -15.46875 L 8.609375 -4.890625 L 2.75 -1.5625 L -12.5625 -28.5625 C -10.28125 -30.164062 -6.921875 -32.226562 -2.484375 -34.75 C 1.140625 -36.8125 4.035156 -37.695312 6.203125 -37.40625 C 8.367188 -37.113281 10.304688 -35.453125 12.015625 -32.421875 C 13.140625 -30.441406 13.625 -28.664062 13.46875 -27.09375 C 13.3125 -25.519531 12.375 -24.09375 10.65625 -22.8125 L 10.765625 -22.609375 C 13.085938 -23.304688 15.140625 -22.671875 16.921875 -20.703125 Z M 0.015625 -20.046875 L 4.3125 -22.484375 C 5.882812 -23.367188 6.804688 -24.238281 7.078125 -25.09375 C 7.347656 -25.957031 7.0625 -27.132812 6.21875 -28.625 C 5.375 -30.113281 4.519531 -30.957031 3.65625 -31.15625 C 2.800781 -31.363281 1.578125 -31.015625 -0.015625 -30.109375 L -4.28125 -27.625 Z M 0.015625 -20.046875 "/></g></g></g><g fill="#000000" fill-opacity="1"><g transform="translate(144.812651, 108.268068)"><g><path d="M 19 -37.0625 L 23.71875 -19 C 24.925781 -14.414062 24.894531 -10.953125 23.625 -8.609375 C 22.351562 -6.265625 19.570312 -4.53125 15.28125 -3.40625 C 10.757812 -2.21875 7.332031 -2.320312 5 -3.71875 C 2.664062 -5.125 0.894531 -8.117188 -0.3125 -12.703125 L -5.03125 -30.765625 L 1.59375 -32.5 L 6.3125 -14.4375 C 7.039062 -11.675781 7.921875 -9.890625 8.953125 -9.078125 C 9.992188 -8.273438 11.539062 -8.144531 13.59375 -8.6875 C 15.625 -9.21875 16.890625 -10.085938 17.390625 -11.296875 C 17.890625 -12.503906 17.773438 -14.488281 17.046875 -17.25 L 12.328125 -35.3125 Z M 19 -37.0625 "/></g></g></g><g fill="#000000" fill-opacity="1"><g transform="translate(173.207645, 100.813736)"><g><path d="M 12.359375 -13.65625 L 9.703125 -13.671875 C 9.898438 -12.460938 10 -11.46875 10 -10.6875 L 9.984375 0.015625 L 3.15625 0 L 3.21875 -31.046875 L 10.046875 -31.03125 L 10.03125 -22.265625 C 10.03125 -20.941406 9.921875 -19.707031 9.703125 -18.5625 L 12.359375 -18.546875 L 20.265625 -31 L 27.6875 -31 L 19.65625 -18.640625 C 19.144531 -17.742188 18.394531 -16.921875 17.40625 -16.171875 L 17.40625 -15.984375 C 18.476562 -15.234375 19.347656 -14.320312 20.015625 -13.25 L 28.171875 0.046875 L 20.515625 0.046875 Z M 12.359375 -13.65625 "/></g></g></g><g fill="#000000" fill-opacity="1"><g transform="translate(200.345314, 100.547665)"><g><path d="M 12.09375 -25.953125 C 14.5625 -27.671875 18.203125 -27.890625 23.015625 -26.609375 C 27.828125 -25.328125 30.878906 -23.328125 32.171875 -20.609375 C 33.460938 -17.890625 33.316406 -13.554688 31.734375 -7.609375 C 30.148438 -1.660156 28.117188 2.164062 25.640625 3.875 C 23.171875 5.59375 19.53125 5.8125 14.71875 4.53125 C 9.90625 3.25 6.859375 1.253906 5.578125 -1.453125 C 4.296875 -4.171875 4.445312 -8.503906 6.03125 -14.453125 C 7.613281 -20.398438 9.632812 -24.234375 12.09375 -25.953125 Z M 25.65625 -17.875 C 25.207031 -19.519531 23.847656 -20.644531 21.578125 -21.25 C 19.316406 -21.851562 17.582031 -21.554688 16.375 -20.359375 C 15.175781 -19.160156 14.046875 -16.578125 12.984375 -12.609375 C 11.929688 -8.640625 11.628906 -5.832031 12.078125 -4.1875 C 12.523438 -2.539062 13.878906 -1.414062 16.140625 -0.8125 C 18.410156 -0.207031 20.144531 -0.503906 21.34375 -1.703125 C 22.550781 -2.910156 23.679688 -5.5 24.734375 -9.46875 C 25.796875 -13.4375 26.101562 -16.238281 25.65625 -17.875 Z M 25.65625 -17.875 "/></g></g></g><g fill="#000000" fill-opacity="1"><g transform="translate(228.915128, 108.305559)"><g><path d="M 18.5 -3.109375 L 14.125 -8.078125 C 12.507812 -9.941406 11.617188 -11.742188 11.453125 -13.484375 C 11.296875 -15.222656 11.789062 -17.113281 12.9375 -19.15625 C 14.601562 -22.132812 16.445312 -23.722656 18.46875 -23.921875 C 20.488281 -24.117188 23.332031 -23.191406 27 -21.140625 C 30.457031 -19.210938 33.226562 -17.203125 35.3125 -15.109375 L 32.640625 -11.21875 C 30.410156 -12.582031 27.609375 -14.207031 24.234375 -16.09375 C 22.660156 -16.96875 21.53125 -17.414062 20.84375 -17.4375 C 20.164062 -17.46875 19.519531 -16.929688 18.90625 -15.828125 C 18.40625 -14.941406 18.238281 -14.191406 18.40625 -13.578125 C 18.582031 -12.960938 19.117188 -12.160156 20.015625 -11.171875 L 24.171875 -6.515625 C 25.867188 -4.628906 26.789062 -2.804688 26.9375 -1.046875 C 27.082031 0.710938 26.585938 2.609375 25.453125 4.640625 C 23.753906 7.679688 21.867188 9.332031 19.796875 9.59375 C 17.722656 9.851562 14.796875 8.929688 11.015625 6.828125 C 7.953125 5.109375 5.039062 3.039062 2.28125 0.625 L 5.0625 -3.515625 C 10.5625 -0.265625 13.503906 1.46875 13.890625 1.6875 C 15.492188 2.582031 16.660156 3.007812 17.390625 2.96875 C 18.117188 2.925781 18.78125 2.367188 19.375 1.296875 C 19.894531 0.378906 20.078125 -0.367188 19.921875 -0.953125 C 19.765625 -1.535156 19.289062 -2.253906 18.5 -3.109375 Z M 18.5 -3.109375 "/></g></g></g><g fill="#000000" fill-opacity="1"><g transform="translate(251.062817, 120.518443)"><g><path d="M 36.546875 -0.921875 L 29.734375 -7.21875 L 12.46875 11.5 L 7.40625 6.828125 L 24.671875 -11.890625 L 17.859375 -18.171875 L 21.640625 -22.265625 L 40.328125 -5.015625 Z M 36.546875 -0.921875 "/></g></g></g></svg>