<svg xmlns="http://www.w3.org/2000/svg" xmlns:xlink="http://www.w3.org/1999/xlink" width="500" zoomAndPan="magnify" viewBox="0 0 375 374.999991" height="500" preserveAspectRatio="xMidYMid meet" version="1.0"><defs><g/><clipPath id="33da19b01b"><path d="M 45.238281 45.238281 L 329.761719 45.238281 L 329.761719 329.761719 L 45.238281 329.761719 Z M 45.238281 45.238281 " clip-rule="nonzero"/></clipPath><clipPath id="ec73dfa4f3"><path d="M 187.5 45.238281 C 108.929688 45.238281 45.238281 108.929688 45.238281 187.5 C 45.238281 266.070312 108.929688 329.761719 187.5 329.761719 C 266.070312 329.761719 329.761719 266.070312 329.761719 187.5 C 329.761719 108.929688 266.070312 45.238281 187.5 45.238281 Z M 187.5 45.238281 " clip-rule="nonzero"/></clipPath><clipPath id="56108d48b8"><path d="M 78 161 L 291 161 L 291 250 L 78 250 Z M 78 161 " clip-rule="nonzero"/></clipPath><clipPath id="00747965ef"><path d="M 74.390625 180.527344 L 209.945312 94.59375 L 300.703125 237.75 L 165.148438 323.683594 Z M 74.390625 180.527344 " clip-rule="nonzero"/></clipPath><clipPath id="12de721acd"><path d="M 74.390625 180.527344 L 209.945312 94.59375 L 300.703125 237.75 L 165.148438 323.683594 Z M 74.390625 180.527344 " clip-rule="nonzero"/></clipPath><clipPath id="f0d416acd3"><path d="M 78 161 L 291 161 L 291 251 L 78 251 Z M 78 161 " clip-rule="nonzero"/></clipPath><clipPath id="8bab643ac2"><path d="M 74.390625 180.527344 L 209.945312 94.59375 L 300.703125 237.75 L 165.148438 323.683594 Z M 74.390625 180.527344 " clip-rule="nonzero"/></clipPath><clipPath id="88aa069498"><path d="M 74.390625 180.527344 L 209.945312 94.59375 L 300.703125 237.75 L 165.148438 323.683594 Z M 74.390625 180.527344 " clip-rule="nonzero"/></clipPath><clipPath id="30b32de668"><path d="M 74.46875 180.480469 L 209.859375 94.648438 L 300.363281 237.40625 L 164.972656 323.238281 Z M 74.46875 180.480469 " clip-rule="nonzero"/></clipPath></defs><g clip-path="url(#33da19b01b)"><g clip-path="url(#ec73dfa4f3)"><path fill="#f2f2f0" d="M 45.238281 45.238281 L 329.761719 45.238281 L 329.761719 329.761719 L 45.238281 329.761719 Z M 45.238281 45.238281 " fill-opacity="1" fill-rule="nonzero"/></g></g><g clip-path="url(#56108d48b8)"><g clip-path="url(#00747965ef)"><g clip-path="url(#12de721acd)"><path fill="#000000" d="M 287 231.332031 C 286.597656 232.527344 286.722656 233.851562 286.847656 235.085938 C 286.898438 235.59375 287.042969 236.148438 286.9375 236.65625 C 286.839844 237.136719 286.3125 237.335938 286.058594 237.710938 C 285.875 237.984375 285.832031 238.339844 285.632812 238.589844 C 285.050781 239.335938 283.515625 239.425781 282.738281 239.054688 C 282.238281 238.816406 281.738281 238.183594 281.121094 238.511719 C 280.488281 238.851562 280.847656 239.550781 280.558594 240.054688 C 280.199219 240.695312 279.441406 240.714844 279.074219 241.351562 C 278.71875 241.96875 279.078125 242.585938 278.871094 243.210938 C 278.871094 243.21875 277.792969 244.855469 277.785156 244.863281 C 277.582031 245.023438 276.984375 245.175781 276.882812 245.445312 C 276.601562 246.171875 277.578125 246.203125 277.816406 246.691406 C 277.96875 247 277.574219 247.355469 277.652344 247.714844 C 277.769531 248.242188 279.476562 249.617188 280.0625 249.824219 C 280.746094 250.070312 280.613281 249.050781 280.851562 248.683594 C 281.203125 248.148438 281.710938 247.871094 282.292969 247.632812 C 282.789062 247.425781 283.371094 247.554688 283.863281 247.359375 C 284.238281 247.207031 284.246094 246.78125 284.515625 246.535156 C 284.800781 246.277344 285.253906 246.25 285.535156 245.980469 C 285.859375 245.664062 285.699219 244.925781 286.085938 244.6875 C 286.550781 244.40625 287.167969 244.53125 287.652344 244.308594 C 287.9375 244.183594 288.117188 243.738281 288.359375 243.535156 C 288.644531 243.300781 289.03125 243.199219 289.300781 242.949219 C 289.375 242.882812 290.574219 240.652344 290.59375 240.574219 C 290.785156 239.597656 289.988281 238.917969 289.839844 238.011719 C 289.691406 237.09375 290.121094 236.171875 290.128906 235.253906 C 290.136719 234.117188 289.390625 233.449219 288.914062 232.492188 C 288.726562 232.121094 288.652344 231.679688 288.417969 231.335938 C 287.875 230.539062 287.367188 230.253906 287 231.332031 Z M 286.480469 228.351562 C 286.085938 228.78125 286.324219 229.472656 285.675781 229.644531 C 285.382812 229.722656 284.996094 229.167969 284.777344 229.027344 C 284.609375 228.917969 284.425781 228.832031 284.25 228.734375 C 283.066406 228.078125 284.015625 227.792969 284.316406 227.019531 C 284.496094 226.5625 284.457031 226.101562 284.78125 225.710938 C 285.117188 225.308594 287.570312 225.355469 287.808594 226.066406 C 287.964844 226.539062 287.277344 227.003906 287.113281 227.359375 C 286.949219 227.707031 286.679688 228.015625 286.480469 228.351562 Z M 273.734375 207.035156 C 272.585938 207.554688 272.394531 208.410156 271.816406 208.871094 C 271.40625 209.199219 270.777344 208.980469 270.296875 209.09375 C 269.988281 209.164062 269.433594 209.4375 269.128906 209.207031 C 268.953125 209.074219 269.03125 208.539062 268.972656 208.367188 C 268.757812 207.773438 267.917969 207.070312 268.773438 206.597656 C 269.082031 206.425781 269.417969 206.671875 269.730469 206.523438 C 270.347656 206.230469 270.71875 205.5 271.457031 205.410156 C 271.980469 205.339844 272.667969 205.734375 273.132812 205.578125 C 273.382812 205.492188 273.488281 205.074219 273.746094 204.933594 C 274.414062 204.582031 274.925781 204.707031 275.585938 204.558594 C 276.03125 204.457031 276.460938 204.160156 276.925781 204.160156 C 277.1875 204.164062 277.433594 204.296875 277.703125 204.289062 C 278.132812 204.28125 278.605469 203.992188 279.015625 204.21875 C 279.609375 204.542969 279.253906 205.851562 278.699219 206.085938 C 277.757812 206.484375 276.839844 205.703125 275.875 205.785156 C 274.632812 205.886719 274.644531 206.621094 273.734375 207.035156 Z M 249.175781 214.558594 C 248.804688 214.773438 248.269531 215.125 247.863281 215.253906 C 247.664062 215.316406 247.46875 215.371094 247.261719 215.386719 C 246.28125 215.460938 246.21875 214.664062 246.5625 214.019531 C 246.628906 213.890625 246.457031 213.671875 246.546875 213.496094 C 246.660156 213.277344 246.910156 213.296875 247.023438 213.113281 C 247.117188 212.960938 247.035156 212.753906 247.113281 212.605469 C 247.203125 212.433594 247.65625 212.292969 247.664062 212.089844 C 247.671875 211.6875 247.195312 211.710938 247.496094 211.304688 C 247.792969 210.898438 248.386719 210.804688 248.769531 210.492188 C 248.949219 210.347656 249.046875 210.082031 249.3125 210.191406 C 249.753906 210.378906 249.640625 211.195312 249.335938 211.457031 C 249.226562 211.546875 248.953125 211.429688 248.820312 211.515625 C 248.761719 211.554688 248.832031 211.734375 248.855469 211.773438 C 249.109375 212.234375 249.773438 211.894531 250.140625 212.125 C 250.621094 212.421875 250.890625 212.984375 251.257812 213.394531 C 251.503906 213.671875 251.839844 213.828125 252.0625 214.136719 C 252.308594 214.488281 252.183594 214.957031 252.25 215.355469 C 252.320312 215.8125 252.613281 216.207031 252.496094 216.675781 C 252.363281 217.214844 251.988281 217.675781 251.96875 218.257812 C 251.957031 218.675781 252.160156 219.027344 252.226562 219.425781 C 252.304688 219.890625 252.1875 221.335938 251.992188 221.730469 C 251.621094 222.5 250.140625 223.324219 249.824219 224.484375 C 249.609375 225.28125 249.84375 226.105469 249.460938 226.894531 C 249.265625 227.300781 248.796875 227.515625 248.542969 227.886719 C 248.296875 228.25 248.46875 228.914062 247.84375 228.875 C 247.28125 228.84375 246.820312 228.128906 247.242188 227.652344 C 247.503906 227.355469 247.921875 227.292969 248.1875 226.996094 C 248.324219 226.84375 248.554688 226.648438 248.527344 226.421875 C 248.492188 226.109375 248.226562 225.847656 248.203125 225.546875 C 248.183594 225.339844 248.429688 225.148438 248.398438 224.90625 C 248.375 224.71875 248.1875 224.628906 248.265625 224.417969 C 248.289062 224.359375 249.03125 223.234375 249.0625 223.199219 C 249.207031 223.035156 249.488281 222.867188 249.53125 222.640625 C 249.65625 221.964844 249.035156 221.6875 249 221.242188 C 248.960938 220.753906 249.726562 220.574219 249.886719 220.175781 C 250.164062 219.503906 249.65625 218.761719 250.007812 218.0625 C 250.378906 217.328125 251.472656 216.960938 251.507812 216.0625 C 251.578125 214.335938 249.695312 214.257812 249.175781 214.558594 Z M 239.867188 216.507812 C 239.164062 215.664062 238.246094 215.652344 237.46875 215.308594 C 237.203125 215.1875 236.6875 214.734375 236.753906 214.382812 C 236.898438 213.585938 237.789062 213.558594 238.402344 213.511719 C 238.976562 213.46875 239.410156 213.046875 240.011719 213.160156 C 240.410156 213.234375 240.621094 213.542969 240.972656 213.6875 C 241.136719 213.753906 242.460938 213.910156 242.574219 213.875 C 243.03125 213.75 245.195312 212.460938 245.566406 212.847656 C 245.992188 213.289062 245.359375 214.835938 244.992188 215.152344 C 244.648438 215.449219 244.296875 214.894531 243.921875 215.09375 C 243.183594 215.480469 242.738281 216.050781 241.875 216.308594 C 241.59375 216.394531 241.300781 216.113281 241.0625 216.167969 C 240.65625 216.261719 240.667969 217.46875 239.867188 216.507812 Z M 216.914062 216.910156 C 215.5625 216.550781 215.28125 215.234375 214.488281 214.417969 C 214.242188 214.167969 213.824219 213.773438 213.503906 213.621094 C 213.503906 213.625 213.476562 213.609375 213.476562 213.613281 C 213.320312 213.695312 213.40625 214.210938 213.433594 214.347656 C 213.53125 214.855469 213.921875 216.28125 214.257812 216.597656 C 214.566406 216.882812 216.320312 217.554688 216.265625 217.851562 C 216.25 217.953125 215.210938 218.046875 214.898438 218.277344 C 214.878906 218.292969 214.996094 218.429688 215.011719 218.441406 C 215.3125 218.742188 215.792969 218.820312 216.203125 218.765625 C 217.800781 218.558594 218.492188 217.347656 220.308594 217.765625 C 221.855469 218.125 223.074219 219.910156 224.171875 220.125 C 224.464844 220.179688 224.714844 220.179688 224.980469 220.34375 C 225.082031 220.40625 225.4375 220.707031 225.507812 220.550781 C 225.945312 219.550781 224.542969 218.410156 223.8125 218.035156 C 223.484375 217.867188 223.429688 217.402344 223.140625 217.195312 C 222.523438 216.75 221.242188 216.480469 220.515625 216.433594 C 219.246094 216.359375 218.179688 217.246094 216.914062 216.910156 Z M 215.308594 190.835938 C 214.996094 190.09375 215.261719 189.417969 214.832031 188.746094 C 214.484375 188.195312 213.832031 187.734375 213.746094 187.046875 C 213.714844 186.773438 213.71875 186.464844 213.84375 186.207031 C 213.945312 186.003906 214.800781 185.207031 215.070312 185.195312 C 216.324219 185.15625 217.292969 187.097656 217.097656 188.171875 C 217.027344 188.5625 216.527344 188.402344 216.484375 188.851562 C 216.453125 189.167969 216.949219 190.070312 216.902344 190.179688 C 216.691406 190.660156 215.65625 191.667969 215.308594 190.835938 Z M 207.414062 211.648438 C 207 211.214844 206.8125 210.613281 206.34375 210.214844 C 205.984375 209.910156 205.578125 210.1875 205.210938 210 C 204.855469 209.820312 204.695312 209.363281 204.34375 209.160156 C 203.945312 208.933594 202.984375 209.109375 202.933594 208.429688 C 202.851562 207.355469 205.152344 208.640625 205.464844 208.742188 C 205.9375 208.898438 208.117188 209.769531 208.429688 210.015625 C 208.957031 210.429688 209.238281 211.097656 209.804688 211.480469 C 210.378906 211.867188 211.328125 211.910156 211.695312 212.578125 C 212.109375 213.335938 211.113281 213.140625 210.730469 213.011719 C 210.25 212.851562 210.03125 212.441406 209.617188 212.277344 C 209.324219 212.160156 209.058594 212.292969 208.765625 212.222656 C 208.566406 212.171875 208.488281 211.875 208.308594 211.789062 C 207.980469 211.625 207.757812 211.929688 207.414062 211.648438 Z M 213.597656 202.25 C 213.167969 202.355469 212.660156 202.636719 212.246094 202.816406 C 211.730469 203.042969 210.832031 202.515625 211.207031 201.90625 C 211.539062 201.367188 213.140625 200.089844 213.757812 199.917969 C 214.097656 199.820312 215.0625 199.910156 214.976562 200.382812 C 214.808594 201.316406 214.546875 202.007812 213.597656 202.25 Z M 202.382812 217.519531 C 202.085938 217.570312 200.433594 218.140625 200.167969 217.753906 C 199.902344 217.371094 201.308594 216.890625 201.511719 216.851562 C 202.167969 216.71875 203.695312 217.292969 202.382812 217.519531 Z M 196.039062 219.523438 C 195.566406 219.339844 195.167969 218.808594 194.628906 218.792969 C 194.0625 218.78125 193.640625 219.253906 193.023438 219.207031 C 192.417969 219.164062 191.898438 218.796875 191.277344 218.835938 C 190.765625 218.871094 190.351562 219.234375 189.839844 219.230469 C 189.535156 219.226562 187.761719 218.429688 187.726562 218.371094 C 187.351562 217.71875 188.519531 216.785156 189.125 216.816406 C 189.492188 216.839844 189.8125 217.019531 190.167969 217.050781 C 190.554688 217.085938 190.886719 216.933594 191.277344 217.050781 C 191.777344 217.199219 192.171875 217.53125 192.710938 217.632812 C 193.519531 217.785156 194.347656 217.597656 195.140625 217.75 C 195.664062 217.847656 196.121094 218.183594 196.648438 218.246094 C 197.453125 218.34375 198.816406 217.617188 199.480469 218.289062 C 199.65625 218.46875 198.808594 219.015625 198.773438 219.035156 C 198.3125 219.246094 197.839844 219.027344 197.367188 219.089844 C 196.886719 219.152344 196.527344 219.511719 196.039062 219.523438 Z M 183.167969 192.359375 C 182.652344 191.707031 182.074219 191.125 181.214844 191.027344 C 180.269531 190.921875 179.195312 191.601562 178.71875 190.410156 C 178.113281 188.910156 181.191406 188.566406 182 188.890625 C 182.820312 189.222656 182.976562 190.019531 183.609375 190.523438 C 183.972656 190.8125 184.425781 190.910156 184.816406 191.152344 C 185.839844 191.78125 186.816406 192.472656 187.933594 192.957031 C 189.105469 193.46875 190.535156 193.253906 191.769531 193.535156 C 192.507812 193.699219 192.925781 194.359375 193.640625 194.550781 C 194.714844 194.839844 196.109375 195.066406 196.710938 196.15625 C 196.789062 196.296875 197 196.714844 196.835938 196.882812 C 196.480469 197.242188 195.703125 197.304688 195.257812 197.609375 C 194.253906 198.292969 193.523438 200.410156 192 199.546875 C 190.226562 198.542969 193.710938 196.914062 192.347656 195.800781 C 191.542969 195.140625 190.238281 195.566406 189.273438 195.230469 C 188.375 194.921875 187.226562 194.273438 186.53125 193.625 C 186.042969 193.164062 185.738281 192.601562 185.125 192.273438 C 184.371094 191.867188 183.597656 192.632812 183.167969 192.359375 Z M 157.148438 183.804688 C 157.226562 183.585938 157.324219 183.246094 157.375 183.019531 M 165.0625 188.589844 C 165.371094 188.597656 165.65625 188.40625 165.949219 188.429688 M 158.277344 184.324219 C 157.746094 183.941406 156.84375 183.644531 156.183594 183.609375 C 156.019531 183.601562 155.015625 183.699219 155.011719 183.515625 C 154.996094 182.789062 156.210938 182.605469 156.707031 182.699219 C 157.195312 182.789062 157.636719 183.128906 158.085938 183.335938 C 158.65625 183.601562 159.4375 183.8125 160.058594 183.90625 C 160.710938 184.011719 161.472656 184.117188 162.128906 184.109375 C 162.796875 184.101562 163.34375 183.941406 163.976562 184.242188 C 164.894531 184.675781 165.238281 185.609375 165.628906 186.46875 C 165.835938 186.921875 166.101562 187.359375 166.160156 187.859375 C 166.214844 188.335938 165.816406 188.679688 166.015625 189.164062 C 166.257812 189.746094 167.074219 189.921875 167.460938 190.414062 C 168.074219 191.203125 168.027344 192.089844 168.210938 193.003906 C 168.425781 194.074219 169.210938 194.96875 169.921875 195.753906 C 169.972656 195.808594 170.652344 196.476562 170.363281 196.664062 C 169.363281 197.300781 168.34375 195.496094 167.429688 195.300781 C 166.550781 195.113281 165.742188 195.582031 164.863281 195.4375 C 164.660156 195.40625 164.140625 195.335938 164.050781 195.09375 C 163.929688 194.773438 164.648438 194.273438 164.890625 194.167969 C 165.34375 193.964844 166.285156 193.96875 166.628906 193.582031 C 166.851562 193.328125 166.867188 192.824219 166.898438 192.496094 C 166.910156 192.359375 166.90625 192.222656 166.890625 192.089844 C 166.765625 191.101562 165.773438 192.148438 165.347656 191.238281 C 165.070312 190.644531 164.832031 189.828125 164.910156 189.160156 C 165 188.386719 165.410156 187.753906 164.960938 186.980469 C 164.40625 186.027344 163.117188 185.488281 162.046875 185.476562 C 161.523438 185.472656 160.992188 185.65625 160.472656 185.546875 C 159.589844 185.363281 159 184.785156 158.277344 184.324219 Z M 153.1875 184.164062 C 153.355469 184.601562 152.257812 184.636719 151.835938 184.617188 C 151.0625 184.578125 150.394531 184.195312 149.601562 184.3125 C 148.585938 184.460938 147.507812 184.6875 146.640625 185.28125 C 146.273438 185.535156 146.023438 186.425781 145.542969 186.46875 C 145.398438 186.484375 145.28125 185.554688 145.253906 185.390625 C 145.113281 184.539062 144.554688 183.839844 144.398438 183.011719 C 144.34375 182.710938 144.273438 182.273438 144.53125 182.042969 C 145.265625 181.382812 145.914062 182.160156 146.101562 182.835938 C 146.148438 183.011719 146.253906 183.472656 146.480469 183.503906 C 146.703125 183.53125 146.851562 183.167969 147.066406 183.1875 C 147.375 183.214844 147.617188 183.445312 147.945312 183.46875 C 148.417969 183.503906 148.890625 183.3125 149.363281 183.402344 C 149.90625 183.503906 150.375 183.761719 150.941406 183.785156 C 151.5 183.808594 152.929688 183.484375 153.1875 184.164062 Z M 116.78125 165.902344 C 115.601562 166.265625 114.960938 165.589844 114.328125 164.691406 C 114.109375 164.378906 113.855469 163.949219 114.246094 163.609375 C 114.457031 163.425781 114.820312 163.320312 115.074219 163.199219 C 115.265625 163.105469 115.460938 162.808594 115.660156 162.789062 C 115.675781 162.785156 115.894531 162.78125 115.886719 162.832031 C 115.867188 163.011719 115.605469 163.230469 115.550781 163.421875 C 115.441406 163.824219 116.296875 164.296875 116.585938 164.308594 C 117.105469 164.328125 117.542969 163.875 118.035156 163.773438 C 118.601562 163.65625 119.339844 163.449219 119.914062 163.46875 C 120.507812 163.492188 121.097656 163.6875 121.695312 163.734375 C 122.296875 163.777344 122.839844 163.589844 123.390625 163.964844 C 124.09375 164.441406 123.894531 165.320312 124.371094 165.945312 C 124.734375 166.417969 125.367188 166.496094 125.859375 166.78125 C 126.3125 167.046875 127.191406 168.625 127.089844 169.105469 C 127.015625 169.464844 125.992188 169.441406 125.742188 169.734375 C 125.183594 170.378906 125.152344 172.839844 125.476562 173.539062 C 126.378906 175.484375 127.890625 176.988281 128.738281 178.96875 C 129.261719 180.191406 129.871094 180.929688 128.523438 181.898438 C 127.707031 182.484375 126.394531 180.847656 125.519531 180.683594 C 124.726562 180.535156 123.144531 182.019531 122.691406 180.839844 C 122.542969 180.464844 122.875 180.183594 123.023438 179.878906 C 123.15625 179.601562 123.074219 179.289062 123.242188 178.992188 C 123.445312 178.632812 123.824219 178.40625 124.023438 178.054688 C 124.222656 177.703125 124.046875 177.21875 124.070312 176.832031 C 124.101562 176.359375 124.445312 175.980469 124.425781 175.503906 C 124.394531 174.613281 123.273438 174.683594 122.863281 174.195312 C 122.433594 173.679688 122.804688 172.761719 122.488281 172.1875 C 122.253906 171.761719 121.578125 171.589844 121.4375 171.109375 C 121.300781 170.648438 121.527344 170.136719 121.289062 169.699219 C 120.980469 169.128906 120.164062 168.753906 120.109375 168.042969 C 120.078125 167.59375 120.332031 167.167969 120.347656 166.722656 C 120.359375 166.410156 120.164062 166.160156 120.160156 165.882812 C 120.15625 165.628906 120.355469 165.25 120.089844 165.082031 C 118.785156 164.253906 117.992188 165.527344 116.78125 165.902344 Z M 106.378906 162.820312 C 106.007812 163.332031 105.75 163.804688 105.125 164.074219 C 104.65625 164.277344 104.09375 164.203125 103.605469 164.421875 C 103.050781 164.667969 102.570312 165.148438 101.976562 165.304688 C 101.40625 165.457031 100.804688 165.222656 100.242188 165.492188 C 99.773438 165.714844 98.738281 166.898438 98.3125 166.855469 C 97.757812 166.800781 98.085938 165.96875 98.320312 165.71875 C 98.570312 165.453125 98.90625 165.300781 99.195312 165.082031 C 100.84375 163.820312 102.109375 163.671875 103.910156 162.824219 C 104.519531 162.539062 104.832031 161.953125 105.328125 161.675781 C 105.855469 161.378906 106.925781 161.449219 107.496094 161.527344 C 107.96875 161.589844 108.425781 161.808594 108.890625 161.921875 C 109.261719 162.007812 109.652344 161.984375 110.027344 162.066406 C 110.558594 162.183594 111.050781 162.410156 111.574219 162.53125 C 111.882812 162.605469 114.167969 162.667969 113.820312 163.519531 C 113.703125 163.796875 113.460938 163.945312 113.289062 164.175781 C 113.148438 164.359375 113.105469 164.585938 112.9375 164.75 C 112.164062 165.511719 111.691406 164.914062 111.046875 164.410156 C 110.035156 163.617188 107.503906 161.101562 106.378906 162.820312 Z M 89.164062 186.394531 C 88.015625 186 88.726562 184.570312 89.679688 184.464844 M 101.972656 173.410156 C 100.320312 173.839844 99.761719 174.972656 98.484375 175.957031 C 97.945312 176.375 97.316406 176.671875 96.800781 177.117188 C 96.328125 177.519531 95.976562 178.058594 95.476562 178.4375 C 94.875 178.898438 94.199219 179.246094 93.644531 179.777344 C 93.101562 180.304688 92.742188 181.003906 92.210938 181.550781 C 91.570312 182.214844 90.789062 182.792969 90.230469 183.53125 C 89.324219 184.722656 89.605469 186.871094 88.179688 187.660156 C 86.796875 188.421875 83.023438 187.761719 81.53125 187.449219 C 80.695312 187.273438 79.910156 186.992188 79.121094 186.675781 C 79.113281 186.675781 78.371094 186.335938 78.402344 186.308594 C 79.546875 185.203125 82.53125 185.980469 83.894531 185.933594 C 84.503906 185.914062 85.648438 185.089844 86.148438 184.691406 C 86.617188 184.320312 87.578125 182.132812 87.035156 181.679688 C 86.695312 181.394531 85.410156 181.3125 85.257812 180.910156 C 85.101562 180.488281 85.300781 179.945312 85.253906 179.5 C 85.132812 178.308594 84.65625 177.597656 86.152344 177.648438 C 87.050781 177.683594 87.546875 178.699219 88.46875 178.667969 C 89.085938 178.644531 89.714844 178.332031 90.289062 178.125 C 91.570312 177.660156 92.550781 177.261719 93.613281 176.378906 C 93.855469 176.179688 93.96875 175.863281 94.210938 175.664062 C 94.617188 175.324219 95.183594 175.3125 95.609375 175.007812 C 96.09375 174.660156 96.449219 174.113281 96.886719 173.707031 C 97.503906 173.136719 98.230469 172.671875 98.863281 172.117188 C 99.519531 171.539062 99.519531 170.300781 100.320312 169.949219 C 100.761719 169.757812 101.371094 170.480469 101.609375 170.730469 C 101.890625 171.023438 102.277344 171.222656 102.519531 171.550781 C 103.085938 172.316406 102.851562 173.105469 101.972656 173.410156 Z M 139.453125 232.5625 C 138.992188 233.046875 138.320312 232.210938 138.359375 231.84375 C 138.398438 231.464844 138.863281 231.144531 139.058594 230.835938 C 139.3125 230.429688 139.277344 229.957031 139.582031 229.554688 C 139.925781 229.09375 140.660156 229.265625 140.589844 229.902344 C 140.492188 230.789062 139.84375 231.765625 139.453125 232.5625 Z M 152.921875 238.222656 C 152.523438 238.105469 151.75 238.375 151.5 237.953125 C 151.015625 237.117188 152.640625 235.363281 153.519531 235.578125 C 154.769531 235.886719 153.703125 238.3125 152.921875 238.222656 Z M 148.679688 237.632812 C 149.085938 237.226562 149.574219 236.726562 149.703125 236.152344 C 149.714844 236.097656 149.761719 235.308594 149.613281 235.351562 C 148.574219 235.664062 148.257812 237.21875 147.449219 237.839844 C 147.15625 238.066406 146.519531 238.371094 146.207031 237.976562 C 145.835938 237.511719 145.0625 236.488281 145.144531 235.84375 C 145.199219 235.378906 145.65625 235.046875 145.894531 234.671875 C 146.414062 233.832031 146.941406 232.738281 146.871094 231.734375 C 146.769531 230.351562 145.734375 229.332031 145.328125 228.03125 C 145.191406 227.589844 145.167969 226.691406 145.738281 226.542969 C 146.628906 226.3125 147.269531 227.15625 147.773438 227.722656 C 148.222656 228.226562 148.847656 228.539062 149.308594 229.042969 C 149.652344 229.414062 149.75 229.914062 150.085938 230.289062 C 150.433594 230.679688 151.054688 230.746094 151.335938 231.203125 C 151.621094 231.664062 151.09375 232.410156 151.046875 232.898438 C 151.042969 232.929688 151.03125 233.09375 151.070312 233.105469 C 151.511719 233.21875 151.996094 232.574219 152.457031 232.710938 C 152.863281 232.832031 153.324219 234.320312 153.210938 234.566406 C 152.851562 235.34375 151.917969 234.832031 151.398438 235.273438 C 150.617188 235.941406 151.066406 237.101562 150.410156 237.773438 C 149.957031 238.238281 148.488281 238.757812 148.679688 237.632812 Z M 144.148438 235.332031 C 143.988281 235.167969 143.992188 234.925781 143.847656 234.757812 C 143.507812 234.367188 142.589844 234.117188 142.09375 234.042969 C 141.816406 234.003906 140.71875 234.390625 140.625 234.054688 C 140.550781 233.796875 140.796875 233.507812 140.785156 233.230469 C 140.769531 232.804688 140.425781 232.46875 140.453125 232.027344 C 140.492188 231.445312 140.960938 231.226562 141.15625 230.753906 C 141.347656 230.289062 141.070312 229.84375 141.152344 229.378906 C 141.203125 229.078125 141.644531 228.882812 141.761719 228.597656 C 141.957031 228.125 141.546875 227.550781 141.753906 227.035156 C 141.839844 226.820312 142.175781 226.640625 142.304688 226.425781 C 142.90625 225.433594 143.261719 224.914062 144.390625 225.621094 C 145.511719 226.316406 143.671875 228.863281 143.84375 229.769531 C 143.976562 230.457031 145.578125 230.015625 145.894531 230.972656 C 146.328125 232.296875 145.234375 232.886719 145 234.09375 C 144.9375 234.410156 144.566406 235.324219 144.148438 235.332031 Z M 137.648438 205.542969 C 137.554688 205.792969 137.460938 206.160156 137.246094 206.34375 C 136.941406 206.609375 136.621094 206.449219 136.296875 206.578125 C 135.898438 206.734375 135.574219 207.089844 135.167969 207.210938 C 134.289062 207.46875 133.878906 206.640625 134.15625 205.90625 C 134.527344 204.933594 138.015625 202.378906 139.023438 201.90625 C 139.503906 201.683594 141.054688 201.332031 141.140625 202.160156 C 141.355469 204.273438 138.339844 204.09375 137.648438 205.542969 Z M 135.484375 231.238281 C 134.453125 230.792969 133.769531 229.671875 132.664062 229.429688 C 131.96875 229.277344 129.847656 229.089844 129.1875 229.214844 C 127.933594 229.457031 126.632812 230.152344 125.324219 230.015625 C 124.8125 229.960938 121.925781 229.085938 121.726562 228.675781 C 121.554688 228.324219 121.863281 227.683594 121.945312 227.34375 C 122.007812 227.089844 121.929688 226.769531 122.035156 226.527344 C 122.175781 226.210938 122.566406 226.105469 122.707031 225.746094 C 122.976562 225.066406 122.441406 223.976562 123.933594 224.285156 C 125.148438 224.535156 124.238281 226.667969 124.855469 226.992188 C 125.214844 227.183594 125.394531 226.238281 125.617188 226.171875 C 125.953125 226.078125 126.261719 226.703125 126.496094 226.636719 C 126.511719 226.632812 126.546875 226.578125 126.546875 226.574219 C 126.699219 226.363281 126.789062 225.257812 126.707031 224.984375 C 126.648438 224.804688 124.363281 223.257812 124.066406 223.21875 C 123.703125 223.171875 122.863281 223.460938 122.59375 223.117188 C 122.144531 222.535156 122.609375 221.96875 122.671875 221.386719 C 122.726562 220.878906 122.3125 220.421875 122.335938 219.886719 C 122.355469 219.433594 122.777344 219.140625 122.785156 218.707031 C 122.792969 218.0625 122.078125 217.769531 121.824219 217.253906 C 121.519531 216.628906 121.632812 215.828125 121.339844 215.164062 C 120.761719 213.847656 119.191406 213.355469 118.210938 212.414062 C 117.734375 211.957031 117.375 211.152344 118.050781 210.621094 C 118.816406 210.027344 119.914062 210.417969 120.746094 210.320312 C 121.558594 210.222656 121.917969 208.917969 123.097656 209.035156 C 124.085938 209.136719 124.191406 210.023438 124.773438 210.59375 C 125.003906 210.824219 125.367188 210.792969 125.527344 211.09375 C 125.695312 211.414062 125.660156 212.078125 125.90625 212.320312 C 126.242188 212.648438 127.285156 212.4375 127.765625 212.652344 C 128.660156 213.058594 129.164062 213.988281 130 214.472656 C 130.746094 214.90625 131.640625 214.484375 132.425781 214.667969 C 132.972656 214.792969 133.367188 215.25 133.859375 215.496094 C 134.554688 215.847656 135.328125 215.886719 135.964844 216.371094 C 137.101562 217.242188 137.007812 218.597656 137.832031 219.652344 C 138.292969 220.246094 139.449219 220.730469 139.648438 221.484375 C 139.769531 221.949219 138.453125 223.347656 138.21875 223.890625 C 137.859375 224.726562 138.210938 225.6875 137.894531 226.542969 C 137.578125 227.402344 136.308594 228.316406 136.046875 229.175781 C 135.789062 230.027344 136.820312 231.726562 135.484375 231.238281 " fill-opacity="1" fill-rule="nonzero"/></g></g></g><g clip-path="url(#f0d416acd3)"><g clip-path="url(#8bab643ac2)"><g clip-path="url(#88aa069498)"><g clip-path="url(#30b32de668)"><path stroke-linecap="round" transform="matrix(0.0296717, -0.0188107, -0.0188107, -0.0296717, 164.97225, 323.239755)" fill="none" stroke-linejoin="round" d="M 4334.301001 349.706925 C 4306.411307 327.10331 4289.234463 293.363733 4273.426891 261.784019 C 4266.908322 248.802161 4261.929122 233.264614 4251.65427 222.664098 C 4241.983967 212.601864 4226.270299 215.849631 4214.451118 210.70423 C 4205.870137 206.92881 4199.419607 199.038134 4190.820198 196.064291 C 4165.457135 186.998534 4127.182377 208.235353 4114.150553 229.003702 C 4105.761991 242.352328 4103.386318 265.18557 4083.54818 266.703674 C 4063.155813 268.178191 4061.138761 245.891736 4046.50981 238.183203 C 4028.106857 228.259526 4009.591213 239.339498 3991.05998 229.628795 C 3973.108135 220.209027 3972.341287 199.894621 3957.898378 188.118672 C 3957.719778 187.83695 3906.856867 164.921137 3906.549985 164.85239 C 3899.225941 164.097944 3882.536349 169.544199 3875.98695 164.612482 C 3858.1524 151.432178 3881.152905 135.797536 3879.439544 120.427604 C 3878.398771 110.687135 3863.496603 108.154478 3859.897659 98.324355 C 3854.677843 83.860891 3874.759435 24.789438 3885.690221 10.88233 C 3898.373348 -5.452186 3910.718762 21.081705 3922.043247 26.277425 C 3938.65098 33.784678 3955.085784 32.712721 3972.709486 29.570556 C 3987.790964 26.986871 3999.818514 15.01744 4014.627484 12.211568 C 4025.964373 10.158724 4032.641343 20.27553 4042.871546 22.083862 C 4053.655977 23.935782 4064.965934 17.687241 4075.835059 19.880415 C 4088.451565 22.545605 4095.853214 42.73492 4108.781562 42.569432 C 4124.24292 42.246251 4137.175167 29.834925 4152.213058 27.80547 C 4160.973349 26.464548 4172.079899 34.431413 4180.997883 35.623502 C 4191.425113 36.911979 4202.269787 33.459743 4212.559523 35.361982 C 4215.355828 35.827265 4278.178957 71.171417 4279.839163 72.751891 C 4299.323996 93.31152 4290.525786 121.796196 4300.769099 145.844915 C 4311.191012 170.175356 4335.570707 185.78874 4349.748904 207.737839 C 4367.260979 234.945735 4359.50496 262.374754 4362.634013 292.645083 C 4363.782159 304.423867 4368.725215 316.166505 4368.329741 328.002342 C 4367.421498 355.434551 4359.559525 370.029129 4334.301001 349.706925 Z M 4367.235451 429.275996 C 4351.202145 424.959104 4346.39304 404.706003 4328.184988 410.456659 C 4319.951285 413.043532 4319.108246 432.27216 4315.992656 438.986693 C 4313.621591 444.176034 4310.517695 449.040067 4307.780215 454.066753 C 4289.328002 487.881808 4316.493373 480.270375 4335.51186 494.279896 C 4346.797011 502.528482 4352.882898 514.204855 4366.630541 518.65428 C 4380.838505 523.206825 4439.097756 484.692876 4433.990983 463.970239 C 4430.543708 450.22614 4406.931569 449.529099 4397.569919 443.483963 C 4388.327336 437.626641 4377.144597 434.315795 4367.235451 429.275996 Z M 4385.691154 1135.984935 C 4350.164509 1140.998153 4332.525216 1123.349644 4311.602008 1121.079572 C 4296.740946 1119.442398 4284.955783 1134.286095 4271.678738 1138.885415 C 4263.188474 1141.898238 4245.68632 1143.778504 4241.874046 1153.962639 C 4239.672367 1159.834489 4249.706604 1171.50909 4250.917474 1176.534005 C 4254.801682 1194.082227 4245.327695 1223.785215 4273.096906 1222.110127 C 4283.135042 1221.53889 4287.460439 1210.502858 4297.235281 1209.308644 C 4316.537617 1206.945376 4336.591563 1218.850316 4355.709274 1209.758339 C 4369.364428 1203.471172 4379.879188 1183.508653 4393.435474 1180.180445 C 4400.755265 1178.436254 4409.660846 1186.876907 4418.001921 1186.328349 C 4439.418052 1184.599751 4449.814808 1173.79583 4467.947381 1167.303131 C 4480.200661 1162.957892 4495.05499 1163.546141 4506.229934 1156.461649 C 4512.462176 1152.378995 4516.354182 1145.435541 4522.952838 1141.515541 C 4533.401685 1135.154665 4549.169925 1134.900231 4555.577224 1123.202598 C 4564.909818 1106.359211 4536.420536 1080.317888 4519.513717 1083.137226 C 4490.809687 1087.906286 4480.648229 1120.678087 4456.202973 1133.410823 C 4424.792646 1149.900905 4413.882062 1132.067771 4385.691154 1135.984935 Z M 3680.635676 1329.407258 C 3668.440158 1329.898055 3650.216868 1329.602512 3638.485923 1332.695066 C 3632.744125 1334.228763 3627.215301 1335.890741 3622.000091 1338.670391 C 3597.298274 1351.829075 3607.940603 1371.938658 3626.027462 1382.194376 C 3629.588489 1384.28124 3628.790455 1392.159513 3633.629328 1395.016061 C 3639.686512 1398.548385 3645.398898 1394.268703 3650.92028 1396.955863 C 3655.495858 1399.189435 3656.679087 1405.416715 3660.819504 1407.794513 C 3665.598842 1410.557154 3678.635272 1407.031918 3681.918831 1411.79602 C 3688.2386 1421.349383 3676.424734 1428.049033 3689.847068 1433.231287 C 3703.175495 1438.473076 3718.878178 1431.677747 3732.843756 1433.356027 C 3739.366223 1434.092047 3745.762181 1438.98939 3750.480924 1432.311711 C 3758.234815 1421.07688 3743.069 1403.176771 3731.755499 1401.528613 C 3727.756829 1401.035689 3722.969339 1408.020249 3718.46676 1407.978434 C 3716.462818 1407.932366 3715.414603 1402.541036 3715.38271 1401.244764 C 3714.461713 1386.294047 3735.605337 1384.343262 3740.920124 1373.20659 C 3747.946147 1358.747026 3745.852906 1341.116591 3748.429151 1325.660193 C 3750.118416 1315.242177 3755.813084 1306.366008 3756.462638 1295.553936 C 3757.020766 1283.351685 3746.871714 1273.987908 3742.395714 1263.397314 C 3737.120617 1251.338581 3738.150761 1237.388949 3728.189523 1227.906104 C 3716.781053 1216.971066 3700.741014 1211.60525 3691.400981 1197.910761 C 3684.749171 1188.041303 3684.274321 1176.493921 3679.79832 1165.903327 C 3674.59197 1153.537713 3649.747347 1120.578096 3639.039105 1114.070157 C 3618.389824 1101.226146 3570.237459 1103.974963 3544.949523 1080.906774 C 3527.63979 1065.024072 3520.712638 1041.637664 3499.483968 1028.502719 C 3488.597125 1021.713058 3474.053929 1023.692193 3462.294282 1018.6407 C 3450.841516 1013.657954 3444.852726 995.074273 3430.422927 1005.53871 C 3417.376574 1014.862797 3417.190176 1039.072753 3434.595233 1044.099795 C 3445.411558 1047.247987 3456.412153 1042.380411 3467.322384 1045.469069 C 3472.930941 1047.047772 3481.448136 1048.230647 3484.337639 1054.03446 C 3488.161251 1062.142362 3485.764317 1072.482418 3489.784957 1080.070465 C 3492.470699 1085.345209 3501.303989 1086.196043 3504.243812 1092.494551 C 3506.53798 1097.359293 3503.399711 1102.376766 3508.492664 1106.257078 C 3509.94911 1107.308483 3544.937117 1123.042352 3546.224175 1123.411247 C 3552.199147 1125.152604 3561.520399 1124.904194 3566.006323 1129.695936 C 3579.310652 1144.036789 3568.606307 1160.170026 3574.547967 1171.411236 C 3581.050588 1183.744958 3602.194921 1176.39611 3612.117533 1183.533758 C 3629.024706 1195.458896 3628.128157 1221.040603 3647.236299 1232.491954 C 3667.349779 1244.4908 3699.239917 1236.648675 3713.777795 1257.711504 C 3741.781949 1298.146834 3697.709402 1328.720143 3680.635676 1329.407258 Z M 3427.147843 1424.416051 C 3423.103811 1455.41602 3401.214246 1469.688124 3387.765687 1489.799122 C 3383.225544 1496.758523 3377.735699 1515.510173 3384.690139 1522.949741 C 3400.309544 1539.904046 3422.137095 1526.987748 3437.594911 1518.767867 C 3452.054122 1511.049415 3468.907431 1514.583157 3481.642651 1502.691686 C 3490.090036 1494.83503 3490.457869 1484.201559 3496.706767 1475.368978 C 3499.638794 1471.272148 3529.15149 1447.427901 3532.351064 1446.452685 C 3545.243266 1442.492288 3616.913863 1440.500045 3619.941216 1425.547557 C 3623.449799 1408.446899 3584.661567 1380.904125 3571.012084 1378.893804 C 3558.223711 1376.995817 3558.225836 1395.688642 3546.174545 1396.614601 C 3522.532284 1398.569638 3503.134978 1391.646027 3478.452298 1398.605072 C 3470.381249 1400.825531 3467.624633 1412.051857 3461.06283 1414.368704 C 3449.867688 1418.306422 3431.753545 1389.110531 3427.147843 1424.416051 Z M 2869.217826 1764.562714 C 2842.203058 1793.800772 2855.504552 1829.733876 2848.883923 1861.445767 C 2846.777923 1871.206434 2842.742752 1887.061139 2837.364178 1895.605266 C 2837.304645 1895.511359 2836.885429 1896.303722 2836.825896 1896.209815 C 2831.819408 1896.619108 2826.026936 1882.913634 2824.600612 1879.210151 C 2819.208929 1865.513891 2806.869895 1825.284449 2810.123688 1812.55809 C 2813.196399 1800.999722 2845.120914 1758.117142 2839.281665 1751.813673 C 2837.358165 1749.610223 2810.950074 1763.192375 2799.925027 1762.41454 C 2799.217358 1762.336579 2799.950897 1757.263825 2800.147924 1756.74397 C 2802.794687 1744.929041 2813.154589 1735.728273 2823.848303 1730.791951 C 2865.41158 1711.419808 2900.488533 1729.993569 2937.785241 1692.262413 C 2969.495363 1660.047678 2971.587547 1598.557673 2994.701094 1576.663857 C 3000.910656 1570.884143 3006.92071 1567.073996 3010.805984 1559.081617 C 3012.295031 1556.031232 3016.256494 1543.382833 3020.328163 1546.067513 C 3046.086344 1563.439972 3029.757493 1612.233384 3017.912087 1632.381237 C 3012.583834 1641.420059 3018.353626 1653.428472 3014.559779 1662.81103 C 3006.509282 1682.922738 2979.815571 1708.929329 2963.063255 1721.129453 C 2933.674588 1742.262089 2894.523838 1737.197836 2869.217826 1764.562714 Z M 3228.008405 2415.860827 C 3231.807211 2438.465857 3248.492196 2450.663503 3248.402185 2473.364212 C 3248.438683 2491.903597 3239.781157 2512.926735 3248.193105 2530.764121 C 3251.609196 2537.813886 3256.406253 2545.173012 3263.340494 2549.465807 C 3268.877822 2552.801104 3301.588317 2558.920304 3308.246507 2555.094211 C 3338.986019 2536.923015 3332.686807 2475.486873 3311.619728 2452.6391 C 3303.976046 2444.319995 3294.396814 2455.790479 3286.517479 2445.646033 C 3280.944005 2438.515827 3279.117957 2409.262529 3276.324133 2407.347533 C 3263.930524 2399.011772 3223.685492 2390.560131 3228.008405 2415.860827 Z M 2721.027463 2035.841139 C 2717.681535 2052.575381 2722.34216 2069.894683 2717.145731 2086.617231 C 2713.149895 2099.41907 2699.156676 2098.943155 2693.187019 2109.046849 C 2687.380017 2118.784127 2690.495251 2132.212132 2685.139357 2142.453319 C 2679.013779 2153.972352 2653.233626 2164.391784 2662.37167 2181.505554 C 2676.771345 2208.580208 2712.496086 2142.619519 2718.460781 2135.415251 C 2727.442197 2124.455409 2766.566373 2070.294412 2770.328328 2059.615582 C 2776.695229 2041.624402 2773.276304 2021.279874 2781.058545 2003.444616 C 2788.969067 1985.396383 2811.133621 1969.896755 2809.780651 1948.242489 C 2808.185296 1923.713958 2787.215665 1943.590366 2779.977377 1952.523587 C 2770.86768 1963.696403 2771.859905 1976.890526 2764.406162 1987.145179 C 2759.149137 1994.427408 2750.739314 1995.282848 2744.767886 2001.438191 C 2740.75256 2005.695194 2743.398968 2014.022803 2740.38898 2018.827302 C 2735.001193 2027.772218 2725.004872 2023.840877 2721.027463 2035.841139 Z M 3012.92009 2167.540001 C 3000.982904 2171.553199 2984.488567 2172.531249 2971.795873 2174.522078 C 2955.947191 2176.933894 2942.385589 2203.304066 2960.687902 2212.238352 C 2976.885634 2220.13718 3034.855009 2226.436046 3052.311805 2221.161658 C 3061.97006 2218.329917 3083.79584 2201.465269 3074.526325 2191.412249 C 3056.259804 2171.528397 3039.430592 2158.89559 3012.92009 2167.540001 Z M 2510.596218 1971.377984 C 2502.685343 1974.681741 2454.270746 1986.153995 2453.778885 1999.499077 C 2453.22749 2012.750253 2494.356668 2002.86875 2499.835172 2000.712077 C 2517.635704 1993.903283 2545.601945 1956.821325 2510.596218 1971.377984 Z M 2327.550396 2019.886119 C 2318.985715 2031.503311 2317.503753 2050.347097 2304.782709 2058.938354 C 2291.344781 2067.852439 2273.999257 2062.919303 2259.876339 2073.452488 C 2245.975609 2083.713165 2239.082119 2100.458393 2223.555556 2108.985155 C 2210.717926 2115.938885 2195.227155 2113.516081 2182.984859 2121.408882 C 2175.71964 2126.146406 2145.230664 2172.33168 2145.278503 2174.276089 C 2146.205524 2195.673793 2188.51226 2200.317058 2202.591591 2190.338102 C 2211.061656 2184.178507 2216.023495 2174.97703 2224.092771 2168.808221 C 2232.853772 2162.069237 2243.157682 2160.671262 2250.762385 2151.900695 C 2260.520218 2140.711932 2264.944483 2126.716942 2276.355789 2116.059729 C 2293.472749 2100.073909 2316.238662 2091.960339 2333.039527 2076.30656 C 2344.075205 2065.887481 2349.94245 2050.846047 2361.66737 2041.306505 C 2379.523892 2026.694918 2423.370706 2023.384431 2429.095142 1997.111709 C 2430.582418 1990.112974 2401.869883 1989.88476 2400.727052 1989.951026 C 2386.431204 1991.905001 2378.402324 2004.367357 2366.08703 2010.068402 C 2353.583921 2015.888514 2339.467383 2012.726148 2327.550396 2019.886119 Z M 2432.122785 2869.079046 C 2429.669151 2892.619958 2424.641399 2915.423078 2405.470178 2930.868135 C 2384.352068 2947.810743 2348.168782 2947.842634 2354.869847 2983.747388 C 2363.175128 3029.03541 2442.412867 2990.386803 2456.910351 2970.269071 C 2471.570489 2949.784925 2463.18193 2928.246537 2470.715051 2906.488088 C 2475.042929 2894.002344 2484.447812 2884.748776 2490.147442 2872.973182 C 2505.166199 2842.256352 2518.105535 2810.751412 2537.580803 2782.08034 C 2557.954036 2751.918448 2595.598376 2735.294062 2620.986602 2709.720152 C 2636.234633 2694.524215 2636.221523 2672.283828 2650.489377 2656.787742 C 2671.908345 2633.466893 2701.980231 2606.766807 2699.832064 2571.398564 C 2699.566998 2566.827238 2698.267892 2553.564368 2691.763852 2552.026772 C 2677.741221 2548.804872 2658.101174 2559.149533 2642.752149 2558.611604 C 2608.199657 2557.477983 2558.371851 2517.713113 2534.904999 2561.684661 C 2507.5713 2612.847012 2616.161912 2598.902349 2600.355397 2646.443076 C 2591.071705 2674.577283 2553.217581 2684.225614 2535.142414 2707.006408 C 2518.246933 2728.117783 2500.520816 2761.209221 2493.687922 2787.394769 C 2488.974494 2805.917498 2490.222571 2824.083736 2480.479975 2841.318697 C 2468.547395 2862.575008 2438.285217 2855.95686 2432.122785 2869.079046 Z M 1936.986115 3471.288497 C 1942.198135 3475.356623 1949.72523 3482.038202 1954.398968 3486.710877 M 2054.31329 3235.637356 C 2061.612883 3230.746392 2071.385244 3231.00189 2078.071075 3225.973432 M 1956.207303 3441.593661 C 1949.270225 3458.893117 1932.102237 3479.782304 1916.76774 3490.688637 C 1912.94271 3493.37686 1887.320249 3506.329303 1890.024418 3510.802469 C 1900.722029 3528.507322 1932.72521 3514.406024 1943.222606 3504.591494 C 1953.591721 3494.989938 1959.023804 3480.092731 1966.667841 3468.269298 C 1976.329996 3453.191719 1991.896602 3436.214027 2005.399025 3424.494424 C 2019.474103 3412.016831 2036.17858 3397.872299 2052.074038 3388.058478 C 2068.251218 3378.066057 2083.839086 3373.581551 2094.467952 3356.706272 C 2109.927895 3332.292202 2103.963202 3304.609456 2100.256532 3277.996542 C 2098.327717 3263.948042 2098.045642 3249.382167 2091.833955 3236.469056 C 2085.885562 3224.178921 2071.068087 3221.987519 2068.47519 3207.306829 C 2065.426931 3189.623593 2082.374504 3172.955264 2084.17008 3155.22915 C 2086.887717 3126.913151 2072.246718 3106.310644 2062.729502 3081.538309 C 2051.582202 3052.533421 2056.824346 3019.062455 2061.949194 2989.352026 C 2062.336517 2987.26339 2068.496115 2960.846442 2058.68938 2960.744383 C 2024.945198 2960.678114 2027.939944 3019.601445 2008.942362 3038.227648 C 1990.670876 3056.130235 1964.088084 3057.184828 1945.161729 3074.054437 C 1940.754829 3077.901438 1929.33679 3087.509727 1930.868006 3094.701238 C 1932.838637 3104.247159 1957.737835 3105.313095 1965.16748 3104.157507 C 1979.156447 3102.134784 2001.728522 3087.693294 2015.886167 3091.751144 C 2025.108551 3094.461693 2033.164006 3106.337573 2038.916081 3113.749501 C 2041.281476 3116.857648 2043.271243 3120.20393 2044.919755 3123.634905 C 2056.976714 3149.298472 2017.169324 3139.252892 2020.804766 3167.6224 C 2023.186461 3186.123159 2029.900639 3209.381287 2041.959017 3224.248728 C 2055.906521 3241.473061 2075.411199 3250.434988 2076.399525 3275.874949 C 2077.590903 3307.242042 2054.817192 3339.847289 2029.26525 3356.441201 C 2016.741233 3364.512603 2001.171792 3368.195531 1990.349089 3378.742891 C 1971.924163 3396.611104 1966.555156 3419.498919 1956.207303 3441.593661 Z M 1836.287239 3523.016057 C 1833.657487 3509.93852 1806.733793 3525.822282 1796.889495 3532.72144 C 1778.891227 3545.448152 1768.667401 3564.831283 1747.818256 3574.099379 C 1721.140138 3586.00963 1691.768835 3596.994277 1661.872363 3595.936845 C 1649.175416 3595.429037 1629.591715 3577.828368 1617.386274 3584.118015 C 1613.733111 3586.039035 1625.025348 3610.081022 1626.868407 3614.441854 C 1636.466064 3637.056807 1633.693854 3662.379473 1642.558681 3684.669118 C 1645.828065 3692.733433 1650.805494 3704.322631 1660.515841 3705.933936 C 1688.231542 3710.611928 1691.972944 3682.041849 1686.181182 3662.938313 C 1684.629058 3657.998091 1680.139591 3645.309649 1685.109934 3641.105447 C 1690.045903 3637.054685 1699.150992 3643.52577 1704.018214 3639.78189 C 1711.02014 3634.42139 1713.3299 3625.189792 1720.860895 3619.625532 C 1731.687851 3611.57681 1745.967752 3608.974699 1755.961239 3599.611277 C 1767.466452 3588.89453 1774.806089 3575.552637 1788.065416 3566.356831 C 1801.136929 3557.280092 1840.448208 3543.285104 1836.287239 3523.016057 Z M 1239.392468 4516.884316 C 1205.495907 4526.130086 1200.394447 4552.139513 1198.874213 4583.382578 C 1198.378099 4594.229024 1198.822828 4608.428484 1213.392955 4610.645046 C 1221.262015 4611.843868 1231.60278 4608.84274 1239.55228 4607.88418 C 1245.582533 4607.220806 1254.802436 4611.381068 1259.889366 4608.814393 C 1260.324528 4608.670166 1265.642858 4605.430195 1264.681108 4604.32847 C 1261.47303 4600.306411 1251.847376 4599.036361 1247.615533 4595.268384 C 1238.85418 4587.262893 1252.216274 4562.862289 1258.986798 4558.175085 C 1271.178774 4549.787589 1288.602259 4554.013055 1301.982424 4548.953413 C 1317.384958 4543.138262 1338.288676 4536.863498 1351.795351 4527.642532 C 1365.712027 4518.029991 1376.915321 4504.345072 1390.568703 4494.109555 C 1404.375526 4483.908411 1420.286221 4480.140789 1427.811901 4462.731479 C 1437.452085 4440.558777 1419.267777 4422.465892 1421.199075 4400.177665 C 1422.728876 4383.278288 1436.751154 4371.755712 1444.237498 4357.399268 C 1451.08244 4344.107695 1448.159984 4292.774184 1438.395774 4282.771484 C 1431.134454 4275.263169 1406.887997 4291.4244 1396.412928 4288.191515 C 1373.161179 4281.210141 1334.903791 4222.524943 1332.041576 4200.77429 C 1324.08641 4140.25631 1337.50804 4081.0626 1327.702373 4020.532927 C 1321.651924 3983.162513 1325.049591 3956.12684 1277.887326 3953.376954 C 1249.330713 3951.7334 1242.722485 4011.083741 1224.187705 4028.363353 C 1207.38684 4044.017131 1146.731723 4032.443521 1153.81763 4067.709353 C 1155.964381 4078.986709 1168.232899 4080.687668 1176.444984 4085.750147 C 1183.864707 4090.39341 1186.655341 4099.156181 1195.217895 4103.733178 C 1205.57815 4109.276886 1218.140083 4108.948743 1228.287363 4114.364171 C 1238.434644 4119.779598 1241.590984 4134.103087 1248.048247 4143.042688 C 1256.003063 4153.929177 1270.04164 4157.799213 1276.835197 4169.553546 C 1289.657588 4191.440631 1261.634649 4206.83643 1259.216097 4224.825838 C 1256.744745 4243.770264 1279.750208 4260.12321 1280.801257 4278.809302 C 1281.655988 4292.617188 1268.029537 4307.048403 1271.971508 4320.742182 C 1275.709717 4333.906893 1288.955223 4342.755776 1289.894647 4356.904916 C 1291.167884 4375.318501 1277.256522 4396.776092 1286.776927 4414.700652 C 1292.872028 4425.976236 1305.465145 4432.342429 1312.627597 4442.809703 C 1317.672002 4450.143669 1316.786794 4459.1304 1320.919768 4465.857337 C 1324.695542 4472.020832 1335.259557 4478.093609 1331.433817 4486.179894 C 1312.68996 4525.972401 1274.218886 4507.443998 1239.392468 4516.884316 Z M 1036.289851 4749.514832 C 1019.569783 4742.86869 1006.168357 4735.435146 987.035408 4738.480923 C 972.670813 4740.74178 960.279329 4751.098844 945.207065 4753.28174 C 928.121645 4755.819356 909.248447 4751.59141 892.593228 4756.884225 C 876.560984 4761.913745 865.671305 4776.716336 848.04087 4778.809577 C 833.378607 4780.600898 790.454565 4767.923438 780.873561 4775.445573 C 768.372224 4785.214035 788.941064 4800.215427 798.385636 4802.653469 C 808.44397 4805.229004 818.841788 4803.771496 829.124791 4804.624811 C 887.982917 4809.833646 920.671089 4794.113248 976.881037 4787.046124 C 995.876491 4784.614109 1012.31909 4793.937489 1028.472172 4793.044133 C 1045.674178 4792.144043 1070.333117 4774.141525 1082.852881 4763.571486 C 1093.263103 4754.865414 1100.916354 4742.641193 1110.364825 4732.833396 C 1117.97626 4725.111753 1127.724171 4719.721841 1135.489047 4712.034572 C 1146.474405 4701.120798 1154.853753 4688.17296 1165.591763 4677.284346 C 1171.879286 4670.796961 1225.862397 4634.467326 1204.526354 4619.294066 C 1197.48226 4614.412668 1189.397746 4614.535279 1181.753355 4611.614236 C 1175.574623 4609.34381 1171.088699 4604.552068 1164.550286 4603.167913 C 1134.347641 4596.643671 1132.093515 4618.215015 1124.278672 4640.152064 C 1112.042045 4674.634391 1089.529852 4773.688292 1036.289851 4749.514832 Z M 263.156378 4445.149863 C 241.560581 4472.13734 280.440948 4495.672231 304.961684 4483.681538 M 382.720638 4631.46401 C 400.204368 4595.498307 417.26215 4559.276041 435.785591 4523.704393 M 768.967221 4562.086546 C 722.695832 4576.939455 692.002391 4558.219695 646.29232 4554.022576 C 626.963052 4552.190147 607.319462 4554.638108 588.136902 4551.791127 C 570.642189 4549.322256 553.974922 4541.721096 536.180061 4540.232402 C 514.693411 4538.31953 493.148999 4540.261102 471.717631 4535.943501 C 450.627517 4531.541206 431.331561 4520.208923 410.225501 4515.158492 C 384.704036 4508.957787 357.111653 4506.966246 332.4311 4497.731103 C 292.486925 4482.901222 266.504787 4426.965908 220.202924 4429.726418 C 175.350773 4432.489409 94.697692 4505.869109 63.587867 4536.12349 C 46.170759 4553.089487 31.581849 4571.817039 17.434834 4591.449289 C 17.24702 4591.568356 4.584091 4611.049646 5.752082 4611.230727 C 50.114852 4620.363106 110.012694 4556.191969 143.500671 4536.541648 C 158.447845 4527.723951 198.5242 4530.095019 216.616729 4532.053249 C 233.541266 4533.830397 289.981194 4571.773116 283.833999 4590.941501 C 280.010031 4602.976137 250.364803 4624.534721 252.834381 4636.52896 C 255.50772 4649.052267 268.572144 4659.069142 274.232083 4670.488953 C 289.478693 4700.976155 288.857133 4725.330338 324.049612 4701.308199 C 345.112441 4686.77032 341.559921 4654.793717 364.198262 4641.495058 C 379.392784 4632.652201 399.274509 4630.579868 416.234129 4626.805513 C 454.120146 4618.453455 483.763247 4613.089059 522.760556 4618.118938 C 531.619006 4619.21712 539.164528 4625.097121 548.022979 4626.195303 C 562.968734 4628.173732 576.763863 4619.823089 591.643352 4620.658686 C 608.586316 4621.634258 625.466558 4629.363698 642.17564 4632.462279 C 665.704857 4636.766415 690.256068 4636.86812 713.922779 4640.558493 C 738.510135 4644.455107 757.382268 4674.223654 781.99124 4670.470916 C 795.519885 4668.345074 799.155685 4641.685029 801.073871 4632.04343 C 803.370166 4620.713983 809.630757 4610.0309 810.452179 4598.451625 C 812.400133 4571.413472 794.739932 4556.016252 768.967221 4562.086546 Z M 768.489324 2568.827143 C 750.026128 2564.207622 746.614286 2594.543508 753.14951 2602.775439 C 759.863335 2611.289092 775.920029 2611.904981 785.318533 2616.346964 C 797.613982 2622.243622 803.972377 2634.142181 817.429085 2639.170995 C 832.717867 2645.01308 847.752924 2629.688862 836.358629 2615.453611 C 820.496838 2595.62504 790.024875 2582.030835 768.489324 2568.827143 Z M 1006.016868 2227.484116 C 998.224351 2236.37375 975.522933 2241.681802 975.942502 2255.633915 C 977.038201 2283.112191 1042.834111 2300.510521 1060.688861 2281.950584 C 1086.03598 2255.481191 1023.429015 2213.417545 1006.016868 2227.484116 Z M 913.023333 2306.317513 C 928.981159 2309.892362 948.339839 2314.470777 960.190203 2326.310513 C 961.305394 2327.446611 974.458055 2345.701441 970.234716 2346.930737 C 940.492747 2355.254092 909.191923 2322.701287 880.287322 2320.093503 C 869.791345 2319.111908 849.840873 2321.491122 848.341193 2335.738422 C 846.504511 2352.569052 843.508695 2388.960351 855.303779 2403.204816 C 863.702969 2413.54629 879.75045 2414.562969 891.194003 2419.946503 C 916.483357 2432.218567 945.830206 2450.475524 959.439999 2475.68125 C 978.073288 2510.472232 968.726164 2550.758371 978.784496 2588.22092 C 982.225038 2600.916095 995.35431 2622.871927 1011.32702 2617.7485 C 1036.250316 2609.71537 1038.791833 2579.667938 1042.273484 2558.371583 C 1045.392973 2539.411211 1055.655424 2522.373277 1059.056634 2503.234304 C 1061.664771 2489.074179 1056.392155 2475.565733 1058.752945 2461.430768 C 1061.157322 2446.741574 1075.076479 2435.67932 1074.872365 2420.405775 C 1074.702624 2404.97879 1050.654261 2395.079564 1042.085683 2384.05558 C 1041.515507 2383.363857 1038.733377 2379.59836 1039.493848 2378.721303 C 1048.378876 2369.270707 1069.84639 2377.383218 1078.843752 2367.071512 C 1086.76455 2357.968904 1075.163307 2315.165344 1068.689388 2310.97567 C 1048.202761 2297.765245 1033.557861 2324.295591 1014.340927 2321.602051 C 985.379274 2317.450647 978.497127 2282.713883 952.480967 2276.563499 C 934.503253 2272.294446 891.276226 2282.189415 913.023333 2306.317513 Z M 839.156365 2430.687698 C 837.806583 2437.072671 841.59157 2442.835377 840.676949 2449.076123 C 838.460387 2463.64625 820.202367 2483.646687 809.407304 2492.991681 C 803.335236 2498.157634 771.053523 2505.589757 773.919638 2515.094572 C 776.064617 2522.423577 786.386245 2525.622089 790.331406 2532.468093 C 796.444933 2542.9421 793.300994 2556.257061 800.685634 2566.451827 C 810.495203 2579.848648 825.097932 2577.96342 836.996845 2586.349501 C 848.682784 2594.607301 848.802204 2609.539591 857.858745 2619.464331 C 863.66362 2625.92124 877.251798 2623.889305 884.414959 2628.958516 C 896.313872 2637.344597 895.205058 2657.399961 908.040562 2666.640419 C 913.380863 2670.495571 924.195415 2669.695413 930.568694 2672.895696 C 960.151906 2687.579931 976.615412 2694.652022 992.97899 2660.449645 C 1009.333354 2626.648056 926.287245 2593.460932 916.607376 2569.055011 C 909.322313 2550.503223 954.551511 2536.705972 947.572267 2508.876518 C 937.814083 2470.433791 902.530533 2472.923212 878.500243 2447.477934 C 872.175513 2440.823996 849.32349 2424.505423 839.156365 2430.687698 Z M 930.799013 2941.972099 C 844.84745 2972.107054 716.758893 2978.138714 649.563948 2906.203047 C 618.256391 2872.601317 632.504756 2848.560396 617.292519 2817.919753 C 612.397303 2808.121522 600.869056 2802.396733 593.616949 2794.48763 M 1136.897759 3245.886982 C 1130.833842 3241.305734 1122.983919 3233.907272 1115.020952 3232.767984 C 1103.647918 3231.025918 1098.388412 3239.757859 1088.629517 3241.600209 C 1076.669652 3243.916347 1063.457811 3240.312085 1051.845934 3243.592454 C 1026.787625 3250.789633 1029.548491 3276.948958 1047.4082 3290.37661 C 1071.153226 3308.103788 1193.947194 3316.355572 1225.378782 3312.358676 C 1240.322766 3310.388755 1282.9619 3295.205577 1272.406745 3273.987536 C 1245.363988 3219.909455 1175.606258 3270.189076 1136.897759 3245.886982 Z M 693.261591 2661.147725 C 675.256943 2687.569989 675.909329 2724.939693 653.024702 2747.609925 C 638.631048 2761.869272 590.497108 2798.703526 572.721736 2805.759668 C 538.886481 2819.047695 497.018449 2822.156903 467.643248 2845.387387 C 456.174889 2854.500981 400.113062 2919.531456 401.574823 2932.427912 C 402.800929 2943.499026 419.98309 2954.196638 427.134558 2961.116351 C 432.506751 2966.267775 435.51036 2975.158827 441.736931 2979.373661 C 449.939803 2984.836928 460.937918 2981.419065 469.795659 2987.91531 C 486.634084 3000.147329 490.378671 3034.503503 521.54803 3004.34303 C 546.942988 2979.818044 492.557322 2942.416088 502.453359 2925.2155 C 508.175667 2915.136967 526.902511 2935.12394 533.267285 2933.326948 C 542.7721 2930.460834 540.665393 2910.73255 547.311889 2908.756958 C 547.747051 2908.612731 549.425684 2909.391628 549.485218 2909.485535 C 556.362405 2912.23471 575.370261 2937.441145 577.56556 2945.264846 C 578.895496 2950.477575 547.535131 3022.491905 540.993528 3027.955525 C 532.974571 3034.619029 508.379065 3040.469616 507.138427 3052.841255 C 505.209609 3073.679768 525.016917 3080.211805 535.389928 3093.251425 C 544.443988 3104.625877 541.455261 3121.923562 550.174798 3134.431632 C 557.550225 3145.027187 572.157206 3145.640596 578.953243 3155.945216 C 588.964092 3171.320819 576.24411 3189.258489 577.998577 3205.523905 C 580.199191 3225.192656 595.126872 3242.717136 598.204543 3263.146357 C 604.369097 3303.604011 574.119673 3339.368788 564.896577 3376.943316 C 560.405337 3395.193538 564.029794 3420.015484 588.372282 3422.487546 C 615.82717 3425.092849 636.261708 3398.973215 657.752257 3388.640248 C 678.773271 3378.604948 707.296926 3404.49283 733.870861 3383.696488 C 756.081483 3366.192917 745.10286 3343.268602 750.403119 3320.687669 C 752.431159 3311.634672 761.640786 3306.849309 760.906894 3297.177588 C 760.063149 3286.917264 749.097283 3271.488861 751.32235 3261.916008 C 754.397542 3248.907928 782.685546 3238.083455 790.961774 3225.59594 C 806.275009 3202.196421 804.220041 3172.166707 816.933999 3147.782049 C 828.26203 3125.987456 856.196376 3122.496241 872.273625 3106.116365 C 883.515544 3094.776643 886.034736 3077.776625 894.116416 3064.359252 C 905.473859 3045.310644 923.472128 3032.583931 931.396824 3011.235485 C 945.447807 2972.969943 922.535898 2941.812988 926.276238 2903.896496 C 928.308176 2882.59766 948.722515 2853.331253 942.021803 2832.170974 C 937.848432 2819.15049 884.888734 2805.594555 870.979147 2796.113482 C 849.599516 2781.494451 843.405903 2753.035288 822.761583 2737.291852 C 802.057729 2721.454509 757.607076 2718.828651 738.217922 2702.157839 C 719.041742 2685.615307 717.936123 2629.048867 693.261591 2661.147725 Z M 693.261591 2661.147725 " stroke="#7c7b7b" stroke-width="11.292" stroke-opacity="1" stroke-miterlimit="10"/></g></g></g></g><g fill="#000000" fill-opacity="1"><g transform="translate(101.722905, 147.801057)"><g><path d="M -0.5625 -18.40625 L -2.484375 -16.5625 C -1.503906 -15.84375 -0.742188 -15.195312 -0.203125 -14.625 L 7.203125 -6.90625 L 2.28125 -2.1875 L -19.203125 -24.59375 L -14.28125 -29.3125 L -8.21875 -22.984375 C -7.300781 -22.035156 -6.519531 -21.070312 -5.875 -20.09375 L -3.953125 -21.9375 L -6.90625 -36.390625 L -1.546875 -41.53125 L 1.25 -27.0625 C 1.5 -26.0625 1.523438 -24.953125 1.328125 -23.734375 L 1.46875 -23.59375 C 2.75 -23.789062 4.003906 -23.734375 5.234375 -23.421875 L 20.328125 -19.5 L 14.8125 -14.203125 Z M -0.5625 -18.40625 "/></g></g></g><g fill="#000000" fill-opacity="1"><g transform="translate(121.22856, 128.813117)"><g><path d="M 13.4375 -16.890625 L 4.140625 -11.65625 L 6.15625 -3.453125 L 0.046875 -0.015625 L -6.484375 -29.90625 C -6.628906 -30.4375 -6.585938 -30.953125 -6.359375 -31.453125 C -6.128906 -31.960938 -5.765625 -32.359375 -5.265625 -32.640625 L 0.359375 -35.8125 C 1.492188 -36.445312 2.484375 -36.316406 3.328125 -35.421875 L 25.453125 -14.3125 L 19.390625 -10.890625 Z M 9.53125 -20.796875 L 2.609375 -27.796875 C 1.554688 -28.921875 0.894531 -29.664062 0.625 -30.03125 L -0.421875 -29.4375 C -0.328125 -29.132812 -0.1875 -28.660156 0 -28.015625 C 0.1875 -27.367188 0.316406 -26.882812 0.390625 -26.5625 L 2.78125 -17 Z M 9.53125 -20.796875 "/></g></g></g><g fill="#000000" fill-opacity="1"><g transform="translate(145.599939, 114.964941)"><g><path d="M 26.71875 -7.03125 L 19.71875 -5.1875 L 15.03125 -13.78125 C 14.488281 -14.664062 13.929688 -15.222656 13.359375 -15.453125 C 12.785156 -15.679688 12.050781 -15.679688 11.15625 -15.453125 L 6.484375 -14.265625 L 9.578125 -2.515625 L 3.046875 -0.796875 L -4.859375 -30.828125 C -2.222656 -31.796875 1.554688 -32.929688 6.484375 -34.234375 C 10.515625 -35.296875 13.535156 -35.410156 15.546875 -34.578125 C 17.566406 -33.742188 19.019531 -31.644531 19.90625 -28.28125 C 20.488281 -26.070312 20.503906 -24.222656 19.953125 -22.734375 C 19.398438 -21.253906 18.128906 -20.113281 16.140625 -19.3125 L 16.1875 -19.109375 C 18.613281 -19.179688 20.429688 -18.046875 21.640625 -15.703125 Z M 5.140625 -19.359375 L 9.921875 -20.625 C 11.660156 -21.082031 12.769531 -21.691406 13.25 -22.453125 C 13.738281 -23.210938 13.765625 -24.421875 13.328125 -26.078125 C 12.898438 -27.734375 12.296875 -28.769531 11.515625 -29.1875 C 10.734375 -29.601562 9.457031 -29.578125 7.6875 -29.109375 L 2.921875 -27.796875 Z M 5.140625 -19.359375 "/></g></g></g><g fill="#000000" fill-opacity="1"><g transform="translate(173.525955, 108.370868)"><g><path d="M 9.96875 -0.65625 L 3.15625 -0.203125 L 1.09375 -31.1875 L 7.90625 -31.640625 Z M 9.96875 -0.65625 "/></g></g></g><g fill="#000000" fill-opacity="1"><g transform="translate(186.496848, 106.758265)"><g><path d="M 22.1875 -13.5625 L 22.15625 -13.375 C 24.425781 -12.882812 25.96875 -11.898438 26.78125 -10.421875 C 27.601562 -8.953125 27.851562 -6.9375 27.53125 -4.375 C 27.144531 -1.289062 26.085938 0.71875 24.359375 1.65625 C 22.640625 2.601562 19.878906 2.835938 16.078125 2.359375 C 10.359375 1.648438 6.039062 0.992188 3.125 0.390625 L 6.953125 -30.421875 C 9.628906 -30.335938 13.503906 -29.976562 18.578125 -29.34375 C 22.679688 -28.832031 25.445312 -27.921875 26.875 -26.609375 C 28.3125 -25.296875 28.835938 -23.082031 28.453125 -19.96875 C 28.171875 -17.726562 27.535156 -16.085938 26.546875 -15.046875 C 25.566406 -14.003906 24.113281 -13.507812 22.1875 -13.5625 Z M 12.046875 -17 L 17 -16.390625 C 18.664062 -16.179688 19.835938 -16.304688 20.515625 -16.765625 C 21.203125 -17.222656 21.640625 -18.238281 21.828125 -19.8125 C 22.023438 -21.363281 21.828125 -22.429688 21.234375 -23.015625 C 20.640625 -23.609375 19.429688 -24.019531 17.609375 -24.25 L 13.015625 -24.859375 Z M 10.375 -3.5625 L 15.5625 -2.921875 C 17.425781 -2.691406 18.71875 -2.8125 19.4375 -3.28125 C 20.164062 -3.75 20.632812 -4.832031 20.84375 -6.53125 C 21.070312 -8.363281 20.882812 -9.640625 20.28125 -10.359375 C 19.675781 -11.085938 18.410156 -11.585938 16.484375 -11.859375 L 11.484375 -12.484375 Z M 10.375 -3.5625 "/></g></g></g><g fill="#000000" fill-opacity="1"><g transform="translate(214.625959, 110.976376)"><g><path d="M 9.5 3.078125 L 3 0.96875 L 12.578125 -28.5625 L 19.078125 -26.453125 Z M 9.5 3.078125 "/></g></g></g><g fill="#000000" fill-opacity="1"><g transform="translate(227.369896, 114.513823)"><g><path d="M 23.515625 6.546875 L 21.390625 11.125 C 18.773438 10.0625 14.476562 7.925781 8.5 4.71875 C 6.675781 3.738281 5.488281 2.460938 4.9375 0.890625 C 4.382812 -0.679688 4.546875 -2.320312 5.421875 -4.03125 L 14.328125 -20.609375 C 15.265625 -22.285156 16.539062 -23.328125 18.15625 -23.734375 C 19.769531 -24.148438 21.488281 -23.867188 23.3125 -22.890625 C 29.289062 -19.679688 33.445312 -17.273438 35.78125 -15.671875 L 33.125 -11.34375 L 22.609375 -16.984375 C 21.941406 -17.347656 21.378906 -17.441406 20.921875 -17.265625 C 20.460938 -17.097656 20.039062 -16.660156 19.65625 -15.953125 L 17.421875 -11.78125 L 28.3125 -5.9375 L 25.96875 -1.59375 L 15.078125 -7.4375 L 12.25 -2.140625 C 11.851562 -1.410156 11.710938 -0.8125 11.828125 -0.34375 C 11.941406 0.125 12.332031 0.539062 13 0.90625 Z M 23.515625 6.546875 "/></g></g></g><g fill="#000000" fill-opacity="1"><g transform="translate(249.440958, 125.712368)"><g><path d="M 42.625 -2.78125 L 23.171875 18.15625 C 22.054688 19.363281 20.90625 19.410156 19.71875 18.296875 L 16.59375 15.40625 C 16.082031 14.925781 15.789062 14.441406 15.71875 13.953125 C 15.65625 13.460938 15.734375 12.828125 15.953125 12.046875 L 21.25 -5.609375 C 21.988281 -7.921875 22.617188 -9.535156 23.140625 -10.453125 L 22.78125 -10.78125 C 21.914062 -9.539062 20.867188 -8.265625 19.640625 -6.953125 L 7.09375 6.578125 L 2.3125 2.140625 L 21.75 -18.796875 C 22.875 -20.003906 24.039062 -20.046875 25.25 -18.921875 L 28.3125 -16.078125 C 28.820312 -15.609375 29.113281 -15.125 29.1875 -14.625 C 29.257812 -14.132812 29.179688 -13.503906 28.953125 -12.734375 L 23.796875 4.40625 C 23.316406 6.019531 22.734375 7.75 22.046875 9.59375 L 22.375 9.890625 C 23.820312 8.054688 24.9375 6.71875 25.71875 5.875 L 37.875 -7.203125 Z M 42.625 -2.78125 "/></g></g></g></svg>