<svg xmlns="http://www.w3.org/2000/svg" xmlns:xlink="http://www.w3.org/1999/xlink" width="500" zoomAndPan="magnify" viewBox="0 0 375 374.999991" height="500" preserveAspectRatio="xMidYMid meet" version="1.0"><defs><g/><clipPath id="3a6356abe6"><path d="M 45.238281 45.238281 L 329.761719 45.238281 L 329.761719 329.761719 L 45.238281 329.761719 Z M 45.238281 45.238281 " clip-rule="nonzero"/></clipPath><clipPath id="1462cd5cc8"><path d="M 187.5 45.238281 C 108.929688 45.238281 45.238281 108.929688 45.238281 187.5 C 45.238281 266.070312 108.929688 329.761719 187.5 329.761719 C 266.070312 329.761719 329.761719 266.070312 329.761719 187.5 C 329.761719 108.929688 266.070312 45.238281 187.5 45.238281 Z M 187.5 45.238281 " clip-rule="nonzero"/></clipPath><clipPath id="db58eba462"><path d="M 130 151.671875 L 244.722656 151.671875 L 244.722656 247.671875 L 130 247.671875 Z M 130 151.671875 " clip-rule="nonzero"/></clipPath></defs><g clip-path="url(#3a6356abe6)"><g clip-path="url(#1462cd5cc8)"><path fill="#cfff00" d="M 45.238281 45.238281 L 329.761719 45.238281 L 329.761719 329.761719 L 45.238281 329.761719 Z M 45.238281 45.238281 " fill-opacity="1" fill-rule="nonzero"/></g></g><g clip-path="url(#db58eba462)"><path fill="#000000" d="M 176.0625 219.710938 L 174.128906 243.214844 L 169.738281 243.214844 L 171.144531 239.824219 C 171.25 239.5625 171.289062 239.273438 171.265625 238.988281 L 169.851562 223.027344 C 169.777344 222.203125 169.664062 221.433594 169.515625 220.6875 C 171.839844 221.03125 174.152344 220.800781 176.0625 219.710938 Z M 186.777344 218.433594 C 187.421875 219.066406 188.078125 218.84375 188.8125 219.328125 C 190.40625 226.0625 191.164062 234.480469 189.523438 240.460938 L 185.453125 240.460938 L 186.644531 237.652344 C 186.691406 237.527344 186.726562 237.40625 186.75 237.28125 C 187.871094 231.292969 186.046875 224.691406 183.957031 219.734375 C 185.019531 219.277344 185.910156 219.277344 186.777344 218.433594 Z M 222.875 218.027344 C 223.804688 219.328125 224.785156 220.554688 225.71875 221.710938 C 225.726562 221.71875 225.726562 221.71875 225.734375 221.726562 C 225.71875 221.777344 225.703125 221.835938 225.691406 221.882812 L 221.6875 240.464844 L 218.023438 240.464844 L 219.160156 236.152344 L 220.878906 229.011719 C 221.589844 226.03125 220.691406 222.992188 219.203125 220.304688 C 220.617188 219.941406 221.890625 219.148438 222.875 218.027344 Z M 237.703125 217.253906 C 238.609375 221.121094 239.445312 224.585938 238.773438 227.773438 L 235.382812 243.910156 L 231.039062 243.910156 L 232.175781 239.601562 L 233.886719 232.449219 C 234.488281 229.917969 233.855469 227.503906 232.742188 225.402344 C 231.867188 223.757812 230.699219 222.234375 229.488281 220.726562 C 230.640625 220.816406 231.800781 220.742188 232.914062 220.457031 C 234.867188 219.949219 236.46875 218.785156 237.703125 217.253906 Z M 153.132812 155.367188 C 153.574219 155.375 154.023438 155.503906 154.457031 155.726562 C 155.472656 156.265625 156.050781 157.375 156.050781 158.527344 C 156.050781 160.199219 158.136719 160.953125 159.207031 159.664062 C 160.210938 158.445312 162.027344 158.488281 163.574219 158.191406 C 163.171875 159.933594 163.035156 161.902344 161.796875 163.140625 C 160.292969 164.625 162.15625 167.023438 163.964844 165.933594 C 164.964844 165.351562 166.171875 165.34375 167.179688 165.910156 C 168.183594 166.480469 168.804688 167.53125 168.816406 168.683594 C 168.820312 170.054688 170.308594 170.898438 171.488281 170.210938 C 172.484375 169.621094 173.703125 169.613281 174.710938 170.183594 C 175.714844 170.75 176.320312 171.808594 176.328125 172.953125 C 176.328125 174.789062 178.757812 175.4375 179.65625 173.835938 C 180.238281 172.847656 181.289062 172.226562 182.4375 172.226562 C 183.589844 172.226562 184.660156 172.847656 185.230469 173.835938 C 185.917969 175.027344 187.628906 175.027344 188.316406 173.835938 C 188.886719 172.847656 189.949219 172.226562 191.09375 172.226562 C 192.25 172.226562 193.304688 172.847656 193.875 173.835938 C 194.5625 175.027344 196.28125 175.027344 196.957031 173.835938 C 197.539062 172.847656 198.601562 172.226562 199.753906 172.226562 C 200.90625 172.226562 201.960938 172.847656 202.535156 173.835938 C 203.21875 175.027344 204.925781 175.027344 205.617188 173.835938 C 206.1875 172.847656 207.242188 172.226562 208.398438 172.226562 C 209.546875 172.226562 210.601562 172.847656 211.175781 173.835938 C 211.863281 175.035156 213.582031 175.035156 214.257812 173.835938 C 214.839844 172.847656 215.902344 172.226562 217.054688 172.226562 C 218.207031 172.226562 219.261719 172.847656 219.835938 173.835938 C 220.523438 175.027344 222.230469 175.027344 222.917969 173.835938 C 223.5 172.847656 224.546875 172.226562 225.699219 172.226562 C 226.851562 172.226562 227.914062 172.847656 228.492188 173.835938 C 228.894531 174.535156 229.710938 174.871094 230.488281 174.667969 C 231.601562 174.371094 232.777344 174.683594 233.589844 175.5 C 234.40625 176.320312 234.726562 177.5 234.421875 178.617188 C 234.136719 179.695312 234.90625 180.769531 236.015625 180.851562 C 237.160156 180.941406 238.175781 181.628906 238.679688 182.660156 C 239.179688 183.699219 239.082031 184.929688 238.4375 185.878906 C 237.8125 186.800781 238.171875 188.050781 239.179688 188.503906 C 240.230469 188.988281 240.933594 189.980469 241.042969 191.132812 C 241.152344 192.277344 240.636719 193.386719 239.695312 194.058594 C 238.789062 194.703125 238.699219 196.023438 239.5 196.800781 C 240.332031 197.59375 240.679688 198.777344 240.410156 199.898438 C 240.132812 201.019531 239.285156 201.898438 238.183594 202.21875 C 236.695312 202.65625 236.445312 204.660156 237.769531 205.460938 C 238.757812 206.050781 239.339844 207.121094 239.320312 208.277344 C 239.296875 209.351562 238.75 210.316406 237.867188 210.898438 C 237.285156 211.136719 236.867188 211.65625 236.769531 212.277344 C 236.066406 214.652344 234.257812 216.429688 232.027344 217.011719 C 229.785156 217.59375 226.695312 216.929688 225.273438 215.0625 C 223.507812 212.734375 222.402344 209.550781 222.386719 207.117188 C 222.378906 206.117188 221.585938 205.289062 220.578125 205.304688 C 219.589844 205.3125 218.796875 206.132812 218.8125 207.117188 C 218.8125 209.976562 219.648438 212.480469 220.835938 214.75 C 220.011719 216.1875 218.824219 216.816406 217.507812 216.964844 C 216.066406 217.136719 214.980469 215.9375 214.300781 214.949219 C 213.507812 213.785156 211.875 213.679688 211.179688 214.898438 C 210.605469 215.898438 209.550781 216.515625 208.398438 216.515625 C 207.246094 216.515625 206.191406 215.898438 205.621094 214.898438 C 204.929688 213.710938 203.222656 213.710938 202.535156 214.898438 C 201.964844 215.898438 200.910156 216.515625 199.757812 216.515625 C 198.601562 216.515625 197.539062 215.898438 196.960938 214.898438 C 196.28125 213.710938 194.5625 213.710938 193.878906 214.898438 C 193.308594 215.898438 192.25 216.515625 191.097656 216.515625 C 189.953125 216.515625 188.890625 215.898438 188.316406 214.898438 C 187.632812 213.710938 185.921875 213.710938 185.234375 214.898438 C 184.664062 215.898438 183.589844 216.515625 182.4375 216.515625 C 181.320312 216.515625 180.296875 215.925781 179.710938 214.964844 C 179.398438 214.34375 178.761719 213.957031 178.0625 213.984375 C 177.445312 214.007812 176.878906 214.34375 176.578125 214.886719 C 175.546875 216.464844 172.375 217.691406 169.609375 217.105469 C 168.9375 216.964844 167.761719 216.382812 166.902344 215.523438 C 166.035156 214.671875 165.464844 213.625 165.464844 212.347656 C 165.464844 211.371094 164.6875 210.578125 163.714844 210.558594 C 162.5625 210.535156 161.523438 209.910156 160.96875 208.898438 C 160.414062 207.890625 160.4375 206.671875 161.027344 205.6875 C 161.738281 204.507812 160.902344 203 159.53125 202.976562 C 158.386719 202.957031 157.332031 202.328125 156.773438 201.320312 C 156.21875 200.3125 156.253906 199.078125 156.847656 198.09375 C 157.394531 197.175781 157.03125 195.988281 156.054688 195.546875 C 155.007812 195.070312 154.304688 194.070312 154.191406 192.921875 C 154.085938 191.777344 154.585938 190.671875 155.523438 190 C 156.710938 189.15625 156.4375 187.320312 155.058594 186.851562 C 153.972656 186.484375 153.167969 185.566406 152.941406 184.4375 C 152.746094 183.429688 153.25 181.675781 153.871094 180.996094 L 156.878906 180.070312 C 157.992188 179.734375 159.089844 179.203125 160.054688 178.382812 C 161.371094 177.261719 162.300781 175.515625 162.480469 173.355469 C 162.597656 172.28125 161.738281 171.363281 160.667969 171.386719 C 159.75 171.414062 159.007812 172.132812 158.941406 173.050781 C 158.828125 174.449219 158.441406 175.136719 157.746094 175.648438 C 156.667969 176.433594 155.589844 176.746094 154.527344 177.0625 L 139.847656 181.472656 C 136.625 182.414062 135.285156 181.59375 134.582031 180.515625 C 133.875 179.441406 133.882812 177.632812 134.777344 176.265625 L 144.316406 161.625 C 144.667969 161.082031 144.675781 160.394531 144.59375 159.894531 C 144.414062 158.804688 144.5625 157.652344 145.371094 156.890625 C 146.425781 155.890625 147.359375 156.332031 148.242188 156.832031 C 149.230469 157.390625 150.3125 157.375 151.046875 156.453125 C 151.667969 155.695312 152.386719 155.359375 153.132812 155.367188 Z M 153.15625 151.84375 C 151.667969 151.792969 150.289062 152.300781 149.222656 153.136719 C 148.25 152.648438 147.367188 152.53125 146.402344 152.640625 C 144.957031 152.8125 143.707031 153.472656 142.78125 154.441406 C 141.320312 155.980469 140.671875 158.117188 141.007812 160.191406 L 131.800781 174.320312 C 130.175781 176.8125 130.003906 180.023438 131.597656 182.472656 C 133.199219 184.914062 136.65625 186.132812 140.835938 184.878906 L 149.386719 182.324219 C 149.238281 183.257812 149.265625 184.210938 149.445312 185.125 C 149.789062 186.835938 150.421875 187.953125 151.808594 188.941406 C 150.765625 190.289062 150.472656 191.523438 150.636719 193.269531 C 150.824219 195.175781 151.617188 196.667969 153.121094 197.800781 C 152.527344 199.585938 152.738281 201.347656 153.664062 203.027344 C 154.527344 204.589844 155.511719 205.355469 157.179688 205.863281 C 156.71875 207.542969 156.980469 209.0625 157.847656 210.621094 C 158.75 212.261719 160.375 213.414062 162.132812 213.878906 C 162.4375 215.730469 163.230469 216.945312 164.378906 218.050781 C 164.730469 218.382812 165.082031 218.707031 165.378906 218.984375 C 165.828125 220.238281 166.15625 221.648438 166.300781 223.351562 L 167.683594 238.859375 L 165.425781 244.3125 C 164.945312 245.492188 165.804688 246.78125 167.070312 246.78125 L 175.773438 246.78125 C 176.703125 246.78125 177.472656 246.066406 177.542969 245.140625 L 179.710938 218.976562 C 181.953125 223.578125 184.257812 231.015625 183.253906 236.546875 L 181.125 241.550781 C 180.628906 242.730469 181.484375 244.035156 182.761719 244.042969 L 191.066406 244.042969 C 191.828125 244.035156 192.507812 243.550781 192.753906 242.828125 C 195.148438 235.933594 194.175781 227.035156 192.554688 219.761719 C 193.636719 219.308594 194.535156 219.285156 195.417969 218.433594 C 196.660156 219.644531 197.96875 220.070312 199.753906 220.070312 C 201.535156 220.070312 202.828125 219.644531 204.078125 218.433594 C 205.320312 219.644531 206.613281 220.070312 208.394531 220.070312 C 210.167969 220.070312 211.460938 219.652344 212.703125 218.449219 C 215.597656 219.972656 218.058594 225.023438 217.410156 228.171875 L 215.722656 235.257812 L 213.996094 241.792969 C 213.691406 242.925781 214.542969 244.027344 215.703125 244.039062 L 223.128906 244.039062 C 223.96875 244.03125 224.691406 243.441406 224.859375 242.613281 L 228.570312 225.417969 C 228.957031 225.984375 229.316406 226.539062 229.601562 227.074219 C 230.46875 228.710938 230.789062 230.085938 230.417969 231.609375 L 228.734375 238.707031 L 227 245.222656 C 226.707031 246.355469 227.558594 247.46875 228.71875 247.46875 L 236.832031 247.46875 C 237.671875 247.46875 238.402344 246.878906 238.574219 246.054688 L 242.265625 228.5 C 243.410156 223.050781 241.449219 217.980469 240.425781 213 C 241.824219 211.796875 242.847656 210.207031 242.878906 208.328125 C 242.914062 206.636719 242.292969 205.421875 241.210938 204.175781 C 242.578125 203.246094 243.453125 202.390625 243.851562 200.734375 C 244.304688 198.890625 244.023438 197.1875 243.011719 195.632812 C 244.238281 194.242188 244.753906 192.683594 244.574219 190.789062 C 244.394531 188.890625 243.574219 187.417969 242.09375 186.285156 C 242.765625 184.550781 242.699219 182.828125 241.875 181.117188 C 241.046875 179.40625 239.773438 178.289062 238 177.734375 C 238.0625 175.882812 237.453125 174.316406 236.109375 172.980469 C 234.6875 171.546875 232.683594 170.894531 230.714844 171.066406 C 229.441406 169.515625 227.730469 168.65625 225.695312 168.65625 C 223.914062 168.65625 222.621094 169.058594 221.371094 170.269531 C 220.125 169.054688 218.835938 168.65625 217.050781 168.65625 C 215.269531 168.65625 213.960938 169.058594 212.71875 170.269531 C 211.46875 169.054688 210.175781 168.65625 208.394531 168.65625 C 206.609375 168.65625 205.320312 169.058594 204.074219 170.269531 C 202.824219 169.054688 201.53125 168.65625 199.75 168.65625 C 197.96875 168.65625 196.660156 169.058594 195.417969 170.269531 C 194.167969 169.054688 192.875 168.65625 191.089844 168.65625 C 189.308594 168.65625 188.015625 169.058594 186.777344 170.269531 C 185.523438 169.054688 184.214844 168.65625 182.433594 168.65625 C 180.878906 168.65625 180.121094 168.820312 178.941406 169.753906 C 178.378906 168.351562 177.8125 167.84375 176.457031 167.074219 C 174.90625 166.199219 173.5625 165.949219 171.878906 166.382812 C 170.890625 163.585938 168.5 162.289062 166.742188 162.101562 C 167.683594 160.183594 168.117188 158.691406 168.117188 155.414062 C 168.117188 154.382812 167.234375 153.5625 166.203125 153.644531 C 163.667969 153.835938 161.265625 153.636719 158.773438 155.40625 C 158.199219 154.105469 157.496094 153.367188 156.222656 152.632812 C 155.304688 152.105469 154.257812 151.875 153.15625 151.84375 Z M 153.15625 151.84375 " fill-opacity="1" fill-rule="nonzero"/></g><path fill="#000000" d="M 144.929688 166.648438 C 146.28125 166.648438 147.375 167.753906 147.375 169.101562 C 147.375 170.460938 146.28125 171.558594 144.929688 171.558594 C 143.582031 171.558594 142.488281 170.464844 142.488281 169.101562 C 142.484375 167.753906 143.582031 166.648438 144.929688 166.648438 Z M 144.929688 166.648438 " fill-opacity="1" fill-rule="evenodd"/><g fill="#000000" fill-opacity="1"><g transform="translate(126.065937, 125.296942)"><g><path d="M -5.4375 -32.140625 L 5.1875 -11.546875 C 5.5625 -10.828125 5.992188 -10.390625 6.484375 -10.234375 C 6.984375 -10.085938 7.617188 -10.210938 8.390625 -10.609375 L 17.875 -15.5 L 20.546875 -11 C 18.003906 -9.320312 14.191406 -7.164062 9.109375 -4.53125 C 6.960938 -3.4375 5.09375 -3.15625 3.5 -3.6875 C 1.914062 -4.21875 0.664062 -5.378906 -0.25 -7.171875 L -11.515625 -29 Z M -5.4375 -32.140625 "/></g></g></g><g fill="#000000" fill-opacity="1"><g transform="translate(146.38232, 114.348592)"><g><path d="M 17.453125 -12.6875 L 7.09375 -10.125 L 6.859375 -1.6875 L 0.046875 -0.015625 L 1.734375 -30.5625 C 1.734375 -31.113281 1.910156 -31.597656 2.265625 -32.015625 C 2.617188 -32.441406 3.078125 -32.722656 3.640625 -32.859375 L 9.921875 -34.40625 C 11.171875 -34.71875 12.082031 -34.332031 12.65625 -33.25 L 28.359375 -6.984375 L 21.59375 -5.3125 Z M 14.75 -17.484375 L 9.9375 -26.078125 C 9.226562 -27.453125 8.789062 -28.347656 8.625 -28.765625 L 7.453125 -28.484375 C 7.460938 -28.171875 7.472656 -27.675781 7.484375 -27 C 7.492188 -26.320312 7.492188 -25.8125 7.484375 -25.46875 L 7.21875 -15.625 Z M 14.75 -17.484375 "/></g></g></g><g fill="#000000" fill-opacity="1"><g transform="translate(172.744915, 106.652892)"><g><path d="M 29.90625 -29.28125 L 36.5 -28.875 C 38.15625 -28.78125 38.96875 -27.878906 38.9375 -26.171875 L 38.390625 2.328125 L 31.9375 1.9375 L 32.453125 -23.765625 L 31.6875 -23.8125 L 25.859375 -4.921875 C 25.472656 -3.472656 24.5 -2.796875 22.9375 -2.890625 L 18.453125 -3.15625 C 16.898438 -3.25 16.015625 -4.039062 15.796875 -5.53125 L 12.25 -24.984375 L 11.484375 -25.03125 L 9.03125 0.546875 L 2.5625 0.15625 L 5.421875 -28.21875 C 5.609375 -29.90625 6.503906 -30.703125 8.109375 -30.609375 L 14.71875 -30.203125 C 16.1875 -30.109375 17.039062 -29.328125 17.28125 -27.859375 L 20.125 -12.15625 C 20.300781 -11.164062 20.484375 -9.703125 20.671875 -7.765625 L 21.265625 -7.71875 C 21.304688 -7.863281 21.453125 -8.472656 21.703125 -9.546875 C 21.953125 -10.617188 22.160156 -11.441406 22.328125 -12.015625 L 27 -27.265625 C 27.4375 -28.703125 28.40625 -29.375 29.90625 -29.28125 Z M 29.90625 -29.28125 "/></g></g></g><g fill="#000000" fill-opacity="1"><g transform="translate(211.090631, 108.520867)"><g><path d="M 38.109375 -17.3125 L 44.171875 -14.6875 C 45.691406 -14.03125 46.140625 -12.90625 45.515625 -11.3125 L 35.296875 15.296875 L 29.359375 12.734375 L 38.625 -11.25 L 37.921875 -11.5625 L 25.984375 4.1875 C 25.128906 5.425781 23.984375 5.734375 22.546875 5.109375 L 18.421875 3.328125 C 16.992188 2.703125 16.429688 1.65625 16.734375 0.1875 L 20.03125 -19.3125 L 19.34375 -19.609375 L 8.296875 3.59375 L 2.34375 1.015625 L 14.71875 -24.671875 C 15.476562 -26.203125 16.597656 -26.644531 18.078125 -26 L 24.15625 -23.359375 C 25.5 -22.773438 26.03125 -21.75 25.75 -20.28125 L 23.0625 -4.5625 C 22.882812 -3.550781 22.554688 -2.109375 22.078125 -0.234375 L 22.609375 0 C 22.703125 -0.125 23.050781 -0.644531 23.65625 -1.5625 C 24.257812 -2.476562 24.738281 -3.179688 25.09375 -3.671875 L 34.671875 -16.40625 C 35.585938 -17.613281 36.734375 -17.914062 38.109375 -17.3125 Z M 38.109375 -17.3125 "/></g></g></g></svg>