<svg xmlns="http://www.w3.org/2000/svg" xmlns:xlink="http://www.w3.org/1999/xlink" width="500" zoomAndPan="magnify" viewBox="0 0 375 374.999991" height="500" preserveAspectRatio="xMidYMid meet" version="1.0"><defs><g/><clipPath id="e8e3380afe"><path d="M 45.238281 45.238281 L 329.761719 45.238281 L 329.761719 329.761719 L 45.238281 329.761719 Z M 45.238281 45.238281 " clip-rule="nonzero"/></clipPath><clipPath id="a1564af522"><path d="M 187.5 45.238281 C 108.929688 45.238281 45.238281 108.929688 45.238281 187.5 C 45.238281 266.070312 108.929688 329.761719 187.5 329.761719 C 266.070312 329.761719 329.761719 266.070312 329.761719 187.5 C 329.761719 108.929688 266.070312 45.238281 187.5 45.238281 Z M 187.5 45.238281 " clip-rule="nonzero"/></clipPath><clipPath id="e9dea37d59"><path d="M 116.5 262 L 258.25 262 L 258.25 275 L 116.5 275 Z M 116.5 262 " clip-rule="nonzero"/></clipPath><clipPath id="2ecdefcbcc"><path d="M 137 271 L 238 271 L 238 283.230469 L 137 283.230469 Z M 137 271 " clip-rule="nonzero"/></clipPath></defs><g clip-path="url(#e8e3380afe)"><g clip-path="url(#a1564af522)"><path fill="#cfff00" d="M 45.238281 45.238281 L 329.761719 45.238281 L 329.761719 329.761719 L 45.238281 329.761719 Z M 45.238281 45.238281 " fill-opacity="1" fill-rule="nonzero"/></g></g><g clip-path="url(#e9dea37d59)"><path stroke-linecap="round" transform="matrix(0.244517, 0, 0, 0.245668, 100.732234, 138.138125)" fill="none" stroke-linejoin="round" d="M 156.391985 549.214763 C 134.505682 527.303822 104.280217 513.788364 70.859673 513.788364 L 637.794804 513.788364 C 606.834472 513.788364 575.890114 525.602464 552.246517 549.214763 Z M 156.391985 549.214763 " stroke="#373431" stroke-width="12" stroke-opacity="1" stroke-miterlimit="10"/></g><g clip-path="url(#2ecdefcbcc)"><path stroke-linecap="round" transform="matrix(0.244517, 0, 0, 0.245668, 100.732234, 138.138125)" fill="none" stroke-linejoin="round" d="M 534.545769 584.657063 L 174.124683 584.657063 L 156.391985 549.214763 L 552.246517 549.214763 Z M 534.545769 584.657063 " stroke="#373431" stroke-width="12" stroke-opacity="1" stroke-miterlimit="10"/></g><path stroke-linecap="round" transform="matrix(0.244517, 0, 0, 0.245668, 100.732234, 138.138125)" fill="none" stroke-linejoin="round" d="M 209.542153 460.632865 L 156.391985 513.788364 L 262.692322 513.788364 Z M 209.542153 460.632865 " stroke="#373431" stroke-width="12" stroke-opacity="1" stroke-miterlimit="10"/><path stroke-linecap="round" transform="matrix(0.244517, 0, 0, 0.245668, 100.732234, 138.138125)" fill="none" stroke-linejoin="round" d="M 324.820668 469.600769 L 280.42502 425.190566 L 227.274852 478.346065 L 262.692322 513.788364 L 301.17707 513.788364 C 301.17707 495.32784 310.570607 479.125191 324.820668 469.600769 Z M 324.820668 469.600769 " stroke="#373431" stroke-width="12" stroke-opacity="1" stroke-miterlimit="10"/><path stroke-linecap="round" transform="matrix(0.244517, 0, 0, 0.245668, 100.732234, 138.138125)" fill="none" stroke-linejoin="round" d="M 442.910853 478.361965 C 442.910853 497.919627 427.047277 513.788364 407.477407 513.788364 C 387.907537 513.788364 372.043961 497.919627 372.043961 478.361965 C 372.043961 458.756602 387.907537 442.919666 407.477407 442.919666 C 427.047277 442.919666 442.910853 458.756602 442.910853 478.361965 Z M 442.910853 478.361965 " stroke="#373431" stroke-width="12" stroke-opacity="1" stroke-miterlimit="10"/><path stroke-linecap="round" transform="matrix(0.244517, 0, 0, 0.245668, 100.732234, 138.138125)" fill="none" stroke-linejoin="round" d="M 372.043961 478.361965 C 372.043961 473.528202 373.018461 468.932946 374.775755 464.751105 C 368.481446 462.095715 361.580072 460.632865 354.327238 460.632865 C 324.948471 460.632865 301.17707 484.42007 301.17707 513.788364 L 407.477407 513.788364 C 387.907537 513.788364 372.043961 497.919627 372.043961 478.361965 Z M 372.043961 478.361965 " stroke="#373431" stroke-width="12" stroke-opacity="1" stroke-miterlimit="10"/><path stroke-linecap="round" transform="matrix(0.244517, 0, 0, 0.245668, 100.732234, 138.138125)" fill="none" stroke-linejoin="round" d="M 440.530518 465.911844 C 442.000255 469.807476 442.910853 473.957516 442.910853 478.361965 C 442.910853 497.919627 427.047277 513.788364 407.477407 513.788364 L 552.246517 513.788364 Z M 440.530518 465.911844 " stroke="#373431" stroke-width="12" stroke-opacity="1" stroke-miterlimit="10"/><path stroke-linecap="round" transform="matrix(0.244517, 0, 0, 0.245668, 100.732234, 138.138125)" fill="none" stroke-linejoin="round" d="M 404.82549 307.447081 C 432.478914 335.066315 432.478914 379.842231 404.82549 407.461466 C 432.478914 379.842231 432.478914 335.066315 404.82549 307.447081 Z M 404.82549 307.447081 " stroke="#373431" stroke-width="12" stroke-opacity="1" stroke-miterlimit="10"/><path stroke-linecap="round" transform="matrix(0.244517, 0, 0, 0.245668, 100.732234, 138.138125)" fill="none" stroke-linejoin="round" d="M 366.883906 124.018472 C 311.609009 179.272842 311.609009 268.856474 366.883906 324.126745 L 366.899881 324.126745 C 389.920438 347.150724 389.920438 384.437486 366.899881 407.461466 C 389.920438 384.437486 389.920438 347.150724 366.899881 324.126745 L 366.883906 324.126745 C 311.609009 268.856474 311.609009 179.272842 366.883906 124.018472 Z M 366.883906 124.018472 " stroke="#373431" stroke-width="12" stroke-opacity="1" stroke-miterlimit="10"/><path stroke-linecap="round" transform="matrix(0.244517, 0, 0, 0.245668, 100.732234, 138.138125)" fill="none" stroke-linejoin="round" d="M 304.75556 357.454273 C 304.75556 302.199903 349.550593 257.408087 404.82549 257.408087 C 349.550593 257.408087 304.75556 302.199903 304.75556 357.454273 Z M 304.75556 357.454273 " stroke="#373431" stroke-width="12" stroke-opacity="1" stroke-miterlimit="10"/><path stroke-linecap="round" transform="matrix(0.244517, 0, 0, 0.245668, 100.732234, 138.138125)" fill="none" stroke-linejoin="round" d="M 293.07754 274.071851 C 279.258816 240.744323 280.281242 204.952211 293.07754 174.025665 C 280.281242 204.952211 279.258816 240.744323 293.07754 274.071851 Z M 293.07754 274.071851 " stroke="#373431" stroke-width="12" stroke-opacity="1" stroke-miterlimit="10"/><g fill="#000000" fill-opacity="1"><g transform="translate(122.303398, 123.137377)"><g><path d="M -6.984375 -31.828125 L 4.625 -11.78125 C 5.03125 -11.082031 5.484375 -10.671875 5.984375 -10.546875 C 6.492188 -10.421875 7.125 -10.578125 7.875 -11.015625 L 17.109375 -16.359375 L 19.984375 -12 C 17.535156 -10.1875 13.832031 -7.84375 8.875 -4.96875 C 6.789062 -3.769531 4.941406 -3.394531 3.328125 -3.84375 C 1.722656 -4.300781 0.414062 -5.398438 -0.59375 -7.140625 L -12.90625 -28.390625 Z M -6.984375 -31.828125 "/></g></g></g><g fill="#000000" fill-opacity="1"><g transform="translate(141.941604, 111.158638)"><g><path d="M 17.921875 -37.59375 L 23.15625 -19.671875 C 24.488281 -15.117188 24.554688 -11.648438 23.359375 -9.265625 C 22.160156 -6.890625 19.4375 -5.082031 15.1875 -3.84375 C 10.695312 -2.519531 7.257812 -2.523438 4.875 -3.859375 C 2.5 -5.203125 0.644531 -8.148438 -0.6875 -12.703125 L -5.921875 -30.625 L 0.65625 -32.546875 L 5.890625 -14.625 C 6.691406 -11.882812 7.625 -10.125 8.6875 -9.34375 C 9.75 -8.5625 11.296875 -8.46875 13.328125 -9.0625 C 15.347656 -9.65625 16.585938 -10.5625 17.046875 -11.78125 C 17.515625 -13.007812 17.347656 -14.992188 16.546875 -17.734375 L 11.3125 -35.65625 Z M 17.921875 -37.59375 "/></g></g></g><g fill="#000000" fill-opacity="1"><g transform="translate(169.814147, 102.646343)"><g><path d="M 29.015625 -31.359375 L 29.3125 -2.78125 C 29.332031 -1.132812 28.53125 -0.304688 26.90625 -0.296875 L 22.640625 -0.25 C 21.941406 -0.238281 21.394531 -0.382812 21 -0.6875 C 20.613281 -1 20.238281 -1.519531 19.875 -2.25 L 11.546875 -18.703125 C 10.503906 -20.890625 9.859375 -22.492188 9.609375 -23.515625 L 9.109375 -23.5 C 9.328125 -22.007812 9.445312 -20.363281 9.46875 -18.5625 L 9.671875 -0.109375 L 3.15625 -0.03125 L 2.84375 -28.609375 C 2.832031 -30.253906 3.648438 -31.085938 5.296875 -31.109375 L 9.484375 -31.15625 C 10.171875 -31.164062 10.707031 -31.015625 11.09375 -30.703125 C 11.488281 -30.390625 11.875 -29.878906 12.25 -29.171875 L 20.296875 -13.171875 C 21.066406 -11.679688 21.832031 -10.03125 22.59375 -8.21875 L 23.03125 -8.21875 C 22.832031 -10.550781 22.726562 -12.289062 22.71875 -13.4375 L 22.53125 -31.296875 Z M 29.015625 -31.359375 "/></g></g></g><g fill="#000000" fill-opacity="1"><g transform="translate(200.99631, 102.534335)"><g><path d="M 25.21875 0.34375 L 24.515625 5.421875 C 21.691406 5.585938 18.378906 5.191406 14.578125 4.234375 C 9.921875 3.054688 6.9375 1.066406 5.625 -1.734375 C 4.320312 -4.535156 4.390625 -8.800781 5.828125 -14.53125 C 7.273438 -20.269531 9.238281 -24.066406 11.71875 -25.921875 C 14.195312 -27.773438 17.765625 -28.113281 22.421875 -26.9375 C 25.796875 -26.09375 28.722656 -25.003906 31.203125 -23.671875 L 29.375 -18.828125 C 27.050781 -19.566406 24.25 -20.347656 20.96875 -21.171875 C 18.78125 -21.722656 17.113281 -21.410156 15.96875 -20.234375 C 14.820312 -19.054688 13.769531 -16.570312 12.8125 -12.78125 C 11.863281 -9 11.613281 -6.316406 12.0625 -4.734375 C 12.519531 -3.160156 13.84375 -2.097656 16.03125 -1.546875 C 20.070312 -0.535156 23.132812 0.09375 25.21875 0.34375 Z M 25.21875 0.34375 "/></g></g></g><g fill="#000000" fill-opacity="1"><g transform="translate(225.582385, 108.272962)"><g><path d="M 39.25 -14 L 24.4375 13.28125 L 18.421875 10 L 25.03125 -2.171875 L 15.390625 -7.40625 L 8.78125 4.765625 L 2.78125 1.5 L 17.59375 -25.78125 L 23.59375 -22.515625 L 17.9375 -12.078125 L 27.578125 -6.84375 L 33.234375 -17.28125 Z M 39.25 -14 "/></g></g></g><g fill="#000000" fill-opacity="1"><g transform="translate(110.586781, 187.04914)"><g><path d="M 6.234375 -41.390625 L 11.75 -45.046875 C 13.125 -45.960938 14.304688 -45.722656 15.296875 -44.328125 L 32.0625 -21.265625 L 26.671875 -17.6875 L 11.59375 -38.515625 L 10.953125 -38.09375 L 17.6875 -19.515625 C 18.25 -18.117188 17.878906 -16.988281 16.578125 -16.125 L 12.828125 -13.640625 C 11.523438 -12.773438 10.34375 -12.875 9.28125 -13.9375 L -5.28125 -27.328125 L -5.921875 -26.90625 L 7.53125 -5 L 2.140625 -1.421875 L -12.671875 -25.765625 C -13.535156 -27.242188 -13.296875 -28.429688 -11.953125 -29.328125 L -6.421875 -32.984375 C -5.203125 -33.796875 -4.050781 -33.679688 -2.96875 -32.640625 L 8.734375 -21.8125 C 9.484375 -21.125 10.515625 -20.066406 11.828125 -18.640625 L 12.328125 -18.96875 C 12.265625 -19.113281 12.015625 -19.6875 11.578125 -20.6875 C 11.140625 -21.695312 10.804688 -22.484375 10.578125 -23.046875 L 5.140625 -38.015625 C 4.617188 -39.441406 4.984375 -40.566406 6.234375 -41.390625 Z M 6.234375 -41.390625 "/></g></g></g><g fill="#000000" fill-opacity="1"><g transform="translate(144.628428, 166.302418)"><g><path d="M 9.390625 -3.390625 L 2.96875 -1.078125 L -7.59375 -30.265625 L -1.171875 -32.578125 Z M 9.390625 -3.390625 "/></g></g></g><g fill="#000000" fill-opacity="1"><g transform="translate(156.491546, 161.067871)"><g><path d="M 3.125 -0.46875 L -1.5 -31.171875 C 2.664062 -32.078125 6.613281 -32.8125 10.34375 -33.375 C 15.25 -34.113281 18.828125 -33.492188 21.078125 -31.515625 C 23.328125 -29.546875 24.90625 -25.566406 25.8125 -19.578125 C 26.71875 -13.585938 26.382812 -9.320312 24.8125 -6.78125 C 23.238281 -4.238281 20 -2.597656 15.09375 -1.859375 C 11.363281 -1.296875 7.375 -0.832031 3.125 -0.46875 Z M 6 -27.25 L 9.125 -6.46875 C 9.625 -6.539062 10.445312 -6.65625 11.59375 -6.8125 C 12.738281 -6.976562 13.632812 -7.109375 14.28125 -7.203125 C 16.570312 -7.546875 18.03125 -8.503906 18.65625 -10.078125 C 19.28125 -11.660156 19.289062 -14.46875 18.6875 -18.5 C 18.082031 -22.539062 17.242188 -25.226562 16.171875 -26.5625 C 15.109375 -27.90625 13.429688 -28.40625 11.140625 -28.0625 Z M 6 -27.25 "/></g></g></g><g fill="#000000" fill-opacity="1"><g transform="translate(185.334951, 156.531137)"><g><path d="M 3.140625 0.375 L 6.765625 -30.453125 C 11.023438 -30.234375 15.023438 -29.90625 18.765625 -29.46875 C 23.691406 -28.882812 26.984375 -27.347656 28.640625 -24.859375 C 30.296875 -22.367188 30.769531 -18.113281 30.0625 -12.09375 C 29.351562 -6.082031 27.90625 -2.054688 25.71875 -0.015625 C 23.53125 2.023438 19.972656 2.753906 15.046875 2.171875 C 11.304688 1.734375 7.335938 1.132812 3.140625 0.375 Z M 12.96875 -24.71875 L 10.515625 -3.84375 C 11.015625 -3.789062 11.835938 -3.6875 12.984375 -3.53125 C 14.128906 -3.382812 15.023438 -3.273438 15.671875 -3.203125 C 17.972656 -2.929688 19.632812 -3.472656 20.65625 -4.828125 C 21.675781 -6.191406 22.425781 -8.898438 22.90625 -12.953125 C 23.382812 -17.003906 23.285156 -19.816406 22.609375 -21.390625 C 21.929688 -22.960938 20.441406 -23.882812 18.140625 -24.15625 Z M 12.96875 -24.71875 "/></g></g></g><g fill="#000000" fill-opacity="1"><g transform="translate(214.414206, 159.859641)"><g><path d="M 21.578125 -0.1875 L 11.65625 -4.125 L 6.5625 2.609375 L 0.046875 0.015625 L 19.15625 -23.859375 C 19.46875 -24.316406 19.890625 -24.613281 20.421875 -24.75 C 20.960938 -24.894531 21.503906 -24.863281 22.046875 -24.65625 L 28.046875 -22.265625 C 29.253906 -21.785156 29.773438 -20.9375 29.609375 -19.71875 L 27.140625 10.78125 L 20.671875 8.203125 Z M 22.15625 -5.671875 L 23.234375 -15.46875 C 23.453125 -17 23.613281 -17.984375 23.71875 -18.421875 L 22.609375 -18.859375 C 22.429688 -18.597656 22.148438 -18.1875 21.765625 -17.625 C 21.390625 -17.070312 21.097656 -16.660156 20.890625 -16.390625 L 14.953125 -8.53125 Z M 22.15625 -5.671875 "/></g></g></g><g fill="#000000" fill-opacity="1"><g transform="translate(240.514772, 170.070069)"><g><path d="M 32.078125 1.3125 L 21.484375 15.75 L 17.40625 12.765625 L 18.75 9.90625 C 15.363281 10.46875 12.226562 9.691406 9.34375 7.578125 C 6.539062 5.515625 5.257812 2.992188 5.5 0.015625 C 5.75 -2.953125 7.5625 -6.734375 10.9375 -11.328125 C 14.519531 -16.222656 17.820312 -18.992188 20.84375 -19.640625 C 23.875 -20.296875 27.46875 -19.097656 31.625 -16.046875 C 34.65625 -13.828125 37.007812 -11.648438 38.6875 -9.515625 L 35.265625 -5.78125 C 32.617188 -7.894531 30.304688 -9.679688 28.328125 -11.140625 C 27.203125 -11.960938 26.253906 -12.515625 25.484375 -12.796875 C 24.722656 -13.078125 23.875 -13.09375 22.9375 -12.84375 C 22.007812 -12.601562 21.066406 -12.007812 20.109375 -11.0625 C 19.148438 -10.113281 18 -8.71875 16.65625 -6.875 C 14.363281 -3.75 13.078125 -1.394531 12.796875 0.1875 C 12.523438 1.769531 13.175781 3.140625 14.75 4.296875 C 16.207031 5.359375 18.023438 6.035156 20.203125 6.328125 L 26.75 -2.59375 Z M 32.078125 1.3125 "/></g></g></g></svg>