<svg xmlns="http://www.w3.org/2000/svg" xmlns:xlink="http://www.w3.org/1999/xlink" width="500" zoomAndPan="magnify" viewBox="0 0 375 374.999991" height="500" preserveAspectRatio="xMidYMid meet" version="1.0"><defs><g/><clipPath id="d7aeadf4ab"><path d="M 45.238281 45.238281 L 329.761719 45.238281 L 329.761719 329.761719 L 45.238281 329.761719 Z M 45.238281 45.238281 " clip-rule="nonzero"/></clipPath><clipPath id="beba9fb707"><path d="M 187.5 45.238281 C 108.929688 45.238281 45.238281 108.929688 45.238281 187.5 C 45.238281 266.070312 108.929688 329.761719 187.5 329.761719 C 266.070312 329.761719 329.761719 266.070312 329.761719 187.5 C 329.761719 108.929688 266.070312 45.238281 187.5 45.238281 Z M 187.5 45.238281 " clip-rule="nonzero"/></clipPath><clipPath id="403b1984a3"><path d="M 108.628906 140.386719 L 266 140.386719 L 266 277.636719 L 108.628906 277.636719 Z M 108.628906 140.386719 " clip-rule="nonzero"/></clipPath></defs><g clip-path="url(#d7aeadf4ab)"><g clip-path="url(#beba9fb707)"><path fill="#f2f2f0" d="M 45.238281 45.238281 L 329.761719 45.238281 L 329.761719 329.761719 L 45.238281 329.761719 Z M 45.238281 45.238281 " fill-opacity="1" fill-rule="nonzero"/></g></g><g clip-path="url(#403b1984a3)"><path fill="#000000" d="M 145.234375 175.132812 L 142.253906 175.132812 L 141.78125 176.230469 C 141 176.230469 140.371094 176.390625 139.585938 176.390625 L 140.527344 178.433594 L 142.566406 179.0625 L 146.804688 177.019531 C 146.648438 176.546875 146.492188 176.074219 146.335938 175.761719 L 149.003906 173.558594 Z M 265.464844 213.964844 L 263.582031 213.175781 L 263.421875 209.089844 L 259.5 207.203125 L 257.929688 204.375 L 255.890625 201.859375 L 259.5 197.613281 L 259.1875 194.625 L 256.046875 193.839844 L 255.734375 190.851562 L 254.476562 186.921875 L 256.203125 184.25 L 254.476562 183.464844 C 255.417969 180.160156 256.359375 177.019531 257.300781 173.714844 L 256.988281 169.472656 L 254.007812 169.3125 L 249.296875 164.753906 L 246 164.125 L 241.449219 161.453125 L 238.625 160.980469 L 236.898438 161.925781 L 234.230469 161.769531 L 231.089844 164.910156 L 227.480469 165.855469 L 227.167969 167.113281 L 220.890625 168.527344 L 215.082031 167.585938 L 212.257812 164.910156 L 208.332031 163.8125 L 207.078125 160.039062 L 206.136719 160.351562 L 203.625 157.679688 L 205.035156 155.164062 L 203.78125 153.59375 L 202.210938 153.90625 L 197.34375 157.835938 L 195.933594 157.996094 L 193.109375 157.367188 L 191.066406 155.007812 L 190.4375 152.804688 L 188.871094 151.234375 L 185.886719 149.976562 L 186.203125 147.304688 L 185.574219 145.417969 L 181.648438 142.746094 L 177.253906 143.058594 L 172.390625 145.890625 L 168.9375 145.417969 L 164.226562 146.203125 L 158.421875 144.160156 L 151.355469 140.386719 L 144.609375 140.542969 L 139.898438 142.117188 L 135.035156 145.574219 L 127.34375 144.789062 L 125.617188 148.875 L 119.339844 149.03125 L 114.785156 154.0625 L 117.296875 156.578125 L 115.257812 160.667969 L 118.238281 163.496094 L 120.59375 168.527344 L 124.988281 168.371094 L 128.914062 171.042969 L 131.738281 170.414062 L 132.679688 168.371094 L 137.074219 168.527344 L 140.371094 171.199219 L 146.492188 170.570312 L 149.316406 167.585938 L 152.769531 168.683594 L 155.28125 168.214844 L 153.710938 170.101562 L 155.28125 172.457031 L 154.339844 174.972656 L 154.652344 178.746094 L 154.652344 178.902344 L 152.613281 182.363281 L 151.199219 186.292969 L 151.042969 186.292969 L 150.414062 187.550781 L 149.628906 191.324219 L 148.53125 193.527344 L 148.847656 193.839844 L 147.589844 195.410156 L 145.550781 196.667969 L 142.410156 196.355469 L 139.113281 195.253906 L 138.171875 196.828125 L 137.074219 194.46875 L 134.25 193.839844 L 130.796875 194.152344 L 129.070312 195.570312 L 125.929688 197.140625 C 122.792969 195.882812 119.339844 194.78125 116.042969 193.683594 L 110.707031 193.839844 L 109.292969 196.199219 L 109.921875 197.925781 L 108.820312 200.914062 L 110.078125 204.6875 L 110.078125 237.390625 L 158.261719 237.390625 L 157.476562 236.445312 L 152.769531 232.515625 L 152.769531 229.683594 L 153.554688 228.898438 L 149.945312 224.027344 L 148.6875 221.511719 L 147.121094 218.996094 L 143.980469 211.917969 L 141.46875 207.203125 L 139.742188 202.328125 L 140.214844 201.859375 L 143.039062 208.460938 C 144.136719 209.71875 145.078125 210.820312 146.175781 212.078125 L 147.121094 211.289062 L 148.21875 208.933594 L 149.160156 205.472656 L 150.257812 203.585938 L 150.414062 204.214844 L 149.945312 206.101562 L 149.789062 207.675781 L 149.160156 210.191406 L 151.199219 210.191406 C 152.769531 212.546875 154.183594 214.75 155.75 217.109375 L 157.320312 220.410156 L 158.578125 221.351562 L 159.675781 223.710938 L 159.519531 224.652344 L 160.929688 227.167969 L 163.128906 228.113281 L 165.011719 229.84375 L 167.367188 234.714844 L 167.210938 237.390625 L 167.679688 240.375 L 170.347656 244.464844 L 172.230469 245.25 L 175.058594 248.238281 L 176.15625 251.695312 L 178.355469 255.3125 L 180.394531 256.882812 L 180.707031 258.613281 L 181.964844 259.871094 L 182.433594 261.757812 L 182.589844 263.644531 L 182.121094 264.429688 L 182.589844 266.316406 L 181.808594 266.472656 L 182.90625 268.203125 L 183.691406 271.347656 L 184.316406 272.605469 L 184.160156 274.964844 L 185.257812 277.480469 L 188.085938 277.636719 L 189.339844 277.007812 L 191.382812 277.164062 L 192.007812 276.0625 L 193.109375 275.75 L 194.050781 274.648438 L 195.148438 274.335938 L 198.601562 274.175781 L 201.269531 273.390625 L 203.625 271.660156 L 204.566406 271.820312 L 206.292969 271.660156 L 209.902344 268.675781 L 216.335938 266.632812 L 220.417969 264.902344 L 220.574219 263.488281 L 221.359375 261.601562 L 224.339844 260.5 L 226.226562 260.183594 L 228.894531 258.769531 L 231.089844 259.242188 L 233.132812 257.984375 L 233.132812 256.253906 L 234.699219 255.152344 L 237.210938 255.152344 L 238.152344 254.210938 L 238.625 252.167969 L 241.136719 250.59375 L 243.019531 250.59375 L 243.332031 250.125 L 242.863281 247.292969 L 243.492188 245.09375 L 244.273438 243.992188 L 246.160156 244.148438 L 247.726562 241.160156 L 249.453125 239.746094 C 250.082031 238.488281 250.867188 237.230469 251.652344 235.972656 L 251.652344 235.03125 L 250.082031 234.558594 C 249.140625 233.300781 248.042969 231.886719 247.101562 230.628906 L 244.746094 229.84375 L 241.765625 229.214844 L 239.566406 227.640625 L 237.683594 224.652344 L 237.054688 221.039062 L 237.527344 220.253906 L 237.839844 218.367188 L 237.527344 217.738281 L 236.269531 219.308594 C 233.601562 222.296875 230.621094 224.96875 227.953125 227.957031 C 226.066406 227.796875 224.027344 227.796875 222.144531 227.640625 L 219.003906 228.269531 L 218.847656 227.011719 L 218.0625 227.167969 L 217.277344 225.441406 L 218.21875 222.769531 L 218.21875 220.09375 L 216.964844 218.679688 L 215.867188 219.152344 L 214.765625 221.511719 L 215.082031 224.8125 L 214.453125 223.710938 L 213.984375 222.296875 L 212.882812 221.039062 L 212.414062 219.464844 L 212.882812 217.894531 L 212.570312 216.007812 L 209.746094 214.121094 L 209.117188 212.546875 L 207.078125 211.449219 C 206.136719 208.933594 205.035156 206.417969 204.25 203.902344 L 204.566406 202.800781 L 203.78125 200.757812 L 206.136719 200.914062 L 207.703125 199.027344 L 210.214844 200.601562 L 212.414062 199.8125 L 215.394531 206.101562 L 218.0625 210.503906 L 221.988281 211.761719 L 226.066406 215.222656 L 231.089844 216.792969 L 235.171875 214.59375 L 238.3125 213.804688 L 240.195312 214.59375 L 241.921875 220.09375 L 246.472656 220.722656 C 250.554688 221.667969 254.476562 222.453125 258.558594 223.082031 L 260.128906 217.894531 L 265.933594 215.535156 Z M 265.464844 213.964844 " fill-opacity="1" fill-rule="nonzero"/></g><g fill="#000000" fill-opacity="1"><g transform="translate(87.084058, 207.129508)"><g><path d="M -27.765625 -31.3125 L -27.046875 -37.890625 C -26.859375 -39.535156 -25.914062 -40.296875 -24.21875 -40.171875 L 4.234375 -38.234375 L 3.515625 -31.8125 L -22.125 -33.59375 L -22.21875 -32.828125 L -3.625 -26.078125 C -2.207031 -25.609375 -1.582031 -24.597656 -1.75 -23.046875 L -2.25 -18.578125 C -2.414062 -17.035156 -3.242188 -16.195312 -4.734375 -16.0625 L -24.359375 -13.46875 L -24.4375 -12.703125 L 1 -8.984375 L 0.28125 -2.546875 L -27.90625 -6.796875 C -29.59375 -7.078125 -30.347656 -8.019531 -30.171875 -9.625 L -29.4375 -16.203125 C -29.28125 -17.660156 -28.457031 -18.472656 -26.96875 -18.640625 L -11.15625 -20.6875 C -10.132812 -20.820312 -8.660156 -20.929688 -6.734375 -21.015625 L -6.671875 -21.609375 C -6.804688 -21.660156 -7.398438 -21.84375 -8.453125 -22.15625 C -9.515625 -22.46875 -10.332031 -22.71875 -10.90625 -22.90625 L -25.890625 -28.3125 C -27.304688 -28.820312 -27.929688 -29.820312 -27.765625 -31.3125 Z M -27.765625 -31.3125 "/></g></g></g><g fill="#000000" fill-opacity="1"><g transform="translate(92.152182, 168.76996)"><g><path d="M 4.890625 -23.921875 L 9.625 -22.125 C 8.738281 -19.425781 6.898438 -14.984375 4.109375 -8.796875 C 3.265625 -6.910156 2.078125 -5.640625 0.546875 -4.984375 C -0.984375 -4.328125 -2.628906 -4.378906 -4.390625 -5.140625 L -21.546875 -12.859375 C -23.285156 -13.679688 -24.414062 -14.882812 -24.9375 -16.46875 C -25.457031 -18.050781 -25.296875 -19.785156 -24.453125 -21.671875 C -21.660156 -27.859375 -19.546875 -32.175781 -18.109375 -34.625 L -13.609375 -32.25 L -18.515625 -21.359375 C -18.816406 -20.671875 -18.867188 -20.101562 -18.671875 -19.65625 C -18.472656 -19.21875 -18.007812 -18.832031 -17.28125 -18.5 L -12.96875 -16.5625 L -7.890625 -27.84375 L -3.390625 -25.8125 L -8.46875 -14.53125 L -3 -12.0625 C -2.238281 -11.71875 -1.625 -11.617188 -1.15625 -11.765625 C -0.695312 -11.921875 -0.316406 -12.34375 -0.015625 -13.03125 Z M 4.890625 -23.921875 "/></g></g></g><g fill="#000000" fill-opacity="1"><g transform="translate(102.37779, 146.05896)"><g><path d="M -18.375 -26.9375 L -0.109375 -12.65625 C 0.523438 -12.15625 1.101562 -11.941406 1.625 -12.015625 C 2.144531 -12.085938 2.671875 -12.46875 3.203125 -13.15625 L 9.765625 -21.5625 L 14.078125 -18.59375 C 12.472656 -15.988281 9.90625 -12.429688 6.375 -7.921875 C 4.894531 -6.023438 3.320312 -4.988281 1.65625 -4.8125 C -0.0078125 -4.632812 -1.632812 -5.164062 -3.21875 -6.40625 L -22.578125 -21.53125 Z M -18.375 -26.9375 "/></g></g></g><g fill="#000000" fill-opacity="1"><g transform="translate(116.510271, 127.813437)"><g><path d="M -11.6875 -30.421875 L 2.8125 -12.34375 C 3.320312 -11.707031 3.832031 -11.367188 4.34375 -11.328125 C 4.863281 -11.285156 5.460938 -11.53125 6.140625 -12.0625 L 14.46875 -18.75 L 17.96875 -14.859375 C 15.8125 -12.703125 12.5 -9.832031 8.03125 -6.25 C 6.15625 -4.75 4.382812 -4.101562 2.71875 -4.3125 C 1.050781 -4.519531 -0.410156 -5.410156 -1.671875 -6.984375 L -17.03125 -26.140625 Z M -11.6875 -30.421875 "/></g></g></g><g fill="#000000" fill-opacity="1"><g transform="translate(133.95869, 113.198647)"><g><path d="M 14.90625 -15.59375 L 5.171875 -11.234375 L 6.4375 -2.890625 L 0.046875 -0.015625 L -3.734375 -30.375 C -3.847656 -30.914062 -3.765625 -31.425781 -3.484375 -31.90625 C -3.210938 -32.394531 -2.816406 -32.753906 -2.296875 -32.984375 L 3.609375 -35.625 C 4.785156 -36.15625 5.757812 -35.9375 6.53125 -34.96875 L 26.65625 -11.9375 L 20.296875 -9.09375 Z M 11.375 -19.84375 L 5.109375 -27.453125 C 4.160156 -28.671875 3.570312 -29.46875 3.34375 -29.84375 L 2.234375 -29.359375 C 2.304688 -29.054688 2.40625 -28.570312 2.53125 -27.90625 C 2.664062 -27.238281 2.753906 -26.742188 2.796875 -26.421875 L 4.3125 -16.671875 Z M 11.375 -19.84375 "/></g></g></g><g fill="#000000" fill-opacity="1"><g transform="translate(158.839231, 101.508238)"><g><path d="M 25.0625 -34.59375 L 28.765625 -6.265625 C 28.984375 -4.628906 28.285156 -3.707031 26.671875 -3.5 L 22.453125 -2.9375 C 21.753906 -2.851562 21.191406 -2.9375 20.765625 -3.1875 C 20.347656 -3.445312 19.910156 -3.914062 19.453125 -4.59375 L 9.25 -19.953125 C 7.9375 -21.992188 7.097656 -23.503906 6.734375 -24.484375 L 6.234375 -24.421875 C 6.640625 -22.960938 6.960938 -21.335938 7.203125 -19.546875 L 9.59375 -1.25 L 3.125 -0.40625 L -0.59375 -28.734375 C -0.800781 -30.367188 -0.0859375 -31.296875 1.546875 -31.515625 L 5.703125 -32.0625 C 6.378906 -32.144531 6.929688 -32.054688 7.359375 -31.796875 C 7.785156 -31.546875 8.226562 -31.082031 8.6875 -30.40625 L 18.578125 -15.5 C 19.515625 -14.101562 20.476562 -12.554688 21.46875 -10.859375 L 21.890625 -10.90625 C 21.421875 -13.195312 21.109375 -14.910156 20.953125 -16.046875 L 18.640625 -33.75 Z M 25.0625 -34.59375 "/></g></g></g><g fill="#000000" fill-opacity="1"><g transform="translate(189.133076, 97.377598)"><g><path d="M 16.625 -37.625 L 18.796875 -37.265625 C 19.742188 -37.097656 20.132812 -36.53125 19.96875 -35.5625 L 19.53125 -33.015625 C 19.375 -32.035156 18.820312 -31.628906 17.875 -31.796875 L 15.703125 -32.15625 C 14.753906 -32.3125 14.359375 -32.878906 14.515625 -33.859375 L 14.953125 -36.40625 C 15.117188 -37.375 15.675781 -37.78125 16.625 -37.625 Z M 24.703125 -36.265625 L 26.875 -35.90625 C 27.84375 -35.738281 28.242188 -35.171875 28.078125 -34.203125 L 27.640625 -31.65625 C 27.484375 -30.675781 26.921875 -30.269531 25.953125 -30.4375 L 23.78125 -30.796875 C 22.800781 -30.960938 22.390625 -31.535156 22.546875 -32.515625 L 22.984375 -35.0625 C 23.148438 -36.03125 23.722656 -36.429688 24.703125 -36.265625 Z M 9.640625 -26.96875 C 11.929688 -28.914062 15.53125 -29.472656 20.4375 -28.640625 C 25.351562 -27.816406 28.578125 -26.109375 30.109375 -23.515625 C 31.648438 -20.921875 31.90625 -16.585938 30.875 -10.515625 C 29.851562 -4.453125 28.191406 -0.457031 25.890625 1.46875 C 23.597656 3.394531 19.992188 3.941406 15.078125 3.109375 C 10.171875 2.285156 6.953125 0.585938 5.421875 -1.984375 C 3.890625 -4.566406 3.632812 -8.890625 4.65625 -14.953125 C 5.6875 -21.023438 7.347656 -25.03125 9.640625 -26.96875 Z M 23.875 -20.203125 C 23.28125 -21.796875 21.828125 -22.785156 19.515625 -23.171875 C 17.203125 -23.566406 15.503906 -23.109375 14.421875 -21.796875 C 13.335938 -20.492188 12.453125 -17.816406 11.765625 -13.765625 C 11.085938 -9.710938 11.046875 -6.890625 11.640625 -5.296875 C 12.234375 -3.710938 13.6875 -2.722656 16 -2.328125 C 18.3125 -1.941406 20.007812 -2.398438 21.09375 -3.703125 C 22.1875 -5.003906 23.070312 -7.679688 23.75 -11.734375 C 24.4375 -15.785156 24.476562 -18.609375 23.875 -20.203125 Z M 23.875 -20.203125 "/></g></g></g><g fill="#000000" fill-opacity="1"><g transform="translate(217.963011, 102.349343)"><g><path d="M 18.234375 -4.4375 L 13.5 -9.09375 C 11.75 -10.820312 10.734375 -12.546875 10.453125 -14.265625 C 10.171875 -15.992188 10.523438 -17.921875 11.515625 -20.046875 C 12.960938 -23.140625 14.6875 -24.859375 16.6875 -25.203125 C 18.6875 -25.546875 21.585938 -24.828125 25.390625 -23.046875 C 28.972656 -21.367188 31.882812 -19.554688 34.125 -17.609375 L 31.734375 -13.5625 C 29.410156 -14.75 26.5 -16.164062 23 -17.8125 C 21.363281 -18.570312 20.207031 -18.9375 19.53125 -18.90625 C 18.863281 -18.875 18.257812 -18.289062 17.71875 -17.15625 C 17.289062 -16.226562 17.179688 -15.460938 17.390625 -14.859375 C 17.609375 -14.253906 18.195312 -13.5 19.15625 -12.59375 L 23.640625 -8.25 C 25.460938 -6.476562 26.507812 -4.722656 26.78125 -2.984375 C 27.0625 -1.242188 26.707031 0.679688 25.71875 2.796875 C 24.25 5.941406 22.488281 7.722656 20.4375 8.140625 C 18.382812 8.554688 15.398438 7.847656 11.484375 6.015625 C 8.304688 4.535156 5.253906 2.675781 2.328125 0.4375 L 4.796875 -3.875 C 10.515625 -1.03125 13.578125 0.484375 13.984375 0.671875 C 15.640625 1.453125 16.828125 1.796875 17.546875 1.703125 C 18.273438 1.609375 18.898438 1.003906 19.421875 -0.109375 C 19.867188 -1.054688 19.992188 -1.8125 19.796875 -2.375 C 19.609375 -2.945312 19.085938 -3.632812 18.234375 -4.4375 Z M 18.234375 -4.4375 "/></g></g></g><g fill="#000000" fill-opacity="1"><g transform="translate(240.664766, 112.740819)"><g><path d="M 36.453125 -2.859375 L 29.328125 -8.78125 L 13.0625 10.828125 L 7.75 6.4375 L 24.015625 -13.171875 L 16.890625 -19.09375 L 20.4375 -23.375 L 40 -7.140625 Z M 36.453125 -2.859375 "/></g></g></g><g fill="#000000" fill-opacity="1"><g transform="translate(260.595882, 129.160893)"><g><path d="M 18.28125 16.171875 L 14.359375 19.375 C 12.472656 17.257812 9.546875 13.453125 5.578125 7.953125 C 4.359375 6.273438 3.84375 4.609375 4.03125 2.953125 C 4.226562 1.304688 5.101562 -0.09375 6.65625 -1.25 L 21.90625 -12.265625 C 23.476562 -13.347656 25.078125 -13.722656 26.703125 -13.390625 C 28.335938 -13.054688 29.765625 -12.050781 30.984375 -10.375 C 34.953125 -4.875 37.632812 -0.890625 39.03125 1.578125 L 34.75 4.296875 L 27.765625 -5.390625 C 27.328125 -5.992188 26.863281 -6.320312 26.375 -6.375 C 25.882812 -6.425781 25.3125 -6.21875 24.65625 -5.75 L 20.828125 -2.96875 L 28.0625 7.0625 L 24.046875 9.9375 L 16.8125 -0.09375 L 11.953125 3.421875 C 11.273438 3.910156 10.882812 4.390625 10.78125 4.859375 C 10.6875 5.335938 10.859375 5.878906 11.296875 6.484375 Z M 18.28125 16.171875 "/></g></g></g><g fill="#000000" fill-opacity="1"><g transform="translate(275.295357, 148.893828)"><g><path d="M 9.8125 25.828125 L 7.25 19.0625 L 15.296875 13.5 C 16.109375 12.851562 16.597656 12.234375 16.765625 11.640625 C 16.941406 11.054688 16.867188 10.328125 16.546875 9.453125 L 14.875 4.9375 L 3.515625 9.265625 L 1.125 2.953125 L 30.140625 -8.078125 C 31.390625 -5.585938 32.921875 -1.957031 34.734375 2.8125 C 36.210938 6.707031 36.644531 9.703125 36.03125 11.796875 C 35.414062 13.890625 33.484375 15.554688 30.234375 16.796875 C 28.097656 17.609375 26.265625 17.816406 24.734375 17.421875 C 23.203125 17.035156 21.929688 15.890625 20.921875 13.984375 L 20.71875 14.0625 C 21.050781 16.476562 20.113281 18.414062 17.90625 19.875 Z M 19.796875 3.078125 L 21.5625 7.6875 C 22.195312 9.375 22.914062 10.414062 23.71875 10.8125 C 24.53125 11.207031 25.734375 11.097656 27.328125 10.484375 C 28.929688 9.878906 29.898438 9.164062 30.234375 8.34375 C 30.566406 7.53125 30.410156 6.269531 29.765625 4.5625 L 27.953125 -0.03125 Z M 19.796875 3.078125 "/></g></g></g><g fill="#000000" fill-opacity="1"><g transform="translate(285.441337, 174.131351)"><g><path d="M 33.140625 26.96875 L 4.640625 29.078125 C 2.992188 29.203125 2.109375 28.453125 1.984375 26.828125 L 1.671875 22.578125 C 1.617188 21.878906 1.734375 21.328125 2.015625 20.921875 C 2.296875 20.515625 2.789062 20.101562 3.5 19.6875 L 19.390625 10.34375 C 21.503906 9.164062 23.066406 8.421875 24.078125 8.109375 L 24.03125 7.609375 C 22.550781 7.921875 20.914062 8.144531 19.125 8.28125 L 0.71875 9.640625 L 0.234375 3.140625 L 28.734375 1.03125 C 30.378906 0.90625 31.265625 1.664062 31.390625 3.3125 L 31.6875 7.484375 C 31.738281 8.171875 31.625 8.722656 31.34375 9.140625 C 31.0625 9.554688 30.570312 9.972656 29.875 10.390625 L 14.421875 19.421875 C 12.984375 20.273438 11.382812 21.144531 9.625 22.03125 L 9.65625 22.46875 C 11.96875 22.125 13.695312 21.910156 14.84375 21.828125 L 32.65625 20.5 Z M 33.140625 26.96875 "/></g></g></g></svg>