<svg xmlns="http://www.w3.org/2000/svg" xmlns:xlink="http://www.w3.org/1999/xlink" width="500" zoomAndPan="magnify" viewBox="0 0 375 374.999991" height="500" preserveAspectRatio="xMidYMid meet" version="1.0"><defs><g/><clipPath id="ffdfa33324"><path d="M 45.238281 45.238281 L 329.761719 45.238281 L 329.761719 329.761719 L 45.238281 329.761719 Z M 45.238281 45.238281 " clip-rule="nonzero"/></clipPath><clipPath id="8181f80c97"><path d="M 187.5 45.238281 C 108.929688 45.238281 45.238281 108.929688 45.238281 187.5 C 45.238281 266.070312 108.929688 329.761719 187.5 329.761719 C 266.070312 329.761719 329.761719 266.070312 329.761719 187.5 C 329.761719 108.929688 266.070312 45.238281 187.5 45.238281 Z M 187.5 45.238281 " clip-rule="nonzero"/></clipPath><clipPath id="b01d177673"><path d="M 102 137 L 273.765625 137 L 273.765625 279 L 102 279 Z M 102 137 " clip-rule="nonzero"/></clipPath></defs><g clip-path="url(#ffdfa33324)"><g clip-path="url(#8181f80c97)"><path fill="#f2f2f0" d="M 45.238281 45.238281 L 329.761719 45.238281 L 329.761719 329.761719 L 45.238281 329.761719 Z M 45.238281 45.238281 " fill-opacity="1" fill-rule="nonzero"/></g></g><g clip-path="url(#b01d177673)"><path fill="#000000" d="M 244.691406 137.480469 C 244.703125 137.480469 244.703125 137.480469 244.691406 137.480469 Z M 205.085938 274.96875 C 204.640625 275.03125 204.492188 274.074219 204.140625 274.53125 C 203.117188 273.128906 201.160156 271.933594 200.964844 270.1875 C 200.789062 269.945312 200.789062 270.328125 200.769531 269.789062 C 201.207031 266.808594 203.0625 263.171875 202.441406 260.535156 C 202.609375 260.667969 201.820312 260.40625 201.894531 260.433594 C 200.75 257.890625 190.1875 261.175781 193.011719 258.484375 C 194.839844 254.914062 195.183594 250.882812 198.003906 248.027344 C 195.792969 245.207031 190.039062 247.609375 189.667969 251.332031 C 188.414062 254.050781 186.308594 253.5 183.691406 253.957031 C 179.578125 255.636719 177.816406 249.398438 177.082031 246.023438 C 177.296875 242.71875 178.011719 239.480469 179.773438 237.566406 C 179.734375 236.433594 179.253906 233.890625 180.164062 234.179688 C 180.90625 233.996094 180.042969 233.046875 180.671875 233.046875 C 180.710938 232.175781 182.019531 232.703125 182.132812 231.648438 C 182.902344 230.578125 184.777344 231.617188 185.613281 230.105469 C 185.742188 227.972656 188.144531 230.617188 188.238281 228.363281 C 188.832031 229.261719 188.777344 228.703125 189.417969 228.511719 C 190.003906 229.976562 191.117188 229.1875 191.960938 229.058594 C 194.855469 231.824219 192.917969 229.011719 194.976562 230.476562 C 195.265625 228 195.765625 231.480469 196.695312 230.5625 C 197.390625 229.558594 194.53125 229.734375 196.425781 228.992188 C 196.5 228.148438 194.78125 228.835938 194.941406 227.980469 C 195.292969 227.351562 195.589844 227.75 196 228.101562 C 197.132812 227.859375 197.890625 227.230469 199.050781 227.859375 C 200.101562 225.253906 199.273438 228.40625 200.703125 227.582031 C 201.875 226.96875 203.898438 227.542969 204.242188 229.132812 C 205.511719 229.132812 206.859375 227.210938 207.59375 229.417969 C 208.9375 230.644531 208.464844 231.824219 207.601562 233.046875 C 207.601562 234.320312 208.835938 232.296875 208.1875 233.679688 C 208.640625 235.683594 210.191406 241.855469 211.816406 237.382812 C 211.816406 237.382812 211.925781 236.863281 211.917969 236.890625 C 211.863281 220.742188 210.273438 227.441406 221.757812 218.003906 C 222.90625 218.785156 223.984375 217.113281 222.992188 216.546875 C 223.046875 215.769531 223.613281 217.253906 223.78125 216.289062 C 224.125 216.1875 223.871094 216.910156 224.449219 216.722656 C 226.722656 215.0625 224.058594 215.980469 223.871094 214.765625 C 224.4375 214.65625 225.226562 215.304688 225.570312 214.078125 C 225.777344 213.199219 224.476562 213.597656 224.363281 212.871094 C 225.886719 213.753906 224.734375 212.527344 224.929688 211.980469 C 226.296875 213.003906 224.402344 210.292969 224.449219 209.839844 C 224.894531 208.640625 226.027344 210.03125 226.195312 209.003906 C 225.953125 208.148438 227.160156 207.554688 227.789062 207.84375 C 227.324219 208.484375 226.648438 209.234375 226.527344 210.023438 C 227.605469 210.375 226.128906 211.785156 225.886719 212.519531 C 226.425781 212.882812 228.5625 210.339844 228.710938 209.261719 C 227.882812 206.515625 229.320312 210.65625 231.640625 206.320312 C 231.625 206.347656 231.910156 205.855469 231.902344 205.921875 C 231.066406 204.640625 235.058594 205.179688 236.042969 204.398438 C 230.148438 203.898438 238.621094 203.777344 240.285156 202.609375 C 239.902344 200.929688 240.050781 203.074219 239.394531 202.644531 C 238.410156 200.753906 240.285156 199.789062 241.371094 198.300781 C 241.351562 198.3125 241.695312 198.375 241.695312 198.375 C 242.816406 198.3125 243.421875 197.847656 244.097656 197.039062 C 245.492188 197.394531 246.207031 196.511719 247.300781 196.429688 C 247.523438 196.058594 248.621094 196.632812 247.960938 195.675781 C 247.96875 195.269531 249.824219 195.222656 249.972656 195.445312 C 250.421875 195.046875 252.878906 193.867188 251.746094 194.867188 C 251.664062 195.304688 252.277344 194.832031 252.414062 194.925781 C 251.328125 195.378906 247.117188 197.53125 248.703125 198.332031 C 248.945312 199.769531 251.859375 197.765625 252.238281 196.734375 C 253.425781 196.828125 255.246094 196.324219 256.460938 195.742188 C 257.113281 195.453125 257.882812 195.285156 258.542969 195.148438 C 259.265625 194.636719 257.398438 195.175781 258.28125 194.644531 C 259.023438 194.3125 260.054688 194.628906 260.648438 193.875 C 261.539062 193.664062 261.105469 193.039062 260.453125 192.890625 C 260.203125 192.417969 261.410156 191.59375 260.601562 191.242188 C 257.949219 193.335938 257.699219 194.960938 254.125 193.644531 C 254.261719 192.863281 252.609375 193.023438 253.148438 191.574219 C 253.457031 191.074219 252.804688 191.222656 252.667969 191.027344 C 253.203125 190.691406 254.375 189.8125 254.570312 189.328125 C 254.003906 189.894531 251.515625 189.886719 252.054688 188.957031 C 262.144531 187.203125 250.476562 184.167969 242.964844 191.371094 C 247.8125 187.285156 253.796875 182.785156 260.808594 184.625 C 263.40625 184.9375 265.632812 183.769531 267.546875 182.21875 C 269.226562 181.90625 273.328125 181.746094 273.039062 179.277344 C 273.078125 178.992188 272.816406 179.140625 273.234375 179.046875 C 273.652344 178.359375 273.558594 177.894531 273.679688 177.578125 C 273.765625 177.191406 273.011719 177.394531 272.957031 177.246094 C 273.144531 177.070312 272.789062 176.585938 272.789062 177.058594 C 272.519531 176.699219 271.5 177.886719 271.359375 177.339844 C 272.808594 176.652344 271.609375 176.019531 270.703125 176.019531 C 270.359375 175.511719 272.558594 175.910156 272.316406 175.257812 C 271.742188 174.878906 271.433594 174.414062 270.664062 174.769531 C 269.875 174.378906 269.746094 173.488281 268.621094 173.699219 C 268.640625 173.710938 268.417969 173.207031 268.410156 173.238281 C 269.171875 172.753906 268.046875 172.597656 267.636719 172.570312 C 265.707031 170.238281 268.855469 172.195312 267.84375 169.105469 C 266.253906 163.484375 268.410156 160.894531 262.449219 166.75 C 261.835938 166.101562 260.957031 167.824219 259.832031 167.546875 C 259.414062 168.167969 259.859375 166.703125 259.230469 167.113281 C 259.070312 166.042969 256.222656 166.683594 258.246094 165.671875 C 258.335938 165.210938 257.28125 165.582031 257.921875 165.144531 C 258.597656 164.402344 258.503906 162.972656 259.898438 162.675781 C 259.851562 162.546875 259.832031 161.460938 259.648438 162.175781 C 256.804688 163.269531 257.027344 159.34375 254.839844 159.289062 C 252.890625 160.820312 247.460938 157.015625 247.8125 161.117188 C 247.515625 162.0625 246.179688 162.445312 245.359375 162.742188 C 248.636719 162.304688 244.75 166.101562 243.152344 166.21875 C 242.996094 168.820312 246.476562 169.097656 241.621094 172.867188 C 240.050781 174.378906 236.273438 173.96875 235.875 175.910156 C 236.078125 177.589844 235.375 180.132812 233.886719 181.058594 C 233.546875 182.515625 233.730469 181.457031 232.691406 181.589844 C 232.171875 181.785156 232.050781 182.824219 231.445312 182.238281 C 227.046875 177.171875 235.800781 174.101562 230.269531 173.773438 C 226.984375 174.398438 225.3125 170.992188 222.574219 170.191406 C 221.8125 169.03125 217.496094 171.296875 219.203125 169.570312 C 221.582031 165.191406 216.4375 167.824219 218.738281 165.125 C 220.902344 162.183594 225.226562 160.058594 227.707031 158.925781 C 226.714844 157.90625 231.074219 159.390625 230.734375 157.394531 C 227.113281 156.140625 232.644531 157.960938 233.082031 156.003906 C 234.410156 157.199219 238.976562 154.871094 238.640625 153.765625 C 239.28125 153.265625 243.308594 152.578125 241.445312 151.640625 C 242.011719 150.992188 243.328125 151.492188 243.664062 152.011719 C 244.617188 152.273438 243.902344 153.5625 245.285156 153.238281 C 245.433594 152.855469 244.65625 152.457031 244.433594 152.03125 C 244.109375 151.222656 246.085938 153.125 245.296875 151.355469 C 245.175781 151.027344 245.324219 151.167969 245.09375 151 C 243.53125 150.832031 245.464844 150.015625 245.660156 150.964844 C 246.234375 152.738281 249.695312 150.601562 250.761719 149.804688 C 251.03125 149.050781 249.898438 148.976562 250.746094 148.199219 C 250.289062 147.113281 253.140625 148.652344 252.535156 146.6875 C 254.1875 146.390625 250.753906 146.195312 252.445312 145.554688 C 251.21875 145.480469 247.386719 144.28125 247.785156 146.519531 C 248.15625 147.058594 246.511719 147.019531 246.195312 147.355469 C 245.351562 148.421875 244.953125 148.773438 243.949219 148.152344 C 242.910156 148.671875 243.960938 149.941406 242.289062 149.90625 C 241.648438 150.386719 240.960938 148.792969 241.675781 148.484375 C 242.019531 147.9375 243.429688 148.429688 243.113281 147.066406 C 242.410156 144.605469 239.140625 149.171875 239.328125 147.519531 C 240.628906 147.046875 238.613281 146.015625 240.023438 146.210938 C 242.066406 146.121094 239.914062 145.480469 239.335938 145.785156 C 237.59375 145.664062 238.761719 145.117188 239.496094 144.941406 C 238.734375 144.367188 239.734375 144.589844 240.125 144.691406 C 241.15625 144.199219 239.097656 143.363281 240.46875 142.667969 C 239.71875 140.902344 238.890625 141.886719 241.230469 140.828125 C 242.742188 139.464844 246.679688 139.78125 248.609375 137.914062 C 247.050781 137.945312 242.773438 136.644531 242.558594 138.371094 C 241.203125 137.824219 240.953125 138.546875 240.171875 139.417969 C 239.886719 139.328125 239.625 139.667969 239.375 139.816406 C 240.125 140.773438 238.25 141.210938 238.242188 141.859375 C 237.535156 142.054688 233.851562 142.835938 235.300781 143.957031 C 233.183594 143.660156 233.203125 145.972656 235.335938 145.675781 C 236.738281 145.8125 236.367188 147.066406 235.476562 146.027344 C 235.253906 146.046875 235.207031 146.398438 235.226562 146.566406 C 233.453125 146.722656 234.222656 147.539062 235.375 146.742188 C 235.140625 148.308594 231.828125 148.246094 230.59375 149.0625 C 230.984375 149.488281 229.75 151.261719 229.535156 150.378906 C 228.785156 150.648438 228.53125 152.140625 228.484375 150.386719 C 229.171875 149.765625 230.257812 149.199219 230.628906 148.179688 C 230.257812 148.199219 230.203125 148.375 229.851562 148.367188 C 229.367188 146.816406 226.917969 148.226562 226.304688 149.0625 C 223.445312 149.347656 220.957031 148.929688 218.722656 148.496094 C 218.035156 145.070312 211.3125 148.738281 214.257812 148.261719 C 214.199219 148.132812 214.171875 148.003906 214.164062 147.875 C 215.277344 148.394531 216.34375 147.417969 217.488281 147.539062 C 216.53125 149.078125 213.226562 147.863281 212.457031 149.90625 C 212.910156 150.554688 212.492188 151.074219 211.683594 150.964844 C 211.769531 146.871094 206.414062 150.351562 203.171875 148.996094 C 207.621094 147.121094 206.058594 146.972656 201.746094 146.878906 C 198.828125 145.570312 196.332031 144.753906 193.398438 146.164062 C 193.046875 145.71875 194.421875 145.867188 194.039062 145.246094 C 195.960938 143.660156 192.621094 145.183594 192.082031 145.710938 C 189.472656 147.140625 192.3125 143.707031 190.613281 143.6875 C 189.871094 145.777344 186.808594 144.875 185.007812 145.90625 C 184.46875 145.777344 183.96875 144.894531 183.382812 145.628906 C 183.710938 145.972656 184.574219 146.390625 183.394531 146.371094 C 182.492188 146.277344 183.335938 145.628906 182.4375 145.644531 C 181.34375 147.175781 182.132812 145.886719 180.953125 145.933594 C 181.195312 146.878906 179.363281 147.621094 178.808594 147.160156 C 181.714844 145.914062 179.53125 146.101562 177.953125 146.871094 C 177.398438 148.023438 177.191406 146.371094 178.769531 146.222656 C 180.441406 145.636719 178.128906 145.636719 177.710938 146.046875 C 177.804688 146.164062 175.132812 146.675781 176.226562 147.289062 C 170 144.71875 163.1875 144.617188 156.828125 143.816406 C 158.0625 142.964844 153.1875 143.222656 153.050781 143.429688 C 153.617188 141.730469 151.953125 142.898438 150.757812 143.160156 C 149.71875 143.902344 146.757812 142.667969 146.757812 144.152344 C 142.355469 143.773438 138.664062 146.332031 134.449219 147.039062 C 133.011719 146.648438 132.089844 147.457031 130.976562 147.902344 C 130.808594 148.726562 132.945312 148.753906 132.128906 149.738281 C 132.304688 149.496094 131.664062 150.332031 131.71875 150.0625 C 131.730469 151.167969 133.789062 149.515625 132.007812 150.917969 C 132.917969 151.390625 133.34375 149.515625 134.214844 150.574219 C 132.972656 150.769531 132.75 151.816406 134.246094 150.992188 C 135.496094 151.28125 134.226562 151.800781 133.707031 151.503906 C 132.265625 152.140625 130.707031 152.550781 128.871094 152.1875 C 128.480469 151.726562 130.632812 151.046875 128.433594 151.234375 C 126.335938 151.964844 123.375 152.523438 121.007812 152.941406 C 120.824219 153.515625 122.984375 153.597656 122 153.980469 C 118.835938 155.605469 124.535156 155.539062 125.519531 155.101562 C 125.101562 156.214844 128.5 154.230469 129.335938 154.527344 C 127.625 155.566406 126.417969 157.851562 123.710938 157.199219 C 122.4375 157.65625 121.089844 159.027344 120.359375 157.691406 C 117.890625 158.65625 116.339844 159.574219 113.859375 160.570312 C 112.800781 160.792969 112.441406 161.839844 113.738281 161.710938 C 113.386719 162.257812 113.621094 162.703125 114.398438 162.601562 C 116.023438 161.765625 113.953125 163.667969 112.792969 162.453125 C 110.734375 163.289062 112.097656 165.589844 113.886719 164.253906 C 114.378906 164.511719 115.105469 163.113281 115.78125 163.335938 C 114.6875 164.839844 109.75 168.613281 114.695312 166.332031 C 115.585938 165.699219 115.253906 167.5 116.226562 166.359375 C 116.617188 166.21875 115.984375 166.871094 115.96875 167.007812 C 116.367188 168.421875 117.480469 165.804688 118.371094 166.007812 C 120.191406 166.546875 116.71875 166.3125 118 166.933594 C 118.214844 167.039062 119.140625 166.933594 119.132812 166.65625 C 119.78125 166.953125 120.582031 166.070312 121.054688 165.820312 C 117.65625 168.671875 112.847656 170.351562 108.441406 171.945312 C 108.570312 171.855469 108.144531 172.011719 108.160156 172.003906 C 108.1875 172.261719 107.863281 172.328125 107.660156 172.308594 C 107.6875 172.625 107.816406 172.882812 108.078125 172.996094 C 107.9375 172.929688 108.515625 172.882812 108.394531 172.941406 C 108.421875 172.929688 108.691406 172.71875 108.636719 172.71875 C 109.386719 172.605469 110.40625 172.707031 111.039062 172.195312 C 115.234375 170.472656 120.488281 168.671875 125.390625 166.871094 C 126.753906 165.839844 123.949219 165.773438 127.570312 164.96875 C 130.308594 164.496094 134.523438 160.308594 137.371094 162.414062 C 135.273438 161.515625 131.226562 163.714844 130.808594 164.753906 C 130.625 164.847656 130.820312 164.988281 130.867188 165.050781 C 128.378906 165.507812 130.132812 166.136719 131.589844 165.328125 C 133.25 164.308594 134.058594 163.992188 135.925781 164.105469 C 136.695312 163.546875 138.039062 163.882812 137.121094 162.972656 C 137.667969 163.269531 138.011719 163.492188 137.410156 162.785156 C 138.171875 162.925781 138.570312 162.054688 139.433594 162.109375 C 140 161.703125 140.210938 161.367188 140.480469 162.191406 C 140.890625 162.25 142.5625 161.253906 141.800781 162.222656 C 141.828125 165.125 142.589844 161.960938 144.195312 162.777344 C 139.664062 164.707031 146.96875 163.648438 148 164.019531 C 145.96875 164.234375 148.695312 165.375 149.347656 164.328125 C 149.335938 164.328125 149.71875 164.160156 149.699219 164.179688 C 149.605469 163.382812 152.019531 163.890625 150.914062 164.539062 C 150.292969 164.382812 149.355469 164.941406 149.078125 165.386719 C 149.867188 166.035156 150.320312 166.675781 150.777344 167.585938 C 152.25 167.695312 152.195312 167.046875 151.269531 166.117188 C 151.121094 165.476562 151.871094 165.953125 152.039062 166.257812 C 152.296875 166.210938 152.679688 165.933594 152.632812 166.332031 C 153.726562 165.96875 152.875 166.609375 152.679688 167.09375 C 153.160156 169.03125 155.628906 163.902344 154.953125 166.128906 C 153.746094 168.019531 154.648438 167.289062 155.925781 167.054688 C 156.308594 167.351562 155.445312 167.453125 155.25 167.527344 C 154.238281 167.910156 155.59375 168.113281 155.40625 168.421875 C 154.164062 168.039062 155.566406 169.292969 154.386719 169.441406 C 154.40625 169.433594 154.171875 169.609375 154.183594 169.597656 C 153.441406 170.210938 154.878906 170.101562 153.96875 170.953125 C 154.785156 171.203125 153.914062 172.09375 155.027344 172.242188 C 154.171875 172.746094 152.855469 174.117188 154.765625 173.097656 C 152.242188 176.476562 156.566406 171.84375 156.429688 173.46875 C 155.585938 174.324219 153.347656 174.851562 153.753906 176.058594 C 152.734375 175.722656 153.113281 176.910156 152.882812 177.328125 C 152.9375 178.367188 154.320312 176.152344 154.804688 176.632812 C 154.191406 177.765625 152.632812 177.292969 155.0625 177.914062 C 153.96875 177.644531 152.679688 178.054688 152.726562 179.269531 C 155.285156 176.949219 152.324219 181.132812 155.511719 179.183594 C 155.789062 180.820312 152.09375 180.226562 152.371094 181.625 C 153.578125 180.910156 150.183594 183.695312 153.976562 182.722656 C 153.828125 184.363281 154.535156 183.027344 155.136719 182.871094 C 154.3125 183.9375 154.878906 183.882812 155.722656 183.378906 C 154.070312 185.117188 156.984375 183.128906 155.371094 184.417969 C 153.523438 186.351562 157.03125 184.335938 155.6875 185.617188 C 155.378906 187.0625 156.835938 185.042969 156.671875 185.914062 C 156.03125 186.960938 156.800781 188.253906 155.863281 189.488281 C 155.019531 189.589844 154.851562 189.753906 154.945312 190.40625 C 154.972656 190.3125 154.589844 190.792969 154.675781 190.738281 C 152.242188 191.835938 154.367188 189.820312 155.195312 189.246094 C 155.332031 188.53125 154.023438 188.949219 153.738281 188.910156 C 152.726562 188.363281 152.410156 187.769531 151.878906 189.105469 C 151.25 194.8125 144.945312 198.8125 142.644531 204.753906 C 141.855469 206.515625 141.066406 209.316406 142.292969 211.257812 C 142.671875 210.738281 143.460938 209.902344 144.214844 210.570312 C 144.035156 211.3125 142.253906 210.339844 142.691406 211.871094 C 141.714844 211.695312 141.613281 212.910156 142.503906 213.308594 C 140.871094 214.65625 143.574219 216.6875 142.355469 218.078125 C 145.539062 219.257812 147.890625 221.039062 146.996094 224.957031 C 147.128906 230.457031 150.570312 230.691406 148.964844 232.769531 C 150.683594 235.183594 146.144531 231.40625 147.878906 234.03125 C 147.757812 234.652344 148.992188 234.96875 149.457031 235.542969 C 149.949219 235.515625 150.480469 234.691406 150.285156 235.722656 C 153.039062 237.4375 149.921875 239.359375 151.074219 240.359375 C 151.992188 238.785156 154.839844 246.792969 155.527344 242.753906 C 154.988281 242.023438 155.035156 240.40625 153.785156 240.992188 C 154.589844 236.761719 149.867188 231.304688 150.089844 226.441406 C 150.078125 224.984375 150.765625 224.167969 151.898438 225.242188 C 152.4375 224.527344 152.390625 225.269531 152.679688 225.585938 C 153.644531 226.097656 152.910156 228.667969 153.355469 230.078125 C 151.703125 231.535156 153.902344 230.253906 153.753906 231.320312 C 154.359375 233.019531 155.84375 232.574219 155.574219 234.207031 C 156.113281 235.617188 158.332031 235.886719 156.671875 237.445312 C 158.628906 239.628906 160.644531 241.996094 162.109375 244.890625 C 163.464844 250.496094 158.722656 249.09375 164.679688 253.6875 C 170.027344 256.675781 175.570312 260.992188 181.925781 258.929688 C 185.136719 262.125 188.183594 265.09375 192.933594 265.296875 C 193.484375 265.304688 194.347656 264.832031 194.179688 265.789062 C 192.703125 265.390625 196 268.675781 196.621094 269.519531 C 196.445312 270.4375 197.234375 270.6875 196.695312 271.570312 C 196.628906 272.40625 198.011719 273.890625 198.394531 272.796875 C 197.492188 270.578125 198.976562 273.742188 200.046875 273.835938 C 200.917969 273.964844 200.851562 277.390625 201.363281 275.382812 C 202.726562 279.097656 201.140625 273.539062 205.800781 277.761719 C 205.976562 278.882812 207.148438 278.179688 207.5625 277.6875 C 206.636719 276.453125 206.609375 276.285156 208.066406 275.617188 Z M 218.945312 147.464844 C 218.40625 147.457031 218.75 147.996094 219.101562 148.039062 C 219.667969 148.113281 219.34375 147.472656 218.945312 147.464844 Z M 105.757812 173.71875 C 104.902344 174.886719 107.167969 172.976562 107.621094 172.984375 C 107.261719 172.449219 106.082031 172.160156 104.929688 172.902344 C 104.085938 172.707031 101.265625 174.84375 102.769531 174.5625 C 104.503906 173.625 104.839844 173.488281 106 173.429688 C 106.007812 173.414062 105.671875 173.792969 105.757812 173.71875 Z M 105.757812 173.71875 " fill-opacity="1" fill-rule="nonzero"/></g><g fill="#000000" fill-opacity="1"><g transform="translate(89.085299, 202.662211)"><g><path d="M -25.125 -34.546875 L 2.96875 -29.296875 C 4.582031 -28.992188 5.238281 -28.046875 4.9375 -26.453125 L 4.15625 -22.25 C 4.03125 -21.5625 3.773438 -21.054688 3.390625 -20.734375 C 3.015625 -20.421875 2.4375 -20.148438 1.65625 -19.921875 L -16.109375 -14.953125 C -18.453125 -14.359375 -20.148438 -14.035156 -21.203125 -13.984375 L -21.296875 -13.5 C -19.773438 -13.425781 -18.128906 -13.222656 -16.359375 -12.890625 L 1.78125 -9.5 L 0.578125 -3.109375 L -27.515625 -8.359375 C -29.128906 -8.660156 -29.785156 -9.617188 -29.484375 -11.234375 L -28.71875 -15.34375 C -28.59375 -16.019531 -28.335938 -16.519531 -27.953125 -16.84375 C -27.578125 -17.175781 -27 -17.453125 -26.21875 -17.671875 L -8.984375 -22.46875 C -7.367188 -22.9375 -5.59375 -23.367188 -3.65625 -23.765625 L -3.578125 -24.203125 C -5.910156 -24.453125 -7.640625 -24.679688 -8.765625 -24.890625 L -26.3125 -28.171875 Z M -25.125 -34.546875 "/></g></g></g><g fill="#000000" fill-opacity="1"><g transform="translate(94.505892, 172.670567)"><g><path d="M -22.546875 -17.65625 C -23.660156 -20.445312 -23.050781 -24.039062 -20.71875 -28.4375 C -18.382812 -32.832031 -15.742188 -35.347656 -12.796875 -35.984375 C -9.859375 -36.628906 -5.671875 -35.507812 -0.234375 -32.625 C 5.191406 -29.738281 8.457031 -26.898438 9.5625 -24.109375 C 10.675781 -21.316406 10.066406 -17.722656 7.734375 -13.328125 C 5.398438 -8.929688 2.765625 -6.410156 -0.171875 -5.765625 C -3.109375 -5.128906 -7.289062 -6.253906 -12.71875 -9.140625 C -18.15625 -12.023438 -21.429688 -14.863281 -22.546875 -17.65625 Z M -11.640625 -29.03125 C -13.335938 -28.96875 -14.734375 -27.898438 -15.828125 -25.828125 C -16.929688 -23.753906 -17.03125 -21.992188 -16.125 -20.546875 C -15.226562 -19.109375 -12.960938 -17.425781 -9.328125 -15.5 C -5.703125 -13.570312 -3.039062 -12.640625 -1.34375 -12.703125 C 0.34375 -12.773438 1.734375 -13.847656 2.828125 -15.921875 C 3.929688 -17.992188 4.035156 -19.75 3.140625 -21.1875 C 2.242188 -22.632812 -0.015625 -24.320312 -3.640625 -26.25 C -7.273438 -28.175781 -9.941406 -29.101562 -11.640625 -29.03125 Z M -11.640625 -29.03125 "/></g></g></g><g fill="#000000" fill-opacity="1"><g transform="translate(107.999048, 146.99847)"><g><path d="M 19.359375 -19.71875 L 14.28125 -14.546875 L 5.859375 -19.53125 C 4.941406 -20.007812 4.175781 -20.203125 3.5625 -20.109375 C 2.945312 -20.023438 2.316406 -19.648438 1.671875 -18.984375 L -1.734375 -15.578125 L 6.9375 -7.0625 L 2.21875 -2.25 L -19.9375 -24 C -18.175781 -26.175781 -15.507812 -29.082031 -11.9375 -32.71875 C -9.019531 -35.695312 -6.484375 -37.34375 -4.328125 -37.65625 C -2.171875 -37.976562 0.144531 -36.921875 2.625 -34.484375 C 4.257812 -32.890625 5.21875 -31.3125 5.5 -29.75 C 5.78125 -28.195312 5.269531 -26.566406 3.96875 -24.859375 L 4.125 -24.703125 C 6.175781 -26.015625 8.320312 -25.972656 10.5625 -24.578125 Z M -5.5 -19.265625 L -2.03125 -22.796875 C -0.769531 -24.078125 -0.125 -25.171875 -0.09375 -26.078125 C -0.0703125 -26.984375 -0.671875 -28.035156 -1.890625 -29.234375 C -3.109375 -30.429688 -4.15625 -31.007812 -5.03125 -30.96875 C -5.914062 -30.925781 -7 -30.25 -8.28125 -28.9375 L -11.71875 -25.375 Z M -5.5 -19.265625 "/></g></g></g><g fill="#000000" fill-opacity="1"><g transform="translate(126.793044, 127.323215)"><g><path d="M 2.765625 -1.53125 L -12.3125 -28.671875 C -8.726562 -30.972656 -5.289062 -33.039062 -2 -34.875 C 2.332031 -37.28125 5.898438 -37.957031 8.703125 -36.90625 C 11.503906 -35.851562 14.375 -32.675781 17.3125 -27.375 C 20.257812 -22.082031 21.441406 -17.96875 20.859375 -15.03125 C 20.273438 -12.101562 17.816406 -9.4375 13.484375 -7.03125 C 10.191406 -5.195312 6.617188 -3.363281 2.765625 -1.53125 Z M -3.9375 -27.625 L 6.265625 -9.25 C 6.710938 -9.5 7.445312 -9.898438 8.46875 -10.453125 C 9.488281 -11.003906 10.285156 -11.441406 10.859375 -11.765625 C 12.878906 -12.890625 13.90625 -14.296875 13.9375 -15.984375 C 13.96875 -17.679688 12.992188 -20.3125 11.015625 -23.875 C 9.035156 -27.445312 7.3125 -29.675781 5.84375 -30.5625 C 4.375 -31.445312 2.628906 -31.328125 0.609375 -30.203125 Z M -3.9375 -27.625 "/></g></g></g><g fill="#000000" fill-opacity="1"><g transform="translate(151.902461, 113.177103)"><g><path d="M 17.734375 -12.296875 L 7.328125 -9.96875 L 6.890625 -1.53125 L 0.046875 -0.015625 L 2.4375 -30.5 C 2.4375 -31.0625 2.617188 -31.550781 2.984375 -31.96875 C 3.359375 -32.382812 3.828125 -32.65625 4.390625 -32.78125 L 10.703125 -34.1875 C 11.960938 -34.46875 12.867188 -34.050781 13.421875 -32.9375 L 28.5 -6.34375 L 21.703125 -4.828125 Z M 15.140625 -17.140625 L 10.53125 -25.859375 C 9.851562 -27.242188 9.4375 -28.148438 9.28125 -28.578125 L 8.109375 -28.3125 C 8.109375 -28 8.101562 -27.503906 8.09375 -26.828125 C 8.082031 -26.148438 8.070312 -25.644531 8.0625 -25.3125 L 7.578125 -15.453125 Z M 15.140625 -17.140625 "/></g></g></g><g fill="#000000" fill-opacity="1"><g transform="translate(177.931281, 105.981442)"><g><path d="M 31.453125 -27.625 L 38.015625 -26.859375 C 39.660156 -26.671875 40.414062 -25.722656 40.28125 -24.015625 L 38.21875 4.421875 L 31.78125 3.671875 L 33.703125 -21.96875 L 32.9375 -22.046875 L 26.09375 -3.5 C 25.613281 -2.082031 24.597656 -1.460938 23.046875 -1.640625 L 18.578125 -2.15625 C 17.035156 -2.332031 16.203125 -3.171875 16.078125 -4.671875 L 13.578125 -24.28125 L 12.828125 -24.375 L 8.984375 1.03125 L 2.546875 0.296875 L 6.921875 -27.875 C 7.210938 -29.5625 8.160156 -30.3125 9.765625 -30.125 L 16.359375 -29.359375 C 17.816406 -29.191406 18.617188 -28.363281 18.765625 -26.875 L 20.75 -11.046875 C 20.875 -10.035156 20.972656 -8.5625 21.046875 -6.625 L 21.640625 -6.5625 C 21.691406 -6.695312 21.875 -7.289062 22.1875 -8.34375 C 22.507812 -9.40625 22.765625 -10.222656 22.953125 -10.796875 L 28.4375 -25.75 C 28.957031 -27.164062 29.960938 -27.789062 31.453125 -27.625 Z M 31.453125 -27.625 "/></g></g></g><g fill="#000000" fill-opacity="1"><g transform="translate(216.155338, 111.229663)"><g><path d="M 23.84375 5.15625 L 22.015625 9.875 C 19.328125 8.957031 14.90625 7.070312 8.75 4.21875 C 6.875 3.34375 5.613281 2.132812 4.96875 0.59375 C 4.332031 -0.9375 4.40625 -2.585938 5.1875 -4.359375 L 13.109375 -21.421875 C 13.941406 -23.140625 15.148438 -24.25 16.734375 -24.75 C 18.328125 -25.257812 20.0625 -25.078125 21.9375 -24.203125 C 28.09375 -21.347656 32.390625 -19.1875 34.828125 -17.71875 L 32.390625 -13.25 L 21.5625 -18.265625 C 20.882812 -18.578125 20.320312 -18.640625 19.875 -18.453125 C 19.425781 -18.265625 19.03125 -17.804688 18.6875 -17.078125 L 16.703125 -12.78125 L 27.921875 -7.578125 L 25.84375 -3.109375 L 14.625 -8.3125 L 12.09375 -2.859375 C 11.738281 -2.109375 11.632812 -1.5 11.78125 -1.03125 C 11.925781 -0.5625 12.335938 -0.171875 13.015625 0.140625 Z M 23.84375 5.15625 "/></g></g></g><g fill="#000000" fill-opacity="1"><g transform="translate(238.561506, 121.193145)"><g><path d="M 21.109375 17.828125 L 15.578125 13.15625 L 19.90625 4.375 C 20.320312 3.425781 20.460938 2.648438 20.328125 2.046875 C 20.191406 1.441406 19.769531 0.84375 19.0625 0.25 L 15.40625 -2.890625 L 7.5625 6.390625 L 2.40625 2.03125 L 22.4375 -21.6875 C 24.738281 -20.09375 27.84375 -17.648438 31.75 -14.359375 C 34.925781 -11.671875 36.753906 -9.265625 37.234375 -7.140625 C 37.710938 -5.015625 36.828125 -2.617188 34.578125 0.046875 C 33.109375 1.785156 31.609375 2.851562 30.078125 3.25 C 28.554688 3.644531 26.890625 3.257812 25.078125 2.09375 L 24.9375 2.265625 C 26.394531 4.210938 26.507812 6.359375 25.28125 8.703125 Z M 18.796875 -6.921875 L 22.578125 -3.734375 C 23.953125 -2.566406 25.09375 -2.003906 26 -2.046875 C 26.90625 -2.085938 27.90625 -2.757812 29 -4.0625 C 30.101562 -5.375 30.597656 -6.46875 30.484375 -7.34375 C 30.378906 -8.21875 29.628906 -9.242188 28.234375 -10.421875 L 24.421875 -13.578125 Z M 18.796875 -6.921875 "/></g></g></g><g fill="#000000" fill-opacity="1"><g transform="translate(259.70305, 140.05778)"><g><path d="M 6.109375 7.890625 L 1.9375 2.5 L 26.5 -16.5 L 30.671875 -11.109375 Z M 6.109375 7.890625 "/></g></g></g><g fill="#000000" fill-opacity="1"><g transform="translate(268.16347, 149.617542)"><g><path d="M 17.6875 5.15625 L 16.53125 2.75 C 15.53125 3.476562 14.679688 4.007812 13.984375 4.34375 L 4.34375 9 L 1.375 2.84375 L 29.34375 -10.640625 L 32.3125 -4.484375 L 24.40625 -0.6875 C 23.21875 -0.101562 22.0625 0.332031 20.9375 0.625 L 22.09375 3.03125 L 36.75 4.71875 L 39.96875 11.390625 L 25.34375 9.5625 C 24.3125 9.488281 23.242188 9.171875 22.140625 8.609375 L 21.96875 8.703125 C 21.757812 9.984375 21.320312 11.160156 20.65625 12.234375 L 12.234375 25.375 L 8.921875 18.484375 Z M 17.6875 5.15625 "/></g></g></g><g fill="#000000" fill-opacity="1"><g transform="translate(280.057197, 173.621999)"><g><path d="M 11.40625 18.3125 L 9.59375 7.796875 L 1.203125 6.953125 L 0.015625 0.046875 L 30.359375 3.90625 C 30.910156 3.925781 31.382812 4.128906 31.78125 4.515625 C 32.175781 4.910156 32.425781 5.390625 32.53125 5.953125 L 33.625 12.328125 C 33.84375 13.609375 33.390625 14.492188 32.265625 14.984375 L 4.953125 28.78125 L 3.765625 21.90625 Z M 16.40625 15.953125 L 25.328125 11.765625 C 26.742188 11.148438 27.664062 10.773438 28.09375 10.640625 L 27.890625 9.453125 C 27.578125 9.441406 27.082031 9.414062 26.40625 9.375 C 25.726562 9.332031 25.222656 9.300781 24.890625 9.28125 L 15.09375 8.3125 Z M 16.40625 15.953125 "/></g></g></g></svg>