<svg xmlns="http://www.w3.org/2000/svg" xmlns:xlink="http://www.w3.org/1999/xlink" width="500" zoomAndPan="magnify" viewBox="0 0 375 374.999991" height="500" preserveAspectRatio="xMidYMid meet" version="1.0"><defs><g/><clipPath id="cb625db25d"><path d="M 45.238281 45.238281 L 329.761719 45.238281 L 329.761719 329.761719 L 45.238281 329.761719 Z M 45.238281 45.238281 " clip-rule="nonzero"/></clipPath><clipPath id="bf1552bfae"><path d="M 187.5 45.238281 C 108.929688 45.238281 45.238281 108.929688 45.238281 187.5 C 45.238281 266.070312 108.929688 329.761719 187.5 329.761719 C 266.070312 329.761719 329.761719 266.070312 329.761719 187.5 C 329.761719 108.929688 266.070312 45.238281 187.5 45.238281 Z M 187.5 45.238281 " clip-rule="nonzero"/></clipPath><clipPath id="cf85ee68bc"><path d="M 241.585938 247.535156 L 255.9375 247.535156 L 255.9375 255.820312 L 241.585938 255.820312 Z M 241.585938 247.535156 " clip-rule="nonzero"/></clipPath><clipPath id="426047f9c4"><path d="M 159.449219 205.230469 L 185 205.230469 L 185 255.820312 L 159.449219 255.820312 Z M 159.449219 205.230469 " clip-rule="nonzero"/></clipPath><clipPath id="067856ea37"><path d="M 132 155.375 L 144 155.375 L 144 168 L 132 168 Z M 132 155.375 " clip-rule="nonzero"/></clipPath><clipPath id="611a810bbe"><path d="M 149 168 L 258.65625 168 L 258.65625 226 L 149 226 Z M 149 168 " clip-rule="nonzero"/></clipPath></defs><g clip-path="url(#cb625db25d)"><g clip-path="url(#bf1552bfae)"><path fill="#cfff00" d="M 45.238281 45.238281 L 329.761719 45.238281 L 329.761719 329.761719 L 45.238281 329.761719 Z M 45.238281 45.238281 " fill-opacity="1" fill-rule="nonzero"/></g></g><g clip-path="url(#cf85ee68bc)"><path fill="#000000" d="M 254.59375 255.820312 L 242.742188 255.820312 C 242.347656 255.820312 241.980469 255.613281 241.777344 255.273438 C 241.578125 254.925781 241.570312 254.507812 241.765625 254.160156 L 245.03125 248.28125 C 245.332031 247.742188 246.011719 247.542969 246.554688 247.847656 C 247.09375 248.144531 247.289062 248.828125 246.988281 249.367188 L 244.644531 253.582031 L 253.472656 253.582031 L 253.472656 248.824219 C 253.472656 248.207031 253.976562 247.703125 254.59375 247.703125 C 255.210938 247.703125 255.710938 248.207031 255.710938 248.824219 L 255.710938 254.703125 C 255.710938 255.320312 255.210938 255.820312 254.59375 255.820312 " fill-opacity="1" fill-rule="nonzero"/></g><path fill="#000000" d="M 238.121094 247.007812 L 229.539062 247.007812 C 229.171875 247.007812 228.824219 246.824219 228.617188 246.519531 C 228.40625 246.21875 228.359375 245.832031 228.492188 245.488281 C 228.511719 245.425781 230.8125 239.25 230.136719 232.414062 C 230.078125 231.792969 230.527344 231.246094 231.144531 231.1875 C 231.753906 231.125 232.308594 231.578125 232.367188 232.191406 C 232.894531 237.539062 231.773438 242.394531 231.078125 244.765625 L 237.039062 244.765625 L 237.53125 230.1875 C 237.554688 229.566406 238.054688 229.085938 238.6875 229.105469 C 239.308594 229.125 239.792969 229.644531 239.769531 230.261719 L 239.242188 245.921875 C 239.21875 246.523438 238.726562 247.007812 238.121094 247.007812 " fill-opacity="1" fill-rule="nonzero"/><path fill="#000000" d="M 238.121094 252.882812 L 226.273438 252.882812 C 225.875 252.882812 225.507812 252.671875 225.304688 252.332031 C 225.105469 251.992188 225.101562 251.566406 225.292969 251.21875 L 228.558594 245.339844 C 228.859375 244.800781 229.539062 244.605469 230.082031 244.90625 C 230.621094 245.207031 230.816406 245.886719 230.515625 246.429688 L 228.175781 250.644531 L 237.003906 250.644531 L 237.003906 245.886719 C 237.003906 245.265625 237.503906 244.765625 238.121094 244.765625 C 238.742188 244.765625 239.242188 245.265625 239.242188 245.886719 L 239.242188 251.765625 C 239.242188 252.382812 238.742188 252.882812 238.121094 252.882812 " fill-opacity="1" fill-rule="nonzero"/><g clip-path="url(#426047f9c4)"><path fill="#000000" d="M 172.480469 255.820312 L 160.628906 255.820312 C 160.234375 255.820312 159.867188 255.613281 159.664062 255.273438 C 159.464844 254.925781 159.457031 254.507812 159.652344 254.160156 L 162.871094 248.367188 C 163.152344 247.507812 165.691406 239.246094 164.609375 222.964844 C 163.554688 221.722656 159.878906 216.914062 159.511719 210.003906 C 159.480469 209.386719 159.953125 208.859375 160.570312 208.828125 C 161.179688 208.792969 161.714844 209.265625 161.75 209.882812 C 162.128906 216.984375 166.472656 221.699219 166.515625 221.742188 C 166.691406 221.933594 166.796875 222.175781 166.816406 222.433594 C 168.0625 240.378906 165.078125 248.855469 164.949219 249.207031 C 164.929688 249.261719 164.902344 249.316406 164.875 249.367188 L 162.535156 253.582031 L 171.359375 253.582031 L 171.359375 248.824219 C 171.363281 248.742188 173.417969 221.429688 173.417969 221.429688 C 173.4375 221.15625 173.558594 220.898438 173.757812 220.710938 C 180.429688 214.273438 182.765625 206.355469 182.789062 206.277344 C 182.960938 205.679688 183.578125 205.335938 184.175781 205.511719 C 184.769531 205.679688 185.113281 206.300781 184.941406 206.898438 C 184.839844 207.238281 182.480469 215.234375 175.617188 222.019531 L 173.597656 248.867188 L 173.597656 254.703125 C 173.597656 255.320312 173.101562 255.820312 172.480469 255.820312 " fill-opacity="1" fill-rule="nonzero"/></g><path fill="#000000" d="M 161.734375 224.921875 C 161.257812 224.921875 160.753906 224.882812 160.226562 224.785156 C 156.164062 224.035156 152.320312 220.394531 148.792969 213.96875 C 144.152344 205.503906 139.535156 201.222656 136.160156 198.101562 C 133.449219 195.585938 131.484375 193.769531 131.484375 191.191406 C 131.484375 190.574219 131.988281 190.074219 132.605469 190.074219 C 133.226562 190.074219 133.726562 190.574219 133.726562 191.191406 C 133.726562 192.789062 135.214844 194.171875 137.683594 196.457031 C 140.972656 199.503906 145.941406 204.109375 150.757812 212.890625 C 153.898438 218.617188 157.3125 221.96875 160.632812 222.582031 C 163.238281 223.058594 164.957031 221.671875 164.972656 221.65625 C 165.445312 221.257812 166.152344 221.316406 166.554688 221.785156 C 166.953125 222.257812 166.894531 222.960938 166.425781 223.363281 C 166.339844 223.4375 164.554688 224.921875 161.734375 224.921875 " fill-opacity="1" fill-rule="nonzero"/><path fill="#000000" d="M 117.332031 195.320312 C 116.398438 195.320312 115.492188 194.683594 114.75 194.15625 C 114.585938 194.042969 114.4375 193.9375 114.3125 193.859375 C 112.566406 192.769531 108.648438 189.605469 110 183.757812 C 110.214844 182.828125 110.742188 182 111.488281 181.417969 L 120.445312 174.4375 C 121.078125 172.558594 124.332031 164.140625 132.441406 162.929688 C 132.816406 162.871094 133.179688 162.828125 133.535156 162.789062 C 134.148438 162.726562 134.703125 163.171875 134.765625 163.785156 C 134.828125 164.402344 134.382812 164.953125 133.769531 165.015625 C 133.445312 165.050781 133.113281 165.089844 132.769531 165.144531 C 125.230469 166.269531 122.511719 175.332031 122.484375 175.421875 C 122.417969 175.648438 122.28125 175.847656 122.097656 175.992188 L 112.867188 183.183594 C 112.523438 183.453125 112.28125 183.835938 112.183594 184.261719 C 111.191406 188.542969 113.835938 190.921875 115.496094 191.960938 C 115.652344 192.058594 115.835938 192.1875 116.035156 192.328125 C 116.339844 192.539062 117.035156 193.027344 117.320312 193.074219 C 118.667969 192.804688 121.113281 192.019531 123.085938 191.386719 C 125.820312 190.507812 126.574219 190.289062 127.015625 190.285156 C 127.207031 190.289062 127.394531 190.289062 127.578125 190.289062 C 139.320312 190.289062 142.859375 187.03125 142.890625 187 C 143.335938 186.578125 144.042969 186.582031 144.46875 187.019531 C 144.902344 187.457031 144.90625 188.148438 144.476562 188.585938 C 144.3125 188.75 140.308594 192.628906 127.042969 192.527344 C 126.65625 192.589844 125.058594 193.101562 123.773438 193.515625 C 121.613281 194.210938 119.171875 194.996094 117.707031 195.285156 C 117.582031 195.308594 117.457031 195.320312 117.332031 195.320312 " fill-opacity="1" fill-rule="nonzero"/><path fill="#000000" d="M 128.445312 166.640625 C 127.898438 166.640625 127.425781 166.25 127.34375 165.695312 C 127.304688 165.398438 127.203125 164.660156 124.46875 159.359375 C 124.285156 158.992188 124.308594 158.5625 124.535156 158.222656 C 124.757812 157.886719 125.15625 157.695312 125.558594 157.730469 C 125.714844 157.738281 129.480469 158.082031 134.289062 161.1875 C 134.808594 161.523438 134.957031 162.214844 134.621094 162.734375 C 134.289062 163.253906 133.59375 163.402344 133.074219 163.066406 C 130.878906 161.652344 128.925781 160.871094 127.535156 160.445312 C 129.402344 164.203125 129.492188 164.875 129.554688 165.34375 C 129.644531 165.953125 129.21875 166.539062 128.609375 166.625 C 128.554688 166.632812 128.5 166.640625 128.445312 166.640625 " fill-opacity="1" fill-rule="nonzero"/><g clip-path="url(#067856ea37)"><path fill="#000000" d="M 141.902344 167.292969 C 141.511719 167.292969 141.136719 167.089844 140.929688 166.730469 C 138.691406 162.800781 136.234375 160.347656 134.578125 158.992188 C 134.992188 162.902344 134.847656 165.453125 134.148438 166.28125 C 133.753906 166.753906 133.046875 166.8125 132.574219 166.414062 C 132.140625 166.046875 132.054688 165.425781 132.347656 164.960938 C 132.425781 164.761719 132.957031 163.117188 132.042969 156.785156 C 131.984375 156.367188 132.164062 155.953125 132.507812 155.707031 C 132.851562 155.464844 133.304688 155.4375 133.675781 155.632812 C 133.878906 155.742188 138.746094 158.367188 142.875 165.621094 C 143.179688 166.15625 142.992188 166.839844 142.457031 167.148438 C 142.28125 167.246094 142.089844 167.292969 141.902344 167.292969 " fill-opacity="1" fill-rule="nonzero"/></g><path fill="#000000" d="M 113.148438 192.640625 C 112.71875 192.640625 112.308594 192.394531 112.121094 191.972656 C 111.871094 191.410156 112.125 190.75 112.691406 190.496094 L 120.425781 187.054688 C 120.992188 186.804688 121.652344 187.058594 121.902344 187.625 C 122.152344 188.1875 121.898438 188.851562 121.335938 189.101562 L 113.601562 192.542969 C 113.453125 192.609375 113.300781 192.640625 113.148438 192.640625 " fill-opacity="1" fill-rule="nonzero"/><path fill="#000000" d="M 127.621094 177.3125 C 127.125 177.3125 126.671875 176.980469 126.539062 176.476562 C 126.382812 175.878906 126.738281 175.265625 127.335938 175.109375 L 129.824219 174.457031 C 130.425781 174.300781 131.039062 174.65625 131.191406 175.253906 C 131.351562 175.851562 130.992188 176.464844 130.394531 176.621094 L 127.90625 177.273438 C 127.8125 177.300781 127.714844 177.3125 127.621094 177.3125 " fill-opacity="1" fill-rule="nonzero"/><path fill="#000000" d="M 172.480469 249.945312 L 163.894531 249.945312 C 163.277344 249.945312 162.777344 249.441406 162.777344 248.824219 C 162.777344 248.207031 163.277344 247.703125 163.894531 247.703125 L 172.480469 247.703125 C 173.101562 247.703125 173.597656 248.207031 173.597656 248.824219 C 173.597656 249.441406 173.101562 249.945312 172.480469 249.945312 " fill-opacity="1" fill-rule="nonzero"/><path fill="#000000" d="M 162.261719 252.882812 L 153.132812 252.882812 C 152.734375 252.882812 152.367188 252.671875 152.167969 252.332031 C 151.964844 251.992188 151.960938 251.566406 152.152344 251.21875 L 155.367188 245.433594 C 155.636719 244.605469 157.878906 237.222656 157.300781 223.078125 C 157.277344 222.460938 157.757812 221.9375 158.375 221.910156 C 159.003906 221.890625 159.511719 222.367188 159.539062 222.984375 C 160.171875 238.445312 157.5625 245.949219 157.453125 246.261719 C 157.433594 246.316406 157.40625 246.375 157.375 246.429688 L 155.035156 250.644531 L 162.261719 250.644531 C 162.882812 250.644531 163.382812 251.144531 163.382812 251.765625 C 163.382812 252.382812 162.882812 252.882812 162.261719 252.882812 " fill-opacity="1" fill-rule="nonzero"/><path fill="#000000" d="M 164.660156 247.007812 L 156.394531 247.007812 C 155.777344 247.007812 155.277344 246.503906 155.277344 245.886719 C 155.277344 245.265625 155.777344 244.765625 156.394531 244.765625 L 164.660156 244.765625 C 165.277344 244.765625 165.78125 245.265625 165.78125 245.886719 C 165.78125 246.503906 165.277344 247.007812 164.660156 247.007812 " fill-opacity="1" fill-rule="nonzero"/><path fill="#000000" d="M 199.34375 227.117188 C 197.730469 227.117188 196.191406 227.0625 194.746094 226.976562 C 184.421875 226.363281 176.246094 223.949219 174.355469 222.851562 C 174.109375 222.707031 173.355469 222.269531 173.417969 221.429688 C 173.460938 220.816406 174 220.355469 174.617188 220.398438 C 174.984375 220.425781 175.296875 220.628906 175.480469 220.917969 C 176.761719 221.714844 184.441406 224.023438 194.128906 224.695312 C 202.847656 225.296875 215.175781 224.710938 224.355469 218.5 C 224.867188 218.152344 225.5625 218.285156 225.910156 218.796875 C 226.253906 219.3125 226.121094 220.007812 225.609375 220.355469 C 217.664062 225.734375 207.59375 227.117188 199.34375 227.117188 " fill-opacity="1" fill-rule="nonzero"/><path fill="#000000" d="M 199.425781 220.808594 C 193.433594 220.808594 188.148438 220.015625 184.765625 219.351562 C 184.160156 219.234375 183.765625 218.644531 183.886719 218.039062 C 184.003906 217.433594 184.589844 217.035156 185.199219 217.15625 C 188.484375 217.796875 193.613281 218.566406 199.425781 218.566406 C 202.5625 218.566406 205.539062 218.335938 208.273438 217.886719 C 208.882812 217.785156 209.457031 218.195312 209.558594 218.808594 C 209.660156 219.417969 209.246094 219.996094 208.636719 220.09375 C 205.78125 220.566406 202.683594 220.808594 199.425781 220.808594 " fill-opacity="1" fill-rule="nonzero"/><path fill="#000000" d="M 236.578125 232.25 C 235.945312 232.25 235.457031 232.050781 235.109375 231.835938 C 234.015625 231.140625 233.347656 229.660156 233.128906 227.425781 C 232.101562 227.402344 231.085938 227.328125 230.085938 227.199219 C 229.65625 229.851562 228.117188 231.34375 225.75 231.34375 C 224.21875 231.34375 223.433594 230.65625 223.042969 230.082031 C 222.316406 229.015625 222.300781 227.398438 222.988281 225.277344 C 220.546875 224.21875 219.214844 223.160156 219.152344 223.109375 C 218.671875 222.722656 218.59375 222.015625 218.980469 221.539062 C 219.367188 221.054688 220.070312 220.976562 220.554688 221.363281 C 220.59375 221.394531 222.097656 222.566406 224.804688 223.597656 C 225.085938 223.707031 225.3125 223.921875 225.429688 224.195312 C 225.550781 224.46875 225.558594 224.78125 225.445312 225.058594 C 224.597656 227.1875 224.621094 228.417969 224.894531 228.824219 C 225.019531 229.011719 225.308594 229.105469 225.75 229.105469 C 226.269531 229.105469 227.855469 229.105469 227.96875 225.878906 C 227.980469 225.554688 228.128906 225.25 228.378906 225.046875 C 228.632812 224.84375 228.960938 224.757812 229.277344 224.8125 C 230.851562 225.085938 232.496094 225.210938 234.164062 225.1875 C 234.773438 225.164062 235.277344 225.660156 235.296875 226.269531 C 235.375 228.558594 235.886719 229.675781 236.304688 229.9375 C 236.492188 230.058594 236.792969 230.027344 237.199219 229.851562 C 237.703125 229.628906 239.050781 229.039062 238.023438 226.230469 C 237.90625 225.917969 237.9375 225.570312 238.101562 225.285156 C 238.269531 224.996094 238.554688 224.796875 238.878906 224.742188 C 240.332031 224.492188 241.789062 224.140625 243.214844 223.695312 C 243.804688 223.507812 244.433594 223.839844 244.617188 224.429688 C 244.800781 225.019531 244.46875 225.648438 243.878906 225.832031 C 242.761719 226.179688 241.625 226.472656 240.488281 226.714844 C 240.992188 229.144531 240.15625 231 238.09375 231.902344 C 237.519531 232.152344 237.015625 232.25 236.578125 232.25 " fill-opacity="1" fill-rule="nonzero"/><g clip-path="url(#611a810bbe)"><path fill="#000000" d="M 254.714844 225.089844 C 254.585938 225.089844 254.453125 225.070312 254.324219 225.019531 C 253.746094 224.804688 253.449219 224.160156 253.667969 223.582031 L 255.515625 218.617188 C 256.289062 216.539062 255.949219 214.242188 254.601562 212.480469 L 254.089844 211.804688 C 253.921875 211.585938 253.839844 211.308594 253.863281 211.027344 C 254.140625 207.84375 254.28125 203.761719 254.28125 198.902344 C 254.28125 184.746094 250.75 179.039062 246.816406 173.984375 C 245.878906 172.78125 244.402344 172.242188 242.414062 172.367188 C 239.746094 172.542969 235.585938 172.859375 230.769531 173.222656 C 204.628906 175.203125 178.738281 177.023438 174.332031 175.683594 C 169.859375 174.320312 163.792969 173.773438 160.171875 173.449219 C 159.246094 173.363281 158.515625 173.296875 157.976562 173.234375 C 155.578125 172.949219 151.3125 171.175781 150.058594 170.640625 C 149.492188 170.394531 149.230469 169.734375 149.472656 169.167969 C 149.714844 168.597656 150.375 168.339844 150.945312 168.582031 C 153.375 169.625 156.570312 170.8125 158.242188 171.011719 C 158.746094 171.070312 159.5 171.136719 160.371094 171.21875 C 164.082031 171.550781 170.289062 172.113281 174.980469 173.539062 C 179.355469 174.871094 212.691406 172.34375 230.601562 170.992188 C 235.425781 170.625 239.585938 170.308594 242.265625 170.136719 C 245.003906 169.957031 247.183594 170.8125 248.582031 172.609375 C 252.765625 177.984375 256.523438 184.039062 256.523438 198.902344 C 256.523438 203.609375 256.390625 207.605469 256.132812 210.792969 L 256.382812 211.121094 C 258.195312 213.5 258.65625 216.59375 257.613281 219.398438 L 255.765625 224.363281 C 255.597656 224.816406 255.171875 225.089844 254.714844 225.089844 " fill-opacity="1" fill-rule="nonzero"/></g><path fill="#000000" d="M 231.15625 179.554688 C 230.578125 179.554688 230.085938 179.105469 230.042969 178.519531 C 229.996094 177.902344 230.457031 177.363281 231.074219 177.316406 C 235.875 176.953125 240.023438 176.640625 242.683594 176.464844 C 243.300781 176.425781 243.832031 176.894531 243.871094 177.511719 C 243.910156 178.128906 243.445312 178.664062 242.828125 178.699219 C 240.179688 178.875 236.039062 179.1875 231.242188 179.550781 C 231.214844 179.554688 231.1875 179.554688 231.15625 179.554688 " fill-opacity="1" fill-rule="nonzero"/><path fill="#000000" d="M 142.988281 176.011719 C 142.730469 176.011719 142.46875 176 142.207031 175.976562 C 141.589844 175.917969 141.140625 175.371094 141.195312 174.757812 C 141.253906 174.140625 141.800781 173.6875 142.414062 173.746094 C 146.128906 174.085938 149.234375 171.058594 149.519531 168.851562 C 149.578125 168.410156 149.753906 167.0625 147.351562 166.664062 C 143.917969 166.089844 141.972656 166.75 141.570312 168.617188 C 141.546875 168.734375 141.523438 168.816406 141.507812 168.871094 C 141.3125 169.453125 140.679688 169.773438 140.089844 169.578125 C 139.515625 169.386719 139.199219 168.773438 139.371094 168.199219 C 139.777344 166.3125 141.386719 163.394531 147.71875 164.453125 C 151.058594 165.007812 151.988281 167.238281 151.742188 169.136719 C 151.308594 172.476562 147.472656 176.011719 142.988281 176.011719 " fill-opacity="1" fill-rule="nonzero"/><path fill="#000000" d="M 254.59375 249.945312 L 246.011719 249.945312 C 245.640625 249.945312 245.296875 249.765625 245.085938 249.457031 C 244.878906 249.15625 244.832031 248.773438 244.960938 248.425781 C 244.996094 248.335938 248.402344 239.148438 245.664062 230.730469 C 244.183594 226.199219 240.636719 222.570312 235.925781 220.78125 C 232.214844 219.367188 225.289062 215.648438 220.570312 206.605469 C 220.285156 206.058594 220.496094 205.382812 221.042969 205.09375 C 221.59375 204.808594 222.269531 205.023438 222.554688 205.570312 C 226.929688 213.957031 233.308594 217.386719 236.722656 218.6875 C 242.070312 220.71875 246.105469 224.855469 247.792969 230.039062 C 250.121094 237.183594 248.46875 244.585938 247.554688 247.703125 L 253.511719 247.703125 L 254.269531 225.242188 C 252.75 223.265625 245.382812 213.246094 246.585938 206.027344 C 246.707031 205.292969 246.878906 204.363281 247.082031 203.289062 C 247.546875 200.796875 248.183594 197.390625 248.664062 193.792969 C 248.742188 193.179688 249.304688 192.75 249.921875 192.832031 C 250.535156 192.914062 250.964844 193.472656 250.882812 194.089844 C 250.398438 197.746094 249.753906 201.1875 249.285156 203.703125 C 249.082031 204.765625 248.910156 205.683594 248.792969 206.394531 C 247.644531 213.289062 256.191406 224.066406 256.277344 224.175781 C 256.445312 224.382812 256.53125 224.644531 256.523438 224.914062 L 255.710938 248.859375 C 255.691406 249.464844 255.199219 249.945312 254.59375 249.945312 " fill-opacity="1" fill-rule="nonzero"/><path fill="#000000" d="M 190.800781 187.347656 C 189.714844 187.347656 188.679688 187.238281 187.703125 186.996094 C 175.984375 184.132812 173.664062 175.253906 173.570312 174.878906 C 173.421875 174.28125 173.789062 173.671875 174.390625 173.527344 C 174.992188 173.375 175.59375 173.738281 175.742188 174.339844 C 175.828125 174.667969 177.886719 182.292969 188.234375 184.824219 C 198.785156 187.398438 218.972656 172.179688 219.175781 172.027344 C 219.667969 171.652344 220.371094 171.75 220.746094 172.242188 C 221.117188 172.734375 221.023438 173.4375 220.53125 173.8125 C 219.742188 174.410156 202.582031 187.347656 190.800781 187.347656 " fill-opacity="1" fill-rule="nonzero"/><path fill="#000000" d="M 150.273438 215.429688 C 150.109375 215.429688 149.945312 215.398438 149.785156 215.320312 C 149.230469 215.054688 148.996094 214.382812 149.265625 213.828125 C 149.316406 213.714844 154.511719 202.746094 148.601562 199.382812 C 142.308594 195.808594 137.25 197.90625 137.035156 198 C 136.46875 198.242188 135.8125 197.984375 135.566406 197.417969 C 135.320312 196.851562 135.578125 196.195312 136.140625 195.945312 C 136.390625 195.835938 142.398438 193.28125 149.707031 197.4375 C 157.433594 201.828125 151.535156 214.273438 151.28125 214.800781 C 151.085938 215.199219 150.6875 215.429688 150.273438 215.429688 " fill-opacity="1" fill-rule="nonzero"/><path fill="#000000" d="M 160.515625 181.203125 C 159.1875 181.203125 158.070312 180.917969 157.515625 180.742188 C 149.601562 182.78125 143.902344 175.730469 143.65625 175.425781 C 143.273438 174.941406 143.355469 174.238281 143.839844 173.851562 C 144.324219 173.46875 145.027344 173.550781 145.410156 174.035156 C 145.464844 174.101562 150.605469 180.417969 157.242188 178.5 C 157.476562 178.429688 157.730469 178.441406 157.957031 178.53125 C 157.984375 178.542969 160.90625 179.632812 163.226562 178.296875 C 164.765625 177.402344 165.765625 175.597656 166.191406 172.921875 C 166.289062 172.3125 166.863281 171.894531 167.472656 171.992188 C 168.085938 172.089844 168.5 172.664062 168.40625 173.277344 C 167.863281 176.65625 166.492188 179.003906 164.324219 180.246094 C 163.050781 180.976562 161.699219 181.203125 160.515625 181.203125 " fill-opacity="1" fill-rule="nonzero"/><g fill="#000000" fill-opacity="1"><g transform="translate(144.214135, 115.232939)"><g><path d="M 20.625 -37.40625 L 27.78125 -9.734375 C 28.195312 -8.140625 27.617188 -7.140625 26.046875 -6.734375 L 21.921875 -5.671875 C 21.242188 -5.492188 20.675781 -5.507812 20.21875 -5.71875 C 19.769531 -5.925781 19.273438 -6.335938 18.734375 -6.953125 L 6.71875 -20.921875 C 5.175781 -22.796875 4.164062 -24.195312 3.6875 -25.125 L 3.203125 -25 C 3.773438 -23.601562 4.285156 -22.03125 4.734375 -20.28125 L 9.359375 -2.421875 L 3.0625 -0.796875 L -4.09375 -28.46875 C -4.507812 -30.0625 -3.921875 -31.0625 -2.328125 -31.46875 L 1.71875 -32.515625 C 2.382812 -32.691406 2.941406 -32.675781 3.390625 -32.46875 C 3.847656 -32.269531 4.347656 -31.863281 4.890625 -31.25 L 16.53125 -17.671875 C 17.632812 -16.398438 18.78125 -14.976562 19.96875 -13.40625 L 20.390625 -13.515625 C 19.628906 -15.722656 19.109375 -17.378906 18.828125 -18.484375 L 14.34375 -35.78125 Z M 20.625 -37.40625 "/></g></g></g><g fill="#000000" fill-opacity="1"><g transform="translate(174.148932, 107.39036)"><g><path d="M 10.984375 -39.640625 L 13.1875 -39.59375 C 14.144531 -39.570312 14.613281 -39.066406 14.59375 -38.078125 L 14.53125 -35.5 C 14.507812 -34.507812 14.019531 -34.023438 13.0625 -34.046875 L 10.859375 -34.09375 C 9.898438 -34.113281 9.429688 -34.617188 9.453125 -35.609375 L 9.515625 -38.1875 C 9.535156 -39.175781 10.023438 -39.660156 10.984375 -39.640625 Z M 19.171875 -39.46875 L 21.375 -39.421875 C 22.363281 -39.398438 22.847656 -38.894531 22.828125 -37.90625 L 22.765625 -35.328125 C 22.742188 -34.335938 22.238281 -33.851562 21.25 -33.875 L 19.046875 -33.921875 C 18.054688 -33.941406 17.570312 -34.445312 17.59375 -35.4375 L 17.65625 -38.015625 C 17.675781 -39.003906 18.179688 -39.488281 19.171875 -39.46875 Z M 5.609375 -28.078125 C 7.597656 -30.335938 11.082031 -31.414062 16.0625 -31.3125 C 21.039062 -31.207031 24.476562 -29.984375 26.375 -27.640625 C 28.28125 -25.304688 29.164062 -21.0625 29.03125 -14.90625 C 28.90625 -8.757812 27.84375 -4.5625 25.84375 -2.3125 C 23.84375 -0.0625 20.351562 1.007812 15.375 0.90625 C 10.394531 0.800781 6.960938 -0.414062 5.078125 -2.75 C 3.191406 -5.082031 2.3125 -9.320312 2.4375 -15.46875 C 2.570312 -21.625 3.628906 -25.828125 5.609375 -28.078125 Z M 20.703125 -23.453125 C 19.878906 -24.941406 18.296875 -25.710938 15.953125 -25.765625 C 13.609375 -25.816406 11.992188 -25.113281 11.109375 -23.65625 C 10.222656 -22.207031 9.734375 -19.425781 9.640625 -15.3125 C 9.554688 -11.207031 9.925781 -8.410156 10.75 -6.921875 C 11.570312 -5.441406 13.15625 -4.675781 15.5 -4.625 C 17.84375 -4.570312 19.457031 -5.269531 20.34375 -6.71875 C 21.226562 -8.175781 21.710938 -10.957031 21.796875 -15.0625 C 21.890625 -19.175781 21.523438 -21.972656 20.703125 -23.453125 Z M 20.703125 -23.453125 "/></g></g></g><g fill="#000000" fill-opacity="1"><g transform="translate(203.696797, 108.106404)"><g><path d="M 32.15625 -17.40625 L 23.234375 -19.921875 L 16.328125 4.59375 L 9.703125 2.734375 L 16.609375 -21.78125 L 7.6875 -24.296875 L 9.203125 -29.671875 L 33.671875 -22.78125 Z M 32.15625 -17.40625 "/></g></g></g></svg>