<svg xmlns="http://www.w3.org/2000/svg" xmlns:xlink="http://www.w3.org/1999/xlink" width="500" zoomAndPan="magnify" viewBox="0 0 375 374.999991" height="500" preserveAspectRatio="xMidYMid meet" version="1.0"><defs><g/><clipPath id="d8cc35b9a1"><path d="M 45.238281 45.238281 L 329.761719 45.238281 L 329.761719 329.761719 L 45.238281 329.761719 Z M 45.238281 45.238281 " clip-rule="nonzero"/></clipPath><clipPath id="429db3743f"><path d="M 187.5 45.238281 C 108.929688 45.238281 45.238281 108.929688 45.238281 187.5 C 45.238281 266.070312 108.929688 329.761719 187.5 329.761719 C 266.070312 329.761719 329.761719 266.070312 329.761719 187.5 C 329.761719 108.929688 266.070312 45.238281 187.5 45.238281 Z M 187.5 45.238281 " clip-rule="nonzero"/></clipPath><clipPath id="211343e257"><path d="M 127.585938 156.476562 L 252.835938 156.476562 L 252.835938 281.726562 L 127.585938 281.726562 Z M 127.585938 156.476562 " clip-rule="nonzero"/></clipPath></defs><g clip-path="url(#d8cc35b9a1)"><g clip-path="url(#429db3743f)"><path fill="#cfff00" d="M 45.238281 45.238281 L 329.761719 45.238281 L 329.761719 329.761719 L 45.238281 329.761719 Z M 45.238281 45.238281 " fill-opacity="1" fill-rule="nonzero"/></g></g><g clip-path="url(#211343e257)"><path fill="#000000" d="M 238.335938 156.683594 C 238.082031 156.671875 237.832031 156.730469 237.617188 156.855469 L 234.011719 158.941406 L 228.902344 161.902344 C 228.296875 162.246094 228.082031 163.011719 228.402344 163.628906 C 229.316406 165.371094 228.71875 167.453125 227.085938 168.402344 L 227.085938 168.40625 C 226.53125 168.726562 225.894531 168.882812 225.25 168.863281 C 224.585938 168.839844 224.015625 169.316406 223.914062 169.964844 C 223.664062 171.59375 222.707031 173 221.3125 173.808594 C 218.820312 175.25 215.625 174.453125 214.027344 171.953125 C 213.65625 171.363281 212.882812 171.171875 212.28125 171.523438 L 201.34375 177.855469 C 201.34375 177.855469 201.34375 177.855469 201.335938 177.859375 L 197.304688 180.191406 C 196.679688 180.550781 196.46875 181.34375 196.828125 181.96875 C 203.824219 194.117188 219.054688 198.523438 230.820312 191.710938 C 242.582031 184.902344 246.390625 169.484375 239.398438 157.335938 C 239.175781 156.949219 238.773438 156.703125 238.335938 156.683594 Z M 155.792969 158.183594 C 154.800781 158.222656 154.21875 159.300781 154.71875 160.148438 L 158.679688 166.972656 C 156.429688 166.871094 154.191406 167.640625 152.519531 169.296875 C 149.421875 172.363281 149.304688 177.285156 152.136719 180.488281 C 151.949219 180.652344 151.71875 180.761719 151.535156 180.9375 C 148.316406 184.136719 148.289062 189.359375 151.496094 192.546875 C 152.347656 193.390625 153.414062 193.941406 154.539062 194.339844 C 153.316406 197.28125 153.902344 200.71875 156.148438 203.070312 C 156.191406 203.128906 156.238281 203.183594 156.285156 203.230469 L 156.292969 203.238281 C 158.625 205.550781 162.074219 206.105469 165.089844 204.933594 C 165.367188 205.347656 165.597656 205.792969 165.957031 206.144531 C 165.957031 206.144531 165.957031 206.144531 165.957031 206.152344 C 168.421875 208.589844 172.136719 209.175781 175.234375 207.746094 C 175.429688 207.996094 175.585938 208.28125 175.808594 208.503906 C 175.808594 208.511719 175.808594 208.511719 175.816406 208.511719 C 179.019531 211.695312 184.257812 211.667969 187.484375 208.464844 C 189.355469 206.605469 190.140625 203.992188 189.761719 201.4375 C 190.207031 201.144531 190.675781 200.878906 191.054688 200.507812 C 193.960938 197.621094 194.242188 193.101562 191.921875 189.902344 C 192.289062 189.644531 192.640625 189.367188 192.960938 189.046875 C 192.964844 189.046875 192.964844 189.046875 192.964844 189.046875 C 196.183594 185.851562 196.210938 180.625 193.007812 177.441406 C 191.421875 175.863281 189.273438 175.027344 187.085938 175.0625 C 187.546875 172.480469 186.78125 169.78125 184.863281 167.871094 L 184.855469 167.871094 C 182.511719 165.542969 179.015625 164.902344 176.011719 166.089844 C 175.597656 165.058594 175.0625 164.085938 174.261719 163.296875 C 172.664062 161.707031 170.550781 160.914062 168.4375 160.925781 C 166.320312 160.933594 164.207031 161.738281 162.59375 163.339844 C 161.902344 164.023438 161.347656 164.824219 160.941406 165.691406 L 156.976562 158.839844 C 156.734375 158.414062 156.277344 158.15625 155.792969 158.167969 Z M 195.546875 159.617188 C 191.96875 159.617188 189.042969 162.546875 189.042969 166.117188 C 189.042969 169.695312 191.96875 172.621094 195.546875 172.621094 C 199.125 172.621094 202.054688 169.695312 202.054688 166.117188 C 202.054688 162.546875 199.125 159.617188 195.546875 159.617188 Z M 237.683594 159.820312 C 243.117188 170.589844 239.640625 183.601562 229.511719 189.460938 C 219.382812 195.332031 206.417969 191.839844 199.835938 181.730469 L 201.550781 180.742188 C 204.96875 185.902344 210.335938 189.089844 216.039062 189.847656 C 217.164062 189.996094 218.304688 190.058594 219.449219 190.011719 C 219.578125 190.011719 219.699219 190.003906 219.820312 190.003906 C 219.875 190.003906 219.929688 189.996094 219.976562 189.996094 C 220.03125 189.992188 220.085938 189.984375 220.140625 189.984375 C 222.5 189.820312 224.847656 189.230469 227.085938 188.1875 C 227.105469 188.175781 227.125 188.175781 227.140625 188.160156 C 227.25 188.113281 227.351562 188.058594 227.457031 188.003906 C 227.492188 188 227.511719 187.984375 227.539062 187.957031 C 227.640625 187.910156 227.75 187.855469 227.851562 187.800781 C 227.878906 187.789062 227.90625 187.773438 227.925781 187.769531 C 228.15625 187.644531 228.386719 187.515625 228.617188 187.386719 C 231.429688 185.753906 233.6875 183.539062 235.324219 180.972656 C 235.359375 180.917969 235.386719 180.875 235.414062 180.828125 C 235.449219 180.769531 235.480469 180.726562 235.515625 180.671875 C 236.097656 179.722656 236.605469 178.726562 237.035156 177.699219 C 239.222656 172.363281 239.160156 166.117188 236.402344 160.566406 Z M 234.121094 161.886719 C 236.464844 166.714844 236.519531 172.101562 234.628906 176.707031 C 233.394531 179.703125 231.367188 182.351562 228.609375 184.296875 C 228.582031 184.324219 228.554688 184.332031 228.527344 184.359375 C 228.460938 184.40625 228.394531 184.453125 228.324219 184.5 C 228.277344 184.535156 228.230469 184.570312 228.183594 184.589844 C 228.121094 184.625 228.070312 184.65625 228.015625 184.703125 C 227.933594 184.757812 227.859375 184.800781 227.785156 184.847656 C 227.742188 184.875 227.710938 184.902344 227.667969 184.921875 C 227.554688 184.988281 227.429688 185.0625 227.308594 185.132812 C 227.1875 185.207031 227.070312 185.273438 226.949219 185.335938 C 226.902344 185.363281 226.863281 185.390625 226.816406 185.410156 C 226.746094 185.445312 226.664062 185.484375 226.589844 185.523438 C 226.535156 185.558594 226.476562 185.578125 226.414062 185.621094 C 226.359375 185.640625 226.300781 185.675781 226.246094 185.695312 C 226.171875 185.734375 226.101562 185.769531 226.035156 185.800781 C 225.996094 185.808594 225.96875 185.835938 225.925781 185.851562 C 222.871094 187.265625 219.578125 187.699219 216.386719 187.273438 C 211.460938 186.617188 206.832031 183.871094 203.835938 179.417969 L 212.613281 174.335938 C 215.105469 177.167969 219.285156 177.988281 222.613281 176.066406 C 222.613281 176.066406 222.613281 176.066406 222.621094 176.066406 C 224.402344 175.027344 225.65625 173.320312 226.21875 171.347656 C 226.976562 171.246094 227.714844 171.042969 228.386719 170.65625 C 230.867188 169.21875 231.945312 166.265625 231.171875 163.589844 Z M 195.546875 162.21875 C 197.714844 162.21875 199.453125 163.949219 199.453125 166.125 C 199.453125 168.292969 197.714844 170.019531 195.546875 170.019531 C 193.375 170.019531 191.644531 168.292969 191.644531 166.125 C 191.644531 163.949219 193.375 162.21875 195.546875 162.21875 Z M 168.441406 163.523438 C 169.886719 163.515625 171.328125 164.058594 172.433594 165.148438 C 173.246094 165.960938 173.789062 167.003906 173.980469 168.136719 C 174.140625 169.050781 175.183594 169.511719 175.964844 169.011719 C 178.222656 167.566406 181.15625 167.867188 183.027344 169.722656 C 184.707031 171.394531 185.132812 173.929688 184.089844 176.078125 C 183.601562 177.09375 184.542969 178.207031 185.621094 177.894531 C 187.605469 177.324219 189.734375 177.859375 191.175781 179.289062 C 193.375 181.480469 193.367188 184.988281 191.136719 187.207031 C 190.636719 187.699219 190.039062 188.101562 189.386719 188.382812 C 188.515625 188.765625 188.332031 189.921875 189.050781 190.554688 C 189.132812 190.628906 189.207031 190.695312 189.265625 190.75 C 191.46875 192.9375 191.457031 196.449219 189.226562 198.664062 C 188.804688 199.078125 188.324219 199.429688 187.796875 199.695312 C 187.246094 199.980469 186.976562 200.601562 187.132812 201.191406 C 187.652344 203.125 187.089844 205.191406 185.65625 206.625 C 183.417969 208.835938 179.855469 208.847656 177.652344 206.675781 C 177.292969 206.316406 176.980469 205.902344 176.730469 205.460938 C 176.363281 204.804688 175.515625 204.59375 174.886719 205.007812 C 172.628906 206.46875 169.675781 206.179688 167.792969 204.316406 C 167.359375 203.882812 167 203.375 166.734375 202.824219 C 166.402344 202.148438 165.578125 201.890625 164.917969 202.261719 C 162.6875 203.53125 159.917969 203.171875 158.128906 201.394531 C 156.21875 199.503906 155.945312 196.542969 157.484375 194.308594 C 158.039062 193.5 157.539062 192.394531 156.578125 192.273438 C 155.34375 192.117188 154.199219 191.570312 153.332031 190.703125 C 151.128906 188.519531 151.136719 185.003906 153.371094 182.785156 C 153.777344 182.386719 154.246094 182.042969 154.753906 181.777344 C 155.609375 181.332031 155.695312 180.144531 154.917969 179.574219 C 154.714844 179.425781 154.511719 179.25 154.3125 179.058594 C 152.113281 176.878906 152.125 173.359375 154.355469 171.152344 C 155.945312 169.578125 158.285156 169.085938 160.332031 169.835938 L 163.414062 175.15625 L 155.925781 186.1875 C 155.507812 186.777344 155.65625 187.605469 156.257812 188.011719 C 156.855469 188.417969 157.683594 188.253906 158.074219 187.644531 L 164.863281 177.65625 L 169.886719 186.324219 L 162.390625 197.355469 C 161.976562 197.953125 162.128906 198.773438 162.730469 199.179688 C 163.328125 199.585938 164.144531 199.421875 164.546875 198.820312 L 171.335938 188.824219 L 177.792969 199.980469 C 178.144531 200.617188 178.953125 200.839844 179.582031 200.472656 C 180.214844 200.113281 180.421875 199.300781 180.042969 198.679688 L 173.59375 187.542969 L 185.632812 186.683594 C 187.320312 186.582031 187.234375 184.0625 185.539062 184.082031 C 185.503906 184.082031 185.480469 184.082031 185.445312 184.089844 L 172.148438 185.035156 L 167.128906 176.371094 L 179.164062 175.507812 C 180.863281 175.421875 180.777344 172.878906 179.066406 172.914062 C 179.039062 172.914062 179.007812 172.914062 178.980469 172.921875 L 165.679688 173.871094 L 162.777344 168.863281 C 162.859375 167.484375 163.441406 166.179688 164.4375 165.195312 C 165.550781 164.089844 167 163.535156 168.449219 163.527344 Z M 138.144531 177.957031 C 134.566406 177.957031 131.640625 180.875 131.640625 184.453125 C 131.640625 188.03125 134.566406 190.960938 138.144531 190.960938 C 141.722656 190.960938 144.652344 188.03125 144.652344 184.453125 C 144.652344 180.875 141.722656 177.957031 138.144531 177.957031 Z M 138.144531 180.550781 C 140.320312 180.550781 142.046875 182.285156 142.046875 184.453125 C 142.046875 186.621094 140.320312 188.355469 138.144531 188.355469 C 135.976562 188.355469 134.242188 186.621094 134.242188 184.453125 C 134.242188 182.285156 135.976562 180.550781 138.144531 180.550781 Z M 246.332031 190.511719 C 242.753906 190.511719 239.824219 193.441406 239.824219 197.015625 C 239.824219 200.589844 242.753906 203.515625 246.332031 203.515625 C 249.910156 203.515625 252.835938 200.589844 252.835938 197.015625 C 252.835938 193.441406 249.910156 190.511719 246.332031 190.511719 Z M 246.332031 193.113281 C 248.5 193.113281 250.234375 194.84375 250.234375 197.015625 C 250.234375 199.1875 248.5 200.914062 246.332031 200.914062 C 244.164062 200.914062 242.425781 199.1875 242.425781 197.015625 C 242.425781 194.84375 244.164062 193.113281 246.332031 193.113281 Z M 145.871094 195.398438 C 145.707031 195.398438 145.550781 195.410156 145.394531 195.445312 C 144.15625 195.648438 143.070312 196.589844 142.8125 197.960938 L 142.394531 200.175781 L 141.480469 198.277344 C 140.679688 196.632812 138.640625 196.082031 137.128906 196.957031 L 135.015625 198.167969 C 133.496094 199.050781 132.933594 201.097656 134.003906 202.621094 L 135.480469 204.722656 L 132.757812 203.765625 C 131.003906 203.148438 129.171875 204.179688 128.699219 205.875 L 128.046875 208.191406 C 127.574219 209.878906 128.679688 211.695312 130.472656 212.019531 L 135.386719 212.910156 C 134.019531 215.152344 133.78125 217.992188 135.273438 220.320312 C 134.621094 220.585938 134.019531 220.855469 133.449219 221.140625 C 131.824219 221.941406 130.507812 222.796875 129.546875 223.785156 C 128.578125 224.765625 127.933594 225.953125 127.933594 227.253906 C 127.933594 227.410156 127.941406 227.558594 127.960938 227.707031 C 127.941406 227.796875 127.933594 227.890625 127.933594 227.980469 C 127.933594 240.195312 135.054688 251.179688 146.339844 259.027344 C 151.738281 262.789062 158.101562 265.847656 165.136719 268.015625 L 165.136719 276.769531 C 165.136719 276.804688 165.136719 276.84375 165.136719 276.882812 C 165.136719 277.46875 165.523438 277.980469 166.085938 278.136719 C 173.496094 280.320312 181.636719 281.519531 190.175781 281.519531 C 198.714844 281.519531 206.851562 280.320312 214.265625 278.136719 C 214.847656 277.976562 215.242188 277.425781 215.214844 276.824219 C 215.214844 276.808594 215.214844 276.789062 215.214844 276.777344 L 215.214844 268.019531 C 222.246094 265.851562 228.609375 262.796875 234.011719 259.035156 C 245.292969 251.1875 252.417969 240.203125 252.417969 227.984375 C 252.417969 227.890625 252.410156 227.796875 252.390625 227.707031 C 252.402344 227.558594 252.417969 227.410156 252.417969 227.261719 C 252.417969 225.964844 251.773438 224.773438 250.804688 223.792969 C 249.839844 222.800781 248.527344 221.949219 246.898438 221.148438 C 245.410156 220.410156 243.648438 219.726562 241.640625 219.082031 C 241.429688 216 239.777344 213.117188 237.128906 211.351562 C 237.324219 210.910156 237.570312 210.496094 237.691406 210.027344 L 237.691406 210.023438 C 239.105469 204.695312 235.875 199.1875 230.519531 197.730469 C 229.648438 197.5 228.765625 197.382812 227.886719 197.375 C 225.59375 197.375 223.394531 198.222656 221.597656 199.679688 C 220.945312 199.34375 220.277344 199.042969 219.5625 198.855469 C 219.558594 198.855469 219.558594 198.855469 219.558594 198.855469 C 214.609375 197.511719 209.554688 200.121094 207.691406 204.714844 C 207.089844 204.417969 206.464844 204.167969 205.816406 203.984375 C 200.460938 202.535156 194.917969 205.683594 193.507812 211.011719 C 193.3125 211.757812 193.210938 212.507812 193.191406 213.253906 C 192.195312 213.246094 191.183594 213.246094 190.175781 213.246094 C 185.945312 213.246094 181.824219 213.335938 177.835938 213.503906 C 173.851562 213.675781 170.007812 213.925781 166.34375 214.25 C 164.503906 214.414062 162.714844 214.59375 160.980469 214.792969 C 160.332031 214.859375 159.695312 214.941406 159.058594 215.015625 L 158.175781 213.164062 L 156.054688 208.71875 C 154.898438 206.292969 152.523438 204.972656 150.023438 204.832031 C 149.828125 204.824219 149.625 204.824219 149.421875 204.824219 L 151.109375 200.132812 C 151.726562 198.414062 150.707031 196.542969 149.007812 196.109375 L 146.671875 195.511719 C 146.40625 195.445312 146.132812 195.410156 145.871094 195.425781 Z M 145.9375 198.007812 C 145.972656 198.007812 146 198.007812 146.027344 198.015625 L 148.363281 198.609375 C 148.574219 198.671875 148.777344 198.914062 148.664062 199.226562 L 146.425781 205.453125 C 146.148438 205.570312 145.878906 205.703125 145.613281 205.859375 L 138.214844 210.128906 C 137.949219 210.277344 137.699219 210.449219 137.453125 210.632812 L 130.941406 209.453125 C 130.609375 209.398438 130.496094 209.101562 130.550781 208.890625 L 131.207031 206.566406 C 131.265625 206.355469 131.613281 206.105469 131.898438 206.207031 L 138.457031 208.515625 C 139.65625 208.929688 140.6875 207.574219 139.953125 206.539062 L 136.132812 201.109375 C 135.96875 200.886719 136.097656 200.542969 136.316406 200.414062 L 138.429688 199.199219 C 138.648438 199.070312 139.003906 199.125 139.132812 199.402344 L 141.777344 204.859375 C 142.320312 205.984375 143.992188 205.757812 144.222656 204.53125 L 145.367188 198.433594 C 145.421875 198.167969 145.722656 198.007812 145.9375 198.007812 Z M 227.878906 199.964844 C 228.535156 199.964844 229.191406 200.054688 229.835938 200.222656 C 233.847656 201.3125 236.226562 205.386719 235.175781 209.335938 C 235.007812 209.988281 234.742188 210.609375 234.398438 211.1875 C 234.003906 211.835938 234.25 212.679688 234.925781 213.015625 C 238.097656 214.621094 239.71875 218.1875 238.824219 221.570312 C 238.613281 222.355469 238.273438 223.09375 237.820312 223.765625 C 237.394531 224.386719 237.589844 225.234375 238.238281 225.613281 C 239.695312 226.476562 240.78125 227.75 241.398438 229.21875 C 241.554688 229.585938 241.675781 229.964844 241.769531 230.351562 C 241.863281 230.742188 241.925781 231.136719 241.953125 231.535156 C 241.988281 231.882812 241.980469 232.226562 241.960938 232.582031 C 239.464844 233.441406 236.445312 234.246094 233 234.964844 C 227.335938 236.152344 220.527344 237.101562 212.9375 237.742188 L 217.300781 230.1875 L 234.316406 231.421875 C 235.035156 231.484375 235.664062 230.941406 235.71875 230.222656 C 235.773438 229.496094 235.222656 228.875 234.507812 228.824219 L 218.742188 227.679688 L 227.140625 213.144531 C 227.65625 212.285156 227.039062 211.1875 226.035156 211.179688 C 225.5625 211.179688 225.121094 211.429688 224.890625 211.84375 L 216.5 226.367188 L 207.652344 213.335938 C 207.40625 212.960938 206.992188 212.746094 206.546875 212.746094 C 205.503906 212.757812 204.898438 213.9375 205.496094 214.792969 L 215.058594 228.867188 L 210.382812 236.964844 L 209.785156 237.988281 C 208.808594 238.054688 207.820312 238.125 206.816406 238.183594 L 204.527344 234.804688 L 202.019531 231.109375 L 199.511719 227.421875 C 199.269531 227.050781 198.855469 226.832031 198.40625 226.832031 C 197.363281 226.847656 196.761719 228.027344 197.359375 228.878906 L 202.371094 236.265625 L 203.789062 238.347656 C 201.648438 238.449219 199.464844 238.523438 197.25 238.578125 C 197.242188 238.300781 197.234375 238.023438 197.214844 237.742188 C 197.167969 237.019531 197.085938 236.285156 196.972656 235.554688 C 196.847656 234.816406 196.695312 234.085938 196.496094 233.351562 C 195.574219 229.925781 193.886719 226.902344 191.664062 224.414062 C 192.066406 223.8125 192.554688 223.277344 193.109375 222.820312 C 193.683594 222.347656 194.335938 221.953125 195.039062 221.675781 C 195.738281 221.390625 196.496094 221.214844 197.28125 221.15625 C 198.40625 221.074219 198.902344 219.699219 198.089844 218.917969 C 196.125 217.035156 195.332031 214.25 196.023438 211.65625 C 197.066406 207.703125 201.117188 205.386719 205.128906 206.476562 C 206.03125 206.722656 206.878906 207.136719 207.628906 207.691406 C 208.394531 208.257812 209.496094 207.832031 209.683594 206.898438 C 209.710938 206.761719 209.738281 206.632812 209.765625 206.523438 C 210.816406 202.566406 214.859375 200.257812 218.871094 201.339844 C 219.625 201.542969 220.34375 201.871094 221 202.289062 C 221.515625 202.621094 222.191406 202.554688 222.625 202.121094 C 224.03125 200.71875 225.925781 199.957031 227.878906 199.957031 Z M 149.582031 207.398438 C 151.3125 207.398438 152.957031 208.246094 153.703125 209.816406 L 154.753906 212.015625 L 144.394531 217.992188 C 143.761719 218.34375 143.539062 219.148438 143.898438 219.78125 C 144.265625 220.410156 145.070312 220.621094 145.695312 220.246094 L 155.878906 214.371094 L 157.953125 218.714844 L 160.074219 223.160156 C 159.585938 223.628906 159.117188 224.117188 158.671875 224.625 C 157.75 225.6875 156.929688 226.839844 156.226562 228.054688 C 155.527344 229.273438 154.9375 230.554688 154.476562 231.890625 C 154.015625 233.222656 153.683594 234.605469 153.488281 236.023438 C 153.480469 236.042969 153.480469 236.070312 153.472656 236.089844 C 151.988281 235.851562 150.554688 235.601562 149.183594 235.339844 C 149.148438 235.277344 149.117188 235.214844 149.074219 235.160156 L 146.371094 231.378906 C 146.398438 231.367188 146.425781 231.347656 146.453125 231.332031 L 157.179688 225.140625 C 158.332031 224.503906 157.90625 222.746094 156.582031 222.707031 C 156.339844 222.699219 156.089844 222.761719 155.878906 222.890625 L 145.144531 229.082031 C 145.050781 229.136719 144.960938 229.207031 144.882812 229.285156 L 137.582031 219.089844 C 136.253906 217.226562 136.863281 214.574219 138.652344 212.996094 L 138.660156 212.988281 C 138.925781 212.757812 139.210938 212.550781 139.515625 212.371094 L 146.914062 208.109375 C 146.988281 208.054688 147.0625 208.027344 147.144531 207.980469 C 147.375 207.859375 147.617188 207.757812 147.863281 207.675781 L 147.871094 207.675781 C 148.433594 207.488281 149.007812 207.390625 149.582031 207.390625 Z M 190.175781 215.820312 C 191.226562 215.820312 192.261719 215.828125 193.296875 215.835938 C 193.359375 215.835938 193.421875 215.835938 193.476562 215.820312 C 193.753906 216.945312 194.226562 218.023438 194.871094 219.007812 C 194.601562 219.089844 194.328125 219.15625 194.070312 219.257812 C 193.117188 219.636719 192.234375 220.164062 191.457031 220.808594 C 190.839844 221.316406 190.277344 221.90625 189.796875 222.558594 C 185.519531 218.796875 179.847656 216.75 173.964844 217.097656 C 172.507812 217.191406 171.039062 217.421875 169.574219 217.8125 C 168.109375 218.207031 166.722656 218.734375 165.414062 219.386719 C 164.246094 219.96875 163.148438 220.652344 162.128906 221.414062 L 160.304688 217.589844 L 160.242188 217.46875 C 160.582031 217.414062 160.925781 217.386719 161.273438 217.347656 C 162.988281 217.148438 164.757812 216.972656 166.566406 216.8125 C 170.191406 216.492188 174 216.25 177.949219 216.078125 C 181.902344 215.910156 185.988281 215.820312 190.175781 215.820312 Z M 175.089844 219.664062 C 183.730469 219.570312 191.644531 225.296875 193.988281 234.03125 C 194.160156 234.675781 194.300781 235.324219 194.402344 235.96875 C 194.511719 236.613281 194.578125 237.261719 194.621094 237.898438 C 194.632812 238.144531 194.640625 238.386719 194.648438 238.632812 C 193.285156 238.660156 191.902344 238.664062 190.511719 238.664062 C 190.433594 230.636719 183.996094 224.007812 175.890625 223.757812 C 168.023438 223.511719 161.355469 229.367188 160.445312 237.046875 C 158.933594 236.871094 157.472656 236.671875 156.054688 236.476562 C 156.054688 236.441406 156.0625 236.414062 156.0625 236.382812 C 156.238281 235.136719 156.53125 233.914062 156.9375 232.742188 C 157.34375 231.5625 157.859375 230.433594 158.480469 229.363281 C 159.097656 228.285156 159.824219 227.273438 160.636719 226.332031 C 161.457031 225.390625 162.363281 224.53125 163.355469 223.757812 C 164.351562 222.984375 165.425781 222.300781 166.578125 221.722656 C 167.722656 221.148438 168.949219 220.679688 170.25 220.335938 C 171.863281 219.902344 173.492188 219.683594 175.089844 219.671875 Z M 241.453125 221.738281 C 243.113281 222.292969 244.554688 222.871094 245.75 223.460938 C 247.203125 224.175781 248.289062 224.921875 248.945312 225.59375 C 249.605469 226.265625 249.8125 226.785156 249.8125 227.246094 C 249.8125 227.703125 249.605469 228.230469 248.945312 228.902344 C 248.289062 229.570312 247.203125 230.308594 245.75 231.035156 C 245.375 231.21875 244.980469 231.402344 244.5625 231.578125 C 244.5625 231.496094 244.5625 231.421875 244.546875 231.339844 C 244.507812 230.796875 244.425781 230.269531 244.296875 229.742188 C 244.175781 229.21875 244.007812 228.710938 243.796875 228.214844 C 243.125 226.617188 242.019531 225.199219 240.597656 224.109375 C 240.894531 223.507812 241.160156 222.890625 241.328125 222.238281 L 241.335938 222.238281 C 241.378906 222.070312 241.417969 221.90625 241.453125 221.738281 Z M 136.816406 222.488281 L 145.445312 234.550781 C 140.875 233.5 137.167969 232.300781 134.601562 231.035156 C 133.144531 230.308594 132.058594 229.570312 131.402344 228.902344 C 130.746094 228.230469 130.535156 227.703125 130.535156 227.246094 C 130.535156 226.785156 130.746094 226.265625 131.402344 225.59375 C 132.058594 224.921875 133.144531 224.175781 134.601562 223.460938 C 135.265625 223.132812 136.003906 222.808594 136.816406 222.488281 Z M 175.488281 226.347656 C 175.589844 226.351562 175.699219 226.351562 175.808594 226.351562 C 177.476562 226.398438 179.046875 226.78125 180.484375 227.410156 L 175.707031 235.671875 L 173.261719 226.535156 C 173.984375 226.40625 174.722656 226.347656 175.488281 226.347656 Z M 170.753906 227.246094 L 173.191406 236.347656 L 165.164062 231.707031 C 166.539062 229.71875 168.484375 228.15625 170.753906 227.246094 Z M 182.742188 228.703125 C 184.738281 230.148438 186.285156 232.167969 187.144531 234.511719 L 177.964844 236.972656 Z M 130.792969 231.789062 C 131.550781 232.351562 132.441406 232.863281 133.449219 233.367188 C 136.703125 234.964844 141.242188 236.347656 146.820312 237.511719 C 157.972656 239.84375 173.273438 241.269531 190.175781 241.269531 C 207.074219 241.269531 222.375 239.84375 233.53125 237.511719 C 239.113281 236.347656 243.648438 234.964844 246.898438 233.367188 C 247.910156 232.863281 248.796875 232.351562 249.554688 231.789062 C 248.261719 241.484375 242.054688 250.253906 232.519531 256.886719 C 221.746094 264.382812 206.757812 269.070312 190.175781 269.070312 C 173.59375 269.070312 158.601562 264.382812 147.828125 256.886719 C 138.292969 250.253906 132.09375 241.484375 130.792969 231.789062 Z M 163.910156 233.988281 L 170.875 238.007812 C 168.171875 237.824219 165.550781 237.59375 163.027344 237.332031 C 163.171875 236.15625 163.46875 235.035156 163.910156 233.988281 Z M 187.78125 237.03125 C 187.863281 237.566406 187.90625 238.109375 187.910156 238.660156 C 185.953125 238.644531 184.015625 238.609375 182.109375 238.550781 Z M 242.128906 240.144531 C 241.703125 240.15625 241.308594 240.386719 241.078125 240.746094 C 240.386719 241.808594 239.621094 242.839844 238.789062 243.847656 C 238.308594 244.398438 238.382812 245.230469 238.9375 245.699219 C 239.5 246.167969 240.332031 246.078125 240.789062 245.507812 C 241.6875 244.433594 242.507812 243.3125 243.261719 242.164062 C 243.851562 241.28125 243.191406 240.101562 242.128906 240.144531 Z M 236.972656 246.390625 C 236.640625 246.390625 236.316406 246.527344 236.078125 246.761719 C 235.101562 247.707031 234.066406 248.613281 232.96875 249.488281 C 231.863281 250.363281 230.703125 251.195312 229.484375 251.988281 C 224.597656 255.167969 218.796875 257.699219 212.375 259.386719 C 211.667969 259.5625 211.25 260.277344 211.433594 260.980469 C 211.613281 261.679688 212.332031 262.089844 213.03125 261.902344 C 219.707031 260.152344 225.765625 257.511719 230.902344 254.164062 C 232.1875 253.328125 233.414062 252.449219 234.582031 251.527344 C 235.746094 250.605469 236.851562 249.636719 237.886719 248.632812 C 238.746094 247.820312 238.164062 246.371094 236.972656 246.390625 Z M 167.738281 268.757812 C 174.703125 270.644531 182.265625 271.671875 190.175781 271.671875 C 198.082031 271.671875 205.644531 270.644531 212.613281 268.757812 L 212.613281 275.886719 C 205.691406 277.832031 198.117188 278.902344 190.175781 278.902344 C 182.234375 278.902344 174.65625 277.832031 167.738281 275.886719 Z M 167.738281 268.757812 " fill-opacity="1" fill-rule="nonzero"/></g><path stroke-linecap="butt" transform="matrix(0.589537, -0.463623, 0.463623, 0.589537, 89.266962, 97.141165)" fill="none" stroke-linejoin="miter" d="M 19.49904 44.341961 L 11.161193 41.396073 C 8.075496 40.281363 5.876337 38.763934 4.552309 36.841441 C 3.235595 34.918073 2.578501 32.400281 2.580151 29.280751 C 2.580381 24.722268 3.684835 21.674887 5.904922 20.140953 C 8.131448 18.598831 12.037633 17.82767 17.638106 17.82572 C 22.919721 17.824802 27.46071 18.36123 31.257855 19.439098 L 30.657501 25.679069 C 27.183182 25.564055 22.858457 25.502496 17.695609 25.504051 C 15.303305 25.504473 13.707467 25.713814 12.908095 26.132075 C 12.105504 26.55443 11.704282 27.60385 11.704429 29.280335 C 11.703546 30.637963 12.00296 31.622161 12.594483 32.226492 C 13.203853 32.824979 14.344176 33.397078 16.024512 33.95654 L 23.878033 36.667317 C 27.078404 37.779443 29.341914 39.307724 30.657157 41.249813 C 31.976495 43.195121 32.638558 45.723447 32.636032 48.835664 C 32.638108 53.47547 31.512547 56.625519 29.266663 58.284937 C 27.032186 59.9467 23.040264 60.77633 17.283583 60.774702 C 12.599021 60.77471 7.85647 60.258671 3.059149 59.222492 L 3.601156 52.618589 C 12.119516 52.824143 16.678833 52.924417 17.287293 52.925852 C 19.727572 52.923405 21.354732 52.66581 22.164677 52.149848 C 22.984282 51.621605 23.392539 50.537962 23.392669 48.894826 C 23.396495 47.499756 23.115802 46.517028 22.55703 45.938454 C 22.004698 45.351693 20.980201 44.817674 19.49904 44.341961 Z M 19.49904 44.341961 " stroke="#fff7b3" stroke-width="0.9" stroke-opacity="1" stroke-miterlimit="4"/><path stroke-linecap="butt" transform="matrix(0.691663, -0.290004, 0.290004, 0.691663, 118.889358, 75.397613)" fill="none" stroke-linejoin="miter" d="M 26.64329 49.146898 L 12.422097 49.148061 L 9.420348 59.99797 L 0.0617476 59.999151 L 11.994019 21.007211 C 12.162703 20.281624 12.541803 19.700736 13.138135 19.26176 C 13.734468 18.822783 14.41324 18.604744 15.176468 18.602839 L 23.816308 18.605264 C 25.53907 18.604696 26.598588 19.404735 26.994862 21.005382 L 38.934444 59.998834 L 29.631931 60.000941 Z M 24.652678 42.054704 L 21.18207 29.400303 C 20.705359 27.398835 20.424997 26.100931 20.347802 25.503803 L 18.720792 25.504985 C 18.644586 25.902252 18.500531 26.542157 18.295446 27.421911 C 18.10198 28.300889 17.945067 28.957993 17.827495 29.40004 L 14.339347 42.056562 Z M 24.652678 42.054704 " stroke="#fff7b3" stroke-width="0.9" stroke-opacity="1" stroke-miterlimit="4"/><path stroke-linecap="butt" transform="matrix(0.742928, -0.102754, 0.102754, 0.742928, 155.912689, 61.692769)" fill="none" stroke-linejoin="miter" d="M 13.19757 18.601516 L 13.19909 49.497228 C 13.196553 50.580007 13.446054 51.361139 13.947591 51.840624 C 14.454288 52.320822 15.283988 52.556509 16.435264 52.558004 L 30.657831 52.558657 L 31.083664 59.515937 C 27.042556 59.956017 21.202471 60.173573 13.562696 60.173762 C 10.360077 60.177733 7.978114 59.380331 6.416093 57.786715 C 4.865104 56.189368 4.089488 54.042022 4.087816 51.354997 L 4.085384 18.603115 Z M 13.19757 18.601516 " stroke="#fff7b3" stroke-width="0.9" stroke-opacity="1" stroke-miterlimit="4"/><path stroke-linecap="butt" transform="matrix(0.746327, 0.0741361, -0.0741361, 0.746327, 189.293284, 58.226948)" fill="none" stroke-linejoin="miter" d="M 13.200024 18.603508 L 13.196255 49.494755 C 13.199684 50.583079 13.450002 51.364245 13.947209 51.838252 C 14.45581 52.321595 15.28537 52.558463 16.436918 52.559221 L 30.657662 52.55978 L 31.081671 59.515475 C 27.04267 59.953326 21.202897 60.177508 13.566502 60.177141 C 10.363208 60.176067 7.976159 59.382092 6.415208 57.789003 C 4.863592 56.18452 4.085557 54.042604 4.085771 51.357557 L 4.087658 18.603205 Z M 13.200024 18.603508 " stroke="#fff7b3" stroke-width="0.9" stroke-opacity="1" stroke-miterlimit="4"/><path stroke-linecap="butt" transform="matrix(0.702294, 0.263217, -0.263217, 0.702294, 223.249063, 62.600504)" fill="none" stroke-linejoin="miter" d="M 26.647178 49.145252 L 12.418753 49.143929 L 9.418853 60.002008 L 0.0573891 60.000945 L 11.996459 21.007647 C 12.164226 20.282875 12.541665 19.702004 13.138532 19.261378 C 13.735399 18.820751 14.416349 18.604469 15.177726 18.602776 L 23.815608 18.602491 C 25.534649 18.603408 26.59763 19.406427 26.996016 21.003622 L 38.936998 60.001797 L 29.636494 60.000135 Z M 24.65204 42.055981 L 21.18269 29.400896 C 20.703302 27.394652 20.423122 26.098005 20.345201 25.504251 L 18.720036 25.501522 C 18.642547 25.903228 18.49796 26.541442 18.294809 27.424091 C 18.101412 28.303084 17.942801 28.963241 17.82873 29.400906 L 14.339617 42.055358 Z M 24.65204 42.055981 " stroke="#fff7b3" stroke-width="0.9" stroke-opacity="1" stroke-miterlimit="4"/><path stroke-linecap="butt" transform="matrix(0.598336, 0.452211, -0.452211, 0.598336, 260.461336, 78.155035)" fill="none" stroke-linejoin="miter" d="M 4.204251 60.001098 L 4.202555 18.604987 C 9.875211 18.241346 15.236041 18.061148 20.27461 18.059224 C 26.874654 18.058831 31.463625 19.578368 34.041524 22.617835 C 36.630874 25.655177 37.924329 31.219193 37.922903 39.302587 C 37.922493 47.378686 36.628419 52.939749 34.040682 55.985776 C 31.46541 59.022382 26.874104 60.540374 20.274061 60.540768 C 15.235492 60.542692 9.876456 60.362464 4.204251 60.001098 Z M 13.313604 25.252666 L 13.315965 53.277849 C 14.000339 53.276366 15.106643 53.288951 16.640047 53.305168 C 18.183887 53.326555 19.391216 53.334601 20.272472 53.334474 C 23.358944 53.332461 25.468905 52.358003 26.603369 50.403804 C 27.746143 48.443324 28.316862 44.741193 28.314512 39.304706 C 28.313176 33.860923 27.74324 30.152584 26.602577 28.168237 C 25.46921 26.184905 23.357213 25.195816 20.274896 25.194689 Z M 13.313604 25.252666 " stroke="#fff7b3" stroke-width="0.9" stroke-opacity="1" stroke-miterlimit="4"/><g fill="#000000" fill-opacity="1"><g transform="translate(111.222123, 140.355799)"><g/></g></g><g fill="#000000" fill-opacity="1"><g transform="translate(117.084333, 132.51338)"><g><path d="M 4.234375 -18.28125 L -2.046875 -16.140625 C -4.367188 -15.367188 -6.367188 -15.242188 -8.046875 -15.765625 C -9.722656 -16.296875 -11.285156 -17.476562 -12.734375 -19.3125 C -14.847656 -22 -15.601562 -24.3125 -15 -26.25 C -14.40625 -28.1875 -12.457031 -30.457031 -9.15625 -33.0625 C -6.050781 -35.5 -3.128906 -37.273438 -0.390625 -38.390625 L 2.171875 -34.453125 C 0.0546875 -32.910156 -2.519531 -30.941406 -5.5625 -28.546875 C -6.976562 -27.429688 -7.820312 -26.566406 -8.09375 -25.953125 C -8.375 -25.335938 -8.125 -24.53125 -7.34375 -23.53125 C -6.707031 -22.726562 -6.070312 -22.289062 -5.4375 -22.21875 C -4.8125 -22.144531 -3.878906 -22.332031 -2.640625 -22.78125 L 3.265625 -24.8125 C 5.660156 -25.644531 7.695312 -25.796875 9.375 -25.265625 C 11.0625 -24.734375 12.628906 -23.550781 14.078125 -21.71875 C 16.222656 -18.988281 17.019531 -16.613281 16.46875 -14.59375 C 15.914062 -12.570312 13.941406 -10.222656 10.546875 -7.546875 C 7.785156 -5.378906 4.753906 -3.488281 1.453125 -1.875 L -1.296875 -6.015625 C 3.816406 -9.847656 6.550781 -11.898438 6.90625 -12.171875 C 8.34375 -13.304688 9.179688 -14.21875 9.421875 -14.90625 C 9.660156 -15.59375 9.40625 -16.421875 8.65625 -17.390625 C 8 -18.210938 7.375 -18.664062 6.78125 -18.75 C 6.1875 -18.84375 5.335938 -18.6875 4.234375 -18.28125 Z M 4.234375 -18.28125 "/></g></g></g><g fill="#000000" fill-opacity="1"><g transform="translate(136.289569, 116.8974)"><g><path d="M 15.296875 -15.234375 L 5.453125 -11.09375 L 6.515625 -2.734375 L 0.046875 -0.015625 L -3.015625 -30.453125 C -3.109375 -30.992188 -3.007812 -31.503906 -2.71875 -31.984375 C -2.425781 -32.460938 -2.019531 -32.8125 -1.5 -33.03125 L 4.46875 -35.53125 C 5.65625 -36.03125 6.617188 -35.785156 7.359375 -34.796875 L 26.9375 -11.296875 L 20.5 -8.59375 Z M 11.859375 -19.5625 L 5.78125 -27.3125 C 4.863281 -28.5625 4.289062 -29.375 4.0625 -29.75 L 2.953125 -29.296875 C 3.015625 -28.984375 3.101562 -28.492188 3.21875 -27.828125 C 3.332031 -27.160156 3.40625 -26.664062 3.4375 -26.34375 L 4.703125 -16.5625 Z M 11.859375 -19.5625 "/></g></g></g><g fill="#000000" fill-opacity="1"><g transform="translate(162.077917, 106.268432)"><g><path d="M 5.5625 -32.109375 L 8.734375 -9.15625 C 8.847656 -8.351562 9.113281 -7.800781 9.53125 -7.5 C 9.945312 -7.195312 10.585938 -7.101562 11.453125 -7.21875 L 22.015625 -8.6875 L 23.046875 -3.546875 C 20.085938 -2.804688 15.769531 -2.039062 10.09375 -1.25 C 7.707031 -0.925781 5.851562 -1.28125 4.53125 -2.3125 C 3.21875 -3.34375 2.421875 -4.851562 2.140625 -6.84375 L -1.21875 -31.171875 Z M 5.5625 -32.109375 "/></g></g></g><g fill="#000000" fill-opacity="1"><g transform="translate(184.845119, 103.006559)"><g><path d="M 12.921875 -29.90625 L 10.640625 -6.859375 C 10.554688 -6.046875 10.679688 -5.441406 11.015625 -5.046875 C 11.359375 -4.648438 11.957031 -4.410156 12.8125 -4.328125 L 23.4375 -3.265625 L 23.234375 1.9375 C 20.179688 1.976562 15.804688 1.710938 10.109375 1.140625 C 7.710938 0.910156 5.992188 0.140625 4.953125 -1.171875 C 3.910156 -2.492188 3.488281 -4.15625 3.6875 -6.15625 L 6.109375 -30.59375 Z M 12.921875 -29.90625 "/></g></g></g><g fill="#000000" fill-opacity="1"><g transform="translate(207.456038, 104.738137)"><g><path d="M 21.578125 -0.609375 L 11.578125 -4.359375 L 6.609375 2.484375 L 0.046875 0.015625 L 18.6875 -24.234375 C 19 -24.703125 19.421875 -25.007812 19.953125 -25.15625 C 20.484375 -25.300781 21.019531 -25.273438 21.5625 -25.078125 L 27.609375 -22.8125 C 28.816406 -22.351562 29.359375 -21.507812 29.234375 -20.28125 L 27.34375 10.25 L 20.8125 7.796875 Z M 22.046875 -6.09375 L 22.9375 -15.921875 C 23.125 -17.441406 23.265625 -18.425781 23.359375 -18.875 L 22.234375 -19.296875 C 22.066406 -19.046875 21.796875 -18.632812 21.421875 -18.0625 C 21.046875 -17.5 20.765625 -17.082031 20.578125 -16.8125 L 14.78125 -8.828125 Z M 22.046875 -6.09375 "/></g></g></g><g fill="#000000" fill-opacity="1"><g transform="translate(233.328694, 114.055167)"><g><path d="M 2.515625 1.90625 L 21.234375 -22.859375 C 24.796875 -20.515625 28.082031 -18.203125 31.09375 -15.921875 C 35.050781 -12.929688 37.113281 -9.941406 37.28125 -6.953125 C 37.445312 -3.972656 35.703125 -0.0703125 32.046875 4.75 C 28.390625 9.582031 25.101562 12.328125 22.1875 12.984375 C 19.269531 13.648438 15.832031 12.488281 11.875 9.5 C 8.863281 7.21875 5.742188 4.6875 2.515625 1.90625 Z M 23.6875 -14.78125 L 11.015625 1.984375 C 11.421875 2.296875 12.078125 2.804688 12.984375 3.515625 C 13.898438 4.234375 14.617188 4.789062 15.140625 5.1875 C 16.984375 6.582031 18.6875 6.945312 20.25 6.28125 C 21.820312 5.625 23.835938 3.664062 26.296875 0.40625 C 28.753906 -2.84375 30.085938 -5.3125 30.296875 -7 C 30.515625 -8.695312 29.703125 -10.242188 27.859375 -11.640625 Z M 23.6875 -14.78125 "/></g></g></g><g fill="#000000" fill-opacity="1"><g transform="translate(256.726201, 133.007558)"><g/></g></g></svg>