<svg xmlns="http://www.w3.org/2000/svg" xmlns:xlink="http://www.w3.org/1999/xlink" width="500" zoomAndPan="magnify" viewBox="0 0 375 374.999991" height="500" preserveAspectRatio="xMidYMid meet" version="1.0"><defs><g/><clipPath id="90d1ccc8c2"><path d="M 45.238281 45.238281 L 329.761719 45.238281 L 329.761719 329.761719 L 45.238281 329.761719 Z M 45.238281 45.238281 " clip-rule="nonzero"/></clipPath><clipPath id="cf03018e6a"><path d="M 187.5 45.238281 C 108.929688 45.238281 45.238281 108.929688 45.238281 187.5 C 45.238281 266.070312 108.929688 329.761719 187.5 329.761719 C 266.070312 329.761719 329.761719 266.070312 329.761719 187.5 C 329.761719 108.929688 266.070312 45.238281 187.5 45.238281 Z M 187.5 45.238281 " clip-rule="nonzero"/></clipPath><clipPath id="3e9096a894"><path d="M 131.5 177.730469 L 243 177.730469 L 243 279.730469 L 131.5 279.730469 Z M 131.5 177.730469 " clip-rule="nonzero"/></clipPath></defs><g clip-path="url(#90d1ccc8c2)"><g clip-path="url(#cf03018e6a)"><path fill="#cfff00" d="M 45.238281 45.238281 L 329.761719 45.238281 L 329.761719 329.761719 L 45.238281 329.761719 Z M 45.238281 45.238281 " fill-opacity="1" fill-rule="nonzero"/></g></g><g clip-path="url(#3e9096a894)"><path fill="#000000" d="M 158.78125 177.800781 C 158.035156 177.789062 157.28125 177.949219 156.5625 178.328125 L 136.667969 188.601562 C 133.824219 190.074219 133.203125 194.039062 135.457031 196.304688 L 152.316406 213.261719 C 150.644531 215 149.445312 217.21875 149.011719 219.710938 C 143.472656 220.675781 139.121094 225.234375 138.933594 231.003906 L 138.933594 231.023438 C 138.933594 231.203125 138.933594 231.277344 138.933594 231.390625 L 136.574219 231.390625 C 133.890625 231.390625 131.609375 233.636719 131.738281 236.386719 C 132.324219 248.488281 136.921875 257.980469 141.554688 264.625 C 143.878906 267.941406 146.207031 270.554688 148.078125 272.453125 C 149.945312 274.359375 151.503906 275.710938 151.65625 275.871094 L 151.664062 275.871094 C 154.609375 278.789062 159.035156 279.382812 164.820312 279.601562 C 170.605469 279.816406 178.007812 279.496094 187.253906 279.496094 C 196.484375 279.496094 203.714844 279.863281 209.425781 279.683594 C 215.136719 279.496094 219.582031 278.816406 222.753906 275.957031 C 223.507812 275.285156 228.433594 271.253906 233.039062 264.617188 C 237.65625 257.96875 242.195312 248.480469 242.761719 236.386719 C 242.902344 233.636719 240.621094 231.390625 237.929688 231.390625 L 235.324219 231.390625 C 235.285156 231.125 235.277344 230.9375 235.222656 230.644531 C 234.9375 229.285156 234.265625 227.671875 233.097656 226.246094 C 232.957031 222.035156 230.078125 218.617188 226.199219 217.484375 L 233.957031 211.148438 C 236.210938 209.296875 236.023438 205.613281 233.578125 204.011719 L 217.996094 193.785156 C 217.382812 193.386719 216.710938 193.171875 216.03125 193.105469 C 215.351562 193.039062 214.664062 193.144531 214.03125 193.378906 C 212.765625 193.851562 211.699219 194.878906 211.304688 196.285156 L 206.800781 212.28125 C 206.453125 212.546875 206.09375 212.808594 205.78125 213.113281 C 204.5 212.621094 203.234375 212.054688 201.753906 212.054688 C 201.335938 212.054688 201.015625 212.175781 200.621094 212.222656 C 198.78125 207.910156 194.636719 204.804688 189.671875 204.804688 C 186.933594 204.804688 184.480469 205.777344 182.5 207.332031 L 182.5 186.730469 C 182.546875 183.53125 179.335938 181.113281 176.269531 182.03125 L 164.21875 185.65625 L 163.546875 181.792969 C 163.140625 179.433594 161.015625 177.828125 158.78125 177.800781 Z M 158.789062 182.617188 L 159.914062 189.167969 L 163.167969 207.984375 L 163.546875 210.15625 C 162.632812 209.875 161.6875 209.636719 160.675781 209.636719 C 159.148438 209.636719 157.695312 209.941406 156.363281 210.476562 L 138.886719 192.90625 Z M 177.667969 186.65625 L 177.667969 212.140625 C 176.648438 212.273438 175.683594 212.554688 174.710938 212.828125 C 173.050781 211.082031 170.898438 209.796875 168.359375 209.664062 L 167.925781 207.171875 L 165.046875 190.453125 Z M 148.597656 192.71875 C 147.265625 192.71875 146.179688 193.804688 146.179688 195.136719 C 146.179688 196.464844 147.265625 197.550781 148.597656 197.550781 C 149.925781 197.550781 151.011719 196.464844 151.011719 195.136719 C 151.011719 193.804688 149.925781 192.71875 148.597656 192.71875 Z M 155.84375 192.71875 C 154.515625 192.71875 153.429688 193.804688 153.429688 195.136719 C 153.429688 196.464844 154.515625 197.550781 155.84375 197.550781 C 157.175781 197.550781 158.261719 196.464844 158.261719 195.136719 C 158.261719 193.804688 157.175781 192.71875 155.84375 192.71875 Z M 215.804688 198.128906 L 230.472656 207.75 L 222.855469 213.953125 C 220.695312 211.335938 217.496094 209.636719 213.832031 209.636719 C 213.390625 209.636719 212.964844 209.664062 212.539062 209.722656 Z M 189.671875 209.636719 C 193.183594 209.636719 196.070312 212.101562 196.761719 215.378906 L 197.296875 217.910156 L 199.789062 217.199219 C 200.488281 217 201.128906 216.886719 201.753906 216.886719 C 202.980469 216.886719 204.121094 217.21875 205.1875 217.804688 L 206.960938 218.765625 L 208.21875 217.199219 C 209.566406 215.539062 211.550781 214.472656 213.832031 214.472656 C 217.242188 214.472656 220.023438 216.792969 220.828125 219.9375 L 221.308594 221.835938 L 223.273438 221.761719 C 223.734375 221.730469 223.800781 221.722656 223.5 221.722656 C 226.199219 221.722656 228.332031 223.855469 228.332031 226.558594 C 228.332031 226.332031 228.320312 226.40625 228.292969 226.820312 L 228.207031 228.078125 L 229.191406 228.859375 C 229.632812 229.230469 230.132812 230.285156 230.40625 231.390625 L 192.089844 231.390625 C 192.089844 230.058594 191.003906 228.972656 189.671875 228.972656 C 188.339844 228.972656 187.253906 230.058594 187.253906 231.390625 L 143.765625 231.390625 C 143.773438 231.269531 143.773438 231.070312 143.765625 231.15625 C 143.898438 227.238281 147.058594 224.140625 151.011719 224.140625 L 153.429688 224.140625 L 153.429688 221.722656 C 153.429688 217.691406 156.648438 214.472656 160.675781 214.472656 C 161.714844 214.472656 162.699219 214.699219 163.613281 215.113281 L 164.679688 215.574219 L 165.707031 215.039062 C 166.425781 214.667969 167.152344 214.472656 167.925781 214.472656 C 169.644531 214.472656 171.105469 215.347656 171.976562 216.691406 L 173.050781 218.34375 L 174.871094 217.632812 C 176.109375 217.152344 177.421875 216.886719 178.800781 216.886719 C 179.203125 216.886719 179.609375 216.917969 180.046875 216.964844 L 182.148438 217.21875 L 182.660156 215.152344 C 183.453125 211.980469 186.253906 209.636719 189.671875 209.636719 Z M 163.09375 219.304688 C 161.761719 219.304688 160.675781 220.390625 160.675781 221.722656 C 160.675781 223.054688 161.761719 224.140625 163.09375 224.140625 C 164.425781 224.140625 165.511719 223.054688 165.511719 221.722656 C 165.511719 220.390625 164.425781 219.304688 163.09375 219.304688 Z M 170.34375 224.140625 C 169.011719 224.140625 167.925781 225.226562 167.925781 226.558594 C 167.925781 227.886719 169.011719 228.972656 170.34375 228.972656 C 171.671875 228.972656 172.757812 227.886719 172.757812 226.558594 C 172.757812 225.226562 171.671875 224.140625 170.34375 224.140625 Z M 206.585938 224.140625 C 205.253906 224.140625 204.167969 225.226562 204.167969 226.558594 C 204.167969 227.886719 205.253906 228.972656 206.585938 228.972656 C 207.914062 228.972656 209 227.886719 209 226.558594 C 209 225.226562 207.914062 224.140625 206.585938 224.140625 Z M 136.582031 236.226562 L 140.941406 236.226562 C 141.207031 236.273438 141.472656 236.273438 141.726562 236.226562 L 232.757812 236.226562 C 233.023438 236.273438 233.285156 236.273438 233.539062 236.226562 L 237.929688 236.226562 C 237.710938 240.652344 236.902344 244.664062 235.75 248.308594 L 138.78125 248.308594 C 137.621094 244.664062 136.800781 240.652344 136.582031 236.226562 Z M 140.621094 253.144531 L 233.925781 253.144531 C 232.484375 256.449219 230.792969 259.375 229.078125 261.859375 C 224.839844 267.949219 220.722656 271.292969 219.535156 272.339844 L 219.535156 272.347656 L 219.523438 272.359375 C 217.816406 273.898438 214.625 274.679688 209.265625 274.851562 C 203.90625 275.019531 196.617188 274.660156 187.253906 274.660156 C 177.894531 274.660156 170.457031 274.964844 165 274.765625 C 159.546875 274.566406 156.335938 273.699219 155.070312 272.441406 C 154.371094 271.746094 153.242188 270.820312 151.523438 269.074219 C 149.804688 267.316406 147.652344 264.898438 145.519531 261.851562 C 143.785156 259.367188 142.085938 256.449219 140.621094 253.144531 Z M 140.621094 253.144531 " fill-opacity="1" fill-rule="nonzero"/></g><path stroke-linecap="butt" transform="matrix(0.527289, -0.533354, 0.533354, 0.527289, 69.224054, 113.713176)" fill="none" stroke-linejoin="miter" d="M 19.494973 44.339788 L 11.162668 41.393688 C 8.075361 40.285891 5.874323 38.763312 4.555768 36.844342 C 3.237254 34.918006 2.577689 32.398808 2.580776 29.283085 C 2.577387 24.723625 3.684974 21.673146 5.903492 20.139012 C 8.129418 18.597554 12.041384 17.828101 17.635728 17.826948 C 22.917014 17.827688 27.46233 18.365606 31.260647 19.436957 L 30.657778 25.679721 C 27.181774 25.564087 22.858391 25.502533 17.694955 25.502467 C 15.301058 25.503509 13.705169 25.711674 12.907243 26.134328 C 12.105656 26.553278 11.705595 27.600619 11.703357 29.280012 C 11.706634 30.639024 12.00302 31.620373 12.596178 32.227762 C 13.204151 32.820504 14.346233 33.397886 16.026129 33.956247 L 23.877315 36.667572 C 27.078768 37.779704 29.342392 39.306325 30.657117 41.251053 C 31.975547 43.19212 32.638731 45.722388 32.635645 48.838111 C 32.634908 53.474888 31.515705 56.62474 29.267008 58.28392 C 27.029339 59.946846 23.036014 60.774761 17.286993 60.775029 C 12.598657 60.773998 7.858006 60.260743 3.061422 59.224195 L 3.603769 52.616476 C 12.121151 52.823551 16.680021 52.923281 17.283998 52.926735 C 19.725792 52.922284 21.355101 52.666433 22.160939 52.148068 C 22.981551 51.622422 23.392892 50.534634 23.391216 48.89573 C 23.395515 47.499933 23.117564 46.515007 22.561066 45.93729 C 22.004609 45.352209 20.980123 44.819694 19.494973 44.339788 Z M 19.494973 44.339788 " stroke="#fff7b3" stroke-width="0.9" stroke-opacity="1" stroke-miterlimit="4"/><path stroke-linecap="butt" transform="matrix(0.640412, -0.390349, 0.390349, 0.640412, 95.276578, 88.807377)" fill="none" stroke-linejoin="miter" d="M 24.565249 15.219099 C 23.188356 16.557397 21.516883 17.228174 19.553542 17.226981 C 17.601806 17.226763 15.930762 16.555891 14.544856 15.217075 C 13.168819 13.872076 12.480803 12.238892 12.479835 10.329131 C 12.482552 8.403317 13.17816 6.771747 14.573817 5.432687 C 15.979342 4.087442 17.64192 3.411244 19.556129 3.412987 C 21.477496 3.412993 23.141382 4.085602 24.533472 5.434287 C 25.942588 6.775051 26.64492 8.404761 26.644914 10.326128 C 26.643171 12.240337 25.95201 13.874617 24.565249 15.219099 Z M 21.682184 8.130748 C 21.102044 7.551451 20.396574 7.267837 19.555142 7.267326 C 18.71371 7.266815 18.002477 7.553051 17.418734 8.130479 C 16.842148 8.706172 16.553875 9.4393 16.553914 10.329864 C 16.552005 11.243639 16.84074 11.980793 17.41567 12.538615 C 18.002205 13.097412 18.717544 13.374842 19.554529 13.372642 C 20.395961 13.373153 21.101772 13.095812 21.67912 12.538884 C 22.268073 11.982929 22.559057 11.245353 22.556519 10.328868 C 22.556479 9.438303 22.265034 8.705597 21.682184 8.130748 Z M 26.644744 49.143815 L 12.418928 49.146394 L 9.420513 59.999822 L 0.0566281 60.001486 L 11.997118 21.008063 C 12.162942 20.285693 12.543973 19.700597 13.139237 19.264381 C 13.737212 18.823718 14.414941 18.602455 15.176872 18.603305 L 23.820799 18.601978 C 25.538479 18.605923 26.595879 19.402927 26.996471 21.007308 L 38.935052 60.00208 L 29.634616 59.999719 Z M 24.652243 42.055424 L 21.180075 29.398948 C 20.702737 27.400112 20.424212 26.095819 20.345264 25.504834 L 18.71869 25.501525 C 18.645329 25.90208 18.500641 26.53974 18.297968 27.422637 C 18.098005 28.301087 17.946922 28.959246 17.825953 29.397878 L 14.344215 42.054966 Z M 24.652243 42.055424 " stroke="#fff7b3" stroke-width="0.9" stroke-opacity="1" stroke-miterlimit="4"/><path stroke-linecap="butt" transform="matrix(0.715683, -0.224272, 0.224272, 0.715683, 129.335871, 69.671393)" fill="none" stroke-linejoin="miter" d="M 19.498134 44.33911 L 11.163983 41.394513 C 8.073364 40.284102 5.874786 38.765511 4.556751 36.840595 C 3.238716 34.915678 2.575489 32.399079 2.580127 29.283972 C 2.580005 24.720985 3.687896 21.673241 5.9038 20.14074 C 8.127789 18.599856 12.042638 17.828989 17.638406 17.825023 C 22.921292 17.826714 27.462725 18.365645 31.257737 19.440261 L 30.66216 25.677778 C 27.184241 25.559448 22.862403 25.504144 17.69479 25.50037 C 15.302994 25.504072 13.70395 25.712532 12.906042 26.133837 C 12.103164 26.553583 11.703703 27.601891 11.706102 29.283729 C 11.70099 30.641188 12.000356 31.619208 12.596116 32.226171 C 13.201518 32.819782 14.346935 33.397042 16.027397 33.956393 L 23.877967 36.667581 C 27.077332 37.779321 29.338665 39.306661 30.661968 41.249603 C 31.978743 43.195956 32.638854 45.722495 32.634217 48.837602 C 32.637385 53.477957 31.514812 56.624804 29.269912 58.284671 C 27.029982 59.946094 23.037101 60.77438 17.283186 60.77791 C 12.594985 60.777 7.856239 60.258108 3.06042 59.224647 L 3.60316 52.615797 C 12.11844 52.822621 16.681657 52.926275 17.282869 52.923643 C 19.727481 52.925575 21.353596 52.665559 22.164628 52.150122 C 22.985303 51.621333 23.395666 50.538235 23.392305 48.894301 C 23.393409 47.497381 23.117038 46.515651 22.556366 45.936057 C 22.002222 45.35305 20.979498 44.819696 19.498134 44.33911 Z M 19.498134 44.33911 " stroke="#fff7b3" stroke-width="0.9" stroke-opacity="1" stroke-miterlimit="4"/><path stroke-linecap="butt" transform="matrix(0.743461, -0.0988231, 0.0988231, 0.743461, 162.144939, 60.778501)" fill="none" stroke-linejoin="miter" d="M 6.241878 50.947412 L 8.333093 50.946914 C 9.499164 50.949541 10.300494 51.166393 10.735711 51.607796 C 11.176777 52.044722 11.396683 52.841058 11.396114 53.99164 L 11.398357 57.84848 C 11.398246 61.841614 10.376139 65.499245 8.332724 68.816208 L 4.674703 67.678459 C 5.240267 65.320967 5.522493 62.762934 5.522068 59.999197 C 3.919239 60.001564 3.08011 59.080887 3.003308 57.24749 L 3.062915 53.99259 C 3.100311 52.841649 3.348141 52.044436 3.810882 51.606802 C 4.268459 51.168481 5.08097 50.945471 6.241878 50.947412 Z M 6.241878 50.947412 " stroke="#fff7b3" stroke-width="0.9" stroke-opacity="1" stroke-miterlimit="4"/><path stroke-linecap="butt" transform="matrix(0.740547, 0.118698, -0.118698, 0.740547, 197.077345, 58.232809)" fill="none" stroke-linejoin="miter" d="M 4.205999 59.998865 L 4.206436 18.602056 C 9.877126 18.241712 15.234148 18.063514 20.271536 18.063144 C 26.875045 18.059664 31.465422 19.581517 34.041017 22.618417 C 36.63204 25.652843 37.924663 31.216302 37.923206 39.302825 C 37.925242 47.378238 36.632827 52.939328 34.040819 55.98692 C 31.462589 59.021753 26.874704 60.543069 20.275513 60.540581 C 15.232983 60.541775 9.876478 60.361203 4.205999 59.998865 Z M 13.316807 25.254466 L 13.31389 53.274744 C 13.99975 53.275582 15.10939 53.287617 16.641985 53.305706 C 18.18569 53.327289 19.39469 53.333948 20.275775 53.335143 C 23.361734 53.336344 25.468209 52.360455 26.600343 50.406654 C 27.746257 48.440095 28.313831 44.741148 28.31767 39.3022 C 28.316366 33.864076 27.742619 30.152898 26.601574 28.167842 C 25.466496 26.187104 23.36112 25.195311 20.275162 25.194111 Z M 13.316807 25.254466 " stroke="#fff7b3" stroke-width="0.9" stroke-opacity="1" stroke-miterlimit="4"/><path stroke-linecap="butt" transform="matrix(0.702834, 0.261772, -0.261772, 0.702834, 235.37618, 66.0965)" fill="none" stroke-linejoin="miter" d="M 4.204488 18.605138 L 13.313 18.602949 L 13.31492 60.002709 L 4.20459 60.000017 Z M 4.204488 18.605138 " stroke="#fff7b3" stroke-width="0.9" stroke-opacity="1" stroke-miterlimit="4"/><path stroke-linecap="butt" transform="matrix(0.642343, 0.387164, -0.387164, 0.642343, 255.42239, 73.667251)" fill="none" stroke-linejoin="miter" d="M 4.206109 59.999484 L 4.206866 18.603926 C 7.923736 18.242738 13.166597 18.062488 19.921149 18.059629 C 25.722636 18.05958 29.692237 19.005564 31.831723 20.890432 C 33.970293 22.763689 35.038595 26.321931 35.039318 31.569619 C 35.036435 36.801236 34.02623 40.371695 32.006014 42.276535 C 29.984881 44.169766 26.358507 45.11494 21.122429 45.114746 C 18.477596 45.115596 15.876209 44.956471 13.315579 44.632912 L 13.316098 59.999931 Z M 13.314065 38.102557 L 19.746162 38.099454 C 22.100622 38.060779 23.704828 37.60469 24.565013 36.721349 C 25.423427 35.845158 25.853186 34.126625 25.854291 31.56575 C 25.852707 29.000415 25.426744 27.27467 24.563018 26.396581 C 23.706442 25.520264 22.101321 25.076878 19.748572 25.078035 L 13.313908 25.137416 Z M 13.314065 38.102557 " stroke="#fff7b3" stroke-width="0.9" stroke-opacity="1" stroke-miterlimit="4"/><path stroke-linecap="butt" transform="matrix(0.530307, 0.530353, -0.530353, 0.530307, 286.858315, 94.01097)" fill="none" stroke-linejoin="miter" d="M 4.202706 60.000493 L 4.204627 18.601595 C 7.924288 18.240517 13.164974 18.059835 19.923 18.06323 C 25.723486 18.0593 29.693637 19.00194 31.829769 20.887468 C 33.969584 22.761946 35.041444 26.323215 35.041667 31.567591 C 35.038207 36.800919 34.029259 40.373324 32.007456 42.277443 C 29.985653 44.16683 26.354405 45.11716 21.12476 45.117382 C 18.476792 45.113812 15.873012 44.955561 13.313419 44.635262 L 13.314073 60.000105 Z M 13.313141 38.101889 L 19.747076 38.097932 C 22.096732 38.061004 23.706117 37.600579 24.567866 36.724025 C 25.425933 35.843787 25.85307 34.127562 25.856644 31.567982 C 25.852852 29.001037 25.425568 27.277482 24.567427 26.397318 C 23.709286 25.517154 22.099862 25.078963 19.746522 25.075381 L 13.316272 25.13458 Z M 13.313141 38.101889 " stroke="#fff7b3" stroke-width="0.9" stroke-opacity="1" stroke-miterlimit="4"/><g fill="#000000" fill-opacity="1"><g transform="translate(95.987211, 153.958918)"><g/></g></g><g fill="#000000" fill-opacity="1"><g transform="translate(101.225308, 145.350489)"><g><path d="M 1.921875 -18.671875 L -4.03125 -15.765625 C -6.25 -14.703125 -8.21875 -14.328125 -9.9375 -14.640625 C -11.664062 -14.953125 -13.363281 -15.929688 -15.03125 -17.578125 C -17.457031 -19.984375 -18.492188 -22.1875 -18.140625 -24.1875 C -17.796875 -26.1875 -16.148438 -28.675781 -13.203125 -31.65625 C -10.410156 -34.476562 -7.726562 -36.613281 -5.15625 -38.0625 L -2.125 -34.453125 C -4.039062 -32.648438 -6.351562 -30.375 -9.0625 -27.625 C -10.332031 -26.34375 -11.066406 -25.378906 -11.265625 -24.734375 C -11.460938 -24.097656 -11.113281 -23.335938 -10.21875 -22.453125 C -9.488281 -21.734375 -8.800781 -21.375 -8.15625 -21.375 C -7.519531 -21.375 -6.613281 -21.675781 -5.4375 -22.28125 L 0.15625 -25.03125 C 2.425781 -26.15625 4.429688 -26.554688 6.171875 -26.234375 C 7.910156 -25.910156 9.609375 -24.929688 11.265625 -23.296875 C 13.734375 -20.847656 14.816406 -18.585938 14.515625 -16.515625 C 14.222656 -14.453125 12.554688 -11.882812 9.515625 -8.8125 C 7.046875 -6.3125 4.273438 -4.054688 1.203125 -2.046875 L -2.03125 -5.8125 C 2.5625 -10.25 5.015625 -12.628906 5.328125 -12.953125 C 6.617188 -14.253906 7.34375 -15.257812 7.5 -15.96875 C 7.65625 -16.6875 7.296875 -17.476562 6.421875 -18.34375 C 5.671875 -19.082031 4.992188 -19.453125 4.390625 -19.453125 C 3.785156 -19.460938 2.960938 -19.203125 1.921875 -18.671875 Z M 1.921875 -18.671875 "/></g></g></g><g fill="#000000" fill-opacity="1"><g transform="translate(118.69753, 127.232091)"><g><path d="M -1.75 -38.265625 C -2.113281 -36.867188 -2.921875 -35.785156 -4.171875 -35.015625 C -5.429688 -34.253906 -6.765625 -34.035156 -8.171875 -34.359375 C -9.578125 -34.679688 -10.65625 -35.457031 -11.40625 -36.6875 C -12.15625 -37.914062 -12.34375 -39.234375 -11.96875 -40.640625 C -11.59375 -42.046875 -10.789062 -43.125 -9.5625 -43.875 C -8.332031 -44.625 -7.003906 -44.84375 -5.578125 -44.53125 C -4.160156 -44.21875 -3.078125 -43.445312 -2.328125 -42.21875 C -1.578125 -40.988281 -1.382812 -39.671875 -1.75 -38.265625 Z M -6.359375 -41.6875 C -6.960938 -41.832031 -7.53125 -41.738281 -8.0625 -41.40625 C -8.601562 -41.082031 -8.941406 -40.617188 -9.078125 -40.015625 C -9.222656 -39.421875 -9.125 -38.847656 -8.78125 -38.296875 C -8.414062 -37.691406 -7.941406 -37.320312 -7.359375 -37.1875 C -6.773438 -37.0625 -6.210938 -37.160156 -5.671875 -37.484375 C -5.140625 -37.816406 -4.789062 -38.273438 -4.625 -38.859375 C -4.46875 -39.441406 -4.570312 -40.035156 -4.9375 -40.640625 C -5.28125 -41.191406 -5.753906 -41.539062 -6.359375 -41.6875 Z M 12.828125 -17.359375 L 3.71875 -11.796875 L 6.03125 -3.671875 L 0.046875 -0.03125 L -7.53125 -29.65625 C -7.707031 -30.1875 -7.6875 -30.707031 -7.46875 -31.21875 C -7.257812 -31.738281 -6.914062 -32.144531 -6.4375 -32.4375 L -0.90625 -35.8125 C 0.195312 -36.476562 1.191406 -36.378906 2.078125 -35.515625 L 24.9375 -15.203125 L 18.984375 -11.578125 Z M 8.796875 -21.109375 L 1.609375 -27.859375 C 0.523438 -28.953125 -0.160156 -29.675781 -0.453125 -30.03125 L -1.46875 -29.40625 C -1.363281 -29.113281 -1.203125 -28.644531 -0.984375 -28 C -0.773438 -27.363281 -0.628906 -26.878906 -0.546875 -26.546875 L 2.171875 -17.078125 Z M 8.796875 -21.109375 "/></g></g></g><g fill="#000000" fill-opacity="1"><g transform="translate(142.792194, 112.612367)"><g><path d="M 10.4375 -15.59375 L 3.8125 -15.8125 C 1.363281 -15.914062 -0.546875 -16.507812 -1.921875 -17.59375 C -3.304688 -18.675781 -4.347656 -20.335938 -5.046875 -22.578125 C -6.066406 -25.828125 -5.953125 -28.253906 -4.703125 -29.859375 C -3.460938 -31.460938 -0.84375 -32.890625 3.15625 -34.140625 C 6.9375 -35.328125 10.304688 -35.960938 13.265625 -36.046875 L 14.265625 -31.4375 C 11.734375 -30.738281 8.625 -29.8125 4.9375 -28.65625 C 3.21875 -28.113281 2.117188 -27.601562 1.640625 -27.125 C 1.160156 -26.65625 1.109375 -25.820312 1.484375 -24.625 C 1.785156 -23.644531 2.21875 -23.003906 2.78125 -22.703125 C 3.34375 -22.410156 4.289062 -22.253906 5.625 -22.234375 L 11.859375 -22.0625 C 14.398438 -21.976562 16.359375 -21.390625 17.734375 -20.296875 C 19.117188 -19.203125 20.160156 -17.539062 20.859375 -15.3125 C 21.898438 -12 21.800781 -9.492188 20.5625 -7.796875 C 19.332031 -6.109375 16.65625 -4.617188 12.53125 -3.328125 C 9.175781 -2.273438 5.671875 -1.578125 2.015625 -1.234375 L 0.921875 -6.09375 C 7.054688 -7.851562 10.335938 -8.800781 10.765625 -8.9375 C 12.515625 -9.488281 13.625 -10.039062 14.09375 -10.59375 C 14.570312 -11.15625 14.628906 -12.023438 14.265625 -13.203125 C 13.941406 -14.203125 13.515625 -14.84375 12.984375 -15.125 C 12.460938 -15.414062 11.613281 -15.570312 10.4375 -15.59375 Z M 10.4375 -15.59375 "/></g></g></g><g fill="#000000" fill-opacity="1"><g transform="translate(168.074326, 105.386148)"><g><path d="M 3.75 -7.359375 L 5.3125 -7.5625 C 6.175781 -7.675781 6.789062 -7.59375 7.15625 -7.3125 C 7.519531 -7.03125 7.757812 -6.453125 7.875 -5.578125 L 8.25 -2.734375 C 8.644531 0.234375 8.253906 3.050781 7.078125 5.71875 L 4.25 5.25 C 4.425781 3.4375 4.378906 1.503906 4.109375 -0.546875 C 2.921875 -0.390625 2.207031 -0.988281 1.96875 -2.34375 L 1.6875 -4.75 C 1.601562 -5.632812 1.707031 -6.257812 2 -6.625 C 2.300781 -6.988281 2.882812 -7.234375 3.75 -7.359375 Z M 3.75 -7.359375 "/></g></g></g><g fill="#000000" fill-opacity="1"><g transform="translate(180.194525, 103.87499)"><g/></g></g><g fill="#000000" fill-opacity="1"><g transform="translate(189.955436, 102.665658)"><g><path d="M 3.109375 0.5 L 8.015625 -30.15625 C 12.273438 -29.75 16.269531 -29.25 20 -28.65625 C 24.894531 -27.875 28.113281 -26.203125 29.65625 -23.640625 C 31.195312 -21.078125 31.488281 -16.804688 30.53125 -10.828125 C 29.570312 -4.847656 27.957031 -0.882812 25.6875 1.0625 C 23.425781 3.007812 19.847656 3.59375 14.953125 2.8125 C 11.222656 2.21875 7.273438 1.445312 3.109375 0.5 Z M 13.984375 -24.15625 L 10.65625 -3.40625 C 11.15625 -3.320312 11.976562 -3.179688 13.125 -2.984375 C 14.269531 -2.785156 15.164062 -2.632812 15.8125 -2.53125 C 18.09375 -2.164062 19.769531 -2.640625 20.84375 -3.953125 C 21.914062 -5.265625 22.773438 -7.9375 23.421875 -11.96875 C 24.066406 -16 24.082031 -18.8125 23.46875 -20.40625 C 22.863281 -22.007812 21.421875 -22.992188 19.140625 -23.359375 Z M 13.984375 -24.15625 "/></g></g></g><g fill="#000000" fill-opacity="1"><g transform="translate(219.669876, 108.266533)"><g><path d="M 9.359375 3.484375 L 2.953125 1.109375 L 13.78125 -27.984375 L 20.1875 -25.609375 Z M 9.359375 3.484375 "/></g></g></g><g fill="#000000" fill-opacity="1"><g transform="translate(232.192568, 112.207816)"><g><path d="M 2.703125 1.625 L 18.734375 -24.96875 C 21.253906 -23.757812 24.6875 -21.847656 29.03125 -19.234375 C 32.757812 -16.984375 34.945312 -14.835938 35.59375 -12.796875 C 36.238281 -10.765625 35.546875 -8.066406 33.515625 -4.703125 C 31.492188 -1.335938 29.460938 0.5625 27.421875 1 C 25.390625 1.4375 22.691406 0.640625 19.328125 -1.390625 C 17.640625 -2.410156 16.023438 -3.515625 14.484375 -4.703125 L 8.546875 5.15625 Z M 17.03125 -8.90625 L 21.171875 -6.421875 C 22.691406 -5.535156 23.898438 -5.207031 24.796875 -5.4375 C 25.691406 -5.664062 26.632812 -6.601562 27.625 -8.25 C 28.613281 -9.894531 29 -11.164062 28.78125 -12.0625 C 28.570312 -12.957031 27.710938 -13.863281 26.203125 -14.78125 L 22.046875 -17.234375 Z M 17.03125 -8.90625 "/></g></g></g><g fill="#000000" fill-opacity="1"><g transform="translate(255.03716, 125.829417)"><g><path d="M 2.234375 2.234375 L 24.1875 -19.71875 C 26.34375 -17.9375 29.210938 -15.253906 32.796875 -11.671875 C 35.878906 -8.585938 37.488281 -5.984375 37.625 -3.859375 C 37.757812 -1.734375 36.4375 0.710938 33.65625 3.484375 C 30.882812 6.265625 28.457031 7.625 26.375 7.5625 C 24.300781 7.507812 21.875 6.09375 19.09375 3.3125 C 17.695312 1.914062 16.398438 0.453125 15.203125 -1.078125 L 7.0625 7.0625 Z M 18.671875 -4.546875 L 22.078125 -1.140625 C 23.347656 0.0859375 24.441406 0.695312 25.359375 0.6875 C 26.285156 0.675781 27.425781 -0.00390625 28.78125 -1.359375 C 30.132812 -2.710938 30.816406 -3.851562 30.828125 -4.78125 C 30.847656 -5.707031 30.234375 -6.796875 28.984375 -8.046875 L 25.546875 -11.421875 Z M 18.671875 -4.546875 "/></g></g></g><g fill="#000000" fill-opacity="1"><g transform="translate(274.072398, 145.963625)"><g/></g></g><path stroke-linecap="butt" transform="matrix(0.614187, -0.430435, 0.430435, 0.614187, 103.269711, 140.391084)" fill="none" stroke-linejoin="miter" d="M 36.834666 59.998974 L 27.168154 59.997913 L 24.048393 47.342898 C 23.659983 46.027645 23.130541 45.122358 22.466046 44.618506 C 21.801551 44.114653 20.848054 43.859824 19.614085 43.859997 L 13.19424 43.800137 L 13.194272 59.999172 L 4.201066 59.999336 L 4.205103 18.611048 C 7.925556 18.248285 13.181966 18.071548 19.976047 18.069319 C 25.53317 18.071528 29.467562 18.946264 31.784765 20.70377 C 34.106232 22.464265 35.267181 25.662897 35.267613 30.299666 C 35.264655 33.34405 34.655743 35.728448 33.439603 37.445605 C 32.227727 39.165752 30.200834 40.206595 27.361912 40.563871 L 27.357909 40.859988 C 30.509849 41.580686 32.46846 43.659287 33.233743 47.09579 Z M 13.194266 36.785035 L 19.801885 36.78569 C 22.191737 36.787861 23.828295 36.376586 24.708568 35.556133 C 25.596096 34.734403 26.038139 33.187066 26.041953 30.912846 C 26.040225 28.628382 25.612257 27.088245 24.749519 26.286459 C 23.894034 25.483396 22.241711 25.082256 19.799802 25.081763 L 13.195137 25.140419 Z M 13.194266 36.785035 " stroke="#fff7b3" stroke-width="0.899998" stroke-opacity="1" stroke-miterlimit="4"/><path stroke-linecap="butt" transform="matrix(0.715241, -0.225677, 0.225677, 0.715241, 134.997989, 119.663313)" fill="none" stroke-linejoin="miter" d="M 13.504626 6.850823 L 16.43177 6.851426 C 17.71001 6.850596 18.34981 7.505769 18.353003 8.828446 L 18.353826 12.253031 C 18.352053 13.574141 17.713613 14.230144 16.435373 14.230974 L 13.503263 14.228803 C 12.225023 14.229633 11.585222 13.57446 11.586996 12.253351 L 11.586173 8.828765 C 11.587947 7.507656 12.226386 6.851653 13.504626 6.850823 Z M 24.417502 6.847939 L 27.361114 6.848277 C 28.677257 6.848483 29.336925 7.509925 29.336718 8.826068 L 29.335974 12.25562 C 29.335767 13.571763 28.674326 14.231431 27.358183 14.231225 L 24.414571 14.230886 C 23.098428 14.23068 22.437193 13.574205 22.438966 12.253095 L 22.438143 8.82851 C 22.439917 7.5074 23.094825 6.851132 24.417502 6.847939 Z M 6.692133 22.418234 C 9.273495 19.360555 13.879236 17.831834 20.519288 17.835205 C 27.160908 17.833609 31.779669 19.361943 34.375571 22.420208 C 36.97304 25.473505 38.271193 31.104246 38.271596 39.307462 C 38.268599 47.504145 36.972369 53.135509 34.374539 56.193453 C 31.778275 59.246431 27.161034 60.776985 20.519414 60.778581 C 13.879361 60.77521 9.270534 59.25001 6.6911 56.19148 C 4.116633 53.134517 2.828415 47.506911 2.828012 39.303694 C 2.826041 31.105445 4.117305 25.472514 6.692133 22.418234 Z M 26.905386 28.146113 C 25.761816 26.179624 23.629351 25.200936 20.504591 25.203517 C 17.391332 25.204265 15.259075 26.180841 14.119588 28.147879 C 12.988202 30.106551 12.420553 33.826914 12.41821 39.304004 C 12.420834 44.78266 12.983213 48.504582 14.118415 50.46297 C 15.260152 52.417959 17.38765 53.395079 20.505877 53.395898 C 23.630637 53.393317 25.762894 52.416742 26.902646 50.466172 C 28.047101 48.500701 28.619716 44.781904 28.617092 39.303248 C 28.619436 33.826158 28.045556 30.106069 26.905386 28.146113 Z M 26.905386 28.146113 " stroke="#fff7b3" stroke-width="0.899998" stroke-opacity="1" stroke-miterlimit="4"/><path stroke-linecap="butt" transform="matrix(0.75, -0.000000000000000093, 0.000000000000000093, 0.75, 173.294626, 109.16718)" fill="none" stroke-linejoin="miter" d="M 36.836335 60.001056 L 27.169667 60.001056 L 24.049875 47.344805 C 23.65925 46.027096 23.133209 45.120846 22.466542 44.620846 C 21.805084 44.115638 20.851958 43.86043 19.612375 43.86043 L 13.195708 43.803138 L 13.195708 60.001056 L 4.200916 60.001056 L 4.200916 18.610428 C 7.924874 18.251053 13.180083 18.068761 19.976958 18.068761 C 25.53425 18.068761 29.466542 18.94897 31.784251 20.704178 C 34.107168 22.464595 35.268626 25.662512 35.268626 30.297929 C 35.268626 33.344804 34.659251 35.725012 33.435293 37.443762 C 32.226959 39.162513 30.200917 40.204179 27.357167 40.563554 L 27.357167 40.855221 C 30.513417 41.579179 32.471751 43.662513 33.232168 47.094805 Z M 13.195708 36.787512 L 19.799875 36.787512 C 22.195709 36.787512 23.831125 36.376054 24.706125 35.558346 C 25.59675 34.735429 26.039459 33.188554 26.039459 30.912512 C 26.039459 28.626054 25.612375 27.084387 24.753 26.287512 C 23.893625 25.485428 22.242584 25.084387 19.799875 25.084387 L 13.195708 25.141678 Z M 13.195708 36.787512 " stroke="#fff7b3" stroke-width="0.899998" stroke-opacity="1" stroke-miterlimit="4"/><path stroke-linecap="butt" transform="matrix(0.715241, 0.225677, -0.225677, 0.715241, 211.172935, 110.403509)" fill="none" stroke-linejoin="miter" d="M 6.695322 22.418636 C 9.26979 19.361673 13.878617 17.836473 20.518669 17.833102 C 27.160289 17.834698 31.775963 19.360285 34.373794 22.41823 C 36.971624 25.476174 38.271254 31.101004 38.270851 39.304221 C 38.270448 47.507437 36.972296 53.138178 34.374826 56.191475 C 31.778924 59.24974 27.160163 60.778074 20.518544 60.776478 C 13.876924 60.774882 9.271183 59.246161 6.691388 56.193449 C 4.114993 53.134202 2.825297 47.506238 2.8257 39.303022 C 2.82767 31.104772 4.114321 25.472199 6.695322 22.418636 Z M 26.906869 28.143944 C 25.763982 26.18344 23.630158 25.201897 20.505397 25.199317 C 17.387171 25.200136 15.26124 26.182223 14.116104 28.143745 C 12.987435 30.105533 12.420089 33.829023 12.422432 39.306112 C 12.419809 44.784768 12.987457 48.505132 14.118843 50.463804 C 15.260163 52.419341 17.392419 53.395916 20.505679 53.396665 C 23.628872 53.394278 25.762904 52.420558 26.904641 50.46557 C 28.049778 48.504047 28.617124 44.780558 28.621315 39.306868 C 28.618971 33.829779 28.044789 30.106015 26.906869 28.143944 Z M 26.906869 28.143944 " stroke="#fff7b3" stroke-width="0.899998" stroke-opacity="1" stroke-miterlimit="4"/><path stroke-linecap="butt" transform="matrix(0.614187, 0.430435, -0.430435, 0.614187, 248.558952, 123.785675)" fill="none" stroke-linejoin="miter" d="M 36.834151 60.00096 L 27.167639 60.00202 L 24.046728 47.344898 C 23.65772 46.027514 23.129412 45.119396 22.469058 44.62182 C 21.802727 44.115714 20.853215 43.858948 19.611992 43.857498 L 13.193789 43.801727 L 13.193757 60.000762 L 4.204816 59.997609 L 4.200779 18.609322 C 7.924674 18.250989 13.184301 18.06931 19.975392 18.067273 C 25.535505 18.069329 29.468728 18.944422 31.784029 20.705349 C 34.103596 22.463286 35.268923 25.659782 35.268492 30.296551 C 35.267185 33.343925 34.657912 35.723447 33.435133 37.445362 C 32.228139 39.162574 30.1977 40.203948 27.359601 40.564779 L 27.360615 40.85663 C 30.512924 41.579401 32.468708 43.662245 33.23351 47.094918 Z M 13.193763 36.786625 L 19.801382 36.78597 C 22.194224 36.788065 23.82606 36.375842 24.707136 35.554845 C 25.595465 34.735123 26.039218 33.190284 26.03967 30.913075 C 26.041397 28.628611 25.609598 27.086815 24.748535 26.284698 C 23.894727 25.483858 22.241109 25.08454 19.7992 25.085032 L 13.192892 25.142009 Z M 13.193763 36.786625 " stroke="#fff7b3" stroke-width="0.899998" stroke-opacity="1" stroke-miterlimit="4"/><g fill="#000000" fill-opacity="1"><g transform="translate(129.095828, 177.242289)"><g><path d="M 22.625 -15.859375 L 16.703125 -11.703125 L 9.328125 -18.140625 C 8.515625 -18.773438 7.796875 -19.101562 7.171875 -19.125 C 6.546875 -19.15625 5.851562 -18.90625 5.09375 -18.375 L 1.125 -15.640625 L 8.109375 -5.6875 L 2.578125 -1.8125 L -15.234375 -27.234375 C -13.109375 -29.046875 -9.957031 -31.414062 -5.78125 -34.34375 C -2.363281 -36.738281 0.429688 -37.894531 2.609375 -37.8125 C 4.785156 -37.738281 6.875 -36.28125 8.875 -33.4375 C 10.175781 -31.5625 10.828125 -29.832031 10.828125 -28.25 C 10.828125 -26.664062 10.03125 -25.15625 8.4375 -23.71875 L 8.5625 -23.546875 C 10.8125 -24.453125 12.914062 -24.015625 14.875 -22.234375 Z M -1.890625 -19.953125 L 2.15625 -22.78125 C 3.632812 -23.820312 4.46875 -24.78125 4.65625 -25.65625 C 4.84375 -26.539062 4.445312 -27.679688 3.46875 -29.078125 C 2.488281 -30.472656 1.5625 -31.226562 0.6875 -31.34375 C -0.1875 -31.46875 -1.375 -31.003906 -2.875 -29.953125 L -6.890625 -27.09375 Z M -1.890625 -19.953125 "/></g></g></g><g fill="#000000" fill-opacity="1"><g transform="translate(148.538587, 162.577785)"><g><path d="M -2.34375 -41.078125 L -0.25 -41.734375 C 0.664062 -42.023438 1.273438 -41.695312 1.578125 -40.75 L 2.34375 -38.296875 C 2.644531 -37.347656 2.335938 -36.726562 1.421875 -36.4375 L -0.671875 -35.78125 C -1.585938 -35.488281 -2.195312 -35.816406 -2.5 -36.765625 L -3.265625 -39.21875 C -3.566406 -40.164062 -3.257812 -40.785156 -2.34375 -41.078125 Z M 5.46875 -43.546875 L 7.5625 -44.203125 C 8.507812 -44.503906 9.132812 -44.179688 9.4375 -43.234375 L 10.203125 -40.78125 C 10.503906 -39.832031 10.179688 -39.207031 9.234375 -38.90625 L 7.140625 -38.25 C 6.191406 -37.945312 5.566406 -38.269531 5.265625 -39.21875 L 4.5 -41.671875 C 4.195312 -42.617188 4.519531 -43.242188 5.46875 -43.546875 Z M -3.703125 -28.40625 C -2.546875 -31.175781 0.40625 -33.304688 5.15625 -34.796875 C 9.90625 -36.296875 13.550781 -36.242188 16.09375 -34.640625 C 18.644531 -33.046875 20.847656 -29.3125 22.703125 -23.4375 C 24.554688 -17.570312 24.894531 -13.253906 23.71875 -10.484375 C 22.550781 -7.710938 19.59375 -5.578125 14.84375 -4.078125 C 10.09375 -2.585938 6.453125 -2.640625 3.921875 -4.234375 C 1.390625 -5.835938 -0.800781 -9.570312 -2.65625 -15.4375 C -4.507812 -21.3125 -4.859375 -25.632812 -3.703125 -28.40625 Z M 12.0625 -28.859375 C 10.8125 -30.003906 9.066406 -30.222656 6.828125 -29.515625 C 4.597656 -28.816406 3.289062 -27.632812 2.90625 -25.96875 C 2.53125 -24.3125 2.960938 -21.519531 4.203125 -17.59375 C 5.441406 -13.675781 6.691406 -11.144531 7.953125 -10 C 9.210938 -8.863281 10.957031 -8.644531 13.1875 -9.34375 C 15.425781 -10.050781 16.726562 -11.234375 17.09375 -12.890625 C 17.46875 -14.546875 17.035156 -17.332031 15.796875 -21.25 C 14.554688 -25.175781 13.3125 -27.710938 12.0625 -28.859375 Z M 12.0625 -28.859375 "/></g></g></g><g fill="#000000" fill-opacity="1"><g transform="translate(173.294626, 154.167177)"><g><path d="M 27.625 0 L 20.390625 0 L 18.046875 -9.5 C 17.742188 -10.488281 17.34375 -11.171875 16.84375 -11.546875 C 16.351562 -11.921875 15.644531 -12.109375 14.71875 -12.109375 L 9.90625 -12.15625 L 9.90625 0 L 3.15625 0 L 3.15625 -31.046875 C 5.9375 -31.316406 9.878906 -31.453125 14.984375 -31.453125 C 19.148438 -31.453125 22.101562 -30.789062 23.84375 -29.46875 C 25.582031 -28.15625 26.453125 -25.757812 26.453125 -22.28125 C 26.453125 -20 25.992188 -18.210938 25.078125 -16.921875 C 24.171875 -15.628906 22.648438 -14.847656 20.515625 -14.578125 L 20.515625 -14.359375 C 22.890625 -13.816406 24.363281 -12.253906 24.9375 -9.671875 Z M 9.90625 -17.421875 L 14.84375 -17.421875 C 16.644531 -17.421875 17.875 -17.726562 18.53125 -18.34375 C 19.195312 -18.957031 19.53125 -20.117188 19.53125 -21.828125 C 19.53125 -23.535156 19.207031 -24.6875 18.5625 -25.28125 C 17.914062 -25.882812 16.675781 -26.1875 14.84375 -26.1875 L 9.90625 -26.140625 Z M 9.90625 -17.421875 "/></g></g></g><g fill="#000000" fill-opacity="1"><g transform="translate(197.632338, 153.317981)"><g><path d="M 13.265625 -25.375 C 15.796875 -26.976562 19.4375 -27.03125 24.1875 -25.53125 C 28.9375 -24.039062 31.894531 -21.90625 33.0625 -19.125 C 34.238281 -16.351562 33.898438 -12.03125 32.046875 -6.15625 C 30.191406 -0.289062 27.988281 3.4375 25.4375 5.03125 C 22.894531 6.625 19.25 6.671875 14.5 5.171875 C 9.75 3.679688 6.796875 1.554688 5.640625 -1.203125 C 4.484375 -3.972656 4.832031 -8.289062 6.6875 -14.15625 C 8.539062 -20.03125 10.734375 -23.769531 13.265625 -25.375 Z M 26.4375 -16.71875 C 26.0625 -18.375 24.753906 -19.550781 22.515625 -20.25 C 20.285156 -20.957031 18.539062 -20.738281 17.28125 -19.59375 C 16.03125 -18.457031 14.785156 -15.925781 13.546875 -12 C 12.304688 -8.082031 11.875 -5.289062 12.25 -3.625 C 12.625 -1.96875 13.925781 -0.785156 16.15625 -0.078125 C 18.394531 0.617188 20.140625 0.394531 21.390625 -0.75 C 22.648438 -1.894531 23.898438 -4.425781 25.140625 -8.34375 C 26.378906 -12.269531 26.8125 -15.0625 26.4375 -16.71875 Z M 26.4375 -16.71875 "/></g></g></g><g fill="#000000" fill-opacity="1"><g transform="translate(222.732835, 160.63688)"><g><path d="M 22.625 15.859375 L 16.703125 11.703125 L 20.234375 2.578125 C 20.546875 1.585938 20.609375 0.796875 20.421875 0.203125 C 20.234375 -0.378906 19.757812 -0.9375 19 -1.46875 L 15.09375 -4.265625 L 8.109375 5.6875 L 2.578125 1.8125 L 20.390625 -23.609375 C 22.828125 -22.234375 26.132812 -20.082031 30.3125 -17.15625 C 33.726562 -14.757812 35.769531 -12.519531 36.4375 -10.4375 C 37.101562 -8.363281 36.4375 -5.90625 34.4375 -3.0625 C 33.132812 -1.1875 31.738281 0.015625 30.25 0.546875 C 28.757812 1.078125 27.0625 0.84375 25.15625 -0.15625 L 25.03125 0.015625 C 26.675781 1.816406 26.988281 3.941406 25.96875 6.390625 Z M 18.109375 -8.578125 L 22.15625 -5.75 C 23.632812 -4.707031 24.820312 -4.25 25.71875 -4.375 C 26.613281 -4.507812 27.550781 -5.273438 28.53125 -6.671875 C 29.507812 -8.066406 29.90625 -9.191406 29.71875 -10.046875 C 29.53125 -10.910156 28.6875 -11.867188 27.1875 -12.921875 L 23.109375 -15.71875 Z M 18.109375 -8.578125 "/></g></g></g></svg>