<svg xmlns="http://www.w3.org/2000/svg" xmlns:xlink="http://www.w3.org/1999/xlink" width="500" zoomAndPan="magnify" viewBox="0 0 375 374.999991" height="500" preserveAspectRatio="xMidYMid meet" version="1.0"><defs><g/><clipPath id="1571da9e1a"><path d="M 45.238281 45.238281 L 329.761719 45.238281 L 329.761719 329.761719 L 45.238281 329.761719 Z M 45.238281 45.238281 " clip-rule="nonzero"/></clipPath><clipPath id="56abca67ff"><path d="M 187.5 45.238281 C 108.929688 45.238281 45.238281 108.929688 45.238281 187.5 C 45.238281 266.070312 108.929688 329.761719 187.5 329.761719 C 266.070312 329.761719 329.761719 266.070312 329.761719 187.5 C 329.761719 108.929688 266.070312 45.238281 187.5 45.238281 Z M 187.5 45.238281 " clip-rule="nonzero"/></clipPath></defs><g clip-path="url(#1571da9e1a)"><g clip-path="url(#56abca67ff)"><path fill="#cfff00" d="M 45.238281 45.238281 L 329.761719 45.238281 L 329.761719 329.761719 L 45.238281 329.761719 Z M 45.238281 45.238281 " fill-opacity="1" fill-rule="nonzero"/></g></g><path fill="#000000" d="M 246.515625 193.960938 C 244.597656 176.613281 236.429688 162.871094 218.917969 158.027344 C 198.675781 152.429688 174.640625 155.398438 153.90625 158.257812 C 153.851562 158.238281 153.800781 158.226562 153.746094 158.210938 C 151.316406 158.003906 147.324219 156.746094 150.613281 154.347656 C 152.65625 152.855469 155.296875 151.878906 157.609375 150.921875 C 159.710938 150.050781 163.210938 148.988281 162.96875 146.035156 C 162.429688 139.480469 146.792969 142.363281 142.816406 141.980469 C 140.734375 141.78125 140.75 145.03125 142.816406 145.230469 C 145.347656 145.476562 147.835938 145.394531 150.371094 145.300781 C 151.789062 145.246094 157.96875 144.550781 158.75 145.84375 C 159.664062 147.363281 155.316406 148.363281 154 148.945312 C 151.964844 149.84375 149.683594 150.804688 147.945312 152.222656 C 146.039062 153.773438 144.855469 156.082031 146.375 158.328125 C 146.570312 158.613281 146.785156 158.878906 147.03125 159.125 L 144.082031 159.328125 C 143.015625 159.402344 137.609375 160.34375 136.71875 159.414062 C 134.605469 157.21875 139.476562 156.078125 140.585938 155.46875 C 141.601562 154.90625 142.742188 154.253906 143.355469 153.222656 C 147.152344 146.828125 130.992188 148.851562 128.808594 148.800781 C 126.714844 148.75 126.714844 152.003906 128.808594 152.054688 C 131.675781 152.121094 134.546875 152.089844 137.414062 152.097656 C 137.515625 152.097656 139.902344 152.078125 139.90625 152.113281 C 139.9375 152.398438 137.632812 153.261719 137.414062 153.363281 C 135.152344 154.425781 131.742188 155.660156 132.003906 158.820312 C 132.535156 165.199219 145.417969 162.804688 150.40625 162.183594 C 150.671875 164.046875 151.113281 165.867188 151.726562 167.644531 C 152.34375 169.421875 153.121094 171.128906 154.066406 172.757812 C 155.007812 174.386719 156.097656 175.910156 157.332031 177.328125 C 158.570312 178.75 159.929688 180.039062 161.414062 181.195312 C 169.183594 187.277344 179.632812 187.863281 189.0625 188.957031 C 195.1875 189.667969 203.75 189.996094 208.339844 194.945312 C 213.761719 200.789062 213.796875 213.40625 212.199219 220.351562 C 208.375 236.960938 193.175781 239.628906 178.617188 238.101562 C 178.597656 238 178.570312 237.902344 178.53125 237.808594 C 175.480469 231.929688 170.921875 226.863281 164.328125 225.027344 C 159.914062 223.796875 152.140625 223.304688 148.566406 226.898438 C 145.101562 230.390625 147.683594 234.78125 151.03125 237.121094 C 155.441406 240.207031 161.65625 241.96875 167.621094 242.324219 C 162.84375 244.839844 158.378906 247.871094 155.109375 252.292969 C 153.09375 255.019531 148.660156 262.367188 151.761719 265.6875 C 155.753906 269.960938 164.390625 263.078125 167.269531 260.871094 C 173.519531 256.074219 177.894531 250.027344 179.472656 242.433594 C 192.789062 250.347656 214.039062 245.148438 226.894531 239.191406 C 242.621094 231.902344 248.277344 209.871094 246.515625 193.960938 Z M 241.703125 213.859375 C 233.835938 219.78125 225.0625 221.800781 215.34375 221.136719 C 215.925781 218.476562 216.214844 215.785156 216.210938 213.058594 C 226.683594 211.4375 237.882812 202.714844 243.046875 192.65625 C 243.824219 199.214844 243.480469 206.773438 241.703125 213.859375 Z M 153.59375 161.566406 C 169.425781 159.429688 185.621094 158.238281 201.605469 159.003906 C 205.242188 167.03125 203.285156 179.753906 199.128906 186.957031 C 199.097656 187.03125 199.074219 187.105469 199.054688 187.183594 C 197.265625 186.78125 195.402344 186.472656 193.492188 186.21875 C 176.894531 184.035156 155.96875 182.03125 153.59375 161.566406 Z M 202.234375 188.046875 C 206.546875 180.167969 208.339844 168.054688 205.175781 159.214844 C 223.5625 160.625 237.484375 168.386719 241.976562 186.796875 C 241.945312 186.84375 241.917969 186.894531 241.894531 186.949219 C 238.703125 197.644531 226.820312 207.738281 216.097656 209.777344 C 215.863281 206.53125 215.3125 203.339844 214.445312 200.203125 C 214.257812 199.539062 214.046875 198.90625 213.8125 198.304688 C 220.390625 194.222656 225.203125 187.851562 228.484375 180.925781 C 229.375 179.046875 226.570312 177.394531 225.675781 179.285156 C 222.664062 185.648438 218.371094 191.570312 212.355469 195.367188 C 209.992188 191.59375 206.429688 189.410156 202.234375 188.046875 Z M 152.628906 231.867188 C 151.15625 227.597656 152.871094 227.757812 157.097656 227.519531 C 165.3125 227.054688 171.441406 231.8125 175.261719 238.65625 C 169.855469 239.816406 164.429688 238.71875 159.230469 237.070312 C 155.457031 235.878906 153.988281 235.804688 152.628906 231.867188 Z M 169.21875 254.890625 C 168.019531 256.128906 156.984375 266.492188 154.375 261.21875 C 153.832031 260.125 156.449219 256.035156 157.171875 254.925781 C 159.03125 252.066406 161.804688 249.785156 164.574219 247.855469 C 168.195312 245.335938 172.328125 243.539062 176.339844 241.734375 C 175.265625 246.738281 172.917969 251.070312 169.21875 254.890625 Z M 186.363281 241.832031 C 194.457031 241.878906 202.585938 240.269531 208.488281 234.273438 C 209.105469 233.640625 209.683594 232.976562 210.226562 232.277344 C 212.824219 235.3125 216.019531 237.460938 219.804688 238.726562 C 209.664062 242.515625 196.5 244.824219 186.363281 241.832031 Z M 226.359375 235.882812 C 225.796875 236.167969 225.191406 236.449219 224.585938 236.730469 C 224.386719 236.566406 224.15625 236.464844 223.902344 236.425781 C 219.144531 235.601562 215.136719 233.226562 212.113281 229.5 C 213.082031 227.855469 213.863281 226.128906 214.46875 224.320312 C 214.511719 224.328125 214.542969 224.351562 214.585938 224.355469 C 223.886719 225.117188 232.472656 223.566406 240.203125 218.820312 C 237.519531 226.140625 233.054688 232.46875 226.359375 235.882812 Z M 226.359375 235.882812 " fill-opacity="1" fill-rule="nonzero"/><path fill="#000000" d="M 172.519531 162.816406 C 170.425781 162.816406 170.425781 166.070312 172.519531 166.070312 C 174.613281 166.070312 174.617188 162.816406 172.519531 162.816406 Z M 172.519531 162.816406 " fill-opacity="1" fill-rule="nonzero"/><path fill="#000000" d="M 218.980469 168.542969 C 224.121094 170.503906 228.863281 172.621094 232.324219 177.128906 C 233.582031 178.765625 236.410156 177.148438 235.132812 175.488281 C 233.402344 173.230469 231.230469 171.292969 228.949219 169.597656 C 226.242188 167.585938 222.964844 166.597656 219.84375 165.40625 C 217.886719 164.660156 217.039062 167.804688 218.980469 168.542969 Z M 218.980469 168.542969 " fill-opacity="1" fill-rule="nonzero"/><path fill="#000000" d="M 235.972656 182.539062 C 238.066406 182.539062 238.070312 179.289062 235.972656 179.289062 C 233.882812 179.289062 233.878906 182.539062 235.972656 182.539062 Z M 235.972656 182.539062 " fill-opacity="1" fill-rule="nonzero"/><g fill="#000000" fill-opacity="1"><g transform="translate(97.60361, 152.807757)"><g><path d="M 1.1875 -18.71875 L -4.65625 -15.59375 C -6.820312 -14.445312 -8.769531 -13.992188 -10.5 -14.234375 C -12.238281 -14.484375 -13.972656 -15.398438 -15.703125 -16.984375 C -18.222656 -19.285156 -19.347656 -21.441406 -19.078125 -23.453125 C -18.816406 -25.460938 -17.269531 -28.015625 -14.4375 -31.109375 C -11.769531 -34.035156 -9.175781 -36.273438 -6.65625 -37.828125 L -3.484375 -34.34375 C -5.328125 -32.476562 -7.550781 -30.117188 -10.15625 -27.265625 C -11.363281 -25.929688 -12.050781 -24.9375 -12.21875 -24.28125 C -12.394531 -23.625 -12.019531 -22.875 -11.09375 -22.03125 C -10.34375 -21.34375 -9.648438 -21.007812 -9.015625 -21.03125 C -8.378906 -21.050781 -7.476562 -21.390625 -6.3125 -22.046875 L -0.84375 -25.015625 C 1.394531 -26.234375 3.382812 -26.71875 5.125 -26.46875 C 6.875 -26.21875 8.609375 -25.300781 10.328125 -23.71875 C 12.898438 -21.375 14.078125 -19.160156 13.859375 -17.078125 C 13.640625 -15.003906 12.070312 -12.367188 9.15625 -9.171875 C 6.789062 -6.578125 4.113281 -4.21875 1.125 -2.09375 L -2.25 -5.734375 C 2.15625 -10.335938 4.507812 -12.804688 4.8125 -13.140625 C 6.050781 -14.492188 6.734375 -15.53125 6.859375 -16.25 C 6.984375 -16.96875 6.585938 -17.738281 5.671875 -18.5625 C 4.898438 -19.28125 4.210938 -19.628906 3.609375 -19.609375 C 3.015625 -19.597656 2.207031 -19.300781 1.1875 -18.71875 Z M 1.1875 -18.71875 "/></g></g></g><g fill="#000000" fill-opacity="1"><g transform="translate(114.424041, 134.02234)"><g><path d="M 2.609375 -18.234375 L 0.40625 -16.765625 C 1.257812 -15.867188 1.90625 -15.097656 2.34375 -14.453125 L 8.296875 -5.5625 L 2.625 -1.75 L -14.65625 -27.546875 L -8.984375 -31.359375 L -4.109375 -24.078125 C -3.367188 -22.972656 -2.769531 -21.890625 -2.3125 -20.828125 L -0.109375 -22.296875 L -0.5 -37.046875 L 5.671875 -41.171875 L 5.90625 -26.4375 C 5.988281 -25.40625 5.828125 -24.300781 5.421875 -23.125 L 5.515625 -22.984375 C 6.828125 -22.953125 8.0625 -22.675781 9.21875 -22.15625 L 23.40625 -15.6875 L 17.046875 -11.421875 Z M 2.609375 -18.234375 "/></g></g></g><g fill="#000000" fill-opacity="1"><g transform="translate(136.922491, 118.69929)"><g><path d="M 16.15625 -14.3125 L 6.078125 -10.78125 L 6.65625 -2.34375 L 0.046875 -0.015625 L -1.21875 -30.578125 C -1.269531 -31.128906 -1.140625 -31.632812 -0.828125 -32.09375 C -0.515625 -32.550781 -0.0859375 -32.878906 0.453125 -33.078125 L 6.546875 -35.21875 C 7.765625 -35.644531 8.71875 -35.34375 9.40625 -34.3125 L 27.546875 -9.6875 L 20.984375 -7.375 Z M 13 -18.828125 L 7.375 -26.921875 C 6.53125 -28.222656 6.007812 -29.070312 5.8125 -29.46875 L 4.671875 -29.0625 C 4.710938 -28.757812 4.769531 -28.269531 4.84375 -27.59375 C 4.925781 -26.914062 4.976562 -26.410156 5 -26.078125 L 5.6875 -16.25 Z M 13 -18.828125 "/></g></g></g><g fill="#000000" fill-opacity="1"><g transform="translate(163.700486, 109.504631)"><g><path d="M 6.671875 -31.890625 L 9.046875 -8.84375 C 9.128906 -8.039062 9.375 -7.476562 9.78125 -7.15625 C 10.1875 -6.84375 10.820312 -6.726562 11.6875 -6.8125 L 22.296875 -7.90625 L 23.15625 -2.75 C 20.175781 -2.113281 15.835938 -1.5 10.140625 -0.90625 C 7.742188 -0.65625 5.898438 -1.066406 4.609375 -2.140625 C 3.328125 -3.222656 2.582031 -4.765625 2.375 -6.765625 L -0.140625 -31.1875 Z M 6.671875 -31.890625 "/></g></g></g><g fill="#000000" fill-opacity="1"><g transform="translate(186.525914, 106.625259)"><g><path d="M 3.125 0.4375 L 7.375 -30.3125 C 11.625 -30 15.617188 -29.585938 19.359375 -29.078125 C 24.265625 -28.398438 27.519531 -26.796875 29.125 -24.265625 C 30.726562 -21.742188 31.113281 -17.484375 30.28125 -11.484375 C 29.457031 -5.484375 27.929688 -1.488281 25.703125 0.5 C 23.472656 2.5 19.90625 3.160156 15 2.484375 C 11.257812 1.972656 7.300781 1.289062 3.125 0.4375 Z M 13.453125 -24.453125 L 10.578125 -3.640625 C 11.085938 -3.566406 11.910156 -3.441406 13.046875 -3.265625 C 14.191406 -3.097656 15.09375 -2.96875 15.75 -2.875 C 18.039062 -2.5625 19.707031 -3.070312 20.75 -4.40625 C 21.789062 -5.738281 22.585938 -8.425781 23.140625 -12.46875 C 23.703125 -16.507812 23.660156 -19.320312 23.015625 -20.90625 C 22.378906 -22.5 20.914062 -23.453125 18.625 -23.765625 Z M 13.453125 -24.453125 "/></g></g></g><g fill="#000000" fill-opacity="1"><g transform="translate(216.157648, 111.399904)"><g><path d="M 23.375 -24.546875 L 15.015625 -1.5 C 14.242188 0.613281 13.066406 2.039062 11.484375 2.78125 C 9.910156 3.519531 8.078125 3.507812 5.984375 2.75 C 3.640625 1.90625 1.972656 0.976562 0.984375 -0.03125 L 3.265625 -4.078125 L 5.234375 -3.359375 C 7.097656 -2.691406 8.300781 -3.101562 8.84375 -4.59375 L 16.9375 -26.890625 Z M 23.375 -24.546875 "/></g></g></g><g fill="#000000" fill-opacity="1"><g transform="translate(231.621981, 116.170905)"><g><path d="M 40.015625 -11.5625 L 30.109375 4.265625 C 27.585938 8.273438 25.035156 10.617188 22.453125 11.296875 C 19.878906 11.984375 16.710938 11.148438 12.953125 8.796875 C 8.992188 6.316406 6.722656 3.742188 6.140625 1.078125 C 5.554688 -1.585938 6.523438 -4.925781 9.046875 -8.9375 L 18.953125 -24.765625 L 24.765625 -21.125 L 14.859375 -5.296875 C 13.335938 -2.878906 12.632812 -1.019531 12.75 0.28125 C 12.863281 1.59375 13.820312 2.8125 15.625 3.9375 C 17.40625 5.0625 18.910156 5.390625 20.140625 4.921875 C 21.367188 4.453125 22.742188 3.007812 24.265625 0.59375 L 34.171875 -15.234375 Z M 40.015625 -11.5625 "/></g></g></g><g fill="#000000" fill-opacity="1"><g transform="translate(256.505866, 131.692533)"><g><path d="M 18.84375 20.1875 L 13.90625 14.90625 L 19.25 6.703125 C 19.769531 5.804688 20 5.050781 19.9375 4.4375 C 19.875 3.820312 19.53125 3.175781 18.90625 2.5 L 15.65625 -1.0625 L 6.765625 7.234375 L 2.15625 2.3125 L 24.859375 -18.875 C 26.953125 -17.03125 29.738281 -14.242188 33.21875 -10.515625 C 36.0625 -7.472656 37.59375 -4.863281 37.8125 -2.6875 C 38.039062 -0.507812 36.878906 1.765625 34.328125 4.140625 C 32.660156 5.691406 31.046875 6.578125 29.484375 6.796875 C 27.921875 7.015625 26.3125 6.429688 24.65625 5.046875 L 24.5 5.203125 C 25.71875 7.304688 25.582031 9.453125 24.09375 11.640625 Z M 19.5 -4.65625 L 22.859375 -1.046875 C 24.085938 0.273438 25.148438 0.96875 26.046875 1.03125 C 26.953125 1.101562 28.03125 0.554688 29.28125 -0.609375 C 30.53125 -1.773438 31.148438 -2.800781 31.140625 -3.6875 C 31.140625 -4.570312 30.515625 -5.6875 29.265625 -7.03125 L 25.875 -10.609375 Z M 19.5 -4.65625 "/></g></g></g></svg>