<svg xmlns="http://www.w3.org/2000/svg" xmlns:xlink="http://www.w3.org/1999/xlink" width="500" zoomAndPan="magnify" viewBox="0 0 375 374.999991" height="500" preserveAspectRatio="xMidYMid meet" version="1.0"><defs><g/><clipPath id="187065c50a"><path d="M 45.238281 45.238281 L 329.761719 45.238281 L 329.761719 329.761719 L 45.238281 329.761719 Z M 45.238281 45.238281 " clip-rule="nonzero"/></clipPath><clipPath id="9ef45eec70"><path d="M 187.5 45.238281 C 108.929688 45.238281 45.238281 108.929688 45.238281 187.5 C 45.238281 266.070312 108.929688 329.761719 187.5 329.761719 C 266.070312 329.761719 329.761719 266.070312 329.761719 187.5 C 329.761719 108.929688 266.070312 45.238281 187.5 45.238281 Z M 187.5 45.238281 " clip-rule="nonzero"/></clipPath><clipPath id="657244fff8"><path d="M 167 157.453125 L 184 157.453125 L 184 195 L 167 195 Z M 167 157.453125 " clip-rule="nonzero"/></clipPath><clipPath id="18e1ca97c4"><path d="M 121.625 204 L 252 204 L 252 287.953125 L 121.625 287.953125 Z M 121.625 204 " clip-rule="nonzero"/></clipPath></defs><g clip-path="url(#187065c50a)"><g clip-path="url(#9ef45eec70)"><path fill="#cfff00" d="M 45.238281 45.238281 L 329.761719 45.238281 L 329.761719 329.761719 L 45.238281 329.761719 Z M 45.238281 45.238281 " fill-opacity="1" fill-rule="nonzero"/></g></g><path fill="#000000" d="M 149.441406 257.335938 C 148.730469 256.523438 147.410156 256.421875 146.59375 257.234375 C 145.78125 257.945312 145.679688 259.269531 146.492188 260.082031 C 156.867188 271.269531 171.617188 277.78125 186.875 277.78125 C 187.992188 277.78125 188.90625 276.863281 188.90625 275.746094 C 188.90625 274.628906 187.992188 273.710938 186.875 273.710938 C 172.734375 273.710938 159.105469 267.710938 149.441406 257.335938 Z M 149.441406 257.335938 " fill-opacity="1" fill-rule="nonzero"/><path fill="#000000" d="M 188.90625 213.699219 C 188.90625 212.582031 187.992188 211.664062 186.875 211.664062 C 156.054688 211.664062 136.828125 217.972656 131.4375 222.246094 C 130.523438 222.957031 130.421875 224.175781 131.132812 225.09375 C 131.539062 225.601562 132.152344 225.90625 132.761719 225.90625 C 133.167969 225.90625 133.675781 225.804688 133.980469 225.5 C 137.136719 222.957031 153.714844 215.734375 186.875 215.734375 C 187.992188 215.734375 188.90625 214.820312 188.90625 213.699219 Z M 188.90625 213.699219 " fill-opacity="1" fill-rule="nonzero"/><path fill="#000000" d="M 186.875 236.078125 C 217.691406 236.078125 236.917969 229.769531 242.308594 225.5 C 243.222656 224.785156 243.324219 223.566406 242.613281 222.652344 C 241.902344 221.734375 240.679688 221.632812 239.765625 222.347656 C 236.613281 224.890625 220.03125 232.109375 186.875 232.109375 C 185.753906 232.109375 184.839844 233.027344 184.839844 234.144531 C 184.839844 235.160156 185.753906 236.078125 186.875 236.078125 Z M 186.875 236.078125 " fill-opacity="1" fill-rule="nonzero"/><path fill="#000000" d="M 167.75 224.480469 C 164.597656 226.109375 161.648438 224.175781 161.546875 224.074219 C 160.632812 223.464844 159.308594 223.667969 158.699219 224.582031 C 158.089844 225.5 158.292969 226.820312 159.207031 227.433594 C 159.308594 227.535156 161.75 229.160156 165.105469 229.160156 C 166.429688 229.160156 167.953125 228.855469 169.582031 228.144531 C 170.597656 227.636719 171.007812 226.414062 170.496094 225.398438 C 169.988281 224.378906 168.769531 223.972656 167.75 224.480469 Z M 167.75 224.480469 " fill-opacity="1" fill-rule="nonzero"/><path fill="#000000" d="M 199.28125 218.886719 C 198.164062 218.988281 197.351562 220.109375 197.554688 221.226562 C 197.65625 222.347656 198.773438 223.160156 199.894531 222.957031 C 199.894531 222.957031 203.859375 222.550781 204.570312 224.480469 C 204.878906 225.296875 205.691406 225.804688 206.503906 225.804688 C 206.707031 225.804688 206.910156 225.804688 207.214844 225.703125 C 208.234375 225.296875 208.84375 224.175781 208.4375 223.160156 C 206.910156 219.089844 202.027344 218.582031 199.28125 218.886719 Z M 199.28125 218.886719 " fill-opacity="1" fill-rule="nonzero"/><path fill="#000000" d="M 227.863281 183.1875 C 226.035156 180.441406 223.1875 178.609375 219.828125 178.203125 C 216.675781 177.792969 213.523438 178.710938 211.183594 180.644531 C 208.84375 182.574219 207.421875 185.21875 207.214844 188.167969 L 205.285156 212.582031 C 205.082031 213.699219 205.894531 214.71875 207.011719 214.71875 C 208.132812 214.820312 209.148438 214.003906 209.25 212.886719 L 211.183594 188.476562 C 211.285156 186.644531 212.199219 185.015625 213.726562 183.796875 C 215.253906 182.574219 217.285156 181.964844 219.320312 182.269531 C 221.457031 182.574219 223.289062 183.695312 224.40625 185.421875 C 225.523438 187.050781 225.730469 188.984375 225.21875 190.917969 L 218.40625 214.105469 C 218.101562 215.226562 218.710938 216.34375 219.828125 216.648438 C 220.03125 216.75 220.234375 216.75 220.441406 216.75 C 221.355469 216.75 222.167969 216.140625 222.371094 215.328125 L 229.1875 192.035156 C 230 188.984375 229.59375 185.832031 227.863281 183.1875 Z M 227.863281 183.1875 " fill-opacity="1" fill-rule="nonzero"/><path fill="#000000" d="M 218.101562 193.355469 C 219.117188 193.355469 219.929688 192.644531 220.132812 191.628906 L 220.441406 189.59375 C 220.644531 188.476562 219.828125 187.457031 218.710938 187.253906 C 217.589844 187.050781 216.574219 187.863281 216.371094 188.984375 L 216.066406 191.019531 C 215.863281 192.136719 216.675781 193.152344 217.796875 193.355469 C 217.898438 193.355469 218 193.355469 218.101562 193.355469 Z M 218.101562 193.355469 " fill-opacity="1" fill-rule="nonzero"/><g clip-path="url(#657244fff8)"><path fill="#000000" d="M 170.699219 157.859375 C 169.683594 157.453125 168.464844 158.0625 168.15625 159.078125 C 167.953125 159.589844 164.089844 171.183594 172.125 176.980469 C 178.738281 181.761719 180.566406 184.40625 178.429688 191.730469 C 178.125 192.847656 178.738281 193.96875 179.855469 194.273438 C 180.058594 194.375 180.261719 194.375 180.363281 194.375 C 181.28125 194.375 182.09375 193.765625 182.296875 192.847656 C 185.042969 183.289062 181.890625 179.015625 174.464844 173.625 C 168.871094 169.65625 171.921875 160.503906 171.921875 160.402344 C 172.328125 159.382812 171.820312 158.265625 170.699219 157.859375 Z M 170.699219 157.859375 " fill-opacity="1" fill-rule="nonzero"/></g><path fill="#000000" d="M 165.71875 179.21875 C 164.597656 178.914062 163.480469 179.625 163.277344 180.746094 C 163.175781 181.152344 161.140625 190.304688 168.261719 195.289062 C 172.835938 198.542969 170.496094 204.648438 170.394531 204.851562 C 169.988281 205.867188 170.496094 207.089844 171.515625 207.496094 C 171.71875 207.597656 172.023438 207.597656 172.226562 207.597656 C 173.039062 207.597656 173.753906 207.089844 174.160156 206.273438 C 175.480469 203.019531 176.398438 195.898438 170.496094 191.832031 C 165.71875 188.476562 167.140625 181.863281 167.242188 181.558594 C 167.546875 180.542969 166.835938 179.421875 165.71875 179.21875 Z M 165.71875 179.21875 " fill-opacity="1" fill-rule="nonzero"/><path fill="#000000" d="M 179.042969 203.628906 C 178.839844 205.257812 178.429688 206.683594 178.023438 207.699219 C 180.871094 207.699219 183.820312 207.597656 186.875 207.597656 C 191.960938 207.597656 196.839844 207.800781 201.519531 208.105469 L 201.824219 204.039062 C 196.839844 203.730469 191.859375 203.527344 186.875 203.527344 C 184.230469 203.527344 181.6875 203.628906 179.042969 203.628906 Z M 179.042969 203.628906 " fill-opacity="1" fill-rule="nonzero"/><g clip-path="url(#18e1ca97c4)"><path fill="#000000" d="M 251.664062 221.734375 C 249.9375 215.734375 240.984375 211.15625 228.679688 208.003906 L 227.558594 211.871094 C 240.375 215.023438 247.902344 219.601562 247.902344 223.769531 C 247.902344 231.5 222.878906 240.042969 186.875 240.042969 C 150.867188 240.042969 125.84375 231.601562 125.84375 223.871094 C 125.84375 217.667969 142.015625 210.953125 167.039062 208.511719 C 166.9375 208.308594 166.835938 208.105469 166.734375 207.902344 C 166.226562 206.785156 166.125 205.664062 166.328125 204.445312 C 143.949219 206.683594 124.625 212.582031 122.082031 221.734375 C 121.878906 222.140625 121.777344 222.449219 121.777344 222.855469 C 121.777344 223.058594 121.777344 223.363281 121.777344 223.566406 C 121.777344 223.667969 121.777344 223.769531 121.777344 223.871094 C 121.777344 224.074219 121.777344 224.175781 121.777344 224.378906 C 122.589844 259.574219 151.476562 287.953125 186.875 287.953125 C 222.269531 287.953125 251.15625 259.574219 251.972656 224.378906 C 251.972656 224.175781 251.972656 224.074219 251.972656 223.871094 C 251.972656 223.769531 251.972656 223.667969 251.972656 223.667969 C 251.972656 223.363281 251.972656 223.160156 251.972656 222.855469 C 251.972656 222.449219 251.871094 222.039062 251.664062 221.734375 Z M 186.875 283.882812 C 156.257812 283.882812 130.929688 261.300781 126.558594 231.90625 C 136.828125 239.941406 162.460938 244.214844 186.875 244.214844 C 211.285156 244.214844 236.917969 239.941406 247.191406 231.90625 C 242.816406 261.300781 217.488281 283.882812 186.875 283.882812 Z M 186.875 283.882812 " fill-opacity="1" fill-rule="nonzero"/></g><g fill="#000000" fill-opacity="1"><g transform="translate(122.569243, 127.606959)"><g><path d="M 7.109375 -17.359375 L 0.578125 -16.265625 C -1.847656 -15.878906 -3.84375 -16.078125 -5.40625 -16.859375 C -6.96875 -17.640625 -8.3125 -19.054688 -9.4375 -21.109375 C -11.09375 -24.097656 -11.46875 -26.5 -10.5625 -28.3125 C -9.664062 -30.132812 -7.382812 -32.0625 -3.71875 -34.09375 C -0.25 -36 2.921875 -37.285156 5.796875 -37.953125 L 7.671875 -33.65625 C 5.347656 -32.46875 2.492188 -30.9375 -0.890625 -29.0625 C -2.460938 -28.1875 -3.4375 -27.46875 -3.8125 -26.90625 C -4.1875 -26.351562 -4.066406 -25.523438 -3.453125 -24.421875 C -2.960938 -23.523438 -2.410156 -22.984375 -1.796875 -22.796875 C -1.191406 -22.617188 -0.238281 -22.65625 1.0625 -22.90625 L 7.203125 -23.96875 C 9.710938 -24.40625 11.753906 -24.222656 13.328125 -23.421875 C 14.898438 -22.628906 16.253906 -21.210938 17.390625 -19.171875 C 19.066406 -16.128906 19.46875 -13.65625 18.59375 -11.75 C 17.726562 -9.851562 15.40625 -7.859375 11.625 -5.765625 C 8.550781 -4.066406 5.253906 -2.679688 1.734375 -1.609375 L -0.3125 -6.15625 C 5.351562 -9.113281 8.382812 -10.703125 8.78125 -10.921875 C 10.382812 -11.804688 11.359375 -12.566406 11.703125 -13.203125 C 12.046875 -13.835938 11.921875 -14.695312 11.328125 -15.78125 C 10.816406 -16.695312 10.273438 -17.242188 9.703125 -17.421875 C 9.128906 -17.597656 8.265625 -17.578125 7.109375 -17.359375 Z M 7.109375 -17.359375 "/></g></g></g><g fill="#000000" fill-opacity="1"><g transform="translate(144.318895, 115.101162)"><g><path d="M -2.25 -28.546875 C -0.957031 -31.253906 2.09375 -33.234375 6.90625 -34.484375 C 11.726562 -35.742188 15.367188 -35.507812 17.828125 -33.78125 C 20.296875 -32.050781 22.304688 -28.207031 23.859375 -22.25 C 25.410156 -16.300781 25.53125 -11.972656 24.21875 -9.265625 C 22.914062 -6.554688 19.851562 -4.570312 15.03125 -3.3125 C 10.21875 -2.0625 6.582031 -2.300781 4.125 -4.03125 C 1.675781 -5.757812 -0.320312 -9.597656 -1.875 -15.546875 C -3.425781 -21.503906 -3.550781 -25.835938 -2.25 -28.546875 Z M 13.515625 -28.203125 C 12.316406 -29.410156 10.582031 -29.71875 8.3125 -29.125 C 6.039062 -28.539062 4.675781 -27.425781 4.21875 -25.78125 C 3.769531 -24.144531 4.0625 -21.335938 5.09375 -17.359375 C 6.132812 -13.390625 7.25 -10.800781 8.4375 -9.59375 C 9.632812 -8.394531 11.367188 -8.085938 13.640625 -8.671875 C 15.910156 -9.265625 17.273438 -10.378906 17.734375 -12.015625 C 18.191406 -13.660156 17.898438 -16.46875 16.859375 -20.4375 C 15.828125 -24.414062 14.710938 -27.003906 13.515625 -28.203125 Z M 13.515625 -28.203125 "/></g></g></g><g fill="#000000" fill-opacity="1"><g transform="translate(172.898039, 107.690762)"><g><path d="M 3.15625 0 L 3.171875 -31.046875 C 5.953125 -31.316406 9.878906 -31.453125 14.953125 -31.453125 C 19.304688 -31.453125 22.285156 -30.742188 23.890625 -29.328125 C 25.492188 -27.910156 26.289062 -25.238281 26.28125 -21.3125 C 26.28125 -17.382812 25.519531 -14.707031 24 -13.28125 C 22.488281 -11.863281 19.769531 -11.15625 15.84375 -11.15625 C 13.863281 -11.15625 11.910156 -11.273438 9.984375 -11.515625 L 9.984375 0 Z M 9.984375 -16.421875 L 14.8125 -16.421875 C 16.570312 -16.453125 17.773438 -16.796875 18.421875 -17.453125 C 19.066406 -18.117188 19.390625 -19.410156 19.390625 -21.328125 C 19.398438 -23.242188 19.082031 -24.53125 18.4375 -25.1875 C 17.789062 -25.851562 16.585938 -26.1875 14.828125 -26.1875 L 10 -26.140625 Z M 9.984375 -16.421875 "/></g></g></g><g fill="#000000" fill-opacity="1"><g transform="translate(199.495241, 107.573715)"><g><path d="M 3.0625 0.765625 L 10.546875 -29.359375 C 13.304688 -28.960938 17.148438 -28.15625 22.078125 -26.9375 C 26.296875 -25.882812 29.015625 -24.476562 30.234375 -22.71875 C 31.453125 -20.96875 31.585938 -18.1875 30.640625 -14.375 C 29.691406 -10.5625 28.3125 -8.144531 26.5 -7.125 C 24.6875 -6.101562 21.875 -6.066406 18.0625 -7.015625 C 16.144531 -7.484375 14.28125 -8.066406 12.46875 -8.765625 L 9.6875 2.40625 Z M 13.640625 -13.53125 L 18.328125 -12.375 C 20.046875 -11.976562 21.296875 -12.019531 22.078125 -12.5 C 22.867188 -12.988281 23.492188 -14.160156 23.953125 -16.015625 C 24.410156 -17.878906 24.40625 -19.210938 23.9375 -20.015625 C 23.476562 -20.816406 22.394531 -21.429688 20.6875 -21.859375 L 15.984375 -22.96875 Z M 13.640625 -13.53125 "/></g></g></g><g fill="#000000" fill-opacity="1"><g transform="translate(225.280212, 113.72662)"><g><path d="M 21.453125 2.28125 L 12.046875 -2.765625 L 6.21875 3.34375 L 0.046875 0.015625 L 21.765625 -21.515625 C 22.128906 -21.929688 22.585938 -22.175781 23.140625 -22.25 C 23.691406 -22.332031 24.21875 -22.238281 24.71875 -21.96875 L 30.421875 -18.90625 C 31.554688 -18.300781 31.976562 -17.394531 31.6875 -16.1875 L 25.734375 13.8125 L 19.59375 10.515625 Z M 22.65625 -3.109375 L 24.859375 -12.703125 C 25.242188 -14.191406 25.515625 -15.148438 25.671875 -15.578125 L 24.609375 -16.15625 C 24.421875 -15.914062 24.101562 -15.539062 23.65625 -15.03125 C 23.207031 -14.519531 22.863281 -14.144531 22.625 -13.90625 L 15.828125 -6.78125 Z M 22.65625 -3.109375 "/></g></g></g></svg>