<svg xmlns="http://www.w3.org/2000/svg" xmlns:xlink="http://www.w3.org/1999/xlink" width="500" zoomAndPan="magnify" viewBox="0 0 375 374.999991" height="500" preserveAspectRatio="xMidYMid meet" version="1.0"><defs><g/><clipPath id="eded7d5df6"><path d="M 45.238281 45.238281 L 329.761719 45.238281 L 329.761719 329.761719 L 45.238281 329.761719 Z M 45.238281 45.238281 " clip-rule="nonzero"/></clipPath><clipPath id="5c19ee9b4e"><path d="M 187.5 45.238281 C 108.929688 45.238281 45.238281 108.929688 45.238281 187.5 C 45.238281 266.070312 108.929688 329.761719 187.5 329.761719 C 266.070312 329.761719 329.761719 266.070312 329.761719 187.5 C 329.761719 108.929688 266.070312 45.238281 187.5 45.238281 Z M 187.5 45.238281 " clip-rule="nonzero"/></clipPath><clipPath id="891346d3a1"><path d="M 124.765625 172.601562 L 249.894531 172.601562 L 249.894531 271.601562 L 124.765625 271.601562 Z M 124.765625 172.601562 " clip-rule="nonzero"/></clipPath></defs><g clip-path="url(#eded7d5df6)"><g clip-path="url(#5c19ee9b4e)"><path fill="#cfff00" d="M 45.238281 45.238281 L 329.761719 45.238281 L 329.761719 329.761719 L 45.238281 329.761719 Z M 45.238281 45.238281 " fill-opacity="1" fill-rule="nonzero"/></g></g><g clip-path="url(#891346d3a1)"><path fill="#000000" d="M 216.765625 190.53125 C 219.046875 190.53125 219.046875 186.96875 216.765625 186.96875 C 214.488281 186.96875 214.484375 190.53125 216.765625 190.53125 Z M 159.347656 189.980469 C 161.628906 189.980469 161.632812 186.417969 159.347656 186.417969 C 157.070312 186.417969 157.066406 189.980469 159.347656 189.980469 Z M 150.421875 203.515625 C 152.699219 203.515625 152.703125 199.953125 150.421875 199.953125 C 148.140625 199.953125 148.136719 203.515625 150.421875 203.515625 Z M 176.242188 196.277344 C 178.519531 196.277344 178.53125 192.714844 176.242188 192.714844 C 173.964844 192.714844 173.960938 196.277344 176.242188 196.277344 Z M 182.289062 181.554688 C 184.570312 181.554688 184.570312 177.992188 182.289062 177.992188 C 180.011719 177.992188 180.007812 181.554688 182.289062 181.554688 Z M 212.78125 204.207031 C 215.066406 204.207031 215.070312 200.644531 212.78125 200.644531 C 210.507812 200.644531 210.5 204.207031 212.78125 204.207031 Z M 201.382812 185.421875 C 203.660156 185.421875 203.667969 181.859375 201.382812 181.859375 C 199.101562 181.859375 199.097656 185.421875 201.382812 185.421875 Z M 187.332031 176.15625 C 158.914062 176.15625 135.796875 190.480469 135.796875 208.082031 L 135.792969 209.613281 C 135.792969 211.386719 137.230469 212.832031 139 212.832031 L 235.671875 212.832031 C 237.433594 212.832031 238.871094 211.386719 238.871094 209.613281 L 238.871094 208.082031 C 238.871094 190.480469 215.75 176.15625 187.335938 176.15625 Z M 235.667969 216.390625 L 138.996094 216.390625 C 135.28125 216.390625 132.257812 213.347656 132.257812 209.613281 L 132.257812 208.082031 C 132.257812 198.445312 138.097656 189.449219 148.699219 182.746094 C 159.046875 176.203125 172.765625 172.601562 187.332031 172.601562 C 201.902344 172.601562 215.621094 176.203125 225.96875 182.746094 C 236.570312 189.449219 242.40625 198.445312 242.40625 208.082031 L 242.40625 209.613281 C 242.40625 213.347656 239.382812 216.390625 235.667969 216.390625 Z M 244.949219 222.527344 C 245.183594 222.347656 245.105469 222.417969 244.84375 222.589844 C 244.472656 222.835938 244.097656 223.070312 243.707031 223.289062 C 242.550781 223.925781 241.285156 224.394531 239.976562 224.609375 C 238.03125 224.929688 236.050781 224.636719 234.277344 223.769531 C 232.269531 222.792969 230.707031 221.167969 228.632812 220.28125 C 224.320312 218.421875 219.097656 219.328125 215.582031 222.472656 C 215.542969 222.503906 215.484375 222.542969 215.410156 222.589844 C 215.039062 222.835938 214.664062 223.070312 214.273438 223.289062 C 213.113281 223.925781 211.847656 224.394531 210.542969 224.609375 C 208.597656 224.929688 206.613281 224.636719 204.84375 223.769531 C 202.835938 222.792969 201.269531 221.167969 199.199219 220.28125 C 194.886719 218.421875 189.664062 219.328125 186.148438 222.472656 C 186.109375 222.503906 186.050781 222.542969 185.976562 222.589844 C 185.605469 222.835938 185.222656 223.070312 184.835938 223.289062 C 183.675781 223.925781 182.410156 224.394531 181.105469 224.609375 C 179.160156 224.929688 177.175781 224.636719 175.402344 223.769531 C 173.394531 222.792969 171.835938 221.167969 169.765625 220.28125 C 165.449219 218.421875 160.226562 219.328125 156.714844 222.472656 C 156.671875 222.503906 156.613281 222.542969 156.539062 222.589844 C 156.167969 222.835938 155.792969 223.070312 155.398438 223.289062 C 154.242188 223.925781 152.976562 224.394531 151.671875 224.609375 C 149.726562 224.929688 147.742188 224.636719 145.96875 223.769531 C 143.964844 222.792969 142.402344 221.167969 140.328125 220.28125 C 135.984375 218.414062 130.71875 219.335938 127.207031 222.527344 C 125.515625 224.070312 128.027344 226.578125 129.714844 225.046875 C 130.789062 224.070312 132.59375 223.25 134.15625 222.96875 C 138.714844 222.140625 141.359375 225.695312 145.175781 227.300781 C 149.800781 229.242188 155.273438 228.148438 159.148438 225.046875 C 160.222656 224.070312 162.027344 223.25 163.589844 222.96875 C 168.152344 222.140625 170.796875 225.695312 174.613281 227.300781 C 179.238281 229.242188 184.710938 228.148438 188.585938 225.046875 C 189.660156 224.070312 191.460938 223.25 193.027344 222.96875 C 197.585938 222.140625 200.230469 225.695312 204.046875 227.300781 C 208.671875 229.242188 214.144531 228.148438 218.023438 225.046875 C 219.097656 224.070312 220.898438 223.25 222.460938 222.96875 C 227.023438 222.140625 229.667969 225.695312 233.484375 227.300781 C 238.105469 229.242188 243.582031 228.148438 247.457031 225.046875 C 249.238281 223.617188 246.71875 221.117188 244.949219 222.527344 Z M 130.808594 234.742188 C 129.429688 234.742188 128.304688 235.871094 128.304688 237.257812 L 128.304688 239.574219 C 128.304688 240.960938 129.429688 242.089844 130.808594 242.089844 L 243.859375 242.089844 C 245.238281 242.089844 246.359375 240.960938 246.359375 239.574219 L 246.359375 237.257812 C 246.359375 235.871094 245.238281 234.742188 243.859375 234.742188 Z M 243.859375 245.648438 L 130.808594 245.648438 C 127.476562 245.648438 124.769531 242.925781 124.769531 239.574219 L 124.769531 237.257812 C 124.769531 233.910156 127.476562 231.1875 130.808594 231.1875 L 243.859375 231.1875 C 247.1875 231.1875 249.898438 233.910156 249.898438 237.257812 L 249.898438 239.574219 C 249.898438 242.925781 247.1875 245.648438 243.859375 245.648438 Z M 138.996094 252.710938 C 137.230469 252.710938 135.792969 254.15625 135.792969 255.933594 L 135.792969 258.160156 C 135.792969 263.609375 140.203125 268.046875 145.628906 268.046875 L 229.035156 268.046875 C 234.460938 268.046875 238.867188 263.609375 238.867188 258.160156 L 238.867188 255.933594 C 238.867188 254.15625 237.429688 252.710938 235.667969 252.710938 Z M 229.035156 271.605469 L 145.628906 271.605469 C 138.253906 271.605469 132.257812 265.570312 132.257812 258.160156 L 132.257812 255.933594 C 132.257812 252.195312 135.28125 249.15625 139 249.15625 L 235.671875 249.15625 C 239.386719 249.15625 242.410156 252.195312 242.410156 255.933594 L 242.410156 258.160156 C 242.410156 265.570312 236.414062 271.605469 229.039062 271.605469 " fill-opacity="1" fill-rule="nonzero"/></g><path stroke-linecap="butt" transform="matrix(0.255609, -0.705099, 0.705099, 0.255609, 50.093324, 164.475047)" fill="none" stroke-linejoin="miter" d="M 19.495139 44.339032 L 11.16094 41.399259 C 8.075675 40.285092 5.872762 38.762419 4.55575 36.841033 C 3.236963 34.914751 2.579997 32.399528 2.579527 29.280675 C 2.577814 24.721872 3.689717 21.676208 5.903669 20.142337 C 8.130535 18.598244 12.039985 17.82919 17.635142 17.828503 C 22.920592 17.82929 27.463733 18.365095 31.25967 19.437693 L 30.657662 25.677916 C 27.181605 25.564118 22.860038 25.501989 17.696511 25.501323 C 15.304306 25.504293 13.706628 25.712295 12.905253 26.130225 C 12.105653 26.553052 11.704579 27.601469 11.703806 29.280371 C 11.702906 30.637998 12.003628 31.620363 12.5993 32.224344 C 13.202991 32.819878 14.343342 33.398144 16.02525 33.957368 L 23.87732 36.6675 C 27.077838 37.778667 29.338592 39.308072 30.657807 41.250819 C 31.977023 43.193565 32.639314 45.723478 32.638009 48.837434 C 32.635193 53.475439 31.511173 56.625216 29.265947 58.286765 C 27.030513 59.944764 23.038679 60.776923 17.281998 60.775225 C 12.596374 60.778592 7.854311 60.259499 3.062479 59.221067 L 3.603888 52.615012 C 12.117448 52.825022 16.680598 52.926993 17.283546 52.924476 C 19.726921 52.925117 21.351346 52.668639 22.164838 52.146595 C 22.983227 51.622777 23.393237 50.537881 23.391746 48.89858 C 23.39491 47.501351 23.113774 46.511886 22.556785 45.938203 C 22.001142 45.352951 20.982226 44.819302 19.495139 44.339032 Z M 19.495139 44.339032 " stroke="#fff7b3" stroke-width="0.9" stroke-opacity="1" stroke-miterlimit="4"/><path stroke-linecap="butt" transform="matrix(0.428148, -0.615783, 0.615783, 0.428148, 63.718644, 130.654151)" fill="none" stroke-linejoin="miter" d="M 34.980297 26.046467 L 22.617084 26.046987 L 22.617923 59.997074 L 13.446313 59.998744 L 13.44975 26.045684 L 1.086536 26.046204 L 1.0811 18.602659 L 34.98211 18.604224 Z M 34.980297 26.046467 " stroke="#fff7b3" stroke-width="0.9" stroke-opacity="1" stroke-miterlimit="4"/><path stroke-linecap="butt" transform="matrix(0.577718, -0.47827, 0.47827, 0.577718, 86.286817, 100.509075)" fill="none" stroke-linejoin="miter" d="M 36.841072 59.997631 L 27.171571 59.998266 L 24.05235 47.341317 C 23.661972 46.024194 23.13621 45.11563 22.471743 44.619635 C 21.805894 44.108974 20.853458 43.854649 19.614434 43.856661 L 13.198365 43.798747 L 13.200147 60.000828 L 4.203496 59.997284 L 4.204166 18.603805 C 7.924754 18.242321 13.186378 18.061235 19.981705 18.061238 C 25.538008 18.063252 29.471332 18.939443 31.786379 20.700465 C 34.11208 22.456785 35.271438 25.654637 35.271788 30.29333 C 35.273643 33.337551 34.662527 35.725563 33.444393 37.44201 C 32.230271 39.161778 30.205048 40.203306 27.364714 40.563273 L 27.362314 40.852032 C 30.515583 41.576037 32.476234 43.658967 33.236244 47.094182 Z M 13.199649 36.781351 L 19.806251 36.780631 C 22.199621 36.780883 23.833454 36.375475 24.710383 35.553062 C 25.601978 34.729267 26.044432 33.182048 26.04508 30.910713 C 26.044346 28.624711 25.61388 27.078318 24.754374 26.278866 C 23.894867 25.479413 22.244423 25.079972 19.806363 25.07653 L 13.197952 25.136607 Z M 13.199649 36.781351 " stroke="#fff7b3" stroke-width="0.9" stroke-opacity="1" stroke-miterlimit="4"/><path stroke-linecap="butt" transform="matrix(0.683383, -0.309011, 0.309011, 0.683383, 117.613562, 76.647768)" fill="none" stroke-linejoin="miter" d="M 31.741842 52.862969 L 32.15288 59.576559 C 28.394513 59.974897 21.999052 60.175392 12.961752 60.175896 C 10.201763 60.173988 8.000245 59.430016 6.356745 57.932342 C 4.71539 56.429923 3.878623 54.399617 3.834807 51.841879 L 3.840302 26.762342 C 3.875801 24.206172 4.714934 22.173437 6.355557 20.668884 C 7.996179 19.16433 10.199931 18.411708 12.964665 18.415762 C 21.99722 18.413112 28.39433 18.613486 32.15125 19.01474 L 31.742144 25.797615 L 15.835265 25.79566 C 14.839983 25.797184 14.119747 26.037397 13.679755 26.530084 C 13.241455 27.006388 13.022282 27.781838 13.022237 28.856435 L 13.020811 35.154876 L 29.517357 35.154811 L 29.518696 41.763169 L 13.02215 41.763234 L 13.023607 49.749213 C 13.024923 50.858721 13.240294 51.659181 13.681355 52.150138 C 14.121963 52.629458 14.837535 52.867283 15.832816 52.865759 Z M 31.741842 52.862969 " stroke="#fff7b3" stroke-width="0.9" stroke-opacity="1" stroke-miterlimit="4"/><path stroke-linecap="butt" transform="matrix(0.739066, -0.127599, 0.127599, 0.739066, 150.940864, 62.987809)" fill="none" stroke-linejoin="miter" d="M 31.745559 52.864977 L 32.151804 59.573562 C 28.393052 59.97641 21.994771 60.177244 12.962094 60.176952 C 10.198098 60.175436 7.995849 59.430529 6.35712 57.931965 C 4.718391 56.433401 3.874807 54.400874 3.835747 51.841287 L 3.83687 26.762316 C 3.876568 24.205757 4.718956 22.173614 6.358016 20.670135 C 7.997077 19.166656 10.199491 18.410542 12.963487 18.412058 C 21.996164 18.41235 28.393823 18.613097 32.151329 19.013413 L 31.741119 25.797739 L 15.832698 25.794284 C 14.838565 25.797066 14.120476 26.037781 13.681792 26.527579 C 13.239748 27.006226 13.021169 27.782438 13.020924 28.85533 L 13.021964 35.155692 L 29.517804 35.154856 L 29.518773 41.761758 L 13.022933 41.762594 L 13.023588 49.748928 C 13.022273 50.858632 13.243677 51.657953 13.682669 52.146005 C 14.122547 52.628924 14.837872 52.863418 15.836252 52.866654 Z M 31.745559 52.864977 " stroke="#fff7b3" stroke-width="0.9" stroke-opacity="1" stroke-miterlimit="4"/><path stroke-linecap="butt" transform="matrix(0.747122, 0.0656447, -0.0656447, 0.747122, 186.767248, 58.076363)" fill="none" stroke-linejoin="miter" d="M 34.979486 26.045895 L 22.619419 26.044386 L 22.617265 59.997797 L 13.446705 59.998381 L 13.448859 26.044969 L 1.083603 26.043916 L 1.083449 18.603918 L 34.979333 18.605897 Z M 34.979486 26.045895 " stroke="#fff7b3" stroke-width="0.9" stroke-opacity="1" stroke-miterlimit="4"/><path stroke-linecap="butt" transform="matrix(0.706583, 0.251477, -0.251477, 0.706583, 223.619829, 62.741715)" fill="none" stroke-linejoin="miter" d="M 31.317974 25.794965 L 16.496739 25.795873 C 15.341981 25.79776 14.509984 26.038589 14.004241 26.528175 C 13.50482 27.004454 13.256968 27.783712 13.257192 28.856136 L 13.255367 35.949683 L 29.104531 35.947801 L 29.105294 42.598158 L 13.256129 42.60004 L 13.256313 59.997753 L 4.085532 59.999955 L 4.086704 26.995173 C 4.087845 24.357735 4.910653 22.273701 6.561447 20.729764 C 8.222055 19.182336 10.435365 18.411189 13.199632 18.411419 C 21.996582 18.415114 28.19684 18.640885 31.800406 19.088732 Z M 31.317974 25.794965 " stroke="#fff7b3" stroke-width="0.9" stroke-opacity="1" stroke-miterlimit="4"/><path stroke-linecap="butt" transform="matrix(0.613665, 0.431179, -0.431179, 0.613665, 256.737381, 75.636089)" fill="none" stroke-linejoin="miter" d="M 6.697234 22.412146 C 9.272431 19.355111 13.883473 17.827563 20.523103 17.828235 C 27.162734 17.828907 31.782148 19.357255 34.381345 22.413278 C 36.980543 25.469301 38.274355 31.097543 38.277291 39.300537 C 38.275966 47.506525 36.978952 53.134639 34.377726 56.190868 C 31.783756 59.248363 27.161197 60.777638 20.521566 60.776966 C 13.881936 60.776294 9.274039 59.246219 6.693614 56.189736 C 4.116184 53.137515 2.826634 47.506279 2.82796 39.30029 C 2.825023 31.097296 4.114781 25.467915 6.697234 22.412146 Z M 26.909536 28.140598 C 25.764694 26.176029 23.632537 25.197987 20.507077 25.197949 C 17.393134 25.196183 15.262724 26.177471 14.120107 28.138817 C 12.987741 30.105692 12.424245 33.824383 12.421096 39.300877 C 12.420942 44.781633 12.990291 48.500034 14.120622 50.462068 C 15.263737 52.41512 17.391632 53.396156 20.509836 53.394927 C 23.635296 53.394966 25.768701 52.41794 26.91005 50.463849 C 28.052667 48.502503 28.620424 44.780818 28.623573 39.304323 C 28.623727 33.823568 28.051384 30.100905 26.909536 28.140598 Z M 26.909536 28.140598 " stroke="#fff7b3" stroke-width="0.9" stroke-opacity="1" stroke-miterlimit="4"/><path stroke-linecap="butt" transform="matrix(0.461175, 0.591454, -0.591454, 0.461175, 290.161392, 101.169721)" fill="none" stroke-linejoin="miter" d="M 6.693559 22.412743 C 9.273175 19.358507 13.881879 17.826973 20.520576 17.82545 C 27.16338 17.827131 31.783439 19.355723 34.380751 22.411228 C 36.978064 25.466732 38.275847 31.09519 38.275004 39.30391 C 38.273256 47.505321 36.976865 53.131995 34.379427 56.192148 C 31.785191 59.248194 27.165069 60.77743 20.522265 60.77575 C 13.883568 60.777272 9.27082 59.247775 6.695436 56.189556 C 4.116851 53.135445 2.826378 47.506082 2.828126 39.304672 C 2.825766 31.100058 4.11805 25.470182 6.693559 22.412743 Z M 26.910568 28.137745 C 25.765926 26.175305 23.632944 25.192416 20.508421 25.193186 C 17.391209 25.193051 15.26406 26.176242 14.122867 28.139558 C 12.988984 30.101969 12.421228 33.820099 12.420503 39.301258 C 12.422981 44.778311 12.98763 48.501015 14.120855 50.461157 C 15.264593 52.416287 17.393467 53.395973 20.506573 53.392906 C 23.631096 53.392136 25.766459 52.41535 26.909461 50.466654 C 28.050654 48.503339 28.621613 44.781101 28.622338 39.299942 C 28.623967 33.826092 28.052008 30.104292 26.910568 28.137745 Z M 26.910568 28.137745 " stroke="#fff7b3" stroke-width="0.9" stroke-opacity="1" stroke-miterlimit="4"/><path stroke-linecap="butt" transform="matrix(0.269108, 0.700058, -0.700058, 0.269108, 314.664622, 135.326182)" fill="none" stroke-linejoin="miter" d="M 4.202151 59.998618 L 4.206673 18.603092 C 9.8796 18.244962 15.234712 18.060396 20.273133 18.060986 C 26.874609 18.059799 31.463458 19.578278 34.044541 22.618292 C 36.632354 25.655313 37.927174 31.214021 37.925264 39.304139 C 37.924098 47.377803 36.628661 52.939595 34.045681 55.986521 C 31.466439 59.023723 26.877014 60.540488 20.275538 60.541675 C 15.237117 60.541085 9.877078 60.361064 4.202151 59.998618 Z M 13.318085 25.252663 L 13.315646 53.273974 C 14.001446 53.275346 15.107178 53.287487 16.639574 53.307404 C 18.183561 53.326197 19.396613 53.334953 20.271999 53.336666 C 23.358471 53.334615 25.46842 52.360131 26.598852 50.406483 C 27.744615 48.441988 28.314576 44.738418 28.31659 39.304371 C 28.315612 33.863594 27.745065 30.151255 26.60308 28.172214 C 25.469695 26.185319 23.361263 25.196262 20.274791 25.198313 Z M 13.318085 25.252663 " stroke="#fff7b3" stroke-width="0.9" stroke-opacity="1" stroke-miterlimit="4"/><g fill="#000000" fill-opacity="1"><g transform="translate(91.565697, 189.56912)"><g/></g></g><g fill="#000000" fill-opacity="1"><g transform="translate(92.39924, 179.811577)"><g><path d="M -6.0625 -17.75 L -10.265625 -12.625 C -11.835938 -10.738281 -13.46875 -9.578125 -15.15625 -9.140625 C -16.851562 -8.703125 -18.804688 -8.882812 -21.015625 -9.6875 C -24.222656 -10.84375 -26.085938 -12.398438 -26.609375 -14.359375 C -27.128906 -16.316406 -26.671875 -19.269531 -25.234375 -23.21875 C -23.890625 -26.945312 -22.347656 -30.007812 -20.609375 -32.40625 L -16.34375 -30.390625 C -17.332031 -27.960938 -18.484375 -24.929688 -19.796875 -21.296875 C -20.410156 -19.597656 -20.671875 -18.414062 -20.578125 -17.75 C -20.484375 -17.082031 -19.847656 -16.535156 -18.671875 -16.109375 C -17.710938 -15.753906 -16.941406 -15.710938 -16.359375 -15.984375 C -15.785156 -16.253906 -15.085938 -16.910156 -14.265625 -17.953125 L -10.34375 -22.796875 C -8.75 -24.773438 -7.09375 -25.976562 -5.375 -26.40625 C -3.664062 -26.84375 -1.71875 -26.664062 0.46875 -25.875 C 3.738281 -24.6875 5.671875 -23.085938 6.265625 -21.078125 C 6.867188 -19.078125 6.4375 -16.039062 4.96875 -11.96875 C 3.769531 -8.675781 2.191406 -5.472656 0.234375 -2.359375 L -4.28125 -4.4375 C -1.96875 -10.382812 -0.734375 -13.566406 -0.578125 -13.984375 C 0.046875 -15.710938 0.28125 -16.929688 0.125 -17.640625 C -0.03125 -18.347656 -0.6875 -18.914062 -1.84375 -19.34375 C -2.832031 -19.695312 -3.601562 -19.75 -4.15625 -19.5 C -4.707031 -19.257812 -5.34375 -18.675781 -6.0625 -17.75 Z M -6.0625 -17.75 "/></g></g></g><g fill="#000000" fill-opacity="1"><g transform="translate(100.665632, 156.343051)"><g><path d="M -5.9375 -36.09375 L -11.21875 -28.484375 L 9.6875 -13.9375 L 5.75 -8.28125 L -15.15625 -22.828125 L -20.4375 -15.21875 L -25.015625 -18.390625 L -10.515625 -39.265625 Z M -5.9375 -36.09375 "/></g></g></g><g fill="#000000" fill-opacity="1"><g transform="translate(114.983022, 135.172132)"><g><path d="M 21.28125 -17.609375 L 15.703125 -13 L 7.84375 -18.828125 C 6.976562 -19.398438 6.234375 -19.671875 5.609375 -19.640625 C 4.992188 -19.609375 4.332031 -19.300781 3.625 -18.71875 L -0.125 -15.671875 L 7.625 -6.3125 L 2.4375 -2.015625 L -17.359375 -25.9375 C -15.398438 -27.914062 -12.453125 -30.535156 -8.515625 -33.796875 C -5.304688 -36.453125 -2.609375 -37.828125 -0.421875 -37.921875 C 1.753906 -38.015625 3.953125 -36.71875 6.171875 -34.03125 C 7.617188 -32.28125 8.398438 -30.613281 8.515625 -29.03125 C 8.640625 -27.457031 7.96875 -25.882812 6.5 -24.3125 L 6.640625 -24.140625 C 8.816406 -25.242188 10.945312 -24.984375 13.03125 -23.359375 Z M -3.484375 -19.734375 L 0.328125 -22.890625 C 1.710938 -24.035156 2.460938 -25.054688 2.578125 -25.953125 C 2.703125 -26.847656 2.21875 -27.953125 1.125 -29.265625 C 0.0390625 -30.578125 -0.941406 -31.257812 -1.828125 -31.3125 C -2.710938 -31.363281 -3.859375 -30.804688 -5.265625 -29.640625 L -9.046875 -26.453125 Z M -3.484375 -19.734375 "/></g></g></g><g fill="#000000" fill-opacity="1"><g transform="translate(136.154213, 117.650743)"><g><path d="M 19.5 -14.703125 L 21.859375 -10.21875 C 19.410156 -8.78125 15.097656 -6.664062 8.921875 -3.875 C 7.023438 -3.019531 5.285156 -2.851562 3.703125 -3.375 C 2.117188 -3.894531 0.914062 -5.023438 0.09375 -6.765625 L -7.65625 -23.90625 C -8.414062 -25.664062 -8.46875 -27.3125 -7.8125 -28.84375 C -7.15625 -30.375 -5.878906 -31.566406 -3.984375 -32.421875 C 2.191406 -35.210938 6.628906 -37.050781 9.328125 -37.9375 L 11.125 -33.1875 L 0.234375 -28.265625 C -0.441406 -27.953125 -0.851562 -27.5625 -1 -27.09375 C -1.15625 -26.632812 -1.066406 -26.039062 -0.734375 -25.3125 L 1.21875 -21 L 12.5 -26.09375 L 14.53125 -21.59375 L 3.25 -16.5 L 5.71875 -11.03125 C 6.0625 -10.269531 6.457031 -9.789062 6.90625 -9.59375 C 7.363281 -9.40625 7.929688 -9.46875 8.609375 -9.78125 Z M 19.5 -14.703125 "/></g></g></g><g fill="#000000" fill-opacity="1"><g transform="translate(158.596798, 107.331763)"><g><path d="M 22.5625 -9.328125 L 23.71875 -4.421875 C 20.988281 -3.640625 16.285156 -2.671875 9.609375 -1.515625 C 7.566406 -1.160156 5.84375 -1.429688 4.4375 -2.328125 C 3.03125 -3.234375 2.144531 -4.628906 1.78125 -6.515625 L -1.421875 -25.0625 C -1.710938 -26.957031 -1.347656 -28.5625 -0.328125 -29.875 C 0.691406 -31.195312 2.222656 -32.035156 4.265625 -32.390625 C 10.941406 -33.546875 15.695312 -34.210938 18.53125 -34.390625 L 19.109375 -29.328125 L 7.34375 -27.296875 C 6.601562 -27.171875 6.101562 -26.898438 5.84375 -26.484375 C 5.582031 -26.066406 5.519531 -25.460938 5.65625 -24.671875 L 6.453125 -20.015625 L 18.640625 -22.125 L 19.484375 -17.25 L 7.296875 -15.140625 L 8.3125 -9.234375 C 8.457031 -8.410156 8.722656 -7.847656 9.109375 -7.546875 C 9.492188 -7.253906 10.054688 -7.171875 10.796875 -7.296875 Z M 22.5625 -9.328125 "/></g></g></g><g fill="#000000" fill-opacity="1"><g transform="translate(182.828569, 102.903662)"><g><path d="M 28.375 -23.078125 L 19.140625 -23.890625 L 16.90625 1.484375 L 10.046875 0.875 L 12.28125 -24.5 L 3.046875 -25.296875 L 3.53125 -30.84375 L 28.859375 -28.625 Z M 28.375 -23.078125 "/></g></g></g><g fill="#000000" fill-opacity="1"><g transform="translate(208.531191, 105.136676)"><g><path d="M 30.734375 -16.296875 L 20.265625 -20.015625 C 19.441406 -20.316406 18.789062 -20.359375 18.3125 -20.140625 C 17.832031 -19.921875 17.457031 -19.429688 17.1875 -18.671875 L 15.40625 -13.671875 L 26.609375 -9.6875 L 24.9375 -4.984375 L 13.734375 -8.96875 L 9.359375 3.328125 L 2.890625 1.03125 L 11.1875 -22.28125 C 11.851562 -24.144531 12.960938 -25.410156 14.515625 -26.078125 C 16.078125 -26.753906 17.832031 -26.742188 19.78125 -26.046875 C 26 -23.835938 30.328125 -22.125 32.765625 -20.90625 Z M 30.734375 -16.296875 "/></g></g></g><g fill="#000000" fill-opacity="1"><g transform="translate(230.866645, 112.455986)"><g><path d="M 20.3125 -20.1875 C 23.21875 -20.957031 26.707031 -19.910156 30.78125 -17.046875 C 34.851562 -14.179688 37.023438 -11.25 37.296875 -8.25 C 37.578125 -5.25 35.945312 -1.234375 32.40625 3.796875 C 28.875 8.828125 25.648438 11.71875 22.734375 12.46875 C 19.828125 13.226562 16.335938 12.175781 12.265625 9.3125 C 8.191406 6.445312 6.019531 3.519531 5.75 0.53125 C 5.476562 -2.445312 7.109375 -6.453125 10.640625 -11.484375 C 14.179688 -16.515625 17.40625 -19.414062 20.3125 -20.1875 Z M 30.25 -7.9375 C 30.394531 -9.625 29.507812 -11.140625 27.59375 -12.484375 C 25.675781 -13.835938 23.945312 -14.160156 22.40625 -13.453125 C 20.863281 -12.742188 18.910156 -10.707031 16.546875 -7.34375 C 14.179688 -3.976562 12.925781 -1.453125 12.78125 0.234375 C 12.632812 1.929688 13.519531 3.453125 15.4375 4.796875 C 17.351562 6.148438 19.082031 6.46875 20.625 5.75 C 22.164062 5.039062 24.117188 3.003906 26.484375 -0.359375 C 28.847656 -3.722656 30.101562 -6.25 30.25 -7.9375 Z M 30.25 -7.9375 "/></g></g></g><g fill="#000000" fill-opacity="1"><g transform="translate(254.674157, 128.840207)"><g><path d="M 25.3125 -13.375 C 28.320312 -13.257812 31.359375 -11.238281 34.421875 -7.3125 C 37.484375 -3.382812 38.707031 0.0507812 38.09375 3 C 37.476562 5.945312 34.742188 9.3125 29.890625 13.09375 C 25.046875 16.875 21.117188 18.703125 18.109375 18.578125 C 15.109375 18.453125 12.078125 16.425781 9.015625 12.5 C 5.953125 8.570312 4.726562 5.132812 5.34375 2.1875 C 5.957031 -0.75 8.6875 -4.109375 13.53125 -7.890625 C 18.382812 -11.671875 22.3125 -13.5 25.3125 -13.375 Z M 31.25 1.234375 C 31.882812 -0.347656 31.476562 -2.0625 30.03125 -3.90625 C 28.59375 -5.757812 27.03125 -6.566406 25.34375 -6.328125 C 23.664062 -6.097656 21.203125 -4.71875 17.953125 -2.1875 C 14.710938 0.332031 12.773438 2.378906 12.140625 3.953125 C 11.515625 5.523438 11.921875 7.234375 13.359375 9.078125 C 14.804688 10.929688 16.367188 11.742188 18.046875 11.515625 C 19.734375 11.296875 22.195312 9.921875 25.4375 7.390625 C 28.6875 4.867188 30.625 2.816406 31.25 1.234375 Z M 31.25 1.234375 "/></g></g></g><g fill="#000000" fill-opacity="1"><g transform="translate(272.661167, 151.472686)"><g><path d="M 1.125 2.953125 L 30.109375 -8.1875 C 31.890625 -4.3125 33.457031 -0.613281 34.8125 2.90625 C 36.59375 7.53125 36.765625 11.15625 35.328125 13.78125 C 33.890625 16.40625 30.34375 18.800781 24.6875 20.96875 C 19.039062 23.144531 14.804688 23.738281 11.984375 22.75 C 9.160156 21.757812 6.859375 18.953125 5.078125 14.328125 C 3.722656 10.804688 2.40625 7.015625 1.125 2.953125 Z M 27.90625 -0.03125 L 8.28125 7.5 C 8.46875 7.976562 8.765625 8.757812 9.171875 9.84375 C 9.578125 10.925781 9.894531 11.773438 10.125 12.390625 C 10.957031 14.546875 12.210938 15.757812 13.890625 16.03125 C 15.566406 16.300781 18.304688 15.703125 22.109375 14.234375 C 25.921875 12.773438 28.363281 11.378906 29.4375 10.046875 C 30.519531 8.722656 30.644531 6.984375 29.8125 4.828125 Z M 27.90625 -0.03125 "/></g></g></g><g fill="#000000" fill-opacity="1"><g transform="translate(282.513967, 179.925702)"><g/></g></g></svg>