<svg xmlns="http://www.w3.org/2000/svg" xmlns:xlink="http://www.w3.org/1999/xlink" width="500" zoomAndPan="magnify" viewBox="0 0 375 374.999991" height="500" preserveAspectRatio="xMidYMid meet" version="1.0"><defs><g/><clipPath id="9b33675bcc"><path d="M 45.238281 45.238281 L 329.761719 45.238281 L 329.761719 329.761719 L 45.238281 329.761719 Z M 45.238281 45.238281 " clip-rule="nonzero"/></clipPath><clipPath id="37edcf3372"><path d="M 187.5 45.238281 C 108.929688 45.238281 45.238281 108.929688 45.238281 187.5 C 45.238281 266.070312 108.929688 329.761719 187.5 329.761719 C 266.070312 329.761719 329.761719 266.070312 329.761719 187.5 C 329.761719 108.929688 266.070312 45.238281 187.5 45.238281 Z M 187.5 45.238281 " clip-rule="nonzero"/></clipPath><clipPath id="84fd6b5c6e"><path d="M 136 127 L 238 127 L 238 294.566406 L 136 294.566406 Z M 136 127 " clip-rule="nonzero"/></clipPath></defs><g clip-path="url(#9b33675bcc)"><g clip-path="url(#37edcf3372)"><path fill="#f2f2f0" d="M 45.238281 45.238281 L 329.761719 45.238281 L 329.761719 329.761719 L 45.238281 329.761719 Z M 45.238281 45.238281 " fill-opacity="1" fill-rule="nonzero"/></g></g><g clip-path="url(#84fd6b5c6e)"><path fill="#000000" d="M 203.917969 157.054688 C 203.441406 157.652344 204.484375 157.871094 204.746094 157.535156 C 205.234375 156.914062 204.070312 156.859375 203.917969 157.054688 Z M 202.84375 158.492188 C 202.941406 159.046875 202.800781 159.578125 202.808594 160.144531 C 202.265625 162.941406 206.625 162.386719 207.007812 160.132812 C 208.757812 156.992188 205.167969 159.011719 203.832031 158.089844 C 203.832031 158.109375 202.917969 158.351562 202.84375 158.492188 Z M 187.609375 261.960938 C 188.175781 262.328125 187.503906 262.308594 187.644531 262.6875 C 187.871094 262.777344 187.992188 262.832031 187.992188 263.125 C 190.058594 265.003906 189.1875 260.285156 187.609375 261.960938 Z M 187.199219 289.683594 C 187.207031 289.261719 186.101562 288.78125 186.414062 289.738281 C 186.535156 290.335938 187.414062 290.609375 187.199219 289.683594 Z M 186.164062 291.207031 C 185.328125 290.75 184.882812 292.25 186.328125 291.609375 C 186.523438 291.414062 186.164062 291.175781 186.046875 291.066406 C 186.078125 291.109375 186.121094 291.164062 186.164062 291.207031 Z M 186.859375 291.164062 C 186.980469 291.273438 187.15625 290.71875 186.839844 290.78125 C 186.414062 290.859375 186.796875 291.085938 186.859375 291.164062 Z M 184.328125 290.480469 C 183.847656 290.835938 186.054688 290.988281 185.75 290.542969 C 185.644531 290.378906 184.449219 290.390625 184.328125 290.480469 Z M 186.882812 292.46875 C 187.1875 292.523438 189.523438 293.371094 188.371094 292.523438 C 188.066406 292.011719 185.96875 291.902344 186.882812 292.46875 Z M 194.492188 293.859375 C 194.480469 294.394531 195.070312 294.351562 195.546875 294.40625 C 195.035156 294.328125 195.046875 293.894531 194.492188 293.859375 Z M 177.683594 285.585938 C 177.707031 285.976562 178.175781 286.769531 178.695312 286.53125 C 179.390625 286.214844 177.957031 285.617188 177.683594 285.585938 Z M 176.75 284.941406 C 175.824219 283.679688 175.78125 285.53125 176.824219 285.933594 C 176.933594 285.59375 176.695312 285.28125 176.75 284.941406 Z M 170.105469 269.898438 C 169.824219 270.042969 170.714844 270.574219 170.933594 270.355469 C 171.574219 270.042969 170.390625 269.878906 170.105469 269.898438 Z M 171.304688 268.789062 C 171.128906 268.5625 170.835938 268.074219 170.457031 268.398438 C 170.007812 269.160156 172.511719 270.25 171.304688 268.789062 Z M 171.367188 268.0625 C 171.109375 267.136719 169.8125 267.996094 169.085938 267.777344 C 169.769531 268.332031 170.671875 268.074219 171.367188 268.0625 Z M 172.414062 268.128906 C 172.835938 268.074219 172.617188 267.539062 172.261719 267.550781 C 171.707031 267.550781 171.902344 268.191406 172.414062 268.128906 Z M 169.683594 263.449219 C 168.390625 262.449219 169.804688 262.035156 168.410156 261.210938 C 167.042969 261.851562 170.160156 267.171875 169.683594 263.449219 Z M 142.480469 136.25 C 143.679688 137.183594 142.808594 137.109375 142.972656 138.480469 C 143.753906 139.621094 144.1875 140.730469 145.046875 141.6875 C 144.296875 145.394531 146.265625 150.203125 141.730469 152.183594 C 142.1875 153.664062 141.460938 152.902344 140.863281 153.554688 C 142.394531 155.011719 139.503906 154.761719 138.816406 155.511719 C 138.601562 158.523438 134.9375 162.253906 138.316406 164.570312 C 138.15625 165.625 138.980469 164.832031 138.808594 164.277344 C 137.796875 164.058594 139.242188 163.691406 139.425781 164.210938 C 137.058594 167.714844 135.425781 167.996094 136.980469 172.152344 C 140.6875 176.65625 146.644531 186.28125 149.015625 193.296875 C 152.734375 197.84375 159.277344 198.820312 162.605469 203.554688 C 165.441406 215.84375 162.976562 228.167969 166.0625 240.066406 C 166.945312 244.808594 163.628906 249.867188 166.8125 254.140625 C 168 256.425781 166.183594 259.785156 169.105469 261.382812 C 168.335938 260.316406 169.617188 261.132812 169.605469 260.546875 C 168.878906 259.449219 170.042969 260.164062 170.378906 260.492188 C 171.410156 259.523438 170.726562 260.4375 170.660156 261.113281 C 171.628906 261.589844 170.652344 262.046875 171.117188 262.546875 C 170.910156 263.40625 171.804688 263.90625 171.214844 264.636719 C 171.792969 265.527344 172.304688 265.496094 171.945312 266.617188 C 174.183594 267.636719 172.25 268.226562 172.402344 269.671875 C 170.683594 269.59375 172.128906 270.226562 172.5625 270.902344 C 172.542969 270.855469 172.804688 271.671875 172.824219 271.554688 C 172.664062 272.261719 171.542969 270.867188 171.511719 270.835938 C 171.085938 270.402344 169.117188 270.652344 170.054688 271.367188 C 168.183594 272.640625 170.859375 274.523438 169.714844 272.621094 C 175.238281 273.761719 171.410156 273.128906 172.707031 275.394531 C 172.75 276.285156 173.707031 276.328125 174.152344 277.210938 C 173.707031 278.710938 173.019531 275.9375 172.160156 276.175781 C 172.445312 274.640625 171.792969 276.285156 171.292969 275.816406 C 170.476562 278.15625 173.109375 277.023438 173 277.980469 C 172.824219 278.667969 171.597656 277.078125 171.792969 278.132812 C 172.324219 278.472656 171.933594 279.070312 172.921875 279.382812 C 173.402344 279.984375 172.726562 279.503906 172.640625 279.839844 C 172.78125 280.222656 173.25 280.199219 173.476562 280.375 C 173.761719 281.15625 173.511719 282.453125 174.519531 282.558594 C 174.769531 281.527344 174.195312 281.003906 173.847656 280.503906 C 174.574219 280.15625 175.433594 281.125 175.71875 281.753906 C 174.664062 283.277344 176.03125 282.558594 175.71875 283.757812 C 174.664062 284.019531 175.488281 285.09375 176.109375 284.179688 C 176.835938 279.960938 178.980469 288.554688 180.578125 284.703125 C 181.902344 285.433594 179.261719 286.117188 179.945312 287 C 182.1875 286.300781 186.664062 286.714844 180.652344 287.5625 C 182.566406 288.988281 178.96875 287.433594 178.195312 287.378906 C 179.859375 290.128906 186.902344 285.550781 183.761719 288.78125 C 181.632812 288.085938 181.597656 289.988281 183.242188 290.480469 C 183.9375 290.371094 183.980469 289.933594 183.445312 289.511719 C 182.304688 288.261719 184.949219 289.945312 185.304688 290.03125 C 187.480469 289.726562 183.304688 286.8125 186.4375 286.683594 C 188.609375 286.128906 185.589844 288.054688 186.664062 288.597656 C 190.871094 288.433594 185.1875 289.914062 190.1875 291.140625 C 187.394531 290.042969 186.894531 292.957031 189.644531 291.847656 C 189.871094 292.195312 189.351562 292.664062 189.863281 293.011719 C 191.992188 294.492188 190.644531 292.359375 191.816406 293.054688 C 191.699219 293.828125 192.101562 293.859375 192.722656 293.566406 C 193.046875 293.894531 193.394531 294.566406 193.992188 294.285156 C 191.546875 291.632812 192.980469 293.40625 195.363281 293.230469 C 193.699219 291.75 197.234375 293.9375 196.082031 292.511719 C 196.679688 292.457031 197.382812 292.382812 197.984375 292.316406 C 194.570312 290.761719 189.21875 288.292969 187.457031 285.933594 C 191.96875 287.355469 184.894531 283.757812 186.242188 281.636719 C 187.773438 280.90625 187.992188 280.035156 187.328125 278.492188 C 193.308594 273.023438 185.175781 274.792969 184.589844 270.757812 C 184.195312 269.792969 185.851562 268.464844 186.652344 268.746094 C 188.175781 269.0625 186.566406 267.878906 187.414062 267.222656 C 186.425781 265.582031 187.339844 264.691406 187.804688 263.699219 C 187.109375 263.1875 186 263.332031 187.21875 262.535156 C 186.285156 261.492188 185.394531 260.308594 184.859375 258.675781 C 187.523438 258.304688 191.308594 261.570312 189.925781 255.945312 C 187.914062 251.886719 191.535156 255.152344 194.4375 253.550781 C 197.253906 253.855469 201.136719 248.332031 197.839844 247.234375 C 196.917969 243.449219 195.796875 244.828125 193.949219 242.328125 C 203.363281 245.742188 204.765625 243.132812 206.136719 235.117188 C 209.050781 230.484375 208.039062 233.636719 207.105469 236.03125 C 210.34375 231.386719 212.671875 225.914062 210.800781 220.53125 C 211.300781 220.683594 211.179688 220.421875 211.0625 220.128906 C 211.726562 220.410156 212.519531 220.117188 212.019531 219.355469 C 213.53125 218.574219 214.78125 217.332031 216.09375 216.410156 C 216.898438 216.519531 218.140625 217.398438 217.191406 215.941406 C 218.085938 216.320312 217.910156 214.875 218.945312 215.386719 C 218.09375 213.613281 219.921875 215.222656 219.945312 214.191406 C 220.921875 214.289062 221.410156 215.210938 221.855469 213.808594 C 222.085938 214.679688 224.847656 215.027344 224.421875 213.242188 C 227.019531 211.863281 226.28125 208.296875 228.414062 206.097656 C 229.121094 201.085938 229.566406 195.449219 229.128906 190.675781 C 229.566406 190.023438 229.207031 187.707031 230.21875 189.566406 C 231.402344 189.03125 232.785156 185.769531 232.71875 184.203125 C 237.402344 183.574219 239.914062 170.714844 234.292969 170.421875 C 230.023438 169.554688 227.847656 163.375 222.707031 165.027344 C 221.652344 164.964844 219.445312 163.363281 218.660156 163.996094 C 217.441406 163.058594 215.191406 167.441406 216.03125 164.070312 C 214.941406 163.351562 217.148438 162.441406 215.59375 162.191406 C 213.898438 161.351562 211.007812 159.1875 208.355469 159.566406 C 207.722656 161.449219 206.179688 161.949219 205.441406 163.898438 C 204.941406 163.429688 205.984375 161.65625 204.875 162.90625 C 204.460938 161.984375 203.320312 162.929688 202.753906 162.082031 C 202.148438 158.839844 200.808594 162.113281 199.253906 161.65625 C 198.4375 160.929688 204.015625 159.960938 201.027344 159.175781 C 201.832031 157.730469 203.265625 156.285156 204.441406 154.957031 C 204.113281 154.5 205.09375 153.542969 203.941406 153.25 C 203.332031 153.109375 203.59375 151.324219 203.058594 152.714844 C 201.917969 151.214844 202.746094 147.863281 201.015625 147.167969 C 200.753906 146.886719 200.722656 146.417969 200.332031 146.253906 C 197.492188 142.882812 193.320312 142.90625 189.523438 142.839844 C 188.796875 143.613281 187.230469 139.566406 186.394531 141.023438 C 185.957031 136.464844 182.492188 136.921875 179.621094 136.378906 C 183.054688 135.933594 179.609375 132.050781 178.195312 133.605469 C 177.828125 132.289062 176.25 131.691406 178.128906 131.550781 C 177.835938 130.746094 174.414062 131.667969 173.542969 132.324219 C 171.304688 133.800781 169.5 130.515625 167.007812 131.679688 C 165.800781 132.234375 165.140625 131.484375 165.238281 130.300781 C 163.476562 127.808594 156.386719 130.105469 159.0625 133.441406 C 159.476562 136.53125 156.0625 134.78125 157.246094 132.777344 C 158.507812 131.820312 158.179688 130.722656 157.355469 129.679688 C 161.691406 127.296875 158.070312 125.816406 155.660156 129.027344 C 154.058594 129.984375 152.515625 129.15625 151.972656 131.027344 C 151.679688 130.777344 151.222656 129.886719 150.851562 130.582031 C 148.308594 132.289062 149.808594 134.660156 146.429688 136.402344 C 146.484375 139.023438 145.320312 135.769531 144.082031 135.019531 " fill-opacity="1" fill-rule="nonzero"/></g><g fill="#000000" fill-opacity="1"><g transform="translate(83.636419, 180.280104)"><g><path d="M -4.09375 -18.3125 L -8.828125 -13.671875 C -10.585938 -11.960938 -12.332031 -10.976562 -14.0625 -10.71875 C -15.800781 -10.46875 -17.722656 -10.863281 -19.828125 -11.90625 C -22.890625 -13.40625 -24.570312 -15.15625 -24.875 -17.15625 C -25.175781 -19.164062 -24.398438 -22.054688 -22.546875 -25.828125 C -20.804688 -29.378906 -18.941406 -32.253906 -16.953125 -34.453125 L -12.953125 -32 C -14.179688 -29.6875 -15.648438 -26.796875 -17.359375 -23.328125 C -18.148438 -21.710938 -18.535156 -20.566406 -18.515625 -19.890625 C -18.503906 -19.210938 -17.9375 -18.597656 -16.8125 -18.046875 C -15.894531 -17.585938 -15.132812 -17.460938 -14.53125 -17.671875 C -13.925781 -17.878906 -13.160156 -18.453125 -12.234375 -19.390625 L -7.796875 -23.78125 C -5.992188 -25.582031 -4.21875 -26.601562 -2.46875 -26.84375 C -0.726562 -27.082031 1.1875 -26.6875 3.28125 -25.65625 C 6.40625 -24.125 8.15625 -22.328125 8.53125 -20.265625 C 8.90625 -18.210938 8.140625 -15.25 6.234375 -11.375 C 4.679688 -8.226562 2.769531 -5.207031 0.5 -2.3125 L -3.78125 -4.859375 C -0.820312 -10.523438 0.753906 -13.5625 0.953125 -13.96875 C 1.753906 -15.613281 2.113281 -16.796875 2.03125 -17.515625 C 1.957031 -18.242188 1.367188 -18.878906 0.265625 -19.421875 C -0.679688 -19.890625 -1.4375 -20.03125 -2 -19.84375 C -2.570312 -19.65625 -3.269531 -19.144531 -4.09375 -18.3125 Z M -4.09375 -18.3125 "/></g></g></g><g fill="#000000" fill-opacity="1"><g transform="translate(94.625375, 157.520434)"><g><path d="M 3.0625 -19.75 L 10.953125 -13.1875 L 6.5625 -7.890625 L -1.328125 -14.453125 L -23.890625 -19.84375 L -19.3125 -25.34375 L -7.25 -22.046875 C -6.539062 -21.859375 -5.285156 -21.328125 -3.484375 -20.453125 L -3.1875 -20.796875 C -4.21875 -22.109375 -4.984375 -23.226562 -5.484375 -24.15625 L -10.953125 -35.421875 L -6.4375 -40.859375 Z M 3.0625 -19.75 "/></g></g></g><g fill="#000000" fill-opacity="1"><g transform="translate(111.08113, 137.152007)"><g><path d="M 2.5625 -1.84375 L -15.578125 -27.03125 C -12.273438 -29.75 -9.09375 -32.210938 -6.03125 -34.421875 C -2.007812 -37.316406 1.445312 -38.398438 4.34375 -37.671875 C 7.25 -36.941406 10.46875 -34.117188 14 -29.203125 C 17.539062 -24.285156 19.191406 -20.335938 18.953125 -17.359375 C 18.722656 -14.390625 16.597656 -11.457031 12.578125 -8.5625 C 9.515625 -6.351562 6.175781 -4.113281 2.5625 -1.84375 Z M -7.125 -26.984375 L 5.15625 -9.921875 C 5.5625 -10.222656 6.238281 -10.707031 7.1875 -11.375 C 8.132812 -12.039062 8.878906 -12.566406 9.421875 -12.953125 C 11.296875 -14.296875 12.148438 -15.8125 11.984375 -17.5 C 11.816406 -19.195312 10.539062 -21.695312 8.15625 -25 C 5.78125 -28.3125 3.8125 -30.316406 2.25 -31.015625 C 0.6875 -31.722656 -1.03125 -31.40625 -2.90625 -30.0625 Z M -7.125 -26.984375 "/></g></g></g><g fill="#000000" fill-opacity="1"><g transform="translate(134.782676, 119.977467)"><g><path d="M 15.796875 -14.703125 L 5.8125 -10.921875 L 6.609375 -2.5 L 0.046875 -0.015625 L -1.984375 -30.53125 C -2.046875 -31.09375 -1.925781 -31.601562 -1.625 -32.0625 C -1.320312 -32.53125 -0.898438 -32.867188 -0.359375 -33.078125 L 5.6875 -35.375 C 6.882812 -35.832031 7.835938 -35.550781 8.546875 -34.53125 L 27.296875 -10.359375 L 20.78125 -7.890625 Z M 12.515625 -19.140625 L 6.71875 -27.09375 C 5.832031 -28.375 5.28125 -29.207031 5.0625 -29.59375 L 3.9375 -29.171875 C 3.988281 -28.867188 4.0625 -28.378906 4.15625 -27.703125 C 4.257812 -27.035156 4.320312 -26.535156 4.34375 -26.203125 L 5.265625 -16.390625 Z M 12.515625 -19.140625 "/></g></g></g><g fill="#000000" fill-opacity="1"><g transform="translate(160.018175, 109.143683)"><g><path d="M 26.140625 -32.6875 L 32.734375 -33.09375 C 34.390625 -33.195312 35.300781 -32.398438 35.46875 -30.703125 L 38.390625 -2.34375 L 31.9375 -1.953125 L 29.328125 -27.515625 L 28.5625 -27.46875 L 25.078125 -8.015625 C 24.859375 -6.535156 23.96875 -5.742188 22.40625 -5.640625 L 17.921875 -5.375 C 16.367188 -5.28125 15.398438 -5.957031 15.015625 -7.40625 L 9.125 -26.296875 L 8.359375 -26.25 L 9.03125 -0.546875 L 2.5625 -0.15625 L 1.953125 -28.65625 C 1.941406 -30.363281 2.738281 -31.265625 4.34375 -31.359375 L 10.953125 -31.765625 C 12.421875 -31.859375 13.363281 -31.1875 13.78125 -29.75 L 18.5 -14.5 C 18.800781 -13.539062 19.160156 -12.109375 19.578125 -10.203125 L 20.171875 -10.25 C 20.191406 -10.394531 20.257812 -11.015625 20.375 -12.109375 C 20.5 -13.203125 20.609375 -14.046875 20.703125 -14.640625 L 23.5 -30.328125 C 23.757812 -31.804688 24.640625 -32.59375 26.140625 -32.6875 Z M 26.140625 -32.6875 "/></g></g></g><g fill="#000000" fill-opacity="1"><g transform="translate(199.085936, 107.584281)"><g><path d="M 24.421875 0.171875 L 23.578125 5.15625 C 20.753906 4.8125 16.039062 3.875 9.4375 2.34375 C 7.414062 1.875 5.929688 0.953125 4.984375 -0.421875 C 4.046875 -1.804688 3.78125 -3.4375 4.1875 -5.3125 L 8.4375 -23.640625 C 8.90625 -25.503906 9.863281 -26.84375 11.3125 -27.65625 C 12.757812 -28.46875 14.492188 -28.640625 16.515625 -28.171875 C 23.117188 -26.640625 27.765625 -25.410156 30.453125 -24.484375 L 29 -19.59375 L 17.359375 -22.296875 C 16.628906 -22.460938 16.0625 -22.40625 15.65625 -22.125 C 15.257812 -21.851562 14.972656 -21.328125 14.796875 -20.546875 L 13.734375 -15.9375 L 25.78125 -13.140625 L 24.65625 -8.328125 L 12.609375 -11.125 L 11.25 -5.28125 C 11.0625 -4.46875 11.085938 -3.847656 11.328125 -3.421875 C 11.566406 -2.992188 12.050781 -2.695312 12.78125 -2.53125 Z M 24.421875 0.171875 "/></g></g></g><g fill="#000000" fill-opacity="1"><g transform="translate(223.443488, 112.926277)"><g><path d="M 24.640625 12.5 L 18.1875 9.21875 L 20.390625 -0.296875 C 20.566406 -1.328125 20.519531 -2.117188 20.25 -2.671875 C 19.976562 -3.234375 19.429688 -3.722656 18.609375 -4.140625 L 14.328125 -6.359375 L 8.828125 4.484375 L 2.8125 1.421875 L 16.859375 -26.265625 C 19.460938 -25.242188 23.039062 -23.578125 27.59375 -21.265625 C 31.3125 -19.378906 33.644531 -17.457031 34.59375 -15.5 C 35.550781 -13.539062 35.242188 -11.007812 33.671875 -7.90625 C 32.640625 -5.863281 31.425781 -4.472656 30.03125 -3.734375 C 28.632812 -2.992188 26.921875 -2.988281 24.890625 -3.71875 L 24.796875 -3.53125 C 26.660156 -1.96875 27.265625 0.09375 26.609375 2.65625 Z M 16.703125 -11.046875 L 21.109375 -8.8125 C 22.710938 -8 23.953125 -7.71875 24.828125 -7.96875 C 25.703125 -8.21875 26.523438 -9.101562 27.296875 -10.625 C 28.066406 -12.144531 28.296875 -13.320312 27.984375 -14.15625 C 27.679688 -14.988281 26.710938 -15.816406 25.078125 -16.640625 L 20.65625 -18.828125 Z M 16.703125 -11.046875 "/></g></g></g><g fill="#000000" fill-opacity="1"><g transform="translate(248.692705, 126.558157)"><g><path d="M 7.890625 6.125 L 2.5 1.9375 L 21.546875 -22.578125 L 26.9375 -18.390625 Z M 7.890625 6.125 "/></g></g></g><g fill="#000000" fill-opacity="1"><g transform="translate(259.458229, 133.996511)"><g><path d="M 18.421875 0.21875 L 16.671875 -1.765625 C 15.898438 -0.816406 15.21875 -0.0820312 14.625 0.4375 L 6.59375 7.5 L 2.078125 2.375 L 25.390625 -18.125 L 29.90625 -13 L 23.328125 -7.21875 C 22.328125 -6.34375 21.332031 -5.601562 20.34375 -5 L 22.09375 -3.015625 L 36.65625 -5.328125 L 41.5625 0.25 L 26.96875 2.40625 C 25.96875 2.613281 24.859375 2.59375 23.640625 2.34375 L 23.5 2.46875 C 23.644531 3.769531 23.535156 5.023438 23.171875 6.234375 L 18.609375 21.15625 L 13.546875 15.40625 Z M 18.421875 0.21875 "/></g></g></g><g fill="#000000" fill-opacity="1"><g transform="translate(277.584005, 154.30624)"><g><path d="M 16.296875 14.15625 L 11.46875 4.640625 L 3.1875 6.296875 L 0.015625 0.046875 L 30.15625 -5.1875 C 30.695312 -5.3125 31.21875 -5.25 31.71875 -5 C 32.21875 -4.757812 32.59375 -4.382812 32.84375 -3.875 L 35.78125 1.90625 C 36.363281 3.050781 36.1875 4.03125 35.25 4.84375 L 13.203125 26.046875 L 10.046875 19.828125 Z M 20.359375 10.421875 L 27.65625 3.796875 C 28.832031 2.796875 29.601562 2.171875 29.96875 1.921875 L 29.421875 0.84375 C 29.128906 0.925781 28.648438 1.046875 27.984375 1.203125 C 27.328125 1.367188 26.832031 1.484375 26.5 1.546875 L 16.859375 3.515625 Z M 20.359375 10.421875 "/></g></g></g></svg>