<svg xmlns="http://www.w3.org/2000/svg" xmlns:xlink="http://www.w3.org/1999/xlink" width="500" zoomAndPan="magnify" viewBox="0 0 375 374.999991" height="500" preserveAspectRatio="xMidYMid meet" version="1.0"><defs><g/><clipPath id="21c6481e9a"><path d="M 45.238281 45.238281 L 329.761719 45.238281 L 329.761719 329.761719 L 45.238281 329.761719 Z M 45.238281 45.238281 " clip-rule="nonzero"/></clipPath><clipPath id="edc242fd98"><path d="M 187.5 45.238281 C 108.929688 45.238281 45.238281 108.929688 45.238281 187.5 C 45.238281 266.070312 108.929688 329.761719 187.5 329.761719 C 266.070312 329.761719 329.761719 266.070312 329.761719 187.5 C 329.761719 108.929688 266.070312 45.238281 187.5 45.238281 Z M 187.5 45.238281 " clip-rule="nonzero"/></clipPath><clipPath id="c8c30711f4"><path d="M 122 124.195312 L 253 124.195312 L 253 156 L 122 156 Z M 122 124.195312 " clip-rule="nonzero"/></clipPath><clipPath id="e5eb0a01db"><path d="M 122 262 L 253 262 L 253 293.695312 L 122 293.695312 Z M 122 262 " clip-rule="nonzero"/></clipPath><clipPath id="20543d8e71"><path d="M 103.230469 187 L 271.980469 187 L 271.980469 232 L 103.230469 232 Z M 103.230469 187 " clip-rule="nonzero"/></clipPath></defs><g clip-path="url(#21c6481e9a)"><g clip-path="url(#edc242fd98)"><path fill="#f2f2f0" d="M 45.238281 45.238281 L 329.761719 45.238281 L 329.761719 329.761719 L 45.238281 329.761719 Z M 45.238281 45.238281 " fill-opacity="1" fill-rule="nonzero"/></g></g><g clip-path="url(#c8c30711f4)"><path fill="#ed0606" d="M 252.445312 155.019531 L 122.835938 155.019531 C 138.3125 136.53125 161.585938 124.773438 187.640625 124.773438 C 213.695312 124.773438 236.972656 136.53125 252.445312 155.019531 Z M 252.445312 155.019531 " fill-opacity="1" fill-rule="nonzero"/></g><path fill="#ffffff" d="M 269.179688 187.101562 L 106.101562 187.101562 C 106.632812 185.097656 107.253906 183.113281 107.9375 181.167969 C 108.019531 180.921875 108.101562 180.664062 108.207031 180.402344 C 111.585938 171.066406 116.5625 162.492188 122.835938 155.019531 L 252.445312 155.019531 C 258.707031 162.492188 263.695312 171.066406 267.0625 180.402344 C 267.167969 180.664062 267.25 180.921875 267.34375 181.167969 C 268.027344 183.113281 268.640625 185.097656 269.179688 187.101562 Z M 269.179688 187.101562 " fill-opacity="1" fill-rule="nonzero"/><g clip-path="url(#e5eb0a01db)"><path fill="#ed0606" d="M 252.445312 262.839844 C 236.972656 281.316406 213.683594 293.070312 187.640625 293.070312 C 161.609375 293.070312 138.3125 281.316406 122.835938 262.839844 Z M 252.445312 262.839844 " fill-opacity="1" fill-rule="nonzero"/></g><path fill="#ffffff" d="M 269.167969 230.742188 C 269.109375 230.964844 269.050781 231.175781 268.992188 231.386719 C 268.496094 233.183594 267.945312 234.941406 267.332031 236.691406 C 267.25 236.949219 267.167969 237.195312 267.0625 237.453125 C 263.695312 246.789062 258.707031 255.367188 252.445312 262.839844 L 122.835938 262.839844 C 116.5625 255.367188 111.585938 246.789062 108.207031 237.453125 C 108.101562 237.195312 108.019531 236.949219 107.9375 236.691406 C 107.328125 234.941406 106.773438 233.183594 106.277344 231.386719 C 106.207031 231.175781 106.148438 230.964844 106.101562 230.742188 Z M 269.167969 230.742188 " fill-opacity="1" fill-rule="nonzero"/><g clip-path="url(#20543d8e71)"><path fill="#001982" d="M 272.039062 208.628906 L 272.039062 209.203125 C 272.015625 216.652344 271.015625 223.867188 269.167969 230.742188 C 269.109375 230.964844 269.050781 231.175781 268.992188 231.386719 L 106.277344 231.386719 C 106.207031 231.175781 106.148438 230.964844 106.101562 230.742188 C 104.242188 223.867188 103.253906 216.652344 103.230469 209.203125 L 103.230469 208.628906 C 103.253906 201.191406 104.253906 193.964844 106.101562 187.101562 L 269.179688 187.101562 C 271.015625 193.964844 272.015625 201.191406 272.039062 208.628906 Z M 272.039062 208.628906 " fill-opacity="1" fill-rule="nonzero"/></g><g fill="#000000" fill-opacity="1"><g transform="translate(97.008586, 153.568953)"><g><path d="M -1.296875 -36.53125 L -7.515625 -29.671875 L 11.375 -12.59375 L 6.765625 -7.46875 L -12.125 -24.546875 L -18.34375 -17.6875 L -22.484375 -21.4375 L -5.4375 -40.28125 Z M -1.296875 -36.53125 "/></g></g></g><g fill="#000000" fill-opacity="1"><g transform="translate(114.063968, 134.111086)"><g><path d="M 6.171875 -41.21875 L 23.234375 -15.28125 L 17.515625 -11.515625 L 9.90625 -23.09375 L 0.734375 -17.0625 L 8.34375 -5.484375 L 2.640625 -1.734375 L -14.421875 -27.671875 L -8.71875 -31.421875 L -2.1875 -21.5 L 6.984375 -27.53125 L 0.453125 -37.453125 Z M 6.171875 -41.21875 "/></g></g></g><g fill="#000000" fill-opacity="1"><g transform="translate(138.760407, 117.787223)"><g><path d="M 16.40625 -14 L 6.28125 -10.65625 L 6.703125 -2.21875 L 0.046875 -0.015625 L -0.640625 -30.59375 C -0.691406 -31.15625 -0.554688 -31.660156 -0.234375 -32.109375 C 0.0859375 -32.566406 0.519531 -32.882812 1.0625 -33.0625 L 7.203125 -35.09375 C 8.429688 -35.5 9.375 -35.175781 10.03125 -34.125 L 27.734375 -9.171875 L 21.109375 -6.984375 Z M 13.34375 -18.578125 L 7.890625 -26.78125 C 7.066406 -28.082031 6.554688 -28.9375 6.359375 -29.34375 L 5.21875 -28.96875 C 5.25 -28.664062 5.296875 -28.175781 5.359375 -27.5 C 5.421875 -26.820312 5.460938 -26.316406 5.484375 -25.984375 L 5.984375 -16.140625 Z M 13.34375 -18.578125 "/></g></g></g><g fill="#000000" fill-opacity="1"><g transform="translate(166.507807, 109.405093)"><g><path d="M 9.90625 -1.265625 L 3.125 -0.40625 L -0.8125 -31.203125 L 5.96875 -32.0625 Z M 9.90625 -1.265625 "/></g></g></g><g fill="#000000" fill-opacity="1"><g transform="translate(179.67861, 107.272085)"><g><path d="M 11.265625 -30.578125 L 10.234375 -7.4375 C 10.203125 -6.625 10.363281 -6.03125 10.71875 -5.65625 C 11.082031 -5.28125 11.695312 -5.070312 12.5625 -5.03125 L 23.234375 -4.5625 L 23.3125 0.671875 C 20.269531 0.867188 15.882812 0.84375 10.15625 0.59375 C 7.757812 0.488281 6.003906 -0.1875 4.890625 -1.4375 C 3.773438 -2.695312 3.257812 -4.332031 3.34375 -6.34375 L 4.4375 -30.875 Z M 11.265625 -30.578125 "/></g></g></g><g fill="#000000" fill-opacity="1"><g transform="translate(202.749113, 107.880157)"><g><path d="M 21.453125 -2.328125 L 11.203125 -5.265625 L 6.78125 1.953125 L 0.046875 0.015625 L 16.71875 -25.640625 C 16.976562 -26.117188 17.367188 -26.453125 17.890625 -26.640625 C 18.421875 -26.835938 18.960938 -26.859375 19.515625 -26.703125 L 25.734375 -24.921875 C 26.972656 -24.566406 27.570312 -23.773438 27.53125 -22.546875 L 28.078125 8.046875 L 21.375 6.125 Z M 21.484375 -7.84375 L 21.609375 -17.6875 C 21.671875 -19.226562 21.726562 -20.222656 21.78125 -20.671875 L 20.625 -21 C 20.476562 -20.726562 20.242188 -20.296875 19.921875 -19.703125 C 19.597656 -19.109375 19.347656 -18.664062 19.171875 -18.375 L 14.03125 -9.96875 Z M 21.484375 -7.84375 "/></g></g></g><g fill="#000000" fill-opacity="1"><g transform="translate(229.627272, 115.158507)"><g><path d="M 41.21875 -11.21875 L 26.328125 13.171875 C 25.472656 14.578125 24.351562 14.859375 22.96875 14.015625 L 19.328125 11.796875 C 18.734375 11.429688 18.351562 11.015625 18.1875 10.546875 C 18.019531 10.078125 17.972656 9.4375 18.046875 8.625 L 19.703125 -9.734375 C 19.972656 -12.140625 20.273438 -13.84375 20.609375 -14.84375 L 20.171875 -15.109375 C 19.566406 -13.722656 18.796875 -12.257812 17.859375 -10.71875 L 8.25 5.03125 L 2.6875 1.640625 L 17.5625 -22.75 C 18.425781 -24.15625 19.5625 -24.429688 20.96875 -23.578125 L 24.546875 -21.390625 C 25.128906 -21.035156 25.503906 -20.625 25.671875 -20.15625 C 25.847656 -19.6875 25.90625 -19.046875 25.84375 -18.234375 L 24.203125 -0.421875 C 24.054688 1.253906 23.832031 3.066406 23.53125 5.015625 L 23.890625 5.25 C 24.953125 3.15625 25.785156 1.617188 26.390625 0.640625 L 35.6875 -14.59375 Z M 41.21875 -11.21875 "/></g></g></g><g fill="#000000" fill-opacity="1"><g transform="translate(256.096226, 131.207216)"><g><path d="M 2.15625 2.3125 L 24.890625 -18.828125 C 27.984375 -15.898438 30.816406 -13.054688 33.390625 -10.296875 C 36.765625 -6.660156 38.269531 -3.359375 37.90625 -0.390625 C 37.550781 2.578125 35.15625 6.125 30.71875 10.25 C 26.289062 14.375 22.582031 16.503906 19.59375 16.640625 C 16.613281 16.785156 13.4375 15.039062 10.0625 11.40625 C 7.488281 8.644531 4.851562 5.613281 2.15625 2.3125 Z M 25.875 -10.4375 L 10.5 3.875 C 10.851562 4.25 11.414062 4.863281 12.1875 5.71875 C 12.957031 6.570312 13.566406 7.238281 14.015625 7.71875 C 15.585938 9.414062 17.203125 10.078125 18.859375 9.703125 C 20.523438 9.328125 22.847656 7.75 25.828125 4.96875 C 28.816406 2.195312 30.5625 -0.00390625 31.0625 -1.640625 C 31.570312 -3.273438 31.039062 -4.941406 29.46875 -6.640625 Z M 25.875 -10.4375 "/></g></g></g></svg>