<svg xmlns="http://www.w3.org/2000/svg" xmlns:xlink="http://www.w3.org/1999/xlink" width="500" zoomAndPan="magnify" viewBox="0 0 375 374.999991" height="500" preserveAspectRatio="xMidYMid meet" version="1.0"><defs><g/><clipPath id="3e238d0ea0"><path d="M 45.238281 45.238281 L 329.761719 45.238281 L 329.761719 329.761719 L 45.238281 329.761719 Z M 45.238281 45.238281 " clip-rule="nonzero"/></clipPath><clipPath id="6736f1b3e4"><path d="M 187.5 45.238281 C 108.929688 45.238281 45.238281 108.929688 45.238281 187.5 C 45.238281 266.070312 108.929688 329.761719 187.5 329.761719 C 266.070312 329.761719 329.761719 266.070312 329.761719 187.5 C 329.761719 108.929688 266.070312 45.238281 187.5 45.238281 Z M 187.5 45.238281 " clip-rule="nonzero"/></clipPath><clipPath id="11904d99c0"><path d="M 197 160 L 275 160 L 275 245 L 197 245 Z M 197 160 " clip-rule="nonzero"/></clipPath><clipPath id="02758e73b9"><path d="M 190.695312 171.1875 L 262.996094 151.25 L 285.726562 233.671875 L 213.425781 253.609375 Z M 190.695312 171.1875 " clip-rule="nonzero"/></clipPath><clipPath id="c739f4dd83"><path d="M 190.695312 171.1875 L 262.996094 151.25 L 285.726562 233.671875 L 213.425781 253.609375 Z M 190.695312 171.1875 " clip-rule="nonzero"/></clipPath><clipPath id="a7e8052e44"><path d="M 107.351562 187 L 209.351562 187 L 209.351562 278.300781 L 107.351562 278.300781 Z M 107.351562 187 " clip-rule="nonzero"/></clipPath></defs><g clip-path="url(#3e238d0ea0)"><g clip-path="url(#6736f1b3e4)"><path fill="#cfff00" d="M 45.238281 45.238281 L 329.761719 45.238281 L 329.761719 329.761719 L 45.238281 329.761719 Z M 45.238281 45.238281 " fill-opacity="1" fill-rule="nonzero"/></g></g><g clip-path="url(#11904d99c0)"><g clip-path="url(#02758e73b9)"><g clip-path="url(#c739f4dd83)"><path fill="#000000" d="M 247.898438 189.171875 C 247.703125 187.929688 247.511719 186.703125 247.3125 185.480469 C 247.109375 184.25 246.894531 183.023438 246.691406 181.792969 C 246.601562 181.246094 246.625 180.691406 247.152344 180.378906 C 247.703125 180.058594 248.265625 180.226562 248.753906 180.589844 C 249.53125 181.167969 249.914062 182.035156 250.289062 182.878906 C 251.496094 185.585938 252.125 188.453125 252.59375 191.363281 C 253.097656 194.492188 253.390625 197.648438 253.578125 200.8125 C 253.585938 200.976562 253.628906 201.136719 253.667969 201.386719 C 254.808594 200.480469 255.683594 199.441406 256.449219 198.308594 C 257.03125 197.449219 257.542969 196.546875 257.933594 195.582031 C 258.101562 195.160156 258.359375 194.792969 258.882812 194.996094 C 259.402344 195.199219 259.355469 195.636719 259.171875 196.0625 C 258.023438 198.734375 256.382812 201.03125 254.035156 202.78125 C 253.78125 202.96875 253.730469 203.148438 253.753906 203.410156 C 254.308594 210.105469 254.410156 216.816406 254.417969 223.53125 C 254.417969 223.699219 254.421875 223.871094 254.394531 224.035156 C 254.34375 224.335938 254.167969 224.539062 253.855469 224.574219 C 253.542969 224.613281 253.335938 224.453125 253.222656 224.164062 C 253.105469 223.863281 253.082031 223.550781 253.078125 223.230469 C 253.039062 218.652344 253.082031 214.070312 252.804688 209.496094 C 252.492188 204.417969 252.28125 199.332031 251.664062 194.277344 C 251.226562 190.6875 250.679688 187.109375 249.21875 183.753906 C 248.925781 183.082031 248.644531 182.402344 248.019531 181.707031 C 248.222656 182.949219 248.386719 184.015625 248.578125 185.082031 C 249.535156 190.453125 250.039062 195.878906 250.457031 201.3125 C 251.289062 212.199219 251 223.078125 250.394531 233.960938 C 250.320312 235.308594 250.292969 236.660156 250.199219 238.007812 C 250.167969 238.453125 250.320312 238.535156 250.695312 238.425781 C 251.511719 238.191406 252.289062 237.875 252.953125 237.324219 C 253.351562 237 253.558594 236.578125 253.648438 236.082031 C 253.832031 235.101562 253.875 234.113281 253.894531 233.121094 C 253.941406 230.324219 254.5 227.613281 255.90625 225.214844 C 257.835938 221.933594 258.375 218.4375 258.144531 214.734375 C 257.988281 212.171875 258.738281 209.859375 260.132812 207.730469 C 260.773438 206.757812 261.449219 205.804688 262.207031 204.925781 C 264.695312 202.046875 265.105469 198.789062 264.078125 195.242188 C 263.660156 193.800781 263.199219 192.367188 262.960938 190.878906 C 262.660156 188.972656 262.910156 187.089844 263.230469 185.214844 C 263.507812 183.59375 263.828125 181.976562 263.730469 180.3125 C 263.648438 178.933594 263.261719 177.652344 262.574219 176.464844 C 261.804688 175.125 260.578125 174.371094 259.164062 173.886719 C 258.484375 173.65625 257.792969 173.453125 257.089844 173.300781 C 254.84375 172.820312 252.714844 172.019531 250.683594 170.953125 C 249.09375 170.117188 247.441406 169.507812 245.605469 169.59375 C 243.492188 169.691406 241.707031 170.59375 240.058594 171.847656 C 238.355469 173.140625 237.0625 174.808594 235.800781 176.507812 C 235.707031 176.632812 235.644531 176.757812 235.671875 176.914062 C 235.914062 178.28125 235.789062 179.65625 235.703125 181.019531 C 235.53125 183.730469 236.675781 185.929688 238.21875 188.015625 C 239.355469 189.558594 240.503906 191.097656 241.363281 192.828125 C 242.328125 194.773438 242.621094 196.808594 242.269531 198.929688 C 242.042969 200.304688 241.734375 201.664062 241.46875 203.03125 C 241.359375 203.609375 241.257812 204.191406 241.164062 204.773438 C 240.851562 206.722656 241.128906 208.546875 242.226562 210.234375 C 242.832031 211.171875 243.359375 212.164062 243.699219 213.242188 C 244.050781 214.339844 244.089844 215.4375 243.8125 216.550781 C 243.683594 217.0625 243.574219 217.582031 243.417969 218.085938 C 242.691406 220.429688 242.933594 222.640625 244.148438 224.796875 C 245.164062 226.601562 246.066406 228.476562 246.589844 230.496094 C 247.285156 233.171875 247.367188 235.871094 246.871094 238.59375 C 246.808594 238.9375 246.78125 239.277344 246.375 239.394531 C 245.984375 239.507812 245.726562 239.265625 245.488281 239.03125 C 244.109375 237.679688 242.90625 236.1875 241.804688 234.613281 C 238 229.183594 234.867188 223.371094 232.035156 217.394531 C 230.082031 213.273438 228.285156 209.078125 226.609375 204.832031 C 224.269531 198.90625 222.203125 192.890625 220.511719 186.75 C 220.195312 185.605469 219.824219 184.480469 219.46875 183.351562 C 219.40625 183.15625 219.390625 182.929688 219.136719 182.769531 C 219.066406 184.109375 219.199219 185.402344 219.375 186.6875 C 220.234375 192.941406 221.925781 198.976562 224.109375 204.886719 C 227.191406 213.230469 230.933594 221.253906 235.707031 228.777344 C 237.960938 232.328125 240.390625 235.75 243.421875 238.699219 C 243.695312 238.964844 243.976562 239.21875 244.265625 239.464844 C 244.636719 239.777344 244.929688 240.136719 244.546875 240.589844 C 244.183594 241.019531 243.777344 240.792969 243.433594 240.503906 C 241.976562 239.273438 240.703125 237.863281 239.503906 236.386719 C 235.800781 231.828125 232.78125 226.832031 230.054688 221.648438 C 228.164062 218.058594 226.480469 214.367188 224.925781 210.625 C 224.761719 210.234375 224.582031 210.144531 224.195312 210.15625 C 221.878906 210.238281 219.84375 209.457031 218.011719 208.082031 C 217.910156 208.007812 217.808594 207.929688 217.722656 207.835938 C 217.453125 207.539062 217.34375 207.207031 217.636719 206.871094 C 217.90625 206.5625 218.242188 206.617188 218.550781 206.824219 C 218.847656 207.023438 219.121094 207.261719 219.425781 207.453125 C 220.84375 208.355469 222.382812 208.863281 224.160156 208.839844 C 223.746094 207.714844 223.355469 206.652344 222.957031 205.589844 C 221.59375 201.984375 220.472656 198.304688 219.554688 194.5625 C 219.425781 194.03125 219.226562 193.933594 218.710938 193.976562 C 216.703125 194.152344 214.804688 193.734375 213.015625 192.8125 C 212.808594 192.707031 212.609375 192.585938 212.476562 192.382812 C 212.316406 192.132812 212.273438 191.871094 212.464844 191.613281 C 212.652344 191.363281 212.910156 191.300781 213.195312 191.40625 C 213.355469 191.460938 213.503906 191.546875 213.648438 191.628906 C 215.175781 192.46875 216.824219 192.734375 218.542969 192.6875 C 218.96875 192.675781 219.097656 192.542969 218.996094 192.074219 C 218.359375 189.203125 217.839844 186.3125 217.78125 183.359375 C 217.769531 182.683594 217.800781 182.007812 218.015625 181.355469 C 218.144531 180.953125 218.378906 180.632812 218.828125 180.558594 C 219.277344 180.480469 219.609375 180.710938 219.855469 181.054688 C 220.257812 181.605469 220.480469 182.246094 220.699219 182.886719 C 221.746094 185.90625 222.441406 189.03125 223.46875 192.058594 C 224.089844 193.878906 224.6875 195.710938 225.265625 197.542969 C 225.449219 198.121094 225.628906 198.03125 225.945312 197.65625 C 226.929688 196.492188 227.582031 195.144531 228.175781 193.761719 C 228.859375 192.167969 229.390625 190.519531 229.679688 188.804688 C 229.707031 188.65625 229.730469 188.507812 229.78125 188.371094 C 229.90625 188.035156 230.144531 187.84375 230.515625 187.910156 C 230.882812 187.976562 231.03125 188.246094 231.050781 188.597656 C 231.054688 188.679688 231.039062 188.765625 231.023438 188.847656 C 230.359375 192.335938 229.195312 195.613281 226.992188 198.457031 C 226.917969 198.558594 226.847656 198.683594 226.742188 198.738281 C 225.847656 199.207031 226.101562 199.867188 226.378906 200.582031 C 227.898438 204.503906 229.445312 208.410156 231.164062 212.25 C 231.382812 212.734375 231.515625 212.585938 231.726562 212.269531 C 232.960938 210.445312 233.574219 208.394531 233.957031 206.253906 C 234.027344 205.839844 234.074219 205.417969 234.109375 205 C 234.148438 204.523438 234.3125 204.125 234.855469 204.175781 C 235.359375 204.222656 235.453125 204.640625 235.425781 205.082031 C 235.289062 207.039062 234.800781 208.910156 234.0625 210.71875 C 233.601562 211.84375 233.039062 212.910156 232.167969 213.769531 C 231.90625 214.035156 232.050781 214.214844 232.144531 214.4375 C 233.457031 217.53125 234.984375 220.519531 236.609375 223.460938 C 238.742188 227.324219 240.855469 231.195312 243.53125 234.722656 C 244.1875 235.589844 244.847656 236.453125 245.710938 237.300781 C 245.90625 235.878906 245.855469 234.566406 245.753906 233.253906 C 245.550781 230.640625 244.46875 228.328125 243.308594 226.039062 C 242.917969 225.265625 242.542969 224.484375 242.207031 223.6875 C 241.582031 222.222656 241.507812 220.695312 241.824219 219.148438 C 241.964844 218.46875 242.09375 217.777344 242.316406 217.121094 C 242.953125 215.242188 242.65625 213.507812 241.636719 211.847656 C 241.203125 211.144531 240.824219 210.414062 240.445312 209.683594 C 239.589844 208.027344 239.617188 206.265625 239.859375 204.480469 C 240.070312 202.976562 240.433594 201.5 240.746094 200.011719 C 241.175781 197.992188 241.28125 195.988281 240.457031 194.035156 C 239.820312 192.527344 238.886719 191.195312 237.925781 189.878906 C 236.996094 188.601562 236.050781 187.328125 235.339844 185.90625 C 234.417969 184.066406 234.320312 182.09375 234.40625 180.089844 C 234.460938 178.824219 234.605469 177.542969 234.175781 176.320312 C 233.320312 173.898438 231.566406 172.308594 229.089844 171.972656 C 226.054688 171.5625 223.140625 170.847656 220.238281 169.914062 C 216.839844 168.816406 213.941406 170.140625 211.269531 172.132812 C 210.128906 172.988281 209.160156 174.015625 208.449219 175.273438 C 207.519531 176.917969 207.300781 178.648438 207.789062 180.472656 C 207.914062 180.941406 208.019531 181.421875 208.183594 181.878906 C 208.871094 183.792969 208.578125 185.621094 207.746094 187.410156 C 207.542969 187.851562 207.347656 188.300781 207.121094 188.730469 C 205.730469 191.367188 205.949219 193.839844 207.855469 196.152344 C 209.183594 197.761719 210.195312 199.515625 210.328125 201.664062 C 210.402344 202.84375 210.484375 204.023438 210.589844 205.203125 C 210.863281 208.351562 212.011719 211.015625 214.835938 212.730469 C 215.578125 213.179688 216.328125 213.613281 217.074219 214.050781 C 217.550781 214.328125 218.035156 214.589844 218.511719 214.863281 C 220.546875 216.035156 221.996094 217.707031 222.859375 219.890625 C 223.453125 221.386719 224.320312 222.710938 225.550781 223.753906 C 228.363281 226.140625 230.542969 229.066406 232.664062 232.042969 C 234.800781 235.035156 237.070312 237.90625 239.539062 240.632812 C 241.097656 242.351562 242.960938 242.890625 245.164062 242.757812 C 248.246094 242.574219 251.175781 241.867188 253.894531 240.375 C 254.273438 240.167969 254.722656 240 255.003906 240.507812 C 255.269531 240.992188 254.980469 241.296875 254.558594 241.519531 C 251.003906 243.398438 247.234375 244.289062 243.203125 244.023438 C 241.652344 243.921875 240.359375 243.285156 239.269531 242.199219 C 236.792969 239.738281 234.609375 237.03125 232.582031 234.195312 C 230.949219 231.914062 229.324219 229.625 227.472656 227.507812 C 226.859375 226.808594 226.234375 226.121094 225.511719 225.53125 C 223.675781 224.027344 222.308594 222.195312 221.429688 219.984375 C 220.761719 218.316406 219.582031 217.078125 218.058594 216.148438 C 216.578125 215.25 215.011719 214.496094 213.59375 213.488281 C 211.964844 212.328125 210.71875 210.878906 210.082031 208.964844 C 209.964844 208.621094 209.765625 208.582031 209.464844 208.582031 C 208.585938 208.589844 207.746094 208.398438 206.957031 208.003906 C 206.542969 207.792969 206.210938 207.503906 206.460938 207.007812 C 206.6875 206.554688 207.101562 206.601562 207.503906 206.792969 C 208.042969 207.054688 208.609375 207.214844 209.207031 207.246094 C 209.417969 207.257812 209.582031 207.238281 209.515625 206.9375 C 209.132812 205.238281 209.15625 203.496094 209.015625 201.773438 C 208.886719 200.199219 208.238281 198.867188 207.304688 197.617188 C 206.800781 196.941406 206.320312 196.367188 205.40625 196.234375 C 204.785156 196.148438 204.203125 195.828125 203.664062 195.488281 C 203.28125 195.25 202.972656 194.929688 203.273438 194.449219 C 203.550781 193.996094 203.941406 194.128906 204.324219 194.332031 C 204.652344 194.507812 204.988281 194.660156 205.4375 194.882812 C 205.242188 194.148438 205.003906 193.570312 204.925781 192.953125 C 204.726562 191.410156 205.101562 189.976562 205.726562 188.585938 C 206.140625 187.660156 206.625 186.765625 206.945312 185.800781 C 207.296875 184.746094 207.328125 183.699219 207.03125 182.621094 C 206.695312 181.402344 206.253906 180.203125 206.207031 178.917969 C 206.121094 176.539062 207.042969 174.542969 208.589844 172.816406 C 210.605469 170.570312 213.101562 169.085938 216.039062 168.378906 C 217.421875 168.046875 218.808594 168.199219 220.183594 168.507812 C 221.070312 168.707031 221.941406 168.972656 222.785156 169.308594 C 224.289062 169.90625 225.847656 170.253906 227.460938 170.355469 C 229.535156 170.484375 231.449219 171.050781 233.066406 172.421875 C 233.933594 173.15625 234.601562 174.042969 235.144531 175.078125 C 235.472656 174.84375 235.648438 174.507812 235.875 174.21875 C 237.644531 171.957031 239.703125 170.0625 242.410156 168.960938 C 244.851562 167.96875 247.28125 168.035156 249.6875 169.035156 C 251.070312 169.613281 252.410156 170.296875 253.777344 170.914062 C 254.550781 171.261719 255.367188 171.476562 256.179688 171.710938 C 256.566406 171.820312 256.648438 171.734375 256.628906 171.347656 C 256.558594 169.6875 256.238281 168.101562 255.199219 166.765625 C 252.75 163.609375 249.5625 161.855469 245.507812 161.910156 C 244.195312 161.925781 242.929688 162.355469 241.632812 162.539062 C 239.753906 162.800781 237.886719 162.765625 236.023438 162.402344 C 234.679688 162.140625 233.339844 161.800781 231.949219 161.976562 C 229.578125 162.277344 227.8125 163.460938 226.730469 165.617188 C 226.246094 166.582031 225.898438 167.605469 225.566406 168.628906 C 225.425781 169.0625 225.21875 169.472656 224.683594 169.304688 C 224.121094 169.132812 224.167969 168.652344 224.308594 168.199219 C 224.691406 166.988281 225.121094 165.792969 225.710938 164.667969 C 227.234375 161.773438 230.5 160.230469 234.09375 160.695312 C 235.476562 160.875 236.816406 161.261719 238.21875 161.351562 C 240.117188 161.46875 241.96875 161.191406 243.8125 160.800781 C 247.808594 159.957031 251.171875 161.351562 254.226562 163.765625 C 256.1875 165.316406 257.40625 167.351562 257.875 169.824219 C 257.972656 170.347656 257.996094 170.875 257.949219 171.398438 C 257.902344 171.9375 258.019531 172.304688 258.644531 172.3125 C 258.683594 172.316406 258.722656 172.339844 258.765625 172.351562 C 263.304688 173.550781 265.101562 176.894531 265.066406 181.40625 C 265.054688 183.121094 264.628906 184.792969 264.375 186.480469 C 264.089844 188.355469 264.050781 190.21875 264.550781 192.074219 C 264.660156 192.492188 264.789062 192.558594 265.183594 192.382812 C 265.824219 192.101562 266.445312 191.792969 267.015625 191.386719 C 267.386719 191.117188 267.800781 190.941406 268.125 191.394531 C 268.441406 191.84375 268.152344 192.179688 267.785156 192.464844 C 267.097656 193.003906 266.3125 193.382812 265.5 193.671875 C 265.078125 193.824219 265.078125 194.015625 265.1875 194.367188 C 265.625 195.769531 265.882812 197.199219 265.941406 198.667969 C 266.035156 201.058594 265.175781 203.128906 263.785156 205.019531 C 262.921875 206.195312 261.96875 207.304688 261.199219 208.546875 C 261.082031 208.734375 260.890625 208.898438 260.90625 209.1875 C 261.730469 208.921875 262.472656 208.53125 263.164062 208.046875 C 263.300781 207.949219 263.433594 207.839844 263.578125 207.75 C 263.902344 207.550781 264.230469 207.539062 264.480469 207.859375 C 264.734375 208.179688 264.652344 208.507812 264.371094 208.765625 C 263.617188 209.464844 262.710938 209.914062 261.761719 210.289062 C 261.488281 210.398438 261.210938 210.550781 260.925781 210.574219 C 259.996094 210.652344 259.820312 211.308594 259.667969 212.046875 C 259.332031 213.679688 259.472656 215.332031 259.492188 216.972656 C 259.53125 219.785156 258.9375 222.410156 257.535156 224.863281 C 255.847656 227.8125 255.152344 231.023438 255.167969 234.402344 C 255.167969 234.636719 255.125 234.867188 255.125 235.097656 C 255.125 237.515625 253.757812 238.84375 251.59375 239.539062 C 251.171875 239.675781 250.75 239.796875 250.296875 239.816406 C 249.339844 239.859375 248.84375 239.441406 248.875 238.480469 C 248.945312 236.308594 249.019531 234.132812 249.152344 231.964844 C 249.550781 225.535156 249.652344 219.101562 249.648438 212.667969 C 249.648438 212.128906 249.558594 211.882812 248.933594 211.707031 C 247.261719 211.230469 245.898438 210.160156 244.601562 209.03125 C 244.273438 208.75 244.183594 208.367188 244.507812 208.027344 C 244.8125 207.707031 245.160156 207.808594 245.472656 208.058594 C 246.445312 208.84375 247.421875 209.621094 248.5625 210.15625 C 248.714844 210.226562 248.871094 210.292969 249.023438 210.367188 C 249.417969 210.554688 249.613281 210.515625 249.582031 209.996094 C 249.453125 207.65625 249.371094 205.316406 249.234375 202.976562 C 249 198.992188 248.617188 195.019531 248.152344 191.054688 C 248.109375 190.691406 247.980469 190.601562 247.636719 190.523438 C 245.421875 190.015625 243.523438 188.898438 241.824219 187.417969 C 241.492188 187.128906 241.3125 186.738281 241.675781 186.371094 C 242.027344 186.015625 242.40625 186.171875 242.746094 186.464844 C 244.09375 187.617188 245.582031 188.523438 247.277344 189.066406 C 247.398438 189.105469 247.519531 189.140625 247.644531 189.167969 C 247.703125 189.179688 247.765625 189.171875 247.898438 189.171875 Z M 204.738281 213.382812 C 205.5 213.839844 206.265625 214.292969 207.046875 214.714844 C 208.574219 215.546875 209.769531 216.691406 210.566406 218.25 C 210.828125 218.753906 211.140625 219.234375 211.449219 219.710938 C 213.449219 222.777344 216.378906 223.90625 219.898438 222.972656 C 220.058594 222.929688 220.214844 222.851562 220.355469 222.761719 C 220.617188 222.59375 220.710938 222.339844 220.621094 222.046875 C 220.53125 221.75 220.308594 221.597656 219.992188 221.632812 C 219.71875 221.664062 219.445312 221.707031 219.175781 221.75 C 215.960938 222.285156 214.050781 221.417969 212.347656 218.640625 C 212.191406 218.390625 212.03125 218.140625 211.898438 217.875 C 210.902344 215.90625 209.417969 214.433594 207.460938 213.417969 C 206.746094 213.046875 206.058594 212.632812 205.375 212.210938 C 203.460938 211.019531 202.394531 209.277344 202.039062 207.066406 C 201.839844 205.824219 201.929688 204.582031 202.039062 203.34375 C 202.242188 201.0625 202.132812 198.824219 201.195312 196.691406 C 200.726562 195.625 200.175781 194.605469 199.601562 193.59375 C 198.507812 191.675781 198.007812 189.660156 198.792969 187.519531 C 199.875 184.554688 201.785156 182.359375 204.871094 181.351562 C 205.285156 181.214844 205.566406 180.996094 205.441406 180.527344 C 205.316406 180.0625 204.957031 179.988281 204.535156 180.085938 C 204.351562 180.128906 204.164062 180.175781 203.984375 180.230469 C 202.632812 180.636719 201.527344 181.453125 200.542969 182.417969 C 198.324219 184.589844 196.917969 187.140625 197.132812 190.355469 C 197.238281 191.957031 197.945312 193.359375 198.710938 194.734375 C 199.554688 196.25 200.359375 197.777344 200.652344 199.523438 C 200.886719 200.914062 200.78125 202.300781 200.671875 203.691406 C 200.550781 205.253906 200.523438 206.8125 201.007812 208.519531 C 201.554688 210.519531 202.800781 212.210938 204.738281 213.382812 Z M 270.675781 179.378906 C 269.59375 177.546875 267.746094 176.769531 265.757812 177.296875 C 265.367188 177.398438 265.074219 177.578125 265.144531 178.03125 C 265.214844 178.5 265.542969 178.636719 265.980469 178.589844 C 266.148438 178.570312 266.320312 178.566406 266.484375 178.539062 C 267.878906 178.3125 268.867188 178.898438 269.535156 180.082031 C 270.144531 181.15625 270.335938 182.351562 270.402344 183.554688 C 270.503906 185.417969 270.941406 187.179688 271.769531 188.855469 C 272.210938 189.746094 272.5625 190.679688 272.683594 191.679688 C 272.875 193.28125 272.492188 194.75 271.625 196.085938 C 270.1875 198.296875 269.53125 200.710938 269.59375 203.347656 C 269.625 204.652344 269.515625 205.960938 269.332031 207.261719 C 268.875 210.5625 267.101562 213.191406 265.015625 215.652344 C 264.128906 216.695312 263.15625 217.667969 262.011719 218.449219 C 261.675781 218.679688 261.511719 218.996094 261.742188 219.371094 C 261.972656 219.75 262.339844 219.75 262.6875 219.554688 C 263 219.378906 263.296875 219.175781 263.574219 218.945312 C 264.367188 218.285156 265.109375 217.5625 265.792969 216.785156 C 268.566406 213.644531 270.636719 210.171875 270.828125 205.84375 C 270.875 204.808594 270.957031 203.777344 270.945312 202.742188 C 270.917969 200.644531 271.515625 198.742188 272.640625 196.996094 C 274.367188 194.3125 274.484375 191.542969 273.132812 188.675781 C 272.464844 187.257812 271.867188 185.8125 271.792969 184.214844 C 271.746094 183.261719 271.652344 182.316406 271.464844 181.625 C 271.273438 180.683594 271.042969 180.003906 270.675781 179.378906 Z M 258.539062 176.617188 C 257.066406 175.710938 255.386719 175.320312 253.726562 174.917969 C 253.382812 174.835938 253.085938 174.980469 252.972656 175.335938 C 252.847656 175.714844 253.019531 176 253.371094 176.15625 C 253.558594 176.246094 253.769531 176.292969 253.972656 176.34375 C 254.917969 176.574219 255.832031 176.894531 256.75 177.210938 C 258.421875 177.78125 259.304688 178.992188 259.625 180.675781 C 259.792969 181.554688 259.746094 182.441406 259.742188 183.324219 C 259.742188 183.71875 259.910156 184.050781 260.359375 184.058594 C 260.792969 184.066406 261.015625 183.773438 261.046875 183.371094 C 261.148438 182.167969 261.097656 180.972656 260.792969 179.796875 C 260.429688 178.457031 259.722656 177.339844 258.539062 176.617188 Z M 239.5625 165.902344 C 239.597656 166.273438 239.835938 166.460938 240.195312 166.488281 C 240.363281 166.503906 240.53125 166.484375 240.699219 166.472656 C 242.003906 166.359375 243.277344 166.039062 244.570312 165.839844 C 246.753906 165.503906 248.800781 165.949219 250.757812 166.9375 C 251.128906 167.125 251.570312 167.226562 251.804688 166.753906 C 252.046875 166.269531 251.742188 165.957031 251.324219 165.75 C 249.816406 165.007812 248.253906 164.496094 246.550781 164.414062 C 244.34375 164.308594 242.261719 165.089844 240.171875 165.195312 C 239.773438 165.335938 239.519531 165.519531 239.5625 165.902344 Z M 236.433594 165.378906 C 236.039062 165.488281 235.902344 165.78125 236.023438 166.160156 C 236.136719 166.523438 236.421875 166.644531 236.773438 166.53125 C 237.125 166.417969 237.257812 166.152344 237.175781 165.773438 C 237.039062 165.449219 236.796875 165.277344 236.433594 165.378906 Z M 236.433594 165.378906 " fill-opacity="1" fill-rule="nonzero"/><path fill="#000000" d="M 247.898438 189.171875 C 247.703125 187.929688 247.511719 186.703125 247.3125 185.480469 C 247.109375 184.25 246.894531 183.023438 246.691406 181.792969 C 246.601562 181.246094 246.625 180.691406 247.152344 180.378906 C 247.703125 180.058594 248.265625 180.226562 248.753906 180.589844 C 249.53125 181.167969 249.914062 182.035156 250.289062 182.878906 C 251.496094 185.585938 252.125 188.453125 252.59375 191.363281 C 253.097656 194.492188 253.390625 197.648438 253.578125 200.8125 C 253.585938 200.976562 253.628906 201.136719 253.667969 201.386719 C 254.808594 200.480469 255.683594 199.441406 256.449219 198.308594 C 257.03125 197.449219 257.542969 196.546875 257.933594 195.582031 C 258.101562 195.160156 258.359375 194.792969 258.882812 194.996094 C 259.402344 195.199219 259.355469 195.636719 259.171875 196.0625 C 258.023438 198.734375 256.382812 201.03125 254.035156 202.78125 C 253.78125 202.96875 253.730469 203.148438 253.753906 203.410156 C 254.308594 210.105469 254.410156 216.816406 254.417969 223.53125 C 254.417969 223.699219 254.421875 223.871094 254.394531 224.035156 C 254.34375 224.335938 254.167969 224.539062 253.855469 224.574219 C 253.542969 224.613281 253.335938 224.453125 253.222656 224.164062 C 253.105469 223.863281 253.082031 223.550781 253.078125 223.230469 C 253.039062 218.652344 253.082031 214.070312 252.804688 209.496094 C 252.492188 204.417969 252.28125 199.332031 251.664062 194.277344 C 251.226562 190.6875 250.679688 187.109375 249.21875 183.753906 C 248.925781 183.082031 248.644531 182.402344 248.019531 181.707031 C 248.222656 182.949219 248.386719 184.015625 248.578125 185.082031 C 249.535156 190.453125 250.039062 195.878906 250.457031 201.3125 C 251.289062 212.199219 251 223.078125 250.394531 233.960938 C 250.320312 235.308594 250.292969 236.660156 250.199219 238.007812 C 250.167969 238.453125 250.320312 238.535156 250.695312 238.425781 C 251.511719 238.191406 252.289062 237.875 252.953125 237.324219 C 253.351562 237 253.558594 236.578125 253.648438 236.082031 C 253.832031 235.101562 253.875 234.113281 253.894531 233.121094 C 253.941406 230.324219 254.5 227.613281 255.90625 225.214844 C 257.835938 221.933594 258.375 218.4375 258.144531 214.734375 C 257.988281 212.171875 258.738281 209.859375 260.132812 207.730469 C 260.773438 206.757812 261.449219 205.804688 262.207031 204.925781 C 264.695312 202.046875 265.105469 198.789062 264.078125 195.242188 C 263.660156 193.800781 263.199219 192.367188 262.960938 190.878906 C 262.660156 188.972656 262.910156 187.089844 263.230469 185.214844 C 263.507812 183.59375 263.828125 181.976562 263.730469 180.3125 C 263.648438 178.933594 263.261719 177.652344 262.574219 176.464844 C 261.804688 175.125 260.578125 174.371094 259.164062 173.886719 C 258.484375 173.65625 257.792969 173.453125 257.089844 173.300781 C 254.84375 172.820312 252.714844 172.019531 250.683594 170.953125 C 249.09375 170.117188 247.441406 169.507812 245.605469 169.59375 C 243.492188 169.691406 241.707031 170.59375 240.058594 171.847656 C 238.355469 173.140625 237.0625 174.808594 235.800781 176.507812 C 235.707031 176.632812 235.644531 176.757812 235.671875 176.914062 C 235.914062 178.28125 235.789062 179.65625 235.703125 181.019531 C 235.53125 183.730469 236.675781 185.929688 238.21875 188.015625 C 239.355469 189.558594 240.503906 191.097656 241.363281 192.828125 C 242.328125 194.773438 242.621094 196.808594 242.269531 198.929688 C 242.042969 200.304688 241.734375 201.664062 241.46875 203.03125 C 241.359375 203.609375 241.257812 204.191406 241.164062 204.773438 C 240.851562 206.722656 241.128906 208.546875 242.226562 210.234375 C 242.832031 211.171875 243.359375 212.164062 243.699219 213.242188 C 244.050781 214.339844 244.089844 215.4375 243.8125 216.550781 C 243.683594 217.0625 243.574219 217.582031 243.417969 218.085938 C 242.691406 220.429688 242.933594 222.640625 244.148438 224.796875 C 245.164062 226.601562 246.066406 228.476562 246.589844 230.496094 C 247.285156 233.171875 247.367188 235.871094 246.871094 238.59375 C 246.808594 238.9375 246.78125 239.277344 246.375 239.394531 C 245.984375 239.507812 245.726562 239.265625 245.488281 239.03125 C 244.109375 237.679688 242.90625 236.1875 241.804688 234.613281 C 238 229.183594 234.867188 223.371094 232.035156 217.394531 C 230.082031 213.273438 228.285156 209.078125 226.609375 204.832031 C 224.269531 198.90625 222.203125 192.890625 220.511719 186.75 C 220.195312 185.605469 219.824219 184.480469 219.46875 183.351562 C 219.40625 183.15625 219.390625 182.929688 219.136719 182.769531 C 219.066406 184.109375 219.199219 185.402344 219.375 186.6875 C 220.234375 192.941406 221.925781 198.976562 224.109375 204.886719 C 227.191406 213.230469 230.933594 221.253906 235.707031 228.777344 C 237.960938 232.328125 240.390625 235.75 243.421875 238.699219 C 243.695312 238.964844 243.976562 239.21875 244.265625 239.464844 C 244.636719 239.777344 244.929688 240.136719 244.546875 240.589844 C 244.183594 241.019531 243.777344 240.792969 243.433594 240.503906 C 241.976562 239.273438 240.703125 237.863281 239.503906 236.386719 C 235.800781 231.828125 232.78125 226.832031 230.054688 221.648438 C 228.164062 218.058594 226.480469 214.367188 224.925781 210.625 C 224.761719 210.234375 224.582031 210.144531 224.195312 210.15625 C 221.878906 210.238281 219.84375 209.457031 218.011719 208.082031 C 217.910156 208.007812 217.808594 207.929688 217.722656 207.835938 C 217.453125 207.539062 217.34375 207.207031 217.636719 206.871094 C 217.90625 206.5625 218.242188 206.617188 218.550781 206.824219 C 218.847656 207.023438 219.121094 207.261719 219.425781 207.453125 C 220.84375 208.355469 222.382812 208.863281 224.160156 208.839844 C 223.746094 207.714844 223.355469 206.652344 222.957031 205.589844 C 221.59375 201.984375 220.472656 198.304688 219.554688 194.5625 C 219.425781 194.03125 219.226562 193.933594 218.710938 193.976562 C 216.703125 194.152344 214.804688 193.734375 213.015625 192.8125 C 212.808594 192.707031 212.609375 192.585938 212.476562 192.382812 C 212.316406 192.132812 212.273438 191.871094 212.464844 191.613281 C 212.652344 191.363281 212.910156 191.300781 213.195312 191.40625 C 213.355469 191.460938 213.503906 191.546875 213.648438 191.628906 C 215.175781 192.46875 216.824219 192.734375 218.542969 192.6875 C 218.96875 192.675781 219.097656 192.542969 218.996094 192.074219 C 218.359375 189.203125 217.839844 186.3125 217.78125 183.359375 C 217.769531 182.683594 217.800781 182.007812 218.015625 181.355469 C 218.144531 180.953125 218.378906 180.632812 218.828125 180.558594 C 219.277344 180.480469 219.609375 180.710938 219.855469 181.054688 C 220.257812 181.605469 220.480469 182.246094 220.699219 182.886719 C 221.746094 185.90625 222.441406 189.03125 223.46875 192.058594 C 224.089844 193.878906 224.6875 195.710938 225.265625 197.542969 C 225.449219 198.121094 225.628906 198.03125 225.945312 197.65625 C 226.929688 196.492188 227.582031 195.144531 228.175781 193.761719 C 228.859375 192.167969 229.390625 190.519531 229.679688 188.804688 C 229.707031 188.65625 229.730469 188.507812 229.78125 188.371094 C 229.90625 188.035156 230.144531 187.84375 230.515625 187.910156 C 230.882812 187.976562 231.03125 188.246094 231.050781 188.597656 C 231.054688 188.679688 231.039062 188.765625 231.023438 188.847656 C 230.359375 192.335938 229.195312 195.613281 226.992188 198.457031 C 226.917969 198.558594 226.847656 198.683594 226.742188 198.738281 C 225.847656 199.207031 226.101562 199.867188 226.378906 200.582031 C 227.898438 204.503906 229.445312 208.410156 231.164062 212.25 C 231.382812 212.734375 231.515625 212.585938 231.726562 212.269531 C 232.960938 210.445312 233.574219 208.394531 233.957031 206.253906 C 234.027344 205.839844 234.074219 205.417969 234.109375 205 C 234.148438 204.523438 234.3125 204.125 234.855469 204.175781 C 235.359375 204.222656 235.453125 204.640625 235.425781 205.082031 C 235.289062 207.039062 234.800781 208.910156 234.0625 210.71875 C 233.601562 211.84375 233.039062 212.910156 232.167969 213.769531 C 231.90625 214.035156 232.050781 214.214844 232.144531 214.4375 C 233.457031 217.53125 234.984375 220.519531 236.609375 223.460938 C 238.742188 227.324219 240.855469 231.195312 243.53125 234.722656 C 244.1875 235.589844 244.847656 236.453125 245.710938 237.300781 C 245.90625 235.878906 245.855469 234.566406 245.753906 233.253906 C 245.550781 230.640625 244.46875 228.328125 243.308594 226.039062 C 242.917969 225.265625 242.542969 224.484375 242.207031 223.6875 C 241.582031 222.222656 241.507812 220.695312 241.824219 219.148438 C 241.964844 218.46875 242.09375 217.777344 242.316406 217.121094 C 242.953125 215.242188 242.65625 213.507812 241.636719 211.847656 C 241.203125 211.144531 240.824219 210.414062 240.445312 209.683594 C 239.589844 208.027344 239.617188 206.265625 239.859375 204.480469 C 240.070312 202.976562 240.433594 201.5 240.746094 200.011719 C 241.175781 197.992188 241.28125 195.988281 240.457031 194.035156 C 239.820312 192.527344 238.886719 191.195312 237.925781 189.878906 C 236.996094 188.601562 236.050781 187.328125 235.339844 185.90625 C 234.417969 184.066406 234.320312 182.09375 234.40625 180.089844 C 234.460938 178.824219 234.605469 177.542969 234.175781 176.320312 C 233.320312 173.898438 231.566406 172.308594 229.089844 171.972656 C 226.054688 171.5625 223.140625 170.847656 220.238281 169.914062 C 216.839844 168.816406 213.941406 170.140625 211.269531 172.132812 C 210.128906 172.988281 209.160156 174.015625 208.449219 175.273438 C 207.519531 176.917969 207.300781 178.648438 207.789062 180.472656 C 207.914062 180.941406 208.019531 181.421875 208.183594 181.878906 C 208.871094 183.792969 208.578125 185.621094 207.746094 187.410156 C 207.542969 187.851562 207.347656 188.300781 207.121094 188.730469 C 205.730469 191.367188 205.949219 193.839844 207.855469 196.152344 C 209.183594 197.761719 210.195312 199.515625 210.328125 201.664062 C 210.402344 202.84375 210.484375 204.023438 210.589844 205.203125 C 210.863281 208.351562 212.011719 211.015625 214.835938 212.730469 C 215.578125 213.179688 216.328125 213.613281 217.074219 214.050781 C 217.550781 214.328125 218.035156 214.589844 218.511719 214.863281 C 220.546875 216.035156 221.996094 217.707031 222.859375 219.890625 C 223.453125 221.386719 224.320312 222.710938 225.550781 223.753906 C 228.363281 226.140625 230.542969 229.066406 232.664062 232.042969 C 234.800781 235.035156 237.070312 237.90625 239.539062 240.632812 C 241.097656 242.351562 242.960938 242.890625 245.164062 242.757812 C 248.246094 242.574219 251.175781 241.867188 253.894531 240.375 C 254.273438 240.167969 254.722656 240 255.003906 240.507812 C 255.269531 240.992188 254.980469 241.296875 254.558594 241.519531 C 251.003906 243.398438 247.234375 244.289062 243.203125 244.023438 C 241.652344 243.921875 240.359375 243.285156 239.269531 242.199219 C 236.792969 239.738281 234.609375 237.03125 232.582031 234.195312 C 230.949219 231.914062 229.324219 229.625 227.472656 227.507812 C 226.859375 226.808594 226.234375 226.121094 225.511719 225.53125 C 223.675781 224.027344 222.308594 222.195312 221.429688 219.984375 C 220.761719 218.316406 219.582031 217.078125 218.058594 216.148438 C 216.578125 215.25 215.011719 214.496094 213.59375 213.488281 C 211.964844 212.328125 210.71875 210.878906 210.082031 208.964844 C 209.964844 208.621094 209.765625 208.582031 209.464844 208.582031 C 208.585938 208.589844 207.746094 208.398438 206.957031 208.003906 C 206.542969 207.792969 206.210938 207.503906 206.460938 207.007812 C 206.6875 206.554688 207.101562 206.601562 207.503906 206.792969 C 208.042969 207.054688 208.609375 207.214844 209.207031 207.246094 C 209.417969 207.257812 209.582031 207.238281 209.515625 206.9375 C 209.132812 205.238281 209.15625 203.496094 209.015625 201.773438 C 208.886719 200.199219 208.238281 198.867188 207.304688 197.617188 C 206.800781 196.941406 206.320312 196.367188 205.40625 196.234375 C 204.785156 196.148438 204.203125 195.828125 203.664062 195.488281 C 203.28125 195.25 202.972656 194.929688 203.273438 194.449219 C 203.550781 193.996094 203.941406 194.128906 204.324219 194.332031 C 204.652344 194.507812 204.988281 194.660156 205.4375 194.882812 C 205.242188 194.148438 205.003906 193.570312 204.925781 192.953125 C 204.726562 191.410156 205.101562 189.976562 205.726562 188.585938 C 206.140625 187.660156 206.625 186.765625 206.945312 185.800781 C 207.296875 184.746094 207.328125 183.699219 207.03125 182.621094 C 206.695312 181.402344 206.253906 180.203125 206.207031 178.917969 C 206.121094 176.539062 207.042969 174.542969 208.589844 172.816406 C 210.605469 170.570312 213.101562 169.085938 216.039062 168.378906 C 217.421875 168.046875 218.808594 168.199219 220.183594 168.507812 C 221.070312 168.707031 221.941406 168.972656 222.785156 169.308594 C 224.289062 169.90625 225.847656 170.253906 227.460938 170.355469 C 229.535156 170.484375 231.449219 171.050781 233.066406 172.421875 C 233.933594 173.15625 234.601562 174.042969 235.144531 175.078125 C 235.472656 174.84375 235.648438 174.507812 235.875 174.21875 C 237.644531 171.957031 239.703125 170.0625 242.410156 168.960938 C 244.851562 167.96875 247.28125 168.035156 249.6875 169.035156 C 251.070312 169.613281 252.410156 170.296875 253.777344 170.914062 C 254.550781 171.261719 255.367188 171.476562 256.179688 171.710938 C 256.566406 171.820312 256.648438 171.734375 256.628906 171.347656 C 256.558594 169.6875 256.238281 168.101562 255.199219 166.765625 C 252.75 163.609375 249.5625 161.855469 245.507812 161.910156 C 244.195312 161.925781 242.929688 162.355469 241.632812 162.539062 C 239.753906 162.800781 237.886719 162.765625 236.023438 162.402344 C 234.679688 162.140625 233.339844 161.800781 231.949219 161.976562 C 229.578125 162.277344 227.8125 163.460938 226.730469 165.617188 C 226.246094 166.582031 225.898438 167.605469 225.566406 168.628906 C 225.425781 169.0625 225.21875 169.472656 224.683594 169.304688 C 224.121094 169.132812 224.167969 168.652344 224.308594 168.199219 C 224.691406 166.988281 225.121094 165.792969 225.710938 164.667969 C 227.234375 161.773438 230.5 160.230469 234.09375 160.695312 C 235.476562 160.875 236.816406 161.261719 238.21875 161.351562 C 240.117188 161.46875 241.96875 161.191406 243.8125 160.800781 C 247.808594 159.957031 251.171875 161.351562 254.226562 163.765625 C 256.1875 165.316406 257.40625 167.351562 257.875 169.824219 C 257.972656 170.347656 257.996094 170.875 257.949219 171.398438 C 257.902344 171.9375 258.019531 172.304688 258.644531 172.3125 C 258.683594 172.316406 258.722656 172.339844 258.765625 172.351562 C 263.304688 173.550781 265.101562 176.894531 265.066406 181.40625 C 265.054688 183.121094 264.628906 184.792969 264.375 186.480469 C 264.089844 188.355469 264.050781 190.21875 264.550781 192.074219 C 264.660156 192.492188 264.789062 192.558594 265.183594 192.382812 C 265.824219 192.101562 266.445312 191.792969 267.015625 191.386719 C 267.386719 191.117188 267.800781 190.941406 268.125 191.394531 C 268.441406 191.84375 268.152344 192.179688 267.785156 192.464844 C 267.097656 193.003906 266.3125 193.382812 265.5 193.671875 C 265.078125 193.824219 265.078125 194.015625 265.1875 194.367188 C 265.625 195.769531 265.882812 197.199219 265.941406 198.667969 C 266.035156 201.058594 265.175781 203.128906 263.785156 205.019531 C 262.921875 206.195312 261.96875 207.304688 261.199219 208.546875 C 261.082031 208.734375 260.890625 208.898438 260.90625 209.1875 C 261.730469 208.921875 262.472656 208.53125 263.164062 208.046875 C 263.300781 207.949219 263.433594 207.839844 263.578125 207.75 C 263.902344 207.550781 264.230469 207.539062 264.480469 207.859375 C 264.734375 208.179688 264.652344 208.507812 264.371094 208.765625 C 263.617188 209.464844 262.710938 209.914062 261.761719 210.289062 C 261.488281 210.398438 261.210938 210.550781 260.925781 210.574219 C 259.996094 210.652344 259.820312 211.308594 259.667969 212.046875 C 259.332031 213.679688 259.472656 215.332031 259.492188 216.972656 C 259.53125 219.785156 258.9375 222.410156 257.535156 224.863281 C 255.847656 227.8125 255.152344 231.023438 255.167969 234.402344 C 255.167969 234.636719 255.125 234.867188 255.125 235.097656 C 255.125 237.515625 253.757812 238.84375 251.59375 239.539062 C 251.171875 239.675781 250.75 239.796875 250.296875 239.816406 C 249.339844 239.859375 248.84375 239.441406 248.875 238.480469 C 248.945312 236.308594 249.019531 234.132812 249.152344 231.964844 C 249.550781 225.535156 249.652344 219.101562 249.648438 212.667969 C 249.648438 212.128906 249.558594 211.882812 248.933594 211.707031 C 247.261719 211.230469 245.898438 210.160156 244.601562 209.03125 C 244.273438 208.75 244.183594 208.367188 244.507812 208.027344 C 244.8125 207.707031 245.160156 207.808594 245.472656 208.058594 C 246.445312 208.84375 247.421875 209.621094 248.5625 210.15625 C 248.714844 210.226562 248.871094 210.292969 249.023438 210.367188 C 249.417969 210.554688 249.613281 210.515625 249.582031 209.996094 C 249.453125 207.65625 249.371094 205.316406 249.234375 202.976562 C 249 198.992188 248.617188 195.019531 248.152344 191.054688 C 248.109375 190.691406 247.980469 190.601562 247.636719 190.523438 C 245.421875 190.015625 243.523438 188.898438 241.824219 187.417969 C 241.492188 187.128906 241.3125 186.738281 241.675781 186.371094 C 242.027344 186.015625 242.40625 186.171875 242.746094 186.464844 C 244.09375 187.617188 245.582031 188.523438 247.277344 189.066406 C 247.398438 189.105469 247.519531 189.140625 247.644531 189.167969 C 247.703125 189.179688 247.765625 189.171875 247.898438 189.171875 Z M 204.738281 213.382812 C 205.5 213.839844 206.265625 214.292969 207.046875 214.714844 C 208.574219 215.546875 209.769531 216.691406 210.566406 218.25 C 210.828125 218.753906 211.140625 219.234375 211.449219 219.710938 C 213.449219 222.777344 216.378906 223.90625 219.898438 222.972656 C 220.058594 222.929688 220.214844 222.851562 220.355469 222.761719 C 220.617188 222.59375 220.710938 222.339844 220.621094 222.046875 C 220.53125 221.75 220.308594 221.597656 219.992188 221.632812 C 219.71875 221.664062 219.445312 221.707031 219.175781 221.75 C 215.960938 222.285156 214.050781 221.417969 212.347656 218.640625 C 212.191406 218.390625 212.03125 218.140625 211.898438 217.875 C 210.902344 215.90625 209.417969 214.433594 207.460938 213.417969 C 206.746094 213.046875 206.058594 212.632812 205.375 212.210938 C 203.460938 211.019531 202.394531 209.277344 202.039062 207.066406 C 201.839844 205.824219 201.929688 204.582031 202.039062 203.34375 C 202.242188 201.0625 202.132812 198.824219 201.195312 196.691406 C 200.726562 195.625 200.175781 194.605469 199.601562 193.59375 C 198.507812 191.675781 198.007812 189.660156 198.792969 187.519531 C 199.875 184.554688 201.785156 182.359375 204.871094 181.351562 C 205.285156 181.214844 205.566406 180.996094 205.441406 180.527344 C 205.316406 180.0625 204.957031 179.988281 204.535156 180.085938 C 204.351562 180.128906 204.164062 180.175781 203.984375 180.230469 C 202.632812 180.636719 201.527344 181.453125 200.542969 182.417969 C 198.324219 184.589844 196.917969 187.140625 197.132812 190.355469 C 197.238281 191.957031 197.945312 193.359375 198.710938 194.734375 C 199.554688 196.25 200.359375 197.777344 200.652344 199.523438 C 200.886719 200.914062 200.78125 202.300781 200.671875 203.691406 C 200.550781 205.253906 200.523438 206.8125 201.007812 208.519531 C 201.554688 210.519531 202.800781 212.210938 204.738281 213.382812 Z M 270.675781 179.378906 C 269.59375 177.546875 267.746094 176.769531 265.757812 177.296875 C 265.367188 177.398438 265.074219 177.578125 265.144531 178.03125 C 265.214844 178.5 265.542969 178.636719 265.980469 178.589844 C 266.148438 178.570312 266.320312 178.566406 266.484375 178.539062 C 267.878906 178.3125 268.867188 178.898438 269.535156 180.082031 C 270.144531 181.15625 270.335938 182.351562 270.402344 183.554688 C 270.503906 185.417969 270.941406 187.179688 271.769531 188.855469 C 272.210938 189.746094 272.5625 190.679688 272.683594 191.679688 C 272.875 193.28125 272.492188 194.75 271.625 196.085938 C 270.1875 198.296875 269.53125 200.710938 269.59375 203.347656 C 269.625 204.652344 269.515625 205.960938 269.332031 207.261719 C 268.875 210.5625 267.101562 213.191406 265.015625 215.652344 C 264.128906 216.695312 263.15625 217.667969 262.011719 218.449219 C 261.675781 218.679688 261.511719 218.996094 261.742188 219.371094 C 261.972656 219.75 262.339844 219.75 262.6875 219.554688 C 263 219.378906 263.296875 219.175781 263.574219 218.945312 C 264.367188 218.285156 265.109375 217.5625 265.792969 216.785156 C 268.566406 213.644531 270.636719 210.171875 270.828125 205.84375 C 270.875 204.808594 270.957031 203.777344 270.945312 202.742188 C 270.917969 200.644531 271.515625 198.742188 272.640625 196.996094 C 274.367188 194.3125 274.484375 191.542969 273.132812 188.675781 C 272.464844 187.257812 271.867188 185.8125 271.792969 184.214844 C 271.746094 183.261719 271.652344 182.316406 271.464844 181.625 C 271.273438 180.683594 271.042969 180.003906 270.675781 179.378906 Z M 258.539062 176.617188 C 257.066406 175.710938 255.386719 175.320312 253.726562 174.917969 C 253.382812 174.835938 253.085938 174.980469 252.972656 175.335938 C 252.847656 175.714844 253.019531 176 253.371094 176.15625 C 253.558594 176.246094 253.769531 176.292969 253.972656 176.34375 C 254.917969 176.574219 255.832031 176.894531 256.75 177.210938 C 258.421875 177.78125 259.304688 178.992188 259.625 180.675781 C 259.792969 181.554688 259.746094 182.441406 259.742188 183.324219 C 259.742188 183.71875 259.910156 184.050781 260.359375 184.058594 C 260.792969 184.066406 261.015625 183.773438 261.046875 183.371094 C 261.148438 182.167969 261.097656 180.972656 260.792969 179.796875 C 260.429688 178.457031 259.722656 177.339844 258.539062 176.617188 Z M 239.5625 165.902344 C 239.597656 166.273438 239.835938 166.460938 240.195312 166.488281 C 240.363281 166.503906 240.53125 166.484375 240.699219 166.472656 C 242.003906 166.359375 243.277344 166.039062 244.570312 165.839844 C 246.753906 165.503906 248.800781 165.949219 250.757812 166.9375 C 251.128906 167.125 251.570312 167.226562 251.804688 166.753906 C 252.046875 166.269531 251.742188 165.957031 251.324219 165.75 C 249.816406 165.007812 248.253906 164.496094 246.550781 164.414062 C 244.34375 164.308594 242.261719 165.089844 240.171875 165.195312 C 239.773438 165.335938 239.519531 165.519531 239.5625 165.902344 Z M 236.433594 165.378906 C 236.039062 165.488281 235.902344 165.78125 236.023438 166.160156 C 236.136719 166.523438 236.421875 166.644531 236.773438 166.53125 C 237.125 166.417969 237.257812 166.152344 237.175781 165.773438 C 237.039062 165.449219 236.796875 165.277344 236.433594 165.378906 Z M 236.433594 165.378906 " fill-opacity="1" fill-rule="nonzero"/></g></g></g><g clip-path="url(#a7e8052e44)"><path fill="#000000" d="M 129.101562 247.929688 C 130.453125 242.589844 131.375 237.335938 131.453125 231.820312 C 130.859375 231.503906 130.265625 231 129.800781 230.730469 C 123.410156 227.03125 116.765625 223.804688 109.941406 220.996094 C 109.851562 221.535156 109.84375 222.175781 109.851562 222.988281 C 109.882812 226.695312 109.917969 230.40625 109.949219 234.109375 C 109.984375 238.035156 110.019531 241.960938 110.050781 245.882812 C 110.070312 248.113281 109.863281 250.574219 111.617188 252.179688 C 113.03125 253.476562 115.042969 254.402344 116.640625 255.429688 C 119.554688 257.289062 123.285156 260.71875 126.652344 261.390625 C 126.949219 261.449219 127.277344 261.464844 127.613281 261.449219 C 128.28125 259.015625 128.011719 256.589844 128.097656 254.046875 C 128.171875 251.953125 128.585938 249.960938 129.101562 247.929688 Z M 144.800781 226.472656 C 144.480469 226.269531 144.15625 226.066406 143.839844 225.851562 C 141.703125 224.425781 139.804688 222.816406 137.289062 222.109375 C 136.636719 221.925781 136.417969 221.210938 136.695312 220.625 C 136.917969 220.042969 137.136719 219.457031 137.363281 218.871094 C 137.496094 217.929688 137.632812 216.984375 137.757812 216.039062 C 137.023438 215.78125 136.445312 215.40625 135.738281 214.902344 C 133.515625 213.34375 131.015625 213.949219 128.519531 214.585938 C 124.976562 215.492188 121.429688 216.398438 117.882812 217.304688 C 116.03125 217.773438 114.03125 218.070312 112.242188 218.742188 C 111.4375 219.042969 110.898438 219.359375 110.542969 219.734375 C 116.242188 222.085938 121.824219 224.703125 127.230469 227.667969 C 128.785156 228.515625 130.65625 230.074219 132.421875 230.214844 C 134 230.339844 135.710938 229.355469 137.210938 228.835938 C 139.71875 227.964844 142.253906 227.1875 144.800781 226.472656 Z M 142.878906 230.980469 C 144.746094 230.242188 146.621094 229.503906 148.488281 228.761719 C 147.796875 228.347656 147.101562 227.925781 146.414062 227.496094 C 143.054688 228.40625 139.722656 229.421875 136.445312 230.597656 C 135.480469 230.941406 133.992188 231.832031 132.855469 232.046875 C 132.761719 237.175781 132.039062 242.140625 130.765625 247.109375 C 129.972656 250.21875 129.492188 253.050781 129.519531 256.261719 C 129.535156 257.992188 129.5 259.609375 129.121094 261.234375 C 131.722656 260.597656 134.753906 258.746094 136.964844 257.671875 C 136.988281 254.140625 137.140625 250.59375 137.140625 247.109375 C 137.148438 244.074219 137.132812 241.035156 137.148438 237.996094 C 137.160156 236.40625 136.976562 234.523438 138.125 233.242188 C 139.210938 232.027344 141.425781 231.554688 142.878906 230.980469 Z M 155 275.8125 C 154.984375 266.125 156.039062 256.523438 158.160156 247.070312 C 154.964844 246.078125 152.46875 244.386719 149.992188 242.136719 C 148.214844 240.523438 146.582031 240.101562 144.574219 239.136719 C 142.660156 238.207031 141.769531 235.949219 139.730469 235.257812 C 139.691406 235.328125 139.644531 235.394531 139.597656 235.484375 C 138.910156 236.886719 139.152344 238.425781 139.152344 239.949219 C 139.144531 245.15625 139.144531 250.375 139.140625 255.582031 C 139.140625 256.414062 139.117188 257.253906 139.09375 258.097656 C 139.144531 258.289062 139.144531 258.476562 139.078125 258.652344 C 139.035156 260.242188 139.003906 261.847656 139.132812 263.402344 C 139.441406 267.269531 141.699219 268.398438 144.59375 270.351562 C 147.664062 272.417969 151.25 275.117188 155 275.8125 Z M 159.878906 233.546875 C 160.785156 224.085938 160.988281 214.605469 160.476562 205.128906 C 153.691406 202.148438 147.230469 198.582031 141.078125 194.433594 C 140.820312 195.011719 140.882812 195.789062 140.910156 197.046875 C 140.949219 198.753906 140.910156 200.457031 140.832031 202.160156 C 140.578125 207.773438 140.136719 213.539062 139.332031 219.101562 C 139.332031 219.199219 139.316406 219.300781 139.289062 219.40625 C 139.277344 219.5 139.25 219.589844 139.21875 219.660156 C 139.101562 220.039062 139.023438 220.300781 138.925781 220.546875 C 140.777344 221.273438 142.351562 222.394531 144.03125 223.546875 C 146.4375 225.199219 148.960938 226.664062 151.441406 228.195312 C 153.335938 229.355469 155.199219 230.472656 156.9375 231.84375 C 157.507812 232.320312 158.097656 232.765625 158.71875 233.160156 C 159.140625 233.421875 159.527344 233.546875 159.878906 233.546875 Z M 182.199219 237.804688 C 181.445312 236.4375 180.082031 235.429688 178.871094 234.5625 C 176.96875 233.214844 175.066406 231.871094 173.171875 230.523438 C 171.285156 231.355469 169.382812 232.136719 167.457031 232.855469 C 166.285156 233.296875 165.105469 233.664062 163.910156 234.046875 C 162.714844 234.425781 161.695312 235.289062 160.535156 235.578125 C 157.800781 236.265625 154.117188 232.195312 152.011719 230.898438 C 151.558594 230.617188 151.105469 230.339844 150.640625 230.066406 C 148.234375 231.019531 145.820312 231.972656 143.414062 232.921875 C 142.300781 233.363281 141.414062 233.578125 140.699219 234.109375 C 141.679688 234.5625 142.226562 235.296875 143.1875 236.1875 C 144.765625 237.660156 146.546875 238.0625 148.367188 239.078125 C 149.828125 239.882812 150.890625 241.148438 152.136719 242.230469 C 154.128906 243.949219 156.351562 245.089844 158.867188 245.824219 C 158.96875 245.847656 159.039062 245.894531 159.113281 245.949219 C 163.441406 245.941406 166.960938 242.3125 171.230469 241.59375 C 173.171875 241.261719 174.339844 241.015625 175.972656 239.914062 C 176.855469 239.316406 177.503906 238.734375 178.507812 238.351562 C 179.683594 237.902344 180.941406 237.804688 182.199219 237.804688 Z M 182.933594 198.179688 C 182.332031 197.808594 181.617188 197.507812 180.808594 197.078125 C 177.707031 195.414062 174.605469 193.75 171.503906 192.089844 C 168.214844 190.332031 165.496094 188.65625 161.621094 189.285156 C 158.320312 189.820312 155.066406 190.796875 151.808594 191.554688 C 149.003906 192.210938 145.753906 192.253906 143.058594 193.144531 C 142.714844 193.257812 142.425781 193.367188 142.183594 193.480469 C 148.082031 197.421875 154.265625 200.839844 160.746094 203.710938 C 168.058594 201.542969 175.453125 199.703125 182.933594 198.179688 Z M 182.429688 242.207031 C 182.476562 241.332031 182.769531 240.140625 182.683594 239.214844 C 181.195312 239.191406 179.710938 239.261719 178.335938 239.957031 C 177.425781 240.410156 176.734375 241.21875 175.867188 241.734375 C 173.964844 242.875 172.023438 242.6875 169.933594 243.257812 C 166.207031 244.265625 163.433594 247.164062 159.53125 247.355469 C 157.414062 256.773438 156.371094 266.328125 156.398438 275.976562 C 157.347656 276.015625 158.300781 275.910156 159.253906 275.613281 C 164.167969 274.097656 169.027344 272.320312 173.875 270.617188 C 176.828125 269.574219 180.3125 269.21875 181.144531 265.667969 C 181.675781 263.363281 181.4375 260.515625 181.5625 258.148438 C 181.851562 252.839844 182.144531 247.519531 182.429688 242.207031 Z M 184.574219 205.464844 C 184.632812 204.058594 184.960938 202.289062 184.691406 200.90625 C 184.566406 200.261719 184.378906 199.765625 184.136719 199.359375 C 176.632812 200.871094 169.210938 202.707031 161.859375 204.859375 C 162.375 214.191406 162.203125 223.515625 161.347656 232.820312 C 162.023438 232.609375 162.707031 232.308594 163.375 232.101562 C 166.550781 231.121094 169.878906 229.972656 173.066406 228.570312 C 173.121094 228.542969 173.179688 228.515625 173.238281 228.496094 C 175.574219 227.460938 177.835938 226.300781 179.882812 224.941406 C 183.359375 222.644531 183.417969 219.007812 183.839844 215.207031 C 184.191406 211.96875 184.4375 208.71875 184.574219 205.464844 Z M 187.085938 264.746094 C 187.832031 254.433594 187.914062 244.109375 187.320312 233.785156 C 183.945312 231.671875 180.363281 230.074219 176.542969 228.988281 C 176.214844 229.140625 175.878906 229.289062 175.558594 229.441406 C 175.472656 229.484375 175.382812 229.523438 175.296875 229.5625 C 177.488281 231.09375 179.710938 232.605469 181.839844 234.214844 C 183.125 235.191406 184.234375 236.136719 184.539062 237.800781 C 185.011719 240.417969 184.359375 243.539062 184.210938 246.191406 C 184.03125 249.511719 183.851562 252.839844 183.671875 256.152344 C 183.550781 258.410156 183.480469 260.679688 183.335938 262.941406 C 184.039062 263.390625 184.730469 264.078125 185.472656 264.375 C 186.074219 264.617188 186.601562 264.730469 187.085938 264.746094 Z M 205.789062 222.777344 C 198.984375 221.003906 192.390625 218.621094 186.011719 215.648438 C 185.78125 217.59375 185.460938 219.5 184.980469 221.320312 C 184.058594 224.757812 181.363281 226.597656 178.421875 228.085938 C 181.773438 229.167969 184.953125 230.652344 187.953125 232.523438 C 194.148438 229.738281 200.09375 226.488281 205.789062 222.777344 Z M 205.574219 247.9375 C 205.902344 239.824219 205.503906 231.707031 206.949219 223.695312 C 201.132812 227.515625 195.0625 230.859375 188.71875 233.710938 C 189.308594 243.976562 189.234375 254.238281 188.5 264.492188 C 189.316406 264.175781 190.046875 263.609375 190.902344 263.054688 C 192.667969 261.90625 194.417969 260.71875 196.136719 259.496094 C 198.164062 258.058594 200.167969 256.574219 202.121094 255.039062 C 203.289062 254.113281 204.761719 253.023438 205.269531 251.535156 C 205.617188 250.515625 205.53125 249.039062 205.574219 247.9375 Z M 208.496094 221.390625 C 209.050781 221.523438 209.308594 222.109375 209.195312 222.628906 C 207.855469 228.90625 207.773438 235.261719 207.707031 241.652344 C 207.660156 245.605469 208.617188 251.558594 205.636719 254.699219 C 201.867188 258.671875 196.464844 261.828125 191.910156 264.792969 C 190.339844 265.820312 188.621094 267.34375 186.621094 267.054688 C 185.328125 266.875 184.246094 266.007812 183.171875 265.238281 C 183.058594 266.492188 182.917969 267.792969 182.175781 268.855469 C 181.171875 270.292969 179.503906 270.75 177.929688 271.3125 C 175.386719 272.21875 172.847656 273.113281 170.292969 273.992188 C 167.550781 274.941406 164.804688 275.882812 162.050781 276.808594 C 160.121094 277.453125 158.097656 278.3125 156.023438 278.242188 C 151.863281 278.085938 147.429688 274.644531 144.078125 272.417969 C 141.074219 270.425781 137.429688 268.539062 137.140625 264.59375 C 137.027344 263.023438 136.984375 261.429688 136.96875 259.839844 C 135.0625 260.691406 133.152344 261.539062 131.246094 262.382812 C 129.945312 262.96875 128.371094 263.921875 126.890625 263.792969 C 125.207031 263.652344 123.652344 262.277344 122.289062 261.410156 C 120.066406 259.992188 117.847656 258.578125 115.632812 257.167969 C 112.976562 255.46875 108.84375 253.898438 108.15625 250.449219 C 107.742188 248.386719 108.050781 246.007812 108.027344 243.921875 C 108.007812 241.304688 107.988281 238.6875 107.960938 236.074219 C 107.921875 230.925781 107.371094 225.496094 107.828125 220.375 C 108.144531 216.902344 111.3125 216.902344 114.222656 216.15625 C 119.226562 214.882812 124.230469 213.570312 129.238281 212.324219 C 130.917969 211.90625 132.765625 211.253906 134.503906 211.792969 C 135.875 212.222656 136.773438 213.324219 138.011719 213.933594 C 138.664062 208.328125 139.03125 202.574219 138.910156 197.046875 C 138.882812 195.492188 138.269531 193.164062 139.671875 191.996094 C 141.441406 190.527344 145.386719 190.847656 147.539062 190.4375 C 150.875 189.804688 154.164062 188.894531 157.480469 188.121094 C 159.808594 187.585938 162.328125 186.816406 164.742188 187.078125 C 167.136719 187.332031 169.265625 188.613281 171.355469 189.726562 C 174.066406 191.179688 176.78125 192.636719 179.496094 194.09375 C 181.445312 195.136719 184.707031 196.140625 186.023438 198.074219 C 187.058594 199.597656 186.691406 201.796875 186.644531 203.511719 C 186.554688 206.746094 186.507812 210.195312 186.21875 213.597656 C 186.320312 213.613281 186.429688 213.636719 186.535156 213.6875 C 193.589844 217.015625 200.921875 219.574219 208.496094 221.390625 " fill-opacity="1" fill-rule="nonzero"/></g><path fill="#000000" d="M 203.441406 247.394531 C 204.066406 247.777344 204.300781 248.386719 204.074219 248.601562 C 203.847656 248.824219 203.339844 248.65625 202.855469 248.359375 C 202.363281 248.050781 201.984375 247.675781 202.074219 247.375 C 202.160156 247.070312 202.808594 247.003906 203.441406 247.394531 " fill-opacity="1" fill-rule="nonzero"/><path fill="#000000" d="M 203.1875 249.039062 C 203.78125 249.285156 203.96875 249.855469 203.742188 250.058594 C 203.507812 250.273438 203.105469 250.226562 202.753906 250.085938 C 202.40625 249.929688 202.085938 249.683594 202.074219 249.367188 C 202.0625 249.058594 202.585938 248.792969 203.1875 249.039062 " fill-opacity="1" fill-rule="nonzero"/><path fill="#000000" d="M 193.496094 234.699219 C 194.074219 234.980469 194.4375 235.4375 194.304688 235.71875 C 194.160156 236 193.582031 236 193 235.710938 C 192.421875 235.429688 192.0625 234.972656 192.199219 234.691406 C 192.335938 234.410156 192.914062 234.410156 193.496094 234.699219 " fill-opacity="1" fill-rule="nonzero"/><path fill="#000000" d="M 192.84375 235.980469 C 193.550781 236.34375 194.007812 236.867188 193.871094 237.148438 C 193.730469 237.421875 193.042969 237.355469 192.328125 236.992188 C 191.621094 236.632812 191.164062 236.109375 191.300781 235.832031 C 191.441406 235.550781 192.128906 235.621094 192.84375 235.980469 " fill-opacity="1" fill-rule="nonzero"/><path fill="#000000" d="M 182.164062 202.542969 C 183.132812 202.972656 183.597656 203.75 183.394531 203.972656 C 183.175781 204.207031 182.488281 203.921875 181.710938 203.578125 C 180.9375 203.222656 180.265625 202.898438 180.292969 202.582031 C 180.316406 202.273438 181.203125 202.105469 182.164062 202.542969 " fill-opacity="1" fill-rule="nonzero"/><path fill="#000000" d="M 181.261719 203.855469 C 182.128906 204.171875 182.59375 204.832031 182.398438 205.082031 C 182.210938 205.328125 181.578125 205.175781 180.882812 204.925781 C 180.195312 204.671875 179.601562 204.390625 179.625 204.074219 C 179.628906 203.765625 180.398438 203.542969 181.261719 203.855469 " fill-opacity="1" fill-rule="nonzero"/><path fill="#000000" d="M 180.121094 220.492188 C 180.769531 220.777344 181.191406 221.234375 181.070312 221.523438 C 180.941406 221.808594 180.324219 221.816406 179.675781 221.535156 C 179.035156 221.257812 178.609375 220.796875 178.738281 220.507812 C 178.855469 220.222656 179.484375 220.21875 180.121094 220.492188 " fill-opacity="1" fill-rule="nonzero"/><path fill="#000000" d="M 179.363281 222.117188 C 180.265625 222.289062 180.851562 222.816406 180.730469 223.097656 C 180.605469 223.394531 179.917969 223.375 179.152344 223.226562 C 178.382812 223.074219 177.734375 222.828125 177.730469 222.515625 C 177.722656 222.207031 178.460938 221.9375 179.363281 222.117188 " fill-opacity="1" fill-rule="nonzero"/><path fill="#000000" d="M 179.601562 261.785156 C 180.269531 262.191406 180.507812 262.84375 180.285156 263.042969 C 180.050781 263.257812 179.539062 263.0625 179.019531 262.757812 C 178.515625 262.441406 178.109375 262.074219 178.179688 261.773438 C 178.253906 261.472656 178.933594 261.382812 179.601562 261.785156 " fill-opacity="1" fill-rule="nonzero"/><path fill="#000000" d="M 179.125 263.671875 C 179.667969 263.960938 179.996094 264.417969 179.855469 264.691406 C 179.710938 264.96875 179.152344 264.960938 178.601562 264.679688 C 178.054688 264.390625 177.722656 263.933594 177.867188 263.652344 C 178.007812 263.378906 178.570312 263.382812 179.125 263.671875 " fill-opacity="1" fill-rule="nonzero"/><path fill="#000000" d="M 158.03125 226.261719 C 158.679688 226.785156 159.054688 227.402344 158.863281 227.648438 C 158.667969 227.890625 157.980469 227.667969 157.335938 227.152344 C 156.6875 226.628906 156.3125 226.011719 156.503906 225.773438 C 156.699219 225.523438 157.386719 225.742188 158.03125 226.261719 " fill-opacity="1" fill-rule="nonzero"/><path fill="#000000" d="M 156.59375 227.886719 C 157.210938 228.3125 157.566406 228.875 157.394531 229.125 C 157.21875 229.382812 156.570312 229.25 155.953125 228.816406 C 155.335938 228.394531 154.976562 227.839844 155.160156 227.582031 C 155.332031 227.324219 155.972656 227.460938 156.59375 227.886719 " fill-opacity="1" fill-rule="nonzero"/><path fill="#000000" d="M 155.480469 249.28125 C 156 249.714844 156.253906 250.265625 156.050781 250.507812 C 155.851562 250.746094 155.269531 250.582031 154.75 250.144531 C 154.234375 249.710938 153.976562 249.160156 154.175781 248.917969 C 154.378906 248.679688 154.957031 248.84375 155.480469 249.28125 " fill-opacity="1" fill-rule="nonzero"/><path fill="#000000" d="M 154.757812 250.722656 C 155.097656 251.152344 155.171875 251.664062 154.929688 251.855469 C 154.6875 252.050781 154.214844 251.855469 153.878906 251.425781 C 153.539062 250.992188 153.457031 250.488281 153.703125 250.292969 C 153.945312 250.097656 154.417969 250.292969 154.757812 250.722656 " fill-opacity="1" fill-rule="nonzero"/><path fill="#000000" d="M 152.148438 269.839844 C 152.792969 270.171875 153.046875 270.761719 152.824219 270.980469 C 152.609375 271.210938 152.117188 271.09375 151.636719 270.847656 C 151.164062 270.59375 150.777344 270.261719 150.835938 269.957031 C 150.890625 269.648438 151.511719 269.503906 152.148438 269.839844 " fill-opacity="1" fill-rule="nonzero"/><path fill="#000000" d="M 151.394531 271.332031 C 152.1875 271.832031 152.503906 272.574219 152.273438 272.777344 C 152.03125 272.980469 151.433594 272.6875 150.796875 272.289062 C 150.167969 271.882812 149.644531 271.46875 149.730469 271.164062 C 149.808594 270.867188 150.609375 270.828125 151.394531 271.332031 " fill-opacity="1" fill-rule="nonzero"/><path fill="#000000" d="M 146.929688 202.046875 C 147.015625 202.421875 146.957031 202.683594 146.8125 202.738281 C 146.507812 202.832031 146.046875 202.226562 145.386719 201.65625 C 144.753906 201.070312 144.097656 200.675781 144.167969 200.363281 C 144.199219 200.214844 144.445312 200.121094 144.824219 200.171875 C 145.207031 200.214844 145.707031 200.421875 146.140625 200.8125 C 146.574219 201.203125 146.832031 201.675781 146.929688 202.046875 " fill-opacity="1" fill-rule="nonzero"/><path fill="#000000" d="M 144.949219 202.054688 C 145.625 202.601562 145.855469 203.328125 145.605469 203.511719 C 145.355469 203.699219 144.800781 203.382812 144.242188 202.933594 C 143.683594 202.484375 143.253906 202.011719 143.382812 201.722656 C 143.5 201.433594 144.261719 201.496094 144.949219 202.054688 " fill-opacity="1" fill-rule="nonzero"/><path fill="#000000" d="M 129.507812 232.960938 C 130.464844 233.496094 131.121094 234.160156 130.976562 234.429688 C 130.820312 234.703125 129.921875 234.492188 128.957031 233.945312 C 128 233.410156 127.339844 232.753906 127.492188 232.476562 C 127.644531 232.203125 128.542969 232.417969 129.507812 232.960938 " fill-opacity="1" fill-rule="nonzero"/><path fill="#000000" d="M 128.800781 234.046875 C 129.6875 234.464844 130.125 235.175781 129.925781 235.402344 C 129.71875 235.644531 129.054688 235.410156 128.328125 235.074219 C 127.59375 234.726562 126.992188 234.363281 127.042969 234.046875 C 127.09375 233.746094 127.917969 233.632812 128.800781 234.046875 " fill-opacity="1" fill-rule="nonzero"/><g fill="#000000" fill-opacity="1"><g transform="translate(102.317255, 146.71464)"><g><path d="M -0.46875 -42.015625 L 13.25 -14.9375 C 13.539062 -14.425781 13.640625 -13.894531 13.546875 -13.34375 C 13.460938 -12.800781 13.203125 -12.320312 12.765625 -11.90625 L 8.1875 -7.640625 C 7.757812 -7.234375 7.265625 -7.003906 6.703125 -6.953125 C 6.148438 -6.910156 5.625 -7.046875 5.125 -7.359375 L -20.9375 -22.921875 L -15.78125 -27.734375 L 3.609375 -15.1875 C 4.648438 -14.507812 5.625 -13.835938 6.53125 -13.171875 L 7.359375 -13.9375 C 7.035156 -14.414062 6.4375 -15.429688 5.5625 -16.984375 L -5.640625 -37.1875 Z M -0.46875 -42.015625 "/></g></g></g><g fill="#000000" fill-opacity="1"><g transform="translate(122.536046, 127.906391)"><g><path d="M 18.15625 -16.3125 L 20.890625 -12.046875 C 18.578125 -10.410156 14.460938 -7.9375 8.546875 -4.625 C 6.734375 -3.613281 5.015625 -3.296875 3.390625 -3.671875 C 1.773438 -4.054688 0.484375 -5.082031 -0.484375 -6.75 L -9.671875 -23.171875 C -10.585938 -24.847656 -10.78125 -26.476562 -10.25 -28.0625 C -9.726562 -29.65625 -8.5625 -30.957031 -6.75 -31.96875 C -0.832031 -35.28125 3.425781 -37.488281 6.03125 -38.59375 L 8.25 -34.03125 L -2.171875 -28.1875 C -2.828125 -27.820312 -3.207031 -27.398438 -3.3125 -26.921875 C -3.425781 -26.441406 -3.285156 -25.847656 -2.890625 -25.140625 L -0.578125 -21.015625 L 10.21875 -27.0625 L 12.625 -22.75 L 1.828125 -16.703125 L 4.765625 -11.46875 C 5.171875 -10.738281 5.601562 -10.296875 6.0625 -10.140625 C 6.519531 -9.992188 7.078125 -10.101562 7.734375 -10.46875 Z M 18.15625 -16.3125 "/></g></g></g><g fill="#000000" fill-opacity="1"><g transform="translate(144.136088, 115.45577)"><g><path d="M 20.9375 -24.34375 L 25.6875 -7.078125 L 20.8125 -5.734375 L 19.390625 -8.5625 C 17.734375 -5.550781 15.179688 -3.570312 11.734375 -2.625 C 8.378906 -1.695312 5.609375 -2.253906 3.421875 -4.296875 C 1.242188 -6.347656 -0.597656 -10.117188 -2.109375 -15.609375 C -3.722656 -21.453125 -3.84375 -25.757812 -2.46875 -28.53125 C -1.101562 -31.3125 2.0625 -33.382812 7.03125 -34.75 C 10.644531 -35.75 13.8125 -36.25 16.53125 -36.25 L 17.34375 -31.234375 C 14.039062 -30.484375 11.207031 -29.78125 8.84375 -29.125 C 7.5 -28.757812 6.472656 -28.359375 5.765625 -27.921875 C 5.066406 -27.492188 4.523438 -26.84375 4.140625 -25.96875 C 3.753906 -25.09375 3.632812 -23.984375 3.78125 -22.640625 C 3.9375 -21.296875 4.316406 -19.523438 4.921875 -17.328125 C 5.953125 -13.585938 7.007812 -11.117188 8.09375 -9.921875 C 9.175781 -8.734375 10.65625 -8.394531 12.53125 -8.90625 C 14.269531 -9.382812 15.925781 -10.382812 17.5 -11.90625 L 14.5625 -22.578125 Z M 20.9375 -24.34375 "/></g></g></g><g fill="#000000" fill-opacity="1"><g transform="translate(170.897672, 107.90838)"><g><path d="M 19.875 -8.421875 L 9.203125 -8.265625 L 7.0625 -0.09375 L 0.046875 0 L 8.59375 -29.375 C 8.707031 -29.914062 8.988281 -30.351562 9.4375 -30.6875 C 9.882812 -31.019531 10.394531 -31.191406 10.96875 -31.203125 L 17.4375 -31.296875 C 18.726562 -31.316406 19.53125 -30.726562 19.84375 -29.53125 L 29.203125 -0.40625 L 22.234375 -0.3125 Z M 18.3125 -13.703125 L 15.578125 -23.171875 C 15.191406 -24.671875 14.960938 -25.640625 14.890625 -26.078125 L 13.6875 -26.0625 C 13.632812 -25.757812 13.535156 -25.273438 13.390625 -24.609375 C 13.242188 -23.953125 13.128906 -23.460938 13.046875 -23.140625 L 10.5625 -13.609375 Z M 18.3125 -13.703125 "/></g></g></g><g fill="#000000" fill-opacity="1"><g transform="translate(198.732655, 107.113585)"><g><path d="M 36.21875 -22.65625 L 29.015625 5 C 28.597656 6.59375 27.601562 7.1875 26.03125 6.78125 L 21.90625 5.703125 C 21.226562 5.523438 20.742188 5.238281 20.453125 4.84375 C 20.160156 4.445312 19.929688 3.847656 19.765625 3.046875 L 16.0625 -15.03125 C 15.625 -17.40625 15.414062 -19.117188 15.4375 -20.171875 L 14.953125 -20.296875 C 14.773438 -18.785156 14.460938 -17.160156 14.015625 -15.421875 L 9.359375 2.4375 L 3.046875 0.796875 L 10.25 -26.859375 C 10.664062 -28.453125 11.671875 -29.039062 13.265625 -28.625 L 17.328125 -27.578125 C 17.992188 -27.398438 18.472656 -27.109375 18.765625 -26.703125 C 19.066406 -26.304688 19.300781 -25.710938 19.46875 -24.921875 L 23.046875 -7.375 C 23.390625 -5.738281 23.695312 -3.945312 23.96875 -2 L 24.390625 -1.890625 C 24.804688 -4.179688 25.160156 -5.882812 25.453125 -7 L 29.953125 -24.28125 Z M 36.21875 -22.65625 "/></g></g></g><g fill="#000000" fill-opacity="1"><g transform="translate(228.857467, 115.204414)"><g><path d="M 18.5 -3.09375 L 14.125 -8.078125 C 12.519531 -9.929688 11.640625 -11.726562 11.484375 -13.46875 C 11.328125 -15.207031 11.820312 -17.097656 12.96875 -19.140625 C 14.632812 -22.117188 16.476562 -23.707031 18.5 -23.90625 C 20.519531 -24.101562 23.363281 -23.175781 27.03125 -21.125 C 30.476562 -19.1875 33.242188 -17.164062 35.328125 -15.0625 L 32.65625 -11.1875 C 30.414062 -12.550781 27.609375 -14.175781 24.234375 -16.0625 C 22.660156 -16.945312 21.535156 -17.398438 20.859375 -17.421875 C 20.191406 -17.441406 19.550781 -16.898438 18.9375 -15.796875 C 18.4375 -14.910156 18.269531 -14.160156 18.4375 -13.546875 C 18.601562 -12.929688 19.140625 -12.132812 20.046875 -11.15625 L 24.171875 -6.5 C 25.867188 -4.59375 26.789062 -2.757812 26.9375 -1 C 27.09375 0.75 26.597656 2.644531 25.453125 4.6875 C 23.753906 7.71875 21.863281 9.363281 19.78125 9.625 C 17.707031 9.882812 14.785156 8.957031 11.015625 6.84375 C 7.953125 5.125 5.039062 3.050781 2.28125 0.625 L 5.0625 -3.5 C 10.5625 -0.25 13.503906 1.484375 13.890625 1.703125 C 15.492188 2.597656 16.65625 3.023438 17.375 2.984375 C 18.101562 2.941406 18.769531 2.382812 19.375 1.3125 C 19.882812 0.394531 20.066406 -0.347656 19.921875 -0.921875 C 19.773438 -1.503906 19.300781 -2.226562 18.5 -3.09375 Z M 18.5 -3.09375 "/></g></g></g><g fill="#000000" fill-opacity="1"><g transform="translate(250.973474, 127.318419)"><g><path d="M 18.34375 -1.578125 L 16.40625 -3.390625 C 15.738281 -2.367188 15.140625 -1.570312 14.609375 -1 L 7.296875 6.8125 L 2.3125 2.15625 L 23.515625 -20.53125 L 28.5 -15.875 L 22.515625 -9.46875 C 21.609375 -8.5 20.6875 -7.664062 19.75 -6.96875 L 21.6875 -5.15625 L 35.96875 -8.890625 L 41.390625 -3.828125 L 27.09375 -0.234375 C 26.101562 0.0664062 24.988281 0.148438 23.75 0.015625 L 23.625 0.15625 C 23.90625 1.445312 23.914062 2.707031 23.65625 3.9375 L 20.578125 19.234375 L 14.984375 14 Z M 18.34375 -1.578125 "/></g></g></g></svg>