<svg xmlns="http://www.w3.org/2000/svg" xmlns:xlink="http://www.w3.org/1999/xlink" width="500" zoomAndPan="magnify" viewBox="0 0 375 374.999991" height="500" preserveAspectRatio="xMidYMid meet" version="1.0"><defs><g/><clipPath id="5064af74c9"><path d="M 45.238281 45.238281 L 329.761719 45.238281 L 329.761719 329.761719 L 45.238281 329.761719 Z M 45.238281 45.238281 " clip-rule="nonzero"/></clipPath><clipPath id="09d6452886"><path d="M 187.5 45.238281 C 108.929688 45.238281 45.238281 108.929688 45.238281 187.5 C 45.238281 266.070312 108.929688 329.761719 187.5 329.761719 C 266.070312 329.761719 329.761719 266.070312 329.761719 187.5 C 329.761719 108.929688 266.070312 45.238281 187.5 45.238281 Z M 187.5 45.238281 " clip-rule="nonzero"/></clipPath><clipPath id="9ec4b80bf1"><path d="M 204 132 L 262 132 L 262 247.996094 L 204 247.996094 Z M 204 132 " clip-rule="nonzero"/></clipPath><clipPath id="f297cee7cd"><path d="M 111.5 190.027344 L 198.5 190.027344 L 198.5 256.777344 L 111.5 256.777344 Z M 111.5 190.027344 " clip-rule="nonzero"/></clipPath></defs><g clip-path="url(#5064af74c9)"><g clip-path="url(#09d6452886)"><path fill="#cfff00" d="M 45.238281 45.238281 L 329.761719 45.238281 L 329.761719 329.761719 L 45.238281 329.761719 Z M 45.238281 45.238281 " fill-opacity="1" fill-rule="nonzero"/></g></g><g clip-path="url(#9ec4b80bf1)"><path fill="#000000" d="M 261.457031 198.667969 C 261.050781 195.5625 260 192.652344 258.335938 190.023438 C 256.707031 187.445312 254.539062 185.207031 251.886719 183.375 C 249.226562 181.535156 246.160156 180.15625 242.769531 179.277344 C 239.59375 178.453125 236.195312 178.089844 232.660156 178.183594 C 233.828125 173.105469 234.828125 170.609375 236.992188 169.632812 C 237.15625 169.558594 237.332031 169.492188 237.519531 169.417969 C 238.082031 169.199219 238.722656 168.953125 239.261719 168.445312 C 240.625 167.15625 240.371094 165.398438 240.148438 163.847656 C 239.996094 162.808594 239.855469 161.828125 240.171875 161.109375 C 240.628906 160.074219 242.046875 159.613281 243.417969 159.167969 C 243.578125 159.113281 243.734375 159.0625 243.890625 159.011719 C 245.933594 158.328125 248.191406 156.691406 247.820312 154.320312 C 247.738281 153.816406 247.546875 153.390625 247.378906 153.011719 C 247.273438 152.777344 247.171875 152.550781 247.121094 152.351562 C 246.6875 150.703125 248.90625 149.25 250.621094 148.742188 C 250.933594 148.648438 251.25 148.5625 251.585938 148.46875 C 253.730469 147.878906 256.160156 147.210938 257.355469 145.042969 C 258.039062 143.792969 258.089844 142.300781 257.496094 140.839844 C 256.789062 139.105469 255.273438 137.703125 253.542969 137.179688 C 250.980469 136.40625 247.9375 137.089844 244.976562 139.097656 C 239.363281 142.90625 236.242188 149.273438 234.148438 154.398438 C 233.792969 155.269531 233.453125 156.136719 233.132812 157 C 232.933594 155.609375 232.699219 154.191406 232.425781 152.757812 C 231.382812 147.320312 229.574219 140.460938 224.824219 135.613281 C 222.320312 133.058594 219.46875 131.789062 216.804688 132.039062 C 215.003906 132.207031 213.246094 133.285156 212.207031 134.847656 C 211.339844 136.160156 211.09375 137.632812 211.519531 138.992188 C 212.261719 141.355469 214.511719 142.492188 216.5 143.496094 C 216.8125 143.652344 217.105469 143.800781 217.390625 143.953125 C 218.972656 144.789062 220.863281 146.65625 220.113281 148.183594 C 220.023438 148.371094 219.878906 148.570312 219.730469 148.78125 C 219.488281 149.117188 219.214844 149.5 219.039062 149.976562 C 218.207031 152.230469 220.097656 154.28125 221.964844 155.355469 C 222.105469 155.4375 222.25 155.519531 222.398438 155.601562 C 223.652344 156.308594 224.953125 157.042969 225.195312 158.148438 C 225.367188 158.917969 225.035156 159.847656 224.683594 160.835938 C 224.15625 162.3125 223.5625 163.988281 224.640625 165.515625 C 225.070312 166.121094 225.648438 166.492188 226.160156 166.816406 C 226.328125 166.925781 226.488281 167.027344 226.632812 167.128906 C 228.179688 168.238281 228.847656 170.105469 229.097656 174.011719 C 229.179688 175.253906 229.214844 176.65625 229.242188 178.425781 C 226.804688 178.707031 224.429688 179.214844 222.171875 179.941406 C 219.417969 180.828125 216.914062 182.019531 214.730469 183.480469 C 212.265625 185.125 210.214844 187.113281 208.628906 189.386719 C 206.871094 191.914062 205.675781 194.816406 205.078125 198.011719 C 204.390625 201.6875 203.988281 207.300781 205.96875 213.171875 C 208.027344 219.277344 212.160156 224.207031 218.257812 227.8125 C 221.964844 230.007812 224.152344 231.929688 225.8125 234.457031 C 227.640625 237.242188 228.886719 240.933594 229.847656 246.421875 C 230.007812 247.332031 230.75 247.957031 231.667969 247.957031 C 231.683594 247.957031 231.699219 247.957031 231.71875 247.953125 C 232.65625 247.929688 233.390625 247.265625 233.503906 246.335938 C 235.03125 234.097656 241.113281 231.433594 242.941406 230.910156 C 249.527344 229.015625 254.738281 225.03125 258.007812 219.382812 C 261.296875 213.703125 262.488281 206.539062 261.457031 198.667969 Z M 236.042969 155.175781 C 238.023438 150.320312 240.964844 144.296875 246.121094 140.796875 C 249.417969 138.5625 251.816406 138.800781 252.957031 139.144531 C 254.089844 139.488281 255.128906 140.457031 255.601562 141.617188 C 255.808594 142.125 256.078125 143.113281 255.5625 144.054688 C 254.789062 145.460938 252.96875 145.964844 251.042969 146.492188 C 250.714844 146.582031 250.375 146.679688 250.042969 146.773438 C 248.652344 147.1875 247.335938 147.941406 246.429688 148.851562 C 245.230469 150.046875 244.773438 151.476562 245.140625 152.875 C 245.238281 153.238281 245.382812 153.566406 245.515625 153.855469 C 245.640625 154.140625 245.761719 154.410156 245.800781 154.640625 C 245.960938 155.667969 244.589844 156.621094 243.246094 157.070312 C 243.09375 157.117188 242.941406 157.167969 242.789062 157.21875 C 241.15625 157.75 239.128906 158.410156 238.300781 160.285156 C 237.746094 161.542969 237.945312 162.925781 238.125 164.144531 C 238.328125 165.539062 238.421875 166.425781 237.863281 166.953125 C 237.617188 167.1875 237.214844 167.339844 236.785156 167.503906 C 236.582031 167.582031 236.371094 167.664062 236.15625 167.761719 C 235.207031 168.191406 234.433594 168.804688 233.792969 169.589844 C 233.914062 167.074219 233.867188 164.464844 233.660156 161.769531 C 234.324219 159.628906 235.125 157.410156 236.042969 155.175781 Z M 227.824219 165.460938 C 227.632812 165.324219 227.441406 165.203125 227.253906 165.082031 C 226.871094 164.835938 226.503906 164.605469 226.308594 164.328125 C 225.863281 163.703125 226.132812 162.851562 226.605469 161.523438 C 227.019531 160.363281 227.488281 159.050781 227.191406 157.707031 C 226.753906 155.703125 224.890625 154.65625 223.398438 153.8125 C 223.257812 153.734375 223.117188 153.65625 222.980469 153.578125 C 221.753906 152.871094 220.59375 151.667969 220.953125 150.691406 C 221.035156 150.472656 221.207031 150.230469 221.390625 149.976562 C 221.574219 149.71875 221.78125 149.429688 221.949219 149.089844 C 222.582031 147.792969 222.417969 146.300781 221.476562 144.890625 C 220.769531 143.820312 219.625 142.820312 218.34375 142.140625 C 218.039062 141.980469 217.722656 141.820312 217.417969 141.664062 C 215.636719 140.765625 213.953125 139.914062 213.46875 138.378906 C 213.148438 137.355469 213.609375 136.4375 213.910156 135.984375 C 214.601562 134.9375 215.8125 134.195312 216.992188 134.082031 C 217.128906 134.070312 217.28125 134.0625 217.449219 134.0625 C 218.734375 134.0625 220.898438 134.539062 223.367188 137.054688 C 227.734375 141.503906 229.425781 147.992188 230.414062 153.144531 C 230.984375 156.113281 231.386719 159.003906 231.605469 161.734375 C 231.980469 166.429688 231.84375 170.84375 231.195312 174.917969 C 231.179688 174.558594 231.160156 174.214844 231.136719 173.878906 C 230.894531 170.078125 230.234375 167.195312 227.824219 165.460938 Z M 259.035156 211.046875 L 252.144531 211.046875 C 251.578125 211.046875 251.121094 211.507812 251.121094 212.074219 C 251.121094 212.640625 251.578125 213.097656 252.144531 213.097656 L 258.496094 213.097656 C 258.191406 214.113281 257.828125 215.09375 257.410156 216.035156 L 257.410156 215.648438 L 243.433594 215.648438 C 242.871094 215.648438 242.410156 216.109375 242.410156 216.675781 C 242.410156 217.242188 242.871094 217.699219 243.433594 217.699219 L 256.597656 217.699219 C 256.480469 217.917969 256.359375 218.140625 256.234375 218.355469 C 253.234375 223.535156 248.441406 227.195312 242.371094 228.9375 C 241.035156 229.324219 238.4375 230.425781 236.054688 233.511719 C 233.851562 236.363281 232.371094 240.179688 231.640625 244.875 C 230.652344 239.742188 229.367188 236.148438 227.515625 233.328125 C 226.402344 231.632812 225.09375 230.195312 223.351562 228.800781 L 229.058594 228.800781 C 229.625 228.800781 230.082031 228.339844 230.082031 227.773438 C 230.082031 227.207031 229.625 226.75 229.058594 226.75 L 220.445312 226.75 C 220.078125 226.515625 219.695312 226.28125 219.296875 226.046875 C 213.632812 222.695312 209.796875 218.140625 207.902344 212.511719 C 207.066406 210.03125 206.6875 207.597656 206.585938 205.355469 L 212.695312 205.355469 C 213.261719 205.355469 213.71875 204.894531 213.71875 204.328125 C 213.71875 203.761719 213.261719 203.304688 212.695312 203.304688 L 206.566406 203.304688 C 206.613281 201.441406 206.828125 199.769531 207.085938 198.390625 C 208.128906 192.820312 211.082031 188.378906 215.863281 185.183594 C 219.691406 182.625 224.726562 180.925781 230.050781 180.398438 C 230.15625 180.386719 230.261719 180.378906 230.367188 180.367188 C 230.699219 180.335938 231.039062 180.3125 231.390625 180.289062 C 231.402344 180.289062 231.410156 180.289062 231.417969 180.289062 C 231.421875 180.289062 231.425781 180.289062 231.425781 180.289062 C 231.429688 180.289062 231.429688 180.289062 231.433594 180.289062 C 231.527344 180.28125 231.621094 180.277344 231.714844 180.273438 L 231.722656 180.273438 C 235.425781 180.078125 238.96875 180.410156 242.257812 181.261719 C 245.414062 182.082031 248.265625 183.359375 250.726562 185.0625 C 252.257812 186.121094 253.613281 187.324219 254.777344 188.660156 L 243.816406 188.660156 C 243.25 188.660156 242.792969 189.121094 242.792969 189.6875 C 242.792969 190.253906 243.25 190.710938 243.816406 190.710938 L 256.347656 190.710938 C 256.4375 190.847656 256.523438 190.980469 256.609375 191.117188 C 258.113281 193.496094 259.0625 196.125 259.429688 198.933594 C 259.996094 203.261719 259.855469 207.34375 259.035156 211.046875 Z M 259.035156 211.046875 " fill-opacity="1" fill-rule="nonzero"/></g><g clip-path="url(#f297cee7cd)"><path fill="#000000" d="M 168.308594 190.027344 C 168.082031 190.027344 167.839844 190.097656 167.648438 190.21875 L 143.796875 204.878906 C 143.273438 205.191406 143.046875 205.855469 143.273438 206.410156 C 143.464844 206.914062 143.570312 207.453125 143.570312 208.011719 C 143.570312 210.515625 141.535156 212.550781 139.046875 212.550781 C 137.777344 212.550781 136.558594 212.011719 135.6875 211.070312 C 135.273438 210.621094 134.609375 210.53125 134.089844 210.84375 L 112.117188 224.324219 C 112.082031 224.339844 112.0625 224.359375 112.027344 224.375 C 112.011719 224.375 112.011719 224.394531 111.992188 224.394531 C 111.976562 224.410156 111.957031 224.429688 111.941406 224.429688 C 111.925781 224.445312 111.925781 224.445312 111.90625 224.464844 C 111.890625 224.480469 111.871094 224.480469 111.871094 224.5 C 111.855469 224.515625 111.855469 224.53125 111.835938 224.53125 C 111.820312 224.550781 111.820312 224.550781 111.800781 224.566406 C 111.785156 224.585938 111.785156 224.601562 111.765625 224.621094 C 111.75 224.636719 111.75 224.65625 111.734375 224.65625 C 111.714844 224.671875 111.714844 224.691406 111.699219 224.707031 C 111.679688 224.722656 111.679688 224.742188 111.664062 224.757812 C 111.664062 224.777344 111.644531 224.792969 111.644531 224.792969 C 111.628906 224.8125 111.628906 224.828125 111.609375 224.847656 C 111.609375 224.863281 111.59375 224.882812 111.59375 224.882812 C 111.59375 224.898438 111.574219 224.914062 111.574219 224.933594 C 111.574219 224.949219 111.558594 224.96875 111.558594 224.96875 C 111.558594 224.984375 111.542969 225.003906 111.542969 225.019531 C 111.542969 225.039062 111.542969 225.054688 111.523438 225.070312 C 111.523438 225.089844 111.523438 225.105469 111.507812 225.125 C 111.507812 225.140625 111.507812 225.160156 111.507812 225.175781 C 111.507812 225.195312 111.507812 225.210938 111.507812 225.230469 C 111.507812 225.246094 111.507812 225.261719 111.507812 225.296875 C 111.507812 225.316406 111.507812 225.316406 111.507812 225.332031 L 111.507812 234.046875 C 111.507812 234.671875 111.976562 235.210938 112.601562 235.296875 C 114.828125 235.613281 116.5 237.542969 116.5 239.785156 C 116.5 242.027344 114.828125 243.960938 112.601562 244.273438 C 111.976562 244.359375 111.507812 244.898438 111.507812 245.523438 L 111.507812 253.613281 C 111.507812 254.570312 111.925781 255.472656 112.671875 256.066406 C 113.246094 256.535156 113.941406 256.777344 114.671875 256.777344 C 114.882812 256.777344 115.109375 256.761719 115.316406 256.707031 L 165.910156 246.378906 C 166.535156 246.253906 166.953125 245.679688 166.917969 245.054688 C 166.917969 244.96875 166.917969 244.898438 166.917969 244.8125 C 166.917969 242.046875 169.164062 239.804688 171.929688 239.804688 C 174.015625 239.804688 175.914062 241.125 176.625 243.074219 C 176.835938 243.664062 177.460938 244.011719 178.070312 243.871094 L 195.953125 240.21875 C 197.414062 239.925781 198.496094 238.601562 198.496094 237.105469 L 198.496094 208.183594 C 198.496094 199.679688 175.652344 190.027344 168.308594 190.027344 Z M 134.574219 213.523438 C 135.828125 214.53125 137.394531 215.089844 139.03125 215.089844 C 142.925781 215.089844 146.09375 211.925781 146.09375 208.011719 C 146.09375 207.507812 146.039062 207.019531 145.9375 206.53125 L 168.65625 192.585938 C 175.945312 192.863281 193.816406 201.316406 195.78125 207.175781 L 119.578125 222.722656 Z M 195.953125 237.246094 C 195.953125 237.542969 195.746094 237.804688 195.449219 237.871094 L 178.539062 241.316406 C 177.234375 238.933594 174.695312 237.386719 171.910156 237.386719 C 167.996094 237.386719 164.761719 240.394531 164.394531 244.203125 L 114.792969 254.324219 C 114.550781 254.378906 114.359375 254.273438 114.273438 254.203125 C 114.1875 254.132812 114.046875 253.976562 114.046875 253.714844 L 114.046875 246.636719 C 116.953125 245.734375 119.039062 243.003906 119.039062 239.890625 C 119.039062 236.757812 116.953125 234.027344 114.046875 233.140625 L 114.046875 226.480469 L 166.082031 215.855469 L 195.953125 209.75 Z M 169.632812 193.90625 C 166.484375 193.90625 163.925781 196.460938 163.925781 199.609375 C 163.925781 202.757812 166.484375 205.316406 169.632812 205.316406 C 172.78125 205.316406 175.339844 202.757812 175.339844 199.609375 C 175.339844 196.460938 172.78125 193.90625 169.632812 193.90625 Z M 169.632812 202.777344 C 167.890625 202.777344 166.464844 201.351562 166.464844 199.609375 C 166.464844 197.871094 167.890625 196.445312 169.632812 196.445312 C 171.371094 196.445312 172.796875 197.871094 172.796875 199.609375 C 172.796875 201.367188 171.390625 202.777344 169.632812 202.777344 Z M 156.550781 206.707031 C 154.53125 206.707031 152.878906 208.359375 152.878906 210.375 C 152.878906 212.394531 154.53125 214.046875 156.550781 214.046875 C 158.566406 214.046875 160.21875 212.394531 160.21875 210.375 C 160.21875 208.339844 158.585938 206.707031 156.550781 206.707031 Z M 156.550781 211.507812 C 155.921875 211.507812 155.417969 211.003906 155.417969 210.375 C 155.417969 209.75 155.921875 209.246094 156.550781 209.246094 C 157.175781 209.246094 157.679688 209.75 157.679688 210.375 C 157.679688 211.003906 157.175781 211.507812 156.550781 211.507812 Z M 140.875 225.195312 C 137.863281 225.195312 135.410156 227.644531 135.410156 230.65625 C 135.410156 233.664062 137.863281 236.117188 140.875 236.117188 C 143.882812 236.117188 146.335938 233.664062 146.335938 230.65625 C 146.335938 227.644531 143.882812 225.195312 140.875 225.195312 Z M 140.875 233.578125 C 139.253906 233.578125 137.949219 232.273438 137.949219 230.65625 C 137.949219 229.039062 139.253906 227.734375 140.875 227.734375 C 142.492188 227.734375 143.796875 229.039062 143.796875 230.65625 C 143.796875 232.273438 142.472656 233.578125 140.875 233.578125 Z M 156.550781 231.296875 C 154.199219 231.296875 152.304688 233.210938 152.304688 235.558594 C 152.304688 237.90625 154.21875 239.804688 156.550781 239.804688 C 158.898438 239.804688 160.792969 237.890625 160.792969 235.558594 C 160.8125 233.210938 158.898438 231.296875 156.550781 231.296875 Z M 156.550781 237.265625 C 155.609375 237.265625 154.828125 236.5 154.828125 235.542969 C 154.828125 234.601562 155.59375 233.820312 156.550781 233.820312 C 157.488281 233.820312 158.269531 234.585938 158.269531 235.542969 C 158.269531 236.5 157.503906 237.265625 156.550781 237.265625 Z M 132.886719 240.742188 C 130.367188 240.742188 128.296875 242.792969 128.296875 245.332031 C 128.296875 247.871094 130.347656 249.925781 132.886719 249.925781 C 135.429688 249.925781 137.480469 247.871094 137.480469 245.332031 C 137.480469 242.792969 135.410156 240.742188 132.886719 240.742188 Z M 132.886719 247.386719 C 131.757812 247.386719 130.835938 246.464844 130.835938 245.332031 C 130.835938 244.203125 131.757812 243.28125 132.886719 243.28125 C 134.019531 243.28125 134.941406 244.203125 134.941406 245.332031 C 134.941406 246.464844 134.019531 247.386719 132.886719 247.386719 Z M 185.410156 232.011719 C 189.132812 232.011719 192.179688 228.984375 192.179688 225.246094 C 192.179688 221.507812 189.152344 218.480469 185.410156 218.480469 C 181.671875 218.480469 178.644531 221.507812 178.644531 225.246094 C 178.644531 228.984375 181.6875 232.011719 185.410156 232.011719 Z M 185.410156 221.039062 C 187.742188 221.039062 189.640625 222.933594 189.640625 225.261719 C 189.640625 227.59375 187.742188 229.488281 185.410156 229.488281 C 183.082031 229.488281 181.183594 227.59375 181.183594 225.261719 C 181.183594 222.933594 183.082031 221.039062 185.410156 221.039062 Z M 185.410156 221.039062 " fill-opacity="1" fill-rule="nonzero"/></g><g fill="#000000" fill-opacity="1"><g transform="translate(85.949678, 173.282918)"><g><path d="M -12.25 -40.1875 L 8.53125 -18.078125 C 8.945312 -17.660156 9.191406 -17.171875 9.265625 -16.609375 C 9.335938 -16.054688 9.21875 -15.519531 8.90625 -15 L 5.71875 -9.640625 C 5.414062 -9.128906 5.003906 -8.769531 4.484375 -8.5625 C 3.960938 -8.363281 3.421875 -8.347656 2.859375 -8.515625 L -26.546875 -16.109375 L -22.9375 -22.1875 L -0.796875 -15.578125 C 0.390625 -15.234375 1.515625 -14.867188 2.578125 -14.484375 L 3.15625 -15.4375 C 2.707031 -15.8125 1.84375 -16.625 0.5625 -17.875 L -15.859375 -34.109375 Z M -12.25 -40.1875 "/></g></g></g><g fill="#000000" fill-opacity="1"><g transform="translate(100.080312, 149.556985)"><g><path d="M 12.84375 -20.75 L 16.671875 -17.4375 C 14.910156 -15.21875 11.65625 -11.6875 6.90625 -6.84375 C 5.445312 -5.363281 3.882812 -4.578125 2.21875 -4.484375 C 0.5625 -4.390625 -0.960938 -5.007812 -2.359375 -6.34375 L -15.78125 -19.515625 C -17.125 -20.878906 -17.769531 -22.394531 -17.71875 -24.0625 C -17.664062 -25.726562 -16.910156 -27.300781 -15.453125 -28.78125 C -10.703125 -33.625 -7.234375 -36.945312 -5.046875 -38.75 L -1.640625 -34.96875 L -10 -26.4375 C -10.519531 -25.90625 -10.765625 -25.394531 -10.734375 -24.90625 C -10.703125 -24.414062 -10.398438 -23.890625 -9.828125 -23.328125 L -6.453125 -20.015625 L 2.203125 -28.84375 L 5.734375 -25.390625 L -2.921875 -16.5625 L 1.359375 -12.359375 C 1.953125 -11.773438 2.488281 -11.472656 2.96875 -11.453125 C 3.457031 -11.429688 3.960938 -11.6875 4.484375 -12.21875 Z M 12.84375 -20.75 "/></g></g></g><g fill="#000000" fill-opacity="1"><g transform="translate(117.320343, 131.547031)"><g><path d="M 13.265625 -29.234375 L 22.671875 -14 L 18.375 -11.34375 L 16.203125 -13.65625 C 15.453125 -10.3125 13.554688 -7.703125 10.515625 -5.828125 C 7.554688 -4.003906 4.742188 -3.765625 2.078125 -5.109375 C -0.578125 -6.453125 -3.40625 -9.546875 -6.40625 -14.390625 C -9.582031 -19.546875 -10.90625 -23.644531 -10.375 -26.6875 C -9.84375 -29.738281 -7.382812 -32.617188 -3 -35.328125 C 0.195312 -37.304688 3.097656 -38.671875 5.703125 -39.421875 L 7.875 -34.859375 C 4.925781 -33.191406 2.40625 -31.710938 0.3125 -30.421875 C -0.863281 -29.691406 -1.734375 -29.023438 -2.296875 -28.421875 C -2.859375 -27.828125 -3.195312 -27.050781 -3.3125 -26.09375 C -3.425781 -25.132812 -3.21875 -24.03125 -2.6875 -22.78125 C -2.164062 -21.539062 -1.304688 -19.953125 -0.109375 -18.015625 C 1.921875 -14.722656 3.617188 -12.648438 4.984375 -11.796875 C 6.347656 -10.953125 7.859375 -11.039062 9.515625 -12.0625 C 11.046875 -13.007812 12.359375 -14.4375 13.453125 -16.34375 L 7.640625 -25.75 Z M 13.265625 -29.234375 "/></g></g></g><g fill="#000000" fill-opacity="1"><g transform="translate(141.169809, 116.897181)"><g><path d="M 21.03125 -12.40625 L 22.875 -7.6875 C 20.28125 -6.53125 15.753906 -4.914062 9.296875 -2.84375 C 7.328125 -2.207031 5.582031 -2.234375 4.0625 -2.921875 C 2.550781 -3.617188 1.484375 -4.878906 0.859375 -6.703125 L -4.90625 -24.609375 C -5.457031 -26.441406 -5.316406 -28.082031 -4.484375 -29.53125 C -3.660156 -30.988281 -2.265625 -32.035156 -0.296875 -32.671875 C 6.160156 -34.742188 10.78125 -36.066406 13.5625 -36.640625 L 14.8125 -31.71875 L 3.4375 -28.0625 C 2.726562 -27.832031 2.273438 -27.488281 2.078125 -27.03125 C 1.878906 -26.582031 1.898438 -25.976562 2.140625 -25.21875 L 3.59375 -20.71875 L 15.375 -24.515625 L 16.890625 -19.8125 L 5.109375 -16.015625 L 6.9375 -10.296875 C 7.195312 -9.503906 7.535156 -8.988281 7.953125 -8.75 C 8.378906 -8.519531 8.945312 -8.519531 9.65625 -8.75 Z M 21.03125 -12.40625 "/></g></g></g><g fill="#000000" fill-opacity="1"><g transform="translate(164.954648, 109.065833)"><g><path d="M 24.1875 -27.421875 L 14.953125 -26.703125 L 16.921875 -1.3125 L 10.046875 -0.78125 L 8.078125 -26.171875 L -1.15625 -25.453125 L -1.59375 -31.015625 L 23.75 -32.984375 Z M 24.1875 -27.421875 "/></g></g></g><g fill="#000000" fill-opacity="1"><g transform="translate(190.819744, 106.789398)"><g><path d="M 21.078125 -4.65625 L 10.546875 -6.453125 L 6.96875 1.1875 L 0.046875 0.015625 L 13.8125 -27.3125 C 14.03125 -27.820312 14.382812 -28.195312 14.875 -28.4375 C 15.375 -28.6875 15.910156 -28.765625 16.484375 -28.671875 L 22.859375 -27.578125 C 24.128906 -27.359375 24.804688 -26.632812 24.890625 -25.40625 L 28.78125 4.9375 L 21.921875 3.75 Z M 20.5 -10.140625 L 19.53125 -19.9375 C 19.425781 -21.476562 19.382812 -22.472656 19.40625 -22.921875 L 18.21875 -23.125 C 18.101562 -22.84375 17.914062 -22.382812 17.65625 -21.75 C 17.394531 -21.125 17.191406 -20.664062 17.046875 -20.375 L 12.859375 -11.453125 Z M 20.5 -10.140625 "/></g></g></g><g fill="#000000" fill-opacity="1"><g transform="translate(218.47144, 111.389002)"><g><path d="M 25.171875 11.375 L 18.578125 8.390625 L 20.359375 -1.234375 C 20.484375 -2.253906 20.398438 -3.035156 20.109375 -3.578125 C 19.816406 -4.128906 19.242188 -4.59375 18.390625 -4.96875 L 14.03125 -7 L 9.03125 4.078125 L 2.875 1.296875 L 15.65625 -27 C 18.300781 -26.09375 21.953125 -24.585938 26.609375 -22.484375 C 30.398438 -20.773438 32.816406 -18.960938 33.859375 -17.046875 C 34.910156 -15.128906 34.71875 -12.585938 33.28125 -9.421875 C 32.34375 -7.335938 31.191406 -5.894531 29.828125 -5.09375 C 28.460938 -4.289062 26.753906 -4.203125 24.703125 -4.828125 L 24.609375 -4.625 C 26.546875 -3.164062 27.242188 -1.140625 26.703125 1.453125 Z M 16.203125 -11.796875 L 20.703125 -9.765625 C 22.335938 -9.023438 23.582031 -8.796875 24.4375 -9.078125 C 25.300781 -9.367188 26.082031 -10.289062 26.78125 -11.84375 C 27.488281 -13.40625 27.671875 -14.585938 27.328125 -15.390625 C 26.984375 -16.203125 25.976562 -16.988281 24.3125 -17.75 L 19.796875 -19.75 Z M 16.203125 -11.796875 "/></g></g></g><g fill="#000000" fill-opacity="1"><g transform="translate(244.311205, 123.865156)"><g><path d="M 8.15625 5.765625 L 2.578125 1.828125 L 20.5 -23.53125 L 26.078125 -19.59375 Z M 8.15625 5.765625 "/></g></g></g><g fill="#000000" fill-opacity="1"><g transform="translate(255.424489, 131.007666)"><g><path d="M 18.625 2.234375 L 15.828125 -3.78125 C 14.804688 -6.019531 14.460938 -7.992188 14.796875 -9.703125 C 15.140625 -11.421875 16.148438 -13.097656 17.828125 -14.734375 C 20.265625 -17.128906 22.476562 -18.132812 24.46875 -17.75 C 26.457031 -17.375 28.921875 -15.6875 31.859375 -12.6875 C 34.628906 -9.863281 36.722656 -7.15625 38.140625 -4.5625 L 34.46875 -1.59375 C 32.71875 -3.519531 30.488281 -5.863281 27.78125 -8.625 C 26.519531 -9.90625 25.566406 -10.648438 24.921875 -10.859375 C 24.273438 -11.078125 23.503906 -10.742188 22.609375 -9.859375 C 21.878906 -9.148438 21.507812 -8.472656 21.5 -7.828125 C 21.488281 -7.191406 21.773438 -6.28125 22.359375 -5.09375 L 25.03125 0.546875 C 26.125 2.847656 26.492188 4.859375 26.140625 6.578125 C 25.796875 8.304688 24.789062 9.988281 23.125 11.625 C 20.632812 14.0625 18.359375 15.113281 16.296875 14.78125 C 14.234375 14.457031 11.6875 12.75 8.65625 9.65625 C 6.195312 7.144531 3.984375 4.335938 2.015625 1.234375 L 5.84375 -1.9375 C 10.207031 2.71875 12.546875 5.207031 12.859375 5.53125 C 14.140625 6.84375 15.132812 7.582031 15.84375 7.75 C 16.550781 7.914062 17.347656 7.566406 18.234375 6.703125 C 18.984375 5.960938 19.363281 5.289062 19.375 4.6875 C 19.394531 4.09375 19.144531 3.273438 18.625 2.234375 Z M 18.625 2.234375 "/></g></g></g><g fill="#000000" fill-opacity="1"><g transform="translate(273.254361, 148.838025)"><g><path d="M 18.0625 3.625 L 16.71875 1.34375 C 15.78125 2.144531 14.972656 2.742188 14.296875 3.140625 L 5.09375 8.59375 L 1.609375 2.71875 L 28.3125 -13.109375 L 31.796875 -7.234375 L 24.265625 -2.765625 C 23.128906 -2.085938 22.015625 -1.546875 20.921875 -1.140625 L 22.265625 1.140625 L 37 1.546875 L 40.78125 7.9375 L 26.0625 7.375 C 25.03125 7.382812 23.941406 7.15625 22.796875 6.6875 L 22.640625 6.796875 C 22.535156 8.085938 22.191406 9.296875 21.609375 10.421875 L 14.359375 24.234375 L 10.453125 17.65625 Z M 18.0625 3.625 "/></g></g></g></svg>