<svg xmlns="http://www.w3.org/2000/svg" xmlns:xlink="http://www.w3.org/1999/xlink" width="500" zoomAndPan="magnify" viewBox="0 0 375 374.999991" height="500" preserveAspectRatio="xMidYMid meet" version="1.0"><defs><g/><clipPath id="8f922894ca"><path d="M 45.238281 45.238281 L 329.761719 45.238281 L 329.761719 329.761719 L 45.238281 329.761719 Z M 45.238281 45.238281 " clip-rule="nonzero"/></clipPath><clipPath id="527998fe06"><path d="M 187.5 45.238281 C 108.929688 45.238281 45.238281 108.929688 45.238281 187.5 C 45.238281 266.070312 108.929688 329.761719 187.5 329.761719 C 266.070312 329.761719 329.761719 266.070312 329.761719 187.5 C 329.761719 108.929688 266.070312 45.238281 187.5 45.238281 Z M 187.5 45.238281 " clip-rule="nonzero"/></clipPath><clipPath id="30e83a8ddf"><path d="M 102.53125 145.417969 L 272.464844 145.417969 L 272.464844 254 L 102.53125 254 Z M 102.53125 145.417969 " clip-rule="nonzero"/></clipPath></defs><g clip-path="url(#8f922894ca)"><g clip-path="url(#527998fe06)"><path fill="#cfff00" d="M 45.238281 45.238281 L 329.761719 45.238281 L 329.761719 329.761719 L 45.238281 329.761719 Z M 45.238281 45.238281 " fill-opacity="1" fill-rule="nonzero"/></g></g><g clip-path="url(#30e83a8ddf)"><path fill="#000000" d="M 237.378906 250.304688 C 237.414062 250.28125 237.4375 250.269531 237.46875 250.246094 C 239.210938 249.046875 238.929688 246.796875 238.410156 245 C 238.464844 244.820312 238.53125 244.628906 238.589844 244.46875 C 238.816406 243.835938 239.054688 243.203125 239.300781 242.582031 C 240.082031 240.578125 240.886719 238.589844 241.699219 236.589844 C 244.128906 230.5625 246.558594 224.535156 248.890625 218.464844 C 249.566406 216.6875 248.371094 214.847656 247.488281 213.375 C 246.753906 212.15625 246.074219 210.96875 245.476562 209.714844 C 246.558594 210.574219 247.65625 211.421875 248.742188 212.269531 C 250.652344 213.773438 252.585938 215.34375 254.160156 217.199219 C 256.339844 219.765625 257.492188 222.511719 257.890625 225.859375 C 258.238281 228.785156 258.535156 231.804688 259.054688 234.710938 C 259.371094 236.488281 259.789062 238.183594 260.671875 239.765625 C 261.054688 240.453125 261.519531 241.097656 262.015625 241.722656 C 262.71875 242.601562 263.292969 244.003906 263.691406 245.058594 C 264.1875 246.367188 264.59375 247.703125 265.058594 249.035156 C 265.566406 250.507812 266.300781 252.460938 268.246094 252.28125 C 269.671875 252.15625 270.234375 250.890625 270.6875 249.761719 C 271.0625 248.820312 271.378906 247.816406 271.617188 246.832031 C 272.101562 244.832031 272.507812 241.9375 270.632812 240.5 C 270.507812 240.398438 270.304688 240.242188 270.113281 240.046875 C 270.226562 239.921875 270.316406 239.777344 270.40625 239.617188 C 270.9375 238.65625 270.722656 237.570312 270.089844 236.734375 C 269.703125 236.214844 269.160156 235.773438 268.628906 235.378906 C 268.199219 234.632812 267.703125 232.347656 267.546875 231.589844 C 267.035156 229.136719 266.664062 226.617188 266.324219 224.140625 C 265.792969 220.21875 265.339844 216.203125 265.046875 212.257812 C 264.742188 208.050781 265.214844 206.265625 260.988281 204.242188 C 255.820312 201.777344 253.175781 197.75 251.863281 192.3125 C 251.265625 189.8125 250.980469 187.246094 250.777344 184.691406 C 250.585938 182.308594 250.460938 179.851562 250.078125 177.480469 C 250.054688 177.34375 250.03125 177.21875 250.007812 177.082031 C 250.121094 176.992188 250.234375 176.878906 250.335938 176.753906 C 251.09375 175.851562 251.558594 174.765625 251.546875 173.566406 C 251.511719 169.847656 246.980469 167.132812 244.074219 165.640625 C 241.6875 164.410156 238.769531 163.175781 236.179688 162.453125 C 226.003906 159.582031 216.078125 161.230469 205.757812 161.84375 C 200.847656 162.136719 195.207031 162.203125 190.414062 160.972656 C 189.023438 160.621094 187.710938 160.144531 186.410156 159.546875 C 185.28125 159.027344 184.183594 158.429688 183.0625 157.875 C 179.660156 156.1875 176.789062 155.566406 172.96875 155.566406 C 171.621094 155.566406 170.34375 155.804688 169.089844 156.28125 C 166.511719 157.273438 164.136719 159.320312 161.785156 160.800781 C 158.019531 163.175781 154.121094 164.566406 149.777344 165.484375 C 147.957031 165.867188 145.910156 165.855469 143.945312 165.925781 C 144.417969 165.414062 144.894531 164.894531 145.359375 164.375 C 148.09375 161.324219 151.519531 157.363281 152.742188 153.40625 C 153.148438 152.074219 153.058594 150.503906 151.597656 149.8125 C 150.625 149.347656 149.65625 149.644531 148.898438 150.277344 C 148.988281 149.507812 148.898438 148.714844 148.601562 147.992188 C 148.058594 146.667969 146.75 145.664062 145.257812 146.046875 C 143.707031 146.453125 143.175781 147.980469 143.324219 149.417969 C 143.402344 150.242188 142.90625 151.078125 142.269531 151.769531 C 142.148438 151.066406 142.046875 150.332031 141.976562 149.972656 C 141.808594 149.03125 141.390625 148.117188 140.722656 147.4375 C 139.839844 146.546875 138.507812 146.117188 137.339844 146.792969 C 135.960938 147.597656 135.90625 149.203125 136.449219 150.511719 C 137.015625 151.894531 136.515625 153.894531 135.960938 155.328125 C 135.691406 154.867188 135.476562 154.390625 135.316406 153.882812 C 135.160156 153.339844 135.082031 152.773438 134.878906 152.242188 C 134.550781 151.371094 133.792969 150.761719 132.84375 150.71875 C 131.5625 150.660156 130.726562 151.597656 130.457031 152.742188 C 130.332031 153.273438 130.296875 153.859375 130.332031 154.402344 C 130.410156 155.941406 130.929688 157.457031 131.699219 158.777344 C 131.914062 159.152344 132.085938 159.546875 132.175781 159.953125 C 131.902344 159.140625 131.269531 158.507812 130.34375 158.382812 C 129.550781 158.269531 128.792969 158.585938 128.296875 159.195312 C 128.09375 159.433594 127.945312 159.707031 127.832031 160 C 127.652344 160.453125 127.574219 160.949219 127.539062 161.425781 C 127.460938 162.679688 127.765625 163.957031 128.320312 165.074219 C 128.792969 166.035156 129.210938 167.753906 128.703125 168.863281 C 127.664062 168.410156 125.898438 166.828125 125.335938 166.273438 C 124.589844 165.539062 122.484375 163.277344 122.179688 162.304688 C 121.277344 159.09375 117.285156 159.320312 117.195312 162.644531 C 117.09375 166.457031 121.207031 170.074219 124.058594 172.121094 C 124.25 172.253906 124.679688 172.582031 124.996094 172.898438 C 124.691406 172.980469 124.339844 173.035156 124.160156 173.058594 C 122.777344 173.214844 120.382812 171.9375 119.296875 171.179688 C 117.316406 169.824219 115.53125 167.835938 114.855469 165.496094 C 114.59375 164.613281 114.277344 163.675781 113.847656 162.859375 C 113.238281 161.707031 112.207031 160.710938 110.773438 161.085938 C 108.035156 161.796875 109.085938 165.789062 109.527344 167.664062 C 109.914062 169.257812 110.464844 170.71875 111.191406 172.039062 C 109.777344 170.898438 108.578125 169.40625 107.46875 167.800781 C 107.253906 167.496094 107.019531 167.179688 106.757812 166.90625 C 106.046875 166.207031 105.039062 165.914062 104.089844 166.363281 C 102.609375 167.066406 102.699219 168.558594 102.980469 169.859375 C 103.296875 171.328125 104.292969 173.082031 105.558594 174.71875 C 105.175781 175.421875 105.230469 176.246094 105.628906 176.96875 C 106.917969 179.378906 108.816406 181.152344 111.371094 182.148438 C 113.6875 183.0625 116.222656 183.210938 118.6875 183.074219 C 119.929688 183.007812 121.152344 182.859375 122.371094 182.703125 C 121.367188 183.933594 120.382812 185.167969 119.421875 186.433594 C 117.894531 188.421875 116.402344 190.480469 115.078125 192.617188 C 113.6875 194.867188 111.066406 199.222656 113.167969 201.730469 C 113.441406 202.046875 113.769531 202.320312 114.140625 202.511719 C 114.199219 202.546875 114.230469 202.566406 114.265625 202.613281 C 114.480469 202.917969 114.683594 203.597656 114.832031 203.945312 C 115.25 205 115.769531 205.902344 116.527344 206.75 C 117.757812 208.117188 119.523438 208.84375 121.34375 208.324219 C 122.316406 208.039062 123.207031 207.40625 123.820312 206.570312 C 123.851562 206.582031 123.886719 206.605469 123.910156 206.617188 C 124.589844 206.921875 125.3125 207.125 126.058594 207.101562 C 128.386719 207.023438 129.507812 205 130.117188 202.976562 C 130.421875 203.199219 130.726562 203.414062 131.042969 203.621094 C 132.808594 204.75 134.707031 205.371094 136.800781 205.429688 C 136.980469 206.074219 136.980469 207.644531 136.992188 208.109375 C 137.023438 210.257812 137.105469 212.824219 139.015625 214.214844 C 139.875 214.835938 140.890625 215.152344 141.953125 214.914062 C 145.164062 214.214844 146.035156 208.988281 146.511719 206.296875 C 146.566406 206.003906 146.613281 205.710938 146.65625 205.417969 C 146.976562 203.460938 146.871094 201.6875 146.464844 199.765625 C 146.339844 199.175781 146.09375 198.339844 145.992188 197.617188 C 146.476562 197.707031 146.976562 197.785156 147.496094 197.832031 C 148.488281 197.921875 149.460938 197.921875 150.445312 197.898438 C 151.15625 197.886719 151.902344 197.863281 152.617188 197.953125 C 152.875 197.988281 153.136719 198.035156 153.386719 198.101562 C 153.519531 198.136719 153.65625 198.160156 153.792969 198.167969 C 154.175781 199.265625 154.5625 200.351562 154.910156 201.460938 C 155.464844 203.246094 155.996094 205.335938 155.65625 207.214844 C 155.070312 210.550781 154.359375 213.953125 153.292969 217.175781 C 152.753906 218.824219 152.039062 220.386719 151.484375 222.015625 C 150.898438 223.753906 150.648438 225.40625 150.558594 227.238281 C 150.433594 229.792969 149.460938 233.039062 148.625 235.445312 C 147.9375 237.402344 147.121094 239.414062 146.125 241.222656 C 145.808594 241.789062 144.78125 243.53125 144.226562 243.835938 C 143.0625 244.332031 141.945312 245.339844 141.140625 246.425781 C 139.050781 247.203125 137.535156 249.21875 137.058594 251.386719 C 136.910156 252.042969 137.058594 252.664062 137.476562 253.1875 C 137.894531 253.707031 138.472656 253.988281 139.140625 253.988281 C 141.773438 253.988281 144.40625 253.988281 147.054688 253.988281 C 148.207031 253.988281 149.28125 253.582031 149.925781 252.574219 C 150.511719 251.671875 150.480469 250.742188 150.390625 249.738281 C 150.695312 249.679688 151.054688 249.648438 151.238281 249.636719 C 153.058594 249.5 153.554688 247.894531 153.804688 246.402344 C 154.019531 245.113281 154.1875 243.859375 154.472656 242.570312 C 155.523438 237.855469 157.636719 233.601562 160.453125 229.703125 C 163.03125 226.105469 164.871094 222.140625 166.75 218.160156 C 168.398438 214.652344 170.128906 210.992188 172.570312 207.960938 C 172.707031 207.800781 172.832031 207.644531 172.96875 207.484375 C 173.148438 207.542969 173.328125 207.585938 173.53125 207.597656 C 175.183594 207.710938 176.824219 207.746094 178.472656 207.710938 C 180.035156 210.765625 181.449219 213.648438 182.644531 216.9375 C 183.707031 219.867188 183.199219 222.761719 184.046875 225.621094 C 184.433594 226.921875 185.097656 228.246094 185.609375 229.523438 C 186.523438 231.816406 187.203125 234.167969 187.769531 236.566406 C 188.207031 238.429688 188.636719 240.410156 188.808594 242.308594 C 188.851562 242.761719 188.945312 244.105469 188.773438 244.617188 C 188.207031 245.179688 187.710938 245.90625 187.453125 246.683594 C 185.675781 247.65625 184.511719 249.566406 184.285156 251.601562 C 184.21875 252.226562 184.398438 252.800781 184.816406 253.265625 C 185.234375 253.738281 185.777344 253.976562 186.410156 253.976562 C 188.796875 253.976562 191.183594 253.976562 193.578125 253.976562 C 194.96875 253.976562 196.339844 253.523438 197.003906 252.214844 C 197.558594 251.117188 197.34375 249.941406 196.914062 248.867188 C 197.582031 248.753906 198.179688 248.460938 198.621094 247.929688 C 199.957031 246.34375 198.824219 243.925781 198.238281 242.253906 C 197.085938 238.972656 196.113281 235.761719 195.308594 232.371094 C 194.800781 230.199219 194.507812 228.121094 194.371094 225.890625 C 194.199219 223.234375 194.15625 220.601562 193.917969 217.945312 C 193.546875 213.804688 192.820312 209.703125 191.949219 205.644531 C 195.601562 205.40625 199.300781 205.621094 203.007812 205.878906 C 209.203125 206.320312 216.316406 207.054688 222.195312 204.691406 C 223.203125 204.285156 224.164062 203.800781 225.078125 203.222656 C 226.1875 205.15625 227.40625 207.078125 228.71875 209.035156 C 230.347656 211.464844 232.101562 213.898438 233.558594 216.429688 C 234.65625 218.328125 235.660156 220.429688 235.957031 222.625 C 236.171875 224.285156 235.964844 225.859375 235.414062 227.441406 C 234.574219 229.804688 234.023438 232.40625 233.421875 234.835938 C 233.050781 236.363281 231.648438 242.140625 230.359375 243 C 229.183594 243.777344 227.621094 245.078125 227 246.582031 C 225.269531 247.578125 223.949219 249.070312 223.042969 250.902344 C 222.703125 251.582031 222.75 252.328125 223.144531 252.972656 C 223.539062 253.617188 224.195312 253.976562 224.953125 253.976562 C 228.039062 253.976562 231.117188 253.976562 234.203125 253.976562 C 235.242188 253.976562 236.203125 253.582031 236.824219 252.734375 C 237.367188 251.988281 237.480469 251.140625 237.4375 250.257812 Z M 224.898438 251.886719 C 225.960938 249.726562 227.488281 248.628906 228.820312 248.0625 C 228.820312 248.0625 228.539062 246.773438 231.476562 244.820312 C 234.417969 242.863281 235.605469 233.117188 237.355469 228.199219 C 241.800781 215.71875 225.496094 208.457031 220.929688 187.023438 C 220.523438 189.949219 221.640625 195.886719 223.949219 201.414062 C 213.457031 208.140625 197.421875 200.011719 182.082031 205.449219 C 182.082031 205.449219 186.253906 205 189.609375 205.28125 C 193.238281 221.742188 191.125 224.277344 193.171875 232.925781 C 195.738281 243.769531 198.261719 246.570312 196.449219 246.820312 C 194.640625 247.070312 193.984375 247.894531 194.652344 249.25 C 195.308594 250.609375 195.59375 251.898438 193.511719 251.898438 C 191.417969 251.898438 186.34375 251.898438 186.34375 251.898438 C 186.34375 251.898438 186.695312 248.789062 189.351562 248.277344 C 189.351562 248.277344 189.046875 247.296875 190.300781 246.097656 C 191.339844 245.101562 191.09375 241.652344 189.78125 236.125 C 188.164062 229.273438 186.625 227.070312 186.027344 225.066406 C 185.269531 222.535156 185.835938 219.683594 184.578125 216.257812 C 183.054688 212.078125 181.730469 209.601562 179.683594 205.597656 C 177.195312 205.6875 175.457031 205.65625 173.601562 205.519531 C 175.363281 202.941406 178.382812 200.703125 178.382812 200.703125 C 167 205.972656 165.640625 218.78125 158.644531 228.503906 C 150.660156 239.605469 152.300781 247.464844 151 247.554688 C 149.699219 247.644531 148.242188 247.90625 148.140625 249.070312 C 148.039062 250.234375 148.816406 251.898438 146.964844 251.898438 C 145.121094 251.898438 139.050781 251.898438 139.050781 251.898438 C 139.050781 251.898438 139.75 248.765625 142.394531 248.3125 C 142.394531 248.3125 143.425781 246.515625 144.984375 245.847656 C 147.992188 244.558594 152.34375 232.824219 152.617188 227.386719 C 152.945312 220.75 155.125 222.09375 157.691406 207.621094 C 158.644531 202.238281 154.359375 196.269531 153.722656 189.78125 C 153.722656 189.78125 153.171875 192.550781 153.871094 196.066406 C 150.34375 195.105469 146.828125 197.253906 140.675781 193.070312 C 140.675781 193.070312 142.292969 195.015625 143.832031 196.125 C 143.289062 198.476562 145.199219 200.714844 144.488281 205.113281 C 143.773438 209.507812 142.644531 214.269531 140.203125 212.515625 C 137.769531 210.753906 140.632812 203.382812 136.957031 203.324219 C 130.714844 203.234375 129.097656 197.195312 128.332031 201.03125 C 126.738281 209.011719 123.320312 201.933594 122.304688 204.804688 C 121.863281 206.050781 119.839844 207.339844 118.054688 205.347656 C 116.265625 203.359375 116.742188 201.527344 115.078125 200.644531 C 112.410156 199.230469 118.597656 190.300781 126.632812 180.925781 C 128.761719 180.328125 130.082031 180.824219 130.082031 180.824219 C 126.578125 177.851562 112.683594 185.675781 107.46875 175.996094 C 106.960938 175.046875 109.222656 177.410156 112.128906 177.863281 C 109.957031 176.8125 105.695312 172.503906 105.027344 169.441406 C 104.789062 168.367188 104.78125 167.765625 105.671875 169.042969 C 107.0625 171.046875 110.570312 176.292969 117.070312 176.449219 C 119.566406 178.429688 124.023438 178.226562 124.023438 178.226562 C 117.828125 177.332031 113.125 173.644531 111.574219 167.214844 C 110.308594 161.933594 111.609375 162.160156 112.773438 166.140625 C 114.457031 171.925781 121.320312 175.566406 124.386719 175.21875 C 127.449219 174.867188 129.019531 173.101562 125.277344 170.425781 C 123.152344 168.898438 119.230469 165.628906 119.308594 162.746094 C 119.332031 161.855469 119.886719 162.160156 120.109375 162.9375 C 120.789062 165.3125 128.082031 172.957031 130.003906 170.773438 C 131.316406 169.28125 131.40625 166.589844 130.21875 164.171875 C 129.042969 161.753906 130.027344 159.820312 130.152344 160.78125 C 130.273438 161.753906 131.238281 165.710938 132.648438 164.601562 C 134.0625 163.503906 135.25 160.722656 133.519531 157.738281 C 131.789062 154.753906 132.570312 152.242188 132.851562 153.011719 C 133.148438 153.78125 133.089844 154.921875 134.390625 156.925781 C 135.691406 158.925781 136.539062 159.34375 137.703125 156.664062 C 138.867188 153.984375 139.117188 151.496094 138.394531 149.734375 C 137.667969 147.96875 139.46875 148.386719 139.839844 150.390625 C 140.214844 152.390625 140.441406 155.882812 142.179688 154.652344 C 143.921875 153.417969 145.640625 151.441406 145.402344 149.222656 C 145.175781 147.007812 147.484375 148.457031 146.511719 150.921875 C 145.550781 153.386719 143.957031 156.085938 145.300781 156.640625 C 146.636719 157.195312 148.398438 155.738281 149.246094 153.589844 C 150.09375 151.429688 151.148438 151.214844 150.648438 152.820312 C 148.207031 160.746094 134.753906 170.164062 134.742188 175.457031 C 134.742188 175.457031 135.859375 171.507812 142.328125 168.207031 C 144.972656 167.96875 147.8125 168.117188 150.175781 167.621094 C 164.882812 164.535156 166.332031 157.75 172.921875 157.75 C 185.4375 157.75 182.238281 165.425781 205.835938 164.023438 C 216.472656 163.390625 225.78125 161.796875 235.546875 164.554688 C 238.679688 165.4375 252.632812 170.671875 248.652344 175.433594 C 246.753906 172.652344 244.636719 172.199219 244.636719 172.199219 C 246.628906 173.5 247.542969 175.558594 247.917969 177.863281 C 249.261719 186.058594 247.398438 200.183594 260.027344 206.207031 C 262.976562 207.609375 262.546875 208.050781 262.875 212.449219 C 263.203125 216.847656 265.058594 235.535156 267.171875 237.039062 C 269.285156 238.53125 268.460938 238.882812 267.714844 238.929688 C 266.96875 238.972656 267.148438 240.589844 269.273438 242.230469 C 270.925781 243.496094 268.40625 250.15625 268.007812 250.191406 C 267.160156 250.269531 265.929688 243.28125 263.632812 240.421875 C 261.339844 237.5625 261.15625 235.683594 259.96875 225.644531 C 258.714844 215.015625 250.652344 211.863281 243.53125 205.335938 C 240.839844 196.078125 245.078125 186.988281 245.078125 186.988281 C 235.140625 206.277344 247.882812 215.027344 246.855469 217.730469 C 241.210938 232.425781 235.957031 244.492188 236.171875 245.148438 C 237.085938 247.929688 236.566406 248.742188 235.46875 248.6875 C 234.371094 248.617188 236.292969 251.917969 234.113281 251.917969 C 231.917969 251.917969 224.863281 251.917969 224.863281 251.917969 Z M 224.898438 251.886719 " fill-opacity="1" fill-rule="evenodd"/></g><g fill="#000000" fill-opacity="1"><g transform="translate(141.94867, 116.358512)"><g><path d="M 18.234375 -37.859375 L 18.515625 -7.515625 C 18.535156 -6.921875 18.382812 -6.394531 18.0625 -5.9375 C 17.75 -5.488281 17.300781 -5.175781 16.71875 -5 L 10.734375 -3.203125 C 10.160156 -3.035156 9.613281 -3.050781 9.09375 -3.25 C 8.582031 -3.457031 8.171875 -3.816406 7.859375 -4.328125 L -8.59375 -29.84375 L -1.828125 -31.859375 L 9.984375 -12 C 10.617188 -10.945312 11.191406 -9.910156 11.703125 -8.890625 L 12.78125 -9.21875 C 12.707031 -9.800781 12.625 -10.984375 12.53125 -12.765625 L 11.453125 -35.828125 Z M 18.234375 -37.859375 "/></g></g></g><g fill="#000000" fill-opacity="1"><g transform="translate(169.356118, 108.908856)"><g><path d="M 9.9375 -1 L 3.140625 -0.3125 L 0.015625 -31.203125 L 6.8125 -31.890625 Z M 9.9375 -1 "/></g></g></g><g fill="#000000" fill-opacity="1"><g transform="translate(182.578364, 107.122374)"><g><path d="M 12.0625 -30.265625 L 10.4375 -7.15625 C 10.375 -6.34375 10.515625 -5.742188 10.859375 -5.359375 C 11.210938 -4.972656 11.820312 -4.75 12.6875 -4.6875 L 23.328125 -3.9375 L 23.28125 1.28125 C 20.226562 1.40625 15.84375 1.265625 10.125 0.859375 C 7.726562 0.691406 5.992188 -0.03125 4.921875 -1.3125 C 3.847656 -2.59375 3.378906 -4.238281 3.515625 -6.25 L 5.25 -30.75 Z M 12.0625 -30.265625 "/></g></g></g><g fill="#000000" fill-opacity="1"><g transform="translate(205.738142, 108.498771)"><g><path d="M 32.546875 -16.6875 L 23.6875 -19.390625 L 16.234375 4.96875 L 9.640625 2.953125 L 17.09375 -21.40625 L 8.234375 -24.125 L 9.859375 -29.453125 L 34.171875 -22.015625 Z M 32.546875 -16.6875 "/></g></g></g></svg>